<?xml version="1.0" encoding="UTF-8" standalone="no"?>
<svg xmlns="http://www.w3.org/2000/svg" fill="none" height="16" viewBox="0 0 17 16" width="17">
  
  <path d="M14.2725 6.66663C14.2725 11.3333 8.27246 15.3333 8.27246 15.3333C8.27246 15.3333 2.27246 11.3333 2.27246 6.66663C2.27246 5.07533 2.9046 3.5492 4.02982 2.42399C5.15504 1.29877 6.68116 0.666626 8.27246 0.666626C9.86376 0.666626 11.3899 1.29877 12.5151 2.42399C13.6403 3.5492 14.2725 5.07533 14.2725 6.66663Z" stroke="white" stroke-linecap="round" stroke-linejoin="round"/>
  
  <path d="M8.27246 8.66663C9.37703 8.66663 10.2725 7.7712 10.2725 6.66663C10.2725 5.56206 9.37703 4.66663 8.27246 4.66663C7.16789 4.66663 6.27246 5.56206 6.27246 6.66663C6.27246 7.7712 7.16789 8.66663 8.27246 8.66663Z" stroke="white" stroke-linecap="round" stroke-linejoin="round"/>
  
</svg>
