<?xml version="1.0" encoding="UTF-8" standalone="no"?>
<svg xmlns="http://www.w3.org/2000/svg" fill="none" height="16" viewBox="0 0 16 16" width="16">
  
  <path d="M14.6665 11.5204V13.561C14.6672 13.7504 14.6292 13.9379 14.5548 14.1115C14.4804 14.285 14.3713 14.4408 14.2345 14.5689C14.0977 14.697 13.9362 14.7945 13.7603 14.8551C13.5844 14.9158 13.398 14.9384 13.2131 14.9213C11.1617 14.6939 9.19113 13.9787 7.45979 12.8332C5.84901 11.7889 4.48335 10.3955 3.45979 8.75209C2.33311 6.97764 1.63195 4.95736 1.41313 2.85493C1.39647 2.66684 1.41838 2.47727 1.47746 2.29829C1.53654 2.11931 1.63151 1.95484 1.7563 1.81536C1.8811 1.67587 2.033 1.56443 2.20232 1.48812C2.37164 1.41181 2.55469 1.37231 2.73979 1.37214H4.73979C5.06333 1.36889 5.37699 1.48578 5.6223 1.70103C5.86761 1.91627 6.02784 2.21518 6.07313 2.54205C6.15754 3.19506 6.31409 3.83624 6.53979 4.45335C6.62949 4.6968 6.6489 4.96139 6.59573 5.21575C6.54256 5.47012 6.41903 5.7036 6.23979 5.88853L5.39313 6.75236C6.34216 8.45522 7.7241 9.86517 9.39313 10.8334L10.2398 9.96961C10.4211 9.78674 10.6499 9.66071 10.8992 9.60646C11.1485 9.55221 11.4078 9.57202 11.6465 9.66353C12.2513 9.89381 12.8797 10.0535 13.5198 10.1397C13.8436 10.1863 14.1394 10.3527 14.3508 10.6073C14.5622 10.8619 14.6746 11.1868 14.6665 11.5204Z" stroke="white" stroke-linecap="round" stroke-linejoin="round"/>
  
</svg>
