<?xml version="1.0" encoding="UTF-8" standalone="no"?><!-- Generator: Gravit.io --><svg xmlns="http://www.w3.org/2000/svg" xmlns:xlink="http://www.w3.org/1999/xlink" style="isolation:isolate" viewBox="0 0 50 50" width="50pt" height="50pt"><path d=" M 34.238 27.33 L 35.34 20.146 L 28.447 20.146 L 28.447 15.483 C 28.447 13.518 29.409 11.602 32.497 11.602 L 35.631 11.602 L 35.631 5.485 C 35.631 5.485 32.787 5 30.068 5 C 24.39 5 20.68 8.441 20.68 14.67 L 20.68 20.146 L 14.369 20.146 L 14.369 27.33 L 20.68 27.33 L 20.68 44.698 C 21.945 44.897 23.242 45 24.563 45 C 25.884 45 27.181 44.897 28.447 44.698 L 28.447 27.33 L 34.238 27.33 L 34.238 27.33 Z " fill="rgb(255,255,255)"/></svg>