<?xml version="1.0" encoding="UTF-8" standalone="no"?><!-- Generator: Gravit.io --><svg xmlns="http://www.w3.org/2000/svg" xmlns:xlink="http://www.w3.org/1999/xlink" style="isolation:isolate" viewBox="0 0 50 50" width="50pt" height="50pt"><g><path d=" M 25 5 C 19.568 5 18.887 5.023 16.754 5.12 C 14.625 5.218 13.171 5.556 11.899 6.05 C 10.584 6.561 9.469 7.245 8.357 8.357 C 7.245 9.469 6.561 10.584 6.05 11.899 C 5.555 13.171 5.217 14.625 5.12 16.754 C 5.023 18.887 5 19.568 5 25 C 5 30.432 5.023 31.113 5.12 33.246 C 5.217 35.375 5.555 36.829 6.05 38.101 C 6.561 39.416 7.245 40.531 8.357 41.643 C 9.469 42.755 10.584 43.439 11.899 43.95 C 13.171 44.444 14.625 44.783 16.754 44.88 C 18.887 44.977 19.568 45 25 45 C 30.432 45 31.113 44.977 33.246 44.88 C 35.375 44.783 36.829 44.444 38.101 43.95 C 39.416 43.439 40.531 42.755 41.643 41.643 C 42.755 40.531 43.439 39.416 43.95 38.101 C 44.444 36.829 44.783 35.375 44.88 33.246 C 44.977 31.113 45 30.432 45 25 C 45 19.568 44.977 18.887 44.88 16.754 C 44.783 14.625 44.444 13.171 43.95 11.899 C 43.439 10.584 42.755 9.469 41.643 8.357 C 40.531 7.245 39.416 6.561 38.101 6.05 C 36.829 5.556 35.375 5.218 33.246 5.12 C 31.113 5.023 30.432 5 25 5 Z  M 25 8.604 C 30.34 8.604 30.973 8.624 33.082 8.72 C 35.032 8.809 36.091 9.135 36.795 9.409 C 37.729 9.772 38.395 10.205 39.095 10.905 C 39.795 11.605 40.228 12.271 40.591 13.205 C 40.865 13.909 41.191 14.968 41.28 16.918 C 41.376 19.027 41.396 19.66 41.396 25 C 41.396 30.34 41.376 30.973 41.28 33.082 C 41.191 35.032 40.865 36.091 40.591 36.795 C 40.228 37.729 39.795 38.395 39.095 39.095 C 38.395 39.795 37.729 40.228 36.795 40.591 C 36.091 40.865 35.032 41.191 33.082 41.28 C 30.973 41.376 30.341 41.396 25 41.396 C 19.659 41.396 19.027 41.376 16.918 41.28 C 14.968 41.191 13.909 40.865 13.205 40.591 C 12.271 40.228 11.605 39.795 10.905 39.095 C 10.205 38.395 9.772 37.729 9.409 36.795 C 9.135 36.091 8.809 35.032 8.72 33.082 C 8.624 30.973 8.604 30.34 8.604 25 C 8.604 19.66 8.624 19.027 8.72 16.918 C 8.809 14.968 9.135 13.909 9.409 13.205 C 9.772 12.271 10.205 11.605 10.905 10.905 C 11.605 10.205 12.271 9.772 13.205 9.409 C 13.909 9.135 14.968 8.809 16.918 8.72 C 19.027 8.624 19.66 8.604 25 8.604 Z " fill="rgb(255,255,255)"/><path d=" M 25 31.667 C 21.318 31.667 18.333 28.682 18.333 25 C 18.333 21.318 21.318 18.333 25 18.333 C 28.682 18.333 31.667 21.318 31.667 25 C 31.667 28.682 28.682 31.667 25 31.667 Z  M 25 14.73 C 19.328 14.73 14.73 19.328 14.73 25 C 14.73 30.672 19.328 35.27 25 35.27 C 30.672 35.27 35.27 30.672 35.27 25 C 35.27 19.328 30.672 14.73 25 14.73 Z " fill="rgb(255,255,255)"/><path d=" M 38.076 14.324 C 38.076 15.649 37.002 16.724 35.676 16.724 C 34.351 16.724 33.276 15.649 33.276 14.324 C 33.276 12.998 34.351 11.924 35.676 11.924 C 37.002 11.924 38.076 12.998 38.076 14.324 Z " fill="rgb(255,255,255)"/></g></svg>