<?xml version="1.0" encoding="UTF-8" standalone="no"?><!-- Generator: Gravit.io --><svg xmlns="http://www.w3.org/2000/svg" xmlns:xlink="http://www.w3.org/1999/xlink" style="isolation:isolate" viewBox="0 0 50 50" width="50pt" height="50pt"><g><g><path d=" M 13.643 45 L 5.071 45 L 5.071 16.429 L 13.643 16.429 L 13.643 45 Z  M 45.071 45 L 36.5 45 L 36.5 29.737 C 36.5 25.76 35.083 23.78 32.274 23.78 C 30.048 23.78 28.637 24.889 27.928 27.109 C 27.928 30.714 27.928 45 27.928 45 L 19.357 45 C 19.357 45 19.471 19.286 19.357 16.429 L 26.123 16.429 L 26.646 22.143 L 26.823 22.143 C 28.58 19.286 31.388 17.349 35.24 17.349 C 38.168 17.349 40.537 18.163 42.346 20.209 C 44.166 22.257 45.071 25.006 45.071 28.866 L 45.071 45 Z " fill="rgb(255,255,255)"/></g><g><ellipse vector-effect="non-scaling-stroke" cx="9.357113899613658" cy="9.285714285714231" rx="4.428571428571388" ry="4.285714285714242" fill="rgb(255,255,255)"/></g></g></svg>