<?xml version="1.0" encoding="UTF-8" standalone="no"?><!-- Generator: Gravit.io --><svg xmlns="http://www.w3.org/2000/svg" xmlns:xlink="http://www.w3.org/1999/xlink" style="isolation:isolate" viewBox="0 0 50 50" width="50pt" height="50pt"><path d=" M 44.164 15.372 C 43.704 13.651 42.349 12.296 40.628 11.836 C 37.508 11 25 11 25 11 C 25 11 12.492 11 9.372 11.836 C 7.651 12.296 6.296 13.651 5.836 15.372 C 5 18.492 5 25 5 25 C 5 25 5 31.509 5.836 34.628 C 6.296 36.349 7.651 37.704 9.372 38.164 C 12.492 39 25 39 25 39 C 25 39 37.508 39 40.628 38.164 C 42.349 37.704 43.704 36.349 44.164 34.628 C 45 31.509 45 25 45 25 C 45 25 45 18.492 44.164 15.372 L 44.164 15.372 Z  M 21 31 L 21 19 L 31.392 25 L 21 31 Z " fill="rgb(255,255,255)"/></svg>