<svg width="31" height="31" viewBox="0 0 31 31" fill="none" xmlns="http://www.w3.org/2000/svg">
<path d="M2.64701 9.10797V30.1895" stroke="#1E2E3F" stroke-width="1.5" stroke-linecap="round" stroke-linejoin="round"/>
<path d="M28.5682 9.10797V30.1895" stroke="#1E2E3F" stroke-width="1.5" stroke-linecap="round" stroke-linejoin="round"/>
<path d="M1 30.1892H30.1898" stroke="#1E2E3F" stroke-width="1.5" stroke-linecap="round" stroke-linejoin="round"/>
<path fill-rule="evenodd" clip-rule="evenodd" d="M28.5682 9.10828H2.62166C1.72617 9.10796 1.00032 8.38211 1 7.48662V2.62166C1.00032 1.72617 1.72617 1.00032 2.62166 1H28.5682C29.4636 1.00032 30.1895 1.72617 30.1898 2.62166V7.48662C30.1895 8.38211 29.4636 9.10796 28.5682 9.10828Z" stroke="#1E2E3F" stroke-width="1.5" stroke-linecap="round" stroke-linejoin="round"/>
<path d="M22.0986 18.5951L20.8499 28.7629C20.7547 29.5772 20.0643 30.1909 19.2444 30.19H11.947C11.1271 30.1909 10.4367 29.5772 10.3416 28.7629L9.07666 18.5951" stroke="#1E2E3F" stroke-width="1.5" stroke-linecap="round" stroke-linejoin="round"/>
<path fill-rule="evenodd" clip-rule="evenodd" d="M21.2703 18.8374H9.92143C9.40014 18.8376 8.91054 18.5872 8.60563 18.1643C8.30072 17.7415 8.21769 17.1979 8.38248 16.7033L8.92249 15.0817C9.14358 14.4195 9.76331 13.9728 10.4614 13.9724H20.7286C21.4269 13.9723 22.0469 14.4191 22.2676 15.0817L22.8076 16.7033C22.9731 17.1976 22.8905 17.7414 22.5859 18.1643C22.2812 18.5873 21.7915 18.8378 21.2703 18.8374V18.8374Z" stroke="#1E2E3F" stroke-width="1.5" stroke-linecap="round" stroke-linejoin="round"/>
</svg>
