<svg width="32" height="32" viewBox="0 0 32 32" fill="none" xmlns="http://www.w3.org/2000/svg">
<path fill-rule="evenodd" clip-rule="evenodd" d="M27.6667 31H4.33333C2.49238 31 1 29.5076 1 27.6667V4.33333C1 2.49238 2.49238 1 4.33333 1H27.6667C29.5076 1 31 2.49238 31 4.33333V27.6667C31 29.5076 29.5076 31 27.6667 31Z" stroke="#1E2E3F" stroke-width="1.5" stroke-linecap="round" stroke-linejoin="round"/>
<rect x="5.28613" y="16" width="21.4286" height="10.7143" rx="1.83333" stroke="#1E2E3F" stroke-width="1.5" stroke-linecap="round" stroke-linejoin="round"/>
<path d="M31 10.9999H1" stroke="#1E2E3F" stroke-width="1.5" stroke-linecap="round" stroke-linejoin="round"/>
<path d="M20.2507 5.99991C20.2506 6.0459 20.2133 6.08316 20.1673 6.08314C20.1213 6.08312 20.084 6.04584 20.084 5.99984C20.084 5.95384 20.1212 5.91653 20.1672 5.91647C20.1894 5.91645 20.2106 5.92523 20.2262 5.94088C20.2419 5.95653 20.2507 5.97777 20.2507 5.99991" stroke="#1E2E3F" stroke-width="1.5" stroke-linecap="round" stroke-linejoin="round"/>
<path d="M25.2507 5.99991C25.2506 6.0459 25.2133 6.08316 25.1673 6.08314C25.1213 6.08312 25.084 6.04584 25.084 5.99984C25.084 5.95384 25.1212 5.91653 25.1672 5.91647C25.1894 5.91645 25.2106 5.92523 25.2262 5.94088C25.2419 5.95653 25.2507 5.97777 25.2507 5.99991" stroke="#1E2E3F" stroke-width="1.5" stroke-linecap="round" stroke-linejoin="round"/>
<path d="M11.9167 5.99991C11.9166 6.0459 11.8793 6.08316 11.8333 6.08314C11.7873 6.08312 11.75 6.04584 11.75 5.99984C11.75 5.95384 11.7872 5.91653 11.8332 5.91647C11.8554 5.91645 11.8766 5.92523 11.8923 5.94088C11.9079 5.95653 11.9167 5.97777 11.9167 5.99991" stroke="#1E2E3F" stroke-width="1.5" stroke-linecap="round" stroke-linejoin="round"/>
<path d="M6.91667 5.99991C6.91661 6.0459 6.8793 6.08316 6.8333 6.08314C6.7873 6.08312 6.75002 6.04584 6.75 5.99984C6.74998 5.95384 6.78724 5.91653 6.83323 5.91647C6.85537 5.91645 6.87661 5.92523 6.89226 5.94088C6.90791 5.95653 6.91669 5.97777 6.91667 5.99991" stroke="#1E2E3F" stroke-width="1.5" stroke-linecap="round" stroke-linejoin="round"/>
</svg>
