<svg width="32" height="32" viewBox="0 0 32 32" fill="none" xmlns="http://www.w3.org/2000/svg">
<path fill-rule="evenodd" clip-rule="evenodd" d="M4.33333 31H27.2983C29.14 31 30.6317 29.5083 30.6317 27.6667V4.33333C30.6317 2.49167 29.14 1 27.2983 1H4.33333C2.49167 1 1 2.49167 1 4.33333V27.6667C1 29.5083 2.49167 31 4.33333 31Z" stroke="#1E2E3F" stroke-width="1.5" stroke-linecap="round" stroke-linejoin="round"/>
<path d="M30.6333 9.33333H1" stroke="#1E2E3F" stroke-width="1.5" stroke-linecap="round" stroke-linejoin="round"/>
<path d="M10.2265 23.4998V23.4998C9.3915 22.0531 9.8165 20.2081 11.1998 19.2731L11.2015 19.2715C12.3115 18.5198 13.7732 18.5448 14.8565 19.3331L17.1432 20.9981C18.2265 21.7865 19.6882 21.8115 20.7982 21.0598L20.7998 21.0581C22.1832 20.1231 22.6065 18.2781 21.7732 16.8315V16.8315" stroke="#1E2E3F" stroke-width="1.5" stroke-linecap="round" stroke-linejoin="round"/>
<path d="M20.7147 15.4527C23.3182 18.0562 23.3182 22.2773 20.7147 24.8808C18.1112 27.4843 13.8901 27.4843 11.2866 24.8808C8.68311 22.2773 8.68311 18.0562 11.2866 15.4527C13.8901 12.8492 18.1112 12.8492 20.7147 15.4527" stroke="#1E2E3F" stroke-width="1.5" stroke-linecap="round" stroke-linejoin="round"/>
<path d="M22.666 5.16677H25.9993" stroke="#1E2E3F" stroke-width="1.5" stroke-linecap="round" stroke-linejoin="round"/>
</svg>
