<svg width="30" height="50" xmlns="http://www.w3.org/2000/svg"><path d="M3.816 0c-.598.008-1.074.597-1.087 1.087V14.13c0 .428.283.842.68 1.002l9.969 4.009a1.618 1.618 0 0 0-.323.968c0 .22.057.42.136.611-7.39.753-13.18 7.02-13.18 14.606C.012 43.417 6.595 50 14.687 50c8.09 0 14.673-6.583 14.673-14.674 0-7.586-5.789-13.853-13.179-14.606.079-.191.136-.392.136-.611 0-.377-.125-.726-.34-1.002l9.987-3.975c.396-.16.677-.574.68-1.002V1.087C26.641.517 26.123 0 25.554 0H3.816zm1.087 2.174h4.891v13.162l-4.891-1.953V2.173zm7.065 0h5.435v14.028l-2.751 1.087-2.684-1.07V2.174zm7.609 0h4.891v11.21l-4.891 1.952V2.174zm-4.891 20.652c6.916 0 12.5 5.584 12.5 12.5 0 6.917-5.584 12.5-12.5 12.5-6.917 0-12.5-5.583-12.5-12.5 0-6.916 5.583-12.5 12.5-12.5zm-.12 2.157a1.1 1.1 0 0 0-.849.611l-2.445 5.045-5.435.798c-.394.06-.742.36-.865.747-.122.385-.014.837.27 1.121l3.924 3.906-.917 5.52c-.122.632.42 1.305 1.053 1.308.177 0 .354-.05.51-.136l4.874-2.616 4.874 2.616c.356.192.818.157 1.142-.086a1.13 1.13 0 0 0 .42-1.086l-.917-5.52 3.923-3.906c.285-.284.394-.736.27-1.121a1.107 1.107 0 0 0-.864-.747l-5.435-.798-2.445-5.045a1.102 1.102 0 0 0-1.087-.611zm.12 3.584l1.715 3.55c.156.316.47.545.815.594l3.838.577-2.768 2.751a1.13 1.13 0 0 0-.323.985l.68 3.907-3.465-1.852a1.079 1.079 0 0 0-1.002 0l-3.43 1.852.662-3.907a1.13 1.13 0 0 0-.323-.985l-2.768-2.751 3.838-.577c.344-.049.66-.278.815-.595l1.716-3.55z" fill="#BCC7D3"/></svg>