<svg width="165" height="32" viewBox="0 0 165 32" fill="none" xmlns="http://www.w3.org/2000/svg">
<g clip-path="url(#clip0_21384_41794)">
<path d="M23.2623 27.9501L21.7943 24.0687H9.29944L7.83156 28.0218C7.25871 29.5672 6.32787 31.9752 6.32787 31.9752H0.0625C0.0625 31.9752 1.96001 26.764 2.28223 25.9734L10.1587 5.91939C10.3735 5.34436 10.6599 4.66152 10.9821 3.83492C11.3044 3.04427 11.6266 2.36143 11.9846 1.82234C12.3426 1.28326 12.808 0.851988 13.3809 0.528537C13.9537 0.205086 14.6697 0.0253906 15.529 0.0253906C16.3883 0.0253906 17.1043 0.205086 17.7129 0.528537C18.2858 0.851988 18.7512 1.28326 19.1092 1.7864C19.4672 2.28955 19.7536 2.86456 20.0043 3.47553C20.2549 4.0865 20.5771 4.87716 20.9351 5.84751L28.9547 25.7938L31.3177 31.9752H24.8376L23.2623 27.9501ZM10.9105 19.3965H20.1117L15.4932 6.63818L10.9105 19.3965Z" fill="#DC2F2F"/>
<path d="M78.2387 23.9156C78.2387 25.5582 77.852 26.9669 77.0817 28.1379C76.3082 29.3091 75.1696 30.1974 73.6595 30.7997C72.1497 31.4021 70.3142 31.7062 68.1537 31.7062C66.0912 31.7062 64.3204 31.3776 62.8471 30.7236C61.3741 30.0696 60.2844 29.2514 59.5848 28.2688C58.8818 27.2862 58.5319 26.3005 58.5319 25.3118C58.5319 24.6578 58.7561 24.0981 59.2073 23.6328C59.6553 23.1672 60.2262 22.9361 60.9137 22.9361C61.5182 22.9361 61.9816 23.0882 62.3039 23.3925C62.6262 23.6997 62.9362 24.1285 63.2309 24.6792C63.8201 25.7408 64.526 26.5347 65.3454 27.058C66.168 27.5813 67.2851 27.8428 68.7031 27.8428C69.8538 27.8428 70.7992 27.5782 71.5358 27.0459C72.2725 26.5134 72.6406 25.9081 72.6406 25.2236C72.6406 24.1772 72.257 23.4136 71.4928 22.933C70.7287 22.4523 69.4671 21.9962 67.7147 21.558C65.7353 21.05 64.124 20.5146 62.8839 19.9549C61.6409 19.3952 60.6498 18.6559 59.9039 17.7403C59.1581 16.8246 58.7867 15.696 58.7867 14.3575C58.7867 13.1651 59.1305 12.0395 59.818 10.9748C60.5055 9.91313 61.5213 9.06745 62.8594 8.43471C64.2007 7.80197 65.8181 7.48559 67.7117 7.48559C69.2003 7.48559 70.5353 7.64682 71.723 7.96624C72.9076 8.28565 73.899 8.71458 74.6909 9.25301C75.4827 9.79145 76.0874 10.3877 76.5017 11.0417C76.916 11.6958 77.1216 12.3376 77.1216 12.9612C77.1216 13.6457 76.9005 14.2054 76.4586 14.6405C76.0167 15.0755 75.3875 15.2945 74.5742 15.2945C73.985 15.2945 73.4816 15.1211 73.0672 14.7713C72.6529 14.4214 72.1802 13.8982 71.6463 13.2016C71.2104 12.6205 70.698 12.1551 70.1086 11.8053C69.5194 11.4554 68.7184 11.282 67.7086 11.282C66.6683 11.282 65.8057 11.5102 65.1183 11.9695C64.4308 12.4289 64.0872 12.9977 64.0872 13.6822C64.0872 14.3089 64.3388 14.8199 64.8451 15.2215C65.3515 15.62 66.0297 15.9516 66.886 16.2132C67.7425 16.4748 68.9208 16.7942 70.4248 17.1714C72.2078 17.6216 73.6627 18.1601 74.7952 18.7867C75.9247 19.4134 76.7809 20.1496 77.364 21.0013C77.9471 21.8531 78.2387 22.8236 78.2387 23.9156Z" fill="white"/>
<path d="M43.5598 7.38867C36.8017 7.38867 31.3203 12.8187 31.3203 19.5203C31.3203 26.2219 36.7986 31.6518 43.5598 31.6518C50.3181 31.6518 55.7995 26.2219 55.7995 19.5203C55.7995 12.8187 50.3181 7.38867 43.5598 7.38867ZM43.5598 26.9033C39.4473 26.9033 36.1142 23.5997 36.1142 19.5233C36.1142 15.447 39.4473 12.1434 43.5598 12.1434C47.6725 12.1434 51.0055 15.447 51.0055 19.5233C51.0055 23.5997 47.6725 26.9033 43.5598 26.9033Z" fill="white"/>
<path d="M93.502 7.49233C86.7437 7.49233 81.2623 12.9224 81.2623 19.624C81.2623 26.3256 86.7406 31.7556 93.502 31.7556C100.26 31.7556 105.741 26.3256 105.741 19.624C105.741 12.9224 100.263 7.49233 93.502 7.49233ZM93.502 27.0039C89.3893 27.0039 86.0562 23.7003 86.0562 19.624C86.0562 15.5476 89.3893 12.244 93.502 12.244C97.6145 12.244 100.948 15.5476 100.948 19.624C100.948 23.7003 97.6145 27.0039 93.502 27.0039Z" fill="white"/>
<path d="M142.12 18.1273C142.12 14.8936 141.405 12.4326 139.975 10.7443C138.158 8.57835 135.749 7.49539 132.741 7.49539C130.378 7.49539 128.014 8.61181 125.651 10.8416C123.53 8.61181 121.134 7.49539 118.466 7.49539C115.879 7.49539 113.676 8.43234 111.862 10.3032C110.045 12.174 109.136 14.4495 109.136 17.1265V31.7982H113.832C113.783 31.5031 113.752 31.1898 113.752 30.846V17.96C113.752 14.8784 115.83 13.0471 118.39 13.0471C120.952 13.0471 123.027 14.8815 123.027 17.96V30.843C123.027 31.1837 122.996 31.5 122.947 31.7951H128.245C128.196 31.5 128.165 31.1867 128.165 30.843V17.96C128.165 14.8784 130.243 13.0471 132.802 13.0471C135.365 13.0471 137.44 14.8815 137.44 17.96V30.843C137.44 31.1837 137.409 31.5 137.36 31.7951H142.105V18.1273H142.12Z" fill="white"/>
<path d="M147.049 31.7616C148.047 31.7616 148.855 30.9593 148.855 29.9696C148.855 28.9799 148.047 28.1776 147.049 28.1776C146.052 28.1776 145.243 28.9799 145.243 29.9696C145.243 30.9593 146.052 31.7616 147.049 31.7616Z" fill="white"/>
<path d="M158.972 21.0686H159.265V19.4384C159.265 19.0013 159.277 18.66 159.299 18.4111C159.322 18.1623 159.388 17.9485 159.491 17.7699C159.595 17.5849 159.746 17.4349 159.942 17.3169C160.137 17.1988 160.357 17.1446 160.6 17.1446C160.94 17.1446 161.245 17.2722 161.522 17.5306C161.705 17.7029 161.821 17.9135 161.872 18.1623C161.919 18.4111 161.944 18.7621 161.944 19.2215V21.0686H162.923C163.301 21.0686 163.591 21.1611 163.789 21.343C163.987 21.5248 164.088 21.7578 164.088 22.0416C164.088 22.4053 163.946 22.6605 163.663 22.8073C163.38 22.9541 162.973 23.0242 162.441 23.0242H161.941V28.0105C161.941 28.4349 161.957 28.7603 161.985 28.99C162.013 29.2196 162.092 29.4047 162.221 29.5451C162.35 29.6854 162.555 29.7588 162.844 29.7588C163.002 29.7588 163.213 29.7302 163.48 29.6758C163.748 29.6185 163.959 29.5929 164.107 29.5929C164.324 29.5929 164.516 29.6823 164.69 29.8577C164.863 30.0332 164.948 30.2501 164.948 30.5086C164.948 30.9455 164.712 31.2806 164.242 31.5102C163.773 31.7432 163.096 31.858 162.215 31.858C161.377 31.858 160.745 31.7144 160.313 31.4305C159.882 31.1465 159.598 30.751 159.466 30.2501C159.331 29.746 159.265 29.0761 159.265 28.2339V23.0242H158.912C158.528 23.0242 158.232 22.9317 158.031 22.7466C157.829 22.5615 157.728 22.3256 157.728 22.0416C157.728 21.7578 157.835 21.5248 158.046 21.343C158.257 21.1579 158.566 21.0686 158.972 21.0686Z" fill="white"/>
<path d="M152.946 19.1337C152.543 19.1337 152.201 19.0135 151.913 18.7697C151.629 18.5291 151.487 18.1873 151.487 17.7441C151.487 17.3422 151.633 17.0129 151.926 16.7534C152.22 16.4938 152.559 16.3641 152.946 16.3641C153.32 16.3641 153.653 16.4812 153.94 16.7154C154.227 16.9496 154.373 17.2947 154.373 17.7441C154.373 18.181 154.231 18.5196 153.95 18.7665C153.669 19.0135 153.337 19.1337 152.946 19.1337ZM154.376 22.0617V30.2503C154.376 30.8169 154.237 31.2475 153.963 31.5387C153.688 31.8298 153.34 31.9754 152.914 31.9754C152.491 31.9754 152.146 31.8267 151.881 31.5293C151.616 31.2316 151.487 30.8043 151.487 30.2503V22.1441C151.487 21.5837 151.62 21.1627 151.884 20.8778C152.149 20.5929 152.494 20.4537 152.917 20.4537C153.34 20.4537 153.688 20.5961 153.966 20.8778C154.237 21.1627 154.376 21.5553 154.376 22.0617Z" fill="white"/>
</g>
<defs>
<clipPath id="clip0_21384_41794">
<rect width="164.883" height="31.9498" fill="white" transform="translate(0.0625 0.0253906)"/>
</clipPath>
</defs>
</svg>
