<?xml version="1.0" encoding="iso-8859-1"?>
<!-- Generator: Adobe Illustrator 16.0.4, SVG Export Plug-In . SVG Version: 6.00 Build 0)  -->
<!DOCTYPE svg
  PUBLIC '-//W3C//DTD SVG 1.1//EN'
  'http://www.w3.org/Graphics/SVG/1.1/DTD/svg11.dtd'>
<svg height="46px" version="1.1" viewBox="0 0 46 46" width="46px" x="0px" xml:space="preserve" xmlns="http://www.w3.org/2000/svg" xmlns:xlink="http://www.w3.org/1999/xlink" y="0px">
    <g>
         <animateTransform additive="sum" attributeName="transform" attributeType="XML" begin="0s" calcMode="discrete" dur="1s" fill="freeze" repeatCount="indefinite" type="rotate" values="
            0 23 23;
            30 23 23;
            60 23 23;
            90 23 23;
            120 23 23;
            150 23 23;
            180 23 23;
            210 23 23;
            240 23 23;
            270 23 23;
            300 23 23;
            330 23 23"/>
        <g>
            <path d="M16.39,9.55c1.712-0.843,3.605-1.367,5.61-1.5V0.025c-3.461,0.148-6.722,1.062-9.622,2.576              L16.39,9.55z" style="fill:#fff;"/>
            <path d="M10.539,14.651c1.09-1.624,2.489-3.022,4.113-4.113l-4.004-6.936              C7.817,5.409,5.41,7.816,3.603,10.647L10.539,14.651z" style="fill:#eee;"/>
            <path d="M0.025,22H8.05c0.133-2.004,0.657-3.897,1.5-5.61l-6.949-4.012C1.088,15.278,0.173,18.539,0.025,22z              " style="fill:#aeaeae;"/>
            <path d="M2.602,33.623l6.949-4.012C8.707,27.898,8.183,26.005,8.05,24H0.025              C0.173,27.462,1.088,30.723,2.602,33.623z" style="fill:#666;"/>
            <path d="M14.651,35.461c-1.624-1.09-3.021-2.488-4.112-4.111l-6.936,4.004              c1.806,2.83,4.213,5.237,7.043,7.043L14.651,35.461z" style="fill:#3b3b3b;"/>
            <path d="M22,45.975v-8.025c-2.005-0.132-3.898-0.656-5.61-1.5l-4.012,6.949              C15.277,44.912,18.539,45.826,22,45.975z" style="fill:#333;"/>
            <path d="M29.611,36.449c-1.713,0.844-3.606,1.368-5.611,1.5v8.025c3.462-0.148,6.723-1.062,9.623-2.576              L29.611,36.449z" style="fill:#333;"/>
            <path d="M35.461,31.349c-1.09,1.624-2.488,3.022-4.111,4.112l4.004,6.936              c2.83-1.807,5.237-4.213,7.043-7.043L35.461,31.349z" style="fill:#333;"/>
            <path d="M45.975,24h-8.025c-0.132,2.005-0.656,3.897-1.5,5.61l6.949,4.013              C44.912,30.723,45.826,27.461,45.975,24z" style="fill:#333;"/>
            <path d="M43.399,12.378L36.45,16.39c0.843,1.713,1.367,3.605,1.499,5.61h8.025              C45.826,18.539,44.912,15.278,43.399,12.378z" style="fill:#333;"/>
            <path d="M31.349,10.539c1.624,1.09,3.022,2.489,4.113,4.113l6.936-4.004              c-1.807-2.831-4.214-5.238-7.045-7.045L31.349,10.539z" style="fill:#333;"/>
            <path d="M24,0.025V8.05c2.005,0.133,3.897,0.657,5.61,1.5l4.012-6.949C30.723,1.088,27.461,0.173,24,0.025z" style="fill:#333;"/>
        </g>
    </g>
</svg>
