<?xml version="1.0" encoding="UTF-8" standalone="no"?><!-- Generator: Gravit.io --><svg xmlns="http://www.w3.org/2000/svg" xmlns:xlink="http://www.w3.org/1999/xlink" style="isolation:isolate" viewBox="389.75 496 19.565 20.842" width="19.565pt" height="20.842pt"><g><g><clipPath id="_clipPath_zVIzGrPFE1DC7KH7HY93W6854VxiUA6W"><path d=" M 389.75 504.786 C 389.75 499.934 393.684 496 398.536 496 C 403.388 496 407.322 499.934 407.322 504.786 C 407.271 509.602 403.352 513.478 398.536 513.478 C 393.721 513.478 389.802 509.602 389.751 504.786 L 389.75 504.786 Z " fill="rgb(255,255,255)"/></clipPath><g clip-path="url(#_clipPath_zVIzGrPFE1DC7KH7HY93W6854VxiUA6W)"><path d=" M 389.751 504.904 C 389.686 500.052 393.567 496.066 398.419 496.001 C 403.271 495.936 407.257 499.816 407.322 504.668 C 407.335 509.484 403.469 513.413 398.654 513.477 C 393.838 513.542 389.868 509.718 389.752 504.904 L 389.751 504.904 Z " fill="none" vector-effect="non-scaling-stroke" stroke-width="2" stroke="rgb(0,0,0)" stroke-linejoin="bevel" stroke-linecap="butt" stroke-miterlimit="50"/></g></g><g><line x1="404.068" y1="511.294" x2="408.95" y2="516.5" vector-effect="non-scaling-stroke" stroke-width="1" stroke="rgb(0,0,0)" stroke-linejoin="round" stroke-linecap="butt" stroke-miterlimit="50"/></g></g></svg>