<svg enable-background="new 0 0 500 176" viewBox="0 0 500 176" xmlns="http://www.w3.org/2000/svg"><path d="m70.3 163.9c-18.4 0-31.5-8.5-31.5-22.9 0-8.6 2.4-14.2 8.1-17.2 11 12 27.8 25.5 45 35.3-5.5 2.7-12.7 4.8-21.6 4.8m-10.1-51.2c-6.9-6.4-11-12-11-18.8 0-9.4 6.7-12.6 12-12.6 5.9 0 12.4 2.8 12.4 13-.1 8.5-4 14.5-13.4 18.4m2.1-37c-16.8 0-26.6 10-26.6 26.7 0 3.7 1.5 9.6 5.3 15.4-18.6 4.1-25 13-25 26.1 0 10.8 8.9 28.6 46.8 28.6 15 0 25.9-3.2 36.3-9.2 11.6 5.6 23 9.2 33 9.2 4.1 0 9.6-.8 12.5-1.2v-3.6c-4.9-1.9-17.2-6.7-31.5-15.6 11.6-6.7 27.7-19 27.7-26.5 0-4.5-1.7-9.6-4.5-12.5-.4 0-.9-.1-1.4-.1-4.6 0-12 1.7-15.9 4.8 3.2 12.5-1.9 22-11.6 30.2-13.8-9-27.4-20.6-38.6-30.2 11.7-1.9 21.6-6.1 21.6-22 0-5.1-5.1-20.1-28.1-20.1" fill="#b5b5b5"/><g fill="#1d1d1b"><path d="m2.5 118v-3.4c11.6-.8 14.3-2.8 14.3-15.1v-57.5c0-12.7-1.7-14.3-12.8-15.1v-3.4c8.5 0 17.7.4 23.5.4s15.1-.4 23.6-.4v3.4c-11.1.9-12.8 2.4-12.8 15.1v22.7h44.8v-22.7c0-12.7-1.7-14.3-12.8-15.1v-3.4c8.5 0 17.8.4 23.6.4s14.9-.4 23.5-.4v3.4c-11.1.8-12.8 2.4-12.8 15.1v57.5c0 12.3 2.7 14.3 14.3 15.1v3.4c-10.7 0-18.8-.6-25-.6s-14.4.6-25.1.6v-3.4c11.6-.8 14.3-2.8 14.3-15.1v-28.7h-44.8v28.7c0 12.3 2.7 14.3 14.3 15.1v3.4c-10.7 0-18.9-.6-25.2-.6s-14.3.6-24.9.6z"/><path d="m172.5 120c-28.8 0-56.3-17.8-56.3-48.2 0-29.9 24.4-50.3 54.8-50.3 34.6 0 56.3 22.5 56.3 48.2 0 30.1-25.8 50.3-54.8 50.3zm-1.5-92.9c-20.1 0-32.6 16.4-32.6 42.9 0 32.3 17.2 44.5 34.2 44.5 17.4 0 32.6-12.3 32.6-43.6 0-28.9-14.5-43.8-34.2-43.8z"/><path d="m238.7 42c0-12.7-1.7-14.3-12.8-15.1v-3.4c8.5 0 17.7.4 23.5.4s15.1-.4 23.6-.4v3.4c-11.1.8-12.8 2.4-12.8 15.1v35.6c0 23.4 8.8 35 27.1 35 19.8 0 30-12.6 30-34.3v-36.3c0-12.7-1.7-14.3-12.8-15.1v-3.4c6.3 0 11.4.4 16.5.4 5.2 0 10.1-.4 16.5-.4v3.4c-11.1.8-12.8 2.4-12.8 15.1v36.7c0 25.6-13.4 41.4-40.6 41.4-35.2 0-45.5-18.4-45.5-41.7v-36.4z"/><path d="m339.1 113.5-3.1-24.2 3.4-.4c5.2 19.2 17.2 25.6 29.3 25.6 10.5 0 19.2-5.2 19.2-16.8 0-19.3-49.6-20.9-49.6-51.3 0-15 13.3-24.9 32.3-24.9 13.1 0 22.6 4.2 25.5 4.2 1.2 0 1.8-.6 2.3-2.3h2.3l.9 23.7-3.4.4c-4.2-15.4-16.2-20.7-26-20.7-9.5 0-15.6 5.1-15.6 13.7 0 19.2 49.6 22.5 49.6 51.7 0 14-11.1 27.8-36.1 27.8-13.3 0-24-2.5-31-6.5z"/><path d="m422.1 42c0-12.3-1.7-14.3-12.8-15.1v-3.4c10.2 0 17.8.6 24.9.6 17.4 0 36.6-.1 54.8-.6l2.3 20.9-3.4.4c-3.4-12-7.6-15.3-21.4-15.3h-18.6c-3.2 0-4.3.8-4.3 5.6v31.9l15.7-.1c10.4-.3 13.4-3.4 14.6-14h3.5c0 5.1-.6 11.3-.6 16.9 0 4.8.6 11 .6 16.4h-3.4c-1.4-9.7-4-13.1-14.8-13.4l-15.7-.1v29.1c0 7.8 4.1 9.3 8.8 9.3h18c11.6 0 17.4-5.5 23.8-19.1l3.8 1.4-8.2 24.6c-15.3 0-49.4-.6-56.7-.6-5.8 0-14.8.6-25.2.6v-3.4c11.1-.8 14.2-2.8 14.2-15.1z"/><path d="m200.5 168.8c-6.7 1.4-14.2 2.5-22 2.5-18.1 0-31-7.8-31-22.6 0-14.6 12.8-25 33.9-25 5.2 0 10.1.6 14.6 1.5 1.3.3 1.9.6 2 1.6l.2 4.3c0 .6-1.2 1.5-2.1 1.5-.2 0-.6-.1-1.7-.6-3.6-1.6-8.7-2.8-14.7-2.8-13.1 0-21.1 7-21.1 18.4 0 11.6 8 18.3 21.7 18.3 3.2 0 5.7-.3 9.7-1v-17.5h10.5z"/><path d="m246.2 158h-22.8l-5.5 12.5h-9.7l22.4-45.9h10.1l22.9 45.9h-11.4zm-20.4-5.2h18l-9.3-19.6z"/><path d="m319.3 170c-.2.8-2.5 1.1-4.9 1.1-12.4 0-18.4-10.4-24.3-19.6-1.9.1-2.8.2-5.1.2-1.1 0-1.8 0-3.1-.1v18.9h-10.5v-45.9h5c4.4 0 11-.2 15.5-.2 9.7 0 20.3 1.4 20.3 12.5 0 6-4.1 11.1-11.6 12.9 3.9 6.2 9.9 16.2 19.2 17.1l.4.6zm-31.1-40.3c-2.3 0-4.2.1-6.3.1v16.6c1.8.1 3.3.1 5 .1 10.1 0 14.3-2.7 14.3-8.9-.1-6.8-5.8-7.9-13-7.9z"/><path d="m349.9 124.6c17.2 0 28.6 9.6 28.6 22.4 0 14.3-11.8 23.5-29.3 23.5h-22.1v-45.9zm-12.4 5.6v34.5h11.5c10.7 0 18.4-6 18.4-16.3 0-11-8.1-18.2-19.6-18.2z"/><path d="m389.7 170.5v-45.9h37.5v5.5h-27.1v13.4h24.1v5.6h-24.1v15.6h27.6v5.8z"/><path d="m447.3 136.9 1 33.6h-8l.2-45.9h8.1l34.3 32.8-.9-32.8h8l-.1 45.5-6.1 1.5z"/><path d="m13.6 16.8-.8-2.8h-4.2l-.8 2.8h-3.8l4.7-14.1h4.4l4.8 14.1zm-2.9-10-1.3 4.4h2.6z"/><path d="m27.3 17.1c-3.8 0-6.2-1.5-6.2-5.8v-8.6h4v8.4c0 1.9.6 2.8 2.3 2.8 1.6 0 2.2-.8 2.2-2.8v-8.4h4v8.5c0 4.4-2.6 5.9-6.3 5.9z"/><path d="m43.3 17.1c-2.8 0-4.6-.9-6-2.5l2.7-2.1c1 1.1 2.1 1.7 3.6 1.7 1.1 0 1.7-.4 1.7-1.2 0-.7-.5-1-1.8-1.3-4-1.1-5.9-2.1-5.9-4.9s2.6-4.3 5.6-4.3c2.6 0 4.3.7 5.7 2.3l-2.7 2.2c-.9-1-1.9-1.5-3-1.5s-1.6.4-1.6 1 .4.9 1.7 1.3c4.5 1.2 5.9 2.4 5.9 4.9.1 2.2-1.7 4.4-5.9 4.4z"/><path d="m59.9 5.9v10.9h-4v-10.9h-3.8v-3.2h11.7v3.2z"/><path d="m75.3 16.8-2.4-4.9h-1v4.9h-4v-14.1h5.9c3.6 0 5.9 1.3 5.9 4.7 0 2.2-1.2 3.3-2.7 4l2.8 5.4zm-1.8-10.9h-1.7v3.2h1.7c1.5 0 2.2-.5 2.2-1.6.1-1.1-.6-1.6-2.2-1.6z"/><path d="m92.3 16.8-.8-2.8h-4.2l-.8 2.8h-3.8l4.7-14.1h4.4l4.8 14.1zm-2.9-10-1.3 4.4h2.6z"/><path d="m100.4 16.8v-14.1h4v10.9h5.5v3.2z"/><path d="m114 2.7h4v14.1h-4z"/><path d="m131.6 16.8-.8-2.8h-4.2l-.8 2.8h-3.8l4.7-14.1h4.4l4.8 14.1zm-2.9-10-1.3 4.4h2.6z"/><path d="m148.9 16.8-5.5-7.7h-.1v7.7h-3.6v-14.1h3.7l5.3 7.5v-7.5h3.7v14.1z"/></g></svg>