<svg enable-background="new 0 0 51 40" viewBox="0 0 51 40" xmlns="http://www.w3.org/2000/svg"><circle cx="25.5" cy="20.1" fill="#fff" r="9.5"/><path d="m43.7 19.5c-1-2.3-5.7-10.9-17.7-12h-1c-12 1.1-16.6 9.7-17.7 12-.2.4-.2.8 0 1.1 1 2.2 5.4 10.4 16.7 11.9 1 .2 2.1.2 3 0 11.2-1.5 15.6-9.6 16.7-11.9.2-.4.2-.7 0-1.1zm-9 1.7c-.5 4.1-3.9 7.4-8 8-6.1.8-11.2-4.3-10.4-10.4.5-4.1 3.9-7.4 8-8 6.1-.7 11.2 4.4 10.4 10.4z" fill="#565656"/><path d="m29 19c-1.3 0-2.4-1.1-2.4-2.4 0-.8.4-1.5 1-1.9-.6-.3-1.4-.5-2.1-.5-3.2 0-5.7 2.6-5.7 5.7s2.6 5.7 5.7 5.7c3.2 0 5.7-2.6 5.7-5.7 0-.7-.2-1.4-.4-2-.4.8-1 1.1-1.8 1.1z" fill="#31b7ea"/></svg>