<svg viewBox="0 0 40 40" xmlns="http://www.w3.org/2000/svg"><circle cx="20" cy="20" fill="#3c5b9b" r="20"/><path d="m16.8 32.6h5v-12.6h3.6l.4-5h-4v-2c0-1 .6-1.1 1.1-1.1h2.9v-4.3h-3.8c-4.2 0-5.3 3.2-5.3 5.3v2.3h-2.5v5h2.5c.1 5.5.1 12.4.1 12.4z" fill="#fff"/><circle cx="20" cy="20" fill="#3c5b9b" r="20"/><path d="m16.8 32.6h5v-12.6h3.6l.4-5h-4v-2c0-1 .6-1.1 1.1-1.1h2.9v-4.3h-3.8c-4.2 0-5.3 3.2-5.3 5.3v2.3h-2.5v5h2.5c.1 5.5.1 12.4.1 12.4z" fill="#fff"/><circle cx="20" cy="20" fill="#3c5b9b" r="20"/><path d="m16.8 32.6h5v-12.6h3.6l.4-5h-4v-2c0-1 .6-1.1 1.1-1.1h2.9v-4.3h-3.8c-4.2 0-5.3 3.2-5.3 5.3v2.3h-2.5v5h2.5c.1 5.5.1 12.4.1 12.4z" fill="#fff"/></svg>