<?xml version="1.0" encoding="UTF-8"?>
<svg id="Layer_2" data-name="Layer 2" xmlns="http://www.w3.org/2000/svg" viewBox="0 0 504.54 81.98">
  <defs>
    <style>
      .cls-1 {
        fill: #0f0c0a;
      }
    </style>
  </defs>
  <g id="Layer_1-2" data-name="Layer 1">
    <path class="cls-1" d="M296.8,81.49l5.19-12.06,2.14,11.41h1.95l-3.4-17.44-5.87,13.87-5.87-13.87-3.4,17.44h1.95l2.11-11.41,5.21,12.06ZM328.46,63.39l-7.61,17.44h2.16l2.18-5.14h6.55l2.18,5.14h2.16l-7.63-17.44ZM328.46,67.81l2.67,6.18h-5.35l2.68-6.18ZM361.1,72.17v1.78h4.79c-.24,3.29-2.72,5.52-6.06,5.52-3.83,0-6.57-2.84-6.57-6.86,0-4.25,2.68-7.14,6.57-7.14,2.37,0,4.18,1.01,5.4,3.05l1.67-1.34c-1.57-2.37-3.94-3.52-7.14-3.52-2.42,0-4.44.73-5.96,2.18-1.81,1.71-2.7,3.97-2.7,6.76,0,3.4,1.57,6.17,4.32,7.68,1.13.61,2.56.98,4.22.98,5.12,0,8.38-3.19,8.38-8.54v-.56h-6.92ZM390.78,63.39l-7.6,17.44h2.16l2.18-5.14h6.55l2.18,5.14h2.16l-7.63-17.44ZM390.78,67.81l2.68,6.18h-5.35l2.67-6.18ZM412.51,80.83h12.44v-1.9h-8.97l9.34-14.88h-11.03v1.83h7.65l-9.43,14.95ZM442.45,80.83h1.99v-16.78h-1.99v16.78ZM463.01,80.83h1.99v-12.61l12.18,13.26v-17.44h-1.99v12.75l-12.18-13.4v17.44ZM495.7,80.83h8.85v-1.85h-6.86v-6.43h6.86v-1.85h-6.86v-4.82h6.86v-1.83h-8.85v16.78Z"/>
    <path class="cls-1" d="M121.09,58.04v-3.86h-15.63v3.86h5.89v23.45h3.87v-23.45h5.87ZM83.54,53.66c-2.19,0-4.02.69-5.49,2.09-1.47,1.38-2.2,3.09-2.2,5.14,0,3.04,1.76,5.35,5.26,6.93l2.47,1.1c.64.29,1.2.6,1.66.93.46.32.84.67,1.14,1.04.29.37.51.78.65,1.22.14.44.21.93.21,1.46,0,1.32-.4,2.41-1.19,3.27-.8.86-1.8,1.29-3,1.29-1.52,0-2.69-.59-3.48-1.77-.44-.61-.75-1.72-.93-3.32l-3.91.92c.35,2.55,1.24,4.52,2.67,5.93,1.45,1.4,3.28,2.11,5.51,2.11,2.34,0,4.3-.83,5.88-2.48,1.57-1.64,2.35-3.72,2.35-6.23,0-1.87-.48-3.46-1.44-4.75-.96-1.29-2.48-2.38-4.56-3.28l-2.56-1.11c-1.86-.81-2.79-1.89-2.79-3.22,0-.97.35-1.77,1.06-2.41.71-.65,1.6-.97,2.67-.97.87,0,1.58.19,2.14.57.53.33,1.09,1.04,1.67,2.12l3.14-1.98c-1.66-3.05-3.96-4.57-6.92-4.57M39,54.18v17.58c0,2.88.84,5.24,2.52,7.11,1.88,2.07,4.2,3.11,6.95,3.11s5.08-1.04,6.97-3.11c1.68-1.87,2.52-4.23,2.52-7.11v-17.58h-3.87v16.44c0,2.38-.36,4.1-1.08,5.15-1.07,1.56-2.59,2.35-4.54,2.35s-3.45-.78-4.53-2.35c-.72-1.09-1.08-2.8-1.08-5.15v-16.44h-3.87ZM8.62,70.99l3.98-9.28,3.8,9.28h-7.78ZM20.66,81.49h4.23l-12.22-29.01L0,81.49h4.16l2.85-6.64h10.96l2.69,6.64Z"/>
    <path class="cls-1" d="M173.95,70.99l3.98-9.28,3.8,9.28h-7.78ZM185.98,81.49h4.23l-12.22-29.01-12.67,29.01h4.16l2.85-6.64h10.96l2.69,6.64ZM140.29,58.05h1.38c3.57,0,5.35,1.4,5.35,4.19,0,2.98-1.83,4.48-5.5,4.48h-1.23v-8.66ZM149.22,67.18c1.04-1.39,1.56-3.05,1.56-4.99,0-2.48-.83-4.47-2.49-5.98-1.5-1.36-3.95-2.03-7.34-2.03h-4.53v27.31h3.87v-11.17h.7l7.31,11.17h4.73l-7.93-11.64c1.7-.39,3.07-1.28,4.11-2.67"/>
    <path class="cls-1" d="M250.71,81.49h4.16l2.85-6.64h10.96l2.69,6.64h4.23l-12.22-29.01-12.67,29.01ZM263.32,61.71l3.8,9.28h-7.78l3.98-9.28ZM231.73,81.49h3.87v-27.31h-3.87v27.31ZM204.79,54.18v27.31h11.4v-3.86h-7.53v-23.45h-3.87Z"/>
    <path class="cls-1" d="M218.02,8.85h2.97c5.63,0,9.89,1.29,12.78,3.87,3.21,2.89,4.81,6.67,4.81,11.32s-1.62,8.36-4.87,11.24c-1.58,1.39-3.36,2.41-5.33,3.05-1.96.6-4.43.91-7.39.91h-2.97V8.85ZM220.49,45.22c4.44,0,7.87-.39,10.29-1.18,2.59-.79,5.06-2.18,7.42-4.2,4.7-4.02,7.06-9.29,7.06-15.8s-2.26-11.73-6.77-15.72c-2.23-1.97-4.71-3.37-7.45-4.2-2.55-.84-6.02-1.26-10.43-1.26h-9.18v42.36h9.07Z"/>
    <polygon class="cls-1" points="272.65 2.87 249.09 2.87 249.09 45.22 272.65 45.22 272.65 39.24 255.54 39.24 255.54 25.06 272.15 25.06 272.15 19.08 255.54 19.08 255.54 8.85 272.65 8.85 272.65 2.87"/>
    <path class="cls-1" d="M288.61,2.07c-3.65,0-6.7,1.08-9.15,3.24-2.45,2.14-3.68,4.8-3.68,7.97,0,4.72,2.92,8.3,8.75,10.74l4.12,1.7c1.07.46,1.99.94,2.76,1.44.77.5,1.4,1.04,1.89,1.62.49.58.85,1.21,1.08,1.89.23.68.34,1.44.34,2.26,0,2.05-.66,3.74-1.99,5.07-1.33,1.34-2.99,2-5,2-2.54,0-4.48-.91-5.8-2.74-.74-.95-1.25-2.67-1.55-5.16l-6.52,1.43c.59,3.95,2.07,7.01,4.45,9.19,2.41,2.18,5.47,3.27,9.18,3.27,3.91,0,7.18-1.28,9.81-3.84,2.61-2.54,3.92-5.76,3.92-9.66,0-2.91-.8-5.37-2.4-7.37-1.6-2-4.13-3.7-7.59-5.09l-4.25-1.73c-3.09-1.26-4.64-2.93-4.64-5,0-1.5.59-2.74,1.77-3.73,1.18-1.01,2.66-1.51,4.45-1.51,1.45,0,2.64.29,3.57.88.89.51,1.81,1.61,2.79,3.29l5.22-3.07c-2.76-4.72-6.61-7.08-11.53-7.08"/>
    <rect class="cls-1" x="306.74" y="2.87" width="6.45" height="42.36"/>
    <path class="cls-1" d="M414.82,2.07c-3.65,0-6.7,1.08-9.15,3.24-2.45,2.14-3.68,4.8-3.68,7.97,0,4.72,2.92,8.3,8.75,10.75l4.11,1.7c1.07.46,1.99.94,2.76,1.44.77.5,1.4,1.04,1.89,1.62.49.58.85,1.21,1.08,1.89.23.69.35,1.44.35,2.26,0,2.05-.66,3.74-1.99,5.07-1.33,1.34-2.99,2-5,2-2.54,0-4.48-.91-5.8-2.74-.74-.95-1.25-2.67-1.55-5.16l-6.52,1.43c.59,3.95,2.07,7.01,4.45,9.19,2.41,2.18,5.47,3.26,9.18,3.26,3.91,0,7.17-1.28,9.81-3.84,2.61-2.54,3.92-5.76,3.92-9.66,0-2.91-.8-5.37-2.4-7.37-1.6-2-4.13-3.7-7.58-5.09l-4.25-1.73c-3.09-1.26-4.64-2.93-4.64-5,0-1.5.59-2.74,1.77-3.73,1.18-1.01,2.66-1.51,4.45-1.51,1.46,0,2.65.29,3.57.88.89.51,1.82,1.61,2.79,3.29l5.22-3.07c-2.77-4.72-6.61-7.08-11.53-7.08M367.09,45.22V15.57l31.1,32.23V2.87h-6.45v29.43L360.64,0v45.22h6.45ZM341.15,29.16h10.64c-.3,2.99-1.71,5.55-4.23,7.69-2.52,2.12-5.37,3.18-8.54,3.18-3.72,0-7.18-1.42-10.37-4.25-3.41-3.06-5.11-6.95-5.11-11.67s1.53-8.38,4.59-11.42c3.06-3.09,6.85-4.64,11.36-4.64,5.03,0,9.3,2.31,12.8,6.94l4.59-4.36c-2.67-3.02-5.39-5.21-8.15-6.55-2.89-1.34-6.01-2.01-9.34-2.01-6.21,0-11.48,2.15-15.81,6.44-4.34,4.28-6.51,9.49-6.51,15.63s2.13,11.17,6.4,15.46c4.26,4.28,9.37,6.42,15.34,6.42s11.16-2.21,15.12-6.64c1.75-1.97,3-4.1,3.73-6.36.76-2.45,1.13-5.26,1.13-8.45v-1.4h-17.63v5.98Z"/>
    <path class="cls-1" d="M31.92,29.7c-.31,2.43-1.4,4.37-3.27,5.83-1.87,1.46-4.2,2.19-7,2.19-3.29,0-5.89-1.18-7.78-3.53-1.9-2.35-2.84-5.58-2.84-9.68s.95-7.26,2.84-9.6c1.9-2.34,4.49-3.52,7.78-3.52,1.77,0,3.36.41,4.79,1.23,1.43.82,2.71,2.07,3.85,3.74l9.57-4.91c-2.08-3.3-4.65-5.78-7.7-7.45-3.05-1.67-6.55-2.5-10.52-2.5-3.04,0-5.87.54-8.5,1.62-2.63,1.08-4.95,2.67-6.98,4.77-2.05,2.16-3.58,4.59-4.62,7.29C.52,17.87,0,20.83,0,24.05s.53,6.03,1.59,8.85c1.06,2.82,2.55,5.26,4.46,7.32,2.01,2.16,4.29,3.77,6.84,4.81,2.55,1.05,5.47,1.58,8.75,1.58,6.67,0,11.85-2.05,15.52-6.14,3.68-4.09,5.51-9.84,5.51-17.26,0-.69,0-1.21-.01-1.56-.01-.35-.02-.68-.04-.97h-21.69v9.03h10.98Z"/>
    <path class="cls-1" d="M56.36,11.46h2.21c2.41,0,4.12.46,5.14,1.37,1.02.91,1.53,2.45,1.53,4.61,0,1.85-.55,3.2-1.64,4.07-1.09.87-2.83,1.3-5.2,1.3h-2.04v-11.35ZM56.36,45.59v-16.9l9.28,16.9h12.46l-11.02-17.4c2.95-.69,5.19-2.08,6.72-4.17,1.54-2.09,2.31-4.81,2.31-8.15,0-2.2-.39-4.21-1.18-6.04-.78-1.83-1.9-3.33-3.36-4.51-1.29-1.04-2.82-1.78-4.6-2.23-1.78-.44-4.92-.66-9.44-.66h-11.54v43.16h10.35Z"/>
    <path class="cls-1" d="M89.93,45.59l2.1-7.69h15.67l2.05,7.69h10.97L106.73,2.43h-13.82l-13.96,43.16h10.97ZM98.47,15.24c.24-.89.47-1.81.71-2.77.23-.96.46-1.98.71-3.04.35,1.51.64,2.75.86,3.72.22.96.4,1.66.52,2.1l4.12,14.25h-10.97l4.06-14.25Z"/>
    <path class="cls-1" d="M175.25,12.08h1.85c4.32,0,7.48.96,9.47,2.89,1.99,1.93,2.98,4.95,2.98,9.07s-.99,7.13-2.98,9.03c-1.99,1.89-5.14,2.84-9.47,2.84h-1.85V12.08ZM172.76,45.59h1.85c5.27,0,9.16-.31,11.66-.93,2.51-.62,4.73-1.66,6.69-3.11,2.56-1.91,4.51-4.35,5.83-7.33,1.33-2.98,1.99-6.37,1.99-10.18s-.66-7.21-1.99-10.19c-1.33-2.98-3.27-5.42-5.83-7.33-1.97-1.47-4.26-2.52-6.87-3.15-2.61-.63-7.05-.94-13.34-.94h-8.42v43.16h8.42ZM132.42,45.59v-21.31c0-1.08-.05-2.32-.15-3.71-.1-1.4-.26-3-.48-4.81.79,1.85,1.52,3.45,2.2,4.82.67,1.36,1.16,2.28,1.48,2.73l15.28,22.29h10.58V2.43h-10.58v21.31c0,1.08.05,2.32.15,3.71.1,1.4.26,2.99.48,4.77-.81-1.89-1.55-3.51-2.22-4.88-.67-1.37-1.16-2.28-1.45-2.73l-15.28-22.2h-10.65v43.16h10.65Z"/>
  </g>
</svg>