<?xml version="1.0" encoding="UTF-8"?>
<svg id="Layer_1" xmlns="http://www.w3.org/2000/svg" version="1.1" xmlns:xlink="http://www.w3.org/1999/xlink" viewBox="0 0 649.5 249">
  <!-- Generator: Adobe Illustrator 29.2.0, SVG Export Plug-In . SVG Version: 2.1.0 Build 108)  -->
  <defs>
    <style>
      .st0 {
        fill: #231f20;
      }

      .st1 {
        fill: none;
      }

      .st2 {
        fill: #d1d3d4;
      }

      .st3 {
        clip-path: url(#clippath);
      }
    </style>
    <clipPath id="clippath">
      <rect class="st1" width="649.5" height="249"/>
    </clipPath>
  </defs>
  <g class="st3">
    <path class="st2" d="M580.1,103.1c7.9,0,13,6.2,14.2,14.7h-29.7c2.4-9.1,7.3-14.7,15.4-14.7M595.9,150.5c-2.1,7.5-7.9,10.6-14.8,10.6-10,0-15.5-5.9-17.6-18.1h86v-13.1c0-42.5-25.1-71.8-69.4-71.8s-71.5,29.4-71.5,74,28.2,74,72.4,74,63.3-20.3,68.5-55.6h-53.6ZM419,74c-8.8-9.4-20.3-15.9-38.5-15.9s-28.8,5.9-36.1,14.7v-11.6h-57.6v141.8h57.6v-81.2c1.8-7.2,7.3-11.6,13.6-11.6s11.5,6.9,11.5,15.3v77.5h57.6v-81.2c1.8-7.2,7.3-11.6,13.6-11.6s11.5,6.9,11.5,15.3v77.5h57.6v-93.4c0-31.5-18.5-51.5-47.6-51.5s-35.4,8.7-43.3,15.9M231.5,132.1c0,15.3-6.1,25.6-16.7,25.6s-16.4-10.3-16.4-25.6,6.1-25.6,16.4-25.6,16.7,10.3,16.7,25.6M287.8,132.1c0-44-29.4-74-73-74s-73,30-73,74,29.7,74,73,74,73-30,73-74M0,203h57.6v-81.2c1.8-7.2,7.6-11.6,14.5-11.6s13.3,6.9,13.3,15.3v77.5h57.6v-93.4c0-31.5-18.8-51.5-48.8-51.5s-29.1,5.9-36.7,14.7V0H0v203Z"/>
    <path class="st0" d="M427.2,165.8h-25.4v38.1l-27.5-38.1h-24.6v81.8h25.4v-40.9l30.4,40.9h21.6v-81.8ZM316.8,221.4c-2.2,3.3-6.3,5.1-12.1,5.1-9.9,0-16-7.6-16-19.7s5.4-19.7,16-19.7,9.8,2.7,11.4,7.3h27c-3-16.9-15.8-29.9-38.5-29.9s-42.5,17.5-42.5,42.2,17.3,42.2,42.5,42.2,38.6-14.1,38.6-36.8v-9.1h-36.3v18.3h9.8ZM256.1,165.8h-26.4v81.8h26.4v-81.8ZM150.5,222.4c2.9,16.7,17.1,26.5,38.5,26.5s34.3-9.7,34.3-27.3-7.5-20.7-22.4-24.1l-17.4-4c-2.6-.5-4.6-1.6-4.6-4.1s3.1-4.7,7.7-4.7,8.7,2.5,10.1,6.3h25.7c-2-14.5-14-26.5-35.9-26.5s-34.3,10.5-34.3,27.9,9.2,20.7,22,23.2l17.1,3.5c3.3.7,5.4,1.5,5.4,4.3s-3.7,5.3-8.4,5.3-9.1-2.1-10.3-6.1h-27.5ZM82.9,165.8v81.8h62.8v-22.1h-36.8v-8.7h33.7v-21.3h-33.7v-7.7h36.8v-22h-62.8ZM0,247.6h33.6c27,0,43-16,43-40.9s-15.9-40.9-43-40.9H0v81.8ZM25.8,225.5v-37.7h6.4c11.7,0,18.3,7.3,18.3,18.9s-6.7,18.8-18.3,18.8h-6.4Z"/>
    <path class="st0" d="M630,216v8.6h6.5v-2.3h-3.8v-.9h3.5v-2.2h-3.5v-.8h3.8v-2.3h-6.5ZM621.6,218.3h2.5v6.3h2.7v-6.3h2.5v-2.3h-7.8v2.3ZM617.7,219.1l.7,2h-1.4l.7-2ZM616.3,216l-3.2,8.6h2.7l.4-1.2h3l.4,1.2h2.7l-3.2-8.6h-2.8ZM611.1,224.5l3.2-8.6h-2.8l-1.7,4.9-1.6-4.9h-2.9l3.2,8.6h2.7ZM602.9,220.2c0,1.3-.7,2.1-1.6,2.1s-1.6-.8-1.6-2.1.6-2.1,1.6-2.1,1.6.8,1.6,2.1M605.6,220.2c0-2.6-1.8-4.4-4.3-4.4s-4.3,1.9-4.3,4.4,1.7,4.4,4.3,4.4,4.3-1.9,4.3-4.4M596.3,216h-2.6v4l-2.8-4h-2.5v8.6h2.6v-4.3l3.1,4.3h2.2v-8.6ZM581,216v8.6h6.5v-2.3h-3.8v-.9h3.5v-2.2h-3.5v-.8h3.8v-2.3h-6.5ZM575.5,218.2h1.1c.7,0,1,.4,1,.9s-.3.9-1,.9h-1.1v-1.7ZM576.2,222.1l1.4,2.5h3l-1.8-2.9c.9-.5,1.5-1.4,1.5-2.6,0-2-1.3-3.1-3.2-3.1h-4.2v8.6h2.7v-2.5h.6ZM564.8,222.7c-.5,0-.8-.3-.8-.8s0-.4.2-.6l1.1,1.3c-.2,0-.3,0-.5,0M568.7,218.4c-.2-1.5-1.3-2.6-3.1-2.6s-3.1,1-3.1,2.6,0,.9.3,1.3c-.8.5-1.2,1.3-1.2,2.2,0,1.8,1.2,2.8,3.1,2.8s1.3-.2,2-.5l.3.3h2.8l-1.4-1.7c.6-.8,1-1.8,1-2.9h-2.3c0,.4,0,.8-.2,1.1l-1.4-1.7c-.3-.3-.5-.6-.5-.9s.2-.5.5-.5.5.3.6.5h2.5ZM550.6,224.5h3.4c2.8,0,4.4-1.7,4.4-4.3s-1.6-4.3-4.4-4.3h-3.4v8.6ZM553.3,222.2v-4h.7c1.2,0,1.9.8,1.9,2s-.7,2-1.9,2h-.7ZM543.4,224.5h6.4v-2.3h-3.7v-6.3h-2.7v8.6ZM542.5,216h-2.7v8.6h2.7v-8.6ZM535,224.7c2.4,0,3.9-1.3,3.9-3.7v-5h-2.7v4.8c0,1-.5,1.5-1.2,1.5s-1.2-.5-1.2-1.5v-4.8h-2.7v5c0,2.4,1.5,3.7,3.9,3.7M526,221.2h1.3c.4,0,.7.2.7.6s-.3.6-.7.6h-1.3v-1.2ZM526,219.2v-1.1h1.1c.4,0,.7.2.7.5s-.3.6-.7.6h-1.1ZM529.2,220.1c.6-.2,1.2-.9,1.2-1.8,0-1.5-1-2.3-2.8-2.3h-4.1v8.6h4.3c1.8,0,2.8-.9,2.8-2.4s-.6-1.8-1.4-2.1M517.2,225.9h1.7l.7-1.1c.3-.5.6-1,.6-1.6,0-1-.7-1.5-1.5-1.5s-1.5.6-1.5,1.4.5,1.2,1,1.3l-1.1,1.6ZM510.2,216v8.6h6.5v-2.3h-3.8v-.9h3.5v-2.2h-3.5v-.8h3.8v-2.3h-6.5ZM501.8,218.3h2.5v6.3h2.7v-6.3h2.5v-2.3h-7.8v2.3ZM497.9,219.1l.7,2h-1.4l.7-2ZM496.5,216l-3.2,8.6h2.7l.4-1.2h3l.4,1.2h2.7l-3.2-8.6h-2.8ZM488.2,218.2h1.1c.7,0,1,.4,1,.9s-.3.9-1,.9h-1.1v-1.7ZM488.9,222.1l1.4,2.5h3l-1.8-2.9c.9-.5,1.5-1.4,1.5-2.6,0-2-1.3-3.1-3.2-3.1h-4.2v8.6h2.7v-2.5h.6ZM482.2,220.2c0,1.3-.7,2.1-1.6,2.1s-1.6-.8-1.6-2.1.6-2.1,1.6-2.1,1.6.8,1.6,2.1M484.9,220.2c0-2.6-1.8-4.4-4.3-4.4s-4.3,1.9-4.3,4.4,1.7,4.4,4.3,4.4,4.3-1.9,4.3-4.4M467.8,220.2c0,2.6,1.7,4.4,4.2,4.4s3.5-1.4,3.8-3.1h-2.7c-.2.5-.5.8-1.1.8-1,0-1.5-.9-1.5-2.1s.5-2.1,1.5-2.1,1,.3,1.1.8h2.7c-.3-1.7-1.6-3.1-3.8-3.1s-4.2,1.9-4.2,4.4M460.8,216v8.6h6.5v-2.3h-3.8v-.9h3.5v-2.2h-3.5v-.8h3.8v-2.3h-6.5ZM452.3,224.5h3.4c2.8,0,4.4-1.7,4.4-4.3s-1.6-4.3-4.4-4.3h-3.4v8.6ZM454.9,222.2v-4h.7c1.2,0,1.9.8,1.9,2s-.7,2-1.9,2h-.7Z"/>
  </g>
</svg>