<svg xmlns="http://www.w3.org/2000/svg" viewBox="0 0.13 298.86 21.18">
 <g>
  <title>Layer 1</title>
  <path d="m188.1,0.1859l-34.1,0l0,21l34.1,0l0,-21z" fill="#cccccb" id="svg_1"/>
  <path d="m187.7,0.5359l0,20.3l-33.3,0l0,-20.3l33.3,0z" fill="#fff" id="svg_2"/>
  <path d="m179.6,8.86863c-0.6,0 -1.2,0.1 -1.8,0.3l-0.1,1.2c0.5,-0.2 1.1,-0.3 1.6,-0.3c0.6,0 1,0.1 0.8,0.6c-1.8,0 -3,0.4 -3.2,1.5c-0.3,2 1.8,1.9 2.7,1.1l-0.1,0.5l1.6,0l0.7,-3.2c0.1,-1.4 -1.1,-1.8 -2.2,-1.7zm0.1,3.2c-0.1,0.4 -0.4,0.6 -0.8,0.6s-0.7,-0.3 -0.4,-0.7c0.3,-0.3 0.6,-0.4 1,-0.4l0.4,0c-0.1,0.2 -0.2,0.3 -0.2,0.5zm3.3,-4.5l-1.3,6.1l1.6,0l1.4,-6.1l-1.7,0zm-7.4,0l-3,0l-1.3,6.1l1.7,0l0.4,-2l1.2,0c1.2,0 2.3,-0.8 2.5,-2c0.3,-0.8 -0.2,-1.7 -1,-2c-0.2,-0.1 -0.3,-0.1 -0.5,-0.1zm-0.1,2.1c-0.1,0.5 -0.5,0.8 -1,0.8l-0.8,0l0.4,-1.7l0.9,0c0.4,0.1 0.6,0.4 0.5,0.9c0,-0.1 0,0 0,0z" fill="#167eae" id="svg_3"/>
  <path d="m164,7.9359c-0.6,0 -1.2,0.1 -1.8,0.3l-0.1,1.2c0.5,-0.2 1,-0.3 1.5,-0.3c0.6,0 0.9,0.1 0.8,0.6c-1.8,0 -3,0.4 -3.2,1.5c-0.3,2 1.8,1.9 2.7,1.1l-0.1,0.5l1.6,0l0.7,-3.2c0.3,-1.4 -1,-1.8 -2.1,-1.7zm0.2,3.2c-0.1,0.4 -0.4,0.6 -0.8,0.6c-0.3,0 -0.5,-0.2 -0.5,-0.5c0,-0.1 0,-0.2 0.1,-0.2c0.3,-0.3 0.6,-0.4 1,-0.4l0.4,0c-0.1,0.1 -0.2,0.3 -0.2,0.5zm2.6,-3.2l1.6,0l0.2,2.9l1.6,-2.9l1.7,0l-3.8,6.8l-1.8,0l1.1,-2s-0.6,-4.8 -0.6,-4.8zm-6.7,-1.3l-3,0l-1.3,6.1l1.8,0l0.4,-2l1.2,0c1.2,0 2.3,-0.8 2.5,-2c0.2,-0.9 -0.3,-1.8 -1.2,-2c-0.1,-0.1 -0.2,-0.1 -0.4,-0.1zm-0.1,2.1c-0.1,0.5 -0.5,0.8 -1,0.8l-0.8,0l0.4,-1.7l0.9,0c0.4,0.1 0.6,0.4 0.5,0.9c0,-0.1 0,0 0,0zm25,-1.3l0,-0.7l-0.3,0l0,-0.1l0.6,0l0,0.1l-0.3,0l0,0.7zm0.5,0l0,-0.8l0.2,0l0.2,0.6l0.2,-0.6l0.1,0l0,0.8l-0.1,0l0,-0.7l-0.2,0.7l-0.1,0l-0.2,-0.7l-0.1,0.7z" fill="#1d567e" id="svg_4"/>
  <path d="m115.9,21.1859l33.2,0l0,-21l-33.2,0s0,21 0,21z" fill="#3473db" id="svg_5"/>
  <path d="m118.9,7.5359l-0.6,-1.6l-0.6,1.6m15.3,-0.6c-0.1,0.1 -0.3,0.1 -0.5,0.1l-1.1,0l0,-0.9l1.1,0c0.2,0 0.3,0 0.4,0.1s0.2,0.2 0.2,0.3s0,0.3 -0.1,0.4zm8.1,0.6l-0.6,-1.6l-0.6,1.6l1.2,0zm-15.1,1.7l-1,0l0,-3.1l-1.3,3.1l-0.8,0l-1.4,-3.1l0,3.1l-1.9,0l-0.4,-0.9l-1.9,0l-0.4,0.9l-1,0l1.7,-3.9l1.4,0l1.6,3.7l0,-3.7l1.5,0l1.2,2.6l1.1,-2.6l1.5,0l0.1,3.9zm3.8,0l-3.1,0l0,-3.9l3.1,0l0,0.8l-2.2,0l0,0.7l2.1,0l0,0.8l-2.1,0l0,0.8l2.2,0l0,0.8zm4.4,-2.9c0,0.5 -0.3,0.9 -0.7,1c0.2,0.1 0.3,0.2 0.5,0.3c0.1,0.2 0.2,0.5 0.2,0.7l0,0.8l-0.9,0l0,-0.5c0,-0.3 0,-0.6 -0.2,-0.8s-0.4,-0.2 -0.7,-0.2l-1,0l0,1.4l-0.9,0l0,-3.9l2.1,0c0.4,-0.1 0.8,0 1.1,0.2s0.5,0.6 0.5,1zm1.5,2.9l-0.9,0l0,-3.9l0.9,0l0,3.9zm11.1,0l-1.3,0l-1.8,-2.9l0,2.9l-1.9,0l-0.4,-0.9l-1.9,0l-0.4,0.9l-1.1,0c-0.5,0 -1,-0.1 -1.4,-0.4c-0.4,-0.4 -0.5,-1 -0.5,-1.5s0.1,-1.1 0.5,-1.5c0.4,-0.3 0.9,-0.4 1.4,-0.4l0.9,0l0,0.7l-0.9,0c-0.2,0 -0.5,0.1 -0.7,0.2c-0.2,0.2 -0.3,0.6 -0.3,0.9s0.1,0.7 0.3,0.9c0.2,0.1 0.4,0.2 0.6,0.2l0.4,0l1.3,-3.1l1.4,0l1.6,3.7l0,-3.7l1.4,0l1.6,2.7l0,-2.7l1,0l0.2,4zm-30.9,0.8l1.6,0l0.4,-0.9l0.8,0l0.4,0.9l3.1,0l0,-0.7l0.3,0.7l1.6,0l0.3,-0.7l0,0.7l7.8,0l0,-1.4l0.1,0c0.07,0 0.1,0.07 0.1,0.2l0,1.2l4,0l0,-0.3c0.5,0.2 1,0.3 1.5,0.3l1.7,0l0.4,-0.9l0.8,0l0.3,0.9l3.3,0l0,-0.9l0.5,0.8l2.6,0l0,-5.4l-2.6,0l0,0.6l-0.4,-0.6l-2.7,0l0,0.6l-0.3,-0.6l-3.6,0c-0.5,0 -1.1,0.1 -1.6,0.3l0,-0.3l-2.5,0l0,0.3c-0.3,-0.2 -0.6,-0.3 -1,-0.3l-8.9,0l-0.6,1.4l-0.6,-1.4l-2.8,0l0,0.6l-0.3,-0.6l-2.4,0l-1.3,2.6s0,2.9 0,2.9zm33.2,2.8l-1.7,0c-0.2,0 -0.3,0 -0.4,0.1s-0.1,0.2 -0.1,0.3s0.1,0.2 0.2,0.3l0.9,0c0.4,0 0.8,0.1 1.1,0.3l0.1,0.1m-0.1,1.5c-0.3,0.4 -0.8,0.5 -1.3,0.5l-1.8,0l0,-0.8l1.8,0c0.2,0 0.3,0 0.4,-0.1s0.1,-0.1 0.1,-0.2c0,-0.2 -0.1,-0.4 -0.3,-0.4l-0.1,0c-0.9,0 -2,0 -2,-1.2c0,-0.7 0.5,-1.2 1.2,-1.2l2,0l0,-0.8l-1.7,0c-0.4,0 -0.8,0.1 -1.2,0.3l0,-0.3l-2.5,0c-0.4,0 -0.8,0.1 -1.1,0.3l0,-0.3l-4.6,0l0,0.3c-0.4,-0.2 -0.8,-0.3 -1.3,-0.3l-3,0l0,0.3c-0.4,-0.3 -0.8,-0.4 -1.3,-0.3l-3.4,0l-0.8,0.8l-0.7,-0.8l-5,0l0,5.5l4.9,0l0.8,-0.9l0.8,0.9l3,0l0,-1.3l0.3,0c0.4,0 0.9,0 1.3,-0.2l0,1.5l2.5,0l0,-1.4l0.1,0c0.13,0 0.2,0.07 0.2,0.2l0,1.3l7.6,0c0.5,0 0.9,-0.1 1.3,-0.4l0,0.4l2.4,0c0.5,0 0.9,-0.1 1.4,-0.2l0,-1.2zm-3.7,-1.5c0.2,0.2 0.3,0.5 0.3,0.8c0,0.8 -0.5,1.2 -1.5,1.2l-1.8,0l0,-0.8l1.8,0c0.2,0 0.3,0 0.4,-0.1s0.1,-0.1 0.1,-0.2c0,-0.2 -0.1,-0.4 -0.3,-0.4l-0.1,0c-0.9,0 -2,0 -2,-1.2c0,-0.7 0.5,-1.2 1.2,-1.2l2,0l0,0.8l-1.7,0c-0.2,0 -0.3,0 -0.4,0.1s-0.1,0.2 -0.1,0.3s0.1,0.2 0.2,0.3l0.9,0c0.4,0.1 0.8,0.1 1,0.4zm-8.4,-0.3c-0.1,0.1 -0.3,0.1 -0.5,0.1l-1.1,0l0,-0.9l1.1,0c0.2,0 0.3,0 0.4,0.1s0.2,0.2 0.2,0.4c0.1,0.1 0,0.2 -0.1,0.3zm0.5,0.5c0.2,0.1 0.3,0.2 0.5,0.3c0.1,0.2 0.2,0.5 0.2,0.7l0,0.8l-0.9,0l0,-0.5c0,-0.3 0,-0.6 -0.2,-0.8s-0.4,-0.2 -0.7,-0.2l-1,0l0,1.4l-0.9,0l0,-3.9l2.2,0c0.4,-0.1 0.8,0 1.1,0.2s0.5,0.5 0.5,0.9c0,0.5 -0.3,0.9 -0.8,1.1zm1.2,-2.1l3.1,0l0,0.8l-2.2,0l0,0.7l2.1,0l0,0.8l-2.1,0l0,0.8l2.2,0l0,0.8l-3.1,0s0,-3.9 0,-3.9zm-6.3,1.8l-1.2,0l0,-1l1.2,0c0.3,0 0.6,0.1 0.6,0.5s-0.2,0.5 -0.6,0.5zm-2.1,1.8l-1.4,-1.6l1.4,-1.5l0,3.1zm-3.7,-0.5l-2.3,0l0,-0.8l2,0l0,-0.8l-2,0l0,-0.7l2.3,0l1,1.1s-1,1.2 -1,1.2zm7.4,-1.8c0,1.1 -0.8,1.3 -1.6,1.3l-1.2,0l0,1.3l-1.8,0l-1.1,-1.3l-1.2,1.3l-3.7,0l0,-3.9l3.8,0l1.1,1.3l1.2,-1.3l3,0c0.7,0 1.5,0.2 1.5,1.3z" fill="#fff" id="svg_6"/>
  <path d="m34.1,0.1859l-34.1,0l0,21l34.1,0l0,-21z" fill="#cccccb" id="svg_7"/>
  <path d="m33.7,0.5359l0,20.3l-33.3,0l0,-20.3l33.3,0z" fill="#fff" id="svg_8"/>
  <path d="m72.4,0.1859l-34.1,0l0,21l34.1,0l0,-21z" fill="#cccccb" id="svg_9"/>
  <path d="m72,0.5359l0,20.3l-33.3,0l0,-20.3l33.3,0z" fill="#fff" id="svg_10"/>
  <path d="m9.9,11.8859l0,-1.1c0,-0.4 -0.3,-0.7 -0.7,-0.7c-0.2,0 -0.5,0.1 -0.7,0.3c-0.1,-0.2 -0.3,-0.3 -0.6,-0.3c-0.2,0 -0.4,0.1 -0.5,0.3l0,-0.2l-0.4,0l0,1.9l0.4,0l0,-1c0,-0.3 0.2,-0.5 0.5,-0.5s0.4,0.2 0.4,0.5l0,1l0.4,0l0,-1c0,-0.3 0.2,-0.5 0.5,-0.5s0.4,0.2 0.4,0.5l0,1l0.3,0s0,-0.2 0,-0.2zm6.1,-1.8l-0.7,0l0,-0.6l-0.4,0l0,0.6l-0.4,0l0,0.4l0.4,0l0,0.8c0,0.4 0.2,0.7 0.6,0.7c0.2,0 0.4,-0.1 0.5,-0.1l-0.1,-0.3c-0.1,0.1 -0.3,0.1 -0.4,0.1c-0.2,0 -0.3,-0.1 -0.3,-0.3l0,-0.8l0.7,0l0,-0.5s0.1,0 0.1,0zm3.4,-0.1c-0.2,0 -0.4,0.1 -0.5,0.3l0,-0.2l-0.4,0l0,1.9l0.4,0l0,-1c0,-0.3 0.1,-0.5 0.4,-0.5l0.3,0l0.1,-0.4c-0.1,-0.1 -0.2,-0.1 -0.3,-0.1zm-5.2,0.2c-0.2,-0.1 -0.5,-0.2 -0.8,-0.2c-0.5,0 -0.8,0.2 -0.8,0.6c0,0.3 0.2,0.5 0.6,0.5l0.2,0c0.2,0 0.3,0.1 0.3,0.2s-0.1,0.2 -0.4,0.2s-0.5,-0.1 -0.6,-0.2l-0.2,0.3c0.2,0.2 0.5,0.2 0.8,0.2c0.5,0 0.8,-0.3 0.8,-0.6s-0.2,-0.5 -0.7,-0.6l-0.2,0c-0.2,0 -0.3,-0.1 -0.3,-0.2s0.1,-0.2 0.4,-0.2c0.2,0 0.5,0.1 0.6,0.2c0,0 0.3,-0.2 0.3,-0.2zm10.9,-0.2c-0.2,0 -0.4,0.1 -0.5,0.3l0,-0.2l-0.4,0l0,1.9l0.4,0l0,-1c0,-0.3 0.1,-0.5 0.4,-0.5l0.3,0l0.1,-0.4c-0.1,-0.1 -0.2,-0.1 -0.3,-0.1zm-5.2,1c0,0.6 0.4,1 1,1c0.3,0 0.5,-0.1 0.7,-0.2l-0.2,-0.3c-0.2,0.1 -0.3,0.2 -0.5,0.2c-0.3,0 -0.6,-0.2 -0.6,-0.6s0.2,-0.6 0.6,-0.6c0.2,0 0.3,0.1 0.5,0.2l0.2,-0.3c-0.2,-0.2 -0.4,-0.2 -0.7,-0.2c-0.7,-0.2 -1,0.2 -1,0.8zm3.7,0l0,-0.9l-0.4,0l0,0.2c-0.1,-0.2 -0.3,-0.3 -0.6,-0.3c-0.5,0 -0.9,0.4 -0.9,1s0.4,1 0.9,1c0.3,0 0.5,-0.1 0.6,-0.3l0,0.2l0.4,0l0,-0.9zm-1.5,0c0,-0.3 0.2,-0.6 0.6,-0.6c0.3,0 0.6,0.3 0.6,0.6s-0.2,0.6 -0.6,0.6c-0.3,0 -0.6,-0.3 -0.6,-0.6zm-4.8,-1c-0.5,0 -0.9,0.4 -0.9,1s0.4,1 1,1c0.3,0 0.5,-0.1 0.8,-0.3l-0.2,-0.3c-0.2,0.1 -0.4,0.2 -0.5,0.2c-0.3,0 -0.5,-0.1 -0.6,-0.5l1.4,0l0,-0.2c-0.2,-0.5 -0.5,-0.9 -1,-0.9zm-0.1,0.4c0.3,0 0.4,0.2 0.5,0.5l-1,0c0.1,-0.3 0.3,-0.5 0.5,-0.5zm10.2,0.6l0,-1.7l-0.4,0l0,1c-0.1,-0.2 -0.3,-0.3 -0.6,-0.3c-0.5,0 -0.9,0.4 -0.9,1s0.4,1 0.9,1c0.3,0 0.5,-0.1 0.6,-0.3l0,0.2l0.4,0l0,-0.9zm-1.5,0c0,-0.3 0.2,-0.6 0.6,-0.6c0.3,0 0.6,0.3 0.6,0.6s-0.2,0.6 -0.6,0.6s-0.6,-0.3 -0.6,-0.6zm-13.7,0l0,-0.9l-0.4,0l0,0.2c-0.1,-0.2 -0.3,-0.3 -0.6,-0.3c-0.5,0 -0.9,0.4 -0.9,1s0.4,1 0.9,1c0.3,0 0.5,-0.1 0.6,-0.3l0,0.2l0.4,0l0,-0.9zm-1.5,0c0,-0.3 0.2,-0.6 0.6,-0.6c0.3,0 0.6,0.3 0.6,0.6s-0.2,0.6 -0.6,0.6s-0.6,-0.3 -0.6,-0.6z" id="svg_11"/>
  <path d="m14.1,5.1859l6.1,0l0,11l-6.1,0l0,-11z" fill="#ff5f00" id="svg_12"/>
  <path d="m14.5,10.6859c0,-2.2 1,-4.2 2.7,-5.5c-1.2,-0.9 -2.7,-1.5 -4.3,-1.5c-3.9,0 -7,3.1 -7,7s3.1,7 7,7c1.6,0 3.1,-0.6 4.3,-1.5c-1.7,-1.3 -2.7,-3.3 -2.7,-5.5z" fill="#eb001b" id="svg_13"/>
  <path d="m28.5,10.6859c0,3.9 -3.1,7 -7,7c-1.6,0 -3.1,-0.6 -4.3,-1.5c1.6,-1.3 2.7,-3.3 2.7,-5.5s-1,-4.2 -2.7,-5.5c1.2,-0.9 2.7,-1.5 4.3,-1.5c3.9,0 7,3.1 7,7z" fill="#f79e1b" id="svg_14"/>
  <path d="m58.5,16.2859l-6.3,0l0,-11.2l6.3,0l0,11.2z" fill="#6c6bbd" id="svg_15"/>
  <path d="m52.6,10.5859c0,-2.3 1.1,-4.3 2.7,-5.6c-1.2,-1 -2.8,-1.5 -4.4,-1.5c-3.9,0 -7.2,3.2 -7.2,7.2s3.2,7.2 7.2,7.2c1.7,0 3.2,-0.6 4.4,-1.5c-1.6,-1.5 -2.7,-3.5 -2.7,-5.8" fill="#d32011" id="svg_16"/>
  <path d="m66.9,10.58704c0,4 -3.2,7.2 -7.2,7.2c-1.7,0 -3.2,-0.6 -4.4,-1.5c1.7,-1.3 2.7,-3.3 2.7,-5.6s-1.1,-4.3 -2.7,-5.6c1.2,-1 2.8,-1.5 4.4,-1.5c4,-0.1 7.2,3.1 7.2,7" fill="#0099df" id="svg_17"/>
  <path d="m60.6,9.8859c0.1,0 0.2,0 0.3,0.1l-0.1,0.4l-0.3,0c-0.3,0 -0.4,0.2 -0.4,0.5l0,1.1l-0.4,0l0,-1.9l0.4,0l0,0.2c0.1,-0.3 0.3,-0.4 0.5,-0.4zm-1.5,0.4l-0.7,0l0,0.9c0,0.2 0.1,0.3 0.3,0.3c0.1,0 0.2,0 0.4,-0.1l0.1,0.4c-0.1,0.1 -0.3,0.1 -0.5,0.1c-0.5,0 -0.7,-0.3 -0.7,-0.7l0,-0.9l-0.4,0l0,-0.4l0.4,0l0,-0.5l0.4,0l0,0.6l0.7,0l0,0.3zm-5.3,0.5c0,-0.3 0.2,-0.5 0.5,-0.5s0.4,0.2 0.5,0.5l-1,0zm1.4,0.1c0,-0.6 -0.4,-1 -0.9,-1c-0.6,0 -0.9,0.4 -0.9,1s0.4,1 1,1c0.3,0 0.5,-0.1 0.8,-0.3l-0.2,-0.3c-0.2,0.1 -0.4,0.2 -0.6,0.2c-0.3,0 -0.5,-0.1 -0.6,-0.5l1.4,0l0,-0.1zm1.8,-0.4c-0.1,-0.1 -0.3,-0.2 -0.6,-0.2c-0.2,0 -0.4,0.1 -0.4,0.2s0.1,0.2 0.3,0.2l0.2,0c0.4,0.1 0.7,0.2 0.7,0.6s-0.3,0.6 -0.9,0.6c-0.3,0 -0.6,-0.1 -0.8,-0.2l0.2,-0.3c0.1,0.1 0.3,0.2 0.6,0.2s0.4,-0.1 0.4,-0.2s-0.1,-0.2 -0.3,-0.2l-0.2,0c-0.4,-0.1 -0.7,-0.3 -0.7,-0.6c0,-0.4 0.3,-0.6 0.8,-0.6c0.3,0 0.6,0.1 0.8,0.2l-0.1,0.3zm5.1,-0.2l-0.2,0c-0.1,0 -0.1,0.1 -0.2,0.1s-0.1,0.1 -0.1,0.2l0,0.4c0,0.1 0.1,0.1 0.1,0.2s0.1,0.1 0.2,0.1l0.4,0c0.1,0 0.1,-0.1 0.2,-0.1c0.07,-0.07 0.1,-0.13 0.1,-0.2l0,-0.4c0,-0.1 -0.1,-0.1 -0.1,-0.2c-0.07,-0.07 -0.13,-0.1 -0.2,-0.1l-0.2,0zm0,-0.4c0.1,0 0.3,0 0.4,0.1s0.2,0.1 0.3,0.2s0.2,0.2 0.2,0.3c0.1,0.1 0.1,0.3 0.1,0.4s0,0.3 -0.1,0.4s-0.1,0.2 -0.2,0.3s-0.2,0.2 -0.3,0.2c-0.1,0.1 -0.3,0.1 -0.4,0.1s-0.3,0 -0.4,-0.1s-0.2,-0.1 -0.3,-0.2s-0.2,-0.2 -0.2,-0.3c-0.1,-0.1 -0.1,-0.3 -0.1,-0.4s0,-0.3 0.1,-0.4s0.1,-0.2 0.2,-0.3s0.2,-0.2 0.3,-0.2c0.1,-0.1 0.3,-0.1 0.4,-0.1zm-10.7,1c0,-0.3 0.2,-0.6 0.6,-0.6c0.3,0 0.6,0.3 0.6,0.6s-0.2,0.6 -0.6,0.6s-0.6,-0.2 -0.6,-0.6zm1.5,0l0,-0.9l-0.4,0l0,0.2c-0.1,-0.2 -0.3,-0.3 -0.6,-0.3c-0.5,0 -0.9,0.4 -0.9,1s0.4,1 0.9,1c0.3,0 0.5,-0.1 0.6,-0.3l0,0.2l0.4,0l0,-0.9zm-2.3,1l0,-1.2c0,-0.4 -0.3,-0.8 -0.7,-0.8c-0.2,0 -0.5,0.1 -0.7,0.3c-0.1,-0.2 -0.3,-0.3 -0.6,-0.3c-0.2,0 -0.4,0.1 -0.6,0.3l0,-0.2l-0.4,0l0,1.9l0.4,0l0,-1.1c0,-0.3 0.2,-0.5 0.5,-0.5s0.4,0.2 0.4,0.5l0,1.1l0.4,0l0,-1.1c0,-0.3 0.2,-0.5 0.5,-0.5s0.4,0.2 0.4,0.5l0,1.1s0.4,0 0.4,0z" fill="#110f0d" id="svg_18"/>
  <path d="m77.3,0.1859l34.1,0l0,21l-34.1,0l0,-21z" fill="#1a1f70" id="svg_19"/>
  <g fill="#fff" id="svg_20">
   <path d="m89.8,7.2359l-1.8,4.7l-0.7,-4c-0.1,-0.4 -0.4,-0.7 -0.8,-0.7l-3.1,0l-0.1,0.2c0.6,0.2 1.4,0.4 1.8,0.6c0.2,0.1 0.4,0.2 0.4,0.6l1.4,5.5l0,-0.1l1.9,0l2.9,-6.9s-1.9,0.1 -1.9,0.1z" id="svg_21"/>
   <path d="m92.4,7.2359l-1.5,6.9l1.8,0l1.5,-6.9l-1.8,0z" id="svg_22"/>
   <path d="m96.5,9.1359c0,-0.2 0.2,-0.5 0.7,-0.6c0.2,-0.1 1,-0.1 1.8,0.3l0.3,-1.5c-0.4,-0.2 -1,-0.3 -1.7,-0.3c-1.8,0 -3,0.9 -3,2.3c0,1 0.9,1.6 1.6,1.9c0.7,0.4 0.9,0.6 0.9,0.9c0,0.5 -0.6,0.7 -1,0.7c-0.9,0 -1.4,-0.2 -1.8,-0.4l-0.3,1.5c0.4,0.2 1.2,0.4 2,0.4c1.9,0 3.1,-0.9 3.1,-2.4c-0.1,-1.8 -2.6,-2 -2.6,-2.8z" id="svg_23"/>
   <path d="m105.4,14.2359l-1.4,-6.9l-1.5,0c-0.3,0 -0.6,0.2 -0.7,0.5l-2.8,6.4l1.9,0l0.4,-1l2.3,0l0.2,1l0,0.1l1.6,0l0,-0.1zm-3.7,-2.5l1,-2.6l0.6,2.6l-1.6,0z" id="svg_24"/>
  </g>
  <path d="m217.7,0.1909l-22.75,0c-1.18,0 -2.13,1.17 -2.13,2.62l0,15.75c0,1.45 0.96,2.62 2.13,2.62l22.75,0c1.18,0 2.13,-1.17 2.13,-2.62l0,-15.75c0,-1.45 -0.96,-2.62 -2.13,-2.62z" fill="#b2fce4" id="svg_25"/>
  <path d="m218.14,9.3259l-0.72,-0.41l-0.72,-0.43c-0.35,-0.2 -0.79,-0.08 -0.99,0.27c-0.06,0.11 -0.1,0.24 -0.1,0.36l0,0.09c0,0.05 0.02,0.1 0.07,0.13l0.34,0.19c0.06,0.04 0.14,0.02 0.18,-0.05l0,-0.29c0,-0.08 0.05,-0.14 0.14,-0.15l0.08,0l0.68,0.39l0.68,0.38c0.07,0.05 0.09,0.14 0.05,0.21l-0.05,0.05l-0.68,0.38l-0.68,0.39c-0.07,0.04 -0.15,0.02 -0.2,-0.05l0,-0.19c0,-0.4 -0.33,-0.72 -0.72,-0.72c-0.13,0 -0.25,0.03 -0.36,0.1l-0.73,0.42l-0.72,0.41c-0.34,0.2 -0.46,0.64 -0.27,0.99c0.06,0.11 0.16,0.21 0.27,0.27l0.72,0.41l0.73,0.41c0.35,0.2 0.79,0.08 0.99,-0.27c0.06,-0.11 0.1,-0.24 0.1,-0.36l0,-0.09c0,-0.05 -0.02,-0.1 -0.07,-0.13l-0.34,-0.2c-0.06,-0.04 -0.14,-0.02 -0.18,0.05l0,0.3c0,0.08 -0.05,0.14 -0.14,0.15l-0.08,0l-0.68,-0.39l-0.68,-0.38c-0.07,-0.03 -0.11,-0.11 -0.08,-0.19l0.05,-0.05l0.68,-0.38l0.68,-0.39c0.07,-0.04 0.15,-0.02 0.2,0.05l0,0.19c0,0.4 0.33,0.72 0.72,0.72c0.13,0 0.25,-0.03 0.36,-0.1l0.73,-0.42l0.72,-0.41c0.33,-0.21 0.44,-0.65 0.24,-0.99c-0.05,-0.11 -0.12,-0.2 -0.22,-0.27z" id="svg_26"/>
  <path d="m213.42,8.9459l-1.69,3.48l-0.68,0l0.63,-1.3l-0.99,-2.18l0.72,0l0.64,1.46l0.68,-1.46l0.69,0z" id="svg_27"/>
  <path d="m196.56,10.6959c-0.02,-0.37 -0.33,-0.66 -0.71,-0.65c-0.37,0.02 -0.66,0.33 -0.65,0.71c0.02,0.36 0.31,0.65 0.68,0.65c0.37,0 0.68,-0.3 0.68,-0.68l0,-0.03zm0,1.24l0,-0.33c-0.19,0.24 -0.48,0.36 -0.78,0.36c-0.67,-0.02 -1.2,-0.57 -1.18,-1.24l0,-0.04c-0.03,-0.68 0.5,-1.25 1.18,-1.28c0.3,0 0.58,0.13 0.77,0.36l0,-0.31l0.6,0l0,2.47s-0.59,0 -0.59,0l0,0.01z" id="svg_28"/>
  <path d="m200.13,11.8409c-0.22,0 -0.27,-0.08 -0.27,-0.28l0,-1.07l0.39,0l0,-0.53l-0.39,0l0,-0.62l-0.62,0l0,0.6l-0.81,0l0,-0.25c0,-0.21 0.08,-0.28 0.3,-0.28l0.14,0l0,-0.48l-0.29,0c-0.52,0 -0.76,0.17 -0.76,0.68l0,0.33l-0.34,0l0,0.56l0.34,0l0,1.94l0.62,0l0,-1.94l0.81,0l0,1.22c0,0.51 0.19,0.72 0.68,0.72l0.34,0l0,-0.58l-0.12,0l-0.02,-0.02z" id="svg_29"/>
  <path d="m202.37,10.46421c-0.05,-0.3 -0.31,-0.52 -0.62,-0.51c-0.3,-0.02 -0.58,0.21 -0.62,0.51l1.24,0zm-1.23,0.38c0.02,0.33 0.3,0.58 0.64,0.58c0.24,0 0.46,-0.12 0.58,-0.32l0.64,0c-0.16,0.54 -0.67,0.9 -1.23,0.86c-0.67,0.05 -1.25,-0.46 -1.3,-1.13l0,-0.15c0,-0.71 0.57,-1.28 1.28,-1.28s1.28,0.57 1.28,1.28l0,0.16l-1.88,0l0,0.02l-0.01,-0.02z" id="svg_30"/>
  <path d="m207,10.2009c0,-0.37 -0.32,-0.67 -0.69,-0.66s-0.67,0.32 -0.66,0.69s0.32,0.67 0.69,0.66c0.36,0 0.65,-0.3 0.66,-0.66l0,-0.03zm-1.96,2.24l0,-3.48l0.6,0l0,0.32c0.19,-0.24 0.48,-0.36 0.78,-0.36c0.67,0 1.2,0.56 1.19,1.23l0,0.05c0.03,0.68 -0.5,1.25 -1.18,1.28c-0.29,0 -0.56,-0.11 -0.75,-0.33l0,1.3l-0.65,0l0.01,-0.01z" id="svg_31"/>
  <path d="m209.82,10.69563c-0.02,-0.37 -0.33,-0.66 -0.71,-0.64c-0.37,0.02 -0.66,0.33 -0.64,0.71c0.02,0.35 0.3,0.62 0.64,0.64l0.03,0c0.37,0 0.68,-0.3 0.68,-0.68l0,-0.03zm-0.01,1.24l0,-0.33c-0.19,0.24 -0.48,0.37 -0.78,0.36c-0.67,0 -1.2,-0.56 -1.19,-1.23l0,-0.05c-0.03,-0.68 0.5,-1.25 1.18,-1.28c0.3,0 0.58,0.13 0.77,0.36l0,-0.31l0.61,0l0,2.47l-0.59,0l0,0.01z" id="svg_32"/>
  <path d="m203.95,9.71119c0.11,-0.18 0.32,-0.3 0.53,-0.29c0.09,0 0.18,0.02 0.27,0.05l0,0.64c-0.13,-0.08 -0.29,-0.12 -0.44,-0.11c-0.22,0.05 -0.36,0.26 -0.34,0.48l0,1.47l-0.63,0l0,-2.47l0.61,0l0,0.24l0,-0.01z" id="svg_33"/>
  <g id="svg_34" stroke="null">
   <g id="svg_37" stroke="null">
    <path id="svg_36" d="m253.79156,0.22272l-26.83307,0c-0.11176,0 -0.22371,0 -0.33527,0.00065c-0.0943,0.00067 -0.18838,0.00172 -0.28246,0.00429c-0.20519,0.00555 -0.41213,0.01766 -0.61475,0.05407c-0.20586,0.03705 -0.39742,0.09748 -0.58429,0.19263c-0.18372,0.09343 -0.35192,0.21563 -0.49768,0.36145c-0.14582,0.14582 -0.26803,0.31374 -0.36144,0.49766c-0.09517,0.18688 -0.15564,0.3785 -0.19243,0.58451c-0.03661,0.20268 -0.0488,0.40958 -0.05433,0.61455c-0.00253,0.09408 -0.00361,0.18816 -0.00423,0.28222c-0.00065,0.1118 -0.00043,0.22351 -0.00043,0.3355l0,15.07152c0,0.11199 -0.00022,0.22351 0.00043,0.33553c0.00061,0.09406 0.0017,0.18814 0.00423,0.28222c0.00553,0.20479 0.01772,0.41169 0.05433,0.61431c0.03679,0.20609 0.09726,0.39763 0.19243,0.58453c0.09341,0.18392 0.21561,0.35205 0.36144,0.49766c0.14576,0.14606 0.31396,0.26824 0.49768,0.36143c0.18688,0.0954 0.37844,0.15585 0.58429,0.19288c0.20262,0.03618 0.40956,0.0485 0.61475,0.05405c0.09408,0.00213 0.18816,0.0034 0.28246,0.00383c0.11156,0.00087 0.22351,0.00087 0.33527,0.00087l26.83307,0c0.11156,0 0.22351,0 0.33505,-0.00087c0.09408,-0.00043 0.18817,-0.0017 0.28268,-0.00383c0.20475,-0.00555 0.41165,-0.01787 0.61477,-0.05405c0.20558,-0.03703 0.39718,-0.09748 0.58408,-0.19288c0.18392,-0.09319 0.35162,-0.21538 0.49768,-0.36143c0.14558,-0.1456 0.26779,-0.31374 0.36143,-0.49766c0.09538,-0.1869 0.15579,-0.37844 0.19241,-0.58453c0.03663,-0.20262 0.04852,-0.40952 0.05407,-0.61431c0.00257,-0.09408 0.00383,-0.18816 0.00427,-0.28222c0.00087,-0.11201 0.00087,-0.22353 0.00087,-0.33553l0,-15.07152c0,-0.11199 0,-0.22371 -0.00087,-0.3355c-0.00043,-0.09406 -0.0017,-0.18814 -0.00427,-0.28222c-0.00555,-0.20497 -0.01744,-0.41187 -0.05407,-0.61455c-0.03661,-0.20601 -0.09702,-0.39763 -0.19241,-0.58451c-0.09365,-0.18392 -0.21585,-0.35184 -0.36143,-0.49766c-0.14606,-0.14582 -0.31376,-0.26802 -0.49768,-0.36145c-0.1869,-0.09515 -0.3785,-0.15558 -0.58408,-0.19263c-0.20311,-0.03642 -0.41002,-0.04852 -0.61477,-0.05407c-0.09451,-0.00257 -0.18859,-0.00361 -0.28268,-0.00429c-0.11153,-0.00065 -0.22349,-0.00065 -0.33505,-0.00065l0,0z" stroke="null"/>
    <path id="svg_35" fill="#FFFFFF" d="m253.79156,0.92024l0.33009,0.00063c0.08942,0.00063 0.17884,0.0016 0.26876,0.00405c0.15641,0.00423 0.33937,0.0127 0.50992,0.04327c0.14825,0.0267 0.27258,0.0673 0.39191,0.12805c0.1178,0.05986 0.22573,0.1383 0.31996,0.2324c0.09459,0.09473 0.17314,0.20284 0.23378,0.32194c0.06041,0.11839 0.10075,0.24213 0.1273,0.39147c0.03049,0.16869 0.03892,0.35215 0.04321,0.50953c0.00241,0.08883 0.00359,0.17766 0.00403,0.2686c0.00085,0.10998 0.00083,0.2199 0.00083,0.33009l0,15.07152c0,0.1102 0.00002,0.21992 -0.00085,0.33225c-0.00042,0.08881 -0.0016,0.17764 -0.00403,0.26662c-0.00427,0.15714 -0.0127,0.3405 -0.04356,0.51119c-0.02617,0.14728 -0.06649,0.27105 -0.12724,0.39003c-0.06047,0.11881 -0.13889,0.22679 -0.23307,0.32093c-0.09477,0.09479 -0.20234,0.173 -0.32154,0.23341c-0.11843,0.06045 -0.24255,0.10101 -0.38934,0.12744c-0.174,0.031 -0.36463,0.03954 -0.5082,0.04343c-0.09033,0.00203 -0.18022,0.00326 -0.27231,0.00369c-0.10974,0.00085 -0.21988,0.00083 -0.32964,0.00083l-26.83307,0c-0.00146,0 -0.00288,0 -0.00436,0c-0.1085,0 -0.21721,0 -0.32768,-0.00085c-0.09007,-0.00042 -0.17995,-0.00162 -0.26684,-0.00359c-0.14685,-0.00397 -0.3376,-0.01248 -0.51018,-0.04331c-0.14805,-0.02662 -0.27217,-0.06718 -0.39216,-0.12842c-0.11807,-0.05988 -0.22557,-0.138 -0.32038,-0.23297c-0.09408,-0.09392 -0.17226,-0.20157 -0.23271,-0.32056c-0.06051,-0.11887 -0.10099,-0.243 -0.12761,-0.39204c-0.03077,-0.17035 -0.03922,-0.35298 -0.04345,-0.50905c-0.00241,-0.08936 -0.00342,-0.1787 -0.00399,-0.26753l-0.00043,-0.26224l0.00002,-0.06924l0,-15.07152l-0.00002,-0.06924l0.00041,-0.26169c0.00059,-0.08936 0.0016,-0.1787 0.00401,-0.26799c0.00422,-0.15623 0.01268,-0.33894 0.0437,-0.51071c0.02638,-0.1477 0.06685,-0.27184 0.12767,-0.39129c0.05998,-0.11808 0.1383,-0.22586 0.23287,-0.32042c0.0942,-0.09424 0.20204,-0.17258 0.32087,-0.23301c0.11871,-0.06045 0.24306,-0.10103 0.39112,-0.12767c0.17059,-0.03065 0.35367,-0.0391 0.51048,-0.04335c0.08938,-0.00243 0.17876,-0.0034 0.26747,-0.00401l0.3312,-0.00065l26.83307,0" stroke="null"/>
    <g id="svg_38" stroke="null">
     <g id="svg_39" stroke="null">
      <path id="svg_40" d="m232.95469,7.26114c0.27988,-0.35007 0.46981,-0.82011 0.41972,-1.30044c-0.40971,0.02037 -0.90968,0.2703 -1.19913,0.62064c-0.2599,0.30002 -0.48994,0.78974 -0.42997,1.24993c0.45992,0.03989 0.91941,-0.22989 1.20939,-0.57014" stroke="null"/>
      <path id="svg_41" d="m233.36918,7.92113c-0.66791,-0.03979 -1.2358,0.37907 -1.55476,0.37907c-0.31914,0 -0.80757,-0.35902 -1.33585,-0.34935c-0.68759,0.0101 -1.3256,0.39887 -1.67452,1.0172c-0.71768,1.23696 -0.18939,3.0718 0.50851,4.07923c0.33892,0.49841 0.74737,1.04719 1.28557,1.02748c0.50851,-0.01995 0.70782,-0.32927 1.32594,-0.32927c0.61766,0 0.7972,0.32927 1.33549,0.31929c0.55822,-0.00998 0.9072,-0.49866 1.24612,-0.99755c0.3888,-0.56816 0.54796,-1.11677 0.55797,-1.14688c-0.01001,-0.00997 -1.0764,-0.41907 -1.08629,-1.64575c-0.01007,-1.02711 0.83723,-1.51567 0.87711,-1.54597c-0.47848,-0.70767 -1.22609,-0.78747 -1.48528,-0.80752" stroke="null"/>
     </g>
     <g id="svg_42" stroke="null">
      <path id="svg_43" d="m239.18484,6.5311c1.45169,0 2.46256,1.00067 2.46256,2.45756c0,1.4621 -1.03167,2.46796 -2.49896,2.46796l-1.6073,0l0,2.55607l-1.16128,0l0,-7.48159l2.80498,0l0,0zm-1.64371,3.95076l1.33249,0c1.01107,0 1.5865,-0.54434 1.5865,-1.488c0,-0.94356 -0.57544,-1.4828 -1.5813,-1.4828l-1.33769,0l0,2.97079l0,0.00001z" stroke="null"/>
      <path id="svg_44" d="m241.95082,12.46249c0,-0.95406 0.73105,-1.5399 2.02733,-1.61251l1.4931,-0.08811l0,-0.41993c0,-0.60664 -0.40963,-0.96956 -1.09387,-0.96956c-0.64824,0 -1.05267,0.31102 -1.15107,0.79845l-1.05767,0c0.06221,-0.98516 0.90206,-1.71101 2.25015,-1.71101c1.32209,0 2.16714,0.69995 2.16714,1.79392l0,3.75895l-1.07327,0l0,-0.89696l-0.0258,0c-0.31622,0.60664 -1.00587,0.99026 -1.72131,0.99026c-1.06807,0 -1.81472,-0.66364 -1.81472,-1.64351l-0.00001,0.00001zm3.52043,-0.49253l0,-0.43033l-1.34289,0.08291c-0.66884,0.0467 -1.04727,0.34222 -1.04727,0.80885c0,0.47693 0.39403,0.78805 0.99547,0.78805c0.78285,0 1.39469,-0.53924 1.39469,-1.24948z" stroke="null"/>
      <path id="svg_45" d="m247.59918,16.01922l0,-0.90736c0.0828,0.0207 0.26942,0.0207 0.36282,0.0207c0.51843,0 0.79845,-0.21772 0.96946,-0.77765c0,-0.0104 0.09861,-0.33182 0.09861,-0.33702l-1.97013,-5.45956l1.21308,0l1.37929,4.43819l0.0206,0l1.37929,-4.43819l1.18208,0l-2.04293,5.73947c-0.46643,1.32219 -1.00567,1.74731 -2.13594,1.74731c-0.0934,0 -0.37342,-0.0104 -0.45623,-0.0259l0,0.00001z" stroke="null"/>
     </g>
    </g>
   </g>
  </g>
  <g>
   <path d="m288.49027,0.135l-18.26,0c-5.7,0 -10.37,4.77 -10.37,10.6a10.5,10.5 0 0 0 10.37,10.58l18.26,0c5.7,0 10.37,-4.76 10.37,-10.59c0,-5.82 -4.67,-10.59 -10.37,-10.59z" fill="#fff"/>
   <path d="m288.49027,0.995c1.28,0 2.52,0.26 3.7,0.77a9.6,9.6 0 0 1 5.08,5.19a9.78,9.78 0 0 1 0,7.55a9.83,9.83 0 0 1 -5.08,5.18a9.26,9.26 0 0 1 -3.7,0.77l-18.26,0a9.24,9.24 0 0 1 -3.7,-0.77a9.6,9.6 0 0 1 -5.08,-5.18a9.78,9.78 0 0 1 0,-7.55a9.83,9.83 0 0 1 5.08,-5.19a9.24,9.24 0 0 1 3.7,-0.77l18.26,0zm0,-0.86l-18.26,0c-5.7,0 -10.37,4.77 -10.37,10.6a10.5,10.5 0 0 0 10.37,10.58l18.26,0c5.7,0 10.37,-4.76 10.37,-10.59c0,-5.82 -4.67,-10.59 -10.37,-10.59z" fill="#3C4043"/>
   <path d="m278.46027,11.475l0,3.2l-1,0l0,-7.9l2.64,0c0.67,0 1.24,0.23 1.7,0.68c0.49,0.46 0.72,1.01 0.72,1.67a2.2,2.2 0 0 1 -0.71,1.68c-0.46,0.45 -1.03,0.67 -1.7,0.67l-1.65,0zm0,-3.73l0,2.76l1.66,0c0.4,0 0.73,-0.14 0.99,-0.4c0.26,-0.28 0.4,-0.6 0.4,-0.98c0,-0.36 -0.14,-0.68 -0.4,-0.95a1.28,1.28 0 0 0 -0.99,-0.42l-1.66,0l0,-0.01zm6.67,1.35c0.73,0 1.31,0.2 1.74,0.6c0.42,0.4 0.64,0.95 0.64,1.65l0,3.34l-0.95,0l0,-0.76l-0.04,0a1.9,1.9 0 0 1 -1.65,0.93a2.1,2.1 0 0 1 -1.46,-0.53c-0.4,-0.35 -0.6,-0.8 -0.6,-1.32c0,-0.56 0.21,-1 0.63,-1.34c0.41,-0.33 0.97,-0.5 1.66,-0.5c0.59,0 1.07,0.12 1.45,0.34l0,-0.23c0,-0.36 -0.13,-0.65 -0.4,-0.9a1.4,1.4 0 0 0 -0.97,-0.37c-0.56,0 -1,0.24 -1.32,0.72l-0.88,-0.56a2.42,2.42 0 0 1 2.15,-1.07zm-1.29,3.92c0,0.27 0.11,0.5 0.33,0.67c0.22,0.17 0.48,0.26 0.78,0.26c0.42,0 0.79,-0.16 1.12,-0.48c0.32,-0.31 0.49,-0.68 0.49,-1.11a2.02,2.02 0 0 0 -1.3,-0.38c-0.4,0 -0.74,0.1 -1.01,0.3a0.9,0.9 0 0 0 -0.4,0.74l-0.01,0zm9.08,-3.75l-3.32,7.8l-1.02,0l1.23,-2.73l-2.19,-5.07l1.09,0l1.57,3.89l0.02,0l1.54,-3.89l1.08,0z" fill="#3C4043"/>
   <path d="m274.50027,10.825c0,-0.32 -0.03,-0.64 -0.09,-0.95l-4.17,0l0,1.75l2.4,0a2.1,2.1 0 0 1 -0.89,1.4l0,1.14l1.43,0a4.49,4.49 0 0 0 1.32,-3.33l0,-0.01z" fill="#4285F4"/>
   <path d="m271.76027,13.025a2.66,2.66 0 0 1 -4,-1.44l-1.5,0l0,1.18a4.43,4.43 0 0 0 6.91,1.4l-1.43,-1.13l0.02,-0.01z" fill="#34A853"/>
   <path d="m267.61027,10.725c0,-0.3 0.05,-0.59 0.14,-0.86l0,-1.17l-1.49,0a4.59,4.59 0 0 0 0,4.07l1.48,-1.17a2.79,2.79 0 0 1 -0.14,-0.86l0.01,-0.01z" fill="#FABB05"/>
   <path d="m270.24027,7.995c0.66,0 1.24,0.23 1.7,0.68l1.27,-1.3a4.22,4.22 0 0 0 -2.97,-1.18a4.44,4.44 0 0 0 -3.97,2.5l1.48,1.17a2.66,2.66 0 0 1 2.5,-1.87l-0.01,0z" fill="#E94235"/>
  </g>
 </g>

</svg>