<svg viewBox="0 0 40 40" xmlns="http://www.w3.org/2000/svg"><path d="m18.3 40h3.4c10.2-.8 18.3-9.4 18.3-19.8v-.2c0-11.1-9-20-20-20s-20 9-20 20c0 10.6 8.1 19.1 18.3 20z" fill="#fff"/><g fill="#2e2113"><path d="m25.2 7.1h-10.3c-4 0-7.3 3.3-7.3 7.3v11c0 4 3.3 7.3 7.3 7.3h10.3c4 0 7.3-3.3 7.3-7.3v-11c0-4-3.2-7.3-7.3-7.3zm5.5 18.5c0 3-2.4 5.5-5.5 5.5h-10.3c-3 0-5.5-2.4-5.5-5.5v-11c0-3 2.4-5.5 5.5-5.5h10.3c3 0 5.5 2.4 5.5 5.5z"/><path d="m20.1 13.1c-1.8-.1-3.5.6-4.8 1.9s-2.1 3.1-2.1 5c0 3.8 3.1 6.8 6.8 6.8 1.8 0 3.5-.7 4.8-2s2-3 2-4.8c0-1.9-.5-3.6-1.7-4.8-1.1-1.3-2.9-2.1-5-2.1zm0 11.5c-2.5 0-4.5-2-4.5-4.5 0-1.2.5-2.4 1.4-3.3.8-.8 1.9-1.2 3-1.2h.1c1.5 0 2.7.5 3.5 1.3.6.7 1 1.8 1 3.1-.1 2.6-2 4.6-4.5 4.6z"/><ellipse cx="27" cy="12.9" rx="1.6" ry="1.6"/></g></svg>