<?xml version="1.0" encoding="utf-8"?>
<!-- Generator: Adobe Illustrator 26.0.2, SVG Export Plug-In . SVG Version: 6.00 Build 0)  -->
<svg version="1.1" id="Layer_1" xmlns="http://www.w3.org/2000/svg" xmlns:xlink="http://www.w3.org/1999/xlink" x="0px" y="0px"
	 viewBox="0 0 440.4 122" style="enable-background:new 0 0 440.4 122;" xml:space="preserve">
<style type="text/css">
	.st0{fill:#366EB9;}
	.st1{fill:#FFFFFF;}
</style>
<path class="st0" d="M235.6,5.5v16.6h-16.3V5.5H235.6z"/>
<g>
	<path class="st1" d="M97,30.4v14.1H59.5v69.7H42.9V44.5H5.4V30.4H97z"/>
	<path class="st1" d="M125.7,30.4v46.8c0,17.9,9.3,25.1,28.2,25.1c19.2,0,28.2-7.5,28.2-24.7V30.4h16.6V79
		c0,24.2-14.9,37.5-44.6,37.5s-44.6-13.3-44.6-37.5V30.4L125.7,30.4z"/>
	<path class="st1" d="M235.6,30.4V114h-16.3V30.4L235.6,30.4z"/>
	<path class="st1" d="M337.5,50.8l-15.4,5c-3.6-10-13.1-14.1-29.4-14.1c-12.9,0-22.4,3.6-22.4,10.4c0,5.6,7.5,7.9,14.4,8.8l24.2,3.6
		c19.7,3,30,11,30,24.3c0,17.6-15.4,27.4-41.3,27.4c-25.7,0-42.3-9.8-46.6-24.2l15.8-5c4.8,10.1,15.1,14.9,31.2,14.9
		c14.4,0,24.7-5,24.7-11.8c0-5.6-7-9.1-16.6-10.1l-20.8-3c-21.2-3-31.2-11.6-31.2-23.9c0-16.6,14.3-25.1,39.3-25.1
		C317.3,28.4,332.7,35.9,337.5,50.8L337.5,50.8z"/>
	<path class="st1" d="M433.7,50.8l-15.4,5c-3.6-10-13.1-14.1-29.4-14.1c-12.9,0-22.4,3.6-22.4,10.4c0,5.6,7.5,7.9,14.4,8.8l24.2,3.6
		c19.4,3,29.9,10.8,29.9,24.2c0,17.6-15.4,27.4-41.3,27.4c-25.7,0-42.3-9.8-46.6-24.2l15.8-5c4.8,10.1,15.1,14.9,31.2,14.9
		c14.4,0,24.7-5,24.7-11.8c0-5.6-7-9.1-16.6-10.1L381.5,77c-21.2-3-31.2-11.6-31.2-23.9c0-16.6,14.3-25.1,39.3-25.1
		C413.3,28.4,428.7,35.9,433.7,50.8L433.7,50.8z"/>
</g>
</svg>
