<svg viewBox="0 0 40 40" xmlns="http://www.w3.org/2000/svg"><circle cx="20" cy="20" fill="#cb2027" r="20"/><path d="m14.3 32.4c0 .2.2.2.4 0s2.1-2.5 2.7-4.8c.2-.6 1.1-4 1.1-4 .6 1 2.1 1.7 3.6 1.7 4.8 0 8-4.2 8-9.9 0-4.2-3.8-8.2-9.3-8.2-7 0-10.7 5-10.7 9 0 2.5 1 4.6 3 5.5.4.2.6 0 .8-.4 0-.2.2-1 .4-1.1.2-.4 0-.4-.2-.8-.6-.8-1-1.5-1-2.9 0-3.6 2.9-6.9 7.2-6.9 4 0 6.1 2.3 6.1 5.5 0 4.2-1.9 7.6-4.8 7.6-1.5 0-2.7-1.3-2.3-2.7.4-1.9 1.3-3.8 1.3-5.1 0-1.1-.6-2.1-2.1-2.1s-2.9 1.5-2.9 3.6c0 1.3.4 2.3.4 2.3s-1.7 6.7-1.9 7.8c-.4 2.6.2 5.5.2 5.9z" fill="#fff"/><circle cx="20" cy="20" fill="#cb2027" r="20"/><path d="m14.3 32.4c0 .2.2.2.4 0s2.1-2.5 2.7-4.8c.2-.6 1.1-4 1.1-4 .6 1 2.1 1.7 3.6 1.7 4.8 0 8-4.2 8-9.9 0-4.2-3.8-8.2-9.3-8.2-7 0-10.7 5-10.7 9 0 2.5 1 4.6 3 5.5.4.2.6 0 .8-.4 0-.2.2-1 .4-1.1.2-.4 0-.4-.2-.8-.6-.8-1-1.5-1-2.9 0-3.6 2.9-6.9 7.2-6.9 4 0 6.1 2.3 6.1 5.5 0 4.2-1.9 7.6-4.8 7.6-1.5 0-2.7-1.3-2.3-2.7.4-1.9 1.3-3.8 1.3-5.1 0-1.1-.6-2.1-2.1-2.1s-2.9 1.5-2.9 3.6c0 1.3.4 2.3.4 2.3s-1.7 6.7-1.9 7.8c-.4 2.6.2 5.5.2 5.9z" fill="#fff"/><circle cx="20" cy="20" fill="#cb2027" r="20"/><path d="m14.3 32.4c0 .2.2.2.4 0s2.1-2.5 2.7-4.8c.2-.6 1.1-4 1.1-4 .6 1 2.1 1.7 3.6 1.7 4.8 0 8-4.2 8-9.9 0-4.2-3.8-8.2-9.3-8.2-7 0-10.7 5-10.7 9 0 2.5 1 4.6 3 5.5.4.2.6 0 .8-.4 0-.2.2-1 .4-1.1.2-.4 0-.4-.2-.8-.6-.8-1-1.5-1-2.9 0-3.6 2.9-6.9 7.2-6.9 4 0 6.1 2.3 6.1 5.5 0 4.2-1.9 7.6-4.8 7.6-1.5 0-2.7-1.3-2.3-2.7.4-1.9 1.3-3.8 1.3-5.1 0-1.1-.6-2.1-2.1-2.1s-2.9 1.5-2.9 3.6c0 1.3.4 2.3.4 2.3s-1.7 6.7-1.9 7.8c-.4 2.6.2 5.5.2 5.9z" fill="#fff"/></svg>