<svg xmlns="http://www.w3.org/2000/svg" viewBox="0 0 135.1 30.1"><title>4 star icon</title><path d="M15.7,0l4.2,11.1,11.7.4-9.3,7.3L25.5,30l-9.8-6.5L6.1,30,9.3,18.7,0,11.5l11.7-.4Z" transform="translate(0)" style="fill:#1e9f66"/><path d="M50.2,0l4.2,11.1,11.7.4-9.3,7.3L60,30l-9.8-6.5L40.5,30l3.2-11.3-9.2-7.3L46.2,11Z" transform="translate(0)" style="fill:#1e9f66"/><path d="M84.7,0l4.2,11.1,11.7.4-9.3,7.3L94.5,30l-9.8-6.5L75,30l3.2-11.3L69,11.4,80.7,11Z" transform="translate(0)" style="fill:#1e9f66"/><path d="M119.2,0l4.2,11.1,11.7.4-9.3,7.3L129,30.1l-9.8-6.5-9.7,6.5,3.2-11.3-9.2-7.3,11.7-.4Z" transform="translate(0)" style="fill:#1e9f66"/><path d="M15.8,0,20,11.1l11.7.4-9.3,7.3L25.5,30l-9.8-6.5L6.1,30,9.3,18.7,0,11.5l11.7-.4Z" transform="translate(0)" style="fill:#1e9f66"/><path d="M50.2,0l4.2,11.1,11.7.4-9.3,7.3L60,30l-9.8-6.5L40.5,30l3.2-11.3-9.2-7.3L46.2,11Z" transform="translate(0)" style="fill:#1e9f66"/><path d="M84.7,0l4.2,11.1,11.7.4-9.3,7.3L94.5,30l-9.8-6.5L75,30l3.2-11.3L69,11.5l11.7-.4Z" transform="translate(0)" style="fill:#1e9f66"/><path d="M119.2,0l4.2,11.1,11.7.4-9.3,7.3L129,30l-9.8-6.5L109.5,30l3.2-11.3-9.2-7.3,11.7-.4Z" transform="translate(0)" style="fill:#1e9f66"/></svg>