<svg viewBox="0 0 402 402" xmlns="http://www.w3.org/2000/svg"><path d="m401.1 311.5c-1.1-3.4-8.4-8.5-21.7-15.1-3.6-2.1-8.8-4.9-15.4-8.6-6.1-3.3-12.1-6.6-18.1-10-5.1-2.9-10.2-5.8-15.3-8.8-.8-.6-3.1-2.2-7.1-5s-7.4-4.8-10.1-6.1c-2.8-1.3-5.5-2-8.1-2-3.8 0-8.6 2.7-14.3 8.1s-11 11.4-15.7 17.7c-4.8 6.4-9.8 12.3-15.1 17.7s-9.7 8.1-13.1 8.1c-1.7 0-3.9-.5-6.4-1.4-2.6-1-4.5-1.8-5.9-2.4-1.3-.7-3.6-2-6.8-4s-5-3.1-5.4-3.3c-26.1-14.5-48.4-31-67.1-49.7-18.6-18.7-35.2-41-49.7-67.1-.2-.4-1.3-2.2-3.3-5.4s-3.3-5.5-4-6.9c-.7-1.3-1.5-3.3-2.4-5.9s-1.4-4.7-1.4-6.4c0-3.4 2.7-7.8 8.1-13.1s11.3-10.4 17.7-15.1c6.3-4.7 12.3-10 17.7-15.7s8.1-10.5 8.1-14.3c0-2.7-.7-5.4-2-8.1-1.3-2.8-3.4-6.1-6.1-10.1-2.8-4-4.4-6.4-5-7.1-3-5-6-10.1-8.8-15.3-3.4-6-6.7-12.1-10-18.1-3.6-6.7-6.5-11.8-8.6-15.4-6.8-13.5-11.9-20.7-15.3-21.8-1.3-.6-3.3-.9-6-.9-5.1 0-11.8.9-20.1 2.9-8.3 1.9-14.8 3.9-19.6 6-9.5 4-19.6 15.6-30.3 34.8-9.6 17.9-14.5 35.6-14.5 53.1 0 5.1.3 10.1 1 15s1.9 10.3 3.6 16.4 3.1 10.6 4.1 13.6c1 2.9 3 8.2 5.9 15.8s4.6 12.3 5.1 14c6.7 18.7 14.6 35.3 23.7 50 15 24.4 35.5 49.5 61.5 75.5s51.2 46.5 75.5 61.5c14.7 9.1 31.3 17 50 23.7 1.7.6 6.4 2.3 14 5.1 7.6 2.9 12.9 4.8 15.8 5.9 2.9 1 7.5 2.4 13.6 4.1s11.6 2.9 16.4 3.6c4.9.7 9.9 1 15 1 17.5 0 35.2-4.9 53.1-14.6 19.2-10.7 30.8-20.7 34.8-30.3 2.1-4.8 4.1-11.3 6-19.6s2.9-15 2.9-20.1c0-2.6-.3-4.6-.9-5.9z" fill="#fff"/></svg>