<svg width="246" height="48" viewBox="0 0 246 48" fill="none" xmlns="http://www.w3.org/2000/svg">
<g clip-path="url(#clip0_252_3572)">
<g clip-path="url(#clip1_252_3572)">
<path fill-rule="evenodd" clip-rule="evenodd" d="M236.941 1.03727H245.961C245.961 1.03727 245.961 32.737 246.002 32.6955C246.002 39.5416 244.239 48.1719 228.208 48.1719C221.197 48.1719 213.161 44.1057 212.915 37.2596L222.919 36.7617C223.411 39.5416 225.666 40.8279 229.192 40.8279C233.948 40.8279 236.449 38.2969 236.695 33.4838V29.9155C236.695 29.9155 234.44 33.9817 226.691 33.9817C216.4 33.9817 211.398 26.3887 211.398 17.0116C211.398 8.17386 217.138 0.0414734 226.158 0.0414734C234.686 0.0414734 236.941 4.85452 236.941 4.85452V1.03727ZM220.418 16.7626C220.131 21.5757 223.411 26.3887 228.167 26.3887C233.948 26.3887 236.449 22.0736 236.49 17.5095C236.982 12.1986 233.702 7.63446 228.454 7.63446C222.919 7.63446 220.664 12.4475 220.418 16.7626ZM105.166 38.2968C97.1712 38.2968 89.1352 34.0232 89.1352 25.8908H89.1762V25.5589H97.7042C97.7042 29.6251 101.435 31.4092 105.207 31.4092C106.724 31.4092 111.48 30.3719 111.48 27.0941C111.48 24.2618 109.293 23.8603 102.238 22.5648C101.748 22.4749 101.235 22.3807 100.697 22.281C95.1622 21.2852 89.9142 18.7542 89.9142 12.6549C89.9142 4.02465 97.4172 0.746803 104.674 0.746803C112.218 0.746803 118.983 3.7757 119.721 12.406H111.439C111.439 8.87918 107.913 7.344 104.674 7.344C101.64 7.344 98.6472 8.38128 98.6472 11.1612C98.6472 13.7767 102.15 14.3191 106.087 14.9287C107.521 15.1508 109.013 15.3819 110.414 15.7253C116.441 17.2605 120.705 19.7915 120.705 26.1398C120.705 35.2679 111.439 38.2968 105.166 38.2968ZM122.264 36.5128H131.735V16.7212C131.735 10.6219 135.753 9.37715 137.516 9.37715C142.518 9.37715 143.01 13.6923 143.01 17.5095V36.7617H152.522V17.0116C152.522 10.9123 156.048 9.41864 158.303 9.41864C163.797 9.41864 163.797 13.7338 163.797 17.551V36.8032H173.309V13.9827C173.309 5.1035 168.307 1.57669 161.296 1.57669C156.786 1.57669 153.26 4.35664 151.292 7.42703C149.529 3.36084 145.798 1.57669 141.534 1.57669C137.27 1.57669 133.785 3.60979 131.53 7.13659H131.284V2.32355H122.264V36.5128ZM191.841 0.539331C204.387 0.539331 210.127 11.1612 209.389 21.5757H184.297C184.297 25.6418 187.331 29.708 192.579 29.708C196.597 29.708 199.098 26.6791 199.344 25.3929L208.61 25.8908C206.109 34.0232 200.123 37.301 192.087 37.301C181.058 37.301 174.539 28.9197 174.539 19.0447C174.539 9.41856 181.058 0.539331 191.841 0.539331ZM192.087 7.88337C186.347 7.88337 184.584 13.4433 184.584 14.7295H199.59C199.59 13.1943 197.581 7.88337 192.087 7.88337ZM65.7236 11.5462C66.9885 6.6414 71.3606 3.07041 76.6294 3.07041C82.9024 3.07041 87.9044 8.1324 87.9044 14.4806C87.9044 20.8289 82.9024 25.8909 76.6294 25.8909C71.3631 25.8909 66.9927 22.2941 65.7255 17.4081C64.7102 21.3555 61.6825 24.4402 57.7941 25.4967C62.6013 26.8028 66.0929 31.2088 66.0929 36.5127C66.0929 42.861 61.0909 47.9229 54.8179 47.9229C49.5484 47.9229 45.1758 44.351 43.9117 39.4451C42.6475 44.351 38.2749 47.9229 33.0054 47.9229C27.7386 47.9229 23.3967 44.3546 22.1393 39.4526C20.8726 44.3546 16.5018 47.9229 11.235 47.9229C4.96196 47.9229 -0.0400391 42.861 -0.0400391 36.5127C-0.0400391 30.1645 4.96196 25.1025 11.235 25.1025C16.5037 25.1025 20.8759 28.6735 22.1407 33.5782C23.1582 29.6324 26.1868 26.5498 30.0754 25.4953C25.2655 24.1823 21.7714 19.7517 21.7714 14.4806C21.7714 8.1324 26.7734 3.07041 33.0464 3.07041C38.2878 3.07041 42.6418 6.60437 43.9322 11.4698C45.2225 6.60437 49.5765 3.07041 54.8179 3.07041C60.0867 3.07041 64.4588 6.6414 65.7236 11.5462ZM51.8469 25.4953C47.9858 24.4413 44.9726 21.3783 43.9341 17.4843C42.899 21.3975 39.8825 24.4505 36.0159 25.4985C39.8928 26.5594 42.8987 29.6537 43.9113 33.5818C44.9279 29.6343 47.9571 26.5501 51.8469 25.4953Z" fill="white"></path>
</g>
</g>
<defs>
<clipPath id="clip0_252_3572">
<rect width="246" height="48" fill="white"></rect>
</clipPath>
<clipPath id="clip1_252_3572">
<rect width="246" height="48.1304" fill="white"></rect>
</clipPath>
</defs>
</svg>
