<svg width="103" height="20" viewBox="0 0 103 20" fill="none" xmlns="http://www.w3.org/2000/svg">
<g clip-path="url(#clip0_131_1281)">
<path fill-rule="evenodd" clip-rule="evenodd" d="M98.457 0.431004H102.205C102.205 0.431004 102.205 13.6034 102.222 13.5862C102.222 16.431 101.49 20.0172 94.8281 20.0172C91.9148 20.0172 88.5755 18.3276 88.4733 15.4827L92.6304 15.2758C92.8348 16.431 93.7718 16.9655 95.237 16.9655C97.2133 16.9655 98.2526 15.9138 98.3548 13.9138V12.431C98.3548 12.431 97.4178 14.1207 94.1978 14.1207C89.9215 14.1207 87.8429 10.9655 87.8429 7.06893C87.8429 3.39652 90.2281 0.0172119 93.9763 0.0172119C97.52 0.0172119 98.457 2.01721 98.457 2.01721V0.431004ZM91.5911 6.96549C91.4718 8.96549 92.8348 10.9655 94.8111 10.9655C97.2133 10.9655 98.2526 9.17239 98.2696 7.27583C98.4741 5.06894 97.1111 3.17238 94.9304 3.17238C92.6304 3.17238 91.6933 5.17238 91.5911 6.96549ZM43.7 15.9138C40.3777 15.9138 37.0385 14.1379 37.0385 10.7586H37.0555V10.6207H40.5992C40.5992 12.3103 42.1496 13.0517 43.717 13.0517C44.3474 13.0517 46.3237 12.6207 46.3237 11.2586C46.3237 10.0817 45.4149 9.91482 42.4831 9.37652C42.2796 9.33916 42.0663 9.3 41.8429 9.2586C39.5429 8.8448 37.3622 7.79308 37.3622 5.25859C37.3622 1.67239 40.4799 0.310317 43.4955 0.310317C46.6303 0.310317 49.4414 1.56894 49.7481 5.15514H46.3066C46.3066 3.68963 44.8414 3.0517 43.4955 3.0517C42.2348 3.0517 40.9911 3.48273 40.9911 4.6379C40.9911 5.72473 42.4464 5.9501 44.0824 6.20344C44.6784 6.29573 45.2984 6.39173 45.8807 6.53445C48.3851 7.17238 50.157 8.22411 50.157 10.862C50.157 14.6551 46.3066 15.9138 43.7 15.9138ZM50.8044 15.1724H54.74V6.94825C54.74 4.41377 56.4096 3.89653 57.1422 3.89653C59.2207 3.89653 59.4252 5.68963 59.4252 7.27584V15.2758H63.3778V7.06894C63.3778 4.53446 64.8429 3.91377 65.78 3.91377C68.0629 3.91377 68.0629 5.70687 68.0629 7.29308V15.2931H72.0155V5.81032C72.0155 2.12067 69.937 0.655145 67.0237 0.655145C65.1496 0.655145 63.6844 1.81032 62.8666 3.08618C62.1341 1.39653 60.5837 0.655145 58.8118 0.655145C57.04 0.655145 55.5918 1.49998 54.6548 2.96549H54.5526V0.965493H50.8044V15.1724ZM79.7162 0.224111C84.9296 0.224111 87.3148 4.6379 87.0081 8.96549H76.5814C76.5814 10.6551 77.8422 12.3448 80.0229 12.3448C81.6925 12.3448 82.7318 11.0862 82.834 10.5517L86.6844 10.7586C85.6451 14.1379 83.1577 15.5 79.8185 15.5C75.2355 15.5 72.5266 12.0172 72.5266 7.91376C72.5266 3.91376 75.2355 0.224111 79.7162 0.224111ZM79.8185 3.27583C77.4333 3.27583 76.7007 5.58618 76.7007 6.12066H82.9362C82.9362 5.48273 82.1014 3.27583 79.8185 3.27583ZM27.3103 4.79827C27.8358 2.75993 29.6526 1.27584 31.8422 1.27584C34.4488 1.27584 36.5274 3.37929 36.5274 6.01722C36.5274 8.65515 34.4488 10.7586 31.8422 10.7586C29.6537 10.7586 27.8375 9.26378 27.3111 7.23324C26.8893 8.87377 25.6311 10.1558 24.0152 10.5948C26.0128 11.1375 27.4637 12.9684 27.4637 15.1724C27.4637 17.8103 25.3851 19.9138 22.7785 19.9138C20.589 19.9138 18.7721 18.4297 18.2466 16.3914C17.7212 18.4297 15.9043 19.9138 13.7148 19.9138C11.5261 19.9138 9.7217 18.4307 9.19938 16.3935C8.6732 18.4307 6.85683 19.9138 4.6681 19.9138C2.06143 19.9138 -0.0170898 17.8103 -0.0170898 15.1724C-0.0170898 12.5345 2.06143 10.431 4.6681 10.431C6.85765 10.431 8.67455 11.9151 9.19996 13.9535C9.62266 12.3136 10.8813 11.0325 12.4973 10.5942C10.4986 10.0486 9.04665 8.20757 9.04665 6.01722C9.04665 3.37929 11.1252 1.27584 13.7318 1.27584C15.9097 1.27584 17.7188 2.74412 18.2552 4.76567C18.7915 2.74412 20.6006 1.27584 22.7785 1.27584C24.968 1.27584 26.7849 2.75993 27.3103 4.79827ZM21.5439 10.5942C19.9396 10.1563 18.6876 8.88371 18.2559 7.2658C17.8257 8.89166 16.5723 10.1601 14.9658 10.5956C16.5766 11.0364 17.8256 12.322 18.2465 13.9541C18.669 12.3139 19.9277 11.0325 21.5439 10.5942Z" fill="black"></path>
</g>
<defs>
<clipPath id="clip0_131_1281">
<rect width="102.222" height="20" fill="white"></rect>
</clipPath>
</defs>
</svg>
