<svg viewBox="0 0 659 45" xmlns="http://www.w3.org/2000/svg"><g fill="#6a6a69" stroke="#6a6a69" stroke-miterlimit="13.09" stroke-width="1.31"><path d="m45.28 7.96c-3.55-3.25-8.18-5.06-12.99-5.09-11.19-.01-20.32 8.97-20.47 20.16 0 10.96 9.51 20.06 20.42 20.06 4.79-.05 9.4-1.78 13.04-4.88v-3.43c-3.4 3.68-8.14 5.83-13.15 5.98-4.72-.18-9.2-2.1-12.58-5.4-3.3-3.17-5.19-7.53-5.25-12.11.09-9.84 7.98-17.83 17.82-18.03 5.06.11 9.84 2.36 13.15 6.18v-3.43z"/><path d="m71.94 3.38h-2.5v39.19h12.48v-2.34h-9.98z"/><path d="m123.44 27.34h-15.33l7.69-18.92zm.93 2.34 5.25 12.89h2.55l-16.37-40.49-16.42 40.48h2.54l5.25-12.89h17.2z"/><path d="m156.02 21.67v-15.95h1.61c2.29 0 4.94-.1 7.02.88 2.67 1.32 4.3 4.09 4.16 7.07.06 2.37-.95 4.65-2.76 6.18-1.97 1.71-4.42 1.82-6.86 1.82zm4.05 2.34c6.5.1 11.22-3.43 11.22-10.24.18-3.29-1.31-6.45-3.95-8.42-2.65-1.92-5.77-1.97-8.94-1.97h-4.88v39.18h2.5v-18.55h1.25l12.78 18.55h2.86z"/><path d="m198.26 21.68v-18.3h-2.49v39.19h2.49v-17.67l1.05-1.04 18.81 18.71h3.27l-20.37-20.32 19.17-18.87h-3.32z"/><path d="m260.93 5.72v-2.34h-18.7v39.19h18.7v-2.34h-16.21v-17.93h15.8v-2.34h-15.8v-14.24z"/><path d="m328.75 20.74 9.87 13.35c-3.64 3.02-8.42 6.91-12.99 6.91-4.37-.09-7.84-3.71-7.75-8.08 0-.06 0-.12 0-.19 0-4.94 4.62-7.95 8.37-10.34l2.49-1.66zm16.26 21.83h2.7l-5.98-7.95 5.46-6.24-1.92-1.04-4.99 5.46-9.67-13.2c3.79-2.6 7.33-5.2 7.33-9.67.08-3.94-3.05-7.19-6.99-7.27-.04 0-.09 0-.13 0-4.17.01-7.57 3.36-7.64 7.53 0 3.38 2.29 6.03 4.11 8.58-5.35 3.38-11.9 7.38-11.9 14.24-.05 5.66 4.49 10.29 10.15 10.34h.09c5.09 0 10.08-3.59 14.45-7.28l4.94 6.5zm-14.34-37.58c2.66.02 4.8 2.2 4.78 4.86v.02c0 3.95-3.53 5.61-6.29 7.79-1.4-2.34-3.48-4.42-3.48-7.22-.07-2.86 2.13-5.27 4.99-5.46z"/><path d="m432.83 7.96c-3.55-3.25-8.18-5.06-12.99-5.09-11.19-.01-20.32 8.97-20.47 20.16 0 10.96 9.51 20.06 20.42 20.06 4.79-.05 9.4-1.77 13.04-4.88v-3.43c-3.4 3.68-8.14 5.83-13.15 5.98-4.72-.18-9.2-2.1-12.58-5.4-3.3-3.17-5.19-7.53-5.25-12.11.09-9.84 7.98-17.83 17.82-18.03 5.06.11 9.84 2.35 13.15 6.18v-3.43z"/><path d="m459.49 3.38h-2.49v39.19h12.47v-2.34h-9.98z"/><path d="m510.99 27.34h-15.33l7.69-18.92zm.93 2.34 5.25 12.89h2.55l-16.37-40.48-16.42 40.48h2.54l5.25-12.89z"/><path d="m543.57 21.67v-15.95h1.61c2.28 0 4.94-.1 7.02.88 2.67 1.32 4.3 4.09 4.16 7.07.06 2.37-.95 4.65-2.76 6.18-1.97 1.71-4.42 1.82-6.86 1.82zm4.05 2.34c6.5.1 11.23-3.43 11.23-10.24.18-3.29-1.31-6.45-3.95-8.42-2.65-1.92-5.77-1.97-8.94-1.97h-4.89v39.18h2.5v-18.55h1.25l12.78 18.55h2.86z"/><path d="m585.82 21.68v-18.3h-2.5v39.19h2.5v-17.67l1.04-1.04 18.81 18.71h3.27l-20.37-20.32 19.18-18.87h-3.33z"/><path d="m648.49 5.72v-2.34h-18.71v39.19h18.71v-2.34h-16.22v-17.93h15.8v-2.34h-15.8v-14.24z"/></g></svg>