<svg xmlns="http://www.w3.org/2000/svg" viewBox="0 0 65 30"><path d="M20.74,13.13l-.69.49a7,7,0,0,0,.47-.58C20.6,13.06,20.65,13.12,20.74,13.13Z" style="fill:#1d1d1b;fill-rule:evenodd;opacity:0.7000000000000001"/><path d="M21.33,13.23c-.07.11-.26.09-.43.09C21,13.23,21.19,13.13,21.33,13.23Z" style="fill:#1d1d1b;fill-rule:evenodd;opacity:0.7000000000000001"/><path d="M26.73,10a17.28,17.28,0,0,0-1.93.94.5.5,0,0,1,0,.29c.08,0,.1-.06.17-.06,0,.15-.08.28-.08.47.09,0,.13-.09.17-.07s-.07.41,0,.47-.08.26-.1.41a.1.1,0,0,0-.11.11s0,0,0,0a2,2,0,0,1,.24,0A1.87,1.87,0,0,1,24,13.72l-.15.13c-.05,0,0,0-.07,0s0,.17-.09.17c.11.11.33.1.32.33-.08.07-.26,0-.27.14s.21.17.29.26a2.05,2.05,0,0,1,.31.54.5.5,0,0,0-.26,0c0,.27.19.32.23.54a.17.17,0,0,0-.17,0,2.15,2.15,0,0,1,.12.56.11.11,0,0,1-.11,0c.12.27,0,.56-.09.8a1,1,0,0,0-.34-.38c-.06-.14-.1-.31-.26-.36-.11.25.05.5-.06.74-.06,0-.09-.07-.14-.09a1.85,1.85,0,0,1,0,.47.18.18,0,0,1-.06-.09,2.32,2.32,0,0,0-.26.6,2.16,2.16,0,0,1-.22-.36,5.58,5.58,0,0,0-.1.59s0,0-.05,0,0,.2-.06.34c-.05,0-.06,0-.09,0a.59.59,0,0,1-.2.3,1.19,1.19,0,0,0-.19-.33,2.46,2.46,0,0,0-.06.53s-.07-.05-.12,0a2.38,2.38,0,0,0-.05.26c-.14.06-.17.22-.27.32-.09-.08-.12-.2-.2-.28,0,.16-.07.32-.11.48s-.06,0-.12,0c.06.22-.12.35-.17.56a.39.39,0,0,1-.08-.25,1.21,1.21,0,0,0-.2.41.46.46,0,0,0-.16.28c-.06-.06-.06-.18-.14-.21,0,.26-.26.55-.29.82,0,0,0-.09-.11-.07-.12.21-.22.45-.35.65-.05,0-.07-.06-.16,0s0,0,0,.08a2.74,2.74,0,0,1-.88.91,1.5,1.5,0,0,1-.65.34c.06-.2.31-.26.48-.41s.25-.38.46-.48c0,0,0,0-.08,0A1.37,1.37,0,0,1,19,22.1c-.06-.17.15-.3.25-.4s-.11,0-.12,0c.11-.2.26-.38.37-.59,0,0-.08,0-.11,0a7.88,7.88,0,0,0,.38-.77c0-.06-.21,0-.27,0a6.12,6.12,0,0,0,.38-.77,2.13,2.13,0,0,0-.43,0,3.22,3.22,0,0,0,.47-.88c-.1-.09-.35,0-.5.05,0-.14.15-.27.14-.41s.15-.17.2-.28.1-.31.15-.47a2.33,2.33,0,0,1-.57,0s.11-.17.12-.26,0,0,0,0,.16-.15.2-.25-.06-.09-.11-.06a1.89,1.89,0,0,1,.32-.37c-.1-.05-.34,0-.5,0,.09-.11.1-.3.2-.4s-.09,0-.08-.08.2-.22.35-.27c0-.06-.09-.05-.11-.11.18,0,.28-.15.45-.2a.28.28,0,0,0-.15-.08c.13-.21.46-.23.59-.44a.49.49,0,0,0-.43,0s0-.07,0-.09a3.53,3.53,0,0,1-.46,0c.24-.19.29-.58.7-.61,0,0-.07-.1-.13-.11.15-.07.28-.22.49-.2a.29.29,0,0,0-.08-.21c.14-.05.2-.18.38-.19a3.31,3.31,0,0,1-.26-.27,15.65,15.65,0,0,0-2.11,1.67A11.53,11.53,0,0,0,18,16c.09.05.14,0,.23-.06a.48.48,0,0,1,.43.23c.08,0,.09.05.16.06a1,1,0,0,0,.21.28c-.06,0-.12,0-.15.08s.17.21.17.41a1.56,1.56,0,0,1,.18.34c-.05,0-.09-.05-.12,0a1.24,1.24,0,0,1-.05,1.2,2.81,2.81,0,0,0-.35-.48,3.71,3.71,0,0,1-.15.4s0,.06.06.11c-.06.42.1,1.06-.26,1.27-.08-.12-.23-.18-.26-.35a6,6,0,0,1-.4,1.22c-.07-.08-.16-.14-.23-.23-.07.4-.35.58-.52.88-.07-.12-.16-.13-.23-.23-.15.31-.32.6-.49.88-.11-.07-.18-.17-.28-.24,0,.39-.26.57-.41.83l-.22-.29c-.06.1,0,.31-.07.41s-.14.4-.25.55a1.3,1.3,0,0,1-.23-.18c-.13.17-.06.55-.31.61,0,.25-.19.41-.21.63s.12.46,0,.67a1.85,1.85,0,0,1-.23-1.71s-.06,0-.1,0c.06-.25.24-.47.19-.78,0,0-.09,0-.12,0,.2-.19.13-.57.29-.79,0-.05-.15-.08-.17,0,0-.21.19-.42.21-.69a.39.39,0,0,0-.26,0,4.1,4.1,0,0,1,.52-.86c0-.08,0-.17-.12-.21a.2.2,0,0,0-.14,0c.16-.41.66-.69.72-1.2,0,0-.12,0-.18,0a4.33,4.33,0,0,0,.44-.79,1.56,1.56,0,0,0,.54-.88,1.78,1.78,0,0,1-.28,0,2.22,2.22,0,0,1,.42-.89c.08-.21.17-.42.41-.47,0-.14.29-.07.37-.17s0-.12-.08-.12c.52-.1,1.07,0,1.14.49.21-.14.28-.42.42-.63a5.53,5.53,0,0,0-1.45,0,12.18,12.18,0,0,0-1.33.08c-.09.16.14.24.2.46,0,.05,0,.11,0,.17a.81.81,0,0,1-.11.79c-.07,0-.13-.1-.2-.14-.1.36-.37.55-.44.94,0-.08-.09-.14-.14-.22a1.53,1.53,0,0,0-.44.59c-.06,0-.07-.05-.08-.1-.18.12-.31.28-.49.39a0,0,0,0,0,0-.06,1.8,1.8,0,0,1-.68.33c.11-.19.09-.52.19-.73-.1,0-.11.1-.23.07a4.41,4.41,0,0,1-1.37.69c.08-.11,0-.26.14-.35-.07-.08,0-.14,0-.24-.45.08-.79.42-1.32.41a.7.7,0,0,0,.14-.46.42.42,0,0,0,.09-.14.89.89,0,0,1-.43.08c-.18,0-.36.17-.56.12.07-.08.06-.25.13-.34-.2,0-.47.05-.72.05a3,3,0,0,0,.08-.32c-.26,0-.67.08-.93-.06a.8.8,0,0,1,.21-.2c-.27-.05-.49,0-.78,0,0-.07,0-.14.09-.22A1.38,1.38,0,0,1,7,17a.15.15,0,0,1,0-.1,1.17,1.17,0,0,1-.71-.05c-.33,0-.69,0-1,0-.17,0-.38,0-.46-.15.36-.11.7,0,1-.14.54,0,1-.19,1.54-.14a.18.18,0,0,0-.06-.14,5.65,5.65,0,0,0,.85-.1c0-.07-.09-.08-.09-.16.17-.18.58-.11.8-.24,0-.1-.09-.16-.12-.25a2,2,0,0,1,.91-.13c0-.15-.17-.23-.19-.4H9.44a8.37,8.37,0,0,1,1.15-.17c-.09-.07-.14-.17-.23-.23s.07,0,.08,0-.07-.15-.12-.2a.76.76,0,0,1,.33-.05s0,0,0-.07c.24.13.56,0,.87,0-.06-.09-.09-.19-.2-.23s.07,0,.08,0-.07-.17-.11-.24a1.12,1.12,0,0,1,.87.09c0-.06,0-.06,0-.11a3.91,3.91,0,0,1,.71.21c0-.07-.07-.22-.14-.29s0,0,0,0a1,1,0,0,1-.12-.29,1.62,1.62,0,0,1,1.26.46c.43,0,.59.47,1,.55,0,0,.15,0,.13,0a1.07,1.07,0,0,1,.3.33,2.19,2.19,0,0,1,.09.68c.6,0,1.4,0,2.09-.06a2.36,2.36,0,0,0,1-.19c.06,0,.07-.1.12-.15a10.39,10.39,0,0,0,1-.87c-.19,0-.31.19-.48.29a2.59,2.59,0,0,0-.38.17.48.48,0,0,1,0-.17,2.47,2.47,0,0,1-.68.3s.06,0,.05-.1-.27.11-.48.07c0,0,.09,0,.1-.07a1.76,1.76,0,0,1-.49-.11c.22-.06.15-.41.38-.46-.12-.16-.4,0-.64,0,0,0,0,0-.05-.06a3.16,3.16,0,0,0-.57.17.19.19,0,0,0,.05-.13c-.28.12-.54-.06-.81,0,0-.06.12-.14.18-.19s.11-.25.22-.33a9,9,0,0,0-1,0c-.18,0-.29-.14-.46-.14a.76.76,0,0,0,.32-.32.6.6,0,0,0-.4-.09s-.05,0,0-.08c-.26.05-.35-.14-.55-.09.12-.12.19-.3.33-.4-.16-.09-.46,0-.52-.23-.13,0-.16-.13-.3-.14,0-.11.16-.16.21-.27a.38.38,0,0,0-.38-.1s0,0,0-.09a1.19,1.19,0,0,1-.51-.27c.12,0,.15-.14.25-.19a.67.67,0,0,0-.45-.13.1.1,0,0,1,0,0,1.83,1.83,0,0,0-.42-.21c.05,0,.13,0,.14-.12a4.9,4.9,0,0,0-.61-.28.38.38,0,0,1,.15-.09A1.1,1.1,0,0,0,11,9.78c-.08,0,.06,0,0-.11-.22-.14-.53-.18-.76-.31,0,0,0,0,0,0a1.18,1.18,0,0,0-.58-.25s0,0,0-.1c-.27,0-.4-.2-.68-.22,0,0,.05,0,.06-.06a1,1,0,0,1-.56-.52c.28,0,.41.23.64.32.05-.08.28.11.35.2s.05,0,.05-.06.28.13.4.21,0-.05,0,0a5.42,5.42,0,0,1,.6.26c.06,0,0-.06,0-.06a1.16,1.16,0,0,1,.52.21,1.93,1.93,0,0,1,.48,0c.21,0,.4.16.58.12a1.18,1.18,0,0,0,.4.14s0-.07,0-.12a.58.58,0,0,0,.34.11c.12,0,.19.13.37.12,0-.06,0-.13-.06-.15a2.4,2.4,0,0,1,.87.32c.05-.13,0-.26,0-.37.13.1.32.06.44.18.22,0,.32.14.49.19a2.18,2.18,0,0,0-.14-.6c.12,0,.32.15.43.09.25.14.49.29.75.42a1.17,1.17,0,0,0,0-.46c.08,0,.2.15.3.07a.91.91,0,0,1,.28.23c.05,0,0-.11,0-.18a.7.7,0,0,1,.28.4.48.48,0,0,0,.09-.19c.14.18.24.4.46.49a1.4,1.4,0,0,0-.12-.67c.14.08.36.08.41.26.33.25.68.48,1,.75a1.44,1.44,0,0,0-.28-.4s.1,0,.11-.06a.71.71,0,0,1-.19-.55A2.84,2.84,0,0,0,19,9.5c0-.19-.25-.22-.37-.33s.1,0,.11-.05-.22-.15-.31-.25-.13-.31-.11-.46a.81.81,0,0,0,.53.08c0-.24-.29-.23-.37-.41-.06,0-.07-.05-.12-.05s0-.06,0-.09c-.14-.18-.43-.35-.33-.67a.62.62,0,0,1,.26.06A.61.61,0,0,0,18,6.88c.05-.21-.19-.53.08-.63,0-.24-.1-.54,0-.79h.08A1.07,1.07,0,0,0,18.22,5s0,0,.05,0a2.24,2.24,0,0,1,.38-.7,6.85,6.85,0,0,0-.11.7s.07,0,.11,0,0,.14,0,.24.05,0,.09,0c0,.22.13.27.15.45.09,0,.07-.1.15-.11a2.12,2.12,0,0,0,.39.78,1.8,1.8,0,0,0,.11-.2c.22,0,.26.28.36.45.05,0,0-.07.06-.09a3.11,3.11,0,0,1,.4.69c.06,0,0-.18.06-.25.1.23.42.22.52.43A.34.34,0,0,0,21,7.28c.11.14.12.36.25.48s.1-.08.15-.13a10.37,10.37,0,0,1,.35,1A.4.4,0,0,0,22,8.4l.15.11s0,0,.06-.06c.13.15.15.42.34.52a.31.31,0,0,0,.27.27,4.86,4.86,0,0,0,.19.61c.13-.19.21-.43.35-.62-.06.18.19.3.29.43s.13.29.23.41,0,.13,0,.18.11-.08.18-.1c0,.3.2.57.13.85.23,0,.34-.28.44-.47,0,.06.05.15.09.21.61-.3,1.22-.61,1.8-1a1,1,0,0,0,.26.19Zm-6.21,3a7,7,0,0,1-.47.58l.69-.49C20.65,13.12,20.6,13.06,20.52,13Zm.38.28c.17,0,.36,0,.43-.09C21.19,13.13,21,13.23,20.9,13.32Z" style="fill:#1d1d1b;fill-rule:evenodd;opacity:0.7000000000000001"/><path d="M33.41,7.54h.84v7.05h-.86v-7S33.39,7.54,33.41,7.54Z" style="fill:#1d1d1b;fill-rule:evenodd;opacity:0.7000000000000001"/><path d="M32.32,8.09c-.08.23-.15.46-.22.69a3.19,3.19,0,0,0-1.51-.27,2.39,2.39,0,0,0-2.35,1.9,3,3,0,0,0,.86,3.11,3.37,3.37,0,0,0,3,.2c.06.22.1.46.17.67a4.75,4.75,0,0,1-2.11.31,3,3,0,0,1-2.76-2.13,4.63,4.63,0,0,1-.17-1.44,3.31,3.31,0,0,1,.91-2.32,3.48,3.48,0,0,1,2.25-1A4.07,4.07,0,0,1,32.32,8.09Z" style="fill:#1d1d1b;fill-rule:evenodd;opacity:0.7000000000000001"/><path d="M44.18,7.92c.83-.09.73,1.31-.14,1a.57.57,0,0,1-.17-.9A.52.52,0,0,1,44.18,7.92Z" style="fill:#1d1d1b;fill-rule:evenodd;opacity:0.7000000000000001"/><path d="M39.15,14.59H38.4c0-.21,0-.41-.08-.61-.13.06-.18.2-.29.29a1.89,1.89,0,0,1-1.45.43,1.33,1.33,0,0,1-1.23-1.35c0-1.43,1.45-1.79,2.88-1.81a1.09,1.09,0,0,0-.35-1,2.11,2.11,0,0,0-2,.14c0-.2-.13-.38-.18-.57a2.82,2.82,0,0,1,2.85,0C39.46,10.87,38.92,13.08,39.15,14.59Zm-2.57-2.12a1,1,0,0,0-.23,1.29c.46.65,1.65.22,1.88-.47a4.26,4.26,0,0,0,0-1.15A2.92,2.92,0,0,0,36.58,12.47Z" style="fill:#1d1d1b;fill-rule:evenodd;opacity:0.7000000000000001"/><path d="M42.87,9.72c0,.25,0,.59,0,.79a1.3,1.3,0,0,0-1,.25c-.77.66-.38,2.47-.48,3.83h-.84c0-1.59,0-3.3,0-4.8a5.77,5.77,0,0,1,.73,0c0,.32,0,.66.05.95a1.9,1.9,0,0,0,.2-.34A1.35,1.35,0,0,1,42.87,9.72Z" style="fill:#1d1d1b;fill-rule:evenodd;opacity:0.7000000000000001"/><path d="M48.74,10c-.07.19-.12.4-.2.59a1.89,1.89,0,0,1-.34-.14c-.41-.16-1.08-.19-1.34.18a.73.73,0,0,0,.3,1,5.87,5.87,0,0,1,1.41.73,1.27,1.27,0,0,1,.35.88c0,1.48-1.9,1.8-3.09,1.13.05-.21.12-.4.18-.6.48.29,2,.61,2.09-.26a.8.8,0,0,0-.22-.7c-.64-.43-1.66-.58-1.9-1.38a1.5,1.5,0,0,1,0-.49,1.44,1.44,0,0,1,1.49-1.21A2.24,2.24,0,0,1,48.74,10Z" style="fill:#1d1d1b;fill-rule:evenodd;opacity:0.7000000000000001"/><path d="M52.68,10c-.08.2-.13.41-.2.62-.42-.34-1.59-.46-1.76.18-.22.79.74,1,1.21,1.18a1.77,1.77,0,0,1,.73.57,1.42,1.42,0,0,1-.23,1.73,2.59,2.59,0,0,1-2.68.1c.07-.2.13-.41.2-.61.58.34,2.25.64,2.08-.57-.06-.5-.64-.63-1.1-.84s-1.26-.75-1-1.62a1.49,1.49,0,0,1,1.44-1A2.2,2.2,0,0,1,52.68,10Z" style="fill:#1d1d1b;fill-rule:evenodd;opacity:0.7000000000000001"/><path d="M57.43,14.59h-.74c0-.18,0-.42-.09-.61-.13.06-.19.2-.29.29a1.88,1.88,0,0,1-1.38.43,1.35,1.35,0,0,1-1.3-1.38,1.53,1.53,0,0,1,.14-.66,2.45,2.45,0,0,1,2.14-1.09c.2,0,.41,0,.61,0a1.16,1.16,0,0,0-.33-1,2,2,0,0,0-2,.14,3.49,3.49,0,0,1-.2-.57,3.53,3.53,0,0,1,1.46-.4,1.78,1.78,0,0,1,1.51.54C57.71,11.15,57.18,13.13,57.43,14.59Zm-2.74-1.95a1,1,0,0,0,0,1.2,1,1,0,0,0,.51.23c1,.1,1.52-.76,1.33-1.92A2.38,2.38,0,0,0,54.69,12.64Z" style="fill:#1d1d1b;fill-rule:evenodd;opacity:0.7000000000000001"/><path d="M43.84,9.79h.81c0,1.57,0,3.24,0,4.8h-.83V9.84S43.82,9.8,43.84,9.79Z" style="fill:#1d1d1b;fill-rule:evenodd;opacity:0.7000000000000001"/><path d="M39.2,15.23H40c0,2.32,0,4.75,0,7.07a8.1,8.1,0,0,1-.86,0C39.19,19.94,39.16,17.55,39.2,15.23Z" style="fill:#1d1d1b;fill-rule:evenodd;opacity:0.7000000000000001"/><path d="M27.25,15.6a8.29,8.29,0,0,1,.87,0V18.4h3.23c0-.93,0-1.9,0-2.8a8.1,8.1,0,0,1,.86,0c0,2.22,0,4.48,0,6.68a8.1,8.1,0,0,1-.86,0V19.15H28.12c0,1.05,0,2.13,0,3.15a7.85,7.85,0,0,1-.85,0Z" style="fill:#1d1d1b;fill-rule:evenodd;opacity:0.7000000000000001"/><path d="M42.69,22.4h-.26a2.66,2.66,0,0,1-1.23-.35c.08-.21.14-.44.22-.64a2,2,0,0,0,1.71.23.72.72,0,0,0,.33-.88c-.14-.37-.64-.51-1-.69-.55-.24-1.1-.56-1.1-1.28,0-1.13,1.17-1.61,2.31-1.32.14,0,.48.1.5.23s-.06.22-.09.31-.07.2-.1.3c-.37-.27-1.31-.46-1.64,0a.64.64,0,0,0-.1.64c.12.3.48.42.82.56.68.27,1.41.65,1.3,1.67C44.24,22,43.57,22.31,42.69,22.4Z" style="fill:#1d1d1b;fill-rule:evenodd;opacity:0.7000000000000001"/><path d="M49.35,19.4v.49s0,.12,0,.15H46a1.73,1.73,0,0,0,.45,1.24,2.5,2.5,0,0,0,2.52.19c.07.2.11.43.17.63a4.51,4.51,0,0,1-1.41.3h-.36A2.24,2.24,0,0,1,45.11,20a2.4,2.4,0,0,1,2-2.64,2.51,2.51,0,0,1,1.08.11A2.07,2.07,0,0,1,49.35,19.4ZM47.18,18c-.76.06-1.1.67-1.21,1.4h2.54C48.49,18.54,48.06,17.93,47.18,18Z" style="fill:#1d1d1b;fill-rule:evenodd;opacity:0.7000000000000001"/><path d="M35.49,22.4h-.31c-2-.11-1.4-2.85-1.5-4.91a8.23,8.23,0,0,1,.87,0c.06.94-.06,2,0,2.94.06.74.43,1.34,1.26,1.23a1.29,1.29,0,0,0,1-1.17c.07-.92-.06-2.1,0-3h.86c0,1.6,0,3.32,0,4.82H37c0-.27,0-.51-.05-.79A1.91,1.91,0,0,1,35.49,22.4Z" style="fill:#1d1d1b;fill-rule:evenodd;opacity:0.7000000000000001"/></svg>