<svg xmlns="http://www.w3.org/2000/svg" viewBox="0 0 65 30"><path d="M62.11,14.22v2.07c0,.42,0,.48-.6.51v.32l1.2,0,1.33,0V16.8c-.72,0-.79,0-.79-.51v-1c0-.91.39-1.53.84-1.58a.91.91,0,0,0-.09.37.48.48,0,0,0,.51.54.5.5,0,0,0,.49-.54.67.67,0,0,0-.75-.69,1.18,1.18,0,0,0-1.08.92l0-.92c-.53.05-1.1.08-1.68.1v.32c.51,0,.6.05.6.43m-.41.95v-.1a1.65,1.65,0,0,0-1.81-1.7,1.84,1.84,0,0,0-2,1.92,1.82,1.82,0,0,0,2,1.9A1.61,1.61,0,0,0,61.7,16L61.43,16a1.18,1.18,0,0,1-1.15.8c-.74,0-1.16-.5-1.16-1.48v-.08Zm-1.05-.33-1.53,0c0-.77.32-1.18.8-1.18s.73.37.73,1.15m-4-2.48a1.75,1.75,0,0,1-1.25,1.26v.27h.41l0,1.94v.11c0,.83.27,1.25,1.11,1.25a1.11,1.11,0,0,0,1.18-.76l-.25-.11c-.11.26-.26.38-.48.38s-.43-.19-.43-.58V16L57,13.89h.93v-.34H57l0-1.19Zm-2.8,3v.88a.93.93,0,0,1-.76.49c-.29,0-.47-.22-.47-.56,0-.5.38-.66,1.24-.81M55,14.57h0c0-.79-.52-1.19-1.55-1.19s-1.73.47-1.73,1a.43.43,0,0,0,.45.46.53.53,0,0,0,.54-.59,1.28,1.28,0,0,0-.06-.35,1,1,0,0,1,.61-.17c.47,0,.63.24.63.77v.44c0,.21-.16.17-.8.29-1,.2-1.55.42-1.55,1.1s.37.89,1,.89a1.67,1.67,0,0,0,1.38-.61c0,.39.29.61.75.61a1.13,1.13,0,0,0,1.07-.59l-.19-.15a.37.37,0,0,1-.31.19c-.27,0-.27-.2-.27-.58Zm-9.36-1.13v.32h0c.28,0,.35.11.43.35l1,3,.68.05c.21-.49.33-.77.36-.86l.73-1.85.78,2.66.68.05c.19-.51.34-.9.43-1.16l.68-1.88c.1-.28.19-.39.47-.39v-.32l-.63,0-.58,0v.32c.29,0,.4,0,.4.2a.59.59,0,0,1,0,.21l-.66,2-.58-2a.54.54,0,0,1,0-.2c0-.15.06-.16.35-.2v-.32l-.92,0-.93,0v.32c.28,0,.39.06.39.2a.79.79,0,0,1-.06.25l-.72,1.94-.63-2a1.15,1.15,0,0,1,0-.16c0-.19.11-.22.43-.23v-.32l-1,0c-.26,0-.6,0-1,0m.3,1.73v-.1a1.65,1.65,0,0,0-1.82-1.7,1.83,1.83,0,0,0-2,1.92,1.82,1.82,0,0,0,2,1.9A1.59,1.59,0,0,0,45.91,16L45.65,16a1.18,1.18,0,0,1-1.15.8c-.75,0-1.16-.5-1.16-1.48v-.08Zm-1.05-.33-1.53,0c0-.77.31-1.18.79-1.18s.73.37.74,1.15M39.41,17.4c1.38.14,2.13-.06,2.13.51,0,.38-.49.64-1.31.64s-1.18-.25-1.18-.67a.5.5,0,0,1,.36-.48m.78-3.72c.43,0,.62.31.62,1s-.19.93-.62.93-.62-.31-.62-1,.19-.92.62-.92m2.2-.35a.68.68,0,0,0-.29-.05,1,1,0,0,0-.78.44,1.81,1.81,0,0,0-1.13-.35c-1,0-1.62.53-1.62,1.3a1.05,1.05,0,0,0,.79,1c-.45.2-.66.43-.66.77s.18.54.55.71c-.5.14-.76.43-.76.81s.57.88,1.66.88c1.41,0,2.24-.57,2.24-1.38s-.67-1-1.88-1c-.74,0-1.11-.05-1.11-.37s.14-.25.41-.25h.33c1,0,1.66-.5,1.66-1.24a1.12,1.12,0,0,0-.28-.76c.07-.1.13-.14.2-.14s.3.14.46.14.25-.11.25-.33a.57.57,0,0,0,0-.22M37,14.27v2.05a.87.87,0,0,1-.7.38c-.53,0-.79-.47-.79-1.4s.25-1.46.79-1.46a.75.75,0,0,1,.7.43m0-2v1.53A1.28,1.28,0,0,0,36,13.37c-1,0-1.64.75-1.64,2A1.63,1.63,0,0,0,36,17.19a1.27,1.27,0,0,0,1.1-.51v.51l1.61-.07V16.8c-.48,0-.5-.09-.5-.49V11.46q-.91.07-1.77.09v.33c.5,0,.62,0,.62.4m-4.87,1.51c.55,0,.65,0,.65.43v2.07c0,.44,0,.48-.66.51v.32l1.26,0,1.12,0V16.8c-.57,0-.58-.09-.58-.51V13.37c-.58.05-1.19.08-1.79.1Zm1.21-2.12a.75.75,0,0,0-.7.7.48.48,0,0,0,.51.51.76.76,0,0,0,.73-.68.48.48,0,0,0-.54-.53m-3.69,2.55v2.07c0,.42,0,.48-.59.51v.32l1.19,0,1.34,0V16.8c-.73,0-.8,0-.8-.51v-1c0-.91.39-1.53.85-1.58a.79.79,0,0,0-.1.37.48.48,0,0,0,.52.54.49.49,0,0,0,.48-.54.67.67,0,0,0-.75-.69,1.17,1.17,0,0,0-1.07.92v-.92c-.53.05-1.09.08-1.68.1v.32c.51,0,.6.05.6.43m-3.43.3h.5c.76,0,1.11.26,1.11,1.05s-.29,1.17-1.15,1.17h-.46Zm0-2.48h.38c.74,0,1.07.2,1.07,1s-.3,1.08-1,1.08h-.45Zm-1.89-.38V12c.57,0,.65.1.65.66V16.1c0,.57-.08.67-.65.67v.35l1.15,0c.56,0,1.08,0,1.57,0,1.42,0,2.12-.38,2.12-1.45,0-.79-.58-1.27-1.72-1.34,1-.09,1.5-.53,1.5-1.34s-.64-1.33-1.92-1.33c-.19,0-.73,0-1.62,0q-.55,0-1.08,0M21,15.35v.88a.92.92,0,0,1-.75.49c-.3,0-.48-.22-.48-.56,0-.5.38-.66,1.24-.81m1.12-.78h0c0-.79-.53-1.19-1.56-1.19s-1.73.47-1.73,1a.43.43,0,0,0,.45.46.53.53,0,0,0,.54-.59,1.28,1.28,0,0,0-.06-.35,1,1,0,0,1,.61-.17c.47,0,.63.24.63.77v.44c0,.21-.16.17-.79.29-1,.2-1.56.42-1.56,1.1s.38.89,1,.89a1.67,1.67,0,0,0,1.38-.61c0,.39.29.61.75.61a1.13,1.13,0,0,0,1.07-.59l-.19-.15a.37.37,0,0,1-.31.19c-.26,0-.27-.2-.27-.58Zm-9.88-.35v2.07c0,.43,0,.46-.6.51v.32l1.1,0,1.06,0V16.8c-.47,0-.47-.11-.47-.51V14.73a.93.93,0,0,1,.86-.79q.54,0,.54.69v1.66c0,.42,0,.47-.54.51v.32l1.07,0,1,0V16.8c-.47,0-.47-.12-.47-.51V14.73a.93.93,0,0,1,.86-.79c.37,0,.53.23.53.69v1.66c0,.42,0,.47-.54.51v.32l1.08,0,1,0V16.8c-.45,0-.46-.1-.46-.48V14.65c0-.84-.41-1.28-1.16-1.28a1.53,1.53,0,0,0-1.37.82c-.07-.54-.46-.82-1.11-.82a1.63,1.63,0,0,0-1.38.82v-.82c-.5.05-1.06.08-1.67.1v.32c.51,0,.6.05.6.43m-6.9,0v2.07c0,.43,0,.46-.59.51v.32l1.09,0,1.06,0V16.8c-.46,0-.46-.11-.46-.51V14.73a.92.92,0,0,1,.85-.79c.37,0,.54.23.54.69v1.66c0,.42,0,.47-.54.51v.32l1.07,0,1,0V16.8c-.47,0-.47-.12-.47-.51V14.73a.93.93,0,0,1,.86-.79c.37,0,.53.23.53.69v1.66c0,.42,0,.47-.54.51v.32l1.07,0,1,0V16.8c-.46,0-.47-.1-.47-.48V14.65c0-.84-.4-1.28-1.15-1.28a1.53,1.53,0,0,0-1.37.82c-.08-.54-.47-.82-1.11-.82a1.63,1.63,0,0,0-1.38.82v-.82c-.51.05-1.06.08-1.68.1v.32c.51,0,.6.05.6.43m-.8-2.59L1,11.66H0V12c.57,0,.65.1.65.66V16.1c0,.57-.09.67-.65.67v.35H4.85c0-.54.05-1.09.09-1.64H4.61c-.1,1-.39,1.28-1.32,1.28H1.91V14.41h.47c.58,0,.73.22.76,1h.33c0-.45,0-.83,0-1.12s0-.64,0-1.07H3.14c-.05.79-.16.84-.76.84H1.91V12H3.05c.88,0,1.17.2,1.25,1.09h.33c0-.53-.07-1-.09-1.49" style="fill:#1d1d1b;opacity:0.7000000000000001"/></svg>