<svg xmlns="http://www.w3.org/2000/svg" viewBox="0 0 65 30"><g style="opacity:0.7000000000000001"><path d="M5.57,14.86c0-.16-.07-.18-.31-.18H1.68c-.23,0-.28,0-.28.18v2c0,.39.06.64.45.75.12,0,.2,0,.2.09s0,.07-.06.07a6.17,6.17,0,0,0-1-.08c-.5,0-.8.05-.88.05h0a.06.06,0,0,1,0-.06c0-.12.29-.05.49-.2s.24-1.11.24-3c0-.19,0-.78,0-1.78V12.6c0-.48,0-.71-.21-.86s-.44-.06-.44-.18,0-.06.09-.06.51.05,1.27.05c.37,0,.58,0,.63,0s.08,0,.08.07-.37.05-.56.23a.63.63,0,0,0-.15.42c0,.43-.06.88-.06,1.28,0,.22,0,.41,0,.59v.08c0,.14,0,.18.33.18H5.25c.21,0,.32,0,.32-.21V12.44c0-.42-.05-.62-.29-.74s-.35-.06-.35-.12,0-.09.05-.09a8.87,8.87,0,0,0,.9.07c.44,0,.75-.06.91-.06s.07,0,.07.06-.25.06-.43.29A9.83,9.83,0,0,0,6.24,15V16c0,.86,0,1.29.23,1.46s.4.07.4.19,0,.07-.07.07A6.5,6.5,0,0,0,6,17.67c-.48,0-.8.08-1,.08s-.09,0-.09-.08.24-.05.43-.21.26-.67.26-1.61c0-.28,0-.58,0-.93Z" style="fill:#1d1d1b"/><path d="M12.28,15.64c0-.12-.12-.12-.21-.12H10.13c-.12,0-.18,0-.23.15l-.44,1.2a1,1,0,0,0-.06.31c0,.46.75.37.75.52s0,.07-.1.07H9.87c-.13,0-.38-.07-.76-.07s-.55.06-.67.06a.07.07,0,0,1-.06-.06c0-.08.13-.06.31-.18s.64-1.07,1.26-2.63c.94-2.37,1.23-3.39,1.32-3.39s.1.19.23.56c.51,1.41,1.12,2.9,1.8,4.52.22.54.35.82.66.94.15.06.23,0,.23.1s0,.06-.08.06-.29,0-.71,0-.72.07-.87.07h-.07c-.06,0-.09,0-.09-.05s.47,0,.47-.4a.79.79,0,0,0-.05-.24Zm-1.21-2.87s-.06,0-.08.07l-.87,2.29a.43.43,0,0,0,0,.1c0,.07,0,.07.1.07h1.86s0,0,0-.06a.23.23,0,0,0,0-.11l-.92-2.25C11.12,12.81,11.1,12.77,11.07,12.77Z" style="fill:#1d1d1b"/><path d="M21.24,17.56c.49.31.7.21.7.33s0,.07-.09.07h-.24c-1.1,0-2.21-1.07-3.45-3.21H18a6.32,6.32,0,0,1-.9-.07c0,.21,0,.43,0,.62v.51c0,1.08,0,1.57.21,1.67s.51.08.51.22,0,.08,0,.08a7.11,7.11,0,0,0-1-.11,4.42,4.42,0,0,0-.88.1s0,0,0-.08.09-.07.3-.15.34-.51.34-1.25v-2c0-1.56,0-2.34-.21-2.48s-.51-.05-.51-.19a.08.08,0,0,1,.09-.09c.08,0,.3,0,.64,0,.52,0,1.07-.13,1.64-.13,1.27,0,2.08.7,2.08,1.71a1.58,1.58,0,0,1-1.27,1.48A8.77,8.77,0,0,0,21.24,17.56Zm-3.36-3c1,0,1.6-.51,1.6-1.3a1.48,1.48,0,0,0-1.56-1.6q-.69,0-.75.3c0,.18-.06,1-.07,2.49A2.94,2.94,0,0,0,17.88,14.54Z" style="fill:#1d1d1b"/><path d="M27,17.67c-2,0-3.08,0-3.22,0s-.09,0-.09-.06.12-.06.37-.16.28-.34.28-.94c0-.33,0-.78,0-1.38a16.49,16.49,0,0,0-.14-3.3c-.13-.24-.54-.14-.54-.23s0-.09.08-.09.34,0,.8,0,1-.07,1.17-.07a.08.08,0,0,1,.06.07c0,.12-.32,0-.59.18s-.19.57-.19,1.48v.86c0,1.84,0,2.86.06,3s.23.28.89.28A3.65,3.65,0,0,0,28.14,17c.19-.24.14-.54.28-.54s.09,0,.09.09a7.3,7.3,0,0,1-.35,1.24A5,5,0,0,0,27,17.67Z" style="fill:#1d1d1b"/><path d="M34.46,12.68s-.1,0-.1-.07a2.27,2.27,0,0,0,.06-.41c0-.33-.43-.45-1.58-.45a7.76,7.76,0,0,0-1.24.1c-.05.76-.07,1.49-.07,2.2v.17c0,.19,0,.21.45.21h.46c.86,0,1.34,0,1.52-.18s.14-.49.26-.49.06,0,.06.07-.06.42-.06.78.05.67.05.79,0,.12-.07.12-.05-.15-.13-.42-.38-.44-1.38-.44h-.55c-.59,0-.61,0-.61.25v.6c0,.49,0,1.11,0,1.86a8.48,8.48,0,0,0,1.22.1c1.09,0,1.67-.18,2-.78.15-.24.15-.4.23-.4s.06,0,.06.06a4.16,4.16,0,0,1-.42,1.36c-.92,0-1.63,0-2.11,0-1.52,0-2.24.09-2.33.09s-.1,0-.1-.07.42-.09.55-.25a16.94,16.94,0,0,0,.17-3.59v-.94c0-.72,0-1-.28-1.14s-.39-.07-.39-.17,0-.06.09-.06.37,0,1,0c.22,0,1.38,0,3.48,0C34.55,12.23,34.61,12.68,34.46,12.68Z" style="fill:#1d1d1b"/><path d="M40.42,17.77h-.27a3.1,3.1,0,0,1-3-3.2,3.14,3.14,0,0,1,3.15-3.13,3.09,3.09,0,0,1,3.17,3.15,3.09,3.09,0,0,1-2.1,3m-3.58-3.39a3.65,3.65,0,0,0,.69,2.09,2.71,2.71,0,0,0,2.14,1.16A2.25,2.25,0,0,0,42.83,15a3,3,0,0,0-2.67-3.28A2.32,2.32,0,0,0,37.79,14.22Z" style="fill:#1d1d1b"/><path d="M47.61,11.52s0,0,0,.05-.26.07-.55.2-.26.49-.26,1.33v2.52a1.67,1.67,0,0,0,1.92,1.84,2.16,2.16,0,0,0,2-.84,8.37,8.37,0,0,0,.3-3.05c0-1.12,0-1.66-.25-1.8s-.52,0-.52-.15,0-.08.12-.08c.25,0,.53.05.86.05s.65,0,.69,0a.07.07,0,0,1,.06.07c0,.19-.61-.14-.61.5a.8.8,0,0,1,0,.11v.62a15,15,0,0,1-.32,3.65c-.24.79-1.1,1.26-2.4,1.26-1.67,0-2.54-.72-2.54-2,0-.2,0-.66,0-1.41a7,7,0,0,0-.2-2.48c-.19-.2-.53-.06-.53-.21s0-.07.11-.07.39,0,.91,0S47.38,11.52,47.61,11.52Z" style="fill:#1d1d1b"/><path d="M56.25,11.57c0,.12-.42.07-.65.27s-.24,1.33-.24,3.55v.95c0,.82,0,1.13.38,1.2s.49,0,.49.11,0,.08-.15.08H56c-.28,0-.69-.05-1.22-.05s-.66,0-.83,0h-.17c-.06,0-.09,0-.09-.06s0-.09.13-.09c.47,0,.69-.14.78-.4a12.66,12.66,0,0,0,.11-2.54c0-1.77,0-2.65-.32-2.79s-.65-.05-.65-.19,0-.08.11-.08h0c.3,0,.61,0,.93,0,.58,0,1-.08,1.3-.08C56.21,11.51,56.25,11.51,56.25,11.57Z" style="fill:#1d1d1b"/><path d="M59,12.65v.9c0,2.35,0,3.59.18,3.81s1,.15,1,.33,0,.06-.07.06c-.24,0-.51-.06-.83-.06-.49,0-.84.08-1,.08s-.1,0-.1-.07.16-.06.42-.15.24-.16.24-.46v-.45c0-.41,0-.87,0-1.35v-.7c0-1.55,0-2.41-.26-2.67s-.64-.2-.64-.31,0-.07.09-.07l.55,0,.61,0A41.35,41.35,0,0,0,64,16.23l.08,0c0-.45,0-.83,0-1.13v-.53c0-1.75,0-2.61-.36-2.84s-.49-.07-.49-.18,0-.07.07-.07.51.07,1,.07l.59,0c.09,0,.14,0,.14.08s-.28,0-.44.16-.24,1-.24,2.69v1.22c0,.93,0,1.57,0,1.88a1.09,1.09,0,0,1,0,.13c0,.06,0,.08-.08.08S64,17.27,63,16.29c-2-1.94-3.36-3.09-4-3.68Z" style="fill:#1d1d1b"/><path d="M42,17.3a6.28,6.28,0,0,1-1.76.68l1.24.35a8,8,0,0,0,1.61.38,1.49,1.49,0,0,0,.81-.32c.06,0,.09,0,.09.08s-.12.18-.31.35a1.35,1.35,0,0,1-1,.34,4.77,4.77,0,0,1-1.43-.28l-1.68-.54a1.76,1.76,0,0,0-.57-.12,3.81,3.81,0,0,0-.83.19s0,0,0,0,.6-.49,1.31-.49l.33,0c.16,0,.39-.1.66-.19" style="fill:#1d1d1b"/></g></svg>