<?xml version="1.0" encoding="UTF-8"?>
<svg xmlns="http://www.w3.org/2000/svg" version="1.1" viewBox="0 0 307.9 70">
  <defs>
    <style>
      .cls-1 {
        isolation: isolate;
        opacity: .7;
      }

      .cls-2 {
        fill: #1d1d1b;
      }
    </style>
  </defs>
  <!-- Generator: Adobe Illustrator 28.7.1, SVG Export Plug-In . SVG Version: 1.2.0 Build 142)  -->
  <g>
    <g id="Layer_1">
      <g class="cls-1">
        <path class="cls-2" d="M187.2,13.1h-19.7l.4,21.6-.4,22.1h7.1l-.4-17.3h6.8c2.6,0,4.4.8,5.7,2.7,3.3,4.5,7.4,12,8.6,14.6h8.4c-3.9-6-8-11.8-12.2-17.6,9.4-2.5,11.3-8.6,11.3-13.4s-2.8-12.8-15.5-12.8M174.1,34.8v-16.8h13.1c5.6,0,9.5,3.1,9.5,8.1s-4.3,8.8-9.5,8.8h-13.1Z"/>
        <path class="cls-2" d="M243.5,13.1h-35.5v5.3l14.6-.5v16.8l-.4,22.1h7.1l-.4-22.1v-16.8l14.7.5v-5.3Z"/>
        <path class="cls-2" d="M154.1,49c-3.5,2-7.6,3.5-11.6,3.5-10.1,0-17.8-6.9-18.1-16.8l21.2.6v-6.2l-20.7.7c1.9-7.9,8.8-13.3,17.6-13.3s6.1,1.2,8.3,3l4.6-4.3c-3.3-2.6-8.1-4-13.1-4-14.1,0-24.3,9.6-24.3,22.8s10.3,22.7,24.3,22.7,10.7-1.4,15.3-4l-3.5-4.8h0Z"/>
        <path class="cls-2" d="M13.1,13.1l.4,22.5-.4,21.3h30.9v-5.3l-24.3.5v-16.4l.4-22.5h-7.1Z"/>
        <path class="cls-2" d="M59.5,13.1h-7.1l.4,21.9-.4,21.9h7.1l-.5-21.9.5-21.9Z"/>
        <path class="cls-2" d="M92,13.1h-18.7l.4,21.6-.4,22.1h22.8c8,0,13.4-5.7,13.4-13.3s-3.5-9.8-7.9-11.4c2.5-1.5,4.2-4.4,4.2-7.9,0-6.8-5.3-11.1-13.8-11.1M79.9,30.7v-12.8h11.8c5.3,0,8.2,2.2,8.2,6.2s-2.7,6.6-8.2,6.6h-11.8ZM79.9,52.1v-16.5h12.1c7.3,0,11.6,3,11.6,8s-4.3,8.5-11.6,8.5h-12.1Z"/>
        <path class="cls-2" d="M294.8,13.1h-9l-13.4,20.4-13.4-20.4h-9.1l19.3,27-.4,16.8h7.1l-.4-16.8,19.3-27Z"/>
        <path class="cls-2" d="M293,50.2c-2,0-3.6,1.5-3.6,3.4s1.6,3.4,3.6,3.4,3.6-1.5,3.6-3.4-1.6-3.4-3.6-3.4"/>
      </g>
    </g>
  </g>
</svg>