<?xml version="1.0" encoding="utf-8"?>
<!-- Generator: Adobe Illustrator 28.1.0, SVG Export Plug-In . SVG Version: 6.00 Build 0)  -->
<svg version="1.1" id="Layer_1" xmlns="http://www.w3.org/2000/svg" xmlns:xlink="http://www.w3.org/1999/xlink" x="0px" y="0px"
	 viewBox="0 0 355 84.6" style="enable-background:new 0 0 355 84.6;" xml:space="preserve">
<style type="text/css">
	.st0{fill:#61615F;stroke:#61615F;stroke-width:0.5;stroke-miterlimit:10;}
</style>
<g transform="translate(-25.1, -50.4)">
	<path class="st0" d="M146.5,75.4c0.4,0,0.3,0.5,0,0.6c-1.5,0.4-2.8,0.8-2.8,3.2v14.2c0,4.3,0,10.9,0.1,15.9c0,0.3-0.4,0.4-0.6,0.2
		c-2.8-3.2-14.6-17.3-21.6-25.4c0,0-0.1,0-0.1,0.1v6.9c0,7.3,0.1,10.1,0.1,14.3c0,2.6,2.1,3.3,3.4,3.4c0.4,0,0.3,0.7,0,0.7
		c0,0-2.8-0.1-4.5-0.1c-1.6,0-4.4,0.1-4.4,0.1c-0.5,0-0.5-0.7,0-0.7c1.3-0.1,3.4-0.7,3.4-3.4c0-4.2,0.1-7.1,0.1-14.3
		c0-4.3,0-10.9-0.1-15.5c0-0.3,0.4-0.5,0.6-0.2c2.9,3.4,15.2,17.8,21.7,25.5h0.1c0-2.9,0-4.8,0-7.6c0-7.1,0-9.8,0-13.9
		c0-2.4-1.5-3.2-3-3.4c-0.3-0.1-0.3-0.6,0-0.6c0,0,2.4,0.2,3.8,0.2C143.8,75.6,146.5,75.4,146.5,75.4L146.5,75.4z"/>
	<path class="st0" d="M355.1,75.4c0.4,0,0.3,0.5,0,0.6c-1.5,0.4-2.8,0.8-2.8,3.2v14.2c0,4.3,0,10.9,0.1,15.9c0,0.3-0.4,0.4-0.6,0.2
		c-2.8-3.2-14.6-17.3-21.6-25.4c0,0-0.1,0-0.1,0.1v6.9c0,7.3,0.1,10.1,0.1,14.3c0,2.6,2.1,3.3,3.4,3.4c0.4,0,0.3,0.7,0,0.7
		c0,0-2.8-0.1-4.5-0.1c-1.6,0-4.4,0.1-4.4,0.1c-0.5,0-0.5-0.7,0-0.7c1.3-0.1,3.4-0.7,3.4-3.4c0-4.2,0.1-7.1,0.1-14.3
		c0-4.3,0-10.9-0.1-15.5c0-0.3,0.4-0.5,0.6-0.2c2.9,3.4,15.2,17.8,21.7,25.5h0.1c0-2.9,0-4.8,0-7.6c0-7.1,0-9.8,0-13.9
		c0-2.4-1.5-3.2-3-3.4c-0.3-0.1-0.3-0.6,0-0.6c0,0,2.4,0.2,3.8,0.2C352.4,75.6,355.1,75.4,355.1,75.4z"/>
	<path class="st0" d="M185.7,92c0,9.2-6.3,17.5-16.7,17.5c-2,0-5.1-0.3-7.6-0.3c-1.5,0-3.8,0.1-5.2,0.2c-0.3,0-0.4-0.6-0.1-0.6
		c2.2-0.5,2.8-1.2,2.9-3.3c0.2-4,0.2-7.9,0.2-13c0-4.7-0.2-9.3-0.2-13.4c0-2.5-1.4-2.6-3-3.1c-0.3-0.1-0.3-0.6,0.1-0.6
		c1,0.1,3.1,0.1,4.2,0.1c1.6,0,4.6-0.3,7.4-0.3C178.5,75.2,185.7,82.1,185.7,92L185.7,92z M181.2,92.6c0-8.5-3.3-15.7-12.9-15.7
		c-1.2,0-3.2,0.1-4.9,0.3c-0.3,6.6-0.3,10.2-0.3,15.3s0,8.8,0.2,12c0.2,2.9,2.9,3.4,5.9,3.4C177.2,107.8,181.2,101.2,181.2,92.6z"/>
	<path class="st0" d="M213.1,104.1c-0.1,1.5-0.1,3,0,4.7c0,0.3-0.2,0.6-0.6,0.6c-3.6-0.2-5.5-0.2-8.2-0.2c-2.4,0-7.5,0.1-10,0.2
		c-0.3,0-0.3-0.4-0.1-0.5c1.7-0.5,3.6-1.4,3.7-3.5c0.2-4.3,0.2-8,0.2-13c0-4.6-0.1-8.8-0.2-13c-0.1-2.6-2.1-3.2-3.4-3.4
		c-0.5-0.1-0.3-0.6,0-0.6c2.3,0.1,6.3,0.2,9.8,0.2c2.3,0,5.4,0,7.9-0.2c0.4,0,0.8,0.3,0.8,0.8c-0.1,1.4-0.1,3.2,0,4.6
		c0,0.2-0.4,0.2-0.4,0c-0.5-2.6-1.5-3.7-5.4-3.7c-1.4,0-3,0.1-4.5,0.2c-0.2,0-0.4,0.2-0.4,0.5c-0.2,5.6-0.2,7.7-0.2,11.2
		c0,0.3,0.2,0.5,0.5,0.5c1.3,0.1,2.4,0.1,4.4,0.1c1.9,0,2.6-1.8,2.7-3c0-0.3,0.4-0.2,0.4,0c0,0.8-0.1,2.9-0.1,3.6c0,0.6,0,3,0.1,3.8
		c0,0.2-0.4,0.2-0.4,0c-0.2-2.3-1.3-3-2.8-3c-2,0-3.2,0-4.8,0v0.3c0,5,0,10.1,0.2,13.1c0.2,3.1,1.9,3.3,5.8,3.3
		c3.5,0,4.1-1.9,4.7-3.5C212.8,103.8,213.1,103.9,213.1,104.1z"/>
	<path class="st0" d="M287.9,92.2c0-10.2,6.6-17.3,14.8-17.3c8.6,0,15,7.7,15,17.5c0,10.2-6.6,17.3-14.8,17.3
		C294.2,109.7,287.9,102.1,287.9,92.2z M313.9,93.2c0-8.6-4.1-17-11.5-17c-6.6,0-10.6,6.8-10.6,15.2c0,8.6,4.1,16.9,11.4,16.9
		C309.8,108.4,313.9,101.6,313.9,93.2z"/>
	<path class="st0" d="M104.4,105.4c-4.2-10.3-11.3-26.4-12.8-30c-0.1-0.3-0.5-0.3-0.6,0c-1.6,4-9.1,23.6-11.6,29.8
		c-0.8,1.9-2.1,3.1-4.1,3.6c-0.3,0.1-0.3,0.6,0.1,0.6c0,0,2.5-0.1,3.9-0.1s4.1,0.1,4.1,0.1c0.5,0,0.5-0.6,0.1-0.7
		c-1.8-0.4-2.4-2.1-2-3.4c0.3-0.9,0.7-1.8,1.1-2.8c3,0,13.3-0.1,15.9,0c0.4,1.1,0.8,2,1.1,2.8c0.7,2.1-0.2,3.1-1.3,3.6
		c-0.5,0.2-0.4,0.7,0,0.7c0.5,0,3.4-0.2,5.1-0.2s4.7,0.1,4.7,0.1c0.4,0,0.4-0.6,0-0.7C106.4,108.5,105.4,107.8,104.4,105.4z
		 M83.4,100.6c0.7-1.9,6.2-16.4,6.8-18.1c1.5,3.5,3.6,8.5,5.6,13.1l0.9,2.3c0.4,1,0.8,1.9,1.1,2.7C95.4,100.7,86,100.7,83.4,100.6z"/>
	<path class="st0" d="M250.1,110c-6.1-3.2-8.9-14.9-11.8-15.8c0.5-0.2,1-0.4,1.6-0.7c3.3-1.8,5.1-5.3,5.1-9c0-5.1-3.4-9.2-10.2-9.2
		c-1.5,0-5.4,0.6-8.5,0c-0.3-0.1-0.5,0.4-0.1,0.5c1.3,0.4,1.7,1.9,1.8,3.8c0.2,4.1,0.2,8.4,0.2,12.8c0,4.8,0,8.8-0.2,13
		c-0.2,2.7-2.5,3.2-3.7,3.4c-0.3,0.1-0.3,0.6,0,0.6c1.9-0.1,4.1-0.2,5.5-0.2c1.3,0,4.2,0.1,5.9,0.2c0.3,0,0.4-0.5,0-0.6
		c-1.7-0.3-3.5-1.1-3.6-3.4c-0.1-3.7-0.2-7-0.2-10.9c1,0.1,1.6,0.2,2.8,0.2h0.8c4.1,9.2,10.7,15.4,14.4,16
		C250.2,110.7,250.4,110.2,250.1,110z M234.3,93.4c-1.2,0-1.5-0.1-2.5-0.3v-0.8c-0.1-4.9-0.1-8.2-0.1-15.2c1-0.1,1.7-0.2,2.7-0.2
		c5.3,0,7.2,4.3,7.2,8.2C241.8,88.4,240.4,93.4,234.3,93.4L234.3,93.4z"/>
	<path class="st0" d="M50.1,80.3c1.2-6,13.6-5.2,14.6,2.3c0.1,0.4,0.7,0.4,0.7,0c0-0.7-0.1-1.7,0-2.7c0.1-1.3,0.2-2,0.2-2.5
		c0-0.2-0.1-0.4-0.2-0.5c-4.4-2.7-18.8-4.8-18.1,7.5c0.2,3.8,3.2,5.5,8.8,8.3c5.4,2.7,10.1,5,9.2,10.3c-1.3,7.2-15.5,6.2-17.6-1.1
		c-0.1-0.5-0.8-0.3-0.8,0c0,0.8,0.1,1.9,0,3c0,1.5-0.1,2.4-0.1,2.7c0,0.2,0.1,0.4,0.2,0.5c8.8,3.8,20.4,2.4,20.4-7.9
		c0-6.5-3.2-8.8-8.9-11.8C54,86.1,49.2,84.7,50.1,80.3z"/>
	<path class="st0" d="M261.3,80.3c1.2-6,13.6-5.2,14.6,2.3c0.1,0.4,0.7,0.4,0.7,0c0-0.7-0.1-1.7,0-2.7c0.1-1.3,0.2-2,0.2-2.5
		c0-0.2-0.1-0.4-0.2-0.5c-4.4-2.7-18.8-4.8-18.1,7.5c0.2,3.8,3.2,5.5,8.8,8.3c5.4,2.7,10.1,5,9.2,10.3c-1.3,7.2-15.5,6.2-17.6-1.1
		c-0.1-0.5-0.8-0.3-0.8,0c0,0.8,0.1,1.9,0,3c0,1.5-0.1,2.4-0.1,2.7c0,0.2,0.1,0.4,0.2,0.5c8.8,3.8,20.4,2.4,20.4-7.9
		c0-6.5-3.2-8.8-8.9-11.8C265.3,86.1,260.5,84.7,261.3,80.3L261.3,80.3z"/>
</g>
</svg>