<svg xmlns="http://www.w3.org/2000/svg" viewBox="0 0 65 30"><path d="M41.6,16.4c0,1.34,0,2.68,0,4a1.82,1.82,0,0,1-1.62,2,7.76,7.76,0,0,1-2.76,0c-.3,0-.6-.09-.9-.16a1.45,1.45,0,0,1-1.16-1.35c0-.54-.08-1.08-.08-1.63q0-3.3,0-6.6a5.59,5.59,0,0,1,.13-1.08,1.48,1.48,0,0,1,1.29-1.18,10.46,10.46,0,0,1,3.66,0,1.5,1.5,0,0,1,1.38,1.56,6.4,6.4,0,0,1,.06.88V16.4Zm-3.69-.14h0v3.57a3.81,3.81,0,0,0,.07.59.39.39,0,0,0,.75,0,2.74,2.74,0,0,0,.07-.5q0-3.53,0-7.07a3.15,3.15,0,0,0,0-.53.44.44,0,0,0-.39-.39.4.4,0,0,0-.41.34,1.09,1.09,0,0,0-.05.26Z" style="fill:#1d1d1b;opacity:0.7000000000000001"/><path d="M45.56,22.49c-.2,0-.36,0-.52,0-.58,0-1.15,0-1.73,0a2.33,2.33,0,0,0-.37,0c-.12,0-.2,0-.2-.16s0-.18,0-.27V10.81c0-.35,0-.38.38-.38h2.06c.38,0,.38,0,.4.37l0,.08.4-.23a2.24,2.24,0,0,1,2.28-.05,1.68,1.68,0,0,1,.88,1.65q0,3.75,0,7.49v2.31c0,.09,0,.18,0,.27s-.09.16-.22.16c-.75,0-1.5,0-2.25,0-.23,0-.25,0-.25-.28V12.71c0-.33-.14-.5-.4-.53a.33.33,0,0,0-.4.29,4.28,4.28,0,0,0-.07.72v9.3Z" style="fill:#1d1d1b;opacity:0.7000000000000001"/><path d="M26.32,16.37c0,1.19,0,2.38,0,3.57a3,3,0,0,0,0,.42.41.41,0,0,0,.48.37.28.28,0,0,0,.28-.24,4.38,4.38,0,0,0,0-.51c0-.84,0-1.68,0-2.53,0-.28,0-.32.32-.32h2.24c.18,0,.31,0,.31.25,0,1.15,0,2.29,0,3.44a1.47,1.47,0,0,1-1.31,1.49,8.45,8.45,0,0,1-2.4.16,8.19,8.19,0,0,1-1.4-.13,1.45,1.45,0,0,1-1.24-1.25,8.8,8.8,0,0,1-.15-1.45c0-2.08,0-4.15,0-6.23a12.63,12.63,0,0,1,.14-1.74,1.39,1.39,0,0,1,1.46-1.29c.84-.07,1.69-.06,2.54-.06a5.46,5.46,0,0,1,1.07.1A1.61,1.61,0,0,1,30,12c0,.53,0,1.06,0,1.6s0,.94,0,1.41c0,.2-.06.28-.27.28H27.42c-.19,0-.27-.07-.27-.26,0-.8,0-1.6,0-2.4a.92.92,0,0,0-.05-.28C27,12.15,27,12,26.73,12a.48.48,0,0,0-.38.41,1.27,1.27,0,0,0,0,.2v3.77Z" style="fill:#1d1d1b;opacity:0.7000000000000001"/><path d="M15.84,18.1l.33,0h2.24c.26,0,.3.05.3.3,0,.59,0,1.18,0,1.77a1.22,1.22,0,0,0,.09.43.32.32,0,0,0,.56.12.89.89,0,0,0,.23-.5c0-.72,0-1.44,0-2.15a.69.69,0,0,0-.46-.65c-.71-.31-1.42-.65-2.14-.95a1.71,1.71,0,0,1-1.13-1.34s0-.06,0-.09A14.28,14.28,0,0,1,16,11.67a1.61,1.61,0,0,1,1.43-1.26,15.1,15.1,0,0,1,3.08,0,2.16,2.16,0,0,1,1.32.5,2,2,0,0,1,.51,1.47c0,.67,0,1.34.05,2,0,.17-.07.24-.24.24H19.8c-.18,0-.19-.1-.19-.23,0-.53,0-1.07,0-1.6a1.76,1.76,0,0,0-.12-.49.34.34,0,0,0-.62-.07.84.84,0,0,0-.14.43c0,.57,0,1.14,0,1.71a.72.72,0,0,0,.48.74c.72.33,1.42.7,2.14,1a1.66,1.66,0,0,1,1,1.65c0,.89,0,1.78,0,2.68a2.41,2.41,0,0,1-.28,1.17,1.33,1.33,0,0,1-.84.7,3.57,3.57,0,0,1-1,.17c-.87,0-1.73,0-2.6,0a1.67,1.67,0,0,1-1.68-1.38,14.46,14.46,0,0,1-.09-2.18C15.84,18.64,15.84,18.38,15.84,18.1Z" style="fill:#1d1d1b;opacity:0.7000000000000001"/><path d="M31.15,22.46V11.14a1.93,1.93,0,0,0,0-.24c0-.41,0-.42.39-.42H33.7c.19,0,.27.08.27.27,0,2.17,0,4.34,0,6.51v4.9c0,.34,0,.36-.37.31a3.17,3.17,0,0,0-.69,0l-1.61,0Z" style="fill:#1d1d1b;opacity:0.7000000000000001"/><path d="M32.61,7.5h1c.24,0,.36.09.36.34,0,.62,0,1.24,0,1.86a.5.5,0,0,1-.49.43c-.65,0-1.3,0-1.95,0A.55.55,0,0,1,31,9.53C31,9,31,8.5,31,8a.47.47,0,0,1,.5-.47h1.09Z" style="fill:#1d1d1b;opacity:0.7000000000000001"/></svg>