<svg xmlns="http://www.w3.org/2000/svg" viewBox="0 0 65 30"><path d="M48.22,23.61l-.28,0a2,2,0,0,1-2-1.44l-6.2-16c0-.12-.15-.12-.19,0s-1.63,4.82-1.63,4.82L42.06,22.3a1.89,1.89,0,0,1,.15.59.64.64,0,0,1-.37.54,3,3,0,0,1-.8.16l-.23,0a.14.14,0,0,0-.12.15.13.13,0,0,0,.14.13h7.4a.12.12,0,0,0,.12-.12c0-.12-.06-.15-.13-.16" style="fill:#1d1d1b;opacity:0.7000000000000001"/><path d="M31.54,6.77a2.25,2.25,0,0,1,1.07-.22.13.13,0,0,0,.15-.13.13.13,0,0,0-.13-.14h-3.5c-.08,0-.17,0-.17.14s0,.12.13.13l.47,0c.5,0,.69.08.84.29s.06.54-.09,1-4.18,10.73-4.18,10.73h0L22.74,8A1.56,1.56,0,0,1,22.62,7c.13-.3.39-.41,1-.45l.22,0A.13.13,0,0,0,24,6.4c0-.1-.07-.12-.18-.12H17.07a.14.14,0,0,0-.14.13c0,.07,0,.11.07.12a1.3,1.3,0,0,0,.38,0,2,2,0,0,1,.83.17,1.72,1.72,0,0,1,.75,1c.13.37,5.36,16.1,5.37,16.15a.1.1,0,0,0,.17,0c0-.08,6.51-16.35,6.61-16.58a1.2,1.2,0,0,1,.43-.58" style="fill:#1d1d1b;opacity:0.7000000000000001"/><path d="M39.51,22.5c-.15-.05-.24,0-.34.29a.63.63,0,0,1-.64.36c-.47,0-.94-.54-1.29-1.09l-.53-.81a9.4,9.4,0,0,0,1.41-3.13,2.53,2.53,0,0,1,.32-.89,1,1,0,0,1,.77-.35,1.77,1.77,0,0,0,.27,0,.14.14,0,0,0,.09-.14.13.13,0,0,0-.13-.12H36.53a.13.13,0,0,0-.14.14.13.13,0,0,0,.11.13l.19,0a1.65,1.65,0,0,1,.79.17c.27.18.25.46.2.84a8.06,8.06,0,0,1-1.18,3l-3.21-5s.86-.45,1.44-.78A2.5,2.5,0,0,0,36.17,13a1.74,1.74,0,0,0-.86-1.45A4,4,0,0,0,33.16,11a3.33,3.33,0,0,0-2.88,1.39,3.48,3.48,0,0,0,.26,3.55l.41.64c-.26.09-.57.23-.84.35a4.15,4.15,0,0,0-2.67,3.64c0,1.91,1.42,3.45,4,3.45A6,6,0,0,0,35,22.88a2.87,2.87,0,0,0,2.39,1,2.46,2.46,0,0,0,2.18-1.15.18.18,0,0,0-.09-.25M31.93,11.76a1.16,1.16,0,0,1,1-.46c.61,0,1.36.58,1.36,2a2.74,2.74,0,0,1-1.2,2.27s-.63-1-1-1.67a2.25,2.25,0,0,1-.18-2.17M29.7,19.53a3.11,3.11,0,0,1,1.4-2.7h0c2.42,3.72,2.55,3.94,3.72,5.73a3,3,0,0,1-1.66.55,3.64,3.64,0,0,1-3.47-3.59" style="fill:#1d1d1b;opacity:0.7000000000000001"/></svg>