<svg width="71" height="41" xmlns="http://www.w3.org/2000/svg"><g fill="#BCC7D3" fill-rule="evenodd"><path d="M36.69.588v22.516h5.341V15.12l5.482 7.984h6.92l-7.61-8.996 6.851-8.18h-6.937l-4.706 7.124V.588zm-8.68 4.954c-5.972 0-8.676 4.811-8.676 9.167 0 5.373 3.34 8.746 9.168 8.746 2.318 0 4.461-.35 6.219-1.054l-.705-3.616c-1.438.456-2.915.702-4.741.702-2.494 0-4.67-1.054-4.846-3.267h11.064c.07-.386.176-1.195.176-2.108 0-4.252-2.108-8.57-7.658-8.57zm-3.617 7.024c.14-1.438 1.053-3.477 3.3-3.477 2.46 0 3.023 2.178 3.023 3.477h-6.323zM9.767 5.542c-1.33 0-2.548.21-3.636.6V.587H.6V15.1c.21 5.266 4.006 8.39 8.886 8.39 4.602 0 9.063-2.88 9.063-9.168 0-5.164-3.512-8.781-8.782-8.781m-.141 14.12c-2.13 0-3.34-1.927-3.495-4.582v-1.142c.135-2.344 1.12-4.603 3.495-4.603 2.423 0 3.408 2.6 3.408 5.163 0 3.091-1.335 5.164-3.408 5.164"/><path d="M61.263 5.542c-5.515 0-9.168 3.547-9.168 9.097 0 5.55 3.863 8.852 8.887 8.852 4.6 0 9.063-2.88 9.063-9.168 0-5.164-3.511-8.781-8.782-8.781m-.14 14.12c-2.284 0-3.512-2.212-3.512-5.164 0-2.53.947-5.163 3.512-5.163 2.422 0 3.407 2.6 3.407 5.163 0 3.091-1.335 5.164-3.407 5.164M.6 34.767v5.392l67.483-9.485v-5.391z"/></g></svg>