<svg width="47" height="44" xmlns="http://www.w3.org/2000/svg"><path d="M21.658 1a1.081 1.081 0 0 0-.93 1.044v2.202c-.087.018-.172.028-.26.049-.187.045-.36.104-.539.163l-2.12-2.12c-.386-.382-1.082-.382-1.468 0l-3.132 3.131c-.391.387-.391 1.098 0 1.485l2.022 2.022c-.056.108-.136.192-.195.31-.097.193-.145.392-.229.587h-2.43c-.547 0-1.044.498-1.044 1.044v4.176c0 .547.497 1.044 1.044 1.044h2.43c.082.19.134.383.229.57.059.118.14.204.195.31L13.21 19.04c-.391.387-.391 1.098 0 1.485l3.132 3.131c.386.382 1.082.382 1.468 0l2.12-2.12c.18.059.352.134.539.18.088.02.173.03.26.048v2.202c0 .547.498 1.044 1.045 1.044h4.175c.547 0 1.044-.497 1.044-1.044v-2.202c.084-.017.16-.028.245-.049.187-.045.375-.104.555-.163l2.104 2.104c.387.392 1.097.392 1.484 0l3.132-3.131c.391-.387.391-1.098 0-1.485l-2.039-2.039c.054-.103.14-.18.196-.293.094-.188.147-.382.228-.571h2.447c.547 0 1.044-.497 1.044-1.044v-4.176c0-.546-.497-1.044-1.044-1.044h-2.43c-.084-.196-.148-.393-.245-.587-.057-.114-.141-.19-.196-.293l2.04-2.04c.39-.386.39-1.097 0-1.484L31.38 2.337c-.387-.39-1.097-.39-1.484 0l-2.12 2.121c-.177-.057-.356-.119-.539-.163-.085-.02-.16-.032-.245-.049V2.044c0-.547-.497-1.044-1.044-1.044h-4.29zm1.159 2.088h2.087v2.088c-.003.587.575 1.108 1.159 1.044.384-.037 1.284.281 1.32.293a1.08 1.08 0 0 0 1.387-.081l1.876-1.876 1.631 1.664-1.86 1.86c-.385.38-.393 1.077-.015 1.467-.046-.048.227.326.407.685.18.36.353.775.392.93.108.45.548.798 1.011.8H34.3v2.087h-2.088c-.459 0-.896.339-1.011.783a6.5 6.5 0 0 1-.392.946c-.18.36-.453.733-.407.685-.368.389-.36 1.071.016 1.452l1.86 1.876-1.632 1.63-1.876-1.859a1.08 1.08 0 0 0-1.37-.098c-.202.105-.452.156-.652.212-.208.038-.414.088-.62.131-.598-.104-1.223.421-1.224 1.028v2.087h-2.087v-2.087c0-.613-.638-1.143-1.24-1.028.06-.005-.474-.054-.62-.13-.225-.046-.432-.129-.636-.196a1.08 1.08 0 0 0-1.37.081l-1.876 1.876-1.664-1.647 1.876-1.876c.376-.38.384-1.063.016-1.452.045.048-.21-.326-.391-.685-.181-.36-.353-.79-.392-.946a1.075 1.075 0 0 0-1.011-.783H13.42v-2.088h2.088a1.074 1.074 0 0 0 1.011-.799c.04-.155.211-.57.392-.93.18-.36.436-.733.391-.685.377-.39.37-1.086-.016-1.468L15.41 6.22l1.664-1.663 1.876 1.876a1.08 1.08 0 0 0 1.353.114c.193-.129.451-.172.653-.228a2.03 2.03 0 0 1 .685-.098c.588.074 1.18-.451 1.175-1.044V3.088zm1.043 5.22c-2.581 0-4.697 2.115-4.697 4.697s2.116 4.698 4.697 4.698c2.582 0 4.698-2.116 4.698-4.698 0-2.582-2.116-4.698-4.698-4.698zm0 2.087a2.594 2.594 0 0 1 2.61 2.61 2.594 2.594 0 0 1-2.61 2.61 2.594 2.594 0 0 1-2.61-2.61 2.594 2.594 0 0 1 2.61-2.61zm11.957 14.077a1.05 1.05 0 0 0-.473.147l-4.681 2.61c-.479.264-.673.94-.408 1.419.265.478.94.672 1.419.408l4.698-2.61c.429-.216.667-.754.537-1.216a1.078 1.078 0 0 0-1.092-.758zm4.192 2.088c-.165.005-.328.05-.473.13l-6.786 3.654c-.482.26-.684.937-.424 1.42.26.482.937.684 1.42.423l6.785-3.653c.422-.215.658-.74.537-1.198a1.077 1.077 0 0 0-1.059-.776zm-29.736 2.104c-1.162.016-2.61-.04-4.046.57-2.1.897-4.088 1.502-5.236 2.024a1.069 1.069 0 0 0-.62.946v9.542c0 .705.322 1.073.67 1.419.346.346.808.736 1.598.603 2.192-.367 4.38-.511 6.59-.489 8.381.146 11.914.488 19.28.49h.05c1.204.039 2.452-.399 3.816-1.028 1.382-.638 2.853-1.501 4.323-2.43 2.94-1.86 5.868-4.002 7.536-5.024a.799.799 0 0 0 .033-.017c.48-.32.837-.55 1.142-.783.305-.233.618-.488.799-.962.18-.474.054-.985-.082-1.305-.135-.32-.283-.58-.473-.93a.964.964 0 0 0-.049-.065c-.156-.244-.292-.481-.49-.734-.196-.253-.486-.55-.913-.701-.853-.304-1.608.028-2.577.554l-.049.033c-2.655 1.663-6.606 3.754-10.423 4.632.001-.03.016-.05.016-.081v-1.566c0-1.037-.719-1.602-1.386-1.99a4.52 4.52 0 0 0-2.268-.62h-7.16c-2.234-.595-5.983-2.145-10.081-2.088zm.032 2.088c3.586-.05 7.115 1.4 9.64 2.055.086.022.174.032.262.032h7.307c.346 0 .862.142 1.207.343.26.15.34.327.36.294v1.337c-.016-.042-.084.112-.343.261-.341.196-.857.355-1.207.359h-7.324c-.552-.008-1.06.492-1.06 1.044s.508 1.052 1.06 1.044h7.323c5.564.1 11.44-3.052 15.088-5.334.015-.01.034-.024.05-.032.51-.263.766-.313.815-.343.068.09.19.26.326.473.15.277.223.417.294.555-.193.145-.512.368-.963.668-.014.01-.018.007-.032.017-1.842 1.13-4.677 3.226-7.52 5.024-1.428.902-2.851 1.726-4.095 2.3-1.243.573-2.332.856-2.903.831h-.033c-7.342 0-10.848-.342-19.297-.489-2.237-.022-4.5.126-6.753.49a.417.417 0 0 1-.049-.099v-8.66c.988-.393 2.625-.927 4.584-1.763.912-.388 2.061-.39 3.262-.407z" fill="#BCC7D3" stroke="#E9ECEF" stroke-width=".25"/></svg>