<svg width="130" height="26" viewBox="0 0 130 26" fill="none" xmlns="http://www.w3.org/2000/svg">
<path d="M20.184 19.3955C20.184 19.3955 17.4505 18.4192 13.1547 18.4192C8.85905 18.4192 6.12536 19.3955 6.12536 19.3955V6.11799H6.32079C6.32079 6.11799 7.49228 17.8334 13.1547 17.8334C18.8172 17.8334 19.9887 6.11799 19.9887 6.11799H20.184V19.3955ZM13.1547 -1.69575e-05C6.12536 -1.69575e-05 0.462891 5.72755 0.462891 12.7568C0.462891 19.786 6.19044 25.5135 13.2197 25.5135C20.2491 25.5135 25.9765 19.786 25.9765 12.7568C25.9765 5.72755 20.184 -1.69575e-05 13.1547 -1.69575e-05Z" fill="white"/>
<path d="M129.463 10.2183C129.268 10.1532 129.073 10.0883 128.747 10.0883C127.836 10.0883 127.12 10.6087 126.6 11.3899V11.2598C126.6 10.7391 126.469 10.4786 126.274 10.1532L124.647 10.6087C124.842 11.1295 124.907 11.7154 124.907 12.6917V18.6144H126.73V13.0821C126.795 12.6265 126.925 12.4313 127.25 12.1709C127.576 11.8454 127.966 11.7805 128.357 11.7805C128.552 11.7805 128.682 11.8454 128.877 11.9106L129.463 10.2183ZM123.475 14.8393V14.514C123.475 12.6917 123.085 11.6502 122.434 10.9994C121.848 10.4135 121.002 10.0883 120.026 10.0883C118.985 10.0883 118.138 10.4786 117.422 11.1946C116.772 11.9106 116.381 12.952 116.381 14.3839C116.381 17.0522 117.878 18.7445 120.286 18.7445C121.393 18.7445 122.499 18.3541 123.345 17.6381L122.629 16.5967C121.978 17.1174 121.262 17.3778 120.482 17.3778C119.7 17.3778 119.049 17.0522 118.659 16.5315C118.399 16.1411 118.269 15.5552 118.269 14.9696V14.8393H123.475ZM115.795 18.5493L115.47 17.5079C115.21 17.573 115.014 17.5079 114.884 17.3778C114.754 17.1826 114.689 16.8571 114.689 16.076V8.9167C114.689 7.8752 114.689 7.09415 114.559 6.57361L112.736 6.96405C112.867 7.61486 112.931 8.20073 112.931 9.37231V16.5315C112.931 17.4429 113.127 17.8985 113.322 18.2238C113.582 18.6144 114.103 18.8097 114.689 18.8097C115.079 18.7445 115.405 18.6794 115.795 18.5493ZM106.879 7.8752C106.879 7.22442 106.358 6.70371 105.642 6.70371C104.991 6.70371 104.405 7.22442 104.405 7.8752C104.405 8.52609 104.991 9.04677 105.577 9.04677C106.358 9.04677 106.879 8.52609 106.879 7.8752V7.8752ZM111.63 18.5493L111.304 17.5079H111.109C110.784 17.5079 110.523 17.3127 110.523 16.7268V8.9167C110.523 7.8752 110.523 7.09415 110.393 6.57361L108.571 6.96405C108.701 7.61486 108.766 8.20073 108.766 9.37231V16.8571C108.766 18.0937 109.482 18.8097 110.523 18.8097C110.979 18.7445 111.304 18.6794 111.63 18.5493V18.5493ZM106.553 18.5493V10.0883L104.731 10.3484V18.4842H106.553V18.5493ZM102.908 18.5493L101.932 7.22442H99.3938L97.1156 15.5552L94.8377 7.28933H92.2343L91.1277 18.6144H92.82L93.601 9.11196L96.2696 18.6144H97.6364L100.305 9.30714L101.086 18.6144H102.908V18.5493ZM89.1103 18.5493V12.4313C89.1103 10.8691 88.199 10.1532 86.8322 10.1532C85.921 10.1532 85.2049 10.4786 84.2286 11.2598C84.2286 10.8691 84.0985 10.4786 83.9033 10.1532L82.2762 10.6087C82.5365 11.1946 82.5365 11.585 82.5365 12.5614V18.6794H84.2937V12.6917C84.8796 12.1058 85.6607 11.7154 86.2463 11.7154C86.9623 11.7154 87.2227 12.0408 87.2227 13.2124V18.6794H89.1103V18.5493ZM81.1046 17.7682C80.519 17.3778 80.3235 17.0522 80.3235 16.076V15.8156L80.3887 13.3425V12.8217C80.3887 11.9757 80.3235 11.7154 80.2586 11.3899C79.9331 10.4786 79.0219 10.0231 77.7201 10.0231C76.9392 10.0231 76.2233 10.1532 75.4422 10.4786C74.9866 10.6739 74.531 10.8691 74.0754 11.1295L74.8565 12.3662C75.1818 12.1058 75.4422 11.9757 75.8978 11.7805C76.4836 11.5201 77.0044 11.3899 77.4597 11.3899C77.9805 11.3899 78.2408 11.5201 78.436 11.7805C78.6313 12.0408 78.6964 12.3013 78.6964 12.8869V13.4728H78.1105C75.3121 13.4728 73.8151 14.4491 73.8151 16.4015C73.8151 17.0522 74.0103 17.7682 74.4659 18.1589C74.9866 18.6144 75.5725 18.8097 76.6137 18.8097C77.3299 18.8097 77.9153 18.6144 78.436 18.289C78.6313 18.1589 78.6964 18.0286 78.9568 17.7682C79.152 18.289 79.6076 18.6794 80.1283 18.8749L81.1046 17.7682ZM72.318 18.5493V12.4964C72.318 11.585 72.1228 10.9994 71.6672 10.6087C71.3417 10.2835 70.6911 10.0883 70.1052 10.0883C69.1941 10.0883 68.2178 10.5438 67.5018 11.3247C67.1112 10.5438 66.3952 10.0883 65.484 10.0883C64.7032 10.0883 63.7918 10.5438 63.2061 11.1295C63.141 10.7391 63.0107 10.3484 62.8806 10.0883L61.2535 10.4786C61.5139 10.9994 61.579 11.3247 61.579 12.4964V18.4842H63.3362V12.3662C64.0522 11.7805 64.638 11.5201 65.1585 11.5201C65.8745 11.5201 66.1349 11.9106 66.1349 12.8217V18.4842H67.8923V12.4964C68.6082 11.7805 69.259 11.4549 69.7797 11.4549C70.4308 11.4549 70.6911 11.7805 70.6911 12.6265V18.4193H72.318V18.5493ZM60.7328 10.2183C60.5376 10.1532 60.3423 10.0883 60.0168 10.0883C59.1057 10.0883 58.4549 10.6087 57.869 11.3899V11.2598C57.869 10.7391 57.7389 10.4786 57.5437 10.1532L55.8514 10.6087C56.0466 11.1295 56.1118 11.7154 56.1118 12.6917V18.6144H57.9341V13.0821C57.9993 12.6265 58.1293 12.4313 58.4549 12.1709C58.7804 11.8454 59.1708 11.7805 59.5615 11.7805C59.7565 11.7805 59.8867 11.8454 60.082 11.9106L60.7328 10.2183ZM54.81 14.8393V14.514C54.81 12.6917 54.4195 11.6502 53.7687 10.9994C53.1828 10.4135 52.3368 10.0883 51.4257 10.0883C50.3191 10.0883 49.473 10.4786 48.8222 11.1946C48.1712 11.9106 47.7808 12.952 47.7808 14.3839C47.7808 17.0522 49.2778 18.7445 51.686 18.7445C52.8576 18.7445 53.8988 18.3541 54.745 17.6381L54.0291 16.5967C53.3781 17.1174 52.6623 17.3778 51.8812 17.3778C51.1001 17.3778 50.4493 17.0522 50.0587 16.5315C49.7983 16.1411 49.7334 15.5552 49.7334 14.9696V14.8393H54.81ZM46.2839 18.5493V7.28933H44.4614V11.8454H40.2308V7.28933H38.4085V18.6144H40.2308V13.3425H44.4614V18.6144L46.2839 18.5493ZM121.588 13.6029H118.399C118.464 12.1709 118.985 11.3899 120.026 11.3899C121.002 11.3899 121.588 12.2361 121.588 13.6029ZM78.6313 14.6442L78.5663 16.5967C78.2408 17.1826 77.59 17.5079 76.9392 17.5079C76.1581 17.5079 75.7025 17.0522 75.7025 16.2063C75.7025 15.6856 75.8328 15.36 76.1581 15.0997C76.4836 14.7742 77.1344 14.5792 78.2408 14.5792C78.3709 14.6442 78.5012 14.6442 78.6313 14.6442V14.6442ZM52.9227 13.6029H49.6683C49.6683 12.1709 50.3191 11.3899 51.2954 11.3899C52.3368 11.3899 52.9227 12.2361 52.9227 13.6029" fill="white"/>
</svg>
