<svg width="148" height="56" viewBox="0 0 148 56" fill="none" xmlns="http://www.w3.org/2000/svg">
<g clip-path="url(#clip0_1392_670)">
<path d="M0.218811 52.9953V0.419114L10.4605 0.416241V20.4347L29.9994 0.353027H43.7774L23.3745 21.2938L45.4767 52.9953H32.3675L16.0061 28.572L10.4576 34.2238V52.9953H0.218811Z" fill="white"/>
<path d="M45.9532 52.9954V15.4496H55.9049V19.4722C55.9049 19.4722 58.8471 13.9181 67.0995 13.9181C80.4872 13.9181 80.5905 27.4946 80.5905 27.4946V52.9896H69.97V29.2904C69.97 29.2904 69.9642 22.8541 63.4627 23.1127C56.192 23.4001 55.9996 32.0201 55.9996 32.0201V52.9954H45.9532V52.9954Z" fill="white"/>
<path d="M122.565 34.5515V34.5084C122.565 25.5954 116.847 13.9153 102.592 13.9153C88.3377 13.9153 82.5051 25.5523 82.5051 34.5084V34.5515H92.9333V34.5084C92.9333 24.8282 98.2436 21.8715 102.589 21.8715C106.935 21.8715 112.171 24.6903 112.171 34.5084V34.5515H122.565V34.5515Z" fill="white"/>
<path d="M122.565 34.4969V34.5372C122.565 43.4502 116.847 55.1303 102.592 55.1303C88.3377 55.1303 82.5051 43.4933 82.5051 34.5372V34.4969H92.9333V34.5372C92.9333 44.2174 98.2436 47.1741 102.589 47.1741C106.935 47.1741 112.171 44.3553 112.171 34.5372V34.4969H122.565V34.4969Z" fill="white"/>
<path d="M124.31 0.419189H134.643V52.9954H124.316L124.31 0.419189Z" fill="white"/>
<path d="M137.413 0.419189L147.781 0.424936V53.0011H137.413V0.419189Z" fill="white"/>
</g>
<defs>
<clipPath id="clip0_1392_670">
<rect width="147.562" height="54.78" fill="white" transform="translate(0.218811 0.353027)"/>
</clipPath>
</defs>
</svg>
