<?xml version="1.0" encoding="utf-8"?>
<!-- Generator: Adobe Illustrator 27.3.1, SVG Export Plug-In . SVG Version: 6.00 Build 0)  -->
<svg version="1.1" id="Layer_1" xmlns="http://www.w3.org/2000/svg" xmlns:xlink="http://www.w3.org/1999/xlink" x="0px" y="0px"
	 viewBox="0 0 108.9 103.6" style="enable-background:new 0 0 108.9 103.6;" xml:space="preserve">
<style type="text/css">
	.st0{fill:#FFC400;}
</style>
<g id="Layer_2_00000170242812956860128540000003998482309922068117_">
	<g id="Layer_1-2">
		<path class="st0" d="M58.9,9.1l11.2,22.7c0.7,1.5,2.1,2.5,3.8,2.7l25,3.7c4.1,0.6,5.7,5.6,2.8,8.5L83.6,64.3
			c-1.2,1.1-1.7,2.8-1.4,4.4l4.3,24.9c0.7,4.1-3.6,7.2-7.3,5.3L56.7,87.1c-1.5-0.8-3.2-0.8-4.7,0L29.8,98.9c-3.7,1.9-8-1.2-7.3-5.3
			l4.3-24.9c0.3-1.6-0.3-3.3-1.4-4.4L7.3,46.7c-3-2.9-1.3-7.9,2.8-8.5l25-3.7c1.6-0.2,3-1.3,3.8-2.7L49.9,9.1
			C51.8,5.4,57.1,5.4,58.9,9.1z"/>
	</g>
</g>
</svg>
