<?xml version="1.0" encoding="utf-8"?>
<!-- Generator: Adobe Illustrator 27.3.1, SVG Export Plug-In . SVG Version: 6.00 Build 0)  -->
<svg version="1.1" id="katman_1" xmlns="http://www.w3.org/2000/svg" xmlns:xlink="http://www.w3.org/1999/xlink" x="0px" y="0px"
	 viewBox="0 0 108.9 103.6" style="enable-background:new 0 0 108.9 103.6;" xml:space="preserve">
<style type="text/css">
	.st0{fill:#E3E6E6;}
</style>
<g id="Layer_2">
	<g id="Layer_1-2">
		<path class="st0" d="M98.9,38.1l-25-3.7c-1.6-0.2-3-1.3-3.8-2.7L58.9,9.1c-1.8-3.7-7.1-3.7-9,0L38.8,31.7
			c-0.7,1.5-2.1,2.5-3.8,2.7l-25,3.7c-4.1,0.6-5.7,5.6-2.8,8.5l18.1,17.6c1.2,1.1,1.7,2.8,1.4,4.4l-4.3,24.9
			c-0.7,4.1,3.6,7.2,7.3,5.3l22.3-11.8c1.5-0.8,3.2-0.8,4.7,0l22.4,11.8c3.7,1.9,8-1.2,7.3-5.3l-4.3-24.9c-0.3-1.6,0.3-3.3,1.4-4.4
			l18.1-17.6C104.6,43.8,103,38.7,98.9,38.1z"/>
	</g>
</g>
</svg>
