<?xml version="1.0" encoding="UTF-8"?>
<svg width="50px" height="50px" viewBox="0 0 50 50" version="1.1" xmlns="http://www.w3.org/2000/svg" xmlns:xlink="http://www.w3.org/1999/xlink">
    <!-- Generator: Sketch 64 (93537) - https://sketch.com -->
    <title>icon/social-instagram</title>
    <desc>Created with Sketch.</desc>
    <defs>
        <path d="M33.1988096,8.41023437 C32.0959548,8.41023437 31.1989062,7.51318586 31.1989062,6.41033107 C31.1989062,5.30742793 32.0959548,4.41023437 33.1988096,4.41023437 C34.3016644,4.41023437 35.1989062,5.30742793 35.1989062,6.41033107 C35.1989062,7.51318586 34.3016644,8.41023437 33.1988096,8.41023437 M20,30.0000391 C14.4859139,30.0000391 10,25.5141412 10,20.0000033 C10,14.4859369 14.4859139,10.0000391 20,10.0000391 C25.5141575,10.0000391 30,14.4859369 30,20.0000033 C30,25.5141412 25.5141575,30.0000391 20,30.0000391 M29.1724219,0 L10.8276563,0 C4.8571875,0 0,4.8571875 0,10.8276563 L0,29.1727344 C0,35.1428906 4.8571875,40 10.8276563,40 L29.1726562,40 C35.1428125,40 40,35.1428906 40,29.1727344 L40,10.8276563 C40,4.8571875 35.1428125,0 29.1724219,0" id="path-1"></path>
    </defs>
    <g id="icon/social-instagram" stroke="none" stroke-width="1" fill="none" fill-rule="evenodd">
        <g id="swatches/222" transform="translate(5.000000, 5.000000)">
            <mask id="mask-2" fill="white">
                <use xlink:href="#path-1"></use>
            </mask>
            <use id="Mask" fill="#222222" xlink:href="#path-1"></use>
        </g>
    </g>
</svg>