<svg xmlns="http://www.w3.org/2000/svg" width="80" height="80" viewBox="0 0 80 80">
    <defs>
        <style>
            .prefix__cls-2{fill:#b43013}.prefix__cls-3{fill:#813d14}
        </style>
    </defs>
    <g id="prefix__Group_425" data-name="Group 425" transform="translate(-380 7542)">
        <circle id="prefix__Ellipse_11" cx="40" cy="40" r="40" data-name="Ellipse 11" transform="translate(380 -7542)" style="fill:#ffd635"/>
        <path id="prefix__Path_1060" d="M2932.6 857.723a8.325 8.325 0 0 1 1.51-4.8 13.442 13.442 0 0 0 6.01 4.061 12.854 12.854 0 0 0 9.167-.1q.041.414.041.839a8.365 8.365 0 0 1-16.729 0z" class="prefix__cls-2" data-name="Path 1060" transform="translate(-2502.365 -8359.797)"/>
        <path id="prefix__Path_1061" d="M2940.479 853.91a17.221 17.221 0 0 1-5.6-.953 16.044 16.044 0 0 1-9.164-7.615 3.268 3.268 0 0 1 5.844-2.927 10.335 10.335 0 0 0 12.409 4.274 3.268 3.268 0 1 1 2.805 5.9 15.015 15.015 0 0 1-6.294 1.321z" class="prefix__cls-3" data-name="Path 1061" transform="translate(-2498.184 -8352.674)"/>
        <path id="prefix__Path_1062" d="M2861.126 857.723a8.326 8.326 0 0 0-1.51-4.8 13.442 13.442 0 0 1-6.01 4.061 12.853 12.853 0 0 1-9.167-.1q-.041.414-.041.839a8.364 8.364 0 0 0 16.729 0z" class="prefix__cls-2" data-name="Path 1062" transform="translate(-2451.357 -8359.797)"/>
        <path id="prefix__Path_1063" d="M2844.267 853.908a15.013 15.013 0 0 1-6.292-1.316 3.268 3.268 0 0 1 2.8-5.9 10.333 10.333 0 0 0 12.41-4.273 3.268 3.268 0 0 1 5.845 2.927 16.035 16.035 0 0 1-9.153 7.612 17.272 17.272 0 0 1-5.61.95z" class="prefix__cls-3" data-name="Path 1063" transform="translate(-2446.563 -8352.673)"/>
        <path id="prefix__Path_1064" d="M9.924-4c7.33.168 10.276 7.463 10.276 9.268s-3.241-2.765-10.274-3S0 7.073 0 5.268 2.595-4.168 9.924-4z" class="prefix__cls-3" data-name="Path 1064" transform="translate(409.901 -7481.548)"/>
    </g>
</svg>
