<svg xmlns="http://www.w3.org/2000/svg" xmlns:xlink="http://www.w3.org/1999/xlink" width="62" height="65.234" viewBox="0 0 62 65.234"><defs><style>.a,.f{fill:#f13019;}.a{clip-rule:evenodd;}.b{fill:#ffd635;}.c{fill:#f13000;}.c,.d,.f{fill-rule:evenodd;}.d,.g{fill:#b43013;}.e{clip-path:url(#c);}.h{filter:url(#a);}</style><filter id="a" x="0" y="3.234" width="62" height="62" filterUnits="userSpaceOnUse"><feOffset dy="3" input="SourceAlpha"/><feGaussianBlur stdDeviation="3" result="b"/><feFlood flood-opacity="0.2"/><feComposite operator="in" in2="b"/><feComposite in="SourceGraphic"/></filter><clipPath id="c"><path class="a" d="M3475.146,900.6a7.7,7.7,0,0,1-15.405,0Z" transform="translate(-3459.741 -900.601)"/></clipPath></defs><g transform="translate(9567.941 -13460.216)"><g class="h" transform="matrix(1, 0, 0, 1, -9567.94, 13460.22)"><rect class="b" width="44" height="44" rx="2" transform="translate(9 9.23)"/></g><path class="c" d="M3491.745,932.6" transform="translate(-13026.764 12575.096)"/><g transform="translate(-9544.695 13497.118)"><path class="d" d="M3475.146,900.6a7.7,7.7,0,0,1-15.405,0Z" transform="translate(-3459.741 -900.601)"/><g class="e"><path class="f" d="M3467.443,910.066c4.254,0,7.7,1.55,7.7,7.877h-15.405c0-6.328,3.448-7.877,7.7-7.877" transform="translate(-3459.741 -907.788)"/></g></g><g transform="translate(-9551.562 13481.98)"><path class="g" d="M3518.962,842.661a1.859,1.859,0,0,1-1.3-.533,3.241,3.241,0,0,0-4.017,0,1.865,1.865,0,0,1-2.61-2.665,6.934,6.934,0,0,1,9.238,0,1.865,1.865,0,0,1-1.305,3.2Z" transform="translate(-3491.949 -837.701)"/><path class="g" d="M3518.962,842.661a1.859,1.859,0,0,1-1.3-.533,3.241,3.241,0,0,0-4.017,0,1.865,1.865,0,0,1-2.61-2.665,6.934,6.934,0,0,1,9.238,0,1.865,1.865,0,0,1-1.305,3.2Z" transform="translate(-3510.47 -837.701)"/></g><path class="b" d="M16,.064,0,12.8H16Z" transform="translate(-9530.946 13460.151)"/></g></svg>