<svg width="24" height="24" fill="none" xmlns="http://www.w3.org/2000/svg"><g clip-path="url(#a)"><path d="M11.6 7.2c-.9 0-2.2-1-3.6-1-2 0-3.6 1.2-4.6 2.8-2 3.4-.5 8.5 1.4 11.2 1 1.4 2 2.9 3.5 2.8 1.4 0 2-.9 3.6-.9 1.7 0 2.2 1 3.7.9 1.5 0 2.5-1.4 3.4-2.7 1-1.6 1.5-3.1 1.5-3.2a4.9 4.9 0 0 1-.6-8.7 5.2 5.2 0 0 0-4-2.2c-1.9-.1-3.4 1-4.3 1Zm3.1-2.8C15.5 3.4 16 2 16 .9a5 5 0 0 0-3.3 1.6c-.7.9-1.3 2.2-1.1 3.5 1.2 0 2.5-.7 3.2-1.6Z" fill="#000"/></g><defs><clipPath id="a"><path fill="#fff" d="M0 0h24v24H0z"/></clipPath></defs></svg>