<svg width="24" height="24" fill="none" xmlns="http://www.w3.org/2000/svg"><g clip-path="url(#a)"><path d="M18.8.1H5.3A5.1 5.1 0 0 0 .2 5.2v13.6c0 2.8 2.3 5 5 5h13.6c2.8 0 5.1-2.2 5.1-5V5.2c0-2.8-2.3-5-5.1-5Z" fill="#000"/><path d="M6 1.7a.7.7 0 0 0-.7.7.7.7 0 0 0 .7.6.7.7 0 0 0 .6-.6.7.7 0 0 0-.6-.7Zm12 0a.7.7 0 0 0-.6.7.7.7 0 0 0 .6.6.7.7 0 0 0 .7-.6.7.7 0 0 0-.7-.7Z" fill="#8C8C8C"/><path d="M6 2.3c-.3 0-.3.3-.3.3A6.7 6.7 0 0 0 12 6.3c2.6 0 5-1.2 6.3-3.7 0 0 0-.5-.5-.3A6.8 6.8 0 0 1 12 5.7 6.8 6.8 0 0 1 6 2.3H6Zm8.5 9.5-.7 2.2-.7-2.2h-.7l1 3.1h.6l.7-2 .7 2h.6l1-3h-.6l-.7 2-.7-2h-.5Zm-3.8 0L9.3 15h.6l.3-.6h1.5l.2.6h.7l-1.4-3h-.5Zm10 0V15h.7v-3h-.7Zm-18.1 0V15h.6v-1.2h1.5v1.2h.6v-3h-.6V13H3.2v-1.3h-.6Zm5.7 0v1.8c0 .5-.3.8-.7.8-.5 0-.7-.3-.7-.8v-1.8h-.7v1.8c0 .9.5 1.4 1.4 1.4.8 0 1.3-.5 1.3-1.4v-1.8h-.6Zm9.3 0V15H20v-.5h-1.8v-.8h1.2V13h-1.2v-.6H20v-.6h-2.3Zm-6.7.8.5 1v.1h-1l.5-1.1Z" fill="#FFF2EA"/></g><defs><clipPath id="a"><path fill="#fff" d="M0 0h24v24H0z"/></clipPath></defs></svg>