<svg width="68" height="20" viewBox="0 0 68 20" fill="none" xmlns="http://www.w3.org/2000/svg">
<path fill-rule="evenodd" clip-rule="evenodd" d="M10.2395 0.838855C10.2222 0.796145 10.1631 0.69693 9.99127 0.69693H9.82306C9.68865 0.69693 9.55 0.759251 9.44205 0.869268L2.17107 8.43267H1.76508L2.63618 1.03712C2.66117 0.921783 2.62622 0.844506 2.5916 0.799469C2.55518 0.752105 2.48463 0.695435 2.35496 0.695435H2.25893C2.16193 0.695435 1.99061 0.730833 1.93231 0.967818L0.0013065 16.9904L0 17.0107C0 17.2008 0.120688 17.3236 0.307517 17.3236H0.403544C0.58678 17.3236 0.706161 17.2058 0.710898 17.0221L1.67722 9.13183H2.18561L8.50448 17.1149L8.51607 17.1282C8.609 17.2225 8.72446 17.3236 8.91994 17.3236H9.04014C9.13568 17.3236 9.22223 17.2719 9.26584 17.1886C9.31042 17.1044 9.30373 17.0032 9.2482 16.9184L2.81811 8.75657L10.1547 1.12719C10.2792 1.00089 10.2612 0.892202 10.2395 0.838855Z" fill="white"/>
<path fill-rule="evenodd" clip-rule="evenodd" d="M25.1014 19.5C24.861 19.5 24.669 19.3777 24.765 19.1332L25.3898 17.4949C22.5302 17.3236 21.4969 16.1009 21.4969 14.5604C21.4969 14.4382 21.521 14.2425 21.5451 14.0224L21.6892 12.7998C21.7132 12.5796 21.7852 12.482 21.9776 12.482H22.6744C22.8907 12.482 22.9627 12.5796 22.9388 12.7998L22.7945 13.8757C22.7706 14.0469 22.7706 14.2182 22.7706 14.3403C22.7706 15.5874 23.6355 16.4189 26.2069 16.4189C29.0423 16.4189 30.0516 15.4164 30.2438 13.9247L30.484 12.1395C30.508 11.9685 30.508 11.895 30.508 11.8218C30.508 10.7947 29.6431 10.2812 28.7539 9.91441L24.717 8.25153C23.6115 7.78703 22.7464 6.90673 22.7464 5.63506C22.7464 5.53717 22.7464 5.366 22.7706 5.19499L22.9147 3.94791C23.1551 2.0404 24.2363 0.5 28.1292 0.5C31.5415 0.5 32.6228 1.79594 32.6228 3.43439C32.6228 3.58114 32.6227 3.77674 32.5987 3.94791L32.4545 5.14597C32.4305 5.34174 32.3343 5.43945 32.1421 5.43945H31.4453C31.2771 5.43945 31.181 5.3906 31.205 5.14597L31.3251 4.09466C31.3492 3.89889 31.3492 3.77674 31.3492 3.65442C31.3492 2.43178 30.5562 1.60033 28.033 1.60033C25.2456 1.60033 24.3324 2.60278 24.1643 4.07006L24.044 5.04825C24.0201 5.19499 24.0201 5.31714 24.0201 5.3906C24.0201 6.34435 24.669 6.78442 25.3176 7.05331L29.6671 8.83851C30.8926 9.35203 31.7577 10.2079 31.7577 11.5771C31.7577 11.675 31.7577 11.7483 31.7335 12.0174L31.5173 14.0715C31.3251 15.9542 30.0516 17.4703 26.3029 17.5192L25.6038 19.2414C25.541 19.3956 25.3942 19.4967 25.2303 19.4985L25.1014 19.5Z" fill="white"/>
<path fill-rule="evenodd" clip-rule="evenodd" d="M44.7815 0.695435C45.0219 0.695435 45.1179 0.79332 45.0939 1.06221L44.9977 1.82036C44.9737 2.08926 44.8295 2.18714 44.5891 2.18714H37.1399L36.4191 7.90901H43.4598C43.7002 7.90901 43.7962 8.03149 43.7722 8.27579L43.676 9.05837C43.652 9.30284 43.532 9.42515 43.2916 9.42515H36.2749L35.3378 16.9568C35.3136 17.2013 35.2174 17.3236 34.9774 17.3236H33.9441C33.7037 17.3236 33.6075 17.2013 33.6317 16.9568L35.554 1.06221C35.578 0.817749 35.6982 0.695435 35.9386 0.695435H44.7815Z" fill="white"/>
<path fill-rule="evenodd" clip-rule="evenodd" d="M45.0938 17.3236C44.7814 17.3236 44.6372 17.1768 44.6852 16.8347L46.5835 1.18469C46.6317 0.842179 46.7759 0.695435 47.0882 0.695435H55.3064C55.6188 0.695435 55.763 0.817916 55.715 1.1601L55.5708 2.26043C55.5226 2.60278 55.3785 2.72509 55.0661 2.72509H48.7703L48.1696 7.66472H54.0569C54.3693 7.66472 54.4893 7.78686 54.4413 8.12921L54.3213 9.18085C54.2731 9.49861 54.1289 9.64535 53.8165 9.64535H47.9292L47.2324 15.2939H53.7926C54.1289 15.2939 54.2731 15.3918 54.2251 15.7342L54.0809 16.8589C54.0328 17.2014 53.9127 17.3236 53.5762 17.3236H45.0938Z" fill="white"/>
<path fill-rule="evenodd" clip-rule="evenodd" d="M59.5189 17.318C59.3613 17.318 59.2556 17.2886 59.2046 17.2309C59.1504 17.1691 59.133 17.0466 59.1525 16.8668L60.8187 3.09641H57.2217C57.0493 3.09641 56.9349 3.066 56.882 3.00551C56.8304 2.94701 56.8134 2.834 56.8314 2.66947L57.0233 1.13157C57.0612 0.784231 57.1709 0.690002 57.5341 0.690002H67.6026C67.7826 0.690002 67.8991 0.718753 67.9489 0.775257C67.9952 0.828105 68.0101 0.934632 67.9931 1.09234L67.8011 2.63025C67.7625 2.9839 67.6441 3.09641 67.3142 3.09641H63.7338L62.0722 16.8281C62.0296 17.2176 61.9346 17.318 61.6096 17.318H59.5189Z" fill="white"/>
<path fill-rule="evenodd" clip-rule="evenodd" d="M21.3122 0.69696H13.118C12.9125 0.69696 12.7646 0.819109 12.7122 1.03233L12.7084 1.04729L10.7864 16.8857L10.7844 16.9161C10.7844 17.1456 10.9381 17.3122 11.1496 17.3122H19.6802C19.9131 17.3122 20.0694 17.1529 20.0694 16.9161V16.8427C20.0694 16.5507 19.8807 16.4468 19.7042 16.4468H11.7151L12.6093 9.06771H19.8902C20.1296 9.06771 20.3032 8.90119 20.3032 8.67168V8.59823C20.3032 8.3064 20.1148 8.20237 19.9382 8.20237H12.7174L13.5273 1.5623H21.264C21.5036 1.5623 21.6772 1.39578 21.6772 1.16628V1.09299C21.6772 0.800994 21.4887 0.69696 21.3122 0.69696Z" fill="white"/>
</svg>
