<svg width="20" height="20" fill="none" xmlns="http://www.w3.org/2000/svg"><g clip-path="url(#a)"><path d="M11.1 1.7a8.3 8.3 0 0 0-4.4 16l.1-2 1-4.5-.2-1.3c0-1.3.7-2.2 1.6-2.2A1.1 1.1 0 0 1 10.3 9c0 .7-.4 1.8-.7 3a1.3 1.3 0 0 0 1.3 1.5c1.6 0 2.7-2 2.7-4.4 0-1.8-1.3-3.2-3.5-3.2a4 4 0 0 0-4.1 4c0 .6.2 1.2.5 1.6a.4.4 0 0 1 .2.5 31 31 0 0 1-.4.9.3.3 0 0 1-.2 0c-1.2-.5-1.7-1.8-1.7-3.2 0-2.4 2-5.2 6-5.2 3.1 0 5.2 2.3 5.2 4.7 0 3.3-1.8 5.8-4.5 5.8a2.4 2.4 0 0 1-2-1l-.6 2.2-.9 1.8a8 8 0 0 0 5.6-.3 8.3 8.3 0 0 0-2-16Z" fill="#fff"/></g><defs><clipPath id="a"><path fill="#fff" d="M0 0h20v20H0z"/></clipPath></defs></svg>