<svg width="25" height="24" fill="none" xmlns="http://www.w3.org/2000/svg"><g clip-path="url(#a)"><path d="M12.5 0a12 12 0 0 0-12 12c0 2.4.7 4.8 2.1 6.8l-1.3 4a.5.5 0 0 0 .3.6H2l4.2-1.3A12 12 0 0 0 24.5 12a12 12 0 0 0-12-12Zm7.2 16.8a4 4 0 0 1-3.5 2.1 14 14 0 0 1-9.4-6.2c-2-2.5-2-4.9-.2-6.8a2.2 2.2 0 0 1 1.9-.6 1.5 1.5 0 0 1 1.2.9l.4 1 .6 1.4a1.1 1.1 0 0 1 0 1c-.2.5-.6 1-1 1.4a9 9 0 0 0 4.5 3.8c.3-.4.9-1 1-1.3a1 1 0 0 1 1.4-.4 72.5 72.5 0 0 1 3.2 1.7 2 2 0 0 1-.1 2Z" fill="#25D366"/></g><defs><clipPath id="a"><path fill="#fff" transform="translate(.5)" d="M0 0h24v24H0z"/></clipPath></defs></svg>