<svg width="22" height="22" fill="none" xmlns="http://www.w3.org/2000/svg"><path d="M10.999 2.238c2.848 0 3.185.011 4.31.063 1.04.047 1.605.22 1.98.367.498.193.854.424 1.227.798.373.373.605.728.798 1.226.146.376.32.94.367 1.98.052 1.126.062 1.463.062 4.311s-.01 3.186-.062 4.31c-.047 1.04-.221 1.605-.367 1.981a3.304 3.304 0 0 1-.798 1.226 3.307 3.307 0 0 1-1.226.798c-.376.146-.941.32-1.981.368-1.125.051-1.462.062-4.31.062-2.849 0-3.186-.011-4.31-.062-1.04-.048-1.605-.222-1.981-.368a3.306 3.306 0 0 1-1.227-.797 3.305 3.305 0 0 1-.798-1.227c-.146-.376-.32-.94-.367-1.98-.051-1.125-.062-1.463-.062-4.31 0-2.849.01-3.186.062-4.311.048-1.04.221-1.605.367-1.98.194-.499.425-.854.798-1.227a3.305 3.305 0 0 1 1.227-.798c.376-.146.94-.32 1.98-.367 1.125-.052 1.463-.063 4.31-.063Zm0-1.922C8.102.316 7.739.33 6.6.381 5.465.432 4.69.613 4.01.876a5.229 5.229 0 0 0-1.889 1.23 5.229 5.229 0 0 0-1.23 1.89C.628 4.675.448 5.45.396 6.586c-.052 1.137-.064 1.5-.064 4.397 0 2.897.012 3.26.064 4.398.052 1.135.232 1.91.496 2.59a5.229 5.229 0 0 0 1.23 1.889 5.23 5.23 0 0 0 1.89 1.23c.678.264 1.453.444 2.589.496 1.138.052 1.5.064 4.398.064 2.897 0 3.26-.012 4.397-.064 1.136-.052 1.911-.232 2.59-.496a5.229 5.229 0 0 0 1.889-1.23 5.23 5.23 0 0 0 1.23-1.89c.264-.678.444-1.454.496-2.59.052-1.137.064-1.5.064-4.397 0-2.897-.012-3.26-.064-4.398-.052-1.135-.232-1.91-.496-2.589a5.229 5.229 0 0 0-1.23-1.89 5.228 5.228 0 0 0-1.89-1.23c-.678-.263-1.453-.444-2.588-.495-1.138-.052-1.501-.065-4.398-.065Zm0 5.19a5.478 5.478 0 1 0 0 10.955 5.478 5.478 0 0 0 0-10.955Zm0 9.033a3.556 3.556 0 1 1 0-7.112 3.556 3.556 0 0 1 0 7.112Zm6.974-9.25a1.28 1.28 0 1 1-2.56 0 1.28 1.28 0 0 1 2.56 0Z" fill="#DDD"/></svg>