<svg width="24" height="25" viewBox="0 0 24 25" fill="none" xmlns="http://www.w3.org/2000/svg">
<path d="M19.25 8C19.25 9.1945 18.802 10.6926 18.0665 12.3208C17.338 13.9335 16.3599 15.604 15.3714 17.1227C14.3844 18.6391 13.396 19.9904 12.6537 20.9632C12.4046 21.2897 12.1836 21.5731 12 21.8054C11.8164 21.5731 11.5954 21.2897 11.3463 20.9632C10.604 19.9904 9.61557 18.6391 8.62858 17.1227C7.64006 15.604 6.66201 13.9335 5.93349 12.3208C5.19797 10.6926 4.75 9.1945 4.75 8C4.75 3.99594 7.99594 0.75 12 0.75C16.0041 0.75 19.25 3.99594 19.25 8Z" stroke="#060606" stroke-width="1.5"/>
<circle cx="12" cy="8" r="3.25" stroke="#060606" stroke-width="1.5"/>
</svg>
