<svg version="1.1" id="Layer_1" xmlns="http://www.w3.org/2000/svg" xmlns:xlink="http://www.w3.org/1999/xlink" x="0px" y="0px"
	 width="20" viewBox="0 0 2400 2453" enable-background="new 0 0 2400 2453" xml:space="preserve">
<path fill="#FEFEFE" opacity="1.000000" stroke="none" 
	d="
M2.000000,4.000000 
	C2.332117,3.333333 2.629390,2.112319 3.001938,2.088902 
	C5.654881,1.922154 8.323196,2.000000 10.986619,2.000000 
	C246.699539,2.000000 482.412445,2.000000 719.026978,2.708255 
	C741.532471,34.957783 763.098938,66.524803 784.747803,98.035225 
	C836.698914,173.651260 888.706421,249.228516 940.656616,324.845154 
	C976.421448,376.903015 1012.096619,429.022400 1047.868652,481.075317 
	C1102.476685,560.537109 1157.168091,639.941833 1211.757935,719.416199 
	C1247.124756,770.904846 1282.358765,822.484558 1317.689331,873.998047 
	C1324.196045,883.484985 1330.881104,892.849548 1337.855469,902.800781 
	C1340.050537,900.403503 1341.632690,898.763428 1343.118408,897.040283 
	C1364.584106,872.145935 1386.074463,847.272705 1407.484253,822.330444 
	C1444.888916,778.754211 1482.176025,735.076965 1519.635132,691.547668 
	C1560.132690,644.487610 1600.829590,597.598999 1641.332397,550.543579 
	C1687.459961,496.953613 1733.457520,443.251740 1779.533203,389.617065 
	C1826.043945,335.475769 1872.567017,281.345032 1919.111816,227.232971 
	C1954.626587,185.944107 1990.178345,144.687134 2025.723022,103.424263 
	C2052.807861,71.982277 2079.938232,40.579506 2106.923828,9.052453 
	C2108.518799,7.189070 2109.000244,4.372832 2110.000000,1.999995 
	C2181.375244,2.000000 2252.750244,2.000000 2324.659180,2.531789 
	C2301.208008,31.018925 2277.259277,59.005238 2253.230469,86.922646 
	C2212.739014,133.966675 2172.163818,180.938797 2131.685059,227.993912 
	C2094.233154,271.530579 2056.905518,315.174408 2019.442261,358.701080 
	C1978.949707,405.747406 1938.313599,452.670135 1897.832031,499.726013 
	C1860.375366,543.265625 1823.103027,586.963745 1785.636963,630.495300 
	C1732.575439,692.147400 1679.372070,753.677612 1626.300293,815.320984 
	C1569.984497,880.732239 1513.743896,946.208191 1457.490967,1011.673584 
	C1449.140259,1021.391968 1440.902832,1031.207397 1432.743896,1040.823608 
	C1436.270386,1046.215088 1439.087769,1050.723511 1442.100586,1055.097412 
	C1476.773926,1105.434082 1511.521606,1155.719604 1546.159424,1206.080811 
	C1578.192871,1252.655396 1610.097290,1299.318481 1642.093994,1345.918335 
	C1689.302612,1414.672974 1736.525879,1483.417725 1783.774536,1552.145020 
	C1824.280396,1611.064331 1864.867554,1669.927856 1905.348267,1728.864380 
	C1933.185791,1769.393311 1960.842529,1810.046387 1988.688110,1850.569824 
	C2027.663208,1907.290161 2066.771729,1963.918701 2105.760498,2020.629761 
	C2134.004639,2061.712646 2162.111328,2102.890381 2190.343262,2143.981445 
	C2233.634033,2206.990234 2276.995117,2269.951416 2320.297119,2332.952393 
	C2347.558838,2372.616211 2374.767334,2412.316162 2402.000000,2452.000000 
	C2402.000000,2453.331787 2402.000000,2454.663330 2402.000000,2455.997559 
	C2163.958252,2456.000000 1925.916382,2456.000000 1687.642822,2455.517090 
	C1685.573853,2451.900146 1683.920654,2448.640381 1681.870605,2445.652588 
	C1663.998291,2419.606934 1646.017334,2393.635498 1628.140991,2367.592529 
	C1595.990601,2320.755371 1563.945435,2273.845947 1531.755249,2227.036133 
	C1489.377197,2165.411133 1446.865845,2103.877930 1404.480835,2042.258057 
	C1376.234985,2001.193604 1348.136353,1960.027954 1319.924316,1918.940308 
	C1276.278198,1855.375000 1232.577393,1791.847046 1188.925415,1728.285767 
	C1146.599121,1666.654907 1104.320312,1604.991577 1061.984741,1543.367065 
	C1053.033325,1530.337158 1043.926147,1517.414429 1034.687988,1504.151123 
	C1033.174683,1505.400757 1032.027710,1506.105103 1031.188965,1507.075928 
	C1008.186096,1533.704590 985.174133,1560.325684 962.246338,1587.018921 
	C918.134216,1638.375610 874.091858,1689.792236 829.985168,1741.153564 
	C781.337097,1797.802979 732.671021,1854.437134 683.971069,1911.041870 
	C650.410767,1950.049561 616.748657,1988.969604 583.187378,2027.976562 
	C538.809692,2079.554932 494.501801,2131.193604 450.134979,2182.781250 
	C402.301880,2238.399658 354.445892,2293.998047 306.579529,2349.587646 
	C277.340546,2383.544678 248.047424,2417.455078 218.879120,2451.472656 
	C218.009277,2452.487061 218.267685,2454.469238 218.000000,2456.000000 
	C147.987808,2456.000000 77.975578,2456.022949 7.963696,2455.877441 
	C6.077501,2455.873535 2.770703,2458.295654 2.689992,2453.230957 
	C5.365181,2450.785889 7.601698,2449.328857 9.291802,2447.394775 
	C16.278309,2439.398926 23.053957,2431.219238 29.988146,2423.176758 
	C84.621605,2359.811523 139.324158,2296.505859 193.904114,2233.094482 
	C238.074631,2181.777100 282.063477,2130.303223 326.207916,2078.963379 
	C372.531616,2025.089478 418.960632,1971.306274 465.313965,1917.458008 
	C507.546478,1868.396851 549.730164,1819.293823 591.951843,1770.223511 
	C652.357910,1700.019287 712.788208,1629.835693 773.190430,1559.628052 
	C815.409363,1510.555542 857.603821,1461.461792 899.799072,1412.368652 
	C913.176392,1396.804565 926.520691,1381.211914 939.752136,1365.781494 
	C909.502808,1321.686523 879.635437,1278.102173 849.719543,1234.550903 
	C809.256287,1175.645142 768.743408,1116.773193 728.275513,1057.870605 
	C701.358826,1018.692261 674.500183,979.474060 647.585571,940.294373 
	C604.303894,877.288940 561.020264,814.284790 517.695068,751.309265 
	C470.603821,682.859558 423.443359,614.457397 376.352142,546.007690 
	C338.851074,491.497833 301.399109,436.954193 263.942627,382.413666 
	C210.703171,304.891388 157.479233,227.358414 104.249306,149.829559 
	C72.438423,103.497345 40.652168,57.148155 8.756939,10.874070 
	C6.960839,8.268261 4.272867,6.277190 2.000000,4.000000 
M371.721008,275.324005 
	C386.758423,296.867188 401.778320,318.422607 416.836334,339.951355 
	C473.026123,420.287048 529.248535,500.599976 585.419861,580.948547 
	C634.551697,651.227844 683.607056,721.560669 732.740540,791.838806 
	C788.913452,872.185852 845.145996,952.491333 901.332947,1032.828491 
	C950.668640,1103.369873 999.976746,1173.930298 1049.297852,1244.481689 
	C1096.130859,1311.473999 1142.969849,1378.462036 1189.797241,1445.458130 
	C1238.921997,1515.741089 1288.031494,1586.034668 1337.156372,1656.317505 
	C1398.462158,1744.027954 1459.783203,1831.727661 1521.084839,1919.440918 
	C1556.874023,1970.650269 1592.630737,2021.882324 1628.415649,2073.094727 
	C1668.952026,2131.106934 1709.491455,2189.116699 1750.055420,2247.109619 
	C1762.822632,2265.362305 1775.673462,2283.556641 1788.279541,2301.483887 
	C1896.128540,2301.483887 2003.546509,2301.483887 2111.947510,2301.483887 
	C2109.931641,2298.479004 2108.532715,2296.316406 2107.057861,2294.206787 
	C2060.402100,2227.466309 2013.731567,2160.736084 1967.078735,2093.993652 
	C1917.760620,2023.438477 1868.472534,1952.862061 1819.144897,1882.313477 
	C1762.968506,1801.969482 1706.745728,1721.657837 1650.574829,1641.309937 
	C1601.442871,1571.030762 1552.375732,1500.706299 1503.242310,1430.428101 
	C1447.073608,1350.086914 1390.843994,1269.788452 1334.677002,1189.446045 
	C1285.545044,1119.166382 1236.482910,1048.838013 1187.353882,978.556335 
	C1135.943115,905.010437 1084.489136,831.494629 1033.054565,757.965271 
	C983.526489,687.161316 933.985779,616.366150 884.474915,545.550049 
	C827.918396,464.656189 771.376831,383.751801 714.851929,302.835815 
	C683.836121,258.436279 652.852905,214.013824 621.899902,169.570435 
	C618.545288,164.753769 615.102417,161.857544 608.277161,161.877945 
	C505.619537,162.184982 402.960785,162.086548 300.302277,162.120209 
	C298.231689,162.120895 296.161224,162.562363 293.203461,162.899246 
	C319.534119,200.640167 345.187531,237.410370 371.721008,275.324005 
z"/>
<path fill="#000000" opacity="1.000000" stroke="none" 
	d="
M2402.000000,2451.062744 
	C2374.767334,2412.316162 2347.558838,2372.616211 2320.297119,2332.952393 
	C2276.995117,2269.951416 2233.634033,2206.990234 2190.343262,2143.981445 
	C2162.111328,2102.890381 2134.004639,2061.712646 2105.760498,2020.629761 
	C2066.771729,1963.918701 2027.663208,1907.290161 1988.688110,1850.569824 
	C1960.842529,1810.046387 1933.185791,1769.393311 1905.348267,1728.864380 
	C1864.867554,1669.927856 1824.280396,1611.064331 1783.774536,1552.145020 
	C1736.525879,1483.417725 1689.302612,1414.672974 1642.093994,1345.918335 
	C1610.097290,1299.318481 1578.192871,1252.655396 1546.159424,1206.080811 
	C1511.521606,1155.719604 1476.773926,1105.434082 1442.100586,1055.097412 
	C1439.087769,1050.723511 1436.270386,1046.215088 1432.743896,1040.823608 
	C1440.902832,1031.207397 1449.140259,1021.391968 1457.490967,1011.673584 
	C1513.743896,946.208191 1569.984497,880.732239 1626.300293,815.320984 
	C1679.372070,753.677612 1732.575439,692.147400 1785.636963,630.495300 
	C1823.103027,586.963745 1860.375366,543.265625 1897.832031,499.726013 
	C1938.313599,452.670135 1978.949707,405.747406 2019.442261,358.701080 
	C2056.905518,315.174408 2094.233154,271.530579 2131.685059,227.993912 
	C2172.163818,180.938797 2212.739014,133.966675 2253.230469,86.922646 
	C2277.259277,59.005238 2301.208008,31.018925 2325.596436,2.531789 
	C2351.324463,2.000000 2376.649170,2.000000 2402.000000,2.000000 
	C2402.000000,818.041809 2402.000000,1634.083618 2402.000000,2451.062744 
z"/>
<path fill="#000000" opacity="1.000000" stroke="none" 
	d="
M2.000000,4.937315 
	C4.272867,6.277190 6.960839,8.268261 8.756939,10.874070 
	C40.652168,57.148155 72.438423,103.497345 104.249306,149.829559 
	C157.479233,227.358414 210.703171,304.891388 263.942627,382.413666 
	C301.399109,436.954193 338.851074,491.497833 376.352142,546.007690 
	C423.443359,614.457397 470.603821,682.859558 517.695068,751.309265 
	C561.020264,814.284790 604.303894,877.288940 647.585571,940.294373 
	C674.500183,979.474060 701.358826,1018.692261 728.275513,1057.870605 
	C768.743408,1116.773193 809.256287,1175.645142 849.719543,1234.550903 
	C879.635437,1278.102173 909.502808,1321.686523 939.752136,1365.781494 
	C926.520691,1381.211914 913.176392,1396.804565 899.799072,1412.368652 
	C857.603821,1461.461792 815.409363,1510.555542 773.190430,1559.628052 
	C712.788208,1629.835693 652.357910,1700.019287 591.951843,1770.223511 
	C549.730164,1819.293823 507.546478,1868.396851 465.313965,1917.458008 
	C418.960632,1971.306274 372.531616,2025.089478 326.207916,2078.963379 
	C282.063477,2130.303223 238.074631,2181.777100 193.904114,2233.094482 
	C139.324158,2296.505859 84.621605,2359.811523 29.988146,2423.176758 
	C23.053957,2431.219238 16.278309,2439.398926 9.291802,2447.394775 
	C7.601698,2449.328857 5.365181,2450.785889 2.689992,2452.230957 
	C2.000000,1636.624878 2.000000,821.249756 2.000000,4.937315 
z"/>
<path fill="#000000" opacity="1.000000" stroke="none" 
	d="
M218.937317,2456.000000 
	C218.267685,2454.469238 218.009277,2452.487061 218.879120,2451.472656 
	C248.047424,2417.455078 277.340546,2383.544678 306.579529,2349.587646 
	C354.445892,2293.998047 402.301880,2238.399658 450.134979,2182.781250 
	C494.501801,2131.193604 538.809692,2079.554932 583.187378,2027.976562 
	C616.748657,1988.969604 650.410767,1950.049561 683.971069,1911.041870 
	C732.671021,1854.437134 781.337097,1797.802979 829.985168,1741.153564 
	C874.091858,1689.792236 918.134216,1638.375610 962.246338,1587.018921 
	C985.174133,1560.325684 1008.186096,1533.704590 1031.188965,1507.075928 
	C1032.027710,1506.105103 1033.174683,1505.400757 1034.687988,1504.151123 
	C1043.926147,1517.414429 1053.033325,1530.337158 1061.984741,1543.367065 
	C1104.320312,1604.991577 1146.599121,1666.654907 1188.925415,1728.285767 
	C1232.577393,1791.847046 1276.278198,1855.375000 1319.924316,1918.940308 
	C1348.136353,1960.027954 1376.234985,2001.193604 1404.480835,2042.258057 
	C1446.865845,2103.877930 1489.377197,2165.411133 1531.755249,2227.036133 
	C1563.945435,2273.845947 1595.990601,2320.755371 1628.140991,2367.592529 
	C1646.017334,2393.635498 1663.998291,2419.606934 1681.870605,2445.652588 
	C1683.920654,2448.640381 1685.573853,2451.900146 1686.705566,2455.517090 
	C1197.291504,2456.000000 708.583069,2456.000000 218.937317,2456.000000 
z"/>
<path fill="#000000" opacity="1.000000" stroke="none" 
	d="
M2109.062744,1.999995 
	C2109.000244,4.372832 2108.518799,7.189070 2106.923828,9.052453 
	C2079.938232,40.579506 2052.807861,71.982277 2025.723022,103.424263 
	C1990.178345,144.687134 1954.626587,185.944107 1919.111816,227.232971 
	C1872.567017,281.345032 1826.043945,335.475769 1779.533203,389.617065 
	C1733.457520,443.251740 1687.459961,496.953613 1641.332397,550.543579 
	C1600.829590,597.598999 1560.132690,644.487610 1519.635132,691.547668 
	C1482.176025,735.076965 1444.888916,778.754211 1407.484253,822.330444 
	C1386.074463,847.272705 1364.584106,872.145935 1343.118408,897.040283 
	C1341.632690,898.763428 1340.050537,900.403503 1337.855469,902.800781 
	C1330.881104,892.849548 1324.196045,883.484985 1317.689331,873.998047 
	C1282.358765,822.484558 1247.124756,770.904846 1211.757935,719.416199 
	C1157.168091,639.941833 1102.476685,560.537109 1047.868652,481.075317 
	C1012.096619,429.022400 976.421448,376.903015 940.656616,324.845154 
	C888.706421,249.228516 836.698914,173.651260 784.747803,98.035225 
	C763.098938,66.524803 741.532471,34.957783 719.964233,2.708255 
	C1182.708496,2.000000 1645.416992,2.000000 2109.062744,1.999995 
z"/>
<path fill="#010101" opacity="1.000000" stroke="none" 
	d="
M371.280975,274.752289 
	C345.187531,237.410370 319.534119,200.640167 293.203461,162.899246 
	C296.161224,162.562363 298.231689,162.120895 300.302277,162.120209 
	C402.960785,162.086548 505.619537,162.184982 608.277161,161.877945 
	C615.102417,161.857544 618.545288,164.753769 621.899902,169.570435 
	C652.852905,214.013824 683.836121,258.436279 714.851929,302.835815 
	C771.376831,383.751801 827.918396,464.656189 884.474915,545.550049 
	C933.985779,616.366150 983.526489,687.161316 1033.054565,757.965271 
	C1084.489136,831.494629 1135.943115,905.010437 1187.353882,978.556335 
	C1236.482910,1048.838013 1285.545044,1119.166382 1334.677002,1189.446045 
	C1390.843994,1269.788452 1447.073608,1350.086914 1503.242310,1430.428101 
	C1552.375732,1500.706299 1601.442871,1571.030762 1650.574829,1641.309937 
	C1706.745728,1721.657837 1762.968506,1801.969482 1819.144897,1882.313477 
	C1868.472534,1952.862061 1917.760620,2023.438477 1967.078735,2093.993652 
	C2013.731567,2160.736084 2060.402100,2227.466309 2107.057861,2294.206787 
	C2108.532715,2296.316406 2109.931641,2298.479004 2111.947510,2301.483887 
	C2003.546509,2301.483887 1896.128540,2301.483887 1788.279541,2301.483887 
	C1775.673462,2283.556641 1762.822632,2265.362305 1750.055420,2247.109619 
	C1709.491455,2189.116699 1668.952026,2131.106934 1628.415649,2073.094727 
	C1592.630737,2021.882324 1556.874023,1970.650269 1521.084839,1919.440918 
	C1459.783203,1831.727661 1398.462158,1744.027954 1337.156372,1656.317505 
	C1288.031494,1586.034668 1238.921997,1515.741089 1189.797241,1445.458130 
	C1142.969849,1378.462036 1096.130859,1311.473999 1049.297852,1244.481689 
	C999.976746,1173.930298 950.668640,1103.369873 901.332947,1032.828491 
	C845.145996,952.491333 788.913452,872.185852 732.740540,791.838806 
	C683.607056,721.560669 634.551697,651.227844 585.419861,580.948547 
	C529.248535,500.599976 473.026123,420.287048 416.836334,339.951355 
	C401.778320,318.422607 386.758423,296.867188 371.280975,274.752289 
z"/>
</svg>