<svg xmlns="http://www.w3.org/2000/svg" xmlns:xlink="http://www.w3.org/1999/xlink" id="Layer_1" x="0" y="0" version="1.1" viewBox="0 0 247.64 178.12" xml:space="preserve"><defs><path id="reuse-0" fill="#262b43" d="M-806.49-850.75h29.75v25.48h-29.75z" clip-path="url(#SVGID_5_)"/><path id="SVGID_4_" d="M-845.49-890.77h1920v1920h-1920z"/><path id="SVGID_2_" d="M-786.68-830.27h-.53c-.4 0-.73-.33-.73-.73s.33-.73.73-.73h.53c1.95 0 3.53-1.63 3.53-3.63s-1.59-3.63-3.53-3.63h-12.1l3.95 4.06c.28.29.28.74 0 1.03-.27.28-.71.28-.98.02-.01 0-.01-.01-.01-.01l-5.65-5.82 5.65-5.82c.27-.28.71-.28.98-.01l.01.01c.28.29.28.74 0 1.03l-3.95 4.06h12.1c2.73 0 4.95 2.28 4.95 5.09-.01 2.79-2.23 5.08-4.95 5.08z"/></defs><linearGradient id="SVGID_1_" x1="-174.2822" x2="-173.5751" y1="510.1177" y2="509.4106" gradientUnits="userSpaceOnUse"><stop offset="0" stop-color="#64aa53"/><stop offset=".9831" stop-color="#283922"/></linearGradient><path d="M243.82 142.11c-2.11 0-3.82-1.71-3.82-3.82s1.71-3.82 3.82-3.82 3.82 1.71 3.82 3.82c0 2.12-1.71 3.82-3.82 3.82m0-7.17c-1.86 0-3.35 1.5-3.35 3.35 0 1.86 1.49 3.35 3.35 3.35 1.85 0 3.35-1.5 3.35-3.35s-1.5-3.35-3.35-3.35m1.48 2.45c0 .39-.2.74-.5.93-.2.12-.39.17-.69.21.55.21.69.33 1.34 1.81h-.61c-.68-1.48-.85-1.74-1.84-1.74h-.24v1.74h-.5v-4.02h1.67c1.37.01 1.37.96 1.37 1.07m-2.53.79h.67c.66 0 1.28-.06 1.28-.75 0-.65-.52-.69-1.2-.69h-.75v1.44zM58.9 141.91h-6.89v16.71c0 4.73-1.89 7.12-5.77 7.12-1.51 0-2.62-.6-3.41-1.39-.99-1-1.47-2.65-1.47-5.07V141.9h-6.84v17.95c0 3.96.9 6.78 2.75 8.64 1.77 1.78 3.93 2.64 7.51 2.64 2.5 0 5.56-1.71 7.31-3.95v3.2h6.8v-28.47zM148.22 162.4c-.18-2.14 1.06-3.68 4.31-4.24.85-.17 1.72-.25 2.57-.38 1.29-.19 2.82-.55 4.13-1.44v4.37c0 3.53-3.5 4.85-6.05 4.81-2.57-.04-4.78-.98-4.96-3.12m17.84-12.81c0-2.13-.71-3.92-2.1-5.32-1.97-1.98-4.78-3.13-8.85-3.11-4.07.02-10.94.86-11.73 8.62h6.89c-.1-3.62 4.49-3.3 4.49-3.3 1.47 0 2.8.46 3.77 1.24.6.48.99 1.22 1.04 2.42.08 1.93-.85 2.86-7.29 3.49-4.97.48-10.9 1.84-10.9 9.01 0 2.29.78 4.28 2.25 5.76 1.78 1.79 4.47 2.77 7.57 2.77 4.11 0 6.48-1.03 8.59-3.4l.33 2.64h6.61v-1.07c-.86-.68-.67-3.5-.67-3.5v-16.25zM101.37 165.52c-1.93 0-3.19-.62-4.4-1.83-1.64-1.64-2.54-4.33-2.54-7.56 0-3.08.98-5.84 2.7-7.56 1.24-1.25 2.45-1.88 4.24-1.88 4.01 0 6.12 2.58 6.75 7.27.09.71.13 3.3.09 3.78-.46 5.02-2.6 7.78-6.84 7.78m13.54 12.58v-36.18l-6.53-.02v3.57c-1.76-2.44-4.22-4.32-7.85-4.32-8.19 0-12.94 5.81-12.94 15.15 0 4.77 1.5 9.01 4.12 11.64 2.12 2.13 4.52 3.2 7.8 3.2 3.72 0 6.44-1.71 8.51-4.27v11.24l6.89-.01zM0 170.39h7.46v-16.9h15.65v16.9h7.47v-38.01h-7.47v14.55H7.46v-14.55H0zM74.18 165.65c-2.94.08-5.24-1.2-5.67-3.76h-6.93c.33 7.2 7.53 9.36 12.51 9.26 4.98-.11 7.24-1.28 9.47-3.52 1.56-1.57 2.35-3.55 2.35-5.9 0-5.56-4.2-7.38-8.98-8.52l-1.5-.35c-3.71-.73-6.77-1.47-6.59-3.63.18-2.16 2.5-2.62 4.33-2.68 1.82-.06 3.35.24 4.43 2.43h7.14c-.71-5.52-5.77-7.92-11.13-7.84-5.28.08-11.55 2.18-11.55 8.31 0 5.77 3.98 7.53 8.77 8.57.64.15 1.29.29 1.93.42 3.57.76 6.26 1.47 6.31 3.84.05 2.37-1.94 3.3-4.89 3.37M143.2 141.91h-7.13l-6.09 21.91-6.32-21.91h-7.43l9.85 28.48h7.36zM182.39 140.98c-2.23.33-4.89 2.88-6.04 5.91v-4.98h-6.49v28.49h6.89v-13.6c0-3.09.2-5.43 1.62-7.26 1.07-1.38 2.97-2.76 4.86-2.71 1.89.05 2.98.44 2.98.44v-6.16s-1.82-.43-3.82-.13M213.12 150.92c0-2.98-.86-5.37-2.55-7.06-1.76-1.77-4.26-2.71-7.49-2.71-3.36 0-5.9 1.79-7.94 5.02v-4.27h-6.49v28.49h6.84v-16.8c0-2.05.43-3.95 1.71-5.23 1.13-1.14 2.76-1.78 4.72-1.74 3.16.06 4.23 1.88 4.35 5.96v17.81h6.84v-19.47zM222.15 162.41c-.18-2.14 1.06-3.68 4.3-4.24.85-.17 1.73-.25 2.57-.38 1.29-.19 2.82-.55 4.13-1.44v4.37c0 3.53-3.5 4.85-6.05 4.81-2.55-.04-4.76-.98-4.95-3.12M240 149.6c0-2.13-.71-3.92-2.1-5.32-1.97-1.98-5.25-3.14-9.31-3.12-4.07.02-10.93.86-11.73 8.61h6.88c-.09-3.62 4.49-3.3 4.49-3.3 1.46 0 3.26.46 4.24 1.24.6.48 1 1.21 1.04 2.41.08 1.93-.85 2.86-7.29 3.48-4.97.49-10.9 1.84-10.9 9.01 0 2.28.78 4.28 2.25 5.75 1.78 1.79 4.47 2.77 7.57 2.77 4.1 0 6.47-1.03 8.58-3.4l.33 2.64h6.61v-1.07c-.85-.68-.66-3.5-.66-3.5v-16.2zM120.03 0c5.2 0 8.59.92 10.02 1.23-.71 6.66-.51 11.99 0 13.53 1.73 5.12 11.59 7.51 15.57 5.15C150 17.25 149 9.17 149 3.84c0 0 6.46 1.53 10.42 3.02 3.22 1.21 7.96 3.58 7.96 3.58.94 6.74.05 16.71-6.58 20.09 5 5.02 6.68 10.96 8.82 21.92 1.73 9.83 1.32 16.7 1.22 22.43-.51 7.79-.51 11.99-2.34 19.06-2.65 8.09-4.22 11.89-9.59 17.51-10.9 11.43-28.66 10.76-38.88 10.75-10.22.01-27.98.68-38.88-10.75-5.37-5.62-6.94-9.42-9.59-17.51-1.83-7.07-1.83-11.27-2.34-19.06-.11-5.73-.51-12.6 1.22-22.43 2.14-10.97 3.82-16.9 8.82-21.92-6.63-3.38-7.52-13.35-6.58-20.09 0 0 4.75-2.37 7.96-3.58 3.96-1.49 10.42-3.02 10.42-3.02 0 5.33-1 13.4 3.38 16.07 3.98 2.35 13.83-.03 15.57-5.15.51-1.54.71-6.87 0-13.53C111.44.92 114.83 0 120.03 0m-.02 107.57c11.93 0 15.74 0 21.65-1.64 2.04-.72 5.71-1.74 8.37-5.94 4.89-8.4 4.89-24.18 4.89-31.75 0-7.59 0-21-4.89-29.3-2.65-4.3-6.28-5.49-8.37-6.04-6.04-1.61-9.92-1.51-21.65-1.54h.01c-11.73.03-15.61-.07-21.65 1.54-2.09.56-5.71 1.74-8.37 6.04-4.89 8.3-4.89 21.72-4.89 29.3 0 7.58 0 23.35 4.89 31.75 2.65 4.2 6.32 5.22 8.37 5.94 5.91 1.65 9.72 1.64 21.64 1.64z" class="st0"/><path d="M120.03 73.62c10.2 0 9.98.01 9.98 3.28v20.64h13.87V40.37h-13.87v17.17c0 3.38.22 3.37-9.98 3.37h.01c-10.2 0-9.98.01-9.98-3.37V40.37H96.2v57.18h13.86V76.9c0-3.28-.21-3.28 9.97-3.28z" class="st0"/><defs><use xlink:href="#SVGID_2_"/></defs><clipPath id="SVGID_3_"><use overflow="visible" xlink:href="#SVGID_2_"/></clipPath><g clip-path="url(#SVGID_3_)"><defs><use xlink:href="#SVGID_4_"/></defs><clipPath id="SVGID_5_"><use overflow="visible" xlink:href="#SVGID_4_"/></clipPath><use clip-path="url(#SVGID_5_)" xlink:href="#reuse-0"/></g><g><defs><use id="SVGID_6_" xlink:href="#SVGID_2_"/></defs><clipPath id="SVGID_7_"><use overflow="visible" xlink:href="#SVGID_6_"/></clipPath><g clip-path="url(#SVGID_7_)"><defs><use id="SVGID_8_" xlink:href="#SVGID_4_"/></defs><clipPath id="SVGID_9_"><use overflow="visible" xlink:href="#SVGID_8_"/></clipPath><use clip-path="url(#SVGID_9_)" xlink:href="#reuse-0"/></g></g></svg>