<svg width="16" height="16" viewBox="0 0 16 16" fill="none" xmlns="http://www.w3.org/2000/svg">
<path fill-rule="evenodd" clip-rule="evenodd" d="M2.5 2.875C2.46685 2.875 2.43505 2.88817 2.41161 2.91161C2.38817 2.93505 2.375 2.96685 2.375 3V10.2146L4.23818 8.70838C4.30491 8.65443 4.38812 8.625 4.47393 8.625H10.5C10.5332 8.625 10.5649 8.61183 10.5884 8.58839C10.6118 8.56495 10.625 8.53315 10.625 8.5V3C10.625 2.96685 10.6118 2.93505 10.5884 2.91161C10.5649 2.88817 10.5332 2.875 10.5 2.875H2.5ZM1.88128 2.38128C2.04538 2.21719 2.26794 2.125 2.5 2.125H10.5C10.7321 2.125 10.9546 2.21719 11.1187 2.38128C11.2828 2.54538 11.375 2.76794 11.375 3V8.5C11.375 8.73206 11.2828 8.95462 11.1187 9.11872C10.9546 9.28281 10.7321 9.375 10.5 9.375H4.60655L2.23576 11.2916C2.12339 11.3825 1.96882 11.4007 1.83842 11.3384C1.70802 11.2761 1.625 11.1445 1.625 11V3C1.625 2.76794 1.71719 2.54538 1.88128 2.38128Z" fill="black"/>
<path fill-rule="evenodd" clip-rule="evenodd" d="M10.625 5.5C10.625 5.29289 10.7929 5.125 11 5.125H13.5C13.7321 5.125 13.9546 5.21719 14.1187 5.38128C14.2828 5.54538 14.375 5.76794 14.375 6V14C14.375 14.1445 14.292 14.2761 14.1616 14.3384C14.0312 14.4007 13.8766 14.3825 13.7642 14.2916L11.3934 12.375H5.5C5.26794 12.375 5.04538 12.2828 4.88128 12.1187C4.71719 11.9546 4.625 11.7321 4.625 11.5V9C4.625 8.79289 4.79289 8.625 5 8.625C5.20711 8.625 5.375 8.79289 5.375 9V11.5C5.375 11.5332 5.38817 11.5649 5.41161 11.5884C5.43505 11.6118 5.46685 11.625 5.5 11.625H11.5261C11.6119 11.625 11.6951 11.6544 11.7618 11.7084L13.625 13.2146V6C13.625 5.96685 13.6118 5.93505 13.5884 5.91161C13.5649 5.88817 13.5332 5.875 13.5 5.875H11C10.7929 5.875 10.625 5.70711 10.625 5.5Z" fill="black"/>
</svg>
