<svg width="16" height="16" viewBox="0 0 16 16" fill="none" xmlns="http://www.w3.org/2000/svg">
<path fill-rule="evenodd" clip-rule="evenodd" d="M8.00012 2.375C4.89352 2.375 2.37512 4.8934 2.37512 8C2.37512 11.1066 4.89352 13.625 8.00012 13.625C11.1067 13.625 13.6251 11.1066 13.6251 8C13.6251 4.8934 11.1067 2.375 8.00012 2.375ZM1.62512 8C1.62512 4.47918 4.47931 1.625 8.00012 1.625C11.5209 1.625 14.3751 4.47918 14.3751 8C14.3751 11.5208 11.5209 14.375 8.00012 14.375C4.47931 14.375 1.62512 11.5208 1.62512 8Z" fill="black"/>
<path d="M8 11.875C8.34518 11.875 8.625 11.5952 8.625 11.25C8.625 10.9048 8.34518 10.625 8 10.625C7.65482 10.625 7.375 10.9048 7.375 11.25C7.375 11.5952 7.65482 11.875 8 11.875Z" fill="black"/>
<path fill-rule="evenodd" clip-rule="evenodd" d="M7.1868 4.787C7.57509 4.62616 8.00236 4.58408 8.41457 4.66608C8.82678 4.74807 9.20542 4.95046 9.5026 5.24764C9.79979 5.54483 10.0022 5.92347 10.0842 6.33568C10.1662 6.74789 10.1241 7.17515 9.96324 7.56345C9.80241 7.95174 9.53004 8.28362 9.18059 8.51712C8.93617 8.68043 8.66171 8.79049 8.375 8.8419V9.00025C8.375 9.20735 8.20711 9.37525 8 9.37525C7.79289 9.37525 7.625 9.20735 7.625 9.00025V8.50025C7.625 8.40079 7.66451 8.30541 7.73483 8.23508C7.80516 8.16475 7.90054 8.12525 8 8.12525C8.27195 8.12525 8.53779 8.0446 8.76391 7.89352C8.99003 7.74243 9.16626 7.52768 9.27033 7.27643C9.37441 7.02519 9.40163 6.74872 9.34858 6.482C9.29553 6.21527 9.16457 5.97027 8.97227 5.77797C8.77997 5.58568 8.53497 5.45472 8.26825 5.40167C8.00153 5.34861 7.72506 5.37584 7.47381 5.47991C7.22256 5.58398 7.00782 5.76022 6.85673 5.98634C6.70564 6.21245 6.625 6.4783 6.625 6.75025C6.625 6.95735 6.45711 7.12525 6.25 7.12525C6.04289 7.12525 5.875 6.95735 5.875 6.75025C5.875 6.32996 5.99963 5.91911 6.23313 5.56966C6.46663 5.2202 6.79851 4.94784 7.1868 4.787Z" fill="black"/>
</svg>
