<svg width="16" height="16" viewBox="0 0 16 16" fill="none" xmlns="http://www.w3.org/2000/svg">
<path fill-rule="evenodd" clip-rule="evenodd" d="M3 8.34924C3.20711 8.34924 3.375 8.51714 3.375 8.72424V13C3.375 13.0331 3.38817 13.0649 3.41161 13.0884C3.43505 13.1118 3.46685 13.125 3.5 13.125H12.5C12.5332 13.125 12.5649 13.1118 12.5884 13.0884C12.6118 13.0649 12.625 13.0331 12.625 13V8.72434C12.625 8.51723 12.7929 8.34934 13 8.34934C13.2071 8.34934 13.375 8.51723 13.375 8.72434V13C13.375 13.232 13.2828 13.4546 13.1187 13.6187C12.9546 13.7828 12.7321 13.875 12.5 13.875H3.5C3.26794 13.875 3.04538 13.7828 2.88128 13.6187C2.71719 13.4546 2.625 13.232 2.625 13V8.72424C2.625 8.51714 2.79289 8.34924 3 8.34924Z" fill="black"/>
<path fill-rule="evenodd" clip-rule="evenodd" d="M3.37715 2.875C3.34999 2.875 3.32357 2.88385 3.30188 2.90021C3.28019 2.91656 3.26443 2.93954 3.25696 2.96566L2.49715 5.625H13.5029L12.743 2.96566C12.7356 2.93954 12.7198 2.91656 12.6981 2.90021C12.6764 2.88385 12.65 2.875 12.6229 2.875H3.37715ZM2.85023 2.30145C3.00204 2.18694 3.18701 2.125 3.37715 2.125H12.6229C12.813 2.125 12.998 2.18694 13.1498 2.30145C13.3016 2.41595 13.4119 2.57679 13.4642 2.75962L14.3606 5.89698C14.3929 6.01012 14.3702 6.13188 14.2994 6.22582C14.2285 6.31977 14.1177 6.375 14 6.375H2C1.88233 6.375 1.77148 6.31977 1.70062 6.22582C1.62976 6.13188 1.6071 6.01012 1.63943 5.89698L2.53582 2.75962C2.58806 2.57679 2.69843 2.41595 2.85023 2.30145Z" fill="black"/>
<path fill-rule="evenodd" clip-rule="evenodd" d="M2 5.625C2.20711 5.625 2.375 5.79289 2.375 6V7C2.375 7.43098 2.5462 7.8443 2.85095 8.14905C3.1557 8.45379 3.56902 8.625 4 8.625C4.43098 8.625 4.8443 8.45379 5.14905 8.14905C5.4538 7.8443 5.625 7.43098 5.625 7V6C5.625 5.79289 5.79289 5.625 6 5.625C6.20711 5.625 6.375 5.79289 6.375 6V7C6.375 7.62989 6.12478 8.23398 5.67938 8.67938C5.23398 9.12478 4.62989 9.375 4 9.375C3.37011 9.375 2.76602 9.12478 2.32062 8.67938C1.87522 8.23398 1.625 7.62989 1.625 7V6C1.625 5.79289 1.79289 5.625 2 5.625Z" fill="black"/>
<path fill-rule="evenodd" clip-rule="evenodd" d="M6 5.625C6.20711 5.625 6.375 5.79289 6.375 6V7C6.375 7.43098 6.5462 7.8443 6.85095 8.14905C7.1557 8.45379 7.56902 8.625 8 8.625C8.43098 8.625 8.8443 8.45379 9.14905 8.14905C9.45379 7.8443 9.625 7.43098 9.625 7V6C9.625 5.79289 9.79289 5.625 10 5.625C10.2071 5.625 10.375 5.79289 10.375 6V7C10.375 7.62989 10.1248 8.23398 9.67938 8.67938C9.23398 9.12478 8.62989 9.375 8 9.375C7.37011 9.375 6.76602 9.12478 6.32062 8.67938C5.87522 8.23398 5.625 7.62989 5.625 7V6C5.625 5.79289 5.79289 5.625 6 5.625Z" fill="black"/>
<path fill-rule="evenodd" clip-rule="evenodd" d="M10 5.625C10.2071 5.625 10.375 5.79289 10.375 6V7C10.375 7.43098 10.5462 7.8443 10.851 8.14905C11.1557 8.45379 11.569 8.625 12 8.625C12.431 8.625 12.8443 8.45379 13.149 8.14905C13.4538 7.8443 13.625 7.43098 13.625 7V6C13.625 5.79289 13.7929 5.625 14 5.625C14.2071 5.625 14.375 5.79289 14.375 6V7C14.375 7.62989 14.1248 8.23398 13.6794 8.67938C13.234 9.12478 12.6299 9.375 12 9.375C11.3701 9.375 10.766 9.12478 10.3206 8.67938C9.87522 8.23398 9.625 7.62989 9.625 7V6C9.625 5.79289 9.79289 5.625 10 5.625Z" fill="black"/>
</svg>
