<?xml version="1.0" encoding="utf-8"?>
<!-- Generator: Adobe Illustrator 25.0.0, SVG Export Plug-In . SVG Version: 6.00 Build 0)  -->
<svg version="1.1" id="Ebene_1" xmlns="http://www.w3.org/2000/svg" xmlns:xlink="http://www.w3.org/1999/xlink" x="0px" y="0px"
	 viewBox="0 0 841.89 595.28" style="enable-background:new 0 0 841.89 595.28;" xml:space="preserve">
<g>
	<g>
		<path d="M339.77,401.04l5.15,4.89c18.35,17.48,38.04,29.6,62.69,23.62l75.21-21.03c15.12-3.64,22.25-10.42,33.5-21.13l18.67-17.8
			l-147.42,35.77C371.58,409.23,354.8,407.69,339.77,401.04"/>
		<path d="M339.77,354.19l-92.03-40.82l53.38,50.83l40.37,17.9c14.99,6.68,31.81,8.18,47.76,4.32l157.33-38.13
			c9.49-2.3,18.19-7.06,25.25-13.78l29.12-27.75l-213.4,51.75C371.57,362.38,354.79,360.84,339.77,354.19"/>
		<polygon points="422.92,170.71 468.07,208.35 499.84,190.32 420.95,115.18 350.5,182.28 		"/>
		<path d="M507.62,197.73l-40.66,23.08l-47.04-39.2l-82.57,13.2l-99.34,94.62l106.15,47.08c15.02,6.65,31.81,8.18,47.79,4.32
			l211.93-51.4L507.62,197.73z"/>
		<path d="M437.27,437.58c-21.96,7.2-38.65,8.93-54.77,4.45l38.65,38.07l58.41-55.64L437.27,437.58z"/>
	</g>
</g>
</svg>
