<svg xmlns="http://www.w3.org/2000/svg" width="24.365" height="24.095" viewBox="0 0 24.365 24.095">
  <g id="search-icon" transform="translate(-2438.811 -2013.632) rotate(-45)" style="mix-blend-mode: normal;isolation: isolate">
    <rect id="Rectangle_117" data-name="Rectangle 117" width="3.441" height="10.37" transform="translate(299.118 3170.53)"/>
    <g id="Path_468" data-name="Path 468" transform="translate(293 3156)" fill="none">
      <path d="M7.647,0A7.647,7.647,0,1,1,0,7.647,7.647,7.647,0,0,1,7.647,0Z" stroke="none"/>
      <path d="M 7.647143840789795 2.000003814697266 C 4.533304214477539 2.000003814697266 2.000003814697266 4.533304214477539 2.000003814697266 7.647143840789795 C 2.000003814697266 10.76098442077637 4.533304214477539 13.29428386688232 7.647143840789795 13.29428386688232 C 10.76098442077637 13.29428386688232 13.29428386688232 10.76098442077637 13.29428386688232 7.647143840789795 C 13.29428386688232 4.533304214477539 10.76098442077637 2.000003814697266 7.647143840789795 2.000003814697266 M 7.647143840789795 3.814697265625e-06 C 11.87054443359375 3.814697265625e-06 15.29428386688232 3.423744201660156 15.29428386688232 7.647143840789795 C 15.29428386688232 11.87054443359375 11.87054443359375 15.29428386688232 7.647143840789795 15.29428386688232 C 3.423744201660156 15.29428386688232 3.814697265625e-06 11.87054443359375 3.814697265625e-06 7.647143840789795 C 3.814697265625e-06 3.423744201660156 3.423744201660156 3.814697265625e-06 7.647143840789795 3.814697265625e-06 Z" stroke="none" fill="#000"/>
    </g>
  </g>
</svg>
