<?xml version="1.0" encoding="utf-8"?>
<!-- Generator: Adobe Illustrator 17.0.0, SVG Export Plug-In . SVG Version: 6.00 Build 0)  -->
<!DOCTYPE svg PUBLIC "-//W3C//DTD SVG 1.1//EN" "http://www.w3.org/Graphics/SVG/1.1/DTD/svg11.dtd">
<svg version="1.1" id="Layer_1" xmlns="http://www.w3.org/2000/svg" xmlns:xlink="http://www.w3.org/1999/xlink" x="0px" y="0px"
	 width="168px" height="53px" viewBox="0 0 168 53" enable-background="new 0 0 168 53" xml:space="preserve">
<g>
	<path fill="#CE202F" d="M81.767,18.943c0.151-4.83,1.966-9.054,6.083-12.065c5.425-3.969,12.819-3.025,17.226,2.098
		c5.385,6.258,4.915,15.747-1.061,21.41c-4.882,4.627-12.558,4.618-17.442-0.012C83.351,27.318,81.86,23.532,81.767,18.943z
		 M95.38,8.64c-1.951-0.063-3.668,0.575-5.202,1.713c-5.017,3.724-5.667,11.767-1.337,16.372c3.678,3.911,9.148,3.935,12.864,0.057
		c3.19-3.33,3.863-9.057,1.527-13.155C101.496,10.581,98.97,8.763,95.38,8.64z"/>
	<path fill="#CE202F" d="M147.676,26.608c-2.108,0-4.217,0.015-6.325-0.01c-0.541-0.006-0.821,0.173-0.983,0.698
		c-0.535,1.732-1.127,3.446-1.658,5.179c-0.156,0.51-0.374,0.754-0.944,0.724c-0.882-0.046-1.768-0.008-2.652-0.013
		c-0.779-0.004-0.824-0.051-0.581-0.829c0.629-2.011,1.241-4.029,1.925-6.021c2.313-6.738,4.999-13.324,8.205-19.69
		c0.789-1.566,0.789-1.566,2.531-1.566c0.635,0,1.273,0.038,1.903-0.011c0.629-0.049,0.974,0.184,1.265,0.753
		c2.489,4.87,4.661,9.878,6.614,14.983c1.442,3.769,2.75,7.584,3.91,11.449c0.276,0.921,0.268,0.932-0.712,0.933
		c-0.816,0.001-1.634-0.03-2.448,0.011c-0.572,0.028-0.837-0.17-1.004-0.734c-0.482-1.629-1.066-3.228-1.544-4.858
		c-0.219-0.747-0.561-1.045-1.383-1.018C151.759,26.653,149.717,26.608,147.676,26.608z M147.747,9.461
		c-0.196,0.362-0.3,0.535-0.387,0.716c-1.989,4.152-3.776,8.389-5.396,12.698c-0.226,0.602-0.1,0.729,0.509,0.725
		c3.514-0.02,7.028-0.021,10.542,0.001c0.599,0.004,0.685-0.144,0.477-0.69c-1.179-3.093-2.409-6.164-3.772-9.18
		C149.098,12.354,148.452,10.985,147.747,9.461z"/>
	<path fill="#CE202F" d="M54.344,33.187c-2.046,0-2.036-0.003-2.655-1.98c-0.406-1.297-0.863-2.579-1.263-3.877
		c-0.156-0.507-0.409-0.733-0.965-0.731c-4.284,0.017-8.568,0.016-12.851,0.001c-0.493-0.002-0.729,0.181-0.874,0.645
		c-0.555,1.773-1.159,3.53-1.705,5.306c-0.146,0.473-0.367,0.661-0.86,0.644c-0.86-0.03-1.722-0.006-2.584-0.009
		c-0.931-0.003-0.953-0.035-0.693-0.909c0.794-2.672,1.665-5.319,2.607-7.942c2.269-6.319,4.845-12.506,7.915-18.484
		c0.305-0.593,0.656-0.822,1.313-0.786c0.949,0.053,1.904,0.041,2.855,0.003c0.529-0.021,0.815,0.175,1.056,0.643
		c2.703,5.244,5.033,10.652,7.094,16.176c1.251,3.355,2.422,6.737,3.435,10.172c0.332,1.125,0.331,1.126-0.806,1.127
		C55.024,33.187,54.684,33.187,54.344,33.187z M43.036,23.591c1.768,0,3.536-0.018,5.303,0.01c0.608,0.009,0.687-0.184,0.485-0.715
		c-1.635-4.301-3.375-8.557-5.407-12.689c-0.084-0.171-0.112-0.453-0.357-0.443c-0.232,0.009-0.265,0.283-0.35,0.458
		c-2.034,4.155-3.798,8.425-5.433,12.751c-0.193,0.512-0.042,0.638,0.455,0.634C39.5,23.582,41.268,23.591,43.036,23.591z"/>
	<path fill="#CE202F" d="M67.335,28.648c1.07-2.064,1.995-4.156,2.892-6.259c2.323-5.445,4.364-10.995,6.082-16.66
		c0.157-0.516,0.413-0.676,0.92-0.657c0.838,0.031,1.677,0.006,2.516,0.009c0.953,0.002,0.963,0.014,0.683,0.962
		c-0.745,2.522-1.566,5.019-2.447,7.496c-2.297,6.456-4.922,12.771-8.05,18.874c-0.303,0.592-0.654,0.826-1.312,0.788
		c-0.926-0.053-1.86-0.045-2.787-0.002c-0.576,0.026-0.894-0.174-1.163-0.693c-2.823-5.441-5.201-11.075-7.327-16.819
		c-1.188-3.21-2.288-6.45-3.252-9.735c-0.244-0.832-0.212-0.868,0.679-0.872c0.793-0.003,1.59,0.041,2.38-0.013
		c0.657-0.045,0.959,0.194,1.15,0.828c1.544,5.149,3.4,10.188,5.453,15.155c0.996,2.409,2.078,4.78,3.2,7.133
		C67.027,28.339,67.06,28.534,67.335,28.648z"/>
	<path fill="#CE202F" d="M17.317,20.627c0-3.922-0.013-7.844,0.013-11.766c0.004-0.642-0.164-0.863-0.833-0.855
		C13.55,8.04,10.603,8.009,7.656,8.031C7.068,8.035,6.858,7.861,7.033,7.282c0.072-0.238,0.099-0.488,0.154-0.731
		C7.443,5.408,7.845,5.081,9.023,5.08c6.892-0.002,13.784-0.002,20.675,0c1.248,0,1.623,0.313,1.902,1.563
		c0.308,1.378,0.308,1.378-1.08,1.378c-2.698,0-5.396,0-8.093,0c-0.951,0-0.953,0.002-0.953,0.982c0,7.708,0,15.416-0.001,23.124
		c0,1.057-0.002,1.058-1.03,1.059c-0.725,0.001-1.451,0.002-2.176,0c-0.946-0.002-0.949-0.003-0.95-0.929
		C17.317,28.381,17.317,24.504,17.317,20.627z"/>
	<path fill="#CE202F" d="M112.681,19.091c0-4.375,0.012-8.751-0.013-13.126c-0.004-0.67,0.17-0.946,0.877-0.898
		c0.812,0.055,1.633,0.047,2.447,0.002c0.645-0.036,0.868,0.178,0.861,0.842c-0.03,3.06-0.013,6.121-0.013,9.181
		c0,4.761,0.013,9.522-0.014,14.282c-0.004,0.677,0.169,0.895,0.871,0.889c4.262-0.031,8.524-0.016,12.786-0.015
		c0.846,0,0.849,0.008,0.681,0.842c-0.058,0.289-0.107,0.58-0.177,0.865c-0.207,0.852-0.657,1.225-1.544,1.226
		c-5.35,0.007-10.7-0.006-16.05,0.016c-0.667,0.003-0.717-0.329-0.716-0.845C112.685,27.932,112.681,23.512,112.681,19.091z"/>
</g>
<path fill-rule="evenodd" clip-rule="evenodd" fill="#CE202F" d="M4.623,45.939c1.153,1.385,6.37,2.209,8.37,2.209h142.094
	c1.999,0,7.216-0.824,8.369-2.209H4.623z"/>
</svg>
