<?xml version="1.0" encoding="UTF-8" standalone="no"?>
<svg
   viewBox="0 0 40 40"
   fill="none"
   version="1.1"
   id="svg432"
   sodipodi:docname="affirm.svg"
   inkscape:version="1.1.2 (b8e25be833, 2022-02-05)"
   xmlns:inkscape="http://www.inkscape.org/namespaces/inkscape"
   xmlns:sodipodi="http://sodipodi.sourceforge.net/DTD/sodipodi-0.dtd"
   xmlns="http://www.w3.org/2000/svg"
   xmlns:svg="http://www.w3.org/2000/svg">
  <defs
     id="defs436" />
  <sodipodi:namedview
     id="namedview434"
     pagecolor="#ffffff"
     bordercolor="#666666"
     borderopacity="1.0"
     inkscape:pageshadow="2"
     inkscape:pageopacity="0.0"
     inkscape:pagecheckerboard="0"
     showgrid="false"
     inkscape:zoom="26.45"
     inkscape:cx="14.461248"
     inkscape:cy="13.005671"
     inkscape:window-width="3440"
     inkscape:window-height="1377"
     inkscape:window-x="-8"
     inkscape:window-y="-8"
     inkscape:window-maximized="1"
     inkscape:current-layer="svg432" />
  <rect
     width="40"
     height="26"
     fill="#ffffff"
     id="rect418"
     x="0"
     y="7" />
  <path
     fill-rule="evenodd"
     clip-rule="evenodd"
     d="m 6.09958,24.6664 c -0.39572,0 -0.59732,-0.1949 -0.59732,-0.5152 0,-0.5973 0.66601,-0.7981 1.88082,-0.9273 0,0.7959 -0.53834,1.4425 -1.28723,1.4425 z m 0.52266,-4.4762 c -0.86836,0 -1.86663,0.4085 -2.4087,0.8408 l 0.49503,1.0453 c 0.43455,-0.398 1.13715,-0.7385 1.77106,-0.7385 0.60255,0 0.93555,0.2016 0.93555,0.6078 0,0.2725 -0.22026,0.4107 -0.63689,0.4652 C 5.22077,22.6124 4,23.0424 4,24.2423 c 0,0.9513 0.67721,1.5269 1.73522,1.5269 0.75561,0 1.42759,-0.4196 1.74716,-0.9706 v 0.8213 h 1.40818 v -3.4413 c 0,-1.4187 -0.98483,-1.9913 -2.26757,-1.9913 z"
     fill="#101820"
     id="path420" />
  <path
     fill-rule="evenodd"
     clip-rule="evenodd"
     d="m 20.7556,20.3448 v 5.2684 h 1.5068 v -2.5386 c 0,-1.2059 0.7302,-1.5605 1.2386,-1.5605 0.2293,-0.0015 0.4533,0.0642 0.6444,0.1904 l 0.2755,-1.3925 c -0.2135,-0.0852 -0.442,-0.127 -0.672,-0.1217 -0.7742,0 -1.2611,0.3427 -1.5821,1.04 v -0.8855 z"
     fill="#101820"
     id="path422" />
  <path
     fill-rule="evenodd"
     clip-rule="evenodd"
     d="m 31.4037,20.1902 c -0.7967,0 -1.3925,0.4704 -1.7024,0.9243 -0.2875,-0.5861 -0.896,-0.9243 -1.6277,-0.9243 -0.7959,0 -1.3477,0.442 -1.6023,0.9512 v -0.7967 h -1.453 v 5.2684 h 1.5082 v -2.7126 c 0,-0.9706 0.51,-1.4403 0.9856,-1.4403 0.4308,0 0.8266,0.2785 0.8266,0.9976 v 3.1553 h 1.5052 v -2.7126 c 0,-0.9848 0.4973,-1.4403 0.9953,-1.4403 0.3987,0 0.8213,0.2897 0.8213,0.9871 v 3.1658 h 1.5053 v -3.6422 c 0,-1.1834 -0.7967,-1.7807 -1.7591,-1.7807"
     fill="#101820"
     id="path424" />
  <path
     fill-rule="evenodd"
     clip-rule="evenodd"
     d="M 17.0889,20.3449 H 15.724 v -0.5354 c 0,-0.6974 0.398,-0.896 0.7407,-0.896 0.2337,0.003 0.4644,0.0605 0.672,0.168 l 0.4644,-1.0625 c 0,0 -0.4712,-0.3076 -1.3276,-0.3076 -0.9624,0 -2.0577,0.5428 -2.0577,2.246 v 0.3875 h -2.281 v -0.5354 c 0,-0.6974 0.3972,-0.896 0.7406,-0.896 0.2345,0 0.4652,0.0575 0.672,0.168 l 0.4644,-1.0625 c -0.277,-0.162 -0.7227,-0.3076 -1.3268,-0.3076 -0.9624,0 -2.0577,0.5428 -2.0577,2.246 v 0.3875 H 9.55518 v 1.1618 h 0.87432 v 4.1065 h 1.5053 v -4.1065 h 2.284 v 4.1065 h 1.5052 v -4.1065 h 1.3649 z"
     fill="#101820"
     id="path426" />
  <path
     d="m 19.4915,20.3448 h -1.5037 v 5.2662 h 1.5037 z"
     fill="#101820"
     id="path428" />
  <path
     fill-rule="evenodd"
     clip-rule="evenodd"
     d="m 18.0427,19.4496 h 1.4732 c 0.8594,-2.70216 3.775,-5.07726 7.2425,-5.07726 4.2171,0 7.8615,3.21056 7.8615,8.20866 0.0127,1.0259 -0.1285,2.0481 -0.4182,3.0322 h 1.4299 l 0.0142,-0.0493 c 0.2411,-0.9744 0.3598,-1.9749 0.3539,-2.9784 0,-5.5737 -4.0618,-9.5855 -9.2383,-9.5855 -4.0663,0 -7.6905,2.82234 -8.7179,6.4511 z"
     fill="#4a4af4"
     id="path430" />
</svg>
