<?xml version="1.0" encoding="UTF-8" standalone="no"?>
<svg
   viewBox="0 0 40 40"
   version="1.1"
   id="svg478"
   sodipodi:docname="alix.svg"
   inkscape:version="1.1.2 (b8e25be833, 2022-02-05)"
   xmlns:inkscape="http://www.inkscape.org/namespaces/inkscape"
   xmlns:sodipodi="http://sodipodi.sourceforge.net/DTD/sodipodi-0.dtd"
   xmlns="http://www.w3.org/2000/svg"
   xmlns:svg="http://www.w3.org/2000/svg">
  <defs
     id="defs482" />
  <sodipodi:namedview
     id="namedview480"
     pagecolor="#ffffff"
     bordercolor="#666666"
     borderopacity="1.0"
     inkscape:pageshadow="2"
     inkscape:pageopacity="0.0"
     inkscape:pagecheckerboard="0"
     showgrid="false"
     inkscape:zoom="21.825"
     inkscape:cx="5.4753723"
     inkscape:cy="19.97709"
     inkscape:window-width="3440"
     inkscape:window-height="1377"
     inkscape:window-x="-8"
     inkscape:window-y="-8"
     inkscape:window-maximized="1"
     inkscape:current-layer="svg478" />
  <path
     fill="#2ca4dd"
     d="m 2.56625,13.1145 h 9.775 a 2.231,2.231 0 0 1 1.633,1.0005 1.932,1.932 0 0 1 0.3105,0.943 v 7.061 a 14.053,14.053 0 0 1 -1.4605,-0.3795 c -1.035,-0.299 -2.0355,-0.6785 -3.036,-1.035 a 10.4995,10.4995 0 0 0 1.1385,-2.7945 h -2.691 v -0.943 h 3.3005 l -0.0115,-0.529 h -3.289 v -1.564 h -1.38 a 0.2185,0.2185 0 0 0 -0.207,0.23 v 1.334 h -3.335 v 0.529 h 3.335 v 0.943 h -2.76 v 0.529 h 5.3475 a 9.407,9.407 0 0 1 -0.7475,1.7825 0.0575,0.0575 0 0 1 -0.092,0.023 15.2605,15.2605 0 0 0 -3.588,-0.7935 3.542,3.542 0 0 0 -2.047,0.46 2.323,2.323 0 0 0 -1.081,1.5525 2.1275,2.1275 0 0 0 0.506,1.817 2.9095,2.9095 0 0 0 1.863,0.897 4.7725,4.7725 0 0 0 2.714,-0.506 6.7505,6.7505 0 0 0 2.0355,-1.61 c 0.0575,-0.046 0.092,-0.115 0.161,-0.161 1.7595,0.805 3.542,1.541 5.3245,2.277 a 1.9895,1.9895 0 0 1 -0.4945,1.4605 2.2195,2.2195 0 0 1 -1.3915,0.7475 h -9.89 a 2.2195,2.2195 0 0 1 -1.495,-0.9085 2.139,2.139 0 0 1 -0.391,-0.9775 V 14.989 a 2.185,2.185 0 0 1 0.5175,-1.15 2.2655,2.2655 0 0 1 1.4145,-0.7245"
     id="path468"
     style="stroke-width:1.15" />
  <path
     fill="#2ca4dd"
     d="m 2.99175,20.578 a 3.749,3.749 0 0 1 2.231,-0.184 10.787,10.787 0 0 1 2.5415,0.9315 5.5315,5.5315 0 0 1 -2.3,1.7825 3.3005,3.3005 0 0 1 -2.116,0.069 1.8515,1.8515 0 0 1 -1.0235,-0.713 1.196,1.196 0 0 1 -0.161,-0.966 1.4605,1.4605 0 0 1 0.828,-0.92"
     id="path470"
     style="stroke-width:1.15" />
  <g
     fill="#3f3a39"
     id="g476"
     transform="matrix(1.15,0,0,1.15,-3.01125,5.0875)">
    <path
       d="m 19.56,8.01 a 0.21,0.21 0 0 1 0.2,-0.2 c 0.36,-0.02 0.73,0 1.1,-0.01 V 8.72 H 23.3 V 9.17 H 20.86 V 9.9 h 2.1 a 4.97,4.97 0 0 1 -2,2.69 13,13 0 0 0 2.4,1.1 c 0.02,0.17 0,0.34 0.02,0.52 A 9.96,9.96 0 0 1 21.8,13.75 10.85,10.85 0 0 1 20.26,13.04 11.35,11.35 0 0 1 17.1,14.21 v -0.54 a 10.21,10.21 0 0 0 2.46,-1.06 6.17,6.17 0 0 1 -1.74,-1.8 h 1.1 a 5.66,5.66 0 0 0 1.32,1.3 4.16,4.16 0 0 0 1.34,-1.75 H 17.52 V 9.9 h 2.04 V 9.17 H 17.14 V 8.72 h 2.42 V 8.02 M 33.28,7.78 h 1.28 v 0.61 h 1.97 a 0.32,0.32 0 0 1 0.33,0.32 V 9.49 H 35.64 V 8.84 H 32.22 V 9.49 H 30.99 V 8.4 h 2.3 V 7.8 M 24.8,7.84 h 1.16 q -0.38,0.88 -0.79,1.75 h 0.39 v 4.52 H 24.5 v -3.4 H 23.54 L 24.79,7.84 M 28.7,7.9 h 1.1 V 9 h 0.44 V 9.44 H 29.8 v 4.16 a 0.43,0.43 0 0 1 -0.43,0.43 h -1.4 v -0.46 h 0.56 a 0.18,0.18 0 0 0 0.16,-0.2 V 9.43 H 26 V 8.98 h 2.7 z m 2.29,2 h 5.87 v 0.44 h -2.35 v 0.88 h 2.35 v 0.45 H 34.5 v 1.86 h 1.2 l -0.3,-0.97 h 1 a 0.2,0.2 0 0 1 0.2,0.14 c 0.14,0.4 0.25,0.83 0.39,1.24 v 0.03 h -6.01 v -0.45 h 2.35 v -1.86 h -2.35 v -0.45 h 2.35 V 10.35 H 30.98 V 9.9"
       id="path472" />
    <path
       d="m 26.35,10.05 h 0.92 a 0.23,0.23 0 0 1 0.22,0.16 l 0.66,2 h -1.08 z m -7.34,5.69 c -0.11,0.36 -0.26,0.7 -0.37,1.07 h 0.76 c -0.1,-0.32 -0.22,-0.63 -0.33,-0.95 a 0.4,0.4 0 0 0 -0.06,-0.12 m -0.2,-0.7 h 0.4 l 1,2.63 h -0.52 c -0.05,-0.18 -0.12,-0.36 -0.18,-0.53 h -1 l -0.19,0.53 h -0.51 z m 2.99,0 h 0.5 v 2.27 h 1.17 v 0.36 H 21.8 Z m 3.45,0 h 0.5 v 2.63 h -0.5 z m 2.98,0.36 v 0.9 h 0.58 a 0.4,0.4 0 0 0 0.35,-0.25 0.46,0.46 0 0 0 -0.3,-0.64 c -0.21,-0.02 -0.42,0 -0.63,0 m -0.5,-0.37 h 1.12 a 0.88,0.88 0 0 1 0.7,0.34 0.83,0.83 0 0 1 0.1,0.72 0.79,0.79 0 0 1 -0.52,0.51 4.3,4.3 0 0 1 -0.9,0.06 v 1 h -0.5 z m 4.34,0.69 c -0.11,0.36 -0.27,0.72 -0.37,1.08 h 0.75 c -0.12,-0.36 -0.23,-0.73 -0.38,-1.08 m -0.2,-0.69 h 0.39 l 1,2.63 h -0.52 c -0.05,-0.19 -0.11,-0.36 -0.17,-0.53 h -1 l -0.19,0.53 h -0.51 z m 2.51,0 h 0.53 l 0.53,1.09 h 0.04 l 0.5,-1.09 h 0.54 l -0.82,1.55 v 1.08 H 35.2 V 16.6 c -0.26,-0.53 -0.54,-1.04 -0.82,-1.56"
       id="path474" />
  </g>
</svg>
