<?xml version="1.0" encoding="UTF-8" standalone="no"?>
<svg
   width="40"
   height="40"
   viewBox="0 0 40 40"
   fill="none"
   version="1.1"
   id="svg527"
   sodipodi:docname="applepay.svg"
   inkscape:version="1.1.2 (b8e25be833, 2022-02-05)"
   xmlns:inkscape="http://www.inkscape.org/namespaces/inkscape"
   xmlns:sodipodi="http://sodipodi.sourceforge.net/DTD/sodipodi-0.dtd"
   xmlns="http://www.w3.org/2000/svg"
   xmlns:svg="http://www.w3.org/2000/svg">
  <defs
     id="defs531" />
  <sodipodi:namedview
     id="namedview529"
     pagecolor="#ffffff"
     bordercolor="#666666"
     borderopacity="1.0"
     inkscape:pageshadow="2"
     inkscape:pageopacity="0.0"
     inkscape:pagecheckerboard="0"
     showgrid="false"
     inkscape:zoom="21.825"
     inkscape:cx="13.310424"
     inkscape:cy="19.97709"
     inkscape:window-width="3440"
     inkscape:window-height="1377"
     inkscape:window-x="-8"
     inkscape:window-y="-8"
     inkscape:window-maximized="1"
     inkscape:current-layer="svg527" />
  <path
     d="M 36.4179,7 H 3.58218 C 3.44543,7 3.30843,7 3.17192,7.0008097 3.05652,7.0016439 2.9414,7.0029444 2.82627,7.0061341 2.57518,7.0130288 2.32195,7.0280696 2.074,7.0733147 1.82209,7.119345 1.58768,7.194426 1.359,7.312643 1.13418,7.428724 0.928359,7.580555 0.749992,7.761732 0.571547,7.942909 0.422007,8.15154 0.307701,8.38005 0.191245,8.61224 0.117248,8.85031 0.0722267,9.10628 0.0274252,9.35809 0.0125122,9.61516 0.00574573,9.86982 0.00265247,9.98672 0.00132575,10.10361 5.74187e-4,10.22047 -2.23295e-4,10.35937 4.25324e-5,10.49818 4.25324e-5,10.63732 V 29.3629 c 0,0.1392 -2.658274e-4,0.2778 5.316546e-4,0.4169 7.51563e-4,0.1169 0.002078283,0.2338 0.005171543,0.3507 0.00676647,0.2544 0.02167947,0.5115 0.06648097,0.7632 0.0450213,0.2561 0.1190183,0.4941 0.2354743,0.7263 0.114306,0.2285 0.263846,0.4374 0.442291,0.6183 0.178367,0.1815 0.384188,0.3333 0.609008,0.4491 0.22868,0.1185 0.46309,0.1936 0.715,0.2396 0.24795,0.045 0.50118,0.0603 0.75227,0.0672 0.11513,0.0026 0.23025,0.0042 0.34565,0.0047 C 3.30843,33 3.44543,33 3.58218,33 H 36.4179 c 0.1365,0 0.2735,0 0.41,-0.0011 0.1151,-5e-4 0.2302,-0.0021 0.3459,-0.0047 0.2505,-0.0069 0.5037,-0.0222 0.7523,-0.0672 0.2515,-0.046 0.486,-0.1211 0.7147,-0.2396 0.2251,-0.1158 0.4303,-0.2676 0.609,-0.4491 0.1782,-0.1809 0.3277,-0.3898 0.4423,-0.6183 0.1167,-0.2322 0.1906,-0.4702 0.2354,-0.7263 0.0449,-0.2517 0.0594,-0.5088 0.0662,-0.7632 0.0032,-0.1169 0.0047,-0.2338 0.0052,-0.3507 C 40,29.6407 40,29.5021 40,29.3629 V 10.63732 c 0,-0.13914 0,-0.27795 -0.0011,-0.41685 -5e-4,-0.11686 -0.002,-0.23375 -0.0052,-0.35065 C 39.9869,9.61516 39.9724,9.35809 39.9275,9.10628 39.8827,8.85031 39.8088,8.61224 39.6921,8.38005 39.5775,8.15154 39.428,7.942909 39.2498,7.761732 39.0711,7.580555 38.8659,7.428724 38.6408,7.312643 38.4121,7.194426 38.1776,7.119345 37.9261,7.0733147 37.6775,7.0280696 37.4243,7.0130288 37.1738,7.0061341 37.0581,7.0029444 36.943,7.0016439 36.8279,7.0008097 36.6914,7 36.5544,7 36.4179,7 Z"
     fill="#000000"
     id="path513" />
  <path
     d="m 36.4178,7.866577 0.4039,7.85e-4 c 0.1095,7.85e-4 0.2189,0.00199 0.3289,0.00503 0.1914,0.00525 0.4153,0.015777 0.624,0.053759 0.1814,0.033174 0.3336,0.083619 0.4796,0.159099 0.1441,0.07437 0.2762,0.17182 0.3915,0.28874 0.1158,0.1177 0.2119,0.25201 0.2861,0.39999 0.0739,0.1471 0.1233,0.30084 0.1558,0.48639 0.0373,0.20959 0.0476,0.43753 0.0529,0.63306 0.0029,0.11036 0.0044,0.22073 0.0049,0.33372 10e-4,0.13664 10e-4,0.27321 10e-4,0.41012 V 29.3629 c 0,0.1369 0,0.2732 -10e-4,0.4128 -5e-4,0.1103 -0.002,0.2207 -0.005,0.3313 -0.0052,0.1952 -0.0155,0.423 -0.0533,0.6351 -0.032,0.183 -0.0813,0.3368 -0.1557,0.4846 -0.074,0.1476 -0.1699,0.2818 -0.2852,0.3987 -0.116,0.1178 -0.2476,0.215 -0.3935,0.29 -0.1449,0.0751 -0.2968,0.1255 -0.4764,0.1584 -0.2129,0.0385 -0.4462,0.0491 -0.6219,0.0539 -0.1105,0.0025 -0.2205,0.0041 -0.3332,0.0046 -0.1343,0.0011 -0.2691,10e-4 -0.4034,10e-4 H 3.58214 c -0.00179,0 -0.00353,0 -0.00535,0 -0.13276,0 -0.2658,0 -0.40098,-10e-4 C 3.06558,32.1318 2.9556,32.1303 2.84927,32.1278 2.66957,32.1229 2.43615,32.1123 2.22497,32.074 2.0438,32.0409 1.89191,31.9905 1.74508,31.9144 1.60059,31.84 1.46905,31.743 1.35303,31.625 1.2379,31.5083 1.14223,31.3745 1.06826,31.2267 0.994211,31.079 0.94467,30.9248 0.912097,30.7396 0.874444,30.528 0.8641,30.301 0.858931,30.1071 0.855981,29.9961 0.854748,29.8851 0.854047,29.7747 l -5.31e-4,-0.3258 2.4e-5,-0.086 V 10.63727 l -2.4e-5,-0.08602 5.07e-4,-0.32513 C 0.854748,10.11509 0.855981,10.00409 0.858931,9.89316 0.8641,9.69905 0.874443,9.47204 0.912408,9.25862 0.944694,9.07512 0.994211,8.92088 1.06864,8.77246 1.14203,8.62576 1.23788,8.49184 1.35361,8.37436 1.46888,8.25727 1.60085,8.15993 1.74626,8.08485 1.89152,8.00975 2.0437,7.959325 2.22487,7.926225 2.43362,7.888145 2.65766,7.877643 2.84954,7.872368 2.95892,7.86935 3.06829,7.868147 3.17685,7.867387 l 0.40529,-8.1e-4 H 36.4178"
     fill="#ffffff"
     id="path515" />
  <path
     d="m 10.9197,15.61284 c 0.3425,-0.42839 0.5749,-1.00358 0.5136,-1.59136 -0.5014,0.02493 -1.1132,0.33077 -1.46741,0.75949 -0.31804,0.36713 -0.59954,0.96641 -0.52615,1.52954 0.56276,0.04882 1.12506,-0.28131 1.47996,-0.69767 z"
     fill="#000000"
     id="path517" />
  <path
     d="m 11.4268,16.4205 c -0.8173,-0.04869 -1.51223,0.46387 -1.90254,0.46387 -0.39053,0 -0.98823,-0.43934 -1.63469,-0.4275 -0.84141,0.01236 -1.62214,0.4881 -2.04912,1.24473 -0.87822,1.5137 -0.23176,3.759 0.62227,4.9918 0.41473,0.6099 0.91456,1.2814 1.57315,1.2573 0.62226,-0.0244 0.86617,-0.4029 1.62255,-0.4029 0.75588,0 0.97558,0.4029 1.63428,0.3907 0.6831,-0.0122 1.1101,-0.6102 1.5248,-1.2207 0.4758,-0.6953 0.6706,-1.3666 0.6828,-1.4034 -0.0122,-0.0122 -1.3172,-0.5129 -1.3293,-2.0139 -0.0123,-1.2569 1.0246,-1.8548 1.0734,-1.8918 -0.5856,-0.86602 -1.5004,-0.96367 -1.8176,-0.9882 z"
     fill="#000000"
     id="path519" />
  <path
     d="m 18.5433,14.71948 c 1.7764,0 3.0134,1.22452 3.0134,3.00732 0,1.7892 -1.2624,3.0201 -3.0579,3.0201 h -1.9669 v 3.1278 h -1.4211 v -9.15522 h 3.4325 z M 16.5319,19.554 h 1.6306 c 1.2372,0 1.9414,-0.6661 1.9414,-1.8208 0,-1.15467 -0.7042,-1.81453 -1.9351,-1.81453 h -1.6369 z"
     fill="#000000"
     id="path521" />
  <path
     d="m 21.928,21.9778 c 0,-1.1675 0.8946,-1.8844 2.4808,-1.9732 l 1.8271,-0.1079 v -0.5138 c 0,-0.7424 -0.5012,-1.1865 -1.3385,-1.1865 -0.7933,0 -1.2882,0.3806 -1.4086,0.9771 h -1.2943 c 0.0761,-1.2056 1.1039,-2.0938 2.7535,-2.0938 1.6179,0 2.652,0.8565 2.652,2.1952 v 4.5999 H 26.2866 V 22.7771 H 26.255 c -0.3869,0.7424 -1.2309,1.2118 -2.1063,1.2118 -1.307,0 -2.2207,-0.8121 -2.2207,-2.0111 z m 4.3079,-0.6027 v -0.5266 l -1.6433,0.1014 c -0.8184,0.0572 -1.2815,0.4188 -1.2815,0.9898 0,0.5836 0.4822,0.9644 1.2181,0.9644 0.958,0 1.7067,-0.6599 1.7067,-1.529 z"
     fill="#000000"
     id="path523" />
  <path
     d="m 28.8398,26.3302 v -1.1103 c 0.1013,0.0253 0.3297,0.0253 0.444,0.0253 0.6344,0 0.9771,-0.2664 1.1863,-0.9516 0,-0.0127 0.1207,-0.406 0.1207,-0.4124 l -2.4109,-6.6809 h 1.4845 l 1.6878,5.431 h 0.0252 l 1.6879,-5.431 h 1.4465 l -2.5,7.0234 c -0.5707,1.618 -1.2306,2.1382 -2.6137,2.1382 -0.1143,0 -0.457,-0.0127 -0.5583,-0.0317 z"
     fill="#000000"
     id="path525" />
</svg>
