<?xml version="1.0" encoding="UTF-8" standalone="no"?>
<svg xmlns="http://www.w3.org/2000/svg" viewBox="0 0 40 40">
  <defs
     id="defs5">
    <mask
       id="a"
       width="27.02"
       height="27.02"
       x="6.98"
       y="3.21"
       maskUnits="userSpaceOnUse">
      <path
         fill="#fff"
         d="M6.98 22.71H34V3.21H6.98v19.5z"
         id="path2" />
    </mask>
  </defs>
  <path
     fill="#075695"
     d="M 0.03992016,7.4251497 H 40.03992 V 33.42515 H 0.03992016 Z"
     id="path7" />
  <g
     mask="url(#a)"
     id="g11"
     transform="translate(0.03992016,7.4251497)">
    <path
       fill="#ffffff"
       d="m 34,21.03 a 1.67,1.67 0 0 1 -1.64,1.68 H 8.62 A 1.67,1.67 0 0 1 6.98,21.03 V 4.9 A 1.67,1.67 0 0 1 8.62,3.22 H 32.36 A 1.67,1.67 0 0 1 34,4.9 v 16.14"
       id="path9" />
  </g>
  <path
     fill="#064d80"
     d="m 28.72992,16.08515 h -6.49 l -2.8,3.22 -0.66,0.75 h -6.4 l 1.61,-1.9 h -2.95 a 1,1 0 0 0 -0.98,1.03 v 2.16 a 1,1 0 0 0 0.98,1.03 h 11.3 a 2.47,2.47 0 0 0 1.64,-0.76 l 4.76,-5.53"
     id="path13" />
  <path
     fill="#fdd915"
     d="m 30.02992,13.77515 a 1,1 0 0 1 0.98,1.02 v 2.17 a 1,1 0 0 1 -0.98,1.02 h -2.94 l 0.66,-0.76 0.98,-1.14 h -6.49 l -3.46,3.98 h -6.44 l 4.8,-5.53 a 2.48,2.48 0 0 1 1.63,-0.76 h 11.27"
     id="path15" />
  <path
     fill="#064d80"
     d="m 12.26992,26.05515 a 0.67,0.67 0 0 0 -0.1,-0.37 0.65,0.65 0 0 0 -0.26,-0.24 0.58,0.58 0 0 0 0.25,-0.24 0.73,0.73 0 0 0 0.09,-0.36 v -0.07 a 0.82,0.82 0 0 0 -0.1,-0.4 0.7,0.7 0 0 0 -0.25,-0.27 1.2,1.2 0 0 0 -0.4,-0.14 2.85,2.85 0 0 0 -0.51,-0.04 h -0.2 l -0.2,0.01 -0.18,0.02 -0.14,0.01 a 0.28,0.28 0 0 0 -0.16,0.08 0.29,0.29 0 0 0 -0.05,0.19 v 2.48 a 0.28,0.28 0 0 0 0.05,0.19 0.3,0.3 0 0 0 0.17,0.07 1.44,1.44 0 0 0 0.15,0.02 l 0.18,0.02 q 0.1,0.02 0.2,0 h 0.2 a 2.8,2.8 0 0 0 0.5,-0.03 1.14,1.14 0 0 0 0.39,-0.15 0.76,0.76 0 0 0 0.27,-0.28 0.9,0.9 0 0 0 0.1,-0.44 z m -0.68,-1.17 a 0.38,0.38 0 0 1 -0.02,0.12 0.25,0.25 0 0 1 -0.06,0.1 0.34,0.34 0 0 1 -0.13,0.07 0.62,0.62 0 0 1 -0.2,0.03 h -0.44 v -0.7 h 0.06 l 0.09,-0.01 h 0.15 a 0.83,0.83 0 0 1 0.43,0.08 0.27,0.27 0 0 1 0.12,0.25 z m 0.02,1.21 a 0.32,0.32 0 0 1 -0.12,0.27 0.7,0.7 0 0 1 -0.43,0.09 h -0.32 v -0.77 h 0.44 a 0.42,0.42 0 0 1 0.34,0.11 0.38,0.38 0 0 1 0.09,0.26 z m 2.85,-0.64 a 0.98,0.98 0 0 0 -0.07,-0.38 0.66,0.66 0 0 0 -0.18,-0.26 0.76,0.76 0 0 0 -0.3,-0.15 1.5,1.5 0 0 0 -0.39,-0.04 2.62,2.62 0 0 0 -0.39,0.02 l -0.3,0.06 a 0.09,0.09 0 0 0 -0.07,0.1 v 0.32 a 0.07,0.07 0 0 0 0.02,0.06 0.08,0.08 0 0 0 0.05,0.01 h 0.14 l 0.16,-0.02 h 0.39 a 0.4,0.4 0 0 1 0.21,0.05 q 0.08,0.05 0.08,0.23 v 0.14 h -0.22 a 1.32,1.32 0 0 0 -0.74,0.17 0.6,0.6 0 0 0 -0.24,0.52 v 0.04 a 0.85,0.85 0 0 0 0.06,0.33 0.56,0.56 0 0 0 0.37,0.33 0.92,0.92 0 0 0 0.26,0.04 0.88,0.88 0 0 0 0.3,-0.05 1.01,1.01 0 0 0 0.25,-0.13 v 0.06 a 0.08,0.08 0 0 0 0.02,0.06 0.08,0.08 0 0 0 0.06,0.02 h 0.45 a 0.08,0.08 0 0 0 0.05,-0.02 0.08,0.08 0 0 0 0.03,-0.06 z m -0.64,0.98 a 1.04,1.04 0 0 1 -0.15,0.07 0.56,0.56 0 0 1 -0.18,0.02 0.38,0.38 0 0 1 -0.18,-0.03 q -0.07,-0.04 -0.07,-0.17 v -0.04 a 0.48,0.48 0 0 1 0.02,-0.13 0.2,0.2 0 0 1 0.06,-0.1 0.26,0.26 0 0 1 0.1,-0.05 0.67,0.67 0 0 1 0.17,-0.02 h 0.23 z m 3.08,0.47 v -1.36 a 2.06,2.06 0 0 0 -0.03,-0.36 0.82,0.82 0 0 0 -0.1,-0.3 0.56,0.56 0 0 0 -0.22,-0.2 0.75,0.75 0 0 0 -0.36,-0.06 1,1 0 0 0 -0.65,0.2 v -0.09 a 0.08,0.08 0 0 0 -0.02,-0.06 0.08,0.08 0 0 0 -0.06,-0.02 h -0.44 a 0.08,0.08 0 0 0 -0.06,0.02 0.08,0.08 0 0 0 -0.02,0.06 v 2.17 a 0.08,0.08 0 0 0 0.02,0.06 0.08,0.08 0 0 0 0.06,0.02 h 0.48 a 0.07,0.07 0 0 0 0.06,-0.02 0.09,0.09 0 0 0 0.02,-0.06 v -1.6 a 1.78,1.78 0 0 1 0.2,-0.1 0.48,0.48 0 0 1 0.18,-0.03 0.5,0.5 0 0 1 0.15,0.01 0.17,0.17 0 0 1 0.09,0.07 0.28,0.28 0 0 1 0.04,0.11 1.13,1.13 0 0 1 0.01,0.18 v 1.36 a 0.09,0.09 0 0 0 0.03,0.06 0.07,0.07 0 0 0 0.05,0.02 h 0.49 a 0.08,0.08 0 0 0 0.05,-0.02 0.08,0.08 0 0 0 0.03,-0.06 z m 1.96,-0.04 v -0.36 a 0.06,0.06 0 0 0 -0.02,-0.05 0.08,0.08 0 0 0 -0.05,-0.02 h -0.01 l -0.21,0.02 -0.28,0.01 a 0.36,0.36 0 0 1 -0.13,-0.02 0.24,0.24 0 0 1 -0.1,-0.08 0.41,0.41 0 0 1 -0.07,-0.15 0.84,0.84 0 0 1 -0.02,-0.22 v -0.34 a 0.84,0.84 0 0 1 0.02,-0.23 0.41,0.41 0 0 1 0.07,-0.15 0.24,0.24 0 0 1 0.1,-0.07 0.36,0.36 0 0 1 0.13,-0.03 l 0.28,0.01 0.21,0.02 a 0.08,0.08 0 0 0 0.06,-0.02 0.06,0.06 0 0 0 0.02,-0.05 v -0.36 a 0.08,0.08 0 0 0 -0.02,-0.06 0.16,0.16 0 0 0 -0.06,-0.03 l -0.22,-0.04 a 2.12,2.12 0 0 0 -0.31,-0.02 0.9,0.9 0 0 0 -0.68,0.26 1.06,1.06 0 0 0 -0.25,0.77 v 0.34 a 1.06,1.06 0 0 0 0.25,0.76 0.9,0.9 0 0 0 0.68,0.27 2.12,2.12 0 0 0 0.31,-0.02 l 0.22,-0.04 a 0.16,0.16 0 0 0 0.06,-0.03 0.08,0.08 0 0 0 0.02,-0.07 z m 2.22,-1.18 a 1.37,1.37 0 0 0 -0.07,-0.44 0.91,0.91 0 0 0 -0.19,-0.34 0.85,0.85 0 0 0 -0.31,-0.2 1.26,1.26 0 0 0 -0.86,0 0.87,0.87 0 0 0 -0.32,0.2 0.9,0.9 0 0 0 -0.19,0.34 1.37,1.37 0 0 0 -0.07,0.44 v 0.28 a 1.37,1.37 0 0 0 0.07,0.44 0.9,0.9 0 0 0 0.2,0.33 0.87,0.87 0 0 0 0.3,0.21 1.26,1.26 0 0 0 0.87,0 0.85,0.85 0 0 0 0.31,-0.2 0.91,0.91 0 0 0 0.2,-0.34 1.37,1.37 0 0 0 0.06,-0.44 z m -0.65,0.28 q 0,0.5 -0.35,0.5 a 0.3,0.3 0 0 1 -0.27,-0.13 0.64,0.64 0 0 1 -0.09,-0.37 v -0.28 a 0.63,0.63 0 0 1 0.1,-0.38 0.3,0.3 0 0 1 0.26,-0.12 q 0.35,0 0.35,0.5 z m 3.02,0.94 v -1.36 a 2.07,2.07 0 0 0 -0.03,-0.36 0.82,0.82 0 0 0 -0.1,-0.3 0.56,0.56 0 0 0 -0.22,-0.2 0.75,0.75 0 0 0 -0.35,-0.06 1,1 0 0 0 -0.65,0.2 v -0.09 a 0.08,0.08 0 0 0 -0.03,-0.06 0.08,0.08 0 0 0 -0.05,-0.02 h -0.45 a 0.08,0.08 0 0 0 -0.06,0.02 0.08,0.08 0 0 0 -0.02,0.06 v 2.17 a 0.08,0.08 0 0 0 0.03,0.06 0.08,0.08 0 0 0 0.05,0.02 h 0.49 a 0.07,0.07 0 0 0 0.05,-0.02 0.09,0.09 0 0 0 0.03,-0.06 v -1.6 a 1.78,1.78 0 0 1 0.2,-0.1 0.48,0.48 0 0 1 0.17,-0.03 0.5,0.5 0 0 1 0.15,0.01 0.17,0.17 0 0 1 0.1,0.07 0.28,0.28 0 0 1 0.03,0.11 1.13,1.13 0 0 1 0.02,0.18 v 1.36 a 0.09,0.09 0 0 0 0.02,0.06 0.07,0.07 0 0 0 0.06,0.02 h 0.48 a 0.08,0.08 0 0 0 0.06,-0.02 0.08,0.08 0 0 0 0.02,-0.06 z m 1.74,0 v -0.3 q 0,-0.08 -0.08,-0.08 h -0.2 q -0.09,0 -0.1,-0.03 a 0.38,0.38 0 0 1 -0.03,-0.16 v -1.18 h 0.33 a 0.08,0.08 0 0 0 0.06,-0.03 0.08,0.08 0 0 0 0.02,-0.06 v -0.33 a 0.08,0.08 0 0 0 -0.02,-0.06 0.08,0.08 0 0 0 -0.06,-0.02 h -0.33 v -0.43 a 0.07,0.07 0 0 0 -0.02,-0.05 0.07,0.07 0 0 0 -0.05,-0.02 h -0.01 l -0.48,0.08 a 0.14,0.14 0 0 0 -0.06,0.03 0.07,0.07 0 0 0 -0.02,0.05 v 0.34 h -0.32 a 0.08,0.08 0 0 0 -0.06,0.03 0.08,0.08 0 0 0 -0.03,0.05 v 0.27 a 0.07,0.07 0 0 0 0.03,0.06 0.14,0.14 0 0 0 0.06,0.03 l 0.32,0.05 v 1.18 a 1.18,1.18 0 0 0 0.04,0.36 0.49,0.49 0 0 0 0.13,0.2 0.43,0.43 0 0 0 0.2,0.11 1.4,1.4 0 0 0 0.3,0.03 1.34,1.34 0 0 0 0.15,0 l 0.16,-0.03 a 0.08,0.08 0 0 0 0.07,-0.08 z m 2.14,-1.45 a 0.98,0.98 0 0 0 -0.07,-0.38 0.66,0.66 0 0 0 -0.19,-0.26 0.76,0.76 0 0 0 -0.29,-0.15 1.5,1.5 0 0 0 -0.39,-0.04 2.62,2.62 0 0 0 -0.39,0.02 l -0.3,0.06 a 0.09,0.09 0 0 0 -0.08,0.1 v 0.32 a 0.07,0.07 0 0 0 0.02,0.06 0.08,0.08 0 0 0 0.06,0.01 h 0.14 l 0.16,-0.02 h 0.38 a 0.4,0.4 0 0 1 0.22,0.05 q 0.08,0.05 0.08,0.23 v 0.14 h -0.22 a 1.32,1.32 0 0 0 -0.75,0.17 0.6,0.6 0 0 0 -0.23,0.52 v 0.04 a 0.84,0.84 0 0 0 0.06,0.33 0.56,0.56 0 0 0 0.37,0.33 0.92,0.92 0 0 0 0.25,0.04 0.88,0.88 0 0 0 0.31,-0.05 1.01,1.01 0 0 0 0.25,-0.13 v 0.06 a 0.08,0.08 0 0 0 0.02,0.06 0.08,0.08 0 0 0 0.06,0.02 h 0.45 a 0.08,0.08 0 0 0 0.05,-0.02 0.08,0.08 0 0 0 0.03,-0.06 z m -0.64,0.98 a 1.04,1.04 0 0 1 -0.15,0.07 0.56,0.56 0 0 1 -0.18,0.02 0.38,0.38 0 0 1 -0.19,-0.03 q -0.06,-0.04 -0.06,-0.17 v -0.04 a 0.48,0.48 0 0 1 0.02,-0.13 0.2,0.2 0 0 1 0.05,-0.1 0.26,0.26 0 0 1 0.11,-0.05 0.67,0.67 0 0 1 0.17,-0.02 h 0.23 z m 2.6,0.43 v -0.36 a 0.06,0.06 0 0 0 -0.02,-0.05 0.08,0.08 0 0 0 -0.06,-0.02 l -0.22,0.02 -0.27,0.01 a 0.36,0.36 0 0 1 -0.13,-0.02 0.24,0.24 0 0 1 -0.1,-0.08 0.41,0.41 0 0 1 -0.07,-0.15 0.84,0.84 0 0 1 -0.03,-0.22 v -0.34 a 0.84,0.84 0 0 1 0.03,-0.23 0.41,0.41 0 0 1 0.07,-0.15 0.24,0.24 0 0 1 0.1,-0.07 0.36,0.36 0 0 1 0.13,-0.03 l 0.27,0.01 0.22,0.02 a 0.08,0.08 0 0 0 0.06,-0.02 0.06,0.06 0 0 0 0.02,-0.05 v -0.36 a 0.08,0.08 0 0 0 -0.02,-0.06 0.16,0.16 0 0 0 -0.06,-0.03 l -0.22,-0.04 a 2.11,2.11 0 0 0 -0.32,-0.02 0.9,0.9 0 0 0 -0.67,0.26 1.06,1.06 0 0 0 -0.26,0.77 v 0.34 a 1.06,1.06 0 0 0 0.26,0.76 0.9,0.9 0 0 0 0.67,0.27 2.11,2.11 0 0 0 0.32,-0.02 l 0.22,-0.04 a 0.16,0.16 0 0 0 0.06,-0.03 0.08,0.08 0 0 0 0.02,-0.07 z m 1.72,0.05 v -0.32 q 0,-0.07 -0.08,-0.07 h -0.2 q -0.1,0 -0.11,-0.03 a 0.38,0.38 0 0 1 -0.02,-0.16 v -1.18 h 0.33 a 0.08,0.08 0 0 0 0.05,-0.03 0.08,0.08 0 0 0 0.03,-0.06 v -0.33 a 0.08,0.08 0 0 0 -0.03,-0.06 0.08,0.08 0 0 0 -0.05,-0.02 h -0.33 v -0.43 a 0.07,0.07 0 0 0 -0.02,-0.05 0.07,0.07 0 0 0 -0.05,-0.02 h -0.02 l -0.48,0.08 a 0.14,0.14 0 0 0 -0.05,0.03 0.07,0.07 0 0 0 -0.03,0.05 v 0.34 h -0.32 a 0.08,0.08 0 0 0 -0.06,0.03 0.08,0.08 0 0 0 -0.02,0.05 v 0.27 a 0.07,0.07 0 0 0 0.02,0.06 0.14,0.14 0 0 0 0.06,0.03 l 0.32,0.05 v 1.18 a 1.18,1.18 0 0 0 0.05,0.36 0.49,0.49 0 0 0 0.12,0.2 0.43,0.43 0 0 0 0.21,0.11 1.4,1.4 0 0 0 0.29,0.03 1.34,1.34 0 0 0 0.15,0 l 0.16,-0.03 a 0.08,0.08 0 0 0 0.08,-0.08 z"
     id="path17" />
</svg>
