<?xml version="1.0" ?><!DOCTYPE svg  PUBLIC '-//W3C//DTD SVG 1.1//EN'  'http://www.w3.org/Graphics/SVG/1.1/DTD/svg11.dtd'><svg enable-background="new 0 0 64 64" height="64px" id="Layer_1" version="1.1" viewBox="0 0 64 64" width="64px" xml:space="preserve" xmlns="http://www.w3.org/2000/svg" xmlns:xlink="http://www.w3.org/1999/xlink"><g><path d="   M55,41.3c0,1.1-0.9,2-2,2H11c-1.1,0-2-0.9-2-2v-26c0-1.1,0.9-2,2-2h42c1.1,0,2,0.9,2,2V41.3z" fill="none" stroke="#4D4D4D" stroke-linecap="round" stroke-linejoin="round" stroke-miterlimit="10" stroke-width="2"/><rect fill="none" height="24" stroke="#4D4D4D" stroke-linecap="round" stroke-linejoin="round" stroke-miterlimit="10" width="40" x="12" y="16.3"/><path d="   M59,49.7c0,0.6-0.4,1-1,1H6c-0.6,0-1-0.4-1-1v-2c0-0.6,0.4-1,1-1h52c0.6,0,1,0.4,1,1V49.7z" fill="none" stroke="#4D4D4D" stroke-linecap="round" stroke-linejoin="round" stroke-miterlimit="10" stroke-width="2"/></g></svg>