<?xml version="1.0" encoding="UTF-8" standalone="no"?>
<svg
   width="40"
   height="40"
   viewBox="0 0 40 40"
   fill="none"
   version="1.1"
   id="svg808"
   sodipodi:docname="googlepay.svg"
   inkscape:version="1.1.2 (b8e25be833, 2022-02-05)"
   xmlns:inkscape="http://www.inkscape.org/namespaces/inkscape"
   xmlns:sodipodi="http://sodipodi.sourceforge.net/DTD/sodipodi-0.dtd"
   xmlns="http://www.w3.org/2000/svg"
   xmlns:svg="http://www.w3.org/2000/svg">
  <defs
     id="defs812" />
  <sodipodi:namedview
     id="namedview810"
     pagecolor="#ffffff"
     bordercolor="#666666"
     borderopacity="1.0"
     inkscape:pageshadow="2"
     inkscape:pageopacity="0.0"
     inkscape:pagecheckerboard="0"
     showgrid="false"
     inkscape:zoom="13.225"
     inkscape:cx="31.795841"
     inkscape:cy="34.858223"
     inkscape:window-width="3440"
     inkscape:window-height="1377"
     inkscape:window-x="-8"
     inkscape:window-y="-8"
     inkscape:window-maximized="1"
     inkscape:current-layer="svg808" />
  <path
     d="M 28.87523,9.7054358 H 11.12477 c -5.5469574,0 -10.0854039,4.6325492 -10.0854039,10.2945742 0,5.661937 4.5384465,10.294555 10.0854039,10.294555 h 17.75046 c 5.546909,0 10.085404,-4.632618 10.085404,-10.294555 0,-5.662025 -4.538495,-10.2945742 -10.085404,-10.2945742 z"
     fill="#ffffff"
     id="path790"
     style="stroke-width:0.972344" />
  <path
     d="m 28.87523,10.539295 c 1.24547,0 2.455742,0.252215 3.595422,0.746349 1.104383,0.478702 2.092768,1.163289 2.949983,2.033173 0.852256,0.869895 1.522879,1.883909 1.991838,3.011164 0.48413,1.163239 0.731201,2.398597 0.731201,3.670029 0,1.271335 -0.247071,2.506692 -0.731201,3.670002 -0.468959,1.127232 -1.139582,2.136133 -1.991838,3.011142 -0.852257,0.869855 -1.8456,1.554481 -2.949983,2.033164 -1.13968,0.494142 -2.349952,0.746368 -3.595422,0.746368 H 11.12477 c -1.245509,0 -2.4557615,-0.252226 -3.595422,-0.746368 C 6.4249931,28.235635 5.4366191,27.551009 4.5793554,26.681154 3.727138,25.811299 3.0564566,24.797244 2.5874776,23.670012 2.1033785,22.506702 1.8562874,21.271345 1.8562874,20.00001 c 0,-1.271432 0.2470911,-2.50679 0.7311901,-3.670029 C 3.0564566,15.202726 3.727138,14.193855 4.5793554,13.318817 5.4315725,12.448933 6.4249931,11.764346 7.529348,11.285644 8.6690085,10.79151 9.8792609,10.539295 11.12477,10.539295 Z m 0,-0.8338592 H 11.12477 c -5.5469574,0 -10.0854039,4.6325492 -10.0854039,10.2945742 0,5.661937 4.5384465,10.294555 10.0854039,10.294555 h 17.75046 c 5.546909,0 10.085404,-4.632618 10.085404,-10.294555 0,-5.662025 -4.538495,-10.2945742 -10.085404,-10.2945742 z"
     fill="#3c4043"
     id="path792"
     style="stroke-width:0.972344" />
  <path
     d="m 19.122755,20.730822 v 3.114113 H 18.154596 V 16.1549 h 2.566686 c 0.650495,0 1.205216,0.221335 1.659104,0.664001 0.463904,0.442707 0.695904,0.983134 0.695904,1.621379 0,0.653703 -0.232,1.194227 -0.695904,1.631683 -0.448833,0.437553 -1.003552,0.653705 -1.659104,0.653705 h -1.598527 z m 0,-3.628774 v 2.681714 h 1.618751 c 0.383199,0 0.705919,-0.133891 0.958048,-0.396326 0.257184,-0.262532 0.388351,-0.581653 0.388351,-0.942004 0,-0.355196 -0.131167,-0.669164 -0.388351,-0.931598 -0.252129,-0.272839 -0.569792,-0.40673 -0.958048,-0.40673 h -1.618751 z"
     fill="#3c4043"
     id="path794"
     style="stroke-width:0.972344" />
  <path
     d="m 25.607388,18.409456 c 0.716032,0 1.280863,0.195537 1.694303,0.586807 0.413536,0.391173 0.620255,0.926445 0.620255,1.605918 v 3.242754 h -0.92275 v -0.730908 h -0.04036 c -0.398367,0.602268 -0.932961,0.900776 -1.598527,0.900776 -0.569889,0 -1.043903,-0.169868 -1.427104,-0.514757 -0.383296,-0.344792 -0.574847,-0.772038 -0.574847,-1.286796 0,-0.545578 0.201663,-0.977979 0.605087,-1.297101 0.403425,-0.324276 0.942975,-0.483836 1.613695,-0.483836 0.574849,0 1.048865,0.108124 1.416992,0.324275 V 20.53013 c 0,-0.344889 -0.131168,-0.633091 -0.398367,-0.875008 -0.267296,-0.242016 -0.579903,-0.36035 -0.93792,-0.36035 -0.539649,0 -0.968256,0.231611 -1.280864,0.699988 L 23.52473,19.44918 c 0.46896,-0.694834 1.164863,-1.039724 2.082655,-1.039724 z m -1.250622,3.819255 c 0,0.257378 0.105886,0.47353 0.322718,0.643398 0.211873,0.169867 0.464001,0.257377 0.751426,0.257377 0.408479,0 0.771551,-0.154406 1.089214,-0.463222 0.317664,-0.308912 0.479072,-0.669164 0.479072,-1.086103 -0.302593,-0.241919 -0.721088,-0.365503 -1.260736,-0.365503 -0.393312,0 -0.721087,0.09782 -0.983327,0.288298 -0.2672,0.200691 -0.398367,0.44261 -0.398367,0.725755 z"
     fill="#3c4043"
     id="path796"
     style="stroke-width:0.972344" />
  <path
     d="m 33.186878,18.579227 -3.227391,7.576766 H 28.961088 L 30.161247,23.5052 28.033183,18.579227 h 1.053919 l 1.532993,3.778125 h 0.02022 l 1.492639,-3.778125 z"
     fill="#3c4043"
     id="path798"
     style="stroke-width:0.972344" />
  <path
     d="m 15.271704,20.102884 c 0,-0.322136 -0.02829,-0.630466 -0.0807,-0.92703 H 11.13265 v 1.698679 l 2.337312,4.86e-4 c -0.0948,0.565124 -0.399925,1.046919 -0.867425,1.36818 v 1.101952 h 1.391322 c 0.81239,-0.76737 1.277849,-1.901896 1.277848,-3.242267 z"
     fill="#4285f4"
     id="path800"
     style="stroke-width:0.972344" />
  <path
     d="m 12.603117,22.243102 c -0.387284,0.266616 -0.885997,0.422579 -1.469498,0.422579 -1.12703,0 -2.0831225,-0.77515 -2.4255322,-1.820027 H 7.2729321 v 1.136472 c 0.7110239,1.44023 2.1724026,2.428516 3.8606869,2.428516 1.166905,0 2.147219,-0.391755 2.860721,-1.065975 z"
     fill="#34a853"
     id="path802"
     style="stroke-width:0.972344" />
  <path
     d="m 8.5732232,20.002538 c 0,-0.293452 0.047907,-0.576987 0.1351456,-0.843602 V 18.022367 H 7.2732141 c -0.2939871,0.595559 -0.4593918,1.267738 -0.4593918,1.980171 0,0.712337 0.1659007,1.384613 0.4593918,1.980171 L 8.7083688,20.84614 C 8.6211305,20.579524 8.5732232,20.295894 8.5732232,20.002538 Z"
     fill="#fabb05"
     id="path804"
     style="stroke-width:0.972344" />
  <path
     d="m 11.133619,17.338812 c 0.636882,0 1.207258,0.22393 1.657547,0.661484 l 1.232927,-1.257528 c -0.748798,-0.71187 -1.725125,-1.148869 -2.890474,-1.148869 -1.6877788,0 -3.149663,0.988277 -3.8606869,2.428468 l 1.4351548,1.136569 c 0.3423998,-1.044975 1.2985021,-1.820124 2.4255321,-1.820124 z"
     fill="#e94235"
     id="path806"
     style="stroke-width:0.972344" />
</svg>
