<?xml version="1.0" encoding="UTF-8" standalone="no"?>
<svg xmlns="http://www.w3.org/2000/svg" viewBox="0 0 40 40" width="40" height="40">
  <defs
     id="defs152" />
  <g
     id="g215"
     transform="matrix(1.520875,0,0,1.520875,-10.633871,-10.555776)">
    <path
       fill="#000000"
       fill-rule="evenodd"
       d="m 20.780399,30.265469 h -10.32 c -0.9199998,0 -1.6599998,-0.74 -1.6599998,-1.65 v -16.7 c 0,-0.91 0.74,-1.65 1.6599998,-1.65 h 10.32 c 9.8,0 11.25,6.25 11.25,9.98 0,6.46 -4,10.02 -11.25,10.02 z m -10.32,-19.45 c -0.6099998,0 -1.0999998,0.49 -1.0999998,1.1 v 16.7 c 0,0.61 0.49,1.1 1.0999998,1.1 h 10.32 c 6.9,0 10.7,-3.36 10.7,-9.47 0,-8.2 -6.7,-9.43 -10.7,-9.43 z m 1.78,10.81 a 1.6,1.6 0 1 0 0,-3.2 1.6,1.6 0 1 0 0,3.2 z m -1.23,4.04 a 2.43,2.43 0 0 0 2.45,2.43 v -4.33 a 1.225,1.225 0 0 0 -2.45,0 z"
       clip-rule="evenodd"
       id="path142" />
    <path
       fill="#cc0066"
       d="m 15.130399,13.525469 v 14.57 h 6.38 c 5.8,0 8.32,-3.25 8.32,-7.85 0,-4.4 -2.52,-7.82 -8.32,-7.82 h -5.28 c -0.61,0 -1.1,0.5 -1.1,1.1 z"
       id="path144" />
    <path
       fill="#ffffff"
       fill-rule="evenodd"
       d="m 18.000399,18.385469 c -0.2,-0.07 -0.4,-0.1 -0.63,-0.1 v -0.02 h -1.5 v 3.48 h 1.52 c 0.27,0 0.5,-0.05 0.7,-0.14 a 1.43,1.43 0 0 0 0.79,-0.93 2.57,2.57 0 0 0 -0.03,-1.45 c -0.08,-0.21 -0.2,-0.39 -0.34,-0.54 a 1.42,1.42 0 0 0 -0.5,-0.31 z m -0.35,2.68 a 1.1,1.1 0 0 1 -0.33,0.05 v 0.01 h -0.68 v -2.2 h 0.55 c 0.2,0 0.35,0.03 0.48,0.08 0.13,0.05 0.23,0.14 0.3,0.23 0.09,0.1 0.15,0.23 0.18,0.37 0.04,0.13 0.05,0.3 0.05,0.47 0,0.2 -0.02,0.35 -0.07,0.49 a 1,1 0 0 1 -0.2,0.32 0.64,0.64 0 0 1 -0.28,0.18 z m 4.44,-2.14 v -0.66 h -2.62 v 3.48 h 2.67 v -0.64 h -1.9 v -0.84 h 1.7 v -0.6 h -1.7 v -0.74 z m 2.65,-0.65 1.31,3.49 h -0.8 l -0.27,-0.77 h -1.31 l -0.28,0.77 h -0.78 l 1.32,-3.5 h 0.8 z m 0.04,2.14 -0.44,-1.28 -0.47,1.28 z m 2.52,0.7 v -2.84 h -0.76 v 3.49 h 2.48 v -0.65 z"
       clip-rule="evenodd"
       id="path146" />
  </g>
</svg>
