<?xml version="1.0" encoding="UTF-8" standalone="no"?>
<svg
   version="1.1"
   id="레이어_1"
   x="0px"
   y="0px"
   viewBox="0 0 192.9 192.89999"
   xml:space="preserve"
   sodipodi:docname="kakaopay.svg"
   width="192.89999"
   height="192.89999"
   inkscape:version="1.2.1 (9c6d41e410, 2022-07-14)"
   xmlns:inkscape="http://www.inkscape.org/namespaces/inkscape"
   xmlns:sodipodi="http://sodipodi.sourceforge.net/DTD/sodipodi-0.dtd"
   xmlns="http://www.w3.org/2000/svg"
   xmlns:svg="http://www.w3.org/2000/svg"><defs
   id="defs61" /><sodipodi:namedview
   id="namedview59"
   pagecolor="#ffffff"
   bordercolor="#000000"
   borderopacity="0.25"
   inkscape:showpageshadow="2"
   inkscape:pageopacity="0.0"
   inkscape:pagecheckerboard="0"
   inkscape:deskcolor="#d1d1d1"
   showgrid="false"
   inkscape:zoom="2.09142"
   inkscape:cx="84.153349"
   inkscape:cy="140.33527"
   inkscape:window-width="1920"
   inkscape:window-height="991"
   inkscape:window-x="-9"
   inkscape:window-y="-9"
   inkscape:window-maximized="1"
   inkscape:current-layer="레이어_1"><sodipodi:guide
     position="96.000001,96.899994"
     orientation="0,1"
     id="guide253"
     inkscape:locked="false"
     inkscape:label=""
     inkscape:color="rgb(0,134,229)" /><sodipodi:guide
     position="192.89999,192.89999"
     orientation="192.89999,0"
     id="guide255"
     inkscape:locked="false" /><sodipodi:guide
     position="192.89999,0"
     orientation="0,-192.89999"
     id="guide257"
     inkscape:locked="false" /><sodipodi:guide
     position="96.000001,96.899994"
     orientation="-1,0"
     id="guide259"
     inkscape:locked="false"
     inkscape:label=""
     inkscape:color="rgb(0,134,229)" /></sodipodi:namedview>
<style
   type="text/css"
   id="style36">
	.st0{fill-rule:evenodd;clip-rule:evenodd;fill:#FFEB00;}
	.st1{fill-rule:evenodd;clip-rule:evenodd;}
</style>
    <g
   id="g56"
   transform="translate(0.25108606,56.304977)">
	<g
   id="g40">
		<path
   class="st0"
   d="M 152.7,80.4 H 40.2 C 18,80.4 0,62.4 0,40.2 0,18 18,0 40.2,0 H 152.8 C 175,0 193,18 193,40.2 c 0,22.2 -18.1,40.2 -40.3,40.2"
   id="path38" />
	</g>
        <g
   id="g54">
		<g
   id="g46">
			<g
   id="g44">
				<path
   class="st1"
   d="M 45.1,19.3 C 33,19.3 23.2,27 23.2,36.6 c 0,6.1 4.1,11.5 10.2,14.6 L 31.3,59 c -0.1,0.2 0,0.5 0.2,0.7 0.1,0.1 0.3,0.2 0.4,0.2 0.1,0 0.3,-0.1 0.4,-0.1 l 8.9,-6 c 1.3,0.2 2.6,0.3 4,0.3 12.1,0 21.9,-7.8 21.9,-17.3 0,-9.8 -9.8,-17.5 -22,-17.5 z"
   id="path42" />
			</g>
		</g>
            <path
   d="m 85.6,51 v 11.2 h -8 V 20.9 h 5.6 l 1,2.6 c 1.7,-1.7 4.3,-3.5 8.4,-3.5 7.8,0 11.5,5.8 11.5,15.3 0,9.9 -5.7,16.2 -13.9,16.2 -1.6,0.1 -2.8,0 -4.6,-0.5 z m 0,-23.4 v 17.8 c 0.4,0.1 1.5,0.2 2.6,0.2 5.7,0 7.9,-4 7.9,-10.3 0,-5.5 -1.5,-8.8 -6,-8.8 -1.6,0 -3.2,0.4 -4.5,1.1 z"
   id="path48" />
            <path
   d="m 121.4,32.6 h 4.5 v -1 c 0,-3.3 -1.9,-4.8 -5.1,-4.8 -2.5,0 -5.6,0.7 -8.2,2 l -2.2,-5.3 c 2.8,-2 7.2,-3.3 11.1,-3.3 7.6,0 11.8,4 11.8,11.7 v 18.9 h -5.6 l -0.8,-2.5 c -3.2,2.3 -6.2,3.3 -8.8,3.3 -5.8,0 -9.1,-3.5 -9.1,-9.4 0,-6.3 4.3,-9.6 12.4,-9.6 z m 4.6,10.5 v -5.5 h -3.7 c -4.1,0 -6.2,1.5 -6.2,4.4 0,2.2 1.1,3.3 3.5,3.3 2.2,0.1 5,-1 6.4,-2.2 z"
   id="path50" />
            <path
   d="m 157.5,47.7 c -2.8,7.4 -6.1,12.8 -11,15.8 L 141.6,59 c 2.8,-2.5 4.9,-4.9 6.6,-8.1 L 137.6,22 l 7.9,-2.1 6.8,23.4 6.7,-23.5 7.8,2.2 z"
   id="path52" />
	</g>
</g>
</svg>
