<?xml version="1.0" standalone="no"?>
<!DOCTYPE svg PUBLIC "-//W3C//DTD SVG 1.0//EN" "http://www.w3.org/TR/2001/REC-SVG-20010904/DTD/svg10.dtd">
<svg xmlns="http://www.w3.org/2000/svg" xmlns:xlink="http://www.w3.org/1999/xlink" id="body_1" width="287" height="287">

<g transform="matrix(0.6003431 0 0 0.6003431 -0 68.457115)">
    <path d="M388.4 127.19L386.94998 127.44L386.94998 148.5L385.69998 148.13L385.3 148.02C 382.70862 147.19626 380.01733 146.72865 377.3 146.63C 359.69 146.63 356 160 356 171.1C 356 186.42001 364.58 195.20001 379.55 195.20001C 384.88913 195.34863 390.21564 194.60509 395.31 193C 399.66 191.61 401.21 189.61 401.21 185.38L401.21 185.38L401.21 125C 396.99 125.76 392.63 126.49 388.4 127.19zM387 183.92L386.2 184.08C 384.27887 184.55467 382.30884 184.80304 380.33002 184.82C 375.63 184.82 370.03003 182.43001 370.03003 171.02C 370.03003 165.15001 371.03003 157.38 379.78003 157.38L379.78003 157.38L379.85004 157.38C 382.03873 157.51363 384.20215 157.9201 386.29004 158.59001L386.29004 158.59001L387.00003 158.80002z" stroke="none" fill="#1D252C" fill-rule="nonzero" />
    <path d="M433.13 146.37C 427.02457 146.47536 420.9725 147.5279 415.19 149.48999L415.19 149.48999L410.68 150.84999L412.19 161L416.57 159.57C 421.31442 158.03711 426.25555 157.19843 431.24002 157.08C 433.18002 157.08 439.09003 157.08 439.09003 163.49L439.09003 163.49L439.09003 166.29001L430.87003 166.29001C 415.87003 166.29001 408.96002 171.04001 408.96002 181.29001C 408.96002 190.06001 415.36002 195.29001 426.09003 195.29001C 430.13754 195.21036 434.16302 194.67361 438.09003 193.69L438.09003 193.69L438.30002 193.63L438.50003 193.63L439.82004 193.86C 444.04004 194.61 448.37003 195.38 452.59003 196.2L452.59003 196.2L452.59003 162.7C 452.59003 151.87 446.06003 146.37 433.18002 146.37L433.18002 146.37L433.13 146.37zM439.27002 184.31L438.53003 184.52L435.83002 185.24C 433.71692 185.84305 431.53662 186.179 429.34003 186.24C 425.22003 186.24 422.75003 184.17 422.75003 180.73001C 422.75003 178.48001 423.75003 174.73001 430.51004 174.73001L430.51004 174.73001L439.27005 174.73001z" stroke="none" fill="#1D252C" fill-rule="nonzero" />
    <path d="M328.86 146.37C 322.75156 146.47818 316.69666 147.53062 310.90997 149.48999L310.90997 149.48999L306.40997 150.84999L307.92 161L312.30002 159.57C 317.05496 158.0421 322.00674 157.21344 327 157.11C 328.93 157.11 334.84 157.11 334.84 163.52L334.84 163.52L334.84 166.31L326.6 166.31C 311.6 166.31 304.67 171.06999 304.67 181.31C 304.67 190.08 311.08002 195.31 321.82 195.31C 325.85114 195.22351 329.8597 194.68344 333.77002 193.7L333.77002 193.7L333.97003 193.64L334.18002 193.64L335.50003 193.88C 339.70004 194.62001 344.05002 195.40001 348.26004 196.21L348.26004 196.21L348.26004 162.7C 348.26004 151.86 341.73004 146.37 328.86005 146.37L328.86005 146.37L328.86 146.37zM335 184.31L334.27 184.52L331.56998 185.24C 329.45657 185.84163 327.27646 186.17755 325.08 186.24C 320.94998 186.24 318.5 184.17 318.5 180.74C 318.5 178.48001 319.5 174.68001 326.25 174.68001L326.25 174.68001L335 174.68001z" stroke="none" fill="#1D252C" fill-rule="nonzero" />
    <path d="M278.43 146.46C 273.40634 146.5162 268.4501 147.62328 263.88 149.71L263.88 149.71L263.34 149.95001L262.86 149.6C 259.99 147.49 255.71999 146.46 249.85999 146.46C 244.63493 146.46529 239.43916 147.24026 234.43999 148.76001C 229.87999 150.17001 228.08998 152.33002 228.08998 156.48001L228.08998 156.48001L228.08998 194.75002L242.36998 194.75002L242.36998 159.38L243.05998 159.14C 245.06696 158.40915 247.18414 158.02696 249.31998 158.01C 253.44998 158.01 255.53998 160.2 255.53998 164.51L255.53998 164.51L255.53998 194.75L269.61996 194.75L269.61996 163.88C 269.66132 162.83513 269.51224 161.79147 269.17996 160.8L269.17996 160.8L268.71997 159.87001L269.66998 159.45001C 271.8766 158.48465 274.2615 157.99403 276.66998 158.01001C 279.50998 158.01001 282.9 159.14001 282.9 164.51001L282.9 164.51001L282.9 194.75002L296.97998 194.75002L296.97998 163.07C 296.97998 151.89001 290.93 146.46 278.46997 146.46" stroke="none" fill="#1D252C" fill-rule="nonzero" />
    <path d="M428.73 53.77C 428.6 53.77 428.47 53.77 428.35 53.77C 420.15 53.77 411.69 56.010002 408.68 60.43C 406.98196 62.74921 406.08035 65.555786 406.11 68.43L406.11 68.43L406.11 89.74C 406.1798 90.65568 406.02893 91.57473 405.66998 92.42L405.66998 92.42L405.21 93.36L379.29 93.36L379.29 78.52C 378.97 62.899998 369.73 54.329994 356.34 54.329994L356.34 54.329994L343.23 54.329994C 342.67 58.149994 342.23 60.819992 341.73 64.60999L341.73 64.60999L354.73 64.60999C 361.54 64.60999 365.12003 70.42999 365.12003 79.329994L365.12003 79.329994L365.12003 94.25L364.19003 93.79C 363.19656 93.46701 362.154 93.32146 361.11005 93.36L361.11005 93.36L338.69 93.36C 338.27 96.2 337.69 99.89 337.12 103.630005L337.12 103.630005L406.12 103.630005C 408.44 103.18001 411.21 102.75001 413.57 102.32001C 417.06 104.03001 423.57 104.93001 428.04 104.93001C 443.04 104.93001 452.73 94.93001 452.73 79.41C 452.73 64.090004 443.33002 54.08 428.73 53.770004M428.73 93.07001C 425.9406 93.06227 423.15698 92.8147 420.41 92.33001L420.41 92.33001L419.61002 92.16001L419.61002 71.49C 419.6529 70.49323 419.51398 69.496994 419.2 68.549995L419.2 68.549995L418.76 67.659996L419.66 67.27C 419.88 67.17 420.12 67.10999 420.34 67.02L420.34 67.02L420.49 66.92L421.43 66.619995C 421.57 66.619995 421.69 66.53 421.84 66.49999C 424.2516 65.9083 426.72693 65.6161 429.21 65.62999L429.21 65.62999L429.27 65.62999C 438.02 65.62999 439.02 73.40999 439.02 79.24999C 439.02 90.66999 433.41998 93.06999 428.72998 93.06999" stroke="none" fill="#1D252C" fill-rule="nonzero" />
    <path d="M307.76 109.85L308.40002 109.85C 323.40002 109.85 330.33002 104.9 330.33002 92.72C 330.33 84 323.92 77 313.19 77L313.19 77L299.38 77C 295.25 77 292.79 74.66 292.79 70.69C 292.79 68.01 293.79 64.64 300.55002 64.64L300.55002 64.64L330.69 64.64C 331.32 60.73 331.69 58.239998 332.26 54.37L332.26 54.37L300.91 54.37C 286.3 54.33 279 60.42 279 70.65C 279 80.73 285.38 86 296.13 86L296.13 86L309.94 86C 311.71747 85.97988 313.42584 86.68747 314.66855 87.958496C 315.91125 89.22953 316.58017 90.953445 316.52 92.73C 316.52 94.98 315.52 99.64 308.77 99.64L308.77 99.64L306.44 99.64L262.26 99.55L254.26001 99.55C 247.45001 99.55 242.65001 95.64 242.65001 86.740005L242.65001 86.740005L242.65001 80.55C 242.65001 71.23 246.37001 65.41 254.26001 65.41L254.26001 65.41L267.42 65.41C 268.03 61.410004 268.42 58.940002 268.95 55.140003L268.95 55.140003L251 55.140003C 237.61 55.140003 228.37 64.14 228.05 79.73L228.05 79.73L228.05 80.310005L228.05 86.71001C 228.37001 102.340004 237.61 109.78001 251 109.78001L251 109.78001L264.1 109.78001L288.01 109.78001L307.76 109.78001L307.76 109.85z" stroke="none" fill="#1D252C" fill-rule="nonzero" />
    <path d="M25.34 135.96L206.15 135.96L206.15 196.23001L25.34 196.23001z" stroke="none" fill="#80BC00" fill-rule="nonzero" />
    <path d="M25.34 53.77L206.15 53.77L206.15 114.04L25.34 114.04z" stroke="none" fill="#00A0DF" fill-rule="nonzero" />
</g>
</svg>