<?xml version="1.0" encoding="UTF-8" standalone="no"?>
<svg
   version="1.1"
   id="svg2"
   xml:space="preserve"
   width="350"
   height="350"
   viewBox="0 0 349.99999 350"
   sodipodi:docname="npay.svg"
   inkscape:version="1.2.1 (9c6d41e410, 2022-07-14)"
   xmlns:inkscape="http://www.inkscape.org/namespaces/inkscape"
   xmlns:sodipodi="http://sodipodi.sourceforge.net/DTD/sodipodi-0.dtd"
   xmlns="http://www.w3.org/2000/svg"
   xmlns:svg="http://www.w3.org/2000/svg"><defs
     id="defs6"><clipPath
       clipPathUnits="userSpaceOnUse"
       id="clipPath16"><path
         d="M 0,400 H 800 V 0 H 0 Z"
         id="path14" /></clipPath></defs><sodipodi:namedview
     id="namedview4"
     pagecolor="#ffffff"
     bordercolor="#666666"
     borderopacity="1.0"
     inkscape:pageshadow="2"
     inkscape:pageopacity="0.0"
     inkscape:pagecheckerboard="0"
     inkscape:showpageshadow="2"
     inkscape:deskcolor="#d1d1d1"
     showgrid="false"
     inkscape:zoom="1.2281249"
     inkscape:cx="532.51912"
     inkscape:cy="266.66669"
     inkscape:window-width="1920"
     inkscape:window-height="991"
     inkscape:window-x="-9"
     inkscape:window-y="-9"
     inkscape:window-maximized="1"
     inkscape:current-layer="g10"><sodipodi:guide
       position="0,175"
       orientation="0,1"
       id="guide443"
       inkscape:locked="false"
       inkscape:label=""
       inkscape:color="rgb(0,134,229)" /><sodipodi:guide
       position="350,350"
       orientation="350,0"
       id="guide445"
       inkscape:locked="false" /><sodipodi:guide
       position="350,0"
       orientation="0,-350"
       id="guide447"
       inkscape:locked="false" /><sodipodi:guide
       position="175,0"
       orientation="-1,0"
       id="guide449"
       inkscape:locked="false"
       inkscape:label=""
       inkscape:color="rgb(0,134,229)" /></sodipodi:namedview><g
     id="g8"
     inkscape:groupmode="layer"
     inkscape:label="npay"
     transform="matrix(1.3333333,0,0,-1.3333333,0,533.33333)"><g
       id="g10"
       transform="translate(-274.80919,120.30536)"><g
         id="g12"
         clip-path="url(#clipPath16)"
         transform="translate(6.1068708,-51.297716)"><g
           id="g18"
           transform="translate(409.0195,221.3203)"><path
             d="m 0,0 v -20.817 h 11.03 c 8.076,0 12.115,3.34 12.115,10.021 v 1.398 c 0,3.21 -0.97,5.579 -2.912,7.106 C 18.292,-0.765 15.507,0 11.883,0 Z M -7.689,6.68 H 12.31 c 3.151,0 5.891,-0.402 8.215,-1.204 2.326,-0.804 4.25,-1.916 5.775,-3.34 1.524,-1.425 2.66,-3.12 3.411,-5.088 0.748,-1.968 1.124,-4.091 1.124,-6.369 v -1.631 c 0,-2.279 -0.401,-4.415 -1.202,-6.408 -0.8,-1.994 -1.975,-3.742 -3.524,-5.243 -1.55,-1.502 -3.473,-2.693 -5.772,-3.573 -2.298,-0.881 -4.972,-1.32 -8.019,-1.32 H 0 v -21.826 h -7.689 z"
             style="fill:#333333;fill-opacity:1;fill-rule:nonzero;stroke:none"
             id="path20" /></g><g
           id="g22"
           transform="translate(471.8525,191.3384)"><path
             d="m 0,0 h -10.641 c -2.951,0 -5.062,-0.57 -6.33,-1.708 -1.269,-1.141 -1.903,-2.719 -1.903,-4.738 v -1.088 c 0,-2.072 0.725,-3.573 2.175,-4.505 1.449,-0.932 3.184,-1.398 5.204,-1.398 1.864,0 3.482,0.219 4.854,0.66 1.371,0.439 2.628,1.099 3.767,1.981 1.035,0.776 1.773,1.67 2.214,2.679 0.439,1.01 0.66,2.318 0.66,3.923 z m -12.271,-19.961 c -4.299,0 -7.704,1.061 -10.214,3.184 -2.512,2.123 -3.767,5.048 -3.767,8.777 v 2.097 c 0,3.624 1.215,6.575 3.65,8.855 2.433,2.278 6.369,3.417 11.806,3.417 L 0,6.369 v 2.486 c 0,2.847 -0.687,4.958 -2.059,6.331 -1.372,1.371 -3.611,2.058 -6.717,2.058 -2.486,0 -4.649,-0.389 -6.486,-1.165 -1.839,-0.777 -3.741,-1.814 -5.709,-3.107 l -3.728,5.592 c 2.071,1.449 4.4,2.706 6.99,3.767 2.589,1.061 5.592,1.592 9.01,1.592 2.381,0 4.555,-0.298 6.525,-0.893 1.966,-0.596 3.661,-1.476 5.086,-2.641 1.423,-1.165 2.537,-2.59 3.34,-4.271 0.802,-1.684 1.205,-3.587 1.205,-5.71 V -19.34 H 0.233 v 5.127 H 0.155 c -0.415,-0.778 -0.971,-1.491 -1.67,-2.137 -0.699,-0.648 -1.463,-1.204 -2.291,-1.67 -1.14,-0.621 -2.368,-1.099 -3.689,-1.437 -1.321,-0.336 -2.913,-0.504 -4.776,-0.504"
             style="fill:#333333;fill-opacity:1;fill-rule:nonzero;stroke:none"
             id="path24" /></g><g
           id="g26"
           transform="translate(505.561,180.542)"><path
             d="m 0,0 11.184,33.943 h 7.922 l -22.058,-60.041 -6.834,2.409 5.515,14.524 -15.457,43.108 h 8.155 L -0.311,0 Z"
             style="fill:#333333;fill-opacity:1;fill-rule:nonzero;stroke:none"
             id="path28" /></g><path
           d="m 275.333,249 h 97.998 v -98 h -97.998 z"
           style="fill:#00c73c;fill-opacity:1;fill-rule:nonzero;stroke:none"
           id="path30" /><g
           id="g32"
           transform="translate(332.1245,177.5688)"><path
             d="M 0,0 -15.808,23.223 V 0 h -16.484 v 44.862 h 16.713 L 0.23,21.643 V 44.862 H 16.707 V 0 Z"
             style="fill:#ffffff;fill-opacity:1;fill-rule:nonzero;stroke:none"
             id="path34" /></g></g></g></g></svg>
