<?xml version="1.0" encoding="UTF-8" standalone="no"?>
<svg
   viewBox="0 0 40 40"
   version="1.1"
   id="svg327"
   sodipodi:docname="payco.svg"
   width="40"
   height="40"
   inkscape:version="1.2.1 (9c6d41e410, 2022-07-14)"
   xmlns:inkscape="http://www.inkscape.org/namespaces/inkscape"
   xmlns:sodipodi="http://sodipodi.sourceforge.net/DTD/sodipodi-0.dtd"
   xmlns="http://www.w3.org/2000/svg"
   xmlns:svg="http://www.w3.org/2000/svg">
  <sodipodi:namedview
     id="namedview329"
     pagecolor="#ffffff"
     bordercolor="#000000"
     borderopacity="0.25"
     inkscape:showpageshadow="2"
     inkscape:pageopacity="0.0"
     inkscape:pagecheckerboard="0"
     inkscape:deskcolor="#d1d1d1"
     showgrid="false"
     showguides="true"
     inkscape:lockguides="false"
     inkscape:zoom="10.932959"
     inkscape:cx="26.525299"
     inkscape:cy="28.125964"
     inkscape:window-width="1920"
     inkscape:window-height="991"
     inkscape:window-x="-9"
     inkscape:window-y="-9"
     inkscape:window-maximized="1"
     inkscape:current-layer="svg327">
    <sodipodi:guide
       position="0,20"
       orientation="0,1"
       inkscape:locked="false"
       id="guide333"
       inkscape:label=""
       inkscape:color="rgb(0,134,229)" />
    <sodipodi:guide
       position="40,40"
       orientation="40,0"
       inkscape:locked="false"
       id="guide335" />
    <sodipodi:guide
       position="40,0"
       orientation="0,-40"
       inkscape:locked="false"
       id="guide337" />
    <sodipodi:guide
       position="20,0"
       orientation="-1,0"
       inkscape:locked="false"
       id="guide339"
       inkscape:label=""
       inkscape:color="rgb(0,134,229)" />
  </sodipodi:namedview>
  <defs
     id="defs311">
    <mask
       id="a"
       width="8.22"
       height="8.14"
       x="29.43"
       y="8.96"
       maskUnits="userSpaceOnUse">
      <path
         fill="#ffffff"
         d="M 37.65,17.1 V 8.96 h -8.22 v 8.14 z"
         id="path305" />
    </mask>
    <mask
       id="b"
       width="7"
       height="8.14"
       x="21.94"
       y="8.96"
       maskUnits="userSpaceOnUse">
      <path
         fill="#ffffff"
         d="m 21.94,17.1 h 7 V 8.96 h -7 z"
         id="path308" />
    </mask>
  </defs>
  <path
     fill="#f61a23"
     d="M 0.06467662,7.0497513 H 40.064677 V 33.049751 H 0.06467662 Z"
     id="path313" />
  <g
     mask="url(#a)"
     id="g317"
     transform="translate(0.06467662,7.0497513)">
    <path
       fill="#ffffff"
       d="m 33.66,10.55 a 2.35,2.35 0 0 0 -1.38,0.34 2.54,2.54 0 0 0 -1.05,2.67 2.34,2.34 0 0 0 2.4,1.98 2.2,2.2 0 0 0 1.68,-0.8 2.6,2.6 0 0 0 0.54,-2.22 2.31,2.31 0 0 0 -2.2,-1.97 z m 0,-1.59 c 0.16,0.02 0.31,0.05 0.47,0.06 a 3.95,3.95 0 0 1 3.47,3.37 4.02,4.02 0 0 1 -3.34,4.64 4.11,4.11 0 0 1 -3.38,-0.85 3.82,3.82 0 0 1 -1.42,-2.67 4,4 0 0 1 0.83,-2.98 3.93,3.93 0 0 1 2.5,-1.48 C 32.95,9.02 33.12,9.02 33.29,9 a 1.3,1.3 0 0 0 0.14,-0.04 z"
       id="path315" />
  </g>
  <path
     fill="#ffffff"
     d="m 3.9046766,18.849751 v 1.07 c 0,0.12 0.04,0.17 0.16,0.16 0.46,0 0.93,0 1.4,-0.02 a 1.16,1.16 0 0 0 1.18,-1.13 1.05,1.05 0 0 0 -0.64,-1.16 2.07,2.07 0 0 0 -0.68,-0.14 c -0.42,-0.02 -0.84,0 -1.27,-0.01 -0.12,0 -0.15,0.05 -0.15,0.17 v 1.06 m -1.69,-1.94 a 1.09,1.09 0 0 0 0.04,-0.12 0.82,0.82 0 0 1 0.8,-0.69 c 0.85,0 1.7,-0.02 2.54,0 a 2.87,2.87 0 0 1 2.04,0.83 2.45,2.45 0 0 1 0.67,1.39 2.99,2.99 0 0 1 -0.15,1.58 2.5,2.5 0 0 1 -1.56,1.45 3.97,3.97 0 0 1 -1.31,0.23 h -1.23 c -0.12,0 -0.15,0.04 -0.15,0.16 v 1.46 a 0.84,0.84 0 0 1 -0.76,0.88 0.83,0.83 0 0 1 -0.9,-0.72 0.67,0.67 0 0 0 -0.03,-0.1 v -6.34"
     id="path319" />
  <g
     mask="url(#b)"
     id="g323"
     transform="translate(0.06467662,7.0497513)">
    <path
       fill="#ffffff"
       d="m 26.07,8.96 0.57,0.06 a 3.78,3.78 0 0 1 1.93,0.77 0.85,0.85 0 0 1 0.19,1.1 0.82,0.82 0 0 1 -1.08,0.28 C 27.55,11.1 27.44,11.01 27.31,10.93 a 2.3,2.3 0 0 0 -2.5,-0.06 2.25,2.25 0 0 0 -1.06,1.6 2.67,2.67 0 0 0 0.54,2.29 2.1,2.1 0 0 0 1.6,0.78 2.56,2.56 0 0 0 1.77,-0.62 0.74,0.74 0 0 1 0.88,-0.08 0.77,0.77 0 0 1 0.16,1.22 3.47,3.47 0 0 1 -1.74,0.93 4.2,4.2 0 0 1 -2.93,-0.35 3.81,3.81 0 0 1 -2.03,-2.9 4.08,4.08 0 0 1 0.75,-3.18 3.81,3.81 0 0 1 2.63,-1.53 l 0.47,-0.07 z"
       id="path321" />
  </g>
  <path
     fill="#ffffff"
     d="m 11.844677,18.139751 h -0.05 l -1.07,2.6 0.18,0.02 h 1.83 c 0.19,0 0.2,-0.01 0.12,-0.19 l -0.95,-2.3 -0.06,-0.13 m -0.03,4.11 h -1.58 a 0.17,0.17 0 0 0 -0.2,0.12 c -0.1500001,0.4 -0.3200001,0.79 -0.4800004,1.18 a 0.8,0.8 0 0 1 -0.72,0.53 0.77,0.77 0 0 1 -0.75,-1.08 l 0.67,-1.55 2.0200004,-4.63 a 1.09,1.09 0 0 1 0.76,-0.74 1.07,1.07 0 0 1 1.35,0.67 l 1.53,3.5 1.16,2.66 a 0.8,0.8 0 0 1 -0.05,0.82 0.79,0.79 0 0 1 -1.31,0 1.68,1.68 0 0 1 -0.17,-0.3 l -0.44,-1.05 a 0.17,0.17 0 0 0 -0.19,-0.13 h -1.6 m 6.55,-2.86 0.1,-0.13 1.84,-2.66 a 1.61,1.61 0 0 1 0.27,-0.31 0.8,0.8 0 0 1 0.92,-0.1 0.75,0.75 0 0 1 0.42,0.75 1.12,1.12 0 0 1 -0.27,0.63 l -2.37,3.26 a 0.47,0.47 0 0 0 -0.1,0.3 v 2.1 a 0.83,0.83 0 0 1 -1.48,0.52 0.78,0.78 0 0 1 -0.17,-0.49 v -2.1 a 0.5,0.5 0 0 0 -0.1,-0.31 l -2.4,-3.3 a 1.03,1.03 0 0 1 -0.22,-0.57 0.77,0.77 0 0 1 0.41,-0.77 0.79,0.79 0 0 1 0.9,0.06 1.58,1.58 0 0 1 0.34,0.36 l 1.8,2.6 c 0.02,0.06 0.06,0.1 0.1,0.16"
     id="path325" />
</svg>
