<svg width="121" height="40" viewBox="0 0 121 40" fill="none" xmlns="http://www.w3.org/2000/svg">
    <mask id="mask0" style="mask-type:alpha" maskUnits="userSpaceOnUse" x="0" y="0" width="121" height="40">
        <path fill-rule="evenodd" clip-rule="evenodd" d="M0 0H120.69V40H0V0Z" fill="white"/>
    </mask>
    <g mask="url(#mask0)">
        <path fill-rule="evenodd" clip-rule="evenodd" d="M16.4608 29.9902C15.7547 30.239 14.1353 30.4055 13.0967 30.4055C9.85694 30.4055 7.4898 29.3252 6.11918 27.4982C5.08056 26.1276 4.6237 24.3417 4.6237 21.4751V14.4153H-6.10352e-05V9.84662H4.6237V0.501984H10.0234V9.84662H16.608V14.4153H10.0234V22.0985C10.0234 23.3447 10.2311 24.0925 10.6879 24.6321C11.2276 25.255 12.0997 25.6291 13.4292 25.6291C14.2181 25.6291 15.2562 25.5042 15.6303 25.421L16.4608 29.9902Z" fill="#292929"/>
        <path fill-rule="evenodd" clip-rule="evenodd" d="M85.6697 39.9579L91.2352 27.9547L82.2224 9.84665H88.1614L94.0597 21.9325L99.5003 9.84665H105.191L91.3179 39.9579H85.6697Z" fill="#292929"/>
        <path fill-rule="evenodd" clip-rule="evenodd" d="M27.4186 25.5932C24.2844 25.5932 21.7433 23.0527 21.7433 19.918C21.7433 16.7838 24.2844 14.2427 27.4186 14.2427C30.5528 14.2427 33.0939 16.7838 33.0939 19.918C33.0939 23.0527 30.5528 25.5932 27.4186 25.5932ZM32.8308 9.84645V11.4663C31.2525 10.1789 29.2174 9.43069 26.933 9.43069C21.451 9.43069 17.0483 13.9999 17.0483 19.9388C17.0483 22.6801 18.0448 25.1721 19.6235 26.9996C21.4094 29.0763 24.2339 30.4053 27.2239 30.4053C29.259 30.4053 31.1698 29.782 32.8308 28.3702V29.9901H38.0224V9.84645H32.8308Z" fill="#292929"/>
        <path fill-rule="evenodd" clip-rule="evenodd" d="M51.0693 25.5935C47.9348 25.5935 45.3938 23.053 45.3938 19.9183C45.3938 16.7841 47.9348 14.243 51.0693 14.243C54.2034 14.243 56.7445 16.7841 56.7445 19.9183C56.7445 23.053 54.2034 25.5935 51.0693 25.5935ZM51.5548 9.43086C49.2703 9.43086 47.2352 10.1791 45.6569 11.4665V0.501984H40.4655V29.9902H45.6569V28.3704C47.3179 29.7821 49.229 30.4055 51.2638 30.4055C54.2538 30.4055 57.0783 29.0765 58.8645 26.9998C60.4431 25.1722 61.44 22.6802 61.44 19.939C61.44 14.0001 57.0369 9.43086 51.5548 9.43086Z" fill="#292929"/>
        <path fill-rule="evenodd" clip-rule="evenodd" d="M73.3776 25.5935C70.2435 25.5935 67.7025 23.053 67.7025 19.9183C67.7025 16.7841 70.2435 14.243 73.3776 14.243C76.5121 14.243 79.0528 16.7841 79.0528 19.9183C79.0528 23.053 76.5121 25.5935 73.3776 25.5935ZM73.8631 9.43086C71.5787 9.43086 69.5442 10.1791 67.9656 11.4665V0.501984H62.7742V29.9902H67.9656V28.3704C69.6269 29.7821 71.5373 30.4055 73.5728 30.4055C76.5628 30.4055 79.3873 29.0765 81.1728 26.9998C82.7514 25.1722 83.7483 22.6802 83.7483 19.939C83.7483 14.0001 79.3456 9.43086 73.8631 9.43086Z" fill="#292929"/>
        <path fill-rule="evenodd" clip-rule="evenodd" d="M117.942 1.22327L115.198 5.97684H120.69C120.507 4.01505 119.463 2.30648 117.942 1.22327ZM118.181 2.59327C118.869 3.28849 119.366 4.14625 119.624 5.08477H116.742L118.181 2.59327Z" fill="#292929"/>
        <path fill-rule="evenodd" clip-rule="evenodd" d="M111.38 12.5893C112.217 12.9728 113.144 13.1928 114.125 13.1928C115.106 13.1928 116.032 12.9728 116.869 12.5893L114.124 7.83566L111.38 12.5893Z" fill="#292929"/>
        <path fill-rule="evenodd" clip-rule="evenodd" d="M115.198 7.21573L117.942 11.9693C119.463 10.8861 120.506 9.17752 120.689 7.21573H115.198Z" fill="#292929"/>
        <path fill-rule="evenodd" clip-rule="evenodd" d="M116.869 0.603522C116.033 0.219983 115.105 -3.05176e-05 114.125 -3.05176e-05C113.144 -3.05176e-05 112.217 0.219983 111.38 0.603522L114.124 5.35709L116.869 0.603522Z" fill="#292929"/>
        <path fill-rule="evenodd" clip-rule="evenodd" d="M112.962 7.15359H107.47C107.653 9.11539 108.697 10.8239 110.217 11.9072L112.962 7.15359Z" fill="#292929"/>
        <path fill-rule="evenodd" clip-rule="evenodd" d="M112.962 5.91504L110.217 1.16147C108.696 2.24419 107.653 3.95325 107.47 5.91504H112.962Z" fill="#292929"/>
    </g>
</svg>
