<?xml version="1.0" encoding="UTF-8" standalone="no"?>
<svg xmlns="http://www.w3.org/2000/svg" viewBox="0 0 40 40" width="40" height="40">
  <defs
     id="defs253" />
  <path
     fill="#0ee06e"
     d="M 0.03992016,6.9461078 H 40.03992 V 32.946108 H 0.03992016 Z"
     id="path245" />
  <path
     fill="#000000"
     d="m 9.2199202,27.466108 v -4.66 h -1.68 v -1.02 H 12.00992 v 1.02 h -1.68 v 4.66 H 9.2299202 Z m 2.6599998,0 v -4.12 h 1.03 v 0.65 c 0.27,-0.55 0.6,-0.65 0.96,-0.65 h 0.4 v 1.03 h -0.35 c -0.52,0 -0.98,0.3 -0.98,1.21 v 1.88 z m 2.97,-1.49 v -2.63 h 1.06 v 2.38 c 0,0.53 0.27,0.88 0.75,0.88 0.47,0 0.82,-0.35 0.82,-0.87 v -2.4 h 1.06 v 4.13 h -1.02 v -0.52 c -0.27,0.42 -0.68,0.61 -1.2,0.61 -0.86,0 -1.47,-0.57 -1.47,-1.58 z m 4.25,0.32 0.93,-0.2 c 0.04,0.36 0.34,0.6 0.83,0.6 0.4,0 0.64,-0.17 0.64,-0.39 0,-0.18 -0.11,-0.3 -0.5,-0.4 l -0.67,-0.15 c -0.79,-0.18 -1.15,-0.55 -1.15,-1.24 0,-0.7 0.58,-1.25 1.65,-1.25 1.13,0 1.6,0.67 1.66,1.15 l -0.94,0.2 c -0.04,-0.25 -0.23,-0.52 -0.75,-0.52 -0.33,0 -0.58,0.15 -0.58,0.37 0,0.2 0.15,0.3 0.37,0.36 l 0.91,0.21 c 0.71,0.17 1.05,0.59 1.05,1.2 0,0.66 -0.54,1.31 -1.68,1.31 -1.25,0 -1.72,-0.74 -1.77,-1.25 z m 5.64,1.17 c -0.72,0 -1.16,-0.4 -1.16,-1.15 v -2.05 h -0.7 v -0.92 h 0.7 v -0.95 l 1.05,-0.3 v 1.25 h 0.84 v 0.92 h -0.84 v 1.86 c 0,0.3 0.15,0.42 0.46,0.42 h 0.46 v 0.92 h -0.82 z m 1.5,0 v -5.68 h 1.05 v 5.68 h -1.06 z m 4.55,-4.12 h 1.13 l -1.74,5.6 h -1.14 l 0.49,-1.48 h -0.58 l -1.17,-4.12 h 1.13 l 0.9,3.24 z m -16.88,-8.58 h 4.07 v -3.25 l 3.24,3.25 -3.24,3.25 v 1.66 h 3.94 v -4.9 h 3.62 v -3.83 h -11.63 z"
     id="path247" />
</svg>
