<?xml version="1.0" encoding="UTF-8" standalone="no"?>
<svg viewBox="0 0 569.48 569.48" xmlns="http://www.w3.org/2000/svg">
  <defs
     id="defs113">
    <radialGradient
       id="a"
       cx="237.46"
       cy="269.28"
       r="77.47"
       gradientUnits="userSpaceOnUse"
       gradientTransform="translate(-135.06331,-12.186892)">
      <stop
         offset="0"
         stop-color="#fc0"
         id="stop77" />
      <stop
         offset=".09"
         stop-color="#ffc800"
         id="stop79" />
      <stop
         offset=".17"
         stop-color="#ffbd00"
         id="stop81" />
      <stop
         offset=".25"
         stop-color="#ffab00"
         id="stop83" />
      <stop
         offset=".33"
         stop-color="#ff9100"
         id="stop85" />
      <stop
         offset=".4"
         stop-color="#ff7000"
         id="stop87" />
      <stop
         offset=".48"
         stop-color="#ff4700"
         id="stop89" />
      <stop
         offset=".55"
         stop-color="#ff1800"
         id="stop91" />
      <stop
         offset=".58"
         stop-color="red"
         id="stop93" />
      <stop
         offset="1"
         stop-color="red"
         id="stop95" />
    </radialGradient>
    <radialGradient
       id="b"
       cx="190.76"
       cy="273.74"
       r="71.04"
       gradientUnits="userSpaceOnUse"
       gradientTransform="translate(-135.06331,-12.186892)">
      <stop
         offset="0"
         stop-color="#00b4e6"
         id="stop98" />
      <stop
         offset=".2"
         stop-color="#00b0e3"
         id="stop100" />
      <stop
         offset=".39"
         stop-color="#01a5db"
         id="stop102" />
      <stop
         offset=".57"
         stop-color="#0292cd"
         id="stop104" />
      <stop
         offset=".75"
         stop-color="#0377ba"
         id="stop106" />
      <stop
         offset=".93"
         stop-color="#0455a1"
         id="stop108" />
      <stop
         offset="1"
         stop-color="#054696"
         id="stop110" />
    </radialGradient>
  </defs>
  <rect
     width="569.47998"
     height="215.81"
     rx="7.9200001"
     ry="7.9200001"
     id="rect115"
     x="1.1366866"
     y="177.3231" />
  <path
     d="m 178.30669,322.35311 a 7.34,7.34 0 0 1 -3.31,5.73 l -64.31,37.13 a 7.34,7.34 0 0 1 -6.62,0 l -64.320003,-37.13 a 7.34,7.34 0 0 1 -3.31,-5.73 v -74.26 a 7.34,7.34 0 0 1 3.31,-5.73 l 64.320003,-37.13 a 7.34,7.34 0 0 1 6.62,0 l 64.31,37.13 a 7.34,7.34 0 0 1 3.31,5.73 z m 357.01,-68.91 h -57.61 v 13.69 h 20.65 v 58.8 h 16.3 v -58.8 h 20.66 z m -261.53,0 h -57.62 v 13.69 h 20.66 v 58.8 h 16.3 v -58.8 h 20.66 z m 166.64,-2.3 c -18.11,0 -28.2,11.56 -28.2,28.28 v 46.51 h 16.11 v -46.86 c 0,-7.29 4.33,-12.88 12.27,-12.88 7.94,0 12.22,6.64 12.22,12.88 v 46.86 h 16.11 v -46.51 c 0,-16.72 -10.43,-28.28 -28.54,-28.28 z m -60.86,2.3 v 72.49 h 16.19 v -72.49 z m -54.61,28.72 0.54,3.22 15.12,40.55 h 6.6 l 20.61,-72.49 h -15.94 l -9.81,38.08 -0.58,4.08 -0.8,-4.08 -13.12,-38.08 h -5.25 l -13.12,38.08 -0.79,4.08 -0.58,-4.08 -9.81,-38.08 h -15.94 l 20.61,72.49 h 6.6 l 15.12,-40.55 0.54,-3.22"
     style="fill:#ffffff"
     id="path117" />
  <path
     d="m 140.85669,285.40311 -16.75,24.58 -8.6,-13.17 9.93,-14.8 c 1.84,-2.65 5.77,-9.88 1.22,-19.8 a 20.61,20.61 0 0 0 -37.380003,0 19,19 0 0 0 1.13,19.5 c 0,0 5.48,8.08 10.100003,14.89 l 7.43,10.74 11.24,17.15 a 6.41,6.41 0 0 0 5,2.84 c 3,0 4.83,-2.67 5.06,-3 l 26.29,-38.92 z m -33,0.63 c 0,0 -4.39,-6.65 -7.24,-11.31 a 8.33,8.33 0 1 1 14.49,0 c -2.8,4.65 -7.17,11.31 -7.17,11.31 z"
     style="fill:url(#a)"
     id="path119" />
  <path
     d="m 91.736687,309.19311 -16.47,-23.13 c 0,0 -4.39,-6.68 -7.24,-11.33 a 8.29,8.29 0 0 1 7.24,-12.43 8.76,8.76 0 0 1 2.41,0.33 l 5.82,-10.64 a 20.53,20.53 0 0 0 -26.86,10.21 19,19 0 0 0 1.13,19.5 l 28.8,42.66 c 0.24,0.37 2.07,3.06 5.13,3.06 a 6.4,6.4 0 0 0 5.06,-3 l 8.680003,-13.25 -7.450003,-11 z"
     style="fill:url(#b)"
     id="path121" />
</svg>
