<?xml version="1.0" standalone="no"?>
<!DOCTYPE svg PUBLIC "-//W3C//DTD SVG 20010904//EN"
 "http://www.w3.org/TR/2001/REC-SVG-20010904/DTD/svg10.dtd">
<svg version="1.0" xmlns="http://www.w3.org/2000/svg"
 width="769.000000pt" height="769.000000pt" viewBox="0 0 769.000000 769.000000"
 preserveAspectRatio="xMidYMid meet">

<g transform="translate(0.000000,769.000000) scale(0.100000,-0.100000)"
fill="#000000" stroke="none">
<path d="M6055 5940 c-61 -7 -109 -17 -230 -49 -58 -16 -201 -85 -280 -137
-326 -214 -528 -526 -591 -914 -21 -133 -30 -121 88 -118 l103 3 13 70 c7 39
15 84 18 100 3 17 9 39 14 50 5 11 11 29 13 40 24 95 99 248 166 338 187 253
432 395 738 428 299 32 572 -43 783 -216 174 -142 283 -300 346 -500 27 -84
29 -101 29 -265 0 -114 -5 -194 -13 -230 -61 -248 -149 -408 -379 -693 -124
-153 -284 -336 -378 -432 -11 -12 -69 -75 -130 -140 -60 -66 -121 -132 -135
-146 -14 -14 -68 -73 -120 -130 -52 -57 -187 -203 -299 -324 -112 -121 -229
-247 -260 -280 -30 -33 -85 -92 -121 -130 -120 -129 -184 -199 -295 -320 -60
-66 -120 -130 -133 -143 -14 -13 -22 -25 -20 -28 3 -2 578 -4 1279 -4 l1274 0
3 95 c2 72 0 95 -10 95 -7 0 -476 1 -1043 3 -941 2 -1030 3 -1033 18 -2 9 10
30 25 46 15 16 55 58 88 94 33 35 94 101 135 145 130 139 347 372 475 510 5 6
59 64 120 130 60 65 139 151 175 189 152 162 192 205 281 305 52 58 119 134
149 170 30 36 61 71 68 79 7 7 57 70 111 140 266 341 361 552 392 864 21 203
-7 405 -79 577 -66 156 -153 280 -294 416 -143 139 -312 228 -533 279 -82 19
-399 29 -510 15z"/>
<path d="M140 5842 c0 -5 8 -26 19 -48 10 -21 28 -61 41 -89 34 -78 45 -104
84 -188 20 -43 36 -80 36 -83 0 -2 32 -75 71 -161 39 -87 89 -198 111 -248 22
-49 54 -118 69 -153 16 -35 29 -65 29 -67 0 -2 16 -39 36 -82 20 -43 43 -94
51 -113 9 -19 33 -72 54 -117 22 -46 39 -85 39 -87 0 -3 15 -37 34 -78 65
-142 86 -189 86 -193 0 -2 18 -42 40 -89 22 -47 40 -87 40 -90 0 -2 16 -40 36
-83 20 -43 49 -106 65 -141 16 -35 29 -65 29 -67 0 -2 21 -48 46 -102 25 -54
57 -124 70 -156 14 -32 37 -86 53 -120 16 -34 54 -120 86 -192 31 -71 68 -153
81 -182 13 -28 24 -54 24 -58 0 -3 17 -42 39 -88 21 -45 45 -98 54 -117 8 -19
30 -66 47 -105 33 -73 43 -95 83 -185 33 -74 63 -140 103 -228 19 -41 34 -77
34 -82 0 -5 10 -28 23 -52 12 -24 33 -68 46 -98 59 -138 75 -170 88 -170 7 0
13 6 13 14 0 7 16 49 36 92 20 43 49 107 65 142 16 35 29 74 29 86 0 12 -14
51 -31 87 -18 35 -46 98 -64 139 -18 41 -46 104 -63 140 -17 36 -50 110 -75
165 -25 55 -59 132 -77 170 -17 39 -38 84 -45 100 -7 17 -27 59 -43 95 -16 36
-38 85 -50 110 -93 208 -167 369 -201 443 -23 49 -41 90 -41 93 0 2 -22 51
-50 109 -27 58 -50 107 -50 109 0 5 -143 320 -201 444 -21 46 -39 85 -39 87 0
2 -13 32 -29 67 -16 35 -45 98 -65 141 -20 43 -36 80 -36 83 0 2 -20 46 -45
98 -24 51 -53 115 -64 142 -11 27 -36 82 -55 122 -20 40 -36 74 -36 77 0 2
-15 36 -34 77 -32 69 -53 116 -106 233 -12 28 -36 79 -52 115 -16 36 -36 79
-43 95 -7 17 -32 70 -54 118 -23 49 -41 93 -41 98 0 21 -48 29 -169 29 -72 0
-131 -4 -131 -8z"/>
<path d="M686 5842 c-3 -5 10 -42 29 -81 19 -39 35 -73 35 -76 0 -2 16 -39 36
-82 20 -43 49 -106 65 -141 16 -35 29 -65 29 -68 0 -2 23 -52 51 -111 28 -60
59 -126 69 -148 10 -22 29 -65 43 -95 36 -78 65 -143 147 -325 92 -204 108
-239 135 -300 13 -27 55 -122 95 -210 92 -204 108 -239 135 -300 13 -27 55
-122 95 -210 39 -88 89 -198 111 -243 21 -46 39 -86 39 -88 0 -3 18 -44 41
-92 41 -87 53 -114 104 -227 15 -33 38 -84 51 -112 134 -294 238 -526 248
-555 8 -25 25 -22 35 5 5 12 24 56 43 97 19 41 45 101 58 132 l23 57 -28 63
c-16 35 -48 105 -72 156 -23 51 -43 95 -43 97 0 3 -25 57 -55 121 -30 64 -55
118 -55 120 0 2 -14 34 -31 71 -52 112 -74 161 -149 328 -108 239 -110 245
-142 315 -16 36 -37 81 -45 100 -9 19 -26 58 -38 85 -50 107 -156 341 -200
440 -12 28 -38 84 -97 215 -14 30 -34 75 -46 100 -126 281 -239 530 -291 643
-17 37 -31 69 -31 72 0 5 -96 213 -109 235 -6 12 -36 16 -144 18 -74 1 -138
-2 -141 -6z"/>
<path d="M1226 5842 c-3 -5 6 -34 20 -63 23 -46 140 -307 221 -489 13 -30 37
-82 52 -115 16 -33 35 -76 44 -95 22 -50 64 -144 103 -228 19 -41 34 -75 34
-78 0 -2 23 -51 50 -109 28 -58 50 -107 50 -110 0 -3 25 -57 55 -120 30 -64
55 -118 55 -120 0 -2 23 -52 50 -110 28 -58 50 -108 50 -110 0 -2 15 -36 34
-77 40 -86 60 -131 116 -258 24 -52 62 -137 86 -189 24 -51 44 -95 44 -97 0
-3 17 -41 39 -87 21 -45 45 -98 54 -117 128 -288 138 -310 146 -310 7 0 26 40
76 155 7 17 25 56 39 87 14 31 26 60 26 63 0 6 -7 21 -70 160 -15 33 -38 83
-50 110 -12 28 -38 83 -56 123 -19 41 -34 75 -34 77 0 1 -23 51 -50 109 -28
58 -50 108 -50 110 0 3 -15 37 -34 78 -18 40 -44 96 -56 123 -12 28 -42 92
-66 144 -24 51 -44 95 -44 97 0 2 -36 83 -81 181 -44 98 -86 192 -94 208 -7
17 -29 65 -49 108 -20 42 -36 80 -36 82 0 3 -17 42 -39 88 -21 45 -51 109 -66
142 -14 33 -37 83 -50 110 -13 28 -32 70 -43 95 -11 25 -31 70 -45 100 -56
123 -90 197 -104 230 -8 19 -23 51 -32 70 l-17 35 -136 3 c-75 1 -139 -1 -142
-6z"/>
<path d="M1760 5842 c0 -4 11 -30 24 -58 14 -27 46 -96 71 -154 50 -112 72
-160 115 -255 15 -33 36 -80 48 -105 52 -116 166 -370 184 -410 11 -25 36 -78
54 -118 19 -41 34 -75 34 -78 0 -2 23 -52 50 -110 28 -58 50 -108 50 -110 0
-3 17 -41 39 -87 63 -134 91 -195 91 -200 0 -3 25 -58 56 -123 30 -66 59 -128
64 -139 5 -11 27 -59 49 -107 23 -48 41 -90 41 -93 0 -13 62 -135 69 -135 5 0
16 21 26 48 10 26 36 85 58 132 66 144 70 102 -29 318 -19 41 -34 75 -34 78 0
2 -22 52 -50 110 -27 58 -50 108 -50 110 0 3 -17 41 -39 87 -66 140 -91 196
-91 201 0 4 -22 53 -50 111 -27 58 -50 107 -50 110 0 3 -21 49 -46 103 -25 53
-55 117 -66 142 -11 25 -33 72 -48 105 -16 33 -43 92 -60 130 -17 39 -38 84
-46 100 -7 17 -49 111 -93 209 -45 99 -86 183 -93 188 -17 10 -278 10 -278 0z"/>
<path d="M2446 5828 c-8 -13 -26 -52 -41 -88 -30 -72 -30 -73 25 -195 15 -33
37 -81 49 -107 11 -26 21 -52 21 -57 0 -18 30 -12 37 7 3 9 21 50 40 90 18 40
33 74 33 77 0 5 72 163 105 229 14 27 22 53 19 57 -3 5 -66 9 -139 9 -129 0
-135 -1 -149 -22z"/>
<path d="M2980 5818 c-11 -18 -20 -36 -20 -40 0 -6 -22 -56 -96 -216 -19 -40
-34 -75 -34 -77 0 -3 -17 -42 -39 -88 -21 -45 -46 -100 -56 -122 -10 -22 -33
-72 -51 -111 -19 -39 -34 -80 -34 -91 0 -10 18 -56 40 -101 22 -44 40 -83 40
-86 0 -15 52 -116 59 -116 5 0 14 15 22 33 7 17 27 64 45 102 17 39 41 90 52
115 18 40 132 294 184 410 12 25 33 72 48 105 15 33 38 85 51 115 13 30 38 84
56 119 18 35 30 67 27 72 -3 5 -66 9 -140 9 l-134 0 -20 -32z"/>
<path d="M3532 5838 c-11 -15 -76 -153 -102 -218 -17 -44 -35 -83 -106 -238
-19 -41 -34 -75 -34 -78 0 -2 -22 -52 -50 -110 -27 -58 -50 -108 -50 -109 0
-2 -16 -39 -36 -82 -20 -43 -44 -98 -54 -123 -10 -25 -34 -80 -54 -123 -20
-43 -36 -80 -36 -82 0 -2 -16 -39 -36 -82 -61 -131 -61 -110 8 -267 71 -164
83 -181 96 -145 6 13 23 53 40 89 69 153 82 181 82 185 0 3 18 43 40 90 22 47
40 87 40 89 0 3 16 40 36 83 20 43 49 106 65 141 16 35 29 65 29 67 0 3 12 30
26 62 28 62 51 113 79 178 10 22 30 67 46 100 15 33 53 119 85 190 31 72 70
158 85 193 16 34 29 65 29 67 0 3 11 28 25 57 14 28 25 58 25 65 0 18 -263 19
-278 1z"/>
<path d="M3922 5749 c-23 -50 -42 -95 -42 -100 0 -5 119 -10 268 -11 l267 -3
3 -1932 2 -1933 110 0 110 0 0 2035 0 2035 -338 0 -339 0 -41 -91z"/>
</g>
</svg>
