<?xml version="1.0" encoding="UTF-8" standalone="no"?>
<svg
   viewBox="0 0 40 40"
   version="1.1"
   id="svg890"
   sodipodi:docname="wecp.svg"
   inkscape:version="1.1.2 (b8e25be833, 2022-02-05)"
   xmlns:inkscape="http://www.inkscape.org/namespaces/inkscape"
   xmlns:sodipodi="http://sodipodi.sourceforge.net/DTD/sodipodi-0.dtd"
   xmlns="http://www.w3.org/2000/svg"
   xmlns:svg="http://www.w3.org/2000/svg">
  <defs
     id="defs894" />
  <sodipodi:namedview
     id="namedview892"
     pagecolor="#ffffff"
     bordercolor="#666666"
     borderopacity="1.0"
     inkscape:pageshadow="2"
     inkscape:pageopacity="0.0"
     inkscape:pagecheckerboard="0"
     showgrid="false"
     inkscape:zoom="21.825"
     inkscape:cx="13.310424"
     inkscape:cy="19.97709"
     inkscape:window-width="3440"
     inkscape:window-height="1377"
     inkscape:window-x="-8"
     inkscape:window-y="-8"
     inkscape:window-maximized="1"
     inkscape:current-layer="svg890" />
  <path
     fill="#16aa16"
     d="m -0.95,6.2 h 41.9 v 27.6 h -41.9 z"
     id="path886" />
  <path
     fill="#ffffff"
     d="m 17.25,22.3 c -0.1,0 -0.2,0.1 -0.3,0.1 -0.2,0 -0.4,-0.1 -0.5,-0.3 V 22 l -1.6,-3.6 v -0.1 c 0,-0.2 0.1,-0.3 0.3,-0.3 0.1,0 0.1,0 0.2,0.1 l 1.9,1.4 c 0.2,0.2 0.5,0.2 0.8,0.1 l 9.1,-4.1 a 9.56,9.56 0 0 0 -7.4,-3.2 c -5,0 -9,3.4 -9,7.6 a 7.2,7.2 0 0 0 3.1,5.7 c 0.2,0.1 0.3,0.3 0.3,0.5 v 0.2 c -0.2,0.6 -0.4,1.5 -0.4,1.5 V 28 c 0,0.2 0.1,0.3 0.3,0.3 0.1,0 0.1,0 0.2,-0.1 l 2,-1.1 c 0.1,-0.1 0.3,-0.1 0.5,-0.1 h 0.3 c 1,0.3 1.9,0.4 2.9,0.4 5,0 9,-3.4 9,-7.6 0,-1.2 -0.4,-2.5 -1,-3.5 z"
     id="path888" />
</svg>
