<?xml version="1.0" encoding="UTF-8"?>
<svg width="50px" height="50px" viewBox="0 0 50 50" version="1.1" xmlns="http://www.w3.org/2000/svg" xmlns:xlink="http://www.w3.org/1999/xlink">
    <!-- Generator: Sketch 64 (93537) - https://sketch.com -->
    <title>icon/social-Pinterest</title>
    <desc>Created with Sketch.</desc>
    <defs>
        <path d="M25.00082,-3.19744231e-14 C11.194106,-3.19744231e-14 0,11.1930126 0,25.0004556 C0,35.2374982 6.15585627,44.0318389 14.964593,47.8985425 C14.8942529,46.1527948 14.9520193,44.0571687 15.3997544,42.1578025 C15.8802905,40.128143 18.6166316,28.5351391 18.6166316,28.5351391 C18.6166316,28.5351391 17.8177425,26.9390009 17.8177425,24.5795081 C17.8177425,20.8748055 19.9653037,18.10785 22.6393227,18.10785 C24.9133504,18.10785 26.0120052,19.8158765 26.0120052,21.8610254 C26.0120052,24.1470802 24.5539961,27.5664131 23.8041264,30.7333598 C23.1778075,33.3853292 25.1338467,35.5483798 27.7500993,35.5483798 C32.4867611,35.5483798 35.677033,29.464686 35.677033,22.2564609 C35.677033,16.7772185 31.9865443,12.675987 25.2743448,12.675987 C17.6907293,12.675987 12.9662768,18.3314442 12.9662768,24.6485726 C12.9662768,26.826566 13.6084496,28.3627511 14.6143501,29.5519734 C15.0768457,30.098294 15.1411723,30.3182436 14.9737044,30.9454736 C14.8537982,31.405418 14.5784511,32.5128198 14.4643762,32.9518079 C14.2978195,33.5848692 13.7848466,33.8111968 13.2126496,33.5773979 C9.71969633,32.1514609 8.09276153,28.3263054 8.09276153,24.0262628 C8.09276153,16.9246413 14.0822433,8.40892773 25.9604346,8.40892773 C35.5053739,8.40892773 41.7875144,15.3159293 41.7875144,22.7302546 C41.7875144,32.5374206 36.3352419,39.8642763 28.2982422,39.8642763 C25.5990757,39.8642763 23.060088,38.4051738 22.1904942,36.7481713 C22.1904942,36.7481713 20.7390453,42.5082276 20.4316261,43.6205495 C19.901706,45.5481611 18.8640977,47.4744971 17.9154169,48.9760588 C20.1639326,49.6399168 22.5390971,50.0012756 25.00082,50.0012756 C38.8064407,50.0012756 50,38.8080807 50,25.0004556 C50,11.1930126 38.8064407,-3.19744231e-14 25.00082,-3.19744231e-14" id="path-1"></path>
    </defs>
    <g id="icon/social-Pinterest" stroke="none" stroke-width="1" fill="none" fill-rule="evenodd">
        <g id="swatches/222">
            <mask id="mask-2" fill="white">
                <use xlink:href="#path-1"></use>
            </mask>
            <use id="Mask" fill="#222222" xlink:href="#path-1"></use>
        </g>
    </g>
</svg>