<svg xmlns="http://www.w3.org/2000/svg" viewBox="0 0 16 16"><circle fill="#ffffff" cx="8" cy="7.9999933" r="8"/><path fill="#000000" d="M8,1c3.86,0,7,3.14,7,7s-3.14,7-7,7s-7-3.14-7-7 S4.14,1,8,1z M8,1.65C4.5,1.65,1.65,4.5,1.65,8S4.5,14.35,8,14.35S14.35,11.5,14.35,8S11.5,1.65,8,1.65z M5.6,3.62v2.4h4.81v-2.4 h0.48c1.43,0.94,2.36,2.54,2.36,4.38s-0.93,3.43-2.36,4.38l0,0h-0.48v-2.4H5.6v2.4H5.11C3.7,11.43,2.75,9.83,2.75,8 S3.7,4.57,5.11,3.62l0,0H5.6z M4.93,4.57C3.96,5.43,3.39,6.66,3.39,8c0,1.34,0.57,2.57,1.54,3.43l0,0V4.57z M11.07,4.57v6.85 c0.96-0.86,1.53-2.09,1.53-3.43C12.6,6.66,12.03,5.43,11.07,4.57L11.07,4.57z M10.41,6.68H5.6v2.63h4.81V6.68z"/></svg>
