<?xml version="1.0" standalone="no"?>
<!DOCTYPE svg PUBLIC "-//W3C//DTD SVG 1.1//EN" "http://www.w3.org/Graphics/SVG/1.1/DTD/svg11.dtd" >
<svg xmlns="http://www.w3.org/2000/svg">
<metadata>Generated by IcoMoon</metadata>
<defs>
<font id="icomoon" horiz-adv-x="1024">
<font-face units-per-em="1024" ascent="960" descent="-64" />
<missing-glyph horiz-adv-x="1024" />
<glyph unicode="&#x20;" horiz-adv-x="512" d="" />
<glyph unicode="&#xe900;" glyph-name="youtube-play" d="M406.272 315.429l276.553 142.848-276.553 144.567v-287.415zM512 808.009c215.442 0 358.29-10.277 358.29-10.277 20.005-2.304 64-2.304 102.839-43.447 0 0 31.415-30.866 40.558-101.705 10.862-82.871 10.277-165.705 10.277-165.705v-77.714s0.585-82.871-10.277-165.705c-9.143-70.29-40.558-101.705-40.558-101.705-38.839-40.558-82.871-40.558-102.839-42.862 0 0-142.848-10.862-358.29-10.862v0c-266.277 2.304-348.014 10.277-348.014 10.277-22.857 3.986-74.277 2.853-113.152 43.447 0 0-31.415 31.415-40.558 101.705-10.862 82.871-10.277 165.705-10.277 165.705v77.714s-0.585 82.871 10.277 165.705c9.143 70.839 40.558 101.705 40.558 101.705 38.839 41.143 82.871 41.143 102.839 43.447 0 0 142.848 10.277 358.29 10.277v0z" />
<glyph unicode="&#xe901;" glyph-name="facebook" horiz-adv-x="585" d="M547.986 953.161v-150.857h-89.71c-70.29 0-83.419-33.719-83.419-82.286v-107.995h167.424l-22.272-169.143h-145.152v-433.701h-174.848v433.701h-145.701v169.143h145.701v124.562c0 144.567 88.576 223.415 217.71 223.415 61.696 0 114.871-4.571 130.304-6.839z" />
<glyph unicode="&#xe902;" glyph-name="googleplus" horiz-adv-x="1317" d="M821.138 438.272c0-239.433-160.585-409.161-402.286-409.161-231.424 0-418.853 187.429-418.853 418.853s187.429 418.853 418.853 418.853c113.152 0 207.433-41.143 280.576-109.714l-113.701-109.129c-30.866 29.696-85.138 64.585-166.839 64.585-142.848 0-259.438-118.272-259.438-264.558s116.553-264.558 259.438-264.558c165.705 0 227.986 119.442 237.714 180.553h-237.714v144.018h395.447c3.986-21.138 6.839-42.277 6.839-69.705zM1316.571 508.014v-119.991h-119.442v-119.442h-119.991v119.442h-119.442v119.991h119.442v119.442h119.991v-119.442h119.442z" />
<glyph unicode="&#xe903;" glyph-name="instagram" horiz-adv-x="878" d="M585.143 448c0 80.567-65.719 146.286-146.286 146.286s-146.286-65.719-146.286-146.286 65.719-146.286 146.286-146.286 146.286 65.719 146.286 146.286zM663.991 448c0-124.562-100.571-225.134-225.134-225.134s-225.134 100.571-225.134 225.134 100.571 225.134 225.134 225.134 225.134-100.571 225.134-225.134zM725.723 682.277c0-29.147-23.442-52.553-52.553-52.553s-52.553 23.442-52.553 52.553 23.442 52.553 52.553 52.553 52.553-23.442 52.553-52.553zM438.857 808.009c-64 0-201.143 5.157-258.853-17.701-20.005-8.009-34.853-17.701-50.286-33.134s-25.161-30.281-33.134-50.286c-22.857-57.71-17.701-194.853-17.701-258.853s-5.157-201.143 17.701-258.853c8.009-20.005 17.701-34.853 33.134-50.286s30.281-25.161 50.286-33.134c57.71-22.857 194.853-17.701 258.853-17.701s201.143-5.157 258.853 17.701c20.005 8.009 34.853 17.701 50.286 33.134s25.161 30.281 33.134 50.286c22.857 57.71 17.701 194.853 17.701 258.853s5.157 201.143-17.701 258.853c-8.009 20.005-17.701 34.853-33.134 50.286s-30.281 25.161-50.286 33.134c-57.71 22.857-194.853 17.701-258.853 17.701zM877.714 448c0-60.562 0.585-120.576-2.853-181.138-3.438-70.29-19.419-132.571-70.839-183.991s-113.701-67.438-183.991-70.839c-60.562-3.438-120.576-2.853-181.138-2.853s-120.576-0.585-181.138 2.853c-70.29 3.438-132.571 19.419-183.991 70.839s-67.438 113.701-70.839 183.991c-3.438 60.562-2.853 120.576-2.853 181.138s-0.585 120.576 2.853 181.138c3.438 70.29 19.419 132.571 70.839 183.991s113.701 67.438 183.991 70.839c60.562 3.438 120.576 2.853 181.138 2.853s120.576 0.585 181.138-2.853c70.29-3.438 132.571-19.419 183.991-70.839s67.438-113.701 70.839-183.991c3.438-60.562 2.853-120.576 2.853-181.138z" />
<glyph unicode="&#xe904;" glyph-name="linkedin" horiz-adv-x="878" d="M199.424 602.843v-566.272h-188.562v566.272h188.562zM211.419 777.728c0.585-54.272-40.558-97.719-106.277-97.719v0h-1.134c-63.415 0-104.009 43.447-104.009 97.719 0 55.442 42.277 97.719 106.277 97.719 64.585 0 104.558-42.277 105.143-97.719zM877.714 361.143v-324.571h-188.014v302.848c0 75.995-27.429 128-95.415 128-52.005 0-82.871-34.853-96.585-68.571-4.571-12.581-6.29-29.147-6.29-46.299v-316.014h-188.014c2.304 513.134 0 566.272 0 566.272h188.014v-82.286h-1.134c24.576 38.839 69.157 95.415 170.862 95.415 124.014 0 216.576-81.152 216.576-254.866z" />
<glyph unicode="&#xe905;" glyph-name="pinterest" horiz-adv-x="878" d="M367.177 276.37c-27.173-142.336-60.306-278.821-158.61-350.098-30.281 215.186 44.581 376.649 79.287 548.133-59.246 99.767 7.168 300.398 132.059 250.917 153.819-60.782-133.157-370.688 59.465-409.454 201.143-40.375 283.209 348.891 158.427 475.465-180.114 182.857-524.361 4.279-482.048-257.536 10.313-63.963 76.434-83.346 26.478-171.666-115.31 25.49-149.76 116.48-145.298 237.714 7.168 198.473 178.286 337.371 349.989 356.645 217.161 24.357 420.901-79.726 449.061-283.941 31.707-230.583-97.975-480.256-330.203-462.373-62.939 4.974-89.271 36.169-138.606 66.194z" />
<glyph unicode="&#xe906;" glyph-name="twitter" horiz-adv-x="951" d="M925.696 726.857c-25.161-36.571-56.576-69.157-92.562-95.415 0.585-8.009 0.585-16.018 0.585-23.991 0-244.005-185.71-525.129-525.129-525.129-104.558 0-201.728 30.281-283.429 82.871 14.848-1.719 29.147-2.304 44.581-2.304 86.272 0 165.705 29.147 229.157 78.848-81.152 1.719-149.138 54.857-172.581 128 11.447-1.719 22.857-2.853 34.853-2.853 16.567 0 33.134 2.304 48.567 6.29-84.553 17.152-148.005 91.429-148.005 181.138v2.304c24.576-13.714 53.138-22.272 83.419-23.442-49.701 33.134-82.286 89.71-82.286 153.71 0 34.304 9.143 65.719 25.161 93.147 90.843-111.982 227.438-185.161 380.562-193.134-2.853 13.714-4.571 28.014-4.571 42.277 0 101.705 82.286 184.576 184.576 184.576 53.138 0 101.157-22.272 134.839-58.295 41.728 8.009 81.701 23.442 117.138 44.581-13.714-42.862-42.862-78.848-81.152-101.705 37.157 3.986 73.143 14.299 106.277 28.562z" />
<glyph unicode="&#xe907;" glyph-name="wechat" horiz-adv-x="1170" d="M331.447 696.576c0 31.415-20.553 52.005-52.005 52.005-30.866 0-62.281-20.553-62.281-52.005 0-30.866 31.415-51.419 62.281-51.419 31.415 0 52.005 20.553 52.005 51.419zM756.005 406.857c0 20.553-20.553 41.143-52.005 41.143-20.553 0-41.143-20.553-41.143-41.143 0-21.138 20.553-41.728 41.143-41.728 31.415 0 52.005 20.553 52.005 41.728zM621.129 696.576c0 31.415-20.553 52.005-51.419 52.005-31.415 0-62.281-20.553-62.281-52.005 0-30.866 30.866-51.419 62.281-51.419 30.866 0 51.419 20.553 51.419 51.419zM983.991 406.857c0 20.553-21.138 41.143-52.005 41.143-20.553 0-41.143-20.553-41.143-41.143 0-21.138 20.553-41.728 41.143-41.728 30.866 0 52.005 20.553 52.005 41.728zM832 633.71c-13.129 1.719-26.295 2.304-40.009 2.304-196.571 0-352-146.871-352-327.424 0-30.281 4.571-59.429 13.129-86.857-13.129-1.134-25.71-1.719-38.839-1.719-52.005 0-93.147 10.277-145.152 20.553l-144.567-72.558 41.143 124.562c-103.424 72.558-165.705 166.29-165.705 279.991 0 197.157 186.295 352 414.281 352 203.447 0 382.281-124.014 417.719-290.853zM1170.286 313.161c0-93.147-61.696-176.018-145.152-238.299l31.415-103.424-113.701 62.281c-41.728-10.277-83.419-21.138-124.562-21.138-197.157 0-352 134.839-352 300.581s154.843 300.581 352 300.581c186.295 0 352-134.839 352-300.581z" />
<glyph unicode="&#xe908;" glyph-name="weibo" d="M385.719 226.304c16.018 26.295 7.424 56.576-19.419 67.986-25.71 10.862-60.014-0.585-75.995-25.71-16.567-25.71-8.558-55.991 17.152-67.986 26.295-11.995 61.696-0.585 78.299 25.71zM439.442 295.424c5.705 10.277 2.304 21.723-8.009 25.71-10.277 3.438-22.857-1.134-28.562-10.862-5.705-10.277-2.853-21.138 7.424-25.71 10.277-3.986 23.442 0.585 29.147 10.862zM538.843 234.277c-34.304-77.714-133.705-119.991-218.295-92.562-81.701 26.295-116.005 106.862-80.567 179.419 35.438 70.839 126.281 110.848 206.848 90.295 84.005-21.723 126.281-100.571 92.014-177.152zM717.129 325.705c-10.862 111.433-157.147 188.014-326.839 171.447-169.728-17.152-297.728-120.576-286.866-232.009s157.147-188.014 326.839-171.447c169.728 17.152 297.728 120.576 286.866 232.009zM893.147 323.438c0-128.585-185.161-290.304-463.433-290.304-212.553 0-429.714 102.839-429.714 272.567 0 88.576 55.991 190.866 152.576 287.415 129.134 129.134 279.442 187.429 336.018 130.853 25.161-24.576 27.429-67.986 11.447-119.442-8.009-26.295 24.576-11.447 24.576-11.995 104.009 43.995 194.853 46.299 227.986-1.134 17.701-25.161 16.018-60.562 0-101.705-7.424-18.871 2.304-21.723 16.567-26.295 58.843-18.286 124.014-62.281 124.014-139.995zM850.871 680.009c32.585-35.986 41.728-85.723 27.429-129.134-5.705-17.701-24.576-27.429-42.277-21.723s-27.429 24.576-21.723 42.277v0c6.839 21.723 2.304 45.714-13.714 63.415s-39.424 24.576-61.147 20.005v0c-18.286-3.986-36.571 7.424-40.009 25.71-3.986 18.286 7.424 35.986 25.71 40.009 44.581 9.728 93.147-3.986 125.696-40.558zM954.295 773.157c67.438-74.277 85.138-175.982 56.576-265.143v0c-6.839-20.553-28.562-32-49.152-25.161s-32 28.562-25.71 49.152v0c20.553 63.415 8.009 136.009-40.009 188.562-48.018 53.138-118.272 73.143-183.442 59.429-21.138-4.571-42.277 9.143-46.848 30.281s9.143 41.728 30.281 46.299v0c92.014 19.419 190.866-8.558 258.304-83.419z" />
<glyph unicode="&#xe909;" glyph-name="youku" d="M327.058 558.629c-56.247 0-101.851-44.727-101.851-99.877 0-55.186 39.095-99.913 101.851-99.913 67.547 0 101.851 44.763 101.851 99.913s-45.605 99.877-101.851 99.877zM327.058 403.858c-25.088 0-45.422 23.845-45.422 53.285 0 29.367 20.334 53.248 45.422 53.248s45.458-23.881 45.458-53.248c0-29.44-20.37-53.285-45.458-53.285zM226.341 576.073c-28.782 10.13-38.619-4.974-44.69-19.237l-48.75-115.639-46.519 116.041c-7.607 15.653-20.443 26.624-44.288 18.615-25.893-8.667-17.481-35.218-16.018-40.192l72.997-166.985-28.672-62.61c-3.803-8.375-10.679-31.707 14.848-41.728 25.6-9.947 37.339 4.681 45.678 21.76l111.36 249.819c0.037 0 13.861 29.659-15.945 40.155zM744.558 457.289l49.225 42.898c0 0 24.357 23.15 3.035 43.447-15.726 14.958-35.694 6.363-42.862-0.256l-71.899-67.95-0.439 49.225c-0.439 16.53-9.765 27.063-29.038 27.063-19.895 0-28.050-9.911-29.038-27.063v-141.056c0.987-16.421 10.862-24.43 29.111-24.43 19.054-0.11 28.453 8.558 29.294 24.283l0.037 52.517c0 0 75.813-64.073 79.945-67.657 12.215-9.984 32.256-8.923 42.24 0.658 10.496 10.094 8.046 30.903-4.681 41.691l-54.93 46.629zM966.985 551.57c-17.481-0.658-26.917-10.679-27.648-29.294v-92.526c-0.951-19.529-16.347-32.329-36.462-32.329-21.248 0-35.584 12.8-36.645 32.329l-0.183 92.526c-0.951 18.651-9.545 28.782-26.661 29.367-18.944 0-27.575-10.789-28.599-29.44v-92.562c2.048-46.555 32.475-71.022 91.867-71.936 59.648 0.878 89.637 25.234 92.197 72.009h0.037v92.562c-0.951 18.651-10.459 28.635-27.904 29.294zM589.312 552.997c-17.408-1.134-26.258-11.301-27.465-30.208v-92.709c-0.951-19.675-14.19-33.28-36.242-33.829-32.768-0.768-37.157 22.528-37.12 30.83l0.037 93.038c-0.731 18.578-9.253 27.941-26.075 28.672-18.066-1.317-27.611-11.703-28.782-30.537l-0.146-92.379c0.402-11.557-1.39-71.241 91.867-69.925 52.48 0.658 89.234 28.599 91.758 75.849l0.183 93.038c-0.805 18.651-10.057 27.794-28.014 28.16z" />
<glyph unicode="&#xe90a;" horiz-adv-x="983" d="M892.928-64h-802.816c-49.152 0-90.112 40.96-90.112 86.016v753.664c0 49.152 40.96 86.016 90.112 86.016h155.648v69.632c0 16.384 16.384 28.672 32.768 28.672s28.672-12.288 28.672-28.672v-65.536h368.64v65.536c0 16.384 12.288 28.672 28.672 28.672s28.672-12.288 28.672-28.672v-65.536h159.744c49.152-4.096 90.112-40.96 90.112-90.112v-753.664c0-45.056-40.96-86.016-90.112-86.016zM921.6 775.68c0 16.384-12.288 28.672-28.672 28.672h-159.744v-65.536c0-16.384-12.288-28.672-28.672-28.672s-28.672 12.288-28.672 28.672v65.536h-368.64v-65.536c0-16.384-12.288-28.672-28.672-28.672s-32.768 12.288-32.768 28.672v65.536h-155.648c-16.384 0-28.672-12.288-28.672-28.672v-184.32h864.256v184.32zM925.696 534.016h-868.352v-512c0-16.384 12.288-28.672 28.672-28.672h802.816c16.384 0 28.672 12.288 32.768 28.672v512zM737.28 161.28h-495.616c-16.384 0-28.672 12.288-28.672 28.672s12.288 28.672 28.672 28.672h499.712c16.384 0 28.672-12.288 28.672-28.672s-16.384-28.672-32.768-28.672zM659.456 325.12h-335.872c-16.384 0-28.672 12.288-28.672 28.672s12.288 28.672 28.672 28.672h331.776c16.384 0 28.672-12.288 28.672-28.672s-8.192-28.672-24.576-28.672z" />
<glyph unicode="&#xe90b;" horiz-adv-x="983" d="M892.928 861.696h-159.744v69.632c0 16.384-12.288 28.672-28.672 28.672s-28.672-12.288-28.672-28.672v-65.536h-368.64v65.536c0 16.384-12.288 28.672-28.672 28.672s-32.768-12.288-32.768-28.672v-65.536h-155.648c-49.152-4.096-90.112-40.96-90.112-90.112v-753.664c0-45.056 40.96-86.016 90.112-86.016h806.912c45.056 0 86.016 40.96 86.016 86.016v753.664c0 49.152-40.96 86.016-90.112 86.016zM733.184 804.352h159.744c16.384 0 28.672-12.288 28.672-28.672v-184.32h-864.256v184.32c0 16.384 12.288 28.672 28.672 28.672h159.744v-65.536c0-16.384 12.288-28.672 28.672-28.672s28.672 12.288 28.672 28.672v65.536h368.64v-65.536c0-16.384 12.288-28.672 28.672-28.672z" />
<glyph unicode="&#xe90c;" horiz-adv-x="768" d="M519.314 129.829l186.514 245.029c36.571 58.514 58.514 128 58.514 201.143 0 204.8-164.571 373.029-369.371 373.029-201.143 0-369.371-168.229-369.371-373.029 0-73.143 21.943-142.629 58.514-201.143l186.514-245.029 29.257-47.543 73.143-117.029c7.314-14.629 32.914-14.629 43.886 0l73.143 117.029 29.257 47.543zM394.971 897.829c175.543 0 318.171-142.629 318.171-321.829 0-65.829-18.286-124.343-51.2-175.543l-266.971-373.029-266.971 373.029c-32.914 51.2-51.2 109.714-51.2 175.543 0 175.543 142.629 321.829 318.171 321.829zM394.971 755.2c-98.743 0-179.2-80.457-179.2-179.2s80.457-179.2 179.2-179.2c98.743 0 179.2 80.457 179.2 179.2s-80.457 179.2-179.2 179.2zM394.971 704c69.486 0 128-58.514 128-128 0-73.143-54.857-128-128-128-69.486 0-128 58.514-128 128s58.514 128 128 128z" />
<glyph unicode="&#xe90d;" glyph-name="search" d="M981.197-64c-11.127 0-21.845 4.574-30.037 12.766l-252.177 252.109-17.408-13.039c-72.226-54.135-162.202-83.968-253.542-83.968-235.998 0-428.032 192.034-428.032 428.1 0 235.998 192.034 428.032 428.032 428.032 236.066 0 428.1-192.034 428.1-428.032 0-91.273-29.833-181.316-83.968-253.542l-13.039-17.408 252.041-253.815c8.26-7.714 12.834-18.295 12.834-29.218s-4.437-21.367-12.151-28.604c-8.738-8.67-19.524-13.38-30.652-13.38zM428.032 876.1c-189.713 0-344.132-154.419-344.132-344.132 0-189.781 154.419-344.132 344.132-344.132 189.781 0 344.132 154.351 344.132 344.132 0 189.713-154.351 344.132-344.132 344.132z" />
<glyph unicode="&#xe90e;" horiz-adv-x="768" d="M394.971 897.829c175.543 0 318.171-142.629 318.171-321.829 0-65.829-18.286-124.343-51.2-175.543l-266.971-373.029-266.971 373.029c-32.914 51.2-51.2 109.714-51.2 175.543 0 175.543 142.629 321.829 318.171 321.829zM394.971 755.2c-98.743 0-179.2-80.457-179.2-179.2s80.457-179.2 179.2-179.2c98.743 0 179.2 80.457 179.2 179.2s-80.457 179.2-179.2 179.2z" />
<glyph unicode="&#xe90f;" d="M512-64c-280.652 0-512 231.348-512 512s231.348 512 512 512 512-231.348 512-512c0-280.652-231.348-512-512-512zM625.778 887.941c-83.437 22.756-204.8 30.341-341.333-49.304s-227.556-223.763-227.556-390.637c0-250.311 204.8-455.111 455.111-455.111s455.111 204.8 455.111 455.111c0 212.385-147.911 386.844-341.333 439.941zM640.948 269.748c-11.378-11.378-30.341-11.378-41.719 0s-11.378 30.341 0 41.719l102.4 102.4h-451.319c-15.17 0-30.341 15.17-30.341 30.341 0 18.963 15.17 30.341 30.341 30.341h451.319l-102.4 106.193c-11.378 11.378-11.378 30.341 0 41.719s30.341 11.378 41.719 0l155.496-155.496c11.378-11.378 11.378-30.341 0-41.719l-155.496-155.496z" />
<glyph unicode="&#xe910;" horiz-adv-x="973" d="M486.4 929.28c-117.76 0-215.040-97.28-215.040-215.040v0h-97.28c0 0 0 0-5.12 0-10.24 0-25.6-10.24-25.6-25.6l-122.88-680.96c-5.12-15.36 10.24-35.84 25.6-35.84 0 0 5.12 0 5.12 0h870.4c15.36 0 30.72 15.36 30.72 30.72 0 0 0 5.12 0 5.12l-122.88 680.96c-5.12 15.36-15.36 25.6-30.72 25.6h-97.28c0 117.76-97.28 215.040-215.040 215.040v0zM486.4 862.72v0c87.040 0 153.6-66.56 153.6-148.48v0h-307.2c0 87.040 66.56 148.48 153.6 148.48zM199.68 652.8h66.56v-76.8c0-15.36 15.36-30.72 30.72-30.72s30.72 15.36 30.72 30.72c0 0 0 0 0 0v76.8h302.080v-76.8c0-15.36 15.36-30.72 30.72-30.72s30.72 15.36 30.72 30.72c0 0 0 0 0 0v76.8h71.68l112.64-619.52h-783.36l107.52 619.52z" />
<glyph unicode="&#xe911;" horiz-adv-x="973" d="M481.28 929.28c-117.76 0-215.040-97.28-215.040-215.040v0h-92.16c0 0 0 0-5.12 0-15.36 0-25.6-10.24-30.72-25.6l-117.76-686.080c-5.12-15.36 10.24-35.84 25.6-35.84h870.4c15.36 0 30.72 15.36 30.72 30.72v5.12l-122.88 680.96c-5.12 15.36-15.36 25.6-30.72 25.6h-97.28c5.12 122.88-92.16 220.16-215.040 220.16v0zM481.28 862.72v0c87.040 0 153.6-66.56 153.6-148.48v0h-302.080c0 81.92 66.56 148.48 148.48 148.48z" />
<glyph unicode="&#xe912;" d="M512 960c-280.652 0-512-231.348-512-512s231.348-512 512-512 512 231.348 512 512c0 280.652-231.348 512-512 512z" />
<glyph unicode="&#xe913;" d="M512-40.727c-269.964 0-488.727 218.764-488.727 488.727s218.764 488.727 488.727 488.727c269.964 0 488.727-218.764 488.727-488.727s-218.764-488.727-488.727-488.727zM209.455 140.8c79.127-79.127 186.182-125.673 302.545-125.673s223.418 41.891 302.545 125.673c-83.782 107.055-190.836 167.564-302.545 167.564s-218.764-60.509-302.545-167.564zM614.4 350.255c88.436-23.273 167.564-83.782 237.382-167.564 60.509 79.127 93.091 172.218 93.091 269.964 0 237.382-195.491 432.873-432.873 432.873s-432.873-195.491-432.873-437.527c0-97.745 32.582-190.836 93.091-269.964 65.164 83.782 148.945 144.291 237.382 167.564-65.164 37.236-107.055 107.055-107.055 181.527 0 116.364 93.091 209.455 209.455 209.455s209.455-93.091 209.455-209.455c0-69.818-41.891-139.636-107.055-176.873zM512 680.727c-83.782 0-153.6-65.164-153.6-148.945s69.818-153.6 153.6-153.6 153.6 69.818 153.6 153.6-69.818 148.945-153.6 148.945z" />
<glyph unicode="&#xe914;" d="M512-40.727c-269.964 0-488.727 218.764-488.727 488.727s218.764 488.727 488.727 488.727c269.964 0 488.727-218.764 488.727-488.727s-218.764-488.727-488.727-488.727zM209.455 140.8c79.127-79.127 186.182-125.673 302.545-125.673s223.418 41.891 302.545 125.673c-83.782 107.055-190.836 167.564-302.545 167.564s-218.764-60.509-302.545-167.564zM512 680.727c-83.782 0-153.6-65.164-153.6-148.945s69.818-153.6 153.6-153.6 153.6 69.818 153.6 153.6-69.818 148.945-153.6 148.945z" />
<glyph unicode="&#xe915;" horiz-adv-x="1081" d="M290.133 908.8c-73.956 0-142.222-28.444-199.111-85.333-108.089-108.089-108.089-290.133 0-398.222 142.222-147.911 278.756-284.444 420.978-426.667 17.067-17.067 39.822-17.067 56.889 0 142.222 142.222 278.756 284.444 420.978 426.667 108.089 108.089 108.089 290.133 0 398.222s-290.133 108.089-398.222 0l-51.2-45.511-51.2 45.511c-51.2 56.889-130.844 85.333-199.111 85.333v0zM290.133 834.844c51.2 0 102.4-22.756 142.222-62.578l79.644-79.644c17.067-17.067 39.822-17.067 56.889 0l79.644 79.644c79.644 79.644 204.8 79.644 284.444 0s79.644-210.489 0-295.822c-130.844-130.844-261.689-267.378-392.533-398.222l-392.533 398.222c-79.644 85.333-79.644 216.178 0 295.822 39.822 39.822 91.022 62.578 142.222 62.578z" />
<glyph unicode="&#xe916;" horiz-adv-x="1081" d="M290.133 908.8c-73.956 0-142.222-28.444-199.111-85.333-108.089-108.089-108.089-290.133 0-398.222 142.222-147.911 278.756-284.444 420.978-426.667 17.067-17.067 39.822-17.067 56.889 0 142.222 142.222 278.756 284.444 420.978 426.667 108.089 108.089 108.089 290.133 0 398.222s-290.133 108.089-398.222 0l-51.2-45.511-51.2 45.511c-51.2 56.889-130.844 85.333-199.111 85.333v0z" />
<glyph unicode="&#xe917;" d="M512 960c-282.819 0-512-229.181-512-512s229.181-512 512-512c282.819 0 512 229.181 512 512s-229.181 512-512 512zM512-5.486c-248.686 0-453.486 204.8-453.486 453.486 0 165.79 92.648 312.076 224.305 390.095-14.629-63.39 0-151.162-29.257-190.171-4.876-9.752-14.629-14.629-19.505-24.381-4.876-14.629 9.752-29.257 24.381-43.886 14.629-24.381 24.381-53.638 14.629-78.019 19.505-9.752 43.886 14.629 34.133 39.010 29.257-4.876 9.752-53.638 24.381-78.019 9.752-14.629 24.381-14.629 39.010-19.505 63.39-19.505 117.029-58.514 165.79-102.4-29.257 0-34.133-48.762-19.505-73.143 19.505-24.381 43.886-43.886 53.638-73.143 9.752-24.381 0-48.762-4.876-73.143s-14.629-48.762-4.876-73.143c9.752-24.381 39.010-39.010 58.514-24.381-14.629 14.629-9.752 34.133 0 53.638s29.257 24.381 43.886 34.133c73.143 43.886 136.533 112.152 175.543 190.171 4.876 4.876 4.876 14.629 4.876 19.505 0 34.133-43.886 39.010-78.019 39.010-43.886 0-92.648 9.752-117.029 48.762-9.752 9.752-14.629 24.381-24.381 34.133-39.010 24.381-107.276-39.010-131.657 0-4.876 9.752-4.876 19.505-14.629 29.257-4.876 14.629-19.505 14.629-34.133 14.629s-29.257 9.752-29.257 24.381c0 4.876 4.876 9.752 9.752 14.629 19.505 14.629 43.886 14.629 68.267 9.752 24.381 0 48.762-4.876 68.267 9.752 19.505 9.752 29.257 43.886 9.752 58.514 58.514 4.876 117.029 39.010 151.162 87.771 29.257-4.876 53.638 39.010 29.257 58.514-14.629 19.505-43.886 14.629-63.39 14.629-24.381 0-53.638 9.752-53.638 34.133-29.257 0-58.514-9.752-82.895-24.381-19.505 19.505 9.752 43.886 34.133 53.638s53.638 29.257 43.886 48.762c0 0 0 4.876-4.876 4.876 195.048-48.762 341.333-229.181 341.333-438.857 0-243.81-204.8-448.61-453.486-448.61z" />
<glyph unicode="&#xe918;" d="M512 960c-282.819 0-512-229.181-512-512s229.181-512 512-512c282.819 0 512 229.181 512 512s-229.181 512-512 512z" />
<glyph unicode="&#xe919;" glyph-name="mastercard" horiz-adv-x="1646" d="M1572.206-64.11h-1498.441c-22.491 0-40.667 18.213-40.667 40.667v942.921c0 22.455 18.176 40.704 40.667 40.704h1498.441c22.455 0 40.667-18.249 40.667-40.704v-942.921c0-22.455-18.213-40.667-40.667-40.667zM1448.375 216.43c1.207-2.085 2.816-3.767 4.864-4.901 2.048-1.17 4.242-1.755 6.546-1.755 2.231 0 4.425 0.585 6.437 1.755 2.048 1.134 3.694 2.816 4.864 4.901 1.17 2.011 1.719 4.206 1.719 6.473s-0.585 4.425-1.719 6.473c-1.207 2.194-2.853 3.73-4.974 4.901-2.085 1.134-4.206 1.719-6.4 1.719-2.231 0-4.352-0.585-6.437-1.719-2.048-1.17-3.767-2.743-4.901-4.901-1.207-2.048-1.755-4.242-1.755-6.473s0.585-4.462 1.755-6.473zM1500.306 448.219c0 224.037-181.541 405.614-405.504 405.541-104.631 0-200.009-39.68-271.909-104.887-71.936 65.097-167.278 104.814-271.835 104.814-0.841 0-1.755 0-2.597 0-222.574-1.463-402.834-182.638-402.834-405.65 0-223.89 181.65-405.614 405.431-405.614 104.521 0 199.863 39.643 271.799 104.777-15.031 13.568-28.599 28.599-41.435 44.325h83.712c-12.617-15.47-26.405-29.952-41.179-43.447h-0.073c-0.329-0.366-0.695-0.585-1.024-0.914 71.973-65.207 167.387-104.923 272.128-104.887 223.927 0.073 405.394 181.76 405.321 405.76 0 0.073 0 0.146 0 0.183zM1288.302 412.343c0 54.784 32.951 102.546 72.521 102.546 25.454-0.073 41.691-22.528 41.691-22.528l9.362 57.783 43.264 0.073-33.024-205.349h-41.984l1.902 15.433c0 0-14.336-18.066-40.229-18.066-35.913 0-53.504 34.67-53.504 70.107zM1357.129 384.219c23.369 0 34.67 30.501 34.67 53.248 0 25.161-8.009 35.803-23.515 35.803-18.981 0-34.011-22.053-33.975-55.552 0-20.407 7.278-33.499 22.821-33.499zM1447.753 368.567c2.121 1.134 4.206 1.719 6.4 1.719 2.231 0 4.352-0.585 6.437-1.719 2.121-1.17 3.73-2.743 4.901-4.864 1.207-2.121 1.755-4.279 1.755-6.546s-0.549-4.389-1.755-6.51c-1.134-2.048-2.743-3.657-4.827-4.901-2.048-1.134-4.206-1.719-6.51-1.719-2.231 0-4.389 0.585-6.473 1.719-2.048 1.243-3.694 2.853-4.827 4.901-1.17 2.121-1.719 4.242-1.719 6.51s0.585 4.462 1.719 6.546c1.134 2.048 2.853 3.73 4.901 4.864zM1444.645 351.707c1.024-1.719 2.341-3.035 4.096-4.096 1.719-0.914 3.511-1.499 5.376-1.499s3.73 0.585 5.413 1.499c1.719 0.987 3.072 2.341 4.096 4.096 0.951 1.755 1.426 3.547 1.426 5.449 0 1.792-0.512 3.694-1.499 5.449-0.987 1.719-2.341 3.072-4.096 4.059-1.719 0.951-3.474 1.463-5.339 1.463-1.792 0-3.584-0.512-5.339-1.463-1.719-0.914-3.109-2.304-4.096-4.059-0.951-1.755-1.463-3.657-1.463-5.449 0-1.902 0.512-3.73 1.426-5.449zM1456.859 363.593c0.695-0.219 1.317-0.695 1.792-1.317s0.658-1.317 0.658-2.085c0-1.024-0.402-1.902-1.134-2.67-0.731-0.841-1.719-1.17-2.889-1.317 0.549-0.219 0.914-0.475 1.207-0.731 0.549-0.585 1.243-1.426 2.048-2.743l1.755-2.816h-2.816l-1.243 2.194c-0.987 1.755-1.792 2.889-2.377 3.291-0.475 0.366-1.024 0.549-1.829 0.549h-1.28v-5.998h-2.377v14.117h4.901c1.646 0 2.889-0.146 3.584-0.475zM1450.752 357.851h2.743c1.317 0 2.194 0.183 2.743 0.622 0.402 0.402 0.658 0.951 0.658 1.536 0 0.475-0.11 0.768-0.366 1.17-0.219 0.293-0.549 0.512-0.951 0.695-0.475 0.146-1.17 0.293-2.304 0.293v-0.037h-2.523v-4.279zM1247.854 344.43h-44.325l26.953 167.387h40.229l-3.877-24.283c0 0 14.336 26.405 33.682 26.405 5.632 0 8.302-0.549 8.302-0.549-5.705-11.703-10.825-22.418-16.055-50.103-30.025 10.679-32.293-47.36-44.91-118.857zM1158.144 344.942l1.463 16.53c-0.695-0.073-13.861-19.822-44.288-19.822-15.945 0-41.691 8.704-41.691 46.519 0 48.128 39.241 64.073 76.544 64.073 5.888 0 18.578-1.061 18.578-1.061s1.463 2.889 1.463 10.862c0 13.056-11.776 14.848-27.867 14.848-28.343 0-47.031-7.57-47.031-7.57l6.29 37.193c0 0 22.674 9.509 52.297 9.509 15.25 0 59.282-1.609 59.246-52.078l-16.933-118.93c-0.037-0.073-38.071-0.073-38.071-0.073zM1153.719 420.133c-31.634 0-38.034-14.226-38.034-26.039 0-6.107 3.474-16.311 16.896-16.311 25.966 0 31.342 34.085 30.537 41.362-1.243 0.219-2.048 0.951-9.399 0.987zM1039.031 511.013c-29.367 0-55.698-28.014-55.698-78.994 0-25.088 12.288-48.494 42.935-48.494 14.555 0 35.694 10.606 35.694 10.606l-7.717-47.104c0 0-23.223-5.961-37.778-5.961-51.529 0-77.678 35.584-77.678 89.454 0 81.225 48.494 124.489 98.304 124.489 22.491 0 48.603-10.569 48.603-10.569l-7.058-45.751c0 0-17.627 12.325-39.607 12.325zM885.431 344.43h-44.325l26.953 167.387h40.192l-3.877-24.283c0 0 14.336 26.405 33.682 26.405 5.595 0 8.302-0.549 8.302-0.549-5.705-11.703-10.789-22.418-16.055-50.103-29.952 10.679-32.256-47.36-44.873-118.857zM733.147 620.946h184.795c6.546-14.043 12.361-28.562 17.481-43.447h-224.183c2.231 4.206 10.057 21.102 21.906 43.447zM786.030 706.999h77.056c11.337-13.751 21.906-28.27 31.451-43.447h-137.472c8.887 14.555 18.615 29.44 28.965 43.447zM705.061 471.223h-22.857l-12.142-74.935c-0.914-5.925 0.731-13.897 15.726-13.897 3.84 0 8.192 1.317 11.154 1.317l-5.413-36.681c-4.315-1.207-16.603-5.595-32.366-5.705-20.114-0.146-34.377 11.081-34.377 36.608 0 17.152 24.503 158.245 25.454 159.195h43.154l-4.389-25.271h21.541l-5.486-40.631zM591.36 476.123c-15.323 0-23.698-3.365-23.698-14.080-0.037-21.577 51.419-10.971 51.419-64.622 0-57.417-55.589-54.93-65.317-54.93-36.206 0-47.397 5.010-48.421 5.266l5.742 37.778c0.073 0.366 18.176-6.546 38.363-6.546 11.63 0 26.734 1.134 26.734 15.031 0 20.809-54.053 15.835-54.053 65.28 0 43.63 32.402 56.393 64.366 56.393 24.649 0 39.826-3.365 39.826-3.365l-5.449-38.144c0 0-23.442 1.938-29.513 1.938zM458.423 345.051l1.39 16.421c-0.658-0.073-13.787-19.822-44.251-19.822-15.945 0-41.691 8.704-41.691 46.519 0 48.128 39.205 64.073 76.581 64.073 5.851 0 18.542-1.061 18.542-1.061s1.426 2.926 1.426 10.862c0 13.093-11.776 14.885-27.831 14.885-28.343 0-47.067-7.607-47.067-7.607l6.29 37.23c0 0 22.711 9.509 52.261 9.509 15.287 0 59.282-1.609 59.282-52.078l-16.933-118.93h-37.998zM453.961 420.133c-31.634 0-38.034-14.226-38.034-26.039 0-6.107 3.474-16.311 16.896-16.311 25.966 0 31.378 34.085 30.537 41.362-1.243 0.219-2.011 0.951-9.399 0.987zM311.15 344.722l24.576 155.099-55.479-155.099h-29.733l-3.84 155.099-26.258-155.099h-41.655l34.523 205.678h62.976l2.194-126.208 42.569 126.208h68.315l-34.048-205.678h-44.142zM780.727 516.645c47.397 0 61.586-34.706 61.586-63.159 0-11.374-5.705-39.351-5.705-39.351h-87.735c0 0-8.119-34.56 38.254-34.56 21.723 0 45.824 10.606 45.824 10.606l-7.607-41.618c0 0-13.934-7.131-45.568-7.131-34.341 0-74.606 14.555-74.606 75.557 0.037 52.846 32.146 99.621 75.557 99.657zM800.768 448.366c0 2.194 4.498 29.623-19.858 29.623-23.515 0-28.050-26.807-28.050-29.623h47.909zM895.086 233.326h-143.872c-8.741 14.007-16.896 28.379-23.918 43.447h191.378c-7.022-14.994-14.885-29.477-23.589-43.447zM1462.418 229.339c0.731-0.293 1.39-0.658 1.792-1.353 0.439-0.658 0.622-1.353 0.622-2.085 0-1.024-0.402-1.902-1.097-2.706-0.731-0.731-1.719-1.207-2.926-1.28 0.512-0.183 0.914-0.475 1.207-0.768 0.585-0.549 1.243-1.499 2.085-2.779l1.755-2.779h-2.853l-1.207 2.231c-0.987 1.719-1.792 2.889-2.414 3.328-0.402 0.256-1.024 0.512-1.792 0.512h-1.317v-6.034h-2.304v14.117h4.901c1.646 0 2.853-0.11 3.547-0.402zM1456.201 227.767v-4.206h2.779c1.317 0 2.194 0.11 2.706 0.585 0.475 0.439 0.695 0.878 0.695 1.573 0 0.439-0.11 0.731-0.329 1.134-0.293 0.183-0.549 0.512-0.987 0.658-0.439 0.183-1.134 0.256-2.231 0.256h-2.633z" />
<glyph unicode="&#xe91a;" glyph-name="americanexpress" horiz-adv-x="1609" d="M1568.366-64.11h-1498.441c-22.455 0-40.667 18.213-40.667 40.667v942.921c0 22.455 18.213 40.704 40.667 40.704h1498.441c22.491 0 40.667-18.249 40.667-40.704v-942.921c0-22.455-18.176-40.667-40.667-40.667zM1413.339 663.296c0 14.373-11.63 26.075-26.002 26.075h-38.693c-14.373 0-26.185-11.703-26.185-26.075v-16.421l-17.993 29.806c-4.718 7.936-13.093 12.69-22.272 12.69h-57.563c-14.373 0-26.039-11.703-26.039-26.222v-22.162l-13.897 32.512c-4.206 9.509-13.568 15.872-24.064 15.872h-56.503c-5.742 0-11.227-1.902-15.689-5.193-4.315 3.291-9.765 5.193-15.543 5.193h-36.535c-31.086 0-54.089-7.643-70.912-22.199-1.975 12.398-12.361 22.199-25.454 22.199h-38.546c-10.203 0-18.981-6.217-23.15-14.702-1.609 1.134-2.889 2.45-4.754 3.584-17.701 10.203-36.389 11.118-58.807 11.118h-86.894c-4.901 0-9.216-1.755-13.093-4.059-3.913 2.304-8.192 4.059-13.093 4.059h-126.281c-5.339 0-9.947-2.048-13.934-4.754-4.206 2.706-8.814 4.754-14.117 4.754h-63.013c-10.496 0-19.968-6.363-23.991-15.982l-22.455-52.992-24.759 53.687c-4.315 9.179-13.495 15.287-23.698 15.287h-61.733c-14.409 0-26.039-11.703-26.039-26.222v-22.747l-14.080 33.097c-4.169 9.655-13.678 15.872-24.027 15.872h-56.101c-10.496 0-19.968-6.363-24.027-15.872l-67.584-158.135c-3.584-8.082-2.743-17.262 2.158-24.759 4.754-7.168 12.91-11.63 21.723-11.63h41.143c10.496 0 19.968 6.29 23.991 16.091l7.936 19.163h43.849l7.753-19.163c4.059-9.801 13.678-16.091 24.21-16.091h76.91c14.409 0 26.039 11.63 26.039 26.039v0.695l4.901-11.227c4.206-9.472 13.495-15.506 23.881-15.506h33.243c10.35 0 19.675 6.034 23.845 15.506l5.047 11.227v-0.695c0-14.409 11.666-26.039 26.039-26.039h38.693c5.339 0 9.947 1.975 14.117 4.608 4.133-2.633 8.741-4.608 14.080-4.608h126.281c4.901 0 9.179 1.682 13.093 4.023 3.877-2.341 8.192-4.023 13.093-4.023h37.851c14.336 0 26.039 11.63 26.039 26.039v31.488h14.336c3.328 0 5.632-0.146 7.387-0.293 0.11-2.706 0.11-5.888 0.11-7.899v-3.584l0.146-19.858c0-14.409 11.813-25.893 26.002-25.893h38.181c4.279 0 8.155 1.28 11.776 3.145 3.547-1.865 7.461-3.145 11.776-3.145h38.546c12.69 0 22.711 9.070 25.198 20.992 21.431-17.993 51.456-20.992 68.315-20.992h44.288c10.496 0 20.151 6.437 24.137 16.238l7.643 19.017h43.593l7.899-19.163c4.169-9.801 13.531-16.091 24.174-16.091h76.946c14.409 0 26.039 11.63 26.039 26.039v25.015l23.15-38.437c4.754-7.863 13.239-12.617 22.418-12.617h53.541c14.373 0 26.002 11.63 26.002 26.039v158.281zM1516.946 357.376v33.646c0 14.409-11.666 26.039-26.039 26.039h-75.813c-23.589 0-41.289-6.912-54.235-17.408-3.584 10.094-12.946 17.408-24.43 17.408h-75.666c-20.846 0-37.266-5.193-49.774-13.495-4.462 7.899-12.654 13.495-22.455 13.495h-126.135c-10.203 0-18.725-5.888-23.003-14.373-1.755 1.28-3.035 2.743-5.010 3.877-18.322 9.765-37.705 10.496-57.856 10.496h-87.15c-10.203 0-18.871-5.888-23.186-14.555-13.202 8.667-31.781 14.555-58.222 14.555h-120.686c-7.351 0-14.263-2.999-19.127-8.338l-28.635-30.793-27.465 30.537c-4.901 5.449-11.922 8.594-19.419 8.594h-152.064c-14.336 0-26.039-11.63-26.039-26.039v-158.281c0-14.409 11.703-26.039 26.039-26.039h149.76c7.314 0 14.263 2.999 19.127 8.338l28.928 31.195 27.319-30.793c4.901-5.595 12.069-8.741 19.566-8.741h73.326c14.555 0 26.185 11.63 26.185 26.185v26.88h20.992c25.49 0 44.032 5.193 57.417 13.275v-40.155c0-14.555 11.63-26.185 26.185-26.185h37.961c14.373 0 26.039 11.63 26.039 26.185v31.634h14.226c3.621 0 6.034-0.146 7.79-0.293 0.146-2.743 0.146-6.144 0-8.485v-22.857c0-14.555 11.63-26.185 26.185-26.185h37.815c4.279 0 8.046 1.134 11.52 2.999 3.584-1.865 7.314-2.999 11.483-2.999h126.135c4.169 0 7.936 1.134 11.374 2.853 3.438-1.719 7.205-2.853 11.374-2.853h73.472c23.479 0 42.459 5.742 56.832 15.982 4.059-9.362 13.239-15.982 24.027-15.982h73.655c53.504 0 85.431 28.343 85.431 75.959 0 22.162-5.888 38.546-18.871 51.822-0.293 0.293-0.549 0.549-0.841 0.841 7.205 4.608 11.959 12.837 11.959 22.053zM1423.726 329.435l20.407-0.585c20.443-0.402 34.523-4.023 43.154-12.654 7.351-7.607 11.374-17.262 11.374-33.536 0-33.938-21.285-49.774-59.392-49.774h-73.655v33.792h73.362c7.168 0 12.215 1.024 15.397 3.877 2.56 2.487 4.462 6.034 4.462 10.386 0 4.608-2.048 8.192-4.608 10.496-2.889 2.45-6.912 3.474-13.531 3.474-35.218 1.134-79.543-1.024-79.543 48.933 0 23.003 14.373 47.177 54.089 47.177h75.666v-33.646h-69.193c-6.875 0-11.483-0.329-15.25-2.889-4.169-2.633-5.595-6.473-5.595-11.374 0-6.071 3.438-10.057 8.192-11.813 4.023-1.426 8.338-1.865 14.665-1.865zM1269.394 329.435l20.261-0.585c20.59-0.402 34.67-4.023 43.154-12.654 7.497-7.607 11.374-17.262 11.374-33.536 0-33.938-21.321-49.774-59.282-49.774h-73.618v33.792h73.326c7.095 0 12.251 1.024 15.397 3.877 2.633 2.487 4.462 6.034 4.462 10.386 0 4.608-1.975 8.192-4.608 10.496-2.999 2.45-6.875 3.474-13.495 3.474-35.255 1.134-79.543-1.024-79.543 48.933 0 23.003 14.373 47.177 53.943 47.177h75.813v-33.646h-69.339c-6.912 0-11.374-0.329-15.104-2.889-4.206-2.633-5.778-6.473-5.778-11.374 0-6.071 3.621-10.057 8.375-11.813 4.023-1.426 8.192-1.865 14.665-1.865zM1062.4 391.022h126.135v-32.805h-88.43v-28.782h86.272v-32.219h-86.272v-31.525l88.43-0.146v-32.805h-126.135v158.281zM1014.638 306.249c8.521-2.999 15.397-8.594 18.542-13.202 5.339-7.79 6.217-14.994 6.363-28.928v-31.378h-37.961v19.858c0 9.472 0.841 23.589-6.217 30.939-5.486 5.595-13.787 7.022-27.611 7.022h-40.411v-57.819h-37.961v158.281h87.296c19.163 0 32.951-0.878 45.422-7.461 11.995-7.241 19.456-17.152 19.456-35.109 0-25.344-16.969-38.181-26.917-42.203zM991.927 355.328c-4.608 2.743-11.337 2.889-17.993 2.889h-46.592v-35.547h45.861c7.387 0 13.678 0.293 18.725 3.291 4.901 2.889 7.753 8.375 7.753 15.104 0 6.802-2.853 11.703-7.753 14.263zM805.778 285.806h-47.031v-53.065h-73.472l-46.629 52.37-48.311-52.37h-149.76v158.281h152.064l46.446-51.931 48.201 51.931h120.686c29.915-0.146 63.707-8.338 63.707-52.224s-32.805-52.992-65.902-52.992zM573.074 358.217h-94.647v-28.782h82.871v-32.219h-82.871v-31.525h92.745l43.191 46.482-41.289 46.043zM721.079 373.906l-58.075-62.318 58.075-64.439v126.757zM807.973 358.217h-49.225v-40.265h48.75c14.555 0 23.479 7.168 23.479 20.846 0 13.97-9.362 19.419-23.003 19.419zM1026.158 565.723c-1.28 2.341-2.999 7.497-2.999 18.432s2.706 16.53 2.999 17.115c1.134 0.987 2.048 1.902 10.935 1.902h12.946l-16.384-38.29c-3.767 0-6.217 0.402-7.497 0.841zM1262.19 623.726v-118.711h-76.946l-14.811 35.255h-78.409l-14.226-35.255h-44.288c-18.432 0-41.582 4.169-54.674 17.518-13.385 13.385-20.261 31.707-20.261 60.306 0 23.479 4.133 44.91 20.261 61.915 12.251 12.617 31.342 18.395 57.381 18.395h36.535v-33.792h-35.657c-13.934 0-21.723-2.194-29.184-9.362-6.327-6.802-10.789-19.31-10.789-35.84 0-17.006 3.291-29.221 10.35-37.157 5.888-6.327 16.53-8.155 26.331-8.155h16.969l53.358 124.306h56.503l64-149.504v149.504h57.563l66.45-110.117v110.117h38.693v-158.135h-53.541l-71.607 118.711zM1131.447 636.233l-25.893-63.013h52.078l-26.185 63.013zM901.449 663.15h38.546v-158.135h-38.546v158.135zM852.992 578.414c8.155-3.182 15.25-8.667 18.688-13.275 5.303-7.899 6.217-14.958 6.217-29.074v-31.049h-38.181l-0.146 20.005c0 9.472 0.914 23.15-5.888 30.793-5.595 5.449-13.934 6.729-27.611 6.729h-40.375v-57.527h-37.851v158.135h86.894c19.237 0 33.499-0.439 45.714-7.497 11.959-7.022 19.127-17.371 19.127-35.109 0-25.161-16.823-38.29-26.587-42.13zM830.135 627.31c-4.608 2.597-11.52 2.889-18.030 2.889h-46.555v-35.109h46.007c7.351 0 13.385 0.146 18.725 3.328 4.718 2.56 7.717 8.046 7.717 14.958 0 6.766-2.999 11.63-7.863 13.934zM575.378 663.15h126.135v-32.951h-88.32v-28.489h86.309v-32.366h-86.309v-31.561h88.32v-32.768h-126.135v158.135zM508.343 628.919l-54.784-123.904h-33.243l-54.821 124.050v-124.050h-76.91l-14.555 35.255h-78.702l-14.629-35.255h-40.997l67.621 158.135h56.064l64.293-149.797v149.797h61.733l49.481-107.227 45.422 107.227h63.013v-158.135h-38.839l-0.146 123.904zM234.642 636.233l-25.746-63.013h51.493l-25.746 63.013z" />
<glyph unicode="&#xe91b;" glyph-name="visa" horiz-adv-x="1609" d="M23.2 956.96c-8.32-3.68-16.48-11.84-20.16-20.16-2.88-6.080-3.040-24.96-3.040-488.8 0-466.88 0.16-482.56 3.040-488.8 3.68-8 13.44-17.44 21.28-20.8 5.44-2.080 83.36-2.4 766.080-2.4 641.28 0 760.96 0.32 765.44 2.24 7.36 3.040 16.64 11.52 20.64 19.2l3.52 6.56 0.48 481.6c0.32 445.92 0.16 482.080-2.24 488.64-3.52 9.12-12.48 19.040-20.64 22.72-6.24 2.88-34.56 3.040-767.2 3.040-733.44 0-760.96-0.16-767.2-3.040zM1017.92 651.36c20.96-4.64 53.92-12.8 57.76-14.4 2.4-0.96 4.32-2.88 4.32-4.48s-3.84-20.48-8.64-42.080c-6.4-29.76-8.96-39.2-10.72-38.88-1.28 0.16-9.44 2.88-18.24 5.92-23.36 8.32-41.92 11.040-68 10.24-24.16-0.8-34.4-3.68-45.12-12.48-7.36-6.080-11.68-16.8-10.080-24.96 1.76-9.76 15.68-21.92 40.16-34.88 33.6-18.080 49.28-27.52 62.080-37.76 30.72-24.32 43.84-54.88 39.68-92-3.36-29.92-13.76-52.32-33.92-72.96-23.2-23.68-48.8-36.48-91.52-45.44-16.8-3.52-22.72-4-52.16-4-40.16 0-65.76 3.84-99.040 14.72-10.88 3.52-14.88 5.44-14.88 7.36 0 3.68 17.28 83.84 18.4 84.8 0.32 0.48 5.6-1.44 11.68-4.16 27.36-12.64 48.8-17.76 78.72-19.040 26.080-0.96 37.28 0.48 51.040 6.72 20.48 9.44 28.64 25.28 21.76 42.080-4.96 11.52-14.88 18.88-49.6 36.96-51.040 26.56-75.2 48.96-85.92 79.84-3.040 9.12-3.68 13.76-3.52 30.72 0 17.44 0.64 21.6 4.48 32.8 15.2 44.32 54.080 76.48 107.2 88.96 10.72 2.4 22.24 5.12 25.76 5.92 8.64 2.080 59.84 2.24 68.32 0.48zM354.56 640.48c10.88-5.76 20.96-18.4 24.48-30.72 1.76-5.76 8.16-37.92 14.4-71.36 24.8-133.76 29.76-159.36 31.040-157.28 0.8 1.12 24.64 60.8 52.96 132.48l51.52 130.4 53.92 0.48c29.6 0.16 53.92-0.32 53.92-0.96 0-1.44-6.56-17.44-22.88-56.32-9.44-22.56-27.84-66.4-66.72-159.2-56.8-135.52-73.92-176.16-75.52-177.92-1.28-1.76-12.8-2.080-55.36-1.76l-53.76 0.48-1.28 5.6c-1.6 6.56-23.040 89.6-58.080 225.44-13.76 53.12-26.24 99.2-28 102.56-4.16 8.32-11.36 13.92-26.88 21.28-15.68 7.2-53.6 20-75.84 25.28-13.92 3.36-15.68 4.16-15.68 7.2 0 9.28-6.56 8.8 96.64 8.32 93.92-0.48 94.56-0.48 101.12-4zM784 644c0-0.48-18.72-88.32-41.6-195.2s-41.6-195.36-41.6-196.64c0-1.12-1.12-2.72-2.56-3.2s-24.8-0.96-52-0.96c-40.8 0-49.44 0.32-49.44 2.24 0 1.12 4 20.8 8.96 43.52 4.8 22.88 11.36 52.96 14.24 67.040 3.040 14.080 7.2 33.92 9.44 44 2.080 10.080 10.080 47.2 17.6 82.4 24.8 115.84 32.96 153.44 33.76 155.52 0.48 1.6 12 2.080 52 2.080 28.16 0 51.2-0.32 51.2-0.8zM1351.52 596c5.44-26.4 15.040-72.16 21.28-101.6 6.080-29.44 14.4-69.44 18.4-88.8 4.16-19.36 10.56-50.72 14.56-69.6 9.12-43.84 16.8-79.84 17.76-84.32l0.8-3.68h-47.2c-43.52 0-47.52 0.16-48.8 2.88-0.8 1.44-3.84 14.72-6.88 29.6l-5.44 26.72-65.44-0.32-65.6-0.48-9.12-25.6c-5.12-14.080-10.080-27.2-10.88-29.28l-1.76-3.52h-52.64c-28.96 0-53.12 0.64-53.6 1.44s1.6 7.040 4.48 13.92c5.92 13.76 9.28 21.92 46.56 111.040 13.76 32.96 29.6 70.88 35.2 84 5.44 13.28 22.080 52.8 36.8 88 32.8 78.4 33.44 79.68 42.080 87.2 12 10.72 14.24 11.040 69.76 10.72l49.6-0.32 10.080-48zM1241.92 463.36c-14.24-39.36-25.92-72-25.92-72.64s18.4-1.12 40.8-1.12c35.2 0 40.8 0.32 40.8 2.4 0 2.4-25.92 128.16-28.32 137.6-1.28 4.96-3.68-0.96-27.36-66.24z" />
<glyph unicode="&#xe91c;" glyph-name="return" d="M874.767 104.297h88.516c15.39 0 27.829-12.559 27.829-28.13 0-15.541-12.439-28.070-27.829-28.070h-156.853c-15.39 0-27.829 12.529-27.829 28.070v158.419c0 15.571 12.439 28.13 27.829 28.13 15.42 0 27.859-12.559 27.859-28.13v-91.407c172.845 186.308 144.986 468.661-12.439 623.496-174.020 175.556-457.065 175.556-631.085 0s-174.020-461.101 0-636.687c125.832-126.916 314.067-166.37 479.593-100.412 14.396 5.752 30.419-1.416 36.141-15.752s-1.205-30.66-15.601-36.472c-190.615-74.12-399.601-27.708-539.437 112.61-195.735 197.481-195.735 518.686 0 716.168s514.138 197.481 709.903 0c199.078-208.414 187.633-516.909 13.402-701.832zM249.284 244.405c-3.704 5.421-5.090 11.866-3.915 18.191l66.801 381.681c2.409 11.354 11.144 19.426 21.805 20.239l47.435 0.030c3.313 66.59 57.615 119.296 123.904 119.296 67.042 0 121.495-53.007 124.536-119.296h46.923c11.625 0 21.504-8.252 24.034-20.058l66.831-381.952 0.12-4.096c0-13.463-10.872-24.365-24.184-24.365h-477.696c-7.439 1.265-12.92 4.909-16.595 10.33zM505.916 735.081h-0.602c-40.508 0-72.644-30.539-75.535-70.536h151.612c-3.102 40.237-35.147 70.536-75.475 70.536zM715.234 283.979l-58.037 332.981h-26.624v-35.238c0-14.276-10.601-24.968-24.154-24.968s-24.184 10.692-24.184 24.365v35.268h-152.666v-35.268c0-14.276-10.601-24.968-24.154-24.968s-24.184 10.692-24.184 24.365v35.268h-24.817l-58.037-331.806h416.858z" />
<glyph unicode="&#xe91d;" horiz-adv-x="1088" d="M1004.8 416l-947.2-473.6c-25.6-12.8-57.6 0-57.6 32v947.2c0 25.6 32 44.8 57.6 32l940.8-473.6c32-12.8 32-51.2 6.4-64zM89.6 844.8v-793.6l787.2 396.8-787.2 396.8z" />
<glyph unicode="&#xe91e;" horiz-adv-x="1088" d="M1004.8 486.4l-947.2 467.2c-25.6 12.8-57.6 0-57.6-32v-947.2c0-32 32-44.8 57.6-32l940.8 473.6c32 12.8 32 51.2 6.4 70.4z" />
<glyph unicode="&#xe91f;" horiz-adv-x="1344" d="M1292.8 742.4h-179.2v172.8c0 25.6-19.2 44.8-51.2 44.8h-1024c-19.2 0-38.4-19.2-38.4-44.8v-710.4c0-25.6 19.2-44.8 51.2-44.8h179.2v-172.8c0-25.6 19.2-44.8 51.2-44.8h1024c25.6 0 51.2 19.2 51.2 44.8v704c-12.8 25.6-32 51.2-64 51.2zM96 864h928v-128h-748.8c-25.6 0-51.2-19.2-51.2-44.8v-448h-128v620.8zM326.4 153.6v0 492.8h928v-620.8h-928v128z" />
<glyph unicode="&#xe920;" horiz-adv-x="1344" d="M1292.8 742.4h-179.2v172.8c0 25.6-19.2 44.8-51.2 44.8h-1024c-19.2 0-38.4-19.2-38.4-44.8v-710.4c0-25.6 19.2-44.8 51.2-44.8h179.2v-172.8c0-25.6 19.2-44.8 51.2-44.8h1024c25.6 0 51.2 19.2 51.2 44.8v704c-12.8 25.6-32 51.2-64 51.2z" />
<glyph unicode="&#xe921;" glyph-name="lock" horiz-adv-x="914" d="M827.977-49.042h-720.64c-39.936 0-72.265 31.634-72.265 70.949v532.699c0 39.168 32.329 70.949 72.265 70.949h35.877c0 176.457 145.262 319.488 324.462 319.488 179.163 0 324.425-143.031 324.425-319.488h35.877c39.936 0 72.302-31.671 72.302-70.949v-532.699c0-39.205-32.366-70.949-72.302-70.949zM467.675 874.021c-139.374 0-252.379-111.214-252.379-248.466h504.722c0 137.253-112.969 248.466-252.343 248.466zM107.337 554.533c-0.183 0-0.183-532.59-0.183-532.59 0 0.037 720.823 0.037 720.823 0.037 0.183 0 0.183 532.59 0.183 532.59s-720.823-0.037-720.823-0.037zM651.337 365.166l-196.791-193.792c-6.473-6.4-15.104-9.947-24.283-9.947s-17.81 3.547-24.32 9.947l-107.118 105.509c-12.727 13.458-11.959 34.926 1.938 47.689 6.363 5.815 14.702 9.070 23.442 9.070s17.042-3.255 23.442-9.070l82.615-81.371 174.519 172.032c6.144 5.632 14.482 8.85 23.223 8.85 9.655 0 18.578-3.803 25.161-10.789 12.288-12.946 12.288-33.243 0-46.153l-1.829-1.975z" />
<glyph unicode="&#xe922;" glyph-name="helmet" d="M490.102-62.346c-37.888 0-68.529 30.72-68.529 68.726 0 38.046 30.641 68.766 68.529 68.766 26.27 0 51.042-16.108 62.74-39.503 176.443 20.519 309.13 169.669 309.13 348.042v168.212c0 193.024-157.499 350.956-349.972 350.956-192.512 0-350.011-157.932-350.011-350.956v-178.412c0-43.914-35.013-80.463-80.226-80.463-43.756 0-80.187 35.092-80.187 80.463v125.755c0 43.874 34.974 80.384 80.187 80.384 8.743 0 17.526-1.457 26.27-4.372 11.658 215.001 186.644 383.173 403.968 383.173 215.828 0 390.814-168.172 403.968-383.173 8.743 2.914 17.487 4.372 26.23 4.372 43.756 0 80.226-35.052 80.226-80.384v-125.755c0-43.914-35.013-80.463-80.226-80.463-11.658 0-23.316 2.914-33.556 7.326-34.974-171.087-179.358-302.75-352.886-320.276-11.697-24.852-36.47-42.417-65.654-42.417zM490.102 21.031c-8.743 0-14.572-7.326-14.572-14.651 0-8.783 7.286-14.612 14.572-14.612s14.612 7.326 14.612 14.612c1.457 8.783-5.868 14.651-14.612 14.651zM940.741 525.548c-14.572 0-24.773-11.697-24.773-24.852v-125.755c0-14.651 11.658-24.852 24.773-24.852s24.812 11.658 24.812 24.852v125.755c1.457 13.154-10.24 24.852-24.812 24.852zM81.762 525.548c-14.572 0-24.773-11.697-24.773-24.852v-125.755c0-14.651 11.658-24.852 24.773-24.852 14.612 0 24.812 11.658 24.812 24.852v125.755c1.457 13.154-10.201 24.852-24.812 24.852z" />
<glyph unicode="&#xe923;" glyph-name="phi" horiz-adv-x="970" d="M558.673 147.537v600.819c150.097-32.121 261.982-154.301 261.982-300.409 0-146.216-111.885-268.342-261.982-300.409zM411.648 147.537c-150.097 32.067-262.036 154.193-262.036 300.409 0 146.109 111.939 268.288 262.036 300.409v-600.819zM558.673 813.73v134.737h-147.025v-134.737c-232.771-27.109-411.379-180.278-411.379-365.784 0-185.452 178.607-338.621 411.379-365.784v-134.683h147.025v134.683c232.717 27.163 411.217 180.332 411.217 365.784 0 185.506-178.499 338.675-411.217 365.784z" />
<glyph unicode="&#xe924;" glyph-name="chevron" horiz-adv-x="1479" d="M1470.35 777.273l-730.112-730.226-104.334 104.22-625.892 626.005 104.334 104.22 625.892-625.892 625.778 625.892 104.334-104.22z" />
<glyph unicode="&#xe925;" glyph-name="close" horiz-adv-x="1000" d="M999.865-15.386l-24.479-24.479-463.386 463.386-487.521-487.521-24.479 24.135 487.521 487.865-487.521 487.521 24.479 24.479 487.521-487.521 463.041 463.041 24.479-24.479-463.041-463.041z" />
<glyph unicode="&#xe926;" glyph-name="arrow-left" horiz-adv-x="478" d="M447.625-35.567l-12.971-17.613-390.656 463.906-0.853-1.126-13.005 17.579 13.005 17.613 0.341-0.41 391.168 504.969 12.971-17.613-390.281-503.808 390.281-463.497z" />
<glyph unicode="&#xe927;" glyph-name="arrow-right" horiz-adv-x="478" d="M447.488 470.869l-12.8-17.715-0.341 0.375-386.116-508.826-13.175 17.51 385.263 507.665-394.889 459.571 12.834 17.715 395.196-459.947 0.887 1.126 13.141-17.476z" />
<glyph unicode="&#xe928;" glyph-name="mail" horiz-adv-x="1280" d="M64 121.856v652.715c0.853 2.56 1.621 5.205 2.219 7.765 11.861 72.277 70.912 126.379 139.776 126.464 289.28 0.256 578.645 0.256 867.925 0 65.621 0 122.368-49.152 137.813-117.077 1.365-5.803 2.901-11.435 4.267-17.152v-652.715c-0.853-1.707-1.536-3.584-1.963-5.376-10.667-63.829-52.309-112.811-111.275-124.587-27.648-5.632-56.661-4.267-85.077-4.352-269.397-0.171-538.795-0.171-808.277 0-66.219 0-121.941 44.885-139.861 111.531-2.048 7.253-3.755 15.104-5.547 22.784zM455.936 459.349c-18.005-18.944-34.987-36.864-51.712-54.955l-183.381-194.901c-11.008-11.776-16.128-25.088-11.52-41.216 8.363-29.269 40.533-36.352 62.123-13.483 76.203 80.981 152.235 162.133 228.267 243.456 2.816 3.499 5.376 7.253 7.595 11.264 6.315-6.229 10.496-10.069 14.592-13.995l91.648-88.832c17.408-16.725 35.584-16.555 53.077 0.256 31.659 30.549 63.403 61.269 95.061 91.904 2.816 2.901 6.059 5.717 9.643 9.216 28.587-30.549 56.661-60.587 84.651-90.539l152.661-162.901c10.325-10.923 22.187-16.213 36.608-12.117 27.989 8.107 36.011 42.837 14.848 65.621-51.029 54.784-102.144 109.397-153.515 163.84-27.221 28.928-54.699 58.027-82.432 87.552 3.584 3.669 6.571 6.741 9.557 9.643l225.536 218.539c10.923 10.667 15.36 23.808 11.691 38.997-2.816 13.739-12.8 24.405-25.685 27.563-14.336 4.096-26.027-1.451-36.779-11.947-119.637-116.309-239.531-232.448-359.509-348.587-2.901-2.816-5.973-5.547-9.131-8.533l-171.52 166.229c-66.048 63.744-132.011 127.659-198.144 191.659-10.411 10.155-22.016 15.019-36.011 10.837-12.715-3.328-22.613-14.080-25.429-27.648-3.413-15.36 1.195-28.331 12.117-38.827 47.275-45.653 94.379-91.477 141.568-137.131l93.525-90.965z" />
<glyph unicode="&#xe929;" glyph-name="download" horiz-adv-x="1170" d="M1038.117-63.781h-1023.488v292.498h73.070v-219.429h950.418v219.429h73.143v-292.498h-73.143zM599.479 228.718h-3.73l-32.841-32.841-32.841 32.841h-3.73v3.73l-325.266 325.559 51.639 51.639 273.627-273.701v624.201h73.143v-624.201l273.627 273.701 51.712-51.639-325.339-325.559v-3.73z" />
<glyph unicode="&#xe92a;" glyph-name="paypal" horiz-adv-x="1609" d="M1539.438-64.11h-1498.441c-22.491 0-40.667 18.213-40.667 40.667v942.921c0 22.491 18.176 40.704 40.667 40.704h1498.441c22.491 0 40.667-18.213 40.667-40.704v-942.921c0-22.455-18.176-40.667-40.667-40.667zM339.712 584.923c-15.287 17.774-42.35 27.209-78.299 27.209h-107.447c-7.351 0-13.605-5.303-14.738-12.507l-43.447-269.641c-0.878-5.376 3.328-10.24 8.85-10.24h51.273c7.351 0 13.605 5.303 14.775 12.471l11.703 70.254c1.134 7.205 7.424 12.507 14.738 12.507h34.011c70.766 0 111.616 33.938 122.295 101.23 4.791 29.403 0.183 52.517-13.714 68.718zM582.51 519.899h-51.419c-4.425 0-8.155-3.182-8.85-7.497l-2.267-15.397-3.584 5.157c-11.154 16.018-35.986 20.261-60.782 20.261-56.832 0-105.399-41.582-114.834-101.449-4.937-29.879 2.048-58.405 19.163-78.336 15.689-18.286 38.071-25.929 64.768-25.929 45.824 0 71.241 28.599 71.241 28.599l-2.304-14.19c-0.878-5.376 3.328-10.24 8.85-10.24h46.336c7.351 0 13.568 5.303 14.738 12.471l27.794 176.274c0.878 5.376-3.328 10.277-8.85 10.277zM856.539 519.314h-51.712c-4.937 0-9.582-2.414-12.361-6.473l-71.314-109.861-30.245 105.765c-1.902 6.254-7.717 10.569-14.299 10.569h-50.834c-6.144 0-10.459-5.998-8.485-11.739l56.942-171.374-53.541-74.898c-4.206-5.851 0.037-14.007 7.314-14.007h51.639c4.901 0 9.472 2.377 12.288 6.363l171.959 251.721c4.096 5.888-0.146 13.934-7.351 13.934zM1105.993 584.923c-15.287 17.774-42.35 27.209-78.299 27.209h-107.447c-7.351 0-13.605-5.303-14.738-12.507l-43.447-269.056c-0.841-5.376 3.365-10.24 8.85-10.24h55.113c5.157 0 9.509 3.694 10.313 8.704l12.325 73.435c1.17 7.205 7.424 12.507 14.738 12.507h34.011c70.766 0 111.616 33.938 122.295 101.23 4.791 29.403 0.183 52.517-13.714 68.718zM1348.827 519.899h-51.456c-4.425 0-8.155-3.182-8.85-7.497l-2.267-15.397-3.584 5.157c-11.154 16.018-35.986 19.675-60.782 19.675-56.832 0-105.399-40.997-114.834-100.864-4.901-29.879 2.048-58.405 19.163-78.336 15.689-18.286 38.107-25.929 64.768-25.929 45.824 0 71.241 28.599 71.241 28.599l-2.304-14.19c-0.841-5.376 3.328-10.24 8.85-10.24h46.336c7.351 0 13.605 5.303 14.738 12.471l27.831 176.274c0.841 5.376-3.365 10.277-8.85 10.277zM1467.904 612.133h-49.591c-4.425 0-8.192-3.182-8.85-7.497l-44.105-274.066c-0.841-5.413 3.328-10.277 8.85-10.277h44.325c7.351 0 13.605 5.303 14.738 12.507l43.483 269.056c0.878 5.376-3.328 10.277-8.85 10.277zM1219.035 370.798c-14.921 0-26.843 4.754-34.523 13.787-7.643 8.923-10.496 21.65-8.082 35.803 4.645 28.855 28.343 49.079 57.673 49.079 14.592 0 26.441-4.827 34.267-13.934 7.899-9.143 11.008-21.943 8.741-36.023-4.974-29.147-28.306-48.713-58.075-48.713zM976.274 474.185h-16.201l11.374 71.351c0.658 4.315 4.425 7.497 8.814 7.497h7.461c19.383 0 37.705 0 47.141-10.971 5.669-6.546 7.351-16.238 5.23-29.659-5.888-38.217-35.328-38.217-63.817-38.217zM452.754 370.798c-14.921 0-26.88 4.754-34.523 13.787-7.607 8.923-10.496 21.65-8.082 35.803 4.645 28.855 28.343 47.909 57.673 47.909 14.592 0 26.441-3.657 34.267-12.763 7.899-9.143 11.008-21.943 8.741-36.023-4.974-29.147-28.306-48.713-58.075-48.713zM209.993 474.185h-16.201l11.374 71.351c0.658 4.315 4.425 7.497 8.814 7.497h7.461c19.383 0 37.705 0 47.141-10.971 5.632-6.546 7.351-16.238 5.23-29.659-5.888-38.217-35.328-38.217-63.817-38.217z" />
<glyph unicode="&#xe92b;" glyph-name="plus" d="M912.384 512.649l-335.189 0.478 0.478 329.455c0 28.945-35.226 57.549-64.102 57.549-28.945 0-66.355-32.631-66.355-61.577l-0.478-325.222-329.523 0.478c-28.877 0-57.549-35.226-57.549-64.171 0-28.877 32.7-66.287 61.577-66.287l325.291-0.478-0.546-339.422c0-28.945 34.202-47.65 66.355-47.65 28.877 0 64.171 22.733 64.171 51.678l0.478 335.189 339.422-0.546c28.877 0 47.65 34.202 47.65 66.355 0 28.877-22.801 64.171-51.678 64.171z" />
<glyph unicode="&#xe92c;" glyph-name="dinners" horiz-adv-x="1609" d="M1539.438-64.11h-1498.441c-22.491 0-40.667 18.213-40.667 40.667v942.921c0 22.491 18.176 40.704 40.667 40.704h1498.441c22.455 0 40.667-18.213 40.667-40.704v-942.921c0-22.455-18.213-40.667-40.667-40.667zM968.923 850.213h-365.422c-211.931 0-383.707-171.776-383.707-383.671 0-211.931 171.776-383.671 383.707-383.671h365.422c211.931 0 383.707 171.739 383.707 383.671 0 211.895-171.776 383.671-383.707 383.671zM603.429 165.047c-166.473 0-301.422 134.949-301.422 301.385 0 166.473 134.949 301.385 301.422 301.385s301.422-134.912 301.422-301.385c0-166.437-134.949-301.385-301.422-301.385zM553.070 672.256c-93.659-21.358-163.73-104.777-163.73-204.91s70.071-183.552 163.73-204.91v409.819zM640.731 673.792v-412.855c96.731 19.017 169.728 104.119 169.728 206.409 0 102.327-72.997 187.429-169.728 206.446z" />
</font>
</defs>
</svg>
