<svg
        xmlns="http://www.w3.org/2000/svg"
        width="18px" height="19px">
<path fill-rule="evenodd"  fill="rgb(35, 35, 35)"
 d="M10.366,15.075 L10.366,3.927 C13.151,4.523 15.227,6.790 15.227,9.501 C15.227,12.214 13.151,14.480 10.366,15.075 M7.638,15.075 C4.853,14.480 2.776,12.214 2.776,9.501 C2.776,6.790 4.853,4.523 7.638,3.927 L7.638,15.075 ZM10.366,2.714 L10.366,0.214 L7.638,0.214 L7.638,2.714 C3.319,3.217 0.005,6.059 0.005,9.501 C0.005,12.942 3.319,15.784 7.638,16.288 L7.638,18.787 L10.366,18.787 L10.366,16.288 C14.684,15.784 17.996,12.942 17.996,9.501 C17.996,6.059 14.684,3.217 10.366,2.714 "/>
</svg>
