<?xml version="1.0" encoding="utf-8"?>
<!-- Generator: Adobe Illustrator 24.1.0, SVG Export Plug-In . SVG Version: 6.00 Build 0)  -->
<svg version="1.1" xmlns="http://www.w3.org/2000/svg" x="0px" y="0px"
     viewBox="0 0 5669.292 5669.292" enable-background="new 0 0 5669.292 5669.292" xml:space="preserve">
<g id="Layer_1">
</g>
<g id="Calque_2">
	<g>
		<polygon fill="#3A4654" points="2121.855,4196.343 560.749,3228.435 560.749,1348.572 2207.462,741.891 3884.796,1416.374
			3884.796,2556.794 3730.027,2556.794 3730.027,1520.963 2205.043,907.723 715.517,1456.487 715.517,3142.345 2135.881,4022.954
			2670.709,3800.958 2730.017,3943.877 		"/>
	</g>
	<g>
		<polygon fill="#3A4654" points="2121.281,2263.762 602.343,1471.147 673.923,1333.911 2128.354,2092.851 3770.473,1401.653
			3830.566,1544.33 		"/>
	</g>
	<g>
		<rect x="2049.005" y="2184.02" fill="#3A4654" width="154.769" height="1915.291"/>
	</g>
	<g>
		<polygon fill="#3A4654" points="1405.658,1858.341 1346.471,1715.361 2926.38,1061.404 2985.627,1204.383 		"/>
	</g>
	<g>
		<rect x="1298.68" y="1795.829" fill="#3A4654" width="154.769" height="651.781"/>
	</g>
	<g>
		<path fill="#3A4654" d="M3851.545,4675.763c-540.783,0-980.725-439.881-980.725-980.604s439.942-980.604,980.725-980.604
			c541.387,0,981.873,439.881,981.873,980.604S4392.932,4675.763,3851.545,4675.763z M3851.545,2869.324
			c-455.418,0-825.956,370.477-825.956,825.835s370.538,825.835,825.956,825.835c456.083,0,827.105-370.477,827.105-825.835
			S4307.628,2869.324,3851.545,2869.324z"/>
	</g>
	<g>
		<line fill="#FFFFFF" x1="3807.957" y1="3684.05" x2="3425.008" y2="3370.074"/>
		<path fill="#3A4654" d="M3807.895,3761.419c-17.23,0-34.641-5.743-49.03-17.532l-382.931-313.95
			c-33.009-27.084-37.846-75.873-10.761-108.943c27.024-32.949,75.812-37.906,108.943-10.761l382.931,313.95
			c33.009,27.084,37.846,75.873,10.761,108.942C3852.512,3751.746,3830.264,3761.419,3807.895,3761.419z"/>
	</g>
	<g>
		<g>
			<g>
				<path fill="#3A4654" d="M3935.177,3695.196c0,45.979-37.002,83.036-83.005,83.036c-45.768,0-83.067-37.058-83.067-83.036
					c0-46.034,37.299-83.098,83.067-83.098C3898.175,3612.097,3935.177,3649.161,3935.177,3695.196z"/>
				<path fill="#3A4654" d="M3852.149,3855.61c-88.448,0-160.451-71.943-160.451-160.391c0-88.508,72.004-160.512,160.451-160.512
					s160.391,72.004,160.391,160.512C4012.54,3783.667,3940.597,3855.61,3852.149,3855.61z M3852.149,3689.476
					c-3.204,0-5.683,2.539-5.683,5.743c-0.061,6.227,11.305,6.348,11.305,0C3857.772,3691.894,3855.414,3689.476,3852.149,3689.476z
					"/>
			</g>
		</g>
	</g>
	<g>
		<path fill="#3A4654" d="M2791.834,3187.99c-18.258,0-36.576-6.408-51.297-19.467c-31.981-28.354-34.944-77.263-6.59-109.245
			l445.685-502.937c28.294-32.042,77.203-34.974,109.245-6.59c31.981,28.354,34.944,77.263,6.59,109.245l-445.685,502.937
			C2834.486,3179.163,2813.205,3187.99,2791.834,3187.99z"/>
	</g>
	<g>
		<path fill="#3A4654" d="M4890.489,3135.453c-18.258,0-36.576-6.408-51.328-19.467l-502.937-445.685
			c-31.981-28.354-34.944-77.263-6.59-109.245c28.354-32.042,77.203-34.974,109.245-6.59l502.938,445.685
			c31.981,28.354,34.944,77.263,6.59,109.245C4933.111,3126.626,4911.83,3135.453,4890.489,3135.453z"/>
	</g>
	<g>
		<line fill="#FFFFFF" x1="3836.167" y1="3729.602" x2="4352.398" y2="3249.413"/>
		<path fill="#3A4654" d="M3836.189,3807.003c-20.737,0-41.413-8.283-56.648-24.666c-29.14-31.316-27.326-80.286,3.93-109.366
			l516.238-480.206c31.316-29.201,80.226-27.387,109.366,3.929c29.14,31.317,27.326,80.286-3.93,109.366l-516.238,480.206
			C3873.974,3800.172,3855.051,3807.003,3836.189,3807.003z"/>
	</g>
</g>
</svg>
