<?xml version="1.0" encoding="utf-8"?>
<!-- Generator: Adobe Illustrator 25.2.3, SVG Export Plug-In . SVG Version: 6.00 Build 0)  -->
<svg version="1.1" xmlns="http://www.w3.org/2000/svg" x="0px" y="0px"
     viewBox="0 0 2402.2 2362.37" style="enable-background:new 0 0 2402.2 2362.37;" xml:space="preserve">
<style type="text/css">
	.st0{fill:#FFFFFF;}
</style>
<g id="_x2014_ÎÓÈ_x5F_11">
</g>
<g id="Layer_3">
	<g>
		<circle class="st0" cx="1194.1" cy="1181.75" r="900.08"/>
	</g>
	<g>
		<path class="st0" d="M1194.1,2343.5c-156.82,0-308.97-30.72-452.22-91.31c-138.34-58.51-262.58-142.28-369.27-248.96
			c-106.68-106.68-190.44-230.92-248.96-369.27c-60.59-143.25-91.31-295.4-91.31-452.22s30.72-308.97,91.31-452.22
			c58.51-138.35,142.28-262.58,248.96-369.27s230.92-190.44,369.27-248.96C885.13,50.72,1037.28,20,1194.1,20
			c156.82,0,308.97,30.72,452.22,91.31c138.35,58.52,262.58,142.28,369.27,248.96c106.68,106.68,190.44,230.92,248.96,369.27
			c60.59,143.25,91.31,295.4,91.31,452.22s-30.72,308.97-91.31,452.22c-58.51,138.35-142.28,262.58-248.96,369.27
			c-106.68,106.68-230.92,190.44-369.27,248.96C1503.07,2312.78,1350.92,2343.5,1194.1,2343.5z M1194.1,90.78
			c-147.3,0-290.17,28.84-424.65,85.72c-129.91,54.95-246.59,133.62-346.79,233.82c-100.2,100.2-178.87,216.88-233.82,346.79
			c-56.88,134.48-85.72,277.35-85.72,424.65s28.84,290.17,85.72,424.65c54.95,129.91,133.61,246.59,233.82,346.79
			c100.2,100.2,216.88,178.87,346.79,233.82c134.48,56.88,277.35,85.72,424.65,85.72s290.17-28.84,424.65-85.72
			c129.91-54.95,246.59-133.61,346.79-233.82c100.2-100.21,178.87-216.88,233.82-346.79c56.88-134.48,85.72-277.35,85.72-424.65
			s-28.84-290.17-85.72-424.65c-54.95-129.91-133.61-246.59-233.82-346.79c-100.2-100.2-216.88-178.87-346.79-233.82
			C1484.27,119.62,1341.4,90.78,1194.1,90.78z"/>
	</g>
</g>
<g id="Layer_1">
</g>
</svg>
