<?xml version="1.0" encoding="utf-8"?>
<!-- Generator: Adobe Illustrator 25.2.3, SVG Export Plug-In . SVG Version: 6.00 Build 0)  -->
<svg version="1.1" xmlns="http://www.w3.org/2000/svg" x="0px" y="0px"
     viewBox="0 0 4000 2362.37" style="enable-background:new 0 0 4000 2362.37;" xml:space="preserve">
<style type="text/css">
	.st0{fill:#FFFFFF;}
</style>
<g id="_x2014_ÎÓÈ_x5F_11">
	<g>
		<path class="st0" d="M2801.48,2293.26c-1.96,0-3.94-0.04-5.92-0.11c-41.85-1.56-88.26-20.04-134.23-53.42
			c-105.02-76.26-384.95-298.84-589.34-461.35c-39.52-31.42-75.95-60.39-107.36-85.31c-56.58-44.99-153.7-93.05-256.65-93.05
			h-306.74v-39.05h306.74c113,0,219.21,52.44,280.94,101.52c31.4,24.91,67.84,53.89,107.37,85.32
			c204.11,162.29,483.66,384.56,587.99,460.32c39.68,28.82,78.67,44.72,112.75,45.99c32.25,1.2,59.08-10.47,79.77-34.7
			c17.44-20.42,28.06-48.23,29.15-76.28c0.82-21.29-3.52-51.99-28.92-77.39c-0.28-0.28-0.55-0.55-308.46-321.65l-14.33-14.95
			c-10-10.42-14.36-24.57-11.96-38.81c2.28-13.52,10.3-24.97,22.13-31.71c5.9-4.6,12.6-4.94,18.59-5.24
			c7.49-0.38,21.56-0.6,47.05-0.74c52.3-0.29,156.47-0.24,364-0.15c153.21,0.07,363.03,0.16,650.3,0.16
			c56.17,0,101.87-45.7,101.87-101.87c0-29.59-10.98-56.59-30.91-76.02c-19.07-18.59-44.27-28.82-70.97-28.82h-794.4
			c-24.92,0-45.2-20.28-45.2-45.2s20.28-45.2,45.2-45.2h985.14c56.17,0,101.87-45.7,101.87-101.87c0-29.59-10.98-56.59-30.91-76.02
			c-19.07-18.59-44.27-28.82-70.97-28.82h-985.14c-24.92,0-45.2-20.28-45.2-45.2c0-24.92,20.28-45.2,45.2-45.2h794.4
			c56.17,0,101.87-45.7,101.87-101.87c0-29.59-10.98-56.59-30.91-76.02c-19.07-18.59-44.27-28.82-70.97-28.82h-794.4
			c-24.92,0-45.2-20.28-45.2-45.2c0-24.92,20.28-45.2,45.2-45.2h374.41c56.17,0,101.87-45.7,101.87-101.87
			c0-29.6-10.98-56.59-30.91-76.02c-19.07-18.59-44.27-28.82-70.97-28.82l-1097.62,0.01c-114.82,0-219.76,33.59-330.86,69.14
			c-120.74,38.64-245.59,78.6-394.52,79.39l-0.21-39.05c142.94-0.76,264.89-39.79,382.82-77.54c114.09-36.51,221.84-71,342.76-71
			l1097.62-0.01c36.94,0,71.82,14.17,98.22,39.91c27.53,26.84,42.7,63.77,42.7,103.98c0,77.7-63.22,140.92-140.92,140.92h-374.41
			c-3.39,0-6.15,2.76-6.15,6.15c0,3.39,2.76,6.15,6.15,6.15h794.4c36.94,0,71.82,14.17,98.22,39.91
			c27.53,26.84,42.7,63.77,42.7,103.98c0,77.7-63.22,140.92-140.92,140.92h-794.4c-3.39,0-6.15,2.76-6.15,6.15
			c0,3.39,2.76,6.15,6.15,6.15h985.14c36.94,0,71.82,14.17,98.22,39.91c27.53,26.84,42.7,63.77,42.7,103.98
			c0,77.7-63.22,140.92-140.92,140.92h-985.14c-3.39,0-6.15,2.76-6.15,6.15s2.76,6.15,6.15,6.15h794.4
			c36.94,0,71.82,14.17,98.22,39.91c27.53,26.84,42.7,63.77,42.7,103.98c0,77.7-63.22,140.92-140.92,140.92
			c-287.28,0-497.11-0.09-650.32-0.16c-305.87-0.13-393.15-0.17-410.04,0.87c-2.35,1.24-3.02,3.3-3.21,4.42
			c-0.19,1.14-0.24,3.33,1.63,5.28c0.01,0.01,5.23,5.46,14.34,14.96c248.69,259.34,305.26,318.33,308.03,321.21
			c27.49,27.53,41.78,65.33,40.19,106.37c-1.42,36.66-15.45,73.16-38.48,100.12C2879.34,2276.58,2843.14,2293.26,2801.48,2293.26z
			 M1077.56,1600.02H48.98V664.13h1028.58v39.05H88.03v857.8h989.53V1600.02z"/>
	</g>
	<g>
		<path class="st0" d="M1234.16,1439.8c-82.27,0-159.61-32.04-217.78-90.21c-58.17-58.17-90.21-135.51-90.21-217.78
			s32.04-159.61,90.21-217.78c58.17-58.17,135.52-90.21,217.78-90.21c82.27,0,159.61,32.04,217.78,90.21
			c58.17,58.17,90.21,135.52,90.21,217.78s-32.04,159.61-90.21,217.78C1393.77,1407.77,1316.42,1439.8,1234.16,1439.8z
			 M1234.16,856.36c-151.88,0-275.45,123.57-275.45,275.45c0,151.88,123.57,275.45,275.45,275.45
			c151.89,0,275.45-123.57,275.45-275.45C1509.61,979.93,1386.04,856.36,1234.16,856.36z"/>
	</g>
</g>
<g id="Layer_3">
	<g>
		<g>
			<path class="st0" d="M1080.69,887.52c8.62,0,15.61-6.99,15.61-15.61V663.05c0-7.03,5.72-12.75,12.75-12.75h268.81
				c7.03,0,12.75,5.72,12.75,12.75v211.46c0,8.62,6.99,15.61,15.61,15.61c8.62,0,15.61-6.99,15.61-15.61V663.05
				c0-24.25-19.73-43.97-43.97-43.97h-268.81c-24.25,0-43.97,19.73-43.97,43.97v208.85
				C1065.07,880.53,1072.06,887.52,1080.69,887.52z"/>
			<path class="st0" d="M1406.21,890.77c-8.97,0-16.26-7.3-16.26-16.26V663.05c0-6.67-5.43-12.1-12.09-12.1h-268.81
				c-6.67,0-12.1,5.43-12.1,12.1v208.85c0,8.97-7.3,16.26-16.26,16.26c-8.97,0-16.26-7.3-16.26-16.26V663.05
				c0-24.61,20.02-44.62,44.62-44.62h268.81c24.61,0,44.62,20.02,44.62,44.62v211.46C1422.47,883.48,1415.18,890.77,1406.21,890.77z
				 M1109.05,649.66h268.81c7.39,0,13.4,6.01,13.4,13.4v211.46c0,8.25,6.71,14.96,14.96,14.96s14.96-6.71,14.96-14.96V663.05
				c0-23.89-19.43-43.32-43.32-43.32h-268.81c-23.89,0-43.32,19.43-43.32,43.32v208.85c0,8.25,6.71,14.96,14.96,14.96
				c8.25,0,14.96-6.71,14.96-14.96V663.05C1095.65,655.67,1101.66,649.66,1109.05,649.66z"/>
		</g>
		<g>
			<path class="st0" d="M1406.21,1364.85c-8.62,0-15.61,6.99-15.61,15.61v214.06c0,7.03-5.72,12.75-12.75,12.75h-268.81
				c-7.03,0-12.75-5.72-12.75-12.75v-214.06c0-8.62-6.99-15.61-15.61-15.61s-15.61,6.99-15.61,15.61v214.06
				c0,24.25,19.73,43.97,43.97,43.97h268.81c24.25,0,43.97-19.73,43.97-43.97v-214.06
				C1421.82,1371.84,1414.83,1364.85,1406.21,1364.85z"/>
			<path class="st0" d="M1377.85,1639.15h-268.81c-24.61,0-44.62-20.02-44.62-44.62v-214.06c0-8.97,7.3-16.26,16.26-16.26
				c8.97,0,16.26,7.3,16.26,16.26v214.06c0,6.67,5.43,12.1,12.1,12.1h268.81c6.67,0,12.09-5.43,12.09-12.1v-214.06
				c0-8.97,7.3-16.26,16.26-16.26c8.97,0,16.26,7.3,16.26,16.26v214.06C1422.47,1619.13,1402.46,1639.15,1377.85,1639.15z
				 M1080.69,1365.5c-8.25,0-14.96,6.71-14.96,14.96v214.06c0,23.89,19.43,43.32,43.32,43.32h268.81
				c23.89,0,43.32-19.43,43.32-43.32v-214.06c0-8.25-6.71-14.96-14.96-14.96s-14.96,6.71-14.96,14.96v214.06
				c0,7.39-6.01,13.4-13.4,13.4h-268.81c-7.39,0-13.4-6.01-13.4-13.4v-214.06C1095.65,1372.21,1088.94,1365.5,1080.69,1365.5z"/>
		</g>
		<g>
			<path class="st0" d="M1221.33,1128.74v0.05c0,0.19,0.05,0.36,0.05,0.54c0.03,0.84,0.09,1.68,0.25,2.51
				c0.1,0.51,0.29,0.99,0.44,1.48c0.15,0.48,0.25,0.97,0.45,1.44c0.34,0.81,0.77,1.58,1.23,2.31c0.08,0.13,0.12,0.27,0.21,0.39
				c0,0.01,0.01,0.01,0.01,0.02c0.04,0.06,0.08,0.1,0.12,0.16c0.49,0.71,1.03,1.35,1.61,1.95c0.14,0.14,0.27,0.28,0.41,0.42
				c0.65,0.63,1.33,1.2,2.06,1.7c0.06,0.04,0.12,0.07,0.18,0.11c0.7,0.46,1.44,0.85,2.2,1.19c0.18,0.08,0.35,0.16,0.53,0.24
				c0.81,0.33,1.64,0.59,2.49,0.77c0.19,0.04,0.37,0.07,0.56,0.1c0.93,0.17,1.87,0.28,2.82,0.28c0.93,0,1.87-0.12,2.8-0.29
				c0.26-0.05,0.52-0.11,0.78-0.17c0.67-0.16,1.33-0.36,1.98-0.61c0.25-0.09,0.5-0.17,0.74-0.28c0.81-0.36,1.61-0.77,2.37-1.28
				l0.03-0.02c0.01-0.01,0.02-0.02,0.04-0.02l122.88-82.14c7.17-4.79,9.1-14.49,4.3-21.66c-4.79-7.17-14.49-9.1-21.66-4.3
				l-98.66,65.95V950.7v-12.22v-17.46c0-8.62-6.99-15.61-15.61-15.61c-8.62,0-15.61,6.99-15.61,15.61v17.46v12.22v178.02
				C1221.33,1128.72,1221.33,1128.73,1221.33,1128.74z"/>
			<path class="st0" d="M1236.96,1145.05c-0.89,0-1.85-0.1-2.94-0.29l-0.19-0.03c-0.13-0.02-0.27-0.04-0.4-0.07
				c-0.88-0.19-1.76-0.47-2.6-0.81c-0.14-0.06-0.27-0.12-0.4-0.18l-0.16-0.07c-0.84-0.38-1.59-0.78-2.29-1.24
				c-0.1-0.06-0.15-0.09-0.2-0.12c-0.7-0.47-1.4-1.05-2.14-1.76c-0.15-0.14-0.29-0.29-0.43-0.43c-0.66-0.69-1.2-1.35-1.67-2.02
				l-0.12-0.16c-0.08-0.12-0.13-0.22-0.18-0.32c-0.02-0.04-0.04-0.08-0.06-0.12c-0.56-0.9-0.97-1.66-1.28-2.41
				c-0.14-0.35-0.24-0.7-0.34-1.06l-0.26-0.86c-0.12-0.37-0.24-0.74-0.32-1.12c-0.19-0.95-0.24-1.89-0.27-2.61
				c0-0.06-0.01-0.12-0.02-0.18c-0.02-0.13-0.03-0.25-0.03-0.38V921.02c0-8.97,7.3-16.26,16.26-16.26s16.26,7.3,16.26,16.26v177.34
				l97.65-65.27c3.61-2.41,7.95-3.28,12.21-2.43c4.26,0.85,7.94,3.3,10.35,6.92c2.41,3.61,3.28,7.95,2.43,12.21
				c-0.85,4.26-3.3,7.94-6.91,10.35l-122.88,82.14c-0.79,0.53-1.6,0.97-2.54,1.38c-0.18,0.08-0.36,0.14-0.54,0.21l-0.23,0.09
				c-0.69,0.27-1.39,0.48-2.06,0.64c-0.33,0.08-0.57,0.13-0.81,0.18C1238.78,1144.96,1237.83,1145.05,1236.96,1145.05z
				 M1236.94,906.05c-8.25,0-14.96,6.71-14.96,14.96v207.77c0,0.07,0.01,0.13,0.02,0.19c0.02,0.11,0.03,0.21,0.03,0.33
				c0.02,0.67,0.07,1.55,0.24,2.4c0.07,0.33,0.17,0.65,0.28,0.97l0.28,0.92c0.08,0.31,0.17,0.61,0.29,0.91
				c0.28,0.68,0.66,1.38,1.18,2.22c0.05,0.08,0.09,0.17,0.13,0.25c0.02,0.04,0.04,0.08,0.06,0.12l0.13,0.17
				c0.43,0.62,0.93,1.23,1.54,1.86c0.13,0.14,0.26,0.27,0.39,0.4c0.68,0.66,1.33,1.19,1.97,1.63l0.17,0.1
				c0.64,0.42,1.33,0.8,2.1,1.14l0.17,0.08c0.11,0.05,0.22,0.1,0.34,0.15c0.78,0.31,1.58,0.56,2.39,0.74
				c0.11,0.02,0.22,0.04,0.33,0.06l0.2,0.04c1.99,0.36,3.34,0.37,5.38,0c0.23-0.04,0.44-0.09,0.66-0.14
				c0.7-0.17,1.34-0.36,1.98-0.61l0.25-0.09c0.15-0.05,0.31-0.11,0.45-0.18c0.87-0.39,1.61-0.79,2.27-1.23l122.95-82.18
				c3.32-2.22,5.58-5.6,6.36-9.52c0.78-3.92-0.02-7.91-2.24-11.23c-2.22-3.32-5.6-5.58-9.52-6.36c-3.92-0.78-7.91,0.01-11.23,2.24
				l-99.68,66.62V921.02C1251.9,912.77,1245.19,906.05,1236.94,906.05z"/>
		</g>
		<g>
			<path class="st0" d="M1460.33,1128.79c0-8.62-6.99-15.61-15.61-15.61h-29.68c-8.62,0-15.61,6.99-15.61,15.61
				c0,8.62,6.99,15.61,15.61,15.61h29.68C1453.34,1144.4,1460.33,1137.41,1460.33,1128.79z"/>
			<path class="st0" d="M1444.71,1145.05h-29.68c-8.97,0-16.26-7.3-16.26-16.26c0-8.97,7.3-16.26,16.26-16.26h29.68
				c8.97,0,16.26,7.3,16.26,16.26C1460.98,1137.76,1453.68,1145.05,1444.71,1145.05z M1415.03,1113.83
				c-8.25,0-14.96,6.71-14.96,14.96s6.71,14.96,14.96,14.96h29.68c8.25,0,14.96-6.71,14.96-14.96s-6.71-14.96-14.96-14.96H1415.03z"
				/>
		</g>
		<g>
			<path class="st0" d="M1058.85,1113.18h-29.68c-8.62,0-15.61,6.99-15.61,15.61c0,8.62,6.99,15.61,15.61,15.61h29.68
				c8.62,0,15.61-6.99,15.61-15.61C1074.46,1120.17,1067.47,1113.18,1058.85,1113.18z"/>
			<path class="st0" d="M1058.85,1145.05h-29.68c-8.97,0-16.26-7.3-16.26-16.26c0-8.97,7.3-16.26,16.26-16.26h29.68
				c8.97,0,16.26,7.3,16.26,16.26C1075.11,1137.76,1067.82,1145.05,1058.85,1145.05z M1029.17,1113.83
				c-8.25,0-14.96,6.71-14.96,14.96s6.71,14.96,14.96,14.96h29.68c8.25,0,14.96-6.71,14.96-14.96s-6.71-14.96-14.96-14.96H1029.17z"
				/>
		</g>
		<g>
			<path class="st0" d="M1236.94,1291.27c-8.62,0-15.61,6.99-15.61,15.61v29.68c0,8.62,6.99,15.61,15.61,15.61
				c8.62,0,15.61-6.99,15.61-15.61v-29.68C1252.55,1298.26,1245.56,1291.27,1236.94,1291.27z"/>
			<path class="st0" d="M1236.94,1352.82c-8.97,0-16.26-7.3-16.26-16.26v-29.68c0-8.97,7.3-16.26,16.26-16.26s16.26,7.3,16.26,16.26
				v29.68C1253.21,1345.53,1245.91,1352.82,1236.94,1352.82z M1236.94,1291.92c-8.25,0-14.96,6.71-14.96,14.96v29.68
				c0,8.25,6.71,14.96,14.96,14.96s14.96-6.71,14.96-14.96v-29.68C1251.9,1298.63,1245.19,1291.92,1236.94,1291.92z"/>
		</g>
		<g>
			<path class="st0" d="M1362.87,1018.47c4,0,7.99-1.52,11.04-4.57l20.99-20.99c6.1-6.1,6.1-15.98,0-22.08
				c-6.1-6.1-15.98-6.1-22.08,0l-20.99,20.99c-6.1,6.1-6.1,15.98,0,22.08C1354.88,1016.95,1358.88,1018.47,1362.87,1018.47z"/>
			<path class="st0" d="M1362.87,1019.12c-4.34,0-8.43-1.69-11.5-4.76c-6.34-6.34-6.34-16.66,0-23l20.99-20.99
				c6.34-6.34,16.66-6.34,23,0c3.07,3.07,4.76,7.16,4.76,11.5s-1.69,8.43-4.76,11.5l-20.99,20.99
				C1371.3,1017.43,1367.22,1019.12,1362.87,1019.12z M1383.86,966.92c-3.83,0-7.66,1.46-10.58,4.37l-20.99,20.99
				c-5.83,5.83-5.83,15.33,0,21.16c2.83,2.83,6.59,4.38,10.58,4.38c4,0,7.75-1.56,10.58-4.38l20.99-20.99
				c2.83-2.83,4.38-6.58,4.38-10.58c0-4-1.56-7.75-4.38-10.58C1391.52,968.38,1387.69,966.92,1383.86,966.92z"/>
		</g>
		<g>
			<path class="st0" d="M1099.97,1243.68l-20.99,20.99c-6.1,6.1-6.1,15.98,0,22.08c3.05,3.05,7.04,4.57,11.04,4.57
				c4,0,7.99-1.52,11.04-4.57l20.99-20.99c6.1-6.1,6.1-15.98,0-22.08C1115.95,1237.58,1106.07,1237.58,1099.97,1243.68z"/>
			<path class="st0" d="M1090.02,1291.97c-4.34,0-8.43-1.69-11.5-4.76c-6.34-6.34-6.34-16.66,0-23l20.99-20.99
				c3.07-3.07,7.15-4.77,11.5-4.77c0,0,0,0,0,0c4.34,0,8.43,1.69,11.5,4.76c6.34,6.34,6.34,16.66,0,23l-20.99,20.99
				C1098.45,1290.28,1094.37,1291.97,1090.02,1291.97z M1111.01,1239.75c-4,0-7.75,1.56-10.58,4.38l-20.99,20.99
				c-5.83,5.83-5.83,15.33,0,21.16c2.83,2.83,6.59,4.38,10.58,4.38c4,0,7.75-1.56,10.58-4.38l20.99-20.99
				c5.83-5.83,5.83-15.32,0-21.16C1118.76,1241.31,1115.01,1239.75,1111.01,1239.75z"/>
		</g>
		<g>
			<path class="st0" d="M1101.06,970.83c-6.1-6.1-15.98-6.1-22.08,0c-6.1,6.1-6.1,15.98,0,22.08l20.99,20.99
				c3.05,3.05,7.04,4.57,11.04,4.57c4,0,7.99-1.52,11.04-4.57c6.1-6.1,6.1-15.98,0-22.08L1101.06,970.83z"/>
			<path class="st0" d="M1111.01,1019.12c-4.34,0-8.43-1.69-11.5-4.76l-20.99-20.99c-6.34-6.34-6.34-16.66,0-23
				c6.34-6.34,16.66-6.34,23,0l20.99,20.99c6.34,6.34,6.34,16.66,0,23C1119.44,1017.43,1115.35,1019.12,1111.01,1019.12z
				 M1090.02,966.92c-3.83,0-7.66,1.46-10.58,4.37c-5.83,5.83-5.83,15.33,0,21.16l20.99,20.99c2.83,2.83,6.59,4.38,10.58,4.38
				c4,0,7.75-1.56,10.58-4.38c5.83-5.83,5.83-15.33,0-21.16l-20.99-20.99C1097.69,968.38,1093.86,966.92,1090.02,966.92z"/>
		</g>
		<g>
			<path class="st0" d="M1373.91,1243.68c-6.1-6.1-15.98-6.1-22.08,0c-6.1,6.1-6.1,15.98,0,22.08l20.99,20.99
				c3.05,3.05,7.04,4.57,11.04,4.57c3.99,0,7.99-1.52,11.04-4.57c6.1-6.1,6.1-15.98,0-22.08L1373.91,1243.68z"/>
			<path class="st0" d="M1383.86,1291.97c-4.34,0-8.43-1.69-11.5-4.76l-20.99-20.99c-6.34-6.34-6.34-16.66,0-23
				c6.34-6.34,16.66-6.34,23,0l20.99,20.99c3.07,3.07,4.76,7.16,4.76,11.5c0,4.34-1.69,8.43-4.76,11.5
				C1392.28,1290.28,1388.2,1291.97,1383.86,1291.97z M1362.87,1239.77c-3.83,0-7.66,1.46-10.58,4.37
				c-2.83,2.83-4.38,6.58-4.38,10.58c0,4,1.56,7.75,4.38,10.58l20.99,20.99c2.83,2.83,6.58,4.38,10.58,4.38
				c4,0,7.75-1.56,10.58-4.38c2.83-2.83,4.38-6.58,4.38-10.58c0-4-1.56-7.75-4.38-10.58l-20.99-20.99
				C1370.54,1241.22,1366.7,1239.77,1362.87,1239.77z"/>
		</g>
	</g>
</g>
<g id="Layer_1">
	<g>
		<path class="st0" d="M1628.76,2112.61H816.31c-113.77,0-206.32-92.56-206.32-206.32V270.17c0-113.77,92.56-206.32,206.32-206.32
			h812.45c113.77,0,206.32,92.56,206.32,206.32v1636.11C1835.08,2020.05,1742.53,2112.61,1628.76,2112.61z M816.31,102.89
			c-92.24,0-167.28,75.04-167.28,167.28v1636.11c0,92.24,75.04,167.28,167.28,167.28h812.45c92.24,0,167.28-75.04,167.28-167.28
			V270.17c0-92.24-75.04-167.28-167.28-167.28H816.31z"/>
	</g>
	<g>
		<path class="st0" d="M1428.39,308.46h-415.61c-52,0-94.3-42.3-94.3-94.3v-12.6c0-10.78,8.74-19.52,19.52-19.52
			c10.78,0,19.52,8.74,19.52,19.52v12.6c0,30.47,24.79,55.25,55.25,55.25h415.61c30.47,0,55.25-24.79,55.25-55.25v-12.6
			c0-10.78,8.74-19.52,19.52-19.52s19.52,8.74,19.52,19.52v12.6C1522.69,266.16,1480.38,308.46,1428.39,308.46z"/>
	</g>
</g>
</svg>
