<?xml version="1.0" encoding="utf-8"?>
<!-- Generator: Adobe Illustrator 25.2.3, SVG Export Plug-In . SVG Version: 6.00 Build 0)  -->
<svg version="1.1" id="Calque_1" xmlns="http://www.w3.org/2000/svg" x="0px" y="0px"
     viewBox="0 0 595.28 595.28" style="enable-background:new 0 0 595.28 595.28;" xml:space="preserve">
<style type="text/css">
	.st0{fill:#FFFFFF;}
	.st1{opacity:0.0833;fill:#FFFFFF;}
	.st2{opacity:0.1667;fill:#FFFFFF;}
	.st3{opacity:0.25;fill:#FFFFFF;}
	.st4{opacity:0.3333;fill:#FFFFFF;}
	.st5{opacity:0.4167;fill:#FFFFFF;}
	.st6{opacity:0.5;fill:#FFFFFF;}
	.st7{opacity:0.5833;fill:#FFFFFF;}
	.st8{opacity:0.6667;fill:#FFFFFF;}
	.st9{opacity:0.75;fill:#FFFFFF;}
	.st10{opacity:0.8333;fill:#FFFFFF;}
	.st11{opacity:0.9167;fill:#FFFFFF;}
</style>
<g>
	<path class="st0" d="M297.82,147.58L297.82,147.58c14.52,0.01,26.3-11.76,26.31-26.28l0.05-92.16
		c0.01-14.52-11.76-26.3-26.28-26.31h0c-14.52-0.01-26.3,11.76-26.31,26.28l-0.05,92.16C271.53,135.79,283.3,147.57,297.82,147.58z"
		/>
	<path class="st1" d="M372.79,167.72L372.79,167.72c12.57,7.27,28.65,2.97,35.92-9.6l46.13-79.79c7.27-12.57,2.97-28.65-9.6-35.92h0
		c-12.57-7.27-28.65-2.97-35.92,9.6l-46.13,79.79C355.92,144.37,360.22,160.45,372.79,167.72z"/>
	<path class="st2" d="M427.66,222.64L427.66,222.64c7.25,12.58,23.33,16.9,35.91,9.64l79.84-46.03c12.58-7.25,16.9-23.33,9.64-35.91
		l0,0c-7.25-12.58-23.33-16.9-35.91-9.64l-79.84,46.03C424.72,193.99,420.4,210.06,427.66,222.64z"/>
	<path class="st3" d="M447.71,297.64L447.71,297.64c-0.01,14.52,11.76,26.3,26.28,26.31l92.16,0.05
		c14.52,0.01,26.3-11.76,26.31-26.28l0,0c0.01-14.52-11.76-26.3-26.28-26.31l-92.16-0.05C459.49,271.36,447.72,283.12,447.71,297.64
		z"/>
	<path class="st4" d="M427.57,372.62L427.57,372.62c-7.27,12.57-2.97,28.65,9.6,35.92l79.79,46.13c12.57,7.27,28.65,2.97,35.92-9.6
		l0,0c7.27-12.57,2.97-28.65-9.6-35.92l-79.79-46.13C450.92,355.75,434.84,360.05,427.57,372.62z"/>
	<path class="st5" d="M372.64,427.48L372.64,427.48c-12.58,7.25-16.9,23.33-9.64,35.91l46.03,79.84
		c7.25,12.58,23.33,16.9,35.91,9.64h0c12.58-7.25,16.9-23.33,9.64-35.91l-46.03-79.84C401.3,424.55,385.22,420.23,372.64,427.48z"/>
	<path class="st6" d="M297.64,447.53L297.64,447.53c-14.52-0.01-26.3,11.76-26.31,26.28l-0.05,92.16
		c-0.01,14.52,11.76,26.3,26.28,26.31h0c14.52,0.01,26.3-11.76,26.31-26.28l0.05-92.16C323.93,459.32,312.16,447.54,297.64,447.53z"
		/>
	<path class="st7" d="M222.67,427.4L222.67,427.4c-12.57-7.27-28.65-2.97-35.92,9.6l-46.13,79.79c-7.27,12.57-2.97,28.65,9.6,35.92
		h0c12.57,7.27,28.65,2.97,35.92-9.6l46.13-79.79C239.54,450.75,235.24,434.66,222.67,427.4z"/>
	<path class="st8" d="M167.8,372.47L167.8,372.47c-7.25-12.58-23.33-16.9-35.91-9.64l-79.84,46.03
		c-12.58,7.25-16.9,23.33-9.64,35.91v0c7.25,12.58,23.33,16.9,35.91,9.64l79.84-46.03C170.74,401.13,175.06,385.05,167.8,372.47z"/>
	<path class="st9" d="M147.75,297.47L147.75,297.47c0.01-14.52-11.76-26.3-26.28-26.31l-92.16-0.05
		c-14.52-0.01-26.3,11.76-26.31,26.28l0,0c-0.01,14.52,11.76,26.3,26.28,26.31l92.16,0.05
		C135.97,323.75,147.75,311.99,147.75,297.47z"/>
	<path class="st10" d="M167.89,222.49L167.89,222.49c7.27-12.57,2.97-28.65-9.6-35.92L78.5,140.44c-12.57-7.27-28.65-2.97-35.92,9.6
		l0,0c-7.27,12.57-2.97,28.65,9.6,35.92l79.79,46.13C144.54,239.36,160.62,235.06,167.89,222.49z"/>
	<path class="st11" d="M222.82,167.63L222.82,167.63c12.58-7.25,16.9-23.33,9.64-35.91l-46.03-79.84
		c-7.25-12.58-23.33-16.9-35.91-9.64l0,0c-12.58,7.25-16.9,23.33-9.64,35.91l46.03,79.84C194.16,170.56,210.24,174.88,222.82,167.63
		z"/>
</g>
</svg>
