<?xml version="1.0" encoding="utf-8"?>
<!-- Generator: Adobe Illustrator 24.2.0, SVG Export Plug-In . SVG Version: 6.00 Build 0)  -->
<svg version="1.1" xmlns="http://www.w3.org/2000/svg" x="0px" y="0px"
     viewBox="0 0 1000 1000" enable-background="new 0 0 1000 1000" xml:space="preserve">
<g id="Layer_1">
</g>
<g id="Layer_2">
	<path fill="#FFFFFF" stroke="#FFFFFF" stroke-width="7" stroke-miterlimit="10" d="M166.601,658.448l321.45,214.314
		c4.5,2.982,10.359,2.982,14.86,0l321.45-214.314c3.714-2.485,5.964-6.67,5.964-11.144v-321.45c0-4.474-2.25-8.659-5.964-11.144
		l-321.45-214.3c-4.5-2.983-10.359-2.983-14.86,0l-321.45,214.3c-3.714,2.485-5.964,6.67-5.964,11.144v321.45
		C160.637,651.778,162.887,655.963,166.601,658.448z M803.538,640.137L508.875,836.599V547.321L803.538,350.88V640.137z
		 M495.481,127.642l297.305,198.212L495.481,524.066L198.176,325.854L495.481,127.642z M187.425,350.88l294.663,196.442v289.277
		L187.425,640.137V350.88z"/>
	<path fill="#FFFFFF" stroke="#FFFFFF" stroke-width="7" stroke-miterlimit="10" d="M37.784,186.536
		c6.302,0,11.442-5.118,11.442-11.442V60.669c0-6.303,5.14-11.442,11.442-11.442h114.424c6.302,0,11.442-5.118,11.442-11.442
		c0-6.325-5.14-11.442-11.442-11.442H60.669c-18.907,0-34.327,15.398-34.327,34.327v114.424
		C26.342,181.418,31.482,186.536,37.784,186.536z"/>
	<path fill="#FFFFFF" stroke="#FFFFFF" stroke-width="7" stroke-miterlimit="10" d="M815.869,49.227h114.424
		c6.302,0,11.443,5.14,11.443,11.442v114.424c0,6.324,5.14,11.442,11.442,11.442c6.302,0,11.443-5.118,11.443-11.442V60.669
		c0-18.929-15.421-34.327-34.327-34.327H815.869c-6.303,0-11.443,5.118-11.443,11.442C804.427,44.109,809.566,49.227,815.869,49.227
		z"/>
	<path fill="#FFFFFF" stroke="#FFFFFF" stroke-width="7" stroke-miterlimit="10" d="M60.669,964.621h114.424
		c6.302,0,11.442-5.118,11.442-11.442c0-6.324-5.14-11.442-11.442-11.442H60.669c-6.303,0-11.442-5.14-11.442-11.443V815.869
		c0-6.324-5.14-11.443-11.442-11.443c-6.303,0-11.442,5.118-11.442,11.443v114.424C26.342,949.223,41.763,964.621,60.669,964.621z"
		/>
	<path fill="#FFFFFF" stroke="#FFFFFF" stroke-width="7" stroke-miterlimit="10" d="M815.869,964.621h114.424
		c18.906,0,34.327-15.398,34.327-34.327V815.869c0-6.324-5.14-11.443-11.443-11.443c-6.303,0-11.442,5.118-11.442,11.443v114.424
		c0,6.303-5.14,11.443-11.443,11.443H815.869c-6.303,0-11.443,5.118-11.443,11.442C804.427,959.503,809.566,964.621,815.869,964.621
		z"/>
</g>
</svg>
