<svg xmlns="http://www.w3.org/2000/svg" width="35" height="35" viewBox="0 0 60 60">
  <g id="Galileo-logo" transform="translate(2251.292 993.451)">
    <g id="Raggruppa_222" data-name="Raggruppa 222" transform="translate(-2248.594 -992.951)">
      <path id="Tracciato_97" data-name="Tracciato 97" d="M-2168.64-934.819a10.172,10.172,0,0,0-3.629-3.668,10.081,10.081,0,0,0-5.126-1.4,10.082,10.082,0,0,0-5.126,1.4,10.169,10.169,0,0,0-3.629,3.668l-.866-.5a11.172,11.172,0,0,1,3.986-4.029,11.083,11.083,0,0,1,5.635-1.536,11.082,11.082,0,0,1,5.635,1.536,11.175,11.175,0,0,1,3.986,4.029Z" transform="translate(2202.928 955.854)" fill="#fff"/>
      <path id="Tracciato_98" data-name="Tracciato 98" d="M-2177.395-880.563a11.083,11.083,0,0,1-5.635-1.536,11.172,11.172,0,0,1-3.986-4.029l.866-.5a10.17,10.17,0,0,0,3.629,3.668,10.081,10.081,0,0,0,5.126,1.4,10.081,10.081,0,0,0,5.126-1.4,10.172,10.172,0,0,0,3.629-3.668l.866.5a11.175,11.175,0,0,1-3.986,4.029A11.082,11.082,0,0,1-2177.395-880.563Z" transform="translate(2202.928 917.741)" fill="#fff"/>
      <path id="Tracciato_99" data-name="Tracciato 99" d="M-2180.383-953.463a17.75,17.75,0,0,0-2.466-5.079,17.9,17.9,0,0,0-3.878-4.018,17.668,17.668,0,0,0-10.732-3.592,17.668,17.668,0,0,0-10.731,3.592,17.9,17.9,0,0,0-3.878,4.018,17.75,17.75,0,0,0-2.466,5.079l-.958-.288a18.742,18.742,0,0,1,2.6-5.365,18.9,18.9,0,0,1,4.094-4.243,18.66,18.66,0,0,1,11.334-3.794,18.66,18.66,0,0,1,11.334,3.794,18.9,18.9,0,0,1,4.094,4.243,18.742,18.742,0,0,1,2.6,5.365Z" transform="translate(2222.991 974.391)" fill="#fff"/>
      <path id="Tracciato_100" data-name="Tracciato 100" d="M-2197.458-872.833a18.659,18.659,0,0,1-11.334-3.794,18.9,18.9,0,0,1-4.094-4.243,18.743,18.743,0,0,1-2.6-5.365l.958-.288a17.752,17.752,0,0,0,2.466,5.079,17.907,17.907,0,0,0,3.878,4.019,17.667,17.667,0,0,0,10.731,3.592,17.668,17.668,0,0,0,10.732-3.592,17.907,17.907,0,0,0,3.878-4.019,17.752,17.752,0,0,0,2.466-5.079l.958.288a18.743,18.743,0,0,1-2.6,5.365,18.9,18.9,0,0,1-4.094,4.243A18.66,18.66,0,0,1-2197.458-872.833Z" transform="translate(2222.991 917.741)" fill="#fff"/>
      <path id="Tracciato_101" data-name="Tracciato 101" d="M-2216.591-865.094a26.483,26.483,0,0,1-9.127-1.61,26.471,26.471,0,0,1-7.76-4.448,26.629,26.629,0,0,1-5.822-6.714,26.364,26.364,0,0,1-3.313-8.412l.979-.2a25.645,25.645,0,0,0,8.792,14.556,25.473,25.473,0,0,0,7.468,4.28,25.486,25.486,0,0,0,8.784,1.549,25.485,25.485,0,0,0,8.784-1.549,25.473,25.473,0,0,0,7.468-4.28,25.644,25.644,0,0,0,8.792-14.556l.979.2a26.359,26.359,0,0,1-3.313,8.412,26.629,26.629,0,0,1-5.822,6.714,26.468,26.468,0,0,1-7.76,4.448A26.482,26.482,0,0,1-2216.591-865.094Z" transform="translate(2242.124 917.741)" fill="#fff"/>
      <path id="Tracciato_102" data-name="Tracciato 102" d="M-2241.634-972.066l-.979-.2a26.364,26.364,0,0,1,3.313-8.412,26.629,26.629,0,0,1,5.822-6.714,26.471,26.471,0,0,1,7.76-4.448,26.483,26.483,0,0,1,9.127-1.61,26.482,26.482,0,0,1,9.127,1.61,26.468,26.468,0,0,1,7.76,4.448,26.629,26.629,0,0,1,5.822,6.714,26.359,26.359,0,0,1,3.313,8.412l-.979.2a25.644,25.644,0,0,0-8.792-14.556,25.473,25.473,0,0,0-7.468-4.28,25.485,25.485,0,0,0-8.784-1.549,25.486,25.486,0,0,0-8.784,1.549,25.474,25.474,0,0,0-7.468,4.28A25.646,25.646,0,0,0-2241.634-972.066Z" transform="translate(2242.124 992.951)" fill="#fff"/>
      <path id="Tracciato_103" data-name="Tracciato 103" transform="translate(2202.928 917.741)" fill="#fff"/>
      <path id="Tracciato_104" data-name="Tracciato 104" transform="translate(2158.86 917.741)" fill="#fff"/>
      <path id="Tracciato_105" data-name="Tracciato 105" transform="translate(2138.798 917.741)" fill="#fff"/>
      <path id="Tracciato_106" data-name="Tracciato 106" transform="translate(2158.86 917.741)" fill="#fff"/>
      <path id="Tracciato_107" data-name="Tracciato 107" transform="translate(2202.928 917.741)" fill="#fff"/>
      <path id="Tracciato_108" data-name="Tracciato 108" transform="translate(2222.991 917.741)" fill="#fff"/>
      <path id="Tracciato_109" data-name="Tracciato 109" transform="translate(2202.928 943.109)" fill="#fff"/>
      <path id="Tracciato_110" data-name="Tracciato 110" transform="translate(2158.86 943.109)" fill="#fff"/>
      <path id="Tracciato_111" data-name="Tracciato 111" transform="translate(2222.991 943.109)" fill="#fff"/>
      <path id="Tracciato_112" data-name="Tracciato 112" transform="translate(2202.928 943.109)" fill="#fff"/>
      <path id="Tracciato_113" data-name="Tracciato 113" transform="translate(2138.798 943.109)" fill="#fff"/>
      <path id="Tracciato_114" data-name="Tracciato 114" transform="translate(2158.86 943.109)" fill="#fff"/>
      <path id="Tracciato_115" data-name="Tracciato 115" transform="translate(2119.664 917.741)" fill="#fff"/>
      <path id="Tracciato_116" data-name="Tracciato 116" transform="translate(2138.798 917.741)" fill="#fff"/>
      <path id="Tracciato_117" data-name="Tracciato 117" transform="translate(2242.124 917.741)" fill="#fff"/>
      <path id="Tracciato_118" data-name="Tracciato 118" transform="translate(2222.991 917.741)" fill="#fff"/>
      <path id="Tracciato_119" data-name="Tracciato 119" transform="translate(2242.124 943.109)" fill="#fff"/>
      <path id="Tracciato_120" data-name="Tracciato 120" transform="translate(2222.991 943.109)" fill="#fff"/>
      <path id="Tracciato_121" data-name="Tracciato 121" transform="translate(2119.664 943.109)" fill="#fff"/>
      <path id="Tracciato_122" data-name="Tracciato 122" transform="translate(2138.798 943.109)" fill="#fff"/>
    </g>
    <g id="Raggruppa_224" data-name="Raggruppa 224" transform="translate(-2251.292 -968.986)">
      <path id="Tracciato_145" data-name="Tracciato 145" d="M-2247.363-910.762l-.544.532a1.616,1.616,0,0,0-1.2-.541,1.384,1.384,0,0,0-1,.393,1.281,1.281,0,0,0-.4.955,1.316,1.316,0,0,0,.42.986,1.436,1.436,0,0,0,1.036.4,1.281,1.281,0,0,0,.675-.167,1.171,1.171,0,0,0,.443-.521h-1.175v-.718h2.042l.005.169a1.952,1.952,0,0,1-.276,1,1.92,1.92,0,0,1-.715.721,2.056,2.056,0,0,1-1.03.249,2.306,2.306,0,0,1-1.127-.272,2,2,0,0,1-.784-.774,2.146,2.146,0,0,1-.288-1.084,2,2,0,0,1,.532-1.387,2.109,2.109,0,0,1,1.645-.7,2.536,2.536,0,0,1,.99.194A2.273,2.273,0,0,1-2247.363-910.762Z" transform="translate(2251.292 911.518)" fill="#fff"/>
      <path id="Tracciato_146" data-name="Tracciato 146" d="M-2220.091-911.174h.784l1.561,4.016h-.8l-.318-.827h-1.656l-.33.827h-.8Zm.4,1.064-.545,1.379h1.086Z" transform="translate(2230.378 911.275)" fill="#fff"/>
      <path id="Tracciato_147" data-name="Tracciato 147" d="M-2188.809-911.174h.773v3.287h1.125v.729h-1.9Z" transform="translate(2207.197 911.275)" fill="#fff"/>
      <path id="Tracciato_148" data-name="Tracciato 148" d="M-2156.665-911.174h.767v4.016h-.767Z" transform="translate(2184.513 911.275)" fill="#fff"/>
      <path id="Tracciato_149" data-name="Tracciato 149" d="M-2125.768-911.174h.773v3.287h1.125v.729h-1.9Z" transform="translate(2162.708 911.275)" fill="#fff"/>
      <path id="Tracciato_150" data-name="Tracciato 150" d="M-2097.607-911.174h2.216v.748h-1.448v.727h1.448v.734h-1.448v1.057h1.448v.75h-2.216Z" transform="translate(2142.834 911.275)" fill="#fff"/>
      <path id="Tracciato_151" data-name="Tracciato 151" d="M-2072.357-911.518a2.026,2.026,0,0,1,1.481.617,2.042,2.042,0,0,1,.62,1.5,2.018,2.018,0,0,1-.611,1.488,2.026,2.026,0,0,1-1.484.609,2.025,2.025,0,0,1-1.519-.625,2.065,2.065,0,0,1-.6-1.485,2.067,2.067,0,0,1,.282-1.059,2.076,2.076,0,0,1,.774-.766A2.1,2.1,0,0,1-2072.357-911.518Zm-.008.748a1.281,1.281,0,0,0-.947.387,1.342,1.342,0,0,0-.384.986,1.277,1.277,0,0,0,.484,1.053,1.33,1.33,0,0,0,.862.3,1.264,1.264,0,0,0,.936-.393,1.327,1.327,0,0,0,.387-.969,1.334,1.334,0,0,0-.389-.971A1.277,1.277,0,0,0-2072.366-910.77Z" transform="translate(2126.51 911.518)" fill="#fff"/>
    </g>
  </g>
</svg>
