<svg xmlns="http://www.w3.org/2000/svg" width="75" height="100" viewBox="0 0 100 150">
  <g id="Galileo-logo-type" transform="translate(1833.064 993.451)">
    <g id="Raggruppa_896" data-name="Raggruppa 896" transform="translate(-1799.434 -965.949)">
      <path id="Tracciato_4496" data-name="Tracciato 4496" d="M-1736.132-931.04a18.622,18.622,0,0,0-16.094-9.316,18.677,18.677,0,0,0-16.113,9.316l-.449-.264a19.158,19.158,0,0,1,16.563-9.58,19.15,19.15,0,0,1,16.543,9.58Z" transform="translate(1768.788 940.884)" fill="#fff"/>
    </g>
    <g id="Raggruppa_897" data-name="Raggruppa 897" transform="translate(-1799.434 -937.567)">
      <path id="Tracciato_4497" data-name="Tracciato 4497" d="M-1752.226-876.785a19.158,19.158,0,0,1-16.562-9.58l.449-.264a18.656,18.656,0,0,0,16.113,9.316,18.6,18.6,0,0,0,16.094-9.316l.449.264A19.15,19.15,0,0,1-1752.226-876.785Z" transform="translate(1768.788 886.628)" fill="#fff"/>
    </g>
    <g id="Raggruppa_898" data-name="Raggruppa 898" transform="translate(-1814.338 -979.694)">
      <path id="Tracciato_4498" data-name="Tracciato 4498" d="M-1796.757-943.626l-.508-.146a33.054,33.054,0,0,1,31.465-23.379,33.03,33.03,0,0,1,31.445,23.379l-.488.146a32.548,32.548,0,0,0-30.957-23A32.511,32.511,0,0,0-1796.757-943.626Z" transform="translate(1797.265 967.151)" fill="#fff"/>
    </g>
    <g id="Raggruppa_899" data-name="Raggruppa 899" transform="translate(-1814.338 -937.512)">
      <path id="Tracciato_4499" data-name="Tracciato 4499" d="M-1765.8-863a33.057,33.057,0,0,1-31.465-23.369l.508-.156a32.52,32.52,0,0,0,30.957,23.008,32.556,32.556,0,0,0,30.957-23.008l.488.156A33.033,33.033,0,0,1-1765.8-863Z" transform="translate(1797.265 886.522)" fill="#fff"/>
    </g>
    <g id="Raggruppa_900" data-name="Raggruppa 900" transform="translate(-1799.214 -937.439)">
      <path id="Tracciato_4500" data-name="Tracciato 4500" d="M-1768.355-886.378" transform="translate(1768.355 886.378)" fill="#a6856a"/>
      <path id="Tracciato_4500_-_Contorno" data-name="Tracciato 4500 - Contorno" transform="translate(1768.355 886.378)" fill="#fff"/>
    </g>
    <g id="Raggruppa_901" data-name="Raggruppa 901" transform="translate(-1766.548 -937.439)">
      <path id="Tracciato_4501" data-name="Tracciato 4501" d="M-1705.912-886.378" transform="translate(1705.912 886.378)" fill="#fff"/>
      <path id="Tracciato_4501_-_Contorno" data-name="Tracciato 4501 - Contorno" transform="translate(1705.912 886.378)" fill="#fff"/>
    </g>
    <g id="Raggruppa_902" data-name="Raggruppa 902" transform="translate(-1751.667 -937.439)">
      <path id="Tracciato_4502" data-name="Tracciato 4502" d="M-1677.482-886.378" transform="translate(1677.482 886.378)" fill="#a6856a"/>
      <path id="Tracciato_4502_-_Contorno" data-name="Tracciato 4502 - Contorno" transform="translate(1677.482 886.378)" fill="#fff"/>
    </g>
    <g id="Raggruppa_903" data-name="Raggruppa 903" transform="translate(-1766.548 -937.439)">
      <path id="Tracciato_4503" data-name="Tracciato 4503" d="M-1705.912-886.378" transform="translate(1705.912 886.378)" fill="#fff"/>
      <path id="Tracciato_4503_-_Contorno" data-name="Tracciato 4503 - Contorno" transform="translate(1705.912 886.378)" fill="#fff"/>
    </g>
    <g id="Raggruppa_904" data-name="Raggruppa 904" transform="translate(-1799.214 -937.439)">
      <path id="Tracciato_4504" data-name="Tracciato 4504" d="M-1768.355-886.378" transform="translate(1768.355 886.378)" fill="#a6856a"/>
      <path id="Tracciato_4504_-_Contorno" data-name="Tracciato 4504 - Contorno" transform="translate(1768.355 886.378)" fill="#fff"/>
    </g>
    <g id="Raggruppa_905" data-name="Raggruppa 905" transform="translate(-1814.082 -937.439)">
      <path id="Tracciato_4505" data-name="Tracciato 4505" d="M-1796.785-886.378" transform="translate(1796.785 886.378)" fill="#a6856a"/>
      <path id="Tracciato_4505_-_Contorno" data-name="Tracciato 4505 - Contorno" transform="translate(1796.785 886.378)" fill="#fff"/>
    </g>
    <g id="Raggruppa_906" data-name="Raggruppa 906" transform="translate(-1799.214 -956.244)">
      <path id="Tracciato_4506" data-name="Tracciato 4506" d="M-1768.355-922.324" transform="translate(1768.355 922.324)" fill="#a6856a"/>
      <path id="Tracciato_4506_-_Contorno" data-name="Tracciato 4506 - Contorno" transform="translate(1768.355 922.324)" fill="#fff"/>
    </g>
    <g id="Raggruppa_907" data-name="Raggruppa 907" transform="translate(-1766.548 -956.244)">
      <path id="Tracciato_4507" data-name="Tracciato 4507" d="M-1705.912-922.324" transform="translate(1705.912 922.324)" fill="#fff"/>
      <path id="Tracciato_4507_-_Contorno" data-name="Tracciato 4507 - Contorno" transform="translate(1705.912 922.324)" fill="#fff"/>
    </g>
    <g id="Raggruppa_908" data-name="Raggruppa 908" transform="translate(-1814.082 -956.244)">
      <path id="Tracciato_4508" data-name="Tracciato 4508" d="M-1796.785-922.324" transform="translate(1796.785 922.324)" fill="#a6856a"/>
      <path id="Tracciato_4508_-_Contorno" data-name="Tracciato 4508 - Contorno" transform="translate(1796.785 922.324)" fill="#fff"/>
    </g>
    <g id="Raggruppa_909" data-name="Raggruppa 909" transform="translate(-1799.214 -956.244)">
      <path id="Tracciato_4509" data-name="Tracciato 4509" d="M-1768.355-922.324" transform="translate(1768.355 922.324)" fill="#a6856a"/>
      <path id="Tracciato_4509_-_Contorno" data-name="Tracciato 4509 - Contorno" transform="translate(1768.355 922.324)" fill="#fff"/>
    </g>
    <g id="Raggruppa_910" data-name="Raggruppa 910" transform="translate(-1751.667 -956.244)">
      <path id="Tracciato_4510" data-name="Tracciato 4510" d="M-1677.482-922.324" transform="translate(1677.482 922.324)" fill="#a6856a"/>
      <path id="Tracciato_4510_-_Contorno" data-name="Tracciato 4510 - Contorno" transform="translate(1677.482 922.324)" fill="#fff"/>
    </g>
    <g id="Raggruppa_911" data-name="Raggruppa 911" transform="translate(-1766.548 -956.244)">
      <path id="Tracciato_4511" data-name="Tracciato 4511" d="M-1705.912-922.324" transform="translate(1705.912 922.324)" fill="#fff"/>
      <path id="Tracciato_4511_-_Contorno" data-name="Tracciato 4511 - Contorno" transform="translate(1705.912 922.324)" fill="#fff"/>
    </g>
    <g id="Raggruppa_912" data-name="Raggruppa 912" transform="translate(-1737.495 -937.439)">
      <path id="Tracciato_4512" data-name="Tracciato 4512" d="M-1650.371-886.378" transform="translate(1650.371 886.378)" fill="#a6856a"/>
      <path id="Tracciato_4512_-_Contorno" data-name="Tracciato 4512 - Contorno" transform="translate(1650.371 886.378)" fill="#fff"/>
    </g>
    <g id="Raggruppa_913" data-name="Raggruppa 913" transform="translate(-1751.667 -937.439)">
      <path id="Tracciato_4513" data-name="Tracciato 4513" d="M-1677.482-886.378" transform="translate(1677.482 886.378)" fill="#a6856a"/>
      <path id="Tracciato_4513_-_Contorno" data-name="Tracciato 4513 - Contorno" transform="translate(1677.482 886.378)" fill="#fff"/>
    </g>
    <g id="Raggruppa_914" data-name="Raggruppa 914" transform="translate(-1814.082 -937.439)">
      <path id="Tracciato_4514" data-name="Tracciato 4514" d="M-1796.785-886.378" transform="translate(1796.785 886.378)" fill="#a6856a"/>
      <path id="Tracciato_4514_-_Contorno" data-name="Tracciato 4514 - Contorno" transform="translate(1796.785 886.378)" fill="#fff"/>
    </g>
    <g id="Raggruppa_915" data-name="Raggruppa 915" transform="translate(-1814.082 -956.244)">
      <path id="Tracciato_4515" data-name="Tracciato 4515" d="M-1796.785-922.324" transform="translate(1796.785 922.324)" fill="#a6856a"/>
      <path id="Tracciato_4515_-_Contorno" data-name="Tracciato 4515 - Contorno" transform="translate(1796.785 922.324)" fill="#fff"/>
    </g>
    <g id="Raggruppa_916" data-name="Raggruppa 916" transform="translate(-1737.495 -956.244)">
      <path id="Tracciato_4516" data-name="Tracciato 4516" d="M-1650.371-922.324" transform="translate(1650.371 922.324)" fill="#a6856a"/>
      <path id="Tracciato_4516_-_Contorno" data-name="Tracciato 4516 - Contorno" transform="translate(1650.371 922.324)" fill="#fff"/>
    </g>
    <g id="Raggruppa_917" data-name="Raggruppa 917" transform="translate(-1751.667 -956.244)">
      <path id="Tracciato_4517" data-name="Tracciato 4517" d="M-1677.482-922.324" transform="translate(1677.482 922.324)" fill="#a6856a"/>
      <path id="Tracciato_4517_-_Contorno" data-name="Tracciato 4517 - Contorno" transform="translate(1677.482 922.324)" fill="#fff"/>
    </g>
    <g id="Raggruppa_918" data-name="Raggruppa 918" transform="translate(-1831.648 -888.385)">
      <path id="Tracciato_4518" data-name="Tracciato 4518" d="M-1830.363-786.7l.84-5.908h.1l2.324,4.844,2.324-4.844h.1l.82,5.908h-.566l-.566-4.229-2.031,4.229h-.156l-2.051-4.258-.566,4.258Z" transform="translate(1830.363 792.61)" fill="#fff"/>
    </g>
    <g id="Raggruppa_919" data-name="Raggruppa 919" transform="translate(-1820.637 -888.385)">
      <path id="Tracciato_4519" data-name="Tracciato 4519" d="M-1809.318-792.61h.566v3.569a5.334,5.334,0,0,0,.039.786,1.1,1.1,0,0,0,.2.586,1.118,1.118,0,0,0,.469.391,1.565,1.565,0,0,0,.664.156,1.239,1.239,0,0,0,.547-.117,1.1,1.1,0,0,0,.43-.352,1.209,1.209,0,0,0,.254-.527,3.451,3.451,0,0,0,.059-.923v-3.569h.586v3.569a4.5,4.5,0,0,1-.156,1.274,1.745,1.745,0,0,1-.586.85,1.734,1.734,0,0,1-1.094.361,2.134,2.134,0,0,1-1.211-.342,1.655,1.655,0,0,1-.664-.908,5.572,5.572,0,0,1-.1-1.235Z" transform="translate(1809.318 792.61)" fill="#fff"/>
    </g>
    <g id="Raggruppa_920" data-name="Raggruppa 920" transform="translate(-1812.056 -888.385)">
      <path id="Tracciato_4520" data-name="Tracciato 4520" d="M-1792.9-792.61h.566v5.337h2.227v.571h-2.793Z" transform="translate(1792.897 792.61)" fill="#fff"/>
    </g>
    <g id="Raggruppa_921" data-name="Raggruppa 921" transform="translate(-1805.928 -888.385)">
      <path id="Tracciato_4521" data-name="Tracciato 4521" d="M-1781.186-792.034v-.576h3.145v.576h-1.289v5.332h-.586v-5.332Z" transform="translate(1781.186 792.61)" fill="#fff"/>
    </g>
    <g id="Raggruppa_922" data-name="Raggruppa 922" transform="translate(-1798.665 -888.385)">
      <path id="Tracciato_4522" data-name="Tracciato 4522" d="M-1767.3-792.61h.586v5.908h-.586Z" transform="translate(1767.298 792.61)" fill="#fff"/>
    </g>
    <g id="Raggruppa_923" data-name="Raggruppa 923" transform="translate(-1793.672 -888.531)">
      <path id="Tracciato_4523" data-name="Tracciato 4523" d="M-1752.11-791.65l-.469.356a2.57,2.57,0,0,0-.9-.762,2.5,2.5,0,0,0-1.152-.259,2.477,2.477,0,0,0-1.27.342,2.447,2.447,0,0,0-.918.908,2.585,2.585,0,0,0-.312,1.289,2.436,2.436,0,0,0,.723,1.807,2.45,2.45,0,0,0,1.816.718,2.532,2.532,0,0,0,2.012-.967l.469.352a3.245,3.245,0,0,1-1.094.869,3.186,3.186,0,0,1-1.426.3,2.973,2.973,0,0,1-2.383-1.03,3.17,3.17,0,0,1-.742-2.1,2.924,2.924,0,0,1,.9-2.187,3,3,0,0,1,2.227-.884,3.206,3.206,0,0,1,1.445.322A3.047,3.047,0,0,1-1752.11-791.65Z" transform="translate(1757.755 792.895)" fill="#fff"/>
    </g>
    <g id="Raggruppa_924" data-name="Raggruppa 924" transform="translate(-1783.772 -888.531)">
      <path id="Tracciato_4524" data-name="Tracciato 4524" d="M-1735.842-792.9a2.95,2.95,0,0,1,2.188.9,3.008,3.008,0,0,1,.879,2.2,3.028,3.028,0,0,1-.879,2.2,2.881,2.881,0,0,1-2.148.9,2.969,2.969,0,0,1-2.168-.9,2.991,2.991,0,0,1-.879-2.178,3.123,3.123,0,0,1,.41-1.572,2.933,2.933,0,0,1,1.094-1.143A2.9,2.9,0,0,1-1735.842-792.9Zm.02.576a2.323,2.323,0,0,0-1.211.342,2.32,2.32,0,0,0-.9.918,2.585,2.585,0,0,0-.312,1.289,2.453,2.453,0,0,0,.7,1.777,2.3,2.3,0,0,0,1.719.723,2.368,2.368,0,0,0,1.23-.327,2.373,2.373,0,0,0,.9-.913,2.6,2.6,0,0,0,.313-1.289,2.524,2.524,0,0,0-.312-1.27,2.36,2.36,0,0,0-.9-.908A2.39,2.39,0,0,0-1735.822-792.319Z" transform="translate(1738.85 792.895)" fill="#fff"/>
    </g>
    <g id="Raggruppa_925" data-name="Raggruppa 925" transform="translate(-1773.445 -888.532)">
      <path id="Tracciato_4525" data-name="Tracciato 4525" d="M-1716.117-792.9a2.92,2.92,0,0,1,2.188.9,3.008,3.008,0,0,1,.879,2.2,3.028,3.028,0,0,1-.879,2.2,2.838,2.838,0,0,1-2.129.9,2.907,2.907,0,0,1-2.168-.9,2.916,2.916,0,0,1-.879-2.178,3.106,3.106,0,0,1,.391-1.572,3.077,3.077,0,0,1,1.094-1.143A2.953,2.953,0,0,1-1716.117-792.9Zm.02.576a2.256,2.256,0,0,0-1.191.342,2.508,2.508,0,0,0-.918.918,2.809,2.809,0,0,0-.312,1.289,2.536,2.536,0,0,0,.7,1.777,2.333,2.333,0,0,0,1.719.723,2.49,2.49,0,0,0,1.25-.327,2.2,2.2,0,0,0,.879-.913,2.611,2.611,0,0,0,.332-1.289,2.537,2.537,0,0,0-.332-1.27,2.31,2.31,0,0,0-.879-.908A2.459,2.459,0,0,0-1716.1-792.319Z" transform="translate(1719.105 792.895)" fill="#fff"/>
    </g>
    <g id="Raggruppa_926" data-name="Raggruppa 926" transform="translate(-1762.861 -888.385)">
      <path id="Tracciato_4526" data-name="Tracciato 4526" d="M-1698.879-792.61h.586v2.212l2.3-2.212h.781l-2.754,2.646,2.969,3.262h-.762l-2.539-2.754v2.754h-.586Z" transform="translate(1698.879 792.61)" fill="#fff"/>
    </g>
    <g id="Raggruppa_927" data-name="Raggruppa 927" transform="translate(-1754.854 -888.385)">
      <path id="Tracciato_4527" data-name="Tracciato 4527" d="M-1683.554-792.61h.566v5.908h-.566Z" transform="translate(1683.554 792.61)" fill="#fff"/>
    </g>
    <g id="Raggruppa_928" data-name="Raggruppa 928" transform="translate(-1749.592 -888.385)">
      <path id="Tracciato_4528" data-name="Tracciato 4528" d="M-1673.5-786.7v-5.908h.117l3.828,4.526v-4.526h.566v5.908h-.117l-3.809-4.478v4.478Z" transform="translate(1673.495 792.61)" fill="#fff"/>
    </g>
    <g id="Raggruppa_929" data-name="Raggruppa 929" transform="translate(-1740.547 -888.531)">
      <path id="Tracciato_4529" data-name="Tracciato 4529" d="M-1650.405-791.752l-.449.43a3.693,3.693,0,0,0-1.055-.737,2.861,2.861,0,0,0-1.113-.249,2.544,2.544,0,0,0-1.289.342,2.389,2.389,0,0,0-.957.923,2.547,2.547,0,0,0-.332,1.235,2.436,2.436,0,0,0,.352,1.265,2.445,2.445,0,0,0,.957.947,2.711,2.711,0,0,0,1.348.342,2.283,2.283,0,0,0,1.5-.513,2.04,2.04,0,0,0,.723-1.328h-1.836v-.576h2.48a2.971,2.971,0,0,1-.781,2.178,2.838,2.838,0,0,1-2.109.8,3.125,3.125,0,0,1-2.52-1.113,3.062,3.062,0,0,1-.723-1.987,3.113,3.113,0,0,1,.41-1.562,2.861,2.861,0,0,1,1.133-1.128,3.175,3.175,0,0,1,1.621-.41,3.728,3.728,0,0,1,1.387.269A4.231,4.231,0,0,1-1650.405-791.752Z" transform="translate(1656.206 792.895)" fill="#fff"/>
    </g>
    <g id="Raggruppa_930" data-name="Raggruppa 930" transform="translate(-1831.685 -877.759)">
      <path id="Tracciato_4530" data-name="Tracciato 4530" d="M-1830.42-771.718v-.581h3.164v.581h-1.289v5.327h-.586v-5.327Z" transform="translate(1830.42 772.299)" fill="#fff"/>
    </g>
    <g id="Raggruppa_931" data-name="Raggruppa 931" transform="translate(-1822.969 -877.759)">
      <path id="Tracciato_4531" data-name="Tracciato 4531" d="M-1813.765-772.3h3.3v.581h-2.715v1.851h2.7v.576h-2.7v2.324h2.7v.576h-3.281Z" transform="translate(1813.765 772.299)" fill="#fff"/>
    </g>
    <g id="Raggruppa_932" data-name="Raggruppa 932" transform="translate(-1814.216 -877.905)">
      <path id="Tracciato_4532" data-name="Tracciato 4532" d="M-1791.408-771.338l-.469.356a2.365,2.365,0,0,0-.9-.762,2.556,2.556,0,0,0-1.152-.259,2.5,2.5,0,0,0-1.289.342,2.394,2.394,0,0,0-.9.908,2.6,2.6,0,0,0-.332,1.289,2.442,2.442,0,0,0,.742,1.8,2.435,2.435,0,0,0,1.816.723,2.532,2.532,0,0,0,2.012-.967l.469.352a3.052,3.052,0,0,1-1.074.869,3.332,3.332,0,0,1-1.445.3,2.921,2.921,0,0,1-2.383-1.03,3.159,3.159,0,0,1-.723-2.1,2.979,2.979,0,0,1,.879-2.183,2.988,2.988,0,0,1,2.207-.884,3.231,3.231,0,0,1,1.465.322A3.047,3.047,0,0,1-1791.408-771.338Z" transform="translate(1797.033 772.583)" fill="#fff"/>
    </g>
    <g id="Raggruppa_933" data-name="Raggruppa 933" transform="translate(-1802.717 -877.759)">
      <path id="Tracciato_4533" data-name="Tracciato 4533" d="M-1775.054-772.3h.566v2.48h2.93v-2.48h.566v5.908h-.566v-2.852h-2.93v2.852h-.566Z" transform="translate(1775.054 772.299)" fill="#fff"/>
    </g>
    <g id="Raggruppa_934" data-name="Raggruppa 934" transform="translate(-1792.5 -877.759)">
      <path id="Tracciato_4534" data-name="Tracciato 4534" d="M-1755.533-766.391V-772.3h.117l3.828,4.531V-772.3h.586v5.908h-.137l-3.809-4.473v4.473Z" transform="translate(1755.533 772.299)" fill="#fff"/>
    </g>
    <g id="Raggruppa_935" data-name="Raggruppa 935" transform="translate(-1782.112 -877.905)">
      <path id="Tracciato_4535" data-name="Tracciato 4535" d="M-1732.674-772.583a2.92,2.92,0,0,1,2.188.9,3.008,3.008,0,0,1,.879,2.2,3.036,3.036,0,0,1-.879,2.2,2.881,2.881,0,0,1-2.148.9,2.9,2.9,0,0,1-2.148-.9,2.991,2.991,0,0,1-.879-2.178,3.106,3.106,0,0,1,.391-1.572,3.077,3.077,0,0,1,1.094-1.143A2.9,2.9,0,0,1-1732.674-772.583Zm.02.576a2.278,2.278,0,0,0-1.211.342,2.457,2.457,0,0,0-.9.918,2.585,2.585,0,0,0-.312,1.289,2.453,2.453,0,0,0,.7,1.777,2.333,2.333,0,0,0,1.719.723,2.49,2.49,0,0,0,1.25-.327,2.465,2.465,0,0,0,.879-.913,2.611,2.611,0,0,0,.332-1.289,2.537,2.537,0,0,0-.332-1.27,2.36,2.36,0,0,0-.9-.908A2.345,2.345,0,0,0-1732.654-772.007Z" transform="translate(1735.662 772.583)" fill="#fff"/>
    </g>
    <g id="Raggruppa_936" data-name="Raggruppa 936" transform="translate(-1770.161 -877.759)">
      <path id="Tracciato_4536" data-name="Tracciato 4536" d="M-1712.831-772.3h.586v5.342h2.207v.566h-2.793Z" transform="translate(1712.831 772.299)" fill="#fff"/>
    </g>
    <g id="Raggruppa_937" data-name="Raggruppa 937" transform="translate(-1761.995 -877.905)">
      <path id="Tracciato_4537" data-name="Tracciato 4537" d="M-1694.219-772.583a2.994,2.994,0,0,1,2.207.9,3.008,3.008,0,0,1,.879,2.2,3.036,3.036,0,0,1-.879,2.2,2.881,2.881,0,0,1-2.148.9,2.907,2.907,0,0,1-2.168-.9,2.991,2.991,0,0,1-.879-2.178,3.123,3.123,0,0,1,.41-1.572,2.886,2.886,0,0,1,1.074-1.143A2.953,2.953,0,0,1-1694.219-772.583Zm.02.576a2.278,2.278,0,0,0-1.211.342,2.407,2.407,0,0,0-.879.918,2.585,2.585,0,0,0-.312,1.289,2.377,2.377,0,0,0,.7,1.777,2.29,2.29,0,0,0,1.7.723,2.389,2.389,0,0,0,1.25-.327,2.517,2.517,0,0,0,.9-.913,2.824,2.824,0,0,0,.313-1.289,2.743,2.743,0,0,0-.312-1.27,2.5,2.5,0,0,0-.9-.908A2.363,2.363,0,0,0-1694.2-772.007Z" transform="translate(1697.207 772.583)" fill="#fff"/>
    </g>
    <g id="Raggruppa_938" data-name="Raggruppa 938" transform="translate(-1750.288 -877.905)">
      <path id="Tracciato_4538" data-name="Tracciato 4538" d="M-1669.038-771.44l-.449.43a3.443,3.443,0,0,0-1.055-.737,2.938,2.938,0,0,0-1.113-.249,2.55,2.55,0,0,0-1.289.342,2.52,2.52,0,0,0-.957.923,2.547,2.547,0,0,0-.332,1.235,2.436,2.436,0,0,0,.352,1.265,2.353,2.353,0,0,0,.957.947,2.764,2.764,0,0,0,1.348.342,2.283,2.283,0,0,0,1.5-.513,2.04,2.04,0,0,0,.723-1.328h-1.836v-.576h2.48a2.962,2.962,0,0,1-.8,2.173,2.748,2.748,0,0,1-2.09.806,3.114,3.114,0,0,1-2.52-1.118,2.939,2.939,0,0,1-.723-1.982,3.113,3.113,0,0,1,.41-1.562,2.861,2.861,0,0,1,1.133-1.128,3.175,3.175,0,0,1,1.621-.41,3.555,3.555,0,0,1,1.367.269A4.064,4.064,0,0,1-1669.038-771.44Z" transform="translate(1674.839 772.583)" fill="#fff"/>
    </g>
    <g id="Raggruppa_939" data-name="Raggruppa 939" transform="translate(-1738.789 -877.759)">
      <path id="Tracciato_4539" data-name="Tracciato 4539" d="M-1652.852-772.3h.664l1.465,2.437,1.445-2.437h.684l-1.816,3.086v2.822H-1651v-2.822Z" transform="translate(1652.852 772.299)" fill="#fff"/>
    </g>
    <g id="Raggruppa_940" data-name="Raggruppa 940" transform="translate(-1817.561 -950.409)">
      <path id="Tracciato_4540" data-name="Tracciato 4540" d="M-1800.654-911.174h1.387l2.773,7.139h-1.426l-.566-1.465h-2.93l-.586,1.465h-1.426Zm.7,1.895-.957,2.451h1.914Z" transform="translate(1803.428 911.174)" fill="#fff"/>
    </g>
    <g id="Raggruppa_941" data-name="Raggruppa 941" transform="translate(-1800.374 -950.409)">
      <path id="Tracciato_4541" data-name="Tracciato 4541" d="M-1770.581-911.174h1.387v5.84h1.992v1.3h-3.379Z" transform="translate(1770.581 911.174)" fill="#fff"/>
    </g>
    <g id="Raggruppa_942" data-name="Raggruppa 942" transform="translate(-1783.564 -950.409)">
      <path id="Tracciato_4542" data-name="Tracciato 4542" d="M-1738.437-911.174h1.367v7.139h-1.367Z" transform="translate(1738.438 911.174)" fill="#fff"/>
    </g>
    <g id="Raggruppa_943" data-name="Raggruppa 943" transform="translate(-1767.402 -950.409)">
      <path id="Tracciato_4543" data-name="Tracciato 4543" d="M-1707.54-911.174h1.387v5.84h1.992v1.3h-3.379Z" transform="translate(1707.54 911.174)" fill="#fff"/>
    </g>
    <g id="Raggruppa_944" data-name="Raggruppa 944" transform="translate(-1752.668 -950.409)">
      <path id="Tracciato_4544" data-name="Tracciato 4544" d="M-1679.38-911.174h3.945v1.328h-2.578v1.289h2.578v1.309h-2.578v1.875h2.578v1.338h-3.945Z" transform="translate(1679.38 911.174)" fill="#fff"/>
    </g>
    <g id="Raggruppa_945" data-name="Raggruppa 945" transform="translate(-1833.064 -993.451)">
      <path id="Tracciato_4545" data-name="Tracciato 4545" d="M-1782.869-992.924a46.21,46.21,0,0,1,45.117,36.738l.527-.107a46.753,46.753,0,0,0-45.645-37.158,46.753,46.753,0,0,0-45.645,37.158l.508.107A46.248,46.248,0,0,1-1782.869-992.924Zm-43.184,48.105a3.4,3.4,0,0,0,.488-1.768v-.312h-3.633v1.289h2.09a2.157,2.157,0,0,1-.781.918,2.276,2.276,0,0,1-1.211.3,2.542,2.542,0,0,1-1.836-.723,2.393,2.393,0,0,1-.762-1.758,2.3,2.3,0,0,1,.723-1.689,2.475,2.475,0,0,1,1.8-.7,2.925,2.925,0,0,1,2.148.967l.957-.947a3.977,3.977,0,0,0-1.348-1.006,4.545,4.545,0,0,0-1.758-.342,3.745,3.745,0,0,0-2.93,1.25,3.572,3.572,0,0,0-.957,2.461,3.679,3.679,0,0,0,.527,1.924,3.483,3.483,0,0,0,1.387,1.377,4.067,4.067,0,0,0,1.992.488,3.7,3.7,0,0,0,1.836-.439A3.651,3.651,0,0,0-1826.053-944.818Zm43.184,44.063a46.248,46.248,0,0,1-45.137-36.738l-.508.107a46.753,46.753,0,0,0,45.645,37.158,46.753,46.753,0,0,0,45.645-37.158l-.527-.107A46.21,46.21,0,0,1-1782.869-900.756Zm48.711-48.74a3.623,3.623,0,0,0-2.637-1.094,3.762,3.762,0,0,0-1.895.5,3.674,3.674,0,0,0-1.367,1.367,3.674,3.674,0,0,0-.508,1.875,3.729,3.729,0,0,0,1.074,2.646,3.623,3.623,0,0,0,2.715,1.113,3.652,3.652,0,0,0,2.637-1.084,3.587,3.587,0,0,0,1.074-2.646A3.6,3.6,0,0,0-1734.158-949.5Zm-.957,4.385a2.26,2.26,0,0,1-1.66.7,2.376,2.376,0,0,1-1.543-.537,2.292,2.292,0,0,1-.859-1.875,2.377,2.377,0,0,1,.684-1.748,2.313,2.313,0,0,1,1.7-.693,2.229,2.229,0,0,1,1.66.7,2.365,2.365,0,0,1,.7,1.729A2.372,2.372,0,0,1-1735.115-945.111Z" transform="translate(1833.064 993.451)" fill="#a6856a"/>
    </g>
  </g>
</svg>
