<?xml version="1.0" encoding="utf-8"?>
<!-- Generator: Adobe Illustrator 25.4.1, SVG Export Plug-In . SVG Version: 6.00 Build 0)  -->
<svg version="1.1" id="Layer_1" xmlns="http://www.w3.org/2000/svg" x="0px" y="0px"
     viewBox="0 0 191.2 60.5" style="enable-background:new 0 0 191.2 60.5;" xml:space="preserve">
<style type="text/css">
	.st0{fill:#FFFFFF;}
</style>
<g>
	<g>
		<polygon class="st0" points="20.5,55.7 19.2,58.6 17.9,55.7 17.2,55.7 17.2,60.4 17.9,60.4 17.9,57.3 19,59.6 19.5,59.6
			20.5,57.3 20.5,60.4 21.2,60.4 21.2,55.7 		"/>
		<path class="st0" d="M25.4,56.8l0.7,2.1h-1.4L25.4,56.8z M25.1,55.7l-1.6,4.7h0.7l0.3-0.9h1.8l0.3,0.9h0.7l-1.6-4.7H25.1z"/>
		<rect x="29.6" y="55.7" class="st0" width="0.7" height="4.7"/>
		<g>
			<path class="st0" d="M34.3,60.5c-0.7,0-1.2-0.2-1.6-0.6l0.5-0.5c0.3,0.3,0.7,0.4,1.1,0.4c0.6,0,0.9-0.3,0.9-0.7
				c0-0.2-0.1-0.4-0.2-0.5c-0.1-0.1-0.2-0.2-0.5-0.2L34,58.3c-0.4-0.1-0.7-0.2-0.8-0.4c-0.2-0.2-0.3-0.5-0.3-0.9
				c0-0.8,0.6-1.4,1.5-1.4c0.6,0,1,0.2,1.4,0.5l-0.4,0.4c-0.3-0.3-0.6-0.4-1-0.4c-0.5,0-0.8,0.3-0.8,0.7c0,0.2,0,0.3,0.2,0.4
				c0.1,0.1,0.3,0.2,0.5,0.2l0.5,0.1c0.4,0.1,0.6,0.2,0.8,0.3c0.2,0.2,0.4,0.6,0.4,1C35.9,59.9,35.2,60.5,34.3,60.5"/>
			<path class="st0" d="M40.5,56.6c-0.2-0.2-0.4-0.3-0.7-0.3s-0.5,0.1-0.7,0.3C39,56.9,39,57.1,39,58.1c0,0.9,0,1.2,0.3,1.5
				c0.2,0.2,0.4,0.3,0.7,0.3s0.5-0.1,0.7-0.3c0.2-0.3,0.3-0.5,0.3-1.5C40.8,57.1,40.8,56.9,40.5,56.6 M41.1,60
				c-0.3,0.3-0.7,0.5-1.2,0.5S39,60.3,38.7,60c-0.4-0.5-0.4-1-0.4-1.9s0-1.4,0.4-1.9c0.3-0.3,0.7-0.5,1.2-0.5s0.9,0.2,1.2,0.5
				c0.4,0.5,0.4,1,0.4,1.9S41.5,59.5,41.1,60"/>
		</g>
		<polygon class="st0" points="46.8,55.7 46.8,59 44.8,55.7 44.1,55.7 44.1,60.4 44.8,60.4 44.8,57.1 46.9,60.4 47.5,60.4
			47.5,55.7 		"/>
		<g>
			<path class="st0" d="M55.8,56.7c-0.2-0.2-0.4-0.3-0.8-0.3h-0.8v3.4H55c0.3,0,0.6-0.1,0.8-0.3C56,59.2,56,58.7,56,58
				S56,56.9,55.8,56.7 M56.2,60c-0.3,0.3-0.7,0.4-1.2,0.4h-1.6v-4.7H55c0.5,0,0.9,0.1,1.2,0.4c0.5,0.5,0.5,1.2,0.5,1.9
				C56.7,58.7,56.7,59.5,56.2,60"/>
		</g>
		<polygon class="st0" points="59.2,55.7 59.2,57 59.9,56.4 59.9,55.7 		"/>
		<polygon class="st0" points="65.2,55.7 65.2,57.7 63.4,57.7 63.4,55.7 62.7,55.7 62.7,60.4 63.4,60.4 63.4,58.4 65.2,58.4
			65.2,60.4 65.8,60.4 65.8,55.7 		"/>
		<g>
			<path class="st0" d="M70.8,56.6c-0.2-0.2-0.4-0.3-0.7-0.3c-0.3,0-0.5,0.1-0.7,0.3c-0.2,0.3-0.3,0.5-0.3,1.5c0,0.9,0,1.2,0.3,1.5
				c0.2,0.2,0.4,0.3,0.7,0.3c0.3,0,0.5-0.1,0.7-0.3C71,59.3,71,59,71,58.1C71,57.1,71,56.9,70.8,56.6 M71.3,60
				c-0.3,0.3-0.7,0.5-1.2,0.5s-0.9-0.2-1.2-0.5c-0.4-0.5-0.4-1-0.4-1.9s0-1.4,0.4-1.9c0.3-0.3,0.7-0.5,1.2-0.5s0.9,0.2,1.2,0.5
				c0.4,0.5,0.4,1,0.4,1.9C71.7,59,71.7,59.5,71.3,60"/>
			<path class="st0" d="M76.1,56.4h-1v1.5h1c0.5,0,0.8-0.3,0.8-0.7C76.8,56.6,76.5,56.4,76.1,56.4 M76.8,60.4l-0.9-2h-0.8v2h-0.7
				v-4.7h1.7c0.8,0,1.4,0.6,1.4,1.4c0,0.7-0.4,1.1-0.9,1.2l1,2.1H76.8z"/>
		</g>
		<polygon class="st0" points="80.1,55.7 80.1,60.4 83,60.4 83,59.8 80.8,59.8 80.8,55.7 		"/>
		<g>
			<path class="st0" d="M87.3,56.6c-0.2-0.2-0.4-0.3-0.7-0.3c-0.3,0-0.5,0.1-0.7,0.3c-0.2,0.3-0.3,0.5-0.3,1.5c0,0.9,0,1.2,0.3,1.5
				c0.2,0.2,0.4,0.3,0.7,0.3c0.3,0,0.5-0.1,0.7-0.3c0.2-0.3,0.3-0.5,0.3-1.5C87.6,57.1,87.5,56.9,87.3,56.6 M87.8,60
				c-0.3,0.3-0.7,0.5-1.2,0.5s-0.9-0.2-1.2-0.5C85,59.5,85,59,85,58.1s0-1.4,0.4-1.9c0.3-0.3,0.7-0.5,1.2-0.5s0.9,0.2,1.2,0.5
				c0.4,0.5,0.4,1,0.4,1.9C88.3,59,88.3,59.5,87.8,60"/>
			<path class="st0" d="M93.6,59.9c-0.3,0.4-0.8,0.5-1.2,0.5c-0.5,0-0.9-0.2-1.2-0.5c-0.4-0.5-0.4-1-0.4-1.9s0-1.4,0.4-1.9
				c0.3-0.3,0.7-0.5,1.2-0.5c0.9,0,1.5,0.7,1.6,1.5h-0.7c-0.1-0.5-0.4-0.8-0.9-0.8c-0.3,0-0.5,0.1-0.7,0.3c-0.2,0.3-0.3,0.5-0.3,1.5
				c0,0.9,0,1.2,0.3,1.5c0.2,0.2,0.4,0.3,0.7,0.3c0.3,0,0.6-0.1,0.7-0.3c0.2-0.2,0.2-0.4,0.2-0.7v-0.3h-1V58H94v0.7
				C94,59.2,93.9,59.6,93.6,59.9"/>
		</g>
		<polygon class="st0" points="96.7,55.7 96.7,60.4 99.5,60.4 99.5,59.8 97.3,59.8 97.3,58.4 99.2,58.4 99.2,57.7 97.3,57.7
			97.3,56.4 99.5,56.4 99.5,55.7 		"/>
		<g>
			<path class="st0" d="M103.8,56.4h-1v1.5h1c0.5,0,0.8-0.3,0.8-0.7C104.5,56.6,104.2,56.4,103.8,56.4 M104.6,60.4l-0.9-2h-0.8v2
				h-0.7v-4.7h1.7c0.8,0,1.4,0.6,1.4,1.4c0,0.7-0.4,1.1-0.9,1.2l1,2.1H104.6z"/>
		</g>
		<rect x="107.9" y="55.7" class="st0" width="0.7" height="4.7"/>
		<polygon class="st0" points="111.4,55.7 111.4,60.4 114.2,60.4 114.2,59.8 112,59.8 112,58.4 113.9,58.4 113.9,57.7 112,57.7
			112,56.4 114.2,56.4 114.2,55.7 		"/>
		<g>
			<path class="st0" d="M122.6,59.9c-0.3,0.4-0.8,0.5-1.2,0.5c-0.5,0-0.9-0.2-1.2-0.5c-0.4-0.5-0.4-1-0.4-1.9s0-1.4,0.4-1.9
				c0.3-0.3,0.7-0.5,1.2-0.5c0.9,0,1.5,0.7,1.6,1.5h-0.7c-0.1-0.5-0.4-0.8-0.9-0.8c-0.3,0-0.5,0.1-0.7,0.3c-0.2,0.3-0.3,0.5-0.3,1.5
				c0,0.9,0.1,1.2,0.3,1.5c0.2,0.2,0.4,0.3,0.7,0.3c0.3,0,0.6-0.1,0.7-0.3c0.2-0.2,0.2-0.4,0.2-0.7v-0.3h-1V58h1.6v0.7
				C123,59.2,122.9,59.6,122.6,59.9"/>
		</g>
		<polygon class="st0" points="125.7,55.7 125.7,60.4 128.6,60.4 128.6,59.8 126.4,59.8 126.4,58.4 128.2,58.4 128.2,57.7
			126.4,57.7 126.4,56.4 128.6,56.4 128.6,55.7 		"/>
		<polygon class="st0" points="133.8,55.7 133.8,59 131.8,55.7 131.1,55.7 131.1,60.4 131.8,60.4 131.8,57.1 133.9,60.4 134.5,60.4
			134.5,55.7 		"/>
		<polygon class="st0" points="137.3,55.7 137.3,60.4 140.2,60.4 140.2,59.8 138,59.8 138,58.4 139.9,58.4 139.9,57.7 138,57.7
			138,56.4 140.2,56.4 140.2,55.7 		"/>
		<polygon class="st0" points="145,55.7 144,59.1 142.9,55.7 142.2,55.7 143.7,60.4 144.2,60.4 145.7,55.7 		"/>
		<polygon class="st0" points="148,55.7 148,60.4 150.8,60.4 150.8,59.8 148.6,59.8 148.6,58.4 150.5,58.4 150.5,57.7 148.6,57.7
			148.6,56.4 150.8,56.4 150.8,55.7 		"/>
		<polygon class="st0" points="157.6,55.7 156.7,56.5 156.7,57.3 157.6,56.4 157.6,60.4 158.2,60.4 158.2,55.7 		"/>
		<g>
			<path class="st0" d="M162.7,56.3c-0.4,0-0.7,0.3-0.7,0.7s0.3,0.7,0.7,0.7s0.7-0.3,0.7-0.7C163.3,56.6,163.1,56.3,162.7,56.3
				 M162.7,58.3c-0.4,0-0.7,0.3-0.7,0.8c0,0.4,0.3,0.8,0.7,0.8s0.7-0.3,0.7-0.8S163.1,58.3,162.7,58.3 M162.7,60.5
				c-0.8,0-1.4-0.5-1.4-1.4c0-0.6,0.3-0.9,0.6-1.1c-0.3-0.2-0.5-0.5-0.5-1c0-0.8,0.6-1.3,1.3-1.3s1.3,0.5,1.3,1.3
				c0,0.5-0.3,0.8-0.5,1c0.3,0.2,0.6,0.5,0.6,1.1C164,59.9,163.4,60.5,162.7,60.5"/>
			<path class="st0" d="M167.6,60.5c-0.7,0-1.3-0.4-1.4-1.3h0.6c0,0.5,0.4,0.7,0.7,0.7c0.4,0,0.7-0.3,0.7-0.8s-0.2-0.8-0.7-0.8h-0.1
				v-0.6h0.1c0.5,0,0.7-0.3,0.7-0.7c0-0.5-0.3-0.7-0.7-0.7s-0.6,0.3-0.7,0.7h-0.6c0-0.8,0.6-1.3,1.3-1.3c0.8,0,1.3,0.5,1.3,1.3
				c0,0.5-0.2,0.8-0.6,1c0.4,0.2,0.6,0.5,0.6,1.1C169,60,168.4,60.5,167.6,60.5"/>
			<path class="st0" d="M173.3,57c0-0.5-0.2-0.8-0.7-0.8c-0.4,0-0.6,0.3-0.6,0.8v2c0,0.5,0.2,0.8,0.6,0.8c0.4,0,0.7-0.3,0.7-0.8V57z
				 M172.7,60.5c-0.7,0-1.3-0.5-1.3-1.3V57c0-0.8,0.6-1.3,1.3-1.3s1.3,0.5,1.3,1.3v2.1C174,59.9,173.4,60.5,172.7,60.5"/>
			<path class="st0" d="M35.4,47.4c-1,0-1.9-0.3-2.5-1c-0.5-0.5-0.7-1.2-0.6-2v-8.7H30v8.9c0,2.6,2.1,4.4,5.4,4.4
				c3.2,0,5.4-1.8,5.4-4.4v-8.9h-2.3v8.8C38.5,46.4,37.4,47.4,35.4,47.4"/>
		</g>
		<polygon class="st0" points="57,35.8 52.3,41.5 47.6,35.8 45.7,35.8 45.7,48.9 47.8,48.9 47.8,38.8 52.3,44.3 56.8,38.8
			56.8,48.9 58.9,48.9 58.9,35.8 		"/>
		<g>
			<path class="st0" d="M6.2,47.2h-4V43h4c1.6,0,2.6,0.8,2.6,2.1C8.8,46.4,7.8,47.2,6.2,47.2 M2.2,37.4H6c1.6,0,2.6,0.8,2.6,2
				s-1,2-2.6,2H2.2V37.4z M8.7,42.2l-0.2-0.1L8.7,42c1-0.3,2-1.3,2-2.7c0-2.2-1.7-3.6-4.5-3.6H0v13.1h6.4c2.8,0,4.5-1.4,4.5-3.7
				C11,43.2,9.4,42.4,8.7,42.2"/>
		</g>
		<path class="st0" d="M19.6,37.6H21l1.6,5.7H18L19.6,37.6z M18.2,35.8l-4,13.1h2.3l1.1-3.9h5.6l1.1,3.9h2.3l-4-13.1
			C22.6,35.8,18.2,35.8,18.2,35.8z"/>
		<polygon class="st0" points="63.8,35.8 63.8,48.9 73.4,48.9 73.4,47.2 65.9,47.2 65.9,43.1 72.3,43.1 72.3,41.4 65.9,41.4
			65.9,37.5 73.4,37.5 73.4,35.8 		"/>
		<polygon class="st0" points="107.9,35.8 103.2,41.5 103.1,41.4 98.4,35.8 96.5,35.8 96.5,48.9 98.6,48.9 98.6,38.8 103.2,44.3
			107.7,38.8 107.7,48.9 109.7,48.9 109.7,35.8 		"/>
		<g>
			<path class="st0" d="M131.4,41.7v-4.3h3.6c1.6,0,2.7,0.9,2.7,2.2s-1.1,2.2-2.7,2.2h-3.6V41.7z M136.8,43c1.9-0.4,3-1.7,3-3.4
				c0-2.3-1.9-3.8-4.7-3.8h-5.9v13.1h2.1v-5.6h3.1l0,0l3.2,5.6h2.5l-3.5-5.9H136.8z"/>
		</g>
		<rect x="158.9" y="35.8" class="st0" width="2.3" height="13.1"/>
		<g>
			<path class="st0" d="M182.3,41.7v-4.3h3.6c1.6,0,2.7,0.9,2.7,2.2s-1.1,2.2-2.7,2.2h-3.6V41.7z M187.7,43h0.1c1.9-0.4,3-1.7,3-3.4
				c0-2.3-1.9-3.8-4.7-3.8h-5.9v13.1h2.1v-5.6h3.1l0,0l3.2,5.6h2.5L187.7,43z"/>
		</g>
		<polygon class="st0" points="115,35.8 115,48.9 124.7,48.9 124.7,47.2 117.2,47.2 117.2,43.1 123.6,43.1 123.6,41.4 117.2,41.4
			117.2,37.5 124.7,37.5 124.7,35.8 		"/>
		<polygon class="st0" points="166.3,35.8 166.3,48.9 175.9,48.9 175.9,47.2 168.4,47.2 168.4,43.1 174.8,43.1 174.8,41.4
			168.4,41.4 168.4,37.5 175.9,37.5 175.9,35.8 		"/>
		<path class="st0" d="M152.4,39.5h2.2c-0.6-2.5-2.6-4-5.4-4c-1.6,0-3,0.5-4,1.4c-1.5,1.3-1.5,2.7-1.5,5.2v0.1c0,2.5,0,4,1.5,5.4
			c1.1,0.9,2.4,1.4,4,1.4c2.9,0,4.9-1.5,5.4-4h-2.2c-0.4,1.5-1.6,2.3-3.2,2.3c-0.9,0-1.8-0.3-2.4-0.9c-0.8-0.7-1-1.5-1-4.2
			s0.2-3.5,1-4.3c0.6-0.5,1.4-0.8,2.4-0.8C150.8,37.2,152,38.1,152.4,39.5"/>
		<path class="st0" d="M86.3,46.4c-0.8,0.7-1.6,1-2.7,1c-1.5,0-2.6-1-2.6-2.3c0-1.2,0.8-1.8,1.9-2.5H83L86.3,46.4L86.3,46.4z
			 M83.9,37.3c0.8,0,1.4,0.6,1.4,1.4c0,0.7-0.5,1.1-1,1.4c0,0-0.4,0.3-0.7,0.4h-0.1v-0.1c-0.7-0.8-1.1-1.3-1.1-1.8
			C82.4,37.9,83,37.3,83.9,37.3 M88.7,46.3c0.8-0.9,1.3-2.2,1.3-3.9h-1.7c0,1.2-0.2,1.9-0.7,2.6l-0.1,0.1l-3-3.4l0.1-0.1
			c0.3-0.2,1-0.7,1-0.7c1-0.6,1.4-1.3,1.4-2.2c0-1.7-1.3-2.8-3.2-2.8c-1.9,0-3.2,1.1-3.2,2.8c0,1.2,0.8,2.1,1.4,2.7l0.1,0.1L82,41.6
			c-1.3,0.8-2.7,1.8-2.7,3.6c0,2.4,1.6,3.8,4.3,3.8c2.1,0,3.2-0.9,3.7-1.4l0.1-0.1l1.1,1.3h2.3L88.7,46.3L88.7,46.3z"/>
	</g>
	<path class="st0" d="M97.5,3.4V0h-3.7v3.4c-6,0.7-10.5,4.6-10.5,9.3s4.5,8.6,10.5,9.3v3.4h3.7V22c5.9-0.7,10.5-4.6,10.5-9.3
		C107.9,8,103.4,4.1,97.5,3.4 M93.7,20.3c-3.8-0.8-6.7-3.9-6.7-7.6s2.8-6.8,6.7-7.6V20.3z M97.5,20.3V5.1c3.8,0.8,6.7,3.9,6.7,7.6
		C104.1,16.4,101.3,19.5,97.5,20.3"/>
</g>
</svg>
