<?xml version="1.0" encoding="utf-8"?>
<!-- Generator: Adobe Illustrator 25.4.1, SVG Export Plug-In . SVG Version: 6.00 Build 0)  -->
<svg version="1.1" id="Layer_1" xmlns="http://www.w3.org/2000/svg" x="0px" y="0px"
     viewBox="0 0 17 15" style="enable-background:new 0 0 17 15;" xml:space="preserve">
<style type="text/css">
	.st0{fill:none;stroke:#FFFFFF;}
</style>
<path id="Path-Copy" class="st0" d="M12.5,0.5c1.1,0,2.1,0.5,2.8,1.2c0.7,0.7,1.2,1.7,1.2,2.8c0,2.9-1.8,4.7-7.7,9.6
	C2.3,9.2,0.5,7.4,0.5,4.5c0-1.1,0.5-2.1,1.2-2.8C2.4,1,3.4,0.5,4.5,0.5c1.9,0,2.9,1,3.6,1.8c0.1,0.1,0.2,0.3,0.4,0.5
	c0.1-0.2,0.3-0.3,0.4-0.5C9.6,1.5,10.6,0.5,12.5,0.5z"/>
</svg>
