<?xml version="1.0" encoding="UTF-8"?>
<svg width="50px" height="50px" viewBox="0 0 50 50" version="1.1" xmlns="http://www.w3.org/2000/svg" xmlns:xlink="http://www.w3.org/1999/xlink">
    <!-- Generator: Sketch 64 (93537) - https://sketch.com -->
    <title>icon/social-youtube</title>
    <desc>Created with Sketch.</desc>
    <defs>
        <path d="M19.8382728,23.7957212 L33.3424672,16.8944099 L19.8382728,9.91028295 L19.8382728,23.7957212 Z M25,0 C35.5187629,0 42.4940699,0.49689441 42.4940699,0.49689441 C43.4706129,0.60731539 45.6190075,0.60731539 47.516291,2.59489303 C47.516291,2.59489303 49.0508585,4.08557626 49.4972782,7.50862664 C50.0274015,11.5113872 49.9997533,15.5141477 49.9997533,15.5141477 L49.9997533,19.268461 C49.9997533,19.268461 50.0274015,23.2712215 49.4972782,27.2739821 C49.0508585,30.6694272 47.516291,32.1877157 47.516291,32.1877157 C45.6190075,34.1476881 43.4706129,34.1476881 42.4940699,34.258109 C42.4940699,34.258109 35.5187629,34.7826087 25,34.7826087 C11.9980278,34.6721877 8.00815217,34.2857143 8.00815217,34.2857143 C6.89210305,34.0924776 4.38099254,34.1476881 2.48370904,32.1877157 C2.48370904,32.1877157 0.949141497,30.6694272 0.50272185,27.2739821 C-0.0274014813,23.2712215 0.000246674301,19.268461 0.000246674301,19.268461 L0.000246674301,15.5141477 C0.000246674301,15.5141477 -0.0274014813,11.5113872 0.50272185,7.50862664 C0.949141497,4.08557626 2.48370904,2.59489303 2.48370904,2.59489303 C4.38099254,0.60731539 6.52938709,0.60731539 7.50593007,0.49689441 C7.50593007,0.49689441 14.4812371,0 25,0 Z" id="path-1"></path>
    </defs>
    <g id="icon/social-youtube" stroke="none" stroke-width="1" fill="none" fill-rule="evenodd">
        <g id="swatches/222" transform="translate(0.000000, 8.000000)">
            <mask id="mask-2" fill="white">
                <use xlink:href="#path-1"></use>
            </mask>
            <use id="Mask" fill="#000000" xlink:href="#path-1"></use>
        </g>
    </g>
</svg>