<?xml version="1.0" standalone="no"?>
<!DOCTYPE svg PUBLIC "-//W3C//DTD SVG 20010904//EN"
 "http://www.w3.org/TR/2001/REC-SVG-20010904/DTD/svg10.dtd">
<svg version="1.0" xmlns="http://www.w3.org/2000/svg"
 width="827.000000pt" height="264.000000pt" viewBox="0 0 827.000000 264.000000"
 preserveAspectRatio="xMidYMid meet">
<defs>
    <linearGradient id="grad1" x1="0%" x2="100%" y1="0%" y2="100%">
        <stop offset="0%" stop-color="#1c5c50" />
        <stop offset="60%" stop-color="#09363d" />
    </linearGradient>
</defs>
<g transform="translate(0.000000,264.000000) scale(0.100000,-0.100000)"
fill="#09363d" stroke="none">
<path d="M3804 2257 c-3 -8 -4 -41 -2 -73 l3 -59 70 0 70 0 0 70 0 70 -68 3
c-51 2 -69 -1 -73 -11z"/>
<path d="M3957 2113 c-4 -3 -7 -50 -7 -104 0 -79 3 -98 16 -103 29 -11 179 -7
192 6 16 16 16 180 0 196 -13 13 -189 17 -201 5z"/>
<path d="M3673 1893 c-7 -2 -13 -17 -13 -33 0 -26 3 -28 51 -32 74 -8 83 -21
87 -133 l4 -95 -56 0 c-85 0 -96 16 -96 135 l0 95 -29 0 c-41 0 -90 -19 -101
-40 -6 -11 -10 -145 -10 -327 0 -346 -3 -361 -70 -396 -51 -26 -197 -21 -237
9 -52 38 -53 46 -53 370 0 192 -4 312 -11 332 -14 41 -61 56 -164 50 -124 -6
-117 18 -113 -402 l3 -351 26 -55 c35 -76 77 -121 147 -158 80 -43 168 -62
287 -62 205 0 332 51 410 164 56 83 65 138 65 403 l0 233 53 0 c31 0 61 6 75
16 21 14 22 23 22 130 0 64 -5 124 -10 135 -10 17 -22 19 -133 18 -67 0 -128
-3 -134 -6z"/>
<path d="M712 1811 c-32 -15 -47 -31 -62 -63 -18 -40 -20 -69 -20 -475 0 -482
-3 -463 70 -463 67 0 70 9 70 200 l0 168 198 4 c181 3 201 5 250 27 90 40 136
110 153 231 19 127 -23 270 -94 324 -67 51 -107 59 -322 63 -183 3 -204 2
-243 -16z m448 -136 c57 -34 75 -76 75 -175 -1 -167 -35 -189 -292 -190 l-173
0 0 179 c0 154 2 182 17 196 14 14 38 16 177 13 140 -3 165 -6 196 -23z"/>
<path d="M1580 1600 c-42 -4 -86 -10 -98 -14 -24 -8 -35 -38 -30 -82 3 -28 5
-29 53 -28 243 7 261 7 290 -8 55 -29 69 -53 73 -129 l4 -69 -125 0 c-248 0
-341 -46 -368 -183 -23 -111 22 -206 118 -254 55 -26 65 -28 188 -28 115 0
136 3 183 24 61 28 107 75 121 128 14 49 14 437 0 486 -21 79 -110 141 -216
153 -97 10 -120 11 -193 4z m289 -524 c-4 -73 -7 -88 -28 -110 -35 -37 -84
-49 -185 -45 -84 4 -89 5 -117 37 -56 63 -32 169 44 191 18 5 90 10 161 10
l128 1 -3 -84z"/>
<path d="M2053 1564 c-7 -19 150 -602 182 -671 30 -66 61 -86 142 -91 72 -5
73 -8 27 -89 -28 -49 -46 -61 -129 -83 l-60 -16 1 -42 c1 -56 14 -67 75 -64
108 5 196 69 247 181 35 75 225 819 220 860 -3 24 -8 26 -54 29 -34 2 -55 -2
-62 -11 -7 -8 -44 -146 -83 -308 -38 -162 -77 -304 -85 -316 -11 -18 -24 -23
-59 -23 -35 0 -48 5 -59 23 -8 12 -49 150 -92 307 -42 157 -83 295 -91 308
-11 18 -22 22 -64 22 -36 0 -51 -4 -56 -16z"/>
<path d="M5673 1518 c-15 -28 -18 -59 -18 -198 0 -139 3 -170 18 -197 14 -26
24 -33 47 -33 23 0 33 7 47 33 15 27 18 58 18 197 0 139 -3 170 -18 198 -14
25 -24 32 -47 32 -23 0 -33 -7 -47 -32z"/>
<path d="M6240 1571 c-5 -11 -10 -54 -10 -96 0 -80 11 -115 35 -115 24 0 35
35 35 115 0 80 -11 115 -35 115 -8 0 -19 -9 -25 -19z"/>
<path d="M6841 1266 c-18 -22 -25 -124 -12 -173 9 -32 17 -43 32 -43 26 0 39
37 39 113 0 88 -30 138 -59 103z"/>
</g>
<g transform="translate(0.000000,264.000000) scale(0.100000,-0.100000)"
   fill="url(#grad1)" stroke="none">
<path d="M4998 2096 c-81 -22 -152 -90 -179 -171 -10 -32 -12 -161 -10 -615 3
-553 3 -577 23 -622 23 -53 78 -108 135 -135 36 -17 111 -18 1258 -18 l1220 0
55 31 c60 33 112 99 130 162 14 50 14 1134 0 1184 -18 63 -70 129 -130 162
l-55 31 -1200 2 c-944 1 -1210 -1 -1247 -11z m850 -403 c116 -55 170 -217 151
-457 -12 -160 -68 -263 -161 -301 -67 -27 -172 -24 -240 7 -113 52 -159 162
-159 375 -1 170 26 268 90 336 72 78 205 94 319 40z m514 6 c70 -36 103 -109
102 -230 0 -76 -3 -91 -31 -140 -41 -73 -94 -102 -179 -97 -77 5 -123 34 -161
103 -25 45 -28 60 -28 145 1 107 19 156 75 204 29 24 41 29 95 39 32 6 87 -5
127 -24z m488 4 c0 -5 -96 -181 -213 -393 l-214 -385 -76 -3 c-53 -2 -77 1
-77 9 0 6 96 184 213 395 l212 384 78 0 c42 0 77 -3 77 -7z m126 -329 c58 -46
78 -95 83 -193 4 -100 -9 -149 -52 -198 -39 -45 -82 -63 -146 -63 -125 0 -191
74 -199 226 -5 99 14 166 61 212 45 43 72 52 149 49 57 -2 72 -7 104 -33z"/>
</g>
</svg>
