<?xml version="1.0" encoding="UTF-8"?>
<svg width="100px" height="100px" viewBox="0 0 100 100" version="1.1" xmlns="http://www.w3.org/2000/svg" xmlns:xlink="http://www.w3.org/1999/xlink">
    <!-- Generator: Sketch 63.1 (92452) - https://sketch.com -->
    <title>Icon/DKT/Customer Support Black</title>
    <desc>Created with Sketch.</desc>
    <g id="Icon/DKT/Customer-Support-Black" stroke="none" stroke-width="1" fill="none" fill-rule="evenodd">
        <g id="Group-11" transform="translate(13.000000, 13.000000)" stroke="#000000" stroke-width="2.2">
            <path d="M65,53 C61.4872452,61.4972152 52.5405588,66.5448101 43,68" id="Stroke-1"></path>
            <path d="M9,29 L9,28.0626184 C9,13.2017623 20.6205249,0.512068722 35.5580532,0.015636113 C51.1754278,-0.502697935 64,11.9329389 64,27.3457113 L64,29" id="Stroke-3"></path>
            <path d="M12.7052186,53 L7.21993418,53 C3.24814292,53 0,49.7825223 0,45.8500497 L0,36.1544191 C0,32.2204568 3.25115186,29 7.22444758,29 L13.0783263,29 C14.6850964,29 16,30.3018868 16,31.8927507 L16,49.7363456 C16,51.531281 14.5181006,53 12.7052186,53 Z" id="Stroke-5"></path>
            <path d="M61.2947814,53 L66.7800658,53 C70.7518571,53 74,49.7825223 74,45.8500497 L74,36.1544191 C74,32.2204568 70.7488481,29 66.7755524,29 L60.9216737,29 C59.3149036,29 58,30.3018868 58,31.8927507 L58,49.7363456 C58,51.531281 59.4818994,53 61.2947814,53 Z" id="Stroke-7"></path>
            <path d="M43,67.9992862 C43,70.7615989 40.7612793,73 38,73 C35.237293,73 33,70.7615989 33,67.9992862 C33,65.2384011 35.237293,63 38,63 C40.7612793,63 43,65.2384011 43,67.9992862 Z" id="Stroke-9"></path>
        </g>
    </g>
</svg>