<?xml version="1.0" encoding="UTF-8"?>
<svg version="1.0" viewBox="0 0 900 600" xmlns="http://www.w3.org/2000/svg" xmlns:xlink="http://www.w3.org/1999/xlink">
 <rect x=".065871" y="200" width="899.87" height="200" fill="#fff"/>
 <rect x=".065871" y="400" width="899.87" height="200" fill="#00298c"/>
 <rect x=".065871" width="899.87" height="200" fill="#de1818"/>
 <path d="m360.6 197.11c27.62-13.103 58.244-20.173 88.175-20.273 29.931-0.10065 60.456 6.1622 90.618 20.576l22.452-60.402-15.781-36.658s-28.155 15.422-28.386 15.422c-0.23118 0-19.852-28.796-19.852-28.796l-25.196 20.301-23.66-24.13-22.256 23.758-25.982-20.027-18.952 30.033-28.407-16.198-15.208 36.323 22.437 60.072z" fill="#fff" fill-rule="evenodd" stroke="#de1818" stroke-linecap="round" stroke-width="1.6006"/>
 <path d="m504.53 180.36 12.856-60.607 27.532-14.9 14.504 32.478-20.825 56.805c-11.971-6.3784-18.384-9.1111-34.067-13.776z" fill="#087ba5" fill-rule="evenodd" stroke="#3477d9" stroke-width=".40014pt"/>
 <path d="m395.54 180.52-12.017-59.584 18.08-29.593 25.727 19.807 4.3419 62.634c-12.571 1.2439-21.656 2.836-36.133 6.736z" fill="none" stroke-opacity=".99608" stroke-width="1pt"/>
 <path d="m432.03 173.8-4.3414-62.768 21.879-23.194 22.859 23.138-4.0394 62.881c-12.595-0.88826-21.591-0.86151-36.358-0.0564z" fill="#087ba5" fill-rule="evenodd" stroke="#3477d9" stroke-width=".40014pt"/>
 <path d="m361.68 194.1-20.395-57.53 13.63-31.758 28.254 16.4 11.938 59.352c-12.9 3.5575-19.732 6.4643-33.428 13.536z" fill="#087ba5" fill-rule="evenodd" stroke="#3477d9" stroke-width=".40014pt"/>
 <path d="m357.34 165.23c6.2612 0.80458 10.652 0.36663 16.047-2.0669 6.3703-3.977 8.3963-8.5971 10.3-12.342 1.5145 7.2893 0.93804 14.113-6.2657 19.69-6.502 4.494-15.788 3.1677-20.082-5.2806z" fill="#fff" fill-rule="evenodd" stroke="#fff" stroke-width=".36516pt"/>
 <path d="m455.53 120.77-1.2308 0.40268 0.0472 2.9725-1.5147 0.4336-1.0594 2.6214 0.65406 0.81011c0.0336 0.0876-0.51591 1.9389-0.49229 1.9389 0.0236 0 0.4008 0.69834 0.4008 0.69834l0.40231 1.6103 1.0176 0.18549 0.26054 1.8889 1.6092 0.34045 1.4911 1.3935 0.0945 0.86718 1.7041 0.0618 1.16 0.49542 4.047-0.61947 0.54439-1.1145 0.0472-1.5172 2.1776-0.0931 0.19904-2.4196h1.1539l-0.14359-2.7248 0.96244 0.11335-0.24841-1.3059-0.59831-1.0634-0.11815-1.6718-1.704-2.2294-0.37868-2.9107s-1.0888-0.65038-1.0888-0.6813c0-0.0309-0.0709-1.9508-0.0709-1.9508l1.2306-2.2603-0.11815-0.8977-1.136-0.0313-0.85218 0.92901s-1.136 0.15497-1.136 0.18588v0.6813s0.28417 1.2695 0.28417 1.3004c0 0.0309-1.3018 0-1.3018 0l-0.0476-2.0126-1.8458-1.2076s-1.7277 1.5481-1.7277 1.579c0 0.0309-0.0948 1.7962-0.0948 1.7962l-0.82825 0.30953-0.85217-1.6721-1.4911-0.74313-0.80462-0.0618-0.0236 1.3004 1.562 2.6939-0.14178 1.579z" fill="#fffa00" fill-rule="evenodd" stroke="#cca300" stroke-width=".40014pt"/>
 <path d="m467.13 131.66-0.33475-1.6202" fill="none" stroke="#cca300" stroke-width=".40014pt"/>
 <path d="m468.07 128.99-0.56894-1.0947" fill="none" stroke="#cca300" stroke-width=".40014pt"/>
 <path d="m452.47 127.77 1.774-0.13158 0.33475 2.1018 0.60226 0.70072 0.10057 3.8536 0.56893 0.30637 0.16753-1.5326 1.3723-0.13118 0.2675 3.1088-0.33445 0.39435 0.1339 0.48155 1.6398-0.0436s0.36837-0.8323 0.4017-0.8323c0.0336 0 0.93731-0.13119 0.93731-0.0876 0 0.044 0.36808 0.91989 0.36808 0.91989l0.2678-1.1827s0.87035-0.48155 0.87035-0.43756c0 0.0436 0.70283 1.4886 0.70283 1.4886l1.2048-0.21878-0.73615-0.9195-0.30144-2.0146 1.6735-1.1823 0.66951 1.489s0.63588 0.0436 0.60256 0c-0.0336-0.044-0.73646-1.7078-0.73646-1.7078v-3.5032l1.2721-2.2769 1.7737-0.26277v-0.9635l-1.7737-2.1458-0.46865-2.9777-1.0043-0.65673-0.26781 0.39396-1.1045 0.13158 1.1045 2.1458v1.401l0.50229 0.35036-0.10058 3.8536s-1.2384 0.21878-1.2384 0.26277c0 0.0436-0.10028 2.1454-0.10028 2.1454l-0.76978 1.0075s-0.43533 2.0142-0.46865 2.0142c-0.0336 0-0.73646 1.2259-0.73646 1.2259l-1.3723 0.044s-0.80311-1.0071-0.80311-1.0511c0-0.0436-0.1339-1.4886-0.1339-1.4886s-0.5356-0.21918-0.56922-0.21918c-0.0333 0-0.30113-1.6202-0.30113-1.6202l-0.93731-0.70033-0.0667-0.96349-0.90398-0.52554s-0.10028-0.8759-0.1339-0.9195c-0.0333-0.044-0.43503-0.39395-0.46835-0.39395-0.0336 0-0.0336-2.4085-0.0336-2.4085l0.80341-0.17518-0.44987-0.76889-0.15268-0.67615v-0.70072l0.6695-0.8759s-1.2051-0.21878-1.2051-0.17518c0 0.044-1.1712 0.70072-1.1712 0.65712 0.0333 0-0.0336 2.8461-0.0336 2.8461l-1.3723 0.56954-1.1045 2.3205 0.56893 0.65712z" fill="#cca300" fill-rule="evenodd" stroke="#cca300" stroke-width=".40014pt"/>
 <path d="m459.4 131.66 0.90368-0.70072-0.0336-1.3574-0.87006-0.26277-0.33505-0.43795 0.97093 0.21917 1.2048-0.13158 0.4017-0.26277c-0.16722 0.56953-0.30112 0.52554-0.33475 0.52554-0.0333 0-0.6692 0.43795-0.6692 0.43795l0.0333 1.3138s2.0752 0.34996 2.0418 0.34996c-0.0336 0 0 0.52554-0.067 0.52554s-2.1421-0.61313-2.1421-0.61313l-1.3054 1.0511 0.20085-0.65673z" fill="#663d19" fill-rule="evenodd" stroke="#cca300" stroke-width=".2"/>
 <path d="m464.62 123.52-1.2048 1.2259-0.76978 1.7954-0.4017 0.0876-1.1715-2.0582-1.3387 0.044s-0.73646 2.4081-0.73646 2.4521c0 0.0436-0.5356-0.0876-0.5356-0.0876l-1.4057-2.0142s-0.43533-1.0075-0.36838-1.0075c0.067 0 3.5144 0.044 3.5144 0.044l-0.0333-2.1894s-0.5356-0.21917-0.8034-0.43795c0.20085-0.0876 1.9079-0.0876 1.9079-0.0876l-0.73646 0.65673v1.883l3.0458 0.0436 1.0376-0.34996z" fill="#cca300" fill-rule="evenodd" stroke="#cca300" stroke-width=".40014pt"/>
 <rect x="458.13" y="124.57" width=".80329" height="1.0509" rx=".33799" ry=".33158" fill="#663d19" fill-rule="evenodd" stroke-width="1pt"/>
 <rect x="461.94" y="124.35" width=".80329" height="1.0509" rx=".33799" ry=".33158" fill="#663d19" fill-rule="evenodd" stroke-width="1pt"/>
 <path d="m456.32 121.07c1.2718-0.67139 2.1754-1.2112 3.7486-1.401 1.4838-0.20451 2.6332 0.0729 3.9495 0.39396" fill="none" stroke="#cca300" stroke-width=".40014pt"/>
 <path d="m457.02 117.52h-1.0376l-1.4729-2.0582 0.83703 0.13159 0.97064 0.56914 0.70282 1.3574z" fill="#cca300" fill-rule="evenodd" stroke="#cca300" stroke-width=".40014pt"/>
 <path d="m463.28 116.73 2.343-2.3641-0.76979-0.13158-0.87035 1.0507-1.0376 0.21918 0.33476 1.2259z" fill="#cca300" fill-rule="evenodd" stroke="#cca300" stroke-width=".40014pt"/>
 <path d="m461.9 117.16-3.6726 0.17874 0.0333-0.52554 1.339-0.17518 0.16723-0.70032s0.4017-0.0436 0.4017 0c0 0.044 0.30113 0.65673 0.30113 0.65673l1.3054 0.30636 0.12481 0.25921z" fill="#cca300" fill-rule="evenodd" stroke="#cca300" stroke-width=".40014pt"/>
 <path d="m461.71 115.33-1.2718 0.0436-0.10058-0.91949 1.3723 0.8759z" fill="#cca300" fill-rule="evenodd" stroke="#cca300" stroke-width=".40014pt"/>
 <path d="m459.57 114.5-0.10058 0.9191-1.2381 0.26277 1.3387-1.1819z" fill="#cca300" fill-rule="evenodd" stroke="#cca300" stroke-width=".40014pt"/>
 <path d="m452.54 131.27 0.63587-2.1018-0.56892-1.445-0.56893 2.1458 0.50198 1.401z" fill="#cca300" fill-rule="evenodd" stroke="#cca300" stroke-width=".40014pt"/>
 <path d="m453.81 132.41 0.76977-2.4961-1.4726 2.0142 0.70284 0.48194z" fill="#cca300" fill-rule="evenodd" stroke="#cca300" stroke-width=".40014pt"/>
 <path d="m435.21 121.65-1.2308 0.40268 0.0472 2.9725-1.5147 0.43359-1.0594 2.6214 0.65405 0.81011c0.0336 0.0876-0.51591 1.9389-0.49228 1.9389 0.0236 0 0.4008 0.69835 0.4008 0.69835l0.4023 1.6103 1.0176 0.18548 0.26053 1.8889 1.6092 0.34045 1.4911 1.3935 0.0945 0.86718 1.7041 0.0618 1.16 0.49542 4.047-0.61947 0.54439-1.1145 0.0473-1.5172 2.1776-0.0931 0.19904-2.4196h1.1539l-0.14358-2.7248 0.96244 0.11336-0.24841-1.3059-0.59831-1.0634-0.11815-1.6717-1.7041-2.2294-0.37867-2.9107s-1.0888-0.65039-1.0888-0.6813c0-0.0309-0.0709-1.9508-0.0709-1.9508l1.2306-2.2603-0.11816-0.8977-1.136-0.0313-0.85218 0.92901s-1.136 0.15497-1.136 0.18588v0.6813s0.28416 1.2695 0.28416 1.3004c0 0.0309-1.3018 0-1.3018 0l-0.0475-2.0126-1.8458-1.2076s-1.7277 1.5481-1.7277 1.579c0 0.0309-0.0948 1.7962-0.0948 1.7962l-0.82825 0.30954-0.85217-1.6721-1.4911-0.74313-0.80462-0.0618-0.0236 1.3004 1.562 2.6939-0.14178 1.579z" fill="#fffa00" fill-rule="evenodd" stroke="#cca300" stroke-width=".40014pt"/>
 <path d="m446.81 132.54-0.33475-1.6202" fill="none" stroke="#cca300" stroke-width=".40014pt"/>
 <path d="m447.75 129.87-0.56893-1.0947" fill="none" stroke="#cca300" stroke-width=".40014pt"/>
 <path d="m432.15 128.64 1.774-0.13158 0.33475 2.1018 0.60225 0.70072 0.10058 3.8536 0.56893 0.30637 0.16753-1.5326 1.3723-0.13119 0.2675 3.1089-0.33445 0.39435 0.1339 0.48155 1.6398-0.0436s0.36837-0.8323 0.4017-0.8323c0.0336 0 0.93731-0.13119 0.93731-0.0876 0 0.044 0.36807 0.91989 0.36807 0.91989l0.2678-1.1827s0.87036-0.48155 0.87036-0.43756c0 0.0436 0.70282 1.4886 0.70282 1.4886l1.2048-0.21878-0.73615-0.9195-0.30143-2.0146 1.6735-1.1823 0.6695 1.489s0.63589 0.0436 0.60256 0c-0.0336-0.044-0.73646-1.7078-0.73646-1.7078v-3.5032l1.2721-2.277 1.7737-0.26277v-0.96349l-1.7737-2.1458-0.46865-2.9777-1.0043-0.65673-0.2678 0.39396-1.1045 0.13158 1.1045 2.1458v1.401l0.50229 0.35036-0.10059 3.8536s-1.2384 0.21878-1.2384 0.26277c0 0.0436-0.10027 2.1454-0.10027 2.1454l-0.76978 1.0075s-0.43533 2.0142-0.46866 2.0142c-0.0336 0-0.73645 1.2259-0.73645 1.2259l-1.3723 0.044s-0.8031-1.0071-0.8031-1.0511c0-0.0436-0.1339-1.4886-0.1339-1.4886s-0.5356-0.21917-0.56923-0.21917c-0.0333 0-0.30112-1.6202-0.30112-1.6202l-0.93731-0.70032-0.0667-0.96349-0.90397-0.52554s-0.10028-0.8759-0.13391-0.9195c-0.0333-0.044-0.43502-0.39396-0.46835-0.39396-0.0336 0-0.0336-2.4085-0.0336-2.4085l0.80341-0.17518-0.44988-0.76889-0.15267-0.67614v-0.70073l0.6695-0.8759s-1.2051-0.21877-1.2051-0.17518c0 0.044-1.1712 0.70072-1.1712 0.65713 0.0333 0-0.0336 2.8461-0.0336 2.8461l-1.3723 0.56953-1.1045 2.3206 0.56893 0.65712z" fill="#cca300" fill-rule="evenodd" stroke="#cca300" stroke-width=".40014pt"/>
 <path d="m439.08 132.54 0.90368-0.70072-0.0336-1.3574-0.87005-0.26277-0.33505-0.43795 0.97093 0.21917 1.2048-0.13158 0.4017-0.26277c-0.16723 0.56953-0.30113 0.52554-0.33475 0.52554-0.0333 0-0.6692 0.43795-0.6692 0.43795l0.0333 1.3138s2.0752 0.34996 2.0418 0.34996c-0.0336 0 0 0.52554-0.067 0.52554s-2.1421-0.61313-2.1421-0.61313l-1.3054 1.0511 0.20085-0.65673z" fill="#663d19" fill-rule="evenodd" stroke="#cca300" stroke-width=".2"/>
 <path d="m444.3 124.39-1.2048 1.2259-0.76979 1.7954-0.4017 0.0876-1.1715-2.0582-1.3387 0.044s-0.73645 2.4081-0.73645 2.4521c0 0.0436-0.5356-0.0876-0.5356-0.0876l-1.4057-2.0142s-0.43533-1.0075-0.36838-1.0075c0.067 0 3.5144 0.044 3.5144 0.044l-0.0333-2.1894s-0.5356-0.21918-0.8034-0.43795c0.20085-0.0876 1.9079-0.0876 1.9079-0.0876l-0.73646 0.65672v1.883l3.0458 0.0436 1.0376-0.34996z" fill="#cca300" fill-rule="evenodd" stroke="#cca300" stroke-width=".40014pt"/>
 <rect x="437.81" y="125.44" width=".80329" height="1.0509" rx=".33799" ry=".33158" fill="#663d19" fill-rule="evenodd" stroke-width="1pt"/>
 <rect x="441.63" y="125.22" width=".80329" height="1.0509" rx=".33799" ry=".33158" fill="#663d19" fill-rule="evenodd" stroke-width="1pt"/>
 <path d="m436 121.94c1.2718-0.67139 2.1754-1.2112 3.7486-1.401 1.4838-0.20451 2.6332 0.0729 3.9495 0.39396" fill="none" stroke="#cca300" stroke-width=".40014pt"/>
 <path d="m436.71 118.39h-1.0376l-1.4729-2.0582 0.83703 0.13158 0.97063 0.56914 0.70283 1.3574z" fill="#cca300" fill-rule="evenodd" stroke="#cca300" stroke-width=".40014pt"/>
 <path d="m442.96 117.61 2.343-2.3641-0.76978-0.13158-0.87036 1.0507-1.0376 0.21917 0.33476 1.2259z" fill="#cca300" fill-rule="evenodd" stroke="#cca300" stroke-width=".40014pt"/>
 <path d="m441.58 118.04-3.6726 0.17875 0.0333-0.52554 1.339-0.17518 0.16722-0.70032s0.40171-0.0436 0.40171 0c0 0.044 0.30112 0.65672 0.30112 0.65672l1.3054 0.30637 0.12481 0.2592z" fill="#cca300" fill-rule="evenodd" stroke="#cca300" stroke-width=".40014pt"/>
 <path d="m441.39 116.2-1.2718 0.0436-0.10059-0.9195 1.3723 0.8759z" fill="#cca300" fill-rule="evenodd" stroke="#cca300" stroke-width=".40014pt"/>
 <path d="m439.25 115.37-0.10058 0.9191-1.2381 0.26277 1.3387-1.1819z" fill="#cca300" fill-rule="evenodd" stroke="#cca300" stroke-width=".40014pt"/>
 <path d="m432.22 132.14 0.63588-2.1018-0.56893-1.445-0.56892 2.1458 0.50197 1.401z" fill="#cca300" fill-rule="evenodd" stroke="#cca300" stroke-width=".40014pt"/>
 <path d="m433.49 133.28 0.76978-2.4961-1.4726 2.0142 0.70283 0.48195z" fill="#cca300" fill-rule="evenodd" stroke="#cca300" stroke-width=".40014pt"/>
 <path d="m468.72 173.77 4.0676-62.954 24.998-19.181 19.324 27.93-12.878 60.651c-12.483-3.3995-19.605-4.8562-35.511-6.4468z" fill="#00298c" fill-rule="evenodd" stroke="#000082" stroke-width=".40014pt"/>
 <path d="m445.75 145.17-1.2308 0.40267 0.0472 2.9725-1.5147 0.43359-1.0594 2.6214 0.65405 0.81011c0.0336 0.0876-0.51591 1.9389-0.49228 1.9389 0.0236 0 0.4008 0.69834 0.4008 0.69834l0.4023 1.6103 1.0176 0.18549 0.26053 1.8889 1.6092 0.34045 1.4911 1.3935 0.0945 0.86718 1.7041 0.0618 1.16 0.49542 4.047-0.61947 0.54439-1.1145 0.0473-1.5172 2.1776-0.0931 0.19904-2.4196h1.1539l-0.14358-2.7248 0.96244 0.11335-0.24841-1.3059-0.59831-1.0634-0.11815-1.6717-1.704-2.2294-0.37868-2.9107s-1.0888-0.65039-1.0888-0.6813c0-0.0309-0.0709-1.9508-0.0709-1.9508l1.2306-2.2603-0.11816-0.8977-1.136-0.0313-0.85218 0.92901s-1.136 0.15496-1.136 0.18588v0.6813s0.28416 1.2695 0.28416 1.3004c0 0.0309-1.3018 0-1.3018 0l-0.0475-2.0126-1.8458-1.2076s-1.7277 1.5481-1.7277 1.579c0 0.0309-0.0948 1.7962-0.0948 1.7962l-0.82825 0.30954-0.85217-1.6721-1.4911-0.74313-0.80462-0.0618-0.0236 1.3004 1.562 2.6939-0.14178 1.579z" fill="#fffa00" fill-rule="evenodd" stroke="#cca300" stroke-width=".40014pt"/>
 <path d="m457.35 156.06-0.33475-1.6202" fill="none" stroke="#cca300" stroke-width=".40014pt"/>
 <path d="m458.29 153.39-0.56893-1.0947" fill="none" stroke="#cca300" stroke-width=".40014pt"/>
 <path d="m442.69 152.16 1.774-0.13159 0.33475 2.1018 0.60225 0.70072 0.10058 3.8536 0.56893 0.30636 0.16753-1.5326 1.3723-0.13119 0.2675 3.1088-0.33445 0.39436 0.1339 0.48154 1.6398-0.0436s0.36837-0.83231 0.4017-0.83231c0.0336 0 0.93731-0.13118 0.93731-0.0876 0 0.044 0.36807 0.9199 0.36807 0.9199l0.2678-1.1827s0.87036-0.48154 0.87036-0.43755c0 0.0436 0.70282 1.4886 0.70282 1.4886l1.2048-0.21877-0.73615-0.9195-0.30143-2.0146 1.6735-1.1823 0.6695 1.489s0.63589 0.0436 0.60256 0c-0.0336-0.044-0.73646-1.7078-0.73646-1.7078v-3.5032l1.2721-2.277 1.7737-0.26277v-0.96349l-1.7737-2.1458-0.46865-2.9777-1.0043-0.65672-0.2678 0.39395-1.1045 0.13159 1.1045 2.1458v1.401l0.50229 0.35036-0.10059 3.8536s-1.2384 0.21877-1.2384 0.26277c0 0.0436-0.10027 2.1454-0.10027 2.1454l-0.76978 1.0075s-0.43533 2.0142-0.46866 2.0142c-0.0336 0-0.73645 1.2259-0.73645 1.2259l-1.3723 0.044s-0.8031-1.0071-0.8031-1.0511c0-0.0436-0.1339-1.4886-0.1339-1.4886s-0.5356-0.21917-0.56923-0.21917c-0.0333 0-0.30112-1.6202-0.30112-1.6202l-0.93731-0.70032-0.0667-0.9635-0.90397-0.52554s-0.10028-0.8759-0.1339-0.91949c-0.0333-0.044-0.43503-0.39396-0.46836-0.39396-0.0336 0-0.0336-2.4085-0.0336-2.4085l0.80341-0.17518-0.44988-0.76889-0.15267-0.67615v-0.70072l0.6695-0.8759s-1.2051-0.21878-1.2051-0.17518c0 0.044-1.1712 0.70072-1.1712 0.65712 0.0333 0-0.0336 2.8461-0.0336 2.8461l-1.3723 0.56953-1.1045 2.3205 0.56893 0.65713z" fill="#cca300" fill-rule="evenodd" stroke="#cca300" stroke-width=".40014pt"/>
 <path d="m449.62 156.06 0.90368-0.70072-0.0336-1.3574-0.87005-0.26277-0.33505-0.43795 0.97093 0.21918 1.2048-0.13159 0.4017-0.26277c-0.16722 0.56954-0.30113 0.52554-0.33475 0.52554-0.0333 0-0.6692 0.43795-0.6692 0.43795l0.0333 1.3138s2.0752 0.34997 2.0418 0.34997c-0.0337 0 0 0.52554-0.067 0.52554s-2.1421-0.61313-2.1421-0.61313l-1.3054 1.0511 0.20085-0.65673z" fill="#663d19" fill-rule="evenodd" stroke="#cca300" stroke-width=".2"/>
 <path d="m454.84 147.91-1.2048 1.2259-0.76979 1.7954-0.4017 0.0876-1.1715-2.0582-1.3387 0.044s-0.73645 2.4081-0.73645 2.4521c0 0.0436-0.5356-0.0876-0.5356-0.0876l-1.4057-2.0142s-0.43533-1.0075-0.36838-1.0075c0.067 0 3.5144 0.044 3.5144 0.044l-0.0333-2.1894s-0.5356-0.21917-0.8034-0.43795c0.20085-0.0876 1.9079-0.0876 1.9079-0.0876l-0.73646 0.65673v1.883l3.0458 0.0436 1.0376-0.34997z" fill="#cca300" fill-rule="evenodd" stroke="#cca300" stroke-width=".40014pt"/>
 <rect x="448.35" y="148.96" width=".80329" height="1.0509" rx=".33799" ry=".33158" fill="#663d19" fill-rule="evenodd" stroke-width="1pt"/>
 <rect x="452.16" y="148.74" width=".80329" height="1.0509" rx=".33799" ry=".33158" fill="#663d19" fill-rule="evenodd" stroke-width="1pt"/>
 <path d="m446.54 145.46c1.2718-0.67139 2.1754-1.2112 3.7486-1.401 1.4838-0.20451 2.6332 0.0729 3.9495 0.39395" fill="none" stroke="#cca300" stroke-width=".40014pt"/>
 <path d="m447.24 141.91h-1.0376l-1.4729-2.0582 0.83703 0.13158 0.97063 0.56914 0.70283 1.3574z" fill="#cca300" fill-rule="evenodd" stroke="#cca300" stroke-width=".40014pt"/>
 <path d="m453.5 141.12 2.343-2.3641-0.76978-0.13159-0.87035 1.0507-1.0376 0.21917 0.33476 1.2259z" fill="#cca300" fill-rule="evenodd" stroke="#cca300" stroke-width=".40014pt"/>
 <path d="m452.12 141.56-3.6726 0.17875 0.0333-0.52554 1.339-0.17518 0.16723-0.70033s0.4017-0.0436 0.4017 0c0 0.044 0.30112 0.65673 0.30112 0.65673l1.3054 0.30637 0.12481 0.2592z" fill="#cca300" fill-rule="evenodd" stroke="#cca300" stroke-width=".40014pt"/>
 <path d="m451.93 139.72-1.2718 0.0436-0.10059-0.9195 1.3723 0.8759z" fill="#cca300" fill-rule="evenodd" stroke="#cca300" stroke-width=".40014pt"/>
 <path d="m449.78 138.89-0.10058 0.91911-1.2381 0.26277 1.3387-1.1819z" fill="#cca300" fill-rule="evenodd" stroke="#cca300" stroke-width=".40014pt"/>
 <path d="m442.76 155.66 0.63588-2.1018-0.56893-1.445-0.56892 2.1458 0.50197 1.401z" fill="#cca300" fill-rule="evenodd" stroke="#cca300" stroke-width=".40014pt"/>
 <path d="m444.03 156.8 0.76978-2.4961-1.4726 2.0142 0.70283 0.48194z" fill="#cca300" fill-rule="evenodd" stroke="#cca300" stroke-width=".40014pt"/>
 <path d="m474.91 162.49-1.253 1.9543 0.0963 1.6392 2.6023-0.063c0.83524-0.26276 1.044-0.65158 1.2048-1.1034 0.25692-0.55685 0.0803-0.86164 0.14455-1.6075l-2.795-0.81962z" fill="#de1818" fill-rule="evenodd" stroke="#e61717" stroke-width=".40014pt"/>
 <path d="m481.09 167.12-1.1488 1.1853-0.10646 1.5065 2.3076 0.22666c0.84995-0.15711 0.97561-0.34197 1.1675-0.77126 0.29499-0.52267 0.2146-0.52201 0.33107-1.2566l-2.5509-0.8906z" fill="#de1818" fill-rule="evenodd" stroke="#e61717" stroke-width=".40014pt"/>
 <path d="m491.35 163.18-1.2048 1.6392 0.0481 1.2608 2.4577 0.12603c0.83524-0.26277 0.70647-0.21005 0.96366-0.78791 0.25692-0.55686 0.17693-0.6726 0.24121-1.4185l-2.506-0.8196z" fill="#de1818" fill-rule="evenodd" stroke="#e61717" stroke-width=".40014pt"/>
 <path d="m498.53 166.15-1.3974 1.5758v1.5762l2.6022 0.3155c0.83523-0.26277 0.89951-0.58857 1.1085-0.97739 0.25685-0.55684 0.12843-0.60955 0.19264-1.3555l-2.5059-1.1347z" fill="#de1818" fill-rule="evenodd" stroke="#e61717" stroke-width=".40014pt"/>
 <path d="m481.03 124.92 4.9153 4.3502c0.924-1.0222 2.8462-0.40269 3.5989-0.1193 1.3517 0.47045 2.3045 1.5378 3.4851 1.8216 2.1593 0.72371 4.7464 1.2235 6.7059 0.9397 1.9598-0.28338 3.6057-1.6491 5.0522-2.642v-0.63019h-0.96365c-1.5644 0.75066-3.7565 0.79189-5.4351 0.49781-1.6786-0.29408-2.1309-1.2976-4.6366-2.2631l-0.19269-0.63058c3.0416 0.19261 3.6592 0.0876 4.9326-0.65275 1.2448-0.44074 1.8056-1.4042 2.5084-2.0697l-0.0197-0.74509-0.91577-0.063c-1.1797 1.0479-1.9316 1.2374-3.739 1.0166-1.6446-0.22197-3.126-1.4704-4.2294-1.4966-1.1702 0.0119-1.1151-0.73361-2.2469-0.80693-1.7992-0.21006-3.7438 0.10978-5.4463 0.65633-2.04 0.81961-2.3454 1.5128-3.3733 2.837z" fill="#de1818" fill-rule="evenodd" stroke="#c00" stroke-width=".40014pt"/>
 <path d="m481.99 123.95c0.47047 0.14268 0.99823 0.3234 1.3829 0.6155 0.38507 0.2921 0.28532 0.28616 0.69886 0.69003-0.0664-0.52197-0.0476-0.48472-0.31358-0.89492-0.26632-0.41061-0.70366-0.78355-1.0551-1.1197l-0.71312 0.70906z" fill="#8e3737" fill-rule="evenodd" stroke="#8f3636" stroke-width=".40014pt"/>
 <path d="m486.09 128.65c9e-3 -0.56556-0.20911-1.057-0.3708-1.5481-0.16149-0.49107-0.29478-0.90801-0.5989-1.3991 0.38013 0.14269 0.58944 0.36028 0.91269 0.87629 0.32292 0.51644 0.30418 1.0325 0.37052 1.772l-0.31351 0.29884z" fill="#8e3737" fill-rule="evenodd" stroke="#8f3636" stroke-width=".40014pt"/>
 <path d="m487.04 121.75c0.11416 0.39198 0.33807 0.66109 0.52769 1.4973 0.16395 0.7598 0.24209 1.8232 0.24209 1.8232-0.0618-0.56598 0.0476-1.2064-0.0142-1.7724-0.0618-0.56559-0.29479-1.057-0.35653-1.623l-0.399 0.0749z" fill="#8e3737" fill-rule="evenodd" stroke="#8f3636" stroke-width=".40014pt"/>
 <path d="m491.03 122.09 0.19963 3.1342 0.22838-2.9476-0.42801-0.18667z" fill="#8e3737" fill-rule="evenodd" stroke="#8f3636" stroke-width=".40014pt"/>
 <path d="m490.06 128.58c0.0951-0.50969 0.0761-1.0198 0.0285-1.5299-0.0475-0.50969-0.18084-0.94487-0.31379-1.5294 0.38019 0.43516 0.53255 0.98253 0.74158 1.5671 0 0.58419-0.11387 1.0939-0.45627 1.4922z" fill="#8e3737" fill-rule="evenodd" stroke="#8f3636" stroke-width=".40014pt"/>
 <path d="m494.19 127.2c0.0142 0 0.1215 1.0634-0.0603 1.8283-0.18173 0.76492-0.31015 0.8208-0.65254 1.2314 0.4562-0.44745 0.85554-0.59687 0.99816-1.082 0.1427-0.7463-0.22837-1.8655-0.28532-1.9777z" fill="#8e3737" fill-rule="evenodd" stroke="#8f3636" stroke-width=".40014pt"/>
 <path d="m494.91 126.19c-0.28504 0.0622-0.34205-1.5176-0.51314-2.2762 0.12362-0.0872 0.24724-0.0622 0.37079 0.29844 0.13295 0.21165 0.0949 1.3186 0.14235 1.9777z" fill="#8e3737" fill-rule="evenodd" stroke="#8f3636" stroke-width=".40014pt"/>
 <path d="m497.73 125.56 0.11428-1.306 0.31353-0.0372v1.1193c0 0.0376-0.399 0.26118-0.42781 0.22393z" fill="#8e3737" fill-rule="evenodd" stroke="#8f3636" stroke-width=".40014pt"/>
 <path d="m497.5 129.06c0.18084 0.3979 0.50382 0.87073 0.54196 1.3059 0.0382 0.43518-0.0666 0.64682-0.31358 1.3059l0.45627 0.0373c0.2469-0.52833 0.32326-0.90763 0.28539-1.3242-0.0382-0.41694-0.19057-0.8335-0.51348-1.1755l-0.45656-0.1494z" fill="#8e3737" fill-rule="evenodd" stroke="#8f3636" stroke-width=".40014pt"/>
 <path d="m500.9 129.4 0.11395 1.8279 0.37073-0.26119-0.0854-1.5667h-0.39926z" fill="#8e3737" fill-rule="evenodd" stroke="#8f3636" stroke-width=".40014pt"/>
 <path d="m480.73 125.24c-1.1123 0.42923-1.5147 1.2488-2.059 1.9571l-3.1343-2.1168c-0.50826 0.56241-0.70405 1.3658-0.45955 2.1882 0.24449 0.82201 1.2278 2.1089 1.9271 2.745-0.17515 1.1355-0.43322 1.9924-0.73892 2.9884-0.34081 1.1196-1.0724 2.5342-1.0936 2.9884-0.0418 0.52-0.16903 1.6341 0.41408 1.931 0.58353 0.29685 2.4593-0.20569 3.0852-0.1506-0.1018 0.44666-0.34542 1.2278-0.26241 1.5631 0.083 0.33532 0.25116 0.44709 0.76046 0.46651-0.14674 0.41495-0.46321 0.94089-0.31145 1.1886 0.39323 0.39674 0.84373 0.32815 1.2227 0.29725-0.22297 0.34474-0.57052 0.80835-0.94381 1.2954-0.62754 0.81882-1.3279 1.704-1.6316 2.2022-0.51252 0.92427-0.5565 1.9226 0.43694 1.8247-0.36963 0.54615-0.72499 1.0737-0.66833 1.5453 0.0855 0.5648 0.29842 0.94369 1.0084 0.61632-0.42012 1.2671-0.14413 2.4042 4e-3 3.7268-0.35872 1.0008-0.20635 1.9274-0.29539 3.0768-0.7307 0.5517-0.82159 1.2706-1.2966 2.38-0.42836 1.2009-1.2257 1.5287-1.668 4.1053l2.8674 0.95359c0.10537-0.52992 0.48042-0.87393 0.58593-1.4034 0.1051-0.5299 0.0969-1.1898 0.0457-1.7756 0.569-1.0986 1.7201-3.3681 2.09-4.5781 0.62613-0.44588 1.0815-0.72492 1.5514-0.72492 0.46985 0 0.76882 0.37179 1.2672 0.72492-0.22049 1.0198-0.83881 2.1319-0.87455 3.5607v3.9424c-0.12485 0.97935-0.96002 0.99241-1.3124 3.942l2.5759 0.89017c0.43741-0.99204 1.1302-1.1288 1.312-1.5259l0.18605-4.0957c0.32779-1.9334 2.3605-3.5318 2.3899-5.6323 0.72952-0.0131 1.0049 0.086 1.2941-0.11297 0.38877-0.18032 0.52199-0.47203 0.82562-0.83825 0.1169 0.63216 0.48983 0.68766 0.80581 0.68766 0.31571 0 0.94396-0.59452 1.2033-0.83628 0.18242 0.34282 0.27901 0.66702 0.66009 0.78673 0.38116 0.1197 1.4581-0.0951 1.8962-0.23583l-2.1167 4.6181c-0.079 0.44507 0.0267 0.72291-0.13748 1.2425-0.15394 0.46649-0.4641 0.69121-0.60384 1.1208l2.3996 0.76451 0.38294-1.3475c0.50868-0.28576 0.91824-0.44152 1.1854-0.8759 0.26713-0.43437 0.2648-1.2596 0.41833-1.7312 0.8198-0.79348 2.1082-2.5164 3.0131-3.942 0.61433 0.13831 1.4844 0.81565 1.8147 1.8279 0.0463 1.086 0.10634 3.0831-0.25939 4.4667l-1.5553 3.2428-0.17631 0.53188 2.4484 1.1633 1.5553-1.5897 0.0607-2.2674c0.78124-1.8398 1.8991-2.8453 2.9646-4.0054 0-0.0638 0.1136-2.4351 0.0709-2.5278-0.26323-0.26713-0.44105-0.1066-0.53407-0.59687-0.0927-0.48987-0.0294-1.835 0.0199-2.3622 0.15387-0.25445 0.47836-0.54655 0.46169-0.76375-0.42376-0.62026-0.2941-2.2258-0.16424-3.4778-0.0318-1.4256 1.4285-3.1112 1.6524-3.942l0.0912-1.4966c-0.14935-0.36781-0.36929-0.58699-0.37656-0.8993-7e-3 -0.31193 0.28381-0.82872 0.46169-1.1597l0.30954-0.7043-0.0485-3.6879c-0.0867-0.39833-0.34384-1.0194-0.58682-1.0832-0.24327-0.0634-0.59979 0.30083-0.87126 0.70151l-1.4071 1.3852c-0.67471 0.27505-1.2643 0.38325-2.4503-0.0107l-1.8092 0.048c-0.94999 0.35392-1.4456 0.411-2.3391-0.10859l-1.0712 0.023c-0.33382 0.24258-0.79585 0.63296-1.1581 0.72651-0.36201 0.0931-0.85218 0.11216-1.2145-0.0361-2.7654 0.24812-2.0785 0.51446-2.869 0.74393-0.63464-0.16053-0.43103-0.58104-2.8979-0.61193l-0.97792-0.38168c-1.2339-1.0903-2.1839-2.831-3.0058-4.8321 2.5702-0.98173 3.6487-2.0011 4.4285-4.3395l-3.6344 0.18113-5.1395-4.5543z" fill="#fffa00" fill-rule="evenodd" stroke="#efd608" stroke-width=".40014pt"/>
 <path d="m479.44 131.22 1.029 0.58142c0.12575 0.19936 0.3693 0.42923 0.53051 0.44272 0.1608 0.0131 0.298-0.20572 0.43556-0.36266l0.94739-0.66148c-0.56137-0.10819-0.73254-0.57271-1.3293-0.57271-0.59683 0-1.0164 0.41774-1.6132 0.57271z" fill="#664c00" fill-rule="evenodd" stroke="#664c00" stroke-width=".40014pt"/>
 <path d="m481.33 147.41c-4.1e-4 0.11337-0.14269 0.19621-0.21424 0.0618-0.0882-1.6083-0.35385-2.7367-0.72582-3.9891 0.41978 0.95279 0.76856 2.4942 0.94006 3.9273z" fill="#cca300" fill-rule="evenodd" stroke="#cca300" stroke-width=".40014pt"/>
 <path d="m487.37 147.58c0.21089 0.0773 0.50477 0.0777 0.57351-0.1082 0.0893-0.34481-0.17664-0.72054-0.27625-1.1426-0.34686-0.90642-0.53929-1.8897-0.68445-2.3158-0.15257-0.1284-0.31715-0.11692-0.28079 0.0955 0.19908 0.80615 0.54018 3.1604 0.66798 3.4711z" fill="#cca300" fill-rule="evenodd" stroke="#cca300" stroke-width=".40014pt"/>
 <path d="m490.69 147.09c0.0228 0.1954-0.4752-0.0888-0.55917-0.31114-7e-3 -0.4316-0.67773-3.5884-0.56679-3.7105 0.1409-0.0919 0.57769 1.055 0.71853 1.583 0.0331 0.3123 0.32689 1.4605 0.40743 2.4386z" fill="#cca300" fill-rule="evenodd" stroke="#cca300" stroke-width=".40014pt"/>
 <path d="m490.22 153.6c-0.0118 0.22075 0.37868 0.0392 0.53256-0.12682 0.44619-0.93021 0.99906-1.9068 1.1615-2.2793 0.0978-0.39833 0.58622-2.9329 0.43556-2.9127-0.0532-0.0733-0.47795 1.2572-1.0263 2.5702-0.57049 1.3372-1.1094 2.6206-1.1033 2.7486z" fill="#cca300" fill-rule="evenodd" stroke="#cca300" stroke-width=".40014pt"/>
 <path d="m493.54 152.24c-0.16245 0.10423 0.32593-2.1913 0.36468-2.598 0.0894-0.64285 0.21383-1.7966 0.40962-3.2908 0.23902 2.0867-0.043 4.3284-0.7743 5.8888z" fill="#cca300" fill-rule="evenodd" stroke="#cca300" stroke-width=".40014pt"/>
 <path d="m495.54 145.21c-0.10661 0.12406-1.5347-3.024-1.4035-3.0395 0.0367-0.13952 1.1969 1.9702 1.3626 2.3416 0.0691 0.17598 0.13756 0.44469 0.0409 0.69795z" fill="#cca300" fill-rule="evenodd" stroke="#cca300" stroke-width=".40014pt"/>
 <path d="m498.88 147.55c-0.1066-0.1074-0.064-1.1125-0.27544-2.2163-0.21109-1.1038-0.57043-2.1676-0.49921-2.4696 0.0667-0.15893 0.29903-0.0856 0.48412 0.12683 0.0882 0.60044 0.29444 2.9043 0.53654 4.4029-3e-3 0.14505-0.12458 0.24374-0.24601 0.15616z" fill="#cca300" fill-rule="evenodd" stroke="#cca300" stroke-width=".40014pt"/>
 <path d="m501.22 144.75c-0.11422-0.16211 0.31015 1.0808 0.6192 2.5576 0.30899 1.4771 0.46719 4.0862 0.54231 3.9007 0.21232-0.18786 0.17623-0.42209 0.50704-0.51722 0.33059-0.0947 1.5608 0.0579 1.4893-0.0523-0.761-0.90407-1.4629-1.6536-1.9873-2.6349-0.52412-0.98133-0.87098-2.2726-1.1706-3.2539z" fill="#cca300" fill-rule="evenodd" stroke="#cca300" stroke-width=".40014pt"/>
 <path d="m504.51 180.34 12.96-60.916 27.509-14.778 14.589 32.896-20.881 56.55c-11.811-5.9529-18.566-9.1331-34.176-13.752z" fill="none" stroke-opacity=".99608" stroke-width="1pt"/>
 <path d="m513.1 140.05c7.0566 1.988 13.589 4.2503 20.121 7.0607 6.532 2.8104 12.75 6.1694 19.073 9.8026l-10.585 28.518c-5.908-2.9983-11.742-5.4151-17.575-7.9283-5.8335-2.5136-11.519-4.7366-17.426-7.1531l6.3924-30.3z" fill="#fff" fill-rule="evenodd" stroke="#fff" stroke-width=".40014pt"/>
 <path d="m511.69 146.79s9.8554 2.9325 19.405 7.0286c9.55 4.0957 18.868 9.3547 18.831 9.3547-0.0742 0-6.0025 16.287-6.0025 16.287-5.755-3.0538-11.807-5.9141-17.784-8.4832-5.9776-2.5691-11.955-5.041-18.081-6.9315l3.6311-17.256z" fill="#de1818" fill-rule="evenodd" stroke="#e61717" stroke-width=".40014pt"/>
 <path d="m512.51 154.76c0.96942-0.72212 1.6259-0.91712 2.1479-2.1073l3.4899 4e-4 0.0451 1.6971c0.85759 0.54654 1.3572 1.1518 2.2148 1.6979 0.85766 0.54654 2.0734 1.034 2.931 1.5806l7.5172 0.87826c1.0067 0.21443 2.4611 0.78039 3.3336 1.4633 0.87249 0.68329 1.432 1.5418 1.9019 2.6344 1.5435 0.72214 3.0876 1.1514 4.6759 1.4637 1.5888 0.31192 3.5797 0.44864 5.1234 0.52674 0.76067 0.35154 0.76067 0.87827 0.40263 1.405 0 0-0.85038 1.5366-3.1715 1.5512-2.3211 0.0147-4.9501-1.7268-6.091-1.4926 0.0449 0.93654 1.2531 2.8687 2.6402 3.6296l-0.0445 4.4485-0.62675 0.76135-0.67107-0.58538c0.53716-1.0535 0.35776-2.2833 0.13419-3.3368-0.51466-0.99521-0.58161-1.405-1.5434-1.4633-1.1412-0.29329-1.9692-0.70309-3.4233-2.0494l-0.53709 0.11732c-0.31324 0.74156-0.62654 1.2489-1.3423 1.6975l-1.4766-0.11691s-3.4009-0.99521-3.4009-1.0539c0-0.0583-0.0447-0.70231 0.0449-0.76096 0.0894-0.0587 1.1633-0.0582 1.2526-0.0582 0.71619 0.29248 2.2376 0.29248 2.2376 0.29248l-0.045-1.6979 2.2821-0.17556c-0.46232-2.1073-0.61166-3.454-2.7296-3.9221l-6.6226 0.23424 0.0896 1.2294c-1.6556-0.29288-4.6535-0.34519-6.1848 0.33135-0.89498 0.11734-2.1828 0.72214-2.7644 0.72214l-0.67134-0.23385c-0.44743-0.17557-0.44743-0.35115-0.26845-0.87828 2.8637-0.29289 3.3114-0.5854 4.1616-1.1121 0.0448-0.35116-0.31331-1.1125-0.44742-1.1712-1.7898-0.11691-3.2218 0.0587-3.7138-0.0583-0.76074-0.29289-1.7901-0.81964-1.7901-0.87829 0-0.0586-0.13419-0.93653-0.0894-0.93653 0.0445 0 1.1636 0.40981 1.2078 0.40981 1.2084 0.2925 3.3115 0.17558 3.8038-0.17557l0.0448-1.2881c-0.0448-0.5854-0.35811-1.1121-0.44777-1.1708-0.0894-0.0586-1.9689-0.35114-2.6402-0.35114-1.0889-0.25366-0.92463-0.97577-0.93944-1.6979z" fill-rule="evenodd" stroke="#000" stroke-width=".40014pt"/>
 <path d="m526.97 165.18c1.0143 0.42925 1.7601 0.56559 3.2666 0.7023l2.2821-0.17556c-0.46231-2.1073-0.61165-3.454-2.7296-3.9221l-6.6226 0.23424 0.0896 1.2294c2.0138 0.99482 2.998 1.5414 3.7138 1.9318z" fill="#fff" fill-rule="evenodd" stroke="#000" stroke-width=".40014pt"/>
 <path d="m395.45 180.33-11.968-59.48 18.263-29.503 25.608 19.495 4.3407 63.029c-13.067 1.2914-21.532 2.9683-36.243 6.459z" fill="#00298c" fill-rule="evenodd" stroke="#000082" stroke-width=".40014pt"/>
 <path d="m352.62 130.76 4.3818 4.5438-0.82074 7.9466 5.6422-3.1286 4.4762 4.536 0.61291-7.309 4.631-2.4258-3.8291-4.899 0.85192-7.2662s-5.5674 2.6878-5.5703 2.626c-3e-3 -0.0617-4.0008-4.5126-4.0454-4.4469-0.0443 0.0656-0.91625 6.8994-0.91625 6.8994l-5.4143 2.9238z" fill="#fffa00" fill-rule="evenodd" stroke="#ffc700" stroke-width=".5"/>
 <path d="m352.72 130.81 18.776 4.0514-4.6728 2.5528-4.512-4.2849s4.0296 11.335 3.9796 11.277c-0.05-0.0579-4.2702-4.1808-4.4206-4.3544l0.39378-6.9191s-5.9886 10.044-5.9915 9.9822c-3e-3 -0.0621 0.87083-7.8888 0.87083-7.8888l-4.4234-4.4165z" fill="#ffc500" fill-rule="evenodd" stroke-width="1pt"/>
 <path d="m357.97 127.98 4.3517 4.9187-3.3938-11.945-0.95787 7.0267z" fill="#ffc700" fill-rule="evenodd" stroke-width="1pt"/>
 <path d="m362.93 125.63c0.05 0.0585-0.66607 7.2603-0.61891 7.2564 0.43826-0.78805 6.2332-9.9754 6.1863-9.9715-0.0475 4e-3 -5.4702 2.7697-5.5674 2.7152z" fill="#ffc700" fill-rule="evenodd" stroke-width="1pt"/>
 <path d="m531.53 120.66 1.1034 7.1778-4.5424 5.3886 5.846 2.3702 1.1792 7.2515 4.0697-5.0762 4.7282 2.0541-0.50664-6.9828 4.2308-4.8416s-5.5717-2.6445-5.5435-2.6941c0.0283-0.0497-0.82803-6.832-0.89444-6.8196-0.0662 0.0127-4.0992 4.5065-4.0992 4.5065l-5.5712-2.3345z" fill="#fffa00" fill-rule="evenodd" stroke="#ffc700" stroke-width=".40014pt"/>
 <path d="m531.58 120.78 12.327 18.956-4.8227-1.9923-1.3303-7.0896s-2.5123 12.078-2.5219 11.991c-0.01-0.0865-1.1971-6.8057-1.2263-7.0655l3.7103-4.9628s-9.5183 2.6296-9.4901 2.58c0.0285-0.0499 4.5522-5.3021 4.5522-5.3021l-1.1979-7.1155z" fill="#ffc700" fill-rule="evenodd"/>
 <path d="m537.07 122.96 0.89553 7.4392 3.298-12.008-4.1936 4.5688z" fill="#ffc700" fill-rule="evenodd" stroke-width="1pt"/>
 <path d="m542.03 125.32c0.01 0.0865-4.051 4.9395-4.0131 4.9764 0.7188-0.2271 9.6229-2.2959 9.5852-2.3325-0.0382-0.0371-5.5245-2.5205-5.5721-2.6439z" fill="#ffc700" fill-rule="evenodd" stroke-width="1pt"/>
 <path d="m383.57 121.08c6.5-4.1434 13.795-7.3759 21.489-8.7856 7.3948-1.4103 14.796-1.5324 22.39-1.5108 0 0 0.99485 15.51 0.99485 15.64-5.9692 0.065-10.418-0.0828-20.948 1.7336-10.471 1.9365-14.784 3.596-21.151 6.85l-2.775-13.927z" fill="#de1818" fill-rule="evenodd" stroke="#e61717" stroke-width=".40014pt"/>
 <path d="m389.13 148.54c-0.0997 0 3.2885 16.407 3.2885 16.407 6.2512-2.1042 12.602-3.6879 18.952-4.8809 6.3506-1.193 13.104-1.8727 19.256-2.4149l-1.0891-16.002c-6.4833-0.52079-13.872-0.52079-20.555 0.65038-6.6823 1.1716-13.171 3.2472-19.853 6.2407z" fill="#de1818" fill-rule="evenodd" stroke="#e61717" stroke-width=".40014pt"/>
 <path d="m359.29 199.2h181.42v155.13c-4.6114 60.416-48.156 105.58-87.945 105.23-42.952 2.4989-90.449-44.386-93.874-105.75l0.39528-154.62z" fill="#fff" fill-rule="evenodd" stroke="#de1818" stroke-width="1.6006"/>
 <path d="m363.07 204.63h173.86v148.67c-4.4193 57.898-46.149 101.18-84.28 100.85-41.161 2.3947-86.679-42.536-89.961-101.34l0.3788-148.17z" fill="#de1818" fill-rule="evenodd" stroke="#de1818" stroke-width="1.5339"/>
 <rect id="a" x="398.08" y="205.42" width="34.575" height="49.557" ry="0" fill="#fff" fill-rule="evenodd" stroke-width="1pt"/>
 <use transform="matrix(-1 0 0 1 899.76 .065955)" width="1200" height="600" xlink:href="#b"/>
 <use transform="matrix(-1 0 0 1 900 0)" width="1200" height="600" xlink:href="#c"/>
 <path id="c" d="m398.32 403.88 0.072 26.284c11.778 11.087 25.229 17.818 34.188 20.313l-0.11553-46.58-34.144-0.0174z" fill="#fff" fill-rule="evenodd" stroke="#fff" stroke-width=".40676pt"/>
 <path id="b" d="m363.7 354.37c1.0984 19.188 7.568 36.379 14.029 48.416l20.164 0.5602 4e-3 -48.997-34.197 0.0209z" fill="#fff" fill-rule="evenodd" stroke="#fff" stroke-width=".41002pt"/>
 <use transform="translate(-34.575 49.557)" width="1200" height="600" xlink:href="#a"/>
 <use transform="translate(34.575 49.557)" width="1200" height="600" xlink:href="#a"/>
 <use transform="translate(69.149)" width="1200" height="600" xlink:href="#a"/>
 <use transform="translate(103.72 49.557)" width="1200" height="600" xlink:href="#a"/>
 <use transform="translate(0 99.113)" width="1200" height="600" xlink:href="#a"/>
 <use transform="translate(69.149 99.113)" width="1200" height="600" xlink:href="#a"/>
 <use transform="translate(34.575 148.67)" width="1200" height="600" xlink:href="#a"/>
 <path d="m484.17 146.85c-0.11521 0.18489-0.38716-2.1736-0.47875-2.5648-0.11924-0.63419-0.36596-1.7524-0.65399-3.2198 0.86826 1.765 1.311 3.96 1.1327 5.7846z" fill="#cca300" fill-rule="evenodd" stroke="#cca300" stroke-width=".40014pt"/>
</svg>
