<?xml version="1.0" encoding="UTF-8"?>
<svg viewBox="0 0 1062.988556693 744.09447" xmlns="http://www.w3.org/2000/svg">
 <path transform="matrix(-1 0 0 -1 -.00076294 35.434)" d="m-1063-708.66h1063v744.09h-1063z" fill="#fff" fill-rule="evenodd" stroke="#000" stroke-width="1.2809"/>
 <path transform="translate(44.874 -775.92)" d="m495.86 1148a163.79 163.79 0 1 0 -327.58 0 163.79 163.79 0 1 0 327.58 -0.00423l-163.79 0.00423z" fill="#fff" fill-rule="evenodd"/>
 <path transform="matrix(.92857 0 0 .93842 64.911 23.355)" d="m733.7 381.73a227.74 227.74 0 1 0 -455.48 0 227.74 227.74 0 1 0 455.48 4.2e-4l-227.74-4.2e-4z" fill="#c70000" fill-rule="evenodd"/>
 <path transform="matrix(.65401,-.75649,.75649,.65401,0,0)" d="m-71.978 197.21h186.23v38.143h-186.23z" fill-rule="evenodd"/>
 <path transform="matrix(.65401,-.75649,.75649,.65401,0,0)" d="m-71.978 249.94h186.23v38.143h-186.23z" fill-rule="evenodd"/>
 <path transform="matrix(.65401,-.75649,.75649,.65401,0,0)" d="m-71.978 197.21h186.23v38.143h-186.23z" fill-rule="evenodd"/>
 <path transform="matrix(.65401,-.75649,.75649,.65401,0,0)" d="m-71.978 197.21h186.23v38.143h-186.23z" fill-rule="evenodd"/>
 <path transform="matrix(.65401,-.75649,.75649,.65401,0,0)" d="m-71.978 303.79h186.23v38.143h-186.23z" fill-rule="evenodd"/>
 <path transform="matrix(.65401,-.75649,.75649,.65401,0,0)" d="m-71.978 197.21h186.23v38.143h-186.23z" fill-rule="evenodd"/>
 <path transform="matrix(.65401,-.75649,.75649,.65401,0,0)" d="m-71.978 197.21h186.23v38.143h-186.23z" fill-rule="evenodd"/>
 <path transform="rotate(49.544)" d="m579.26-613.77h186.23v38.143h-186.23z" fill-rule="evenodd"/>
 <path transform="rotate(49.544)" d="m579.26-507.19h186.23v38.143h-186.23z" fill-rule="evenodd"/>
 <path d="m781.94 193.26 114.43-98.724 21.315 24.681-122.28 109.94-13.462-35.899z" fill="#fff" fill-rule="evenodd"/>
 <path transform="matrix(-.64282,.76602,-.76881,-.63948,0,0)" d="m-174.15-1054.5h182.13v37.333h-182.13z" fill-rule="evenodd"/>
 <path transform="rotate(49.544)" d="m579.26-561.04h186.23v38.143h-186.23z" fill-rule="evenodd"/>
 <path transform="matrix(-.64282,.76602,-.76881,-.63948,0,0)" d="m-174.15-1106.1h182.13v37.333h-182.13z" fill-rule="evenodd"/>
 <path transform="matrix(-.64282,.76602,-.76881,-.63948,0,0)" d="m-174.15-1001.8h182.13v37.333h-182.13z" fill-rule="evenodd"/>
 <path d="m326.33 343.92c6.685 53.827 16.446 113.81 99.285 120.04 31.049 1.86 91.449-7.386 112.19-91.992 27.206-81.276 109.15-104.64 164.91-60.581 31.617 20.623 40.365 53.379 42.631 77.969-2.531 78.967-47.858 147.33-106.02 177.82-66.869 39.743-159.49 40.577-240.64-19.632-36.58-34.323-87.671-97.573-72.36-203.62z" fill="#3d5897" fill-rule="evenodd"/>
 <path d="m808.66 538.87 114.62 98.501-21.242 24.744-126.88-104.6 33.502-18.644z" fill="#fff" fill-rule="evenodd"/>
 <path transform="matrix(.64886 .76091 -.76091 .64886 1.5866 4.7597)" d="m501.7 204.77h186.23v38.143h-186.23z" fill-rule="evenodd"/>
 <path transform="translate(1.5866 4.7597)" d="m148.9 631.15 114.43-98.724 21.315 24.681-122.28 109.94-13.462-35.899z" fill="#fff" fill-rule="evenodd"/>
 <path transform="matrix(.64886 .76091 -.76091 .64886 1.5866 4.7597)" d="m501.7 152.04h186.23v38.143h-186.23z" fill-rule="evenodd"/>
 <path transform="matrix(.64886 .76091 -.76091 .64886 1.5866 4.7597)" d="m501.7 258.62h186.23v38.143h-186.23z" fill-rule="evenodd"/>
</svg>
