<?xml version="1.0" encoding="UTF-8"?>
<svg viewBox="0 0 992.12596 496.06298" xmlns="http://www.w3.org/2000/svg">
 <g transform="matrix(.93322,0,0,.70039,0,-.27238)" fill-rule="evenodd">
  <path d="m0 0h1063v708.66h-1063z" fill="#e80008"/>
  <path d="m0 50.619h1063v50.619h-1063z" fill="#fff"/>
  <path d="m0 151.86h1063v50.619h-1063z" fill="#fff"/>
  <path d="m0 253.09h1063v50.619h-1063z" fill="#fff"/>
  <path d="m0 354.33h1063v50.619h-1063z" fill="#fff"/>
  <path d="m0 455.57h1063v50.619h-1063z" fill="#fff"/>
  <path d="m0 556.81h1063v50.619h-1063z" fill="#fff"/>
  <path transform="translate(0 -2.397e-5)" d="m0 658.04h1063v50.619h-1063z" fill="#fff"/>
  <path d="m0-0.90899h528.08v405.79h-528.08z" fill="#000689"/>
 </g>
 <path transform="matrix(.73825 0 0 .73825 60.801 -3.7082)" d="m256.54 331.01c-71.823 39.966-161.61 12.96-200.42-59.428s-12.014-162.88 59.809-202c44.409-24.185 93.185-24.665 137.5-0.8765-25.007-6.0191-47.337-5.6955-71.602 1.5127-70.682 20.998-111.31 96.456-90.693 168.44s94.72 113.35 165.4 92.356z" fill="#fe0" fill-rule="evenodd"/>
 <path transform="matrix(.82497 0 0 .82497 33.906 -26.226)" d="m337.04 329.31-10.51-77.34-44.416 64.181 24.087-74.241-67.864 38.553 53.913-56.438-77.871 5.29 73.062-27.457-72.454-29.021 77.739 6.963-52.687-57.584 67.019 40.003-22.485-74.741 43.026 65.12 12.171-77.095 10.51 77.339 44.416-64.18-24.087 74.241 67.864-38.553-53.913 56.438 77.871-5.29-73.062 27.456 72.454 29.022-77.739-6.963 52.688 57.583-67.02-40.003 22.485 74.742-43.026-65.121-12.171 77.096z" fill="#fe0" fill-rule="evenodd"/>
</svg>
