<?xml version="1.0" encoding="UTF-8"?>
<svg version="1.0" viewBox="0 0 900 600" xmlns="http://www.w3.org/2000/svg">
 <rect x=".042135" width="899.92" height="600" fill="#fc3d32"/>
 <rect x="225.02" y="400" width="674.94" height="200" fill="#009543"/>
 <rect x="225.02" width="674.94" height="200" fill="#fff"/>
 <rect x="146.84" y="103.52" width="28.999" height="21.217" rx="3.2154" ry="3.0152" fill="#fff" fill-rule="evenodd" stroke="#ef2d28" stroke-width=".28333pt"/>
 <rect x="147.58" y="104.41" width="27.512" height="19.449" rx="3.0505" ry="2.764" fill="#fff" fill-rule="evenodd" stroke="#ef2d28" stroke-width=".26422pt"/>
 <path d="m160.37 109.71 1.3897 0.0647 0.0631 0.83879 1.137 0.77426 0.88432-0.96786 1.0738 0.77426-1.0106 0.83893 0.25267 1.1615 1.2632-0.0645v1.5487l-1.0106-0.0645-0.50533 0.96786 1.137 1.0969-0.88432 0.90333-0.94748-0.96786-1.3897 0.3872 0.0631 1.4196-1.516 0.12907-0.18949-1.3551-1.2633-0.70987-0.69482 0.96786-1.0738-0.70972 0.63166-1.0969-0.75799-0.70987h-1.0738l-0.0632-2.0003 1.0738 0.12907 0.75799-1.1615-0.88431-0.90333 1.137-1.0324 0.82115 0.83879 1.3896-0.25814 0.18949-0.83893z" fill="#fff" fill-rule="evenodd" stroke="#ef2d28" stroke-width=".16681pt"/>
 <ellipse transform="matrix(.13812 0 0 .1752 151.27 39.13)" cx="68.944" cy="426.78" rx="11.049" ry="9.9439" fill="#fff" fill-rule="evenodd" stroke="#ef2d28" stroke-width="1.1548pt"/>
 <path d="m151.3 105.29-2.2307 2.6521" fill="#fff" fill-rule="evenodd" stroke="#ef2d28" stroke-width=".26422pt"/>
 <path d="m152.78 105.29-2.2307 2.6521" fill="#fff" fill-rule="evenodd" stroke="#ef2d28" stroke-width=".26422pt"/>
 <path d="m154.27 105.29-2.2307 2.6521" fill="#fff" fill-rule="evenodd" stroke="#ef2d28" stroke-width=".26422pt"/>
 <path d="m155.76 105.29-2.2307 2.6521" fill="#fff" fill-rule="evenodd" stroke="#ef2d28" stroke-width=".26422pt"/>
 <path d="m157.25 105.29-2.2307 2.6521" fill="#fff" fill-rule="evenodd" stroke="#ef2d28" stroke-width=".26422pt"/>
 <path d="m158.73 105.29-2.2307 2.6521" fill="#fff" fill-rule="evenodd" stroke="#ef2d28" stroke-width=".26422pt"/>
 <path d="m160.22 105.29-2.2307 2.6521" fill="#fff" fill-rule="evenodd" stroke="#ef2d28" stroke-width=".26422pt"/>
 <path d="m161.71 105.29-2.2307 2.6521" fill="#fff" fill-rule="evenodd" stroke="#ef2d28" stroke-width=".26422pt"/>
 <path d="m163.19 105.29-2.2307 2.6521" fill="#fff" fill-rule="evenodd" stroke="#ef2d28" stroke-width=".26422pt"/>
 <path d="m164.68 105.29-2.2307 2.6521" fill="#fff" fill-rule="evenodd" stroke="#ef2d28" stroke-width=".26422pt"/>
 <path d="m166.17 105.29-2.2307 2.6521" fill="#fff" fill-rule="evenodd" stroke="#ef2d28" stroke-width=".26422pt"/>
 <path d="m167.66 105.29-2.2307 2.6521" fill="#fff" fill-rule="evenodd" stroke="#ef2d28" stroke-width=".26422pt"/>
 <path d="m161.71 105.29-2.2307 2.6521" fill="#fff" fill-rule="evenodd" stroke="#ef2d28" stroke-width=".26422pt"/>
 <path d="m169.14 105.29-2.2307 2.6521" fill="#fff" fill-rule="evenodd" stroke="#ef2d28" stroke-width=".26422pt"/>
 <path d="m170.63 105.29-2.2307 2.6521" fill="#fff" fill-rule="evenodd" stroke="#ef2d28" stroke-width=".26422pt"/>
 <path d="m172.12 105.29-2.2307 2.6521" fill="#fff" fill-rule="evenodd" stroke="#ef2d28" stroke-width=".26422pt"/>
 <path d="m173.6 105.29-2.2307 2.6521" fill="#fff" fill-rule="evenodd" stroke="#ef2d28" stroke-width=".26422pt"/>
 <path d="m171.37 105.29 2.2307 2.6521" fill="#fff" fill-rule="evenodd" stroke="#ef2d28" stroke-width=".26422pt"/>
 <path d="m169.89 105.29 2.2307 2.6521" fill="#fff" fill-rule="evenodd" stroke="#ef2d28" stroke-width=".26422pt"/>
 <path d="m168.4 105.29 2.2307 2.6521" fill="#fff" fill-rule="evenodd" stroke="#ef2d28" stroke-width=".26422pt"/>
 <path d="m166.91 105.29 2.2307 2.6521" fill="#fff" fill-rule="evenodd" stroke="#ef2d28" stroke-width=".26422pt"/>
 <path d="m165.42 105.29 2.2307 2.6521" fill="#fff" fill-rule="evenodd" stroke="#ef2d28" stroke-width=".26422pt"/>
 <path d="m163.94 105.29 2.2307 2.6521" fill="#fff" fill-rule="evenodd" stroke="#ef2d28" stroke-width=".26422pt"/>
 <path d="m162.45 105.29 2.2307 2.6521" fill="#fff" fill-rule="evenodd" stroke="#ef2d28" stroke-width=".26422pt"/>
 <path d="m160.96 105.29 2.2307 2.6521" fill="#fff" fill-rule="evenodd" stroke="#ef2d28" stroke-width=".26422pt"/>
 <path d="m159.48 105.29 2.2307 2.6521" fill="#fff" fill-rule="evenodd" stroke="#ef2d28" stroke-width=".26422pt"/>
 <path d="m157.99 105.29 2.2307 2.6521" fill="#fff" fill-rule="evenodd" stroke="#ef2d28" stroke-width=".26422pt"/>
 <path d="m156.5 105.29 2.2307 2.6521" fill="#fff" fill-rule="evenodd" stroke="#ef2d28" stroke-width=".26422pt"/>
 <path d="m155.01 105.29 2.2307 2.6521" fill="#fff" fill-rule="evenodd" stroke="#ef2d28" stroke-width=".26422pt"/>
 <path d="m160.96 105.29 2.2307 2.6521" fill="#fff" fill-rule="evenodd" stroke="#ef2d28" stroke-width=".26422pt"/>
 <path d="m153.53 105.29 2.2307 2.6521" fill="#fff" fill-rule="evenodd" stroke="#ef2d28" stroke-width=".26422pt"/>
 <path d="m152.04 105.29 2.2307 2.6521" fill="#fff" fill-rule="evenodd" stroke="#ef2d28" stroke-width=".26422pt"/>
 <path d="m150.55 105.29 2.2307 2.6521" fill="#fff" fill-rule="evenodd" stroke="#ef2d28" stroke-width=".26422pt"/>
 <path d="m149.07 105.29 2.2307 2.6521" fill="#fff" fill-rule="evenodd" stroke="#ef2d28" stroke-width=".26422pt"/>
 <path d="m151.3 120.32-2.2307 2.6521" fill="#fff" fill-rule="evenodd" stroke="#ef2d28" stroke-width=".26422pt"/>
 <path d="m152.78 120.32-2.2307 2.6521" fill="#fff" fill-rule="evenodd" stroke="#ef2d28" stroke-width=".26422pt"/>
 <path d="m154.27 120.32-2.2307 2.6521" fill="#fff" fill-rule="evenodd" stroke="#ef2d28" stroke-width=".26422pt"/>
 <path d="m155.76 120.32-2.2307 2.6521" fill="#fff" fill-rule="evenodd" stroke="#ef2d28" stroke-width=".26422pt"/>
 <path d="m157.25 120.32-2.2307 2.6521" fill="#fff" fill-rule="evenodd" stroke="#ef2d28" stroke-width=".26422pt"/>
 <path d="m158.73 120.32-2.2307 2.6521" fill="#fff" fill-rule="evenodd" stroke="#ef2d28" stroke-width=".26422pt"/>
 <path d="m160.22 120.32-2.2307 2.6521" fill="#fff" fill-rule="evenodd" stroke="#ef2d28" stroke-width=".26422pt"/>
 <path d="m161.71 120.32-2.2307 2.6521" fill="#fff" fill-rule="evenodd" stroke="#ef2d28" stroke-width=".26422pt"/>
 <path d="m163.19 120.32-2.2307 2.6521" fill="#fff" fill-rule="evenodd" stroke="#ef2d28" stroke-width=".26422pt"/>
 <path d="m164.68 120.32-2.2307 2.6521" fill="#fff" fill-rule="evenodd" stroke="#ef2d28" stroke-width=".26422pt"/>
 <path d="m166.17 120.32-2.2307 2.6521" fill="#fff" fill-rule="evenodd" stroke="#ef2d28" stroke-width=".26422pt"/>
 <path d="m167.66 120.32-2.2307 2.6521" fill="#fff" fill-rule="evenodd" stroke="#ef2d28" stroke-width=".26422pt"/>
 <path d="m161.71 120.32-2.2307 2.6521" fill="#fff" fill-rule="evenodd" stroke="#ef2d28" stroke-width=".26422pt"/>
 <path d="m169.14 120.32-2.2307 2.6521" fill="#fff" fill-rule="evenodd" stroke="#ef2d28" stroke-width=".26422pt"/>
 <path d="m170.63 120.32-2.2307 2.6521" fill="#fff" fill-rule="evenodd" stroke="#ef2d28" stroke-width=".26422pt"/>
 <path d="m172.12 120.32-2.2307 2.6521" fill="#fff" fill-rule="evenodd" stroke="#ef2d28" stroke-width=".26422pt"/>
 <path d="m173.6 120.32-2.2307 2.6521" fill="#fff" fill-rule="evenodd" stroke="#ef2d28" stroke-width=".26422pt"/>
 <path d="m171.37 120.32 2.2307 2.6521" fill="#fff" fill-rule="evenodd" stroke="#ef2d28" stroke-width=".26422pt"/>
 <path d="m169.89 120.32 2.2307 2.6521" fill="#fff" fill-rule="evenodd" stroke="#ef2d28" stroke-width=".26422pt"/>
 <path d="m168.4 120.32 2.2307 2.6521" fill="#fff" fill-rule="evenodd" stroke="#ef2d28" stroke-width=".26422pt"/>
 <path d="m166.91 120.32 2.2307 2.6521" fill="#fff" fill-rule="evenodd" stroke="#ef2d28" stroke-width=".26422pt"/>
 <path d="m165.42 120.32 2.2307 2.6521" fill="#fff" fill-rule="evenodd" stroke="#ef2d28" stroke-width=".26422pt"/>
 <path d="m163.94 120.32 2.2307 2.6521" fill="#fff" fill-rule="evenodd" stroke="#ef2d28" stroke-width=".26422pt"/>
 <path d="m162.45 120.32 2.2307 2.6521" fill="#fff" fill-rule="evenodd" stroke="#ef2d28" stroke-width=".26422pt"/>
 <path d="m160.96 120.32 2.2307 2.6521" fill="#fff" fill-rule="evenodd" stroke="#ef2d28" stroke-width=".26422pt"/>
 <path d="m159.48 120.32 2.2307 2.6521" fill="#fff" fill-rule="evenodd" stroke="#ef2d28" stroke-width=".26422pt"/>
 <path d="m157.99 120.32 2.2307 2.6521" fill="#fff" fill-rule="evenodd" stroke="#ef2d28" stroke-width=".26422pt"/>
 <path d="m156.5 120.32 2.2307 2.6521" fill="#fff" fill-rule="evenodd" stroke="#ef2d28" stroke-width=".26422pt"/>
 <path d="m155.01 120.32 2.2307 2.6521" fill="#fff" fill-rule="evenodd" stroke="#ef2d28" stroke-width=".26422pt"/>
 <path d="m160.96 120.32 2.2307 2.6521" fill="#fff" fill-rule="evenodd" stroke="#ef2d28" stroke-width=".26422pt"/>
 <path d="m153.53 120.32 2.2307 2.6521" fill="#fff" fill-rule="evenodd" stroke="#ef2d28" stroke-width=".26422pt"/>
 <path d="m152.04 120.32 2.2307 2.6521" fill="#fff" fill-rule="evenodd" stroke="#ef2d28" stroke-width=".26422pt"/>
 <path d="m150.55 120.32 2.2307 2.6521" fill="#fff" fill-rule="evenodd" stroke="#ef2d28" stroke-width=".26422pt"/>
 <path d="m149.07 120.32 2.2307 2.6521" fill="#fff" fill-rule="evenodd" stroke="#ef2d28" stroke-width=".26422pt"/>
 <rect x="49.428" y="102.64" width="28.999" height="21.217" rx="3.2154" ry="3.0152" fill="#fff" fill-rule="evenodd" stroke="#ef2d28" stroke-width=".28333pt"/>
 <rect x="50.172" y="103.52" width="27.512" height="19.449" rx="3.0505" ry="2.764" fill="#fff" fill-rule="evenodd" stroke="#ef2d28" stroke-width=".26422pt"/>
 <path d="m62.964 108.83 1.3897 0.0647 0.06316 0.8388 1.137 0.77425 0.88432-0.96786 1.0738 0.77426-1.0106 0.83894 0.25266 1.1615 1.2632-0.0645v1.5487l-1.0106-0.0645-0.50533 0.96786 1.137 1.0969-0.88432 0.90333-0.94748-0.96786-1.3897 0.3872 0.06318 1.4196-1.516 0.12907-0.18949-1.3551-1.2633-0.70987-0.69482 0.96786-1.0738-0.70973 0.63166-1.0969-0.75799-0.70987h-1.0738l-0.06316-2.0002 1.0738 0.12907 0.75799-1.1615-0.88431-0.90332 1.137-1.0324 0.82115 0.8388 1.3896-0.25814 0.18949-0.83894z" fill="#fff" fill-rule="evenodd" stroke="#ef2d28" stroke-width=".16681pt"/>
 <ellipse transform="matrix(.13812 0 0 .1752 53.862 38.246)" cx="68.944" cy="426.78" rx="11.049" ry="9.9439" fill="#fff" fill-rule="evenodd" stroke="#ef2d28" stroke-width="1.1548pt"/>
 <path d="m53.89 104.41-2.2307 2.6521" fill="#fff" fill-rule="evenodd" stroke="#ef2d28" stroke-width=".26422pt"/>
 <path d="m55.377 104.41-2.2307 2.6521" fill="#fff" fill-rule="evenodd" stroke="#ef2d28" stroke-width=".26422pt"/>
 <path d="m56.864 104.41-2.2307 2.6521" fill="#fff" fill-rule="evenodd" stroke="#ef2d28" stroke-width=".26422pt"/>
 <path d="m58.351 104.41-2.2307 2.6521" fill="#fff" fill-rule="evenodd" stroke="#ef2d28" stroke-width=".26422pt"/>
 <path d="m59.838 104.41-2.2307 2.6521" fill="#fff" fill-rule="evenodd" stroke="#ef2d28" stroke-width=".26422pt"/>
 <path d="m61.325 104.41-2.2307 2.6521" fill="#fff" fill-rule="evenodd" stroke="#ef2d28" stroke-width=".26422pt"/>
 <path d="m62.812 104.41-2.2307 2.6521" fill="#fff" fill-rule="evenodd" stroke="#ef2d28" stroke-width=".26422pt"/>
 <path d="m64.3 104.41-2.2307 2.6521" fill="#fff" fill-rule="evenodd" stroke="#ef2d28" stroke-width=".26422pt"/>
 <path d="m65.787 104.41-2.2307 2.6521" fill="#fff" fill-rule="evenodd" stroke="#ef2d28" stroke-width=".26422pt"/>
 <path d="m67.274 104.41-2.2307 2.6521" fill="#fff" fill-rule="evenodd" stroke="#ef2d28" stroke-width=".26422pt"/>
 <path d="m68.761 104.41-2.2307 2.6521" fill="#fff" fill-rule="evenodd" stroke="#ef2d28" stroke-width=".26422pt"/>
 <path d="m70.248 104.41-2.2307 2.6521" fill="#fff" fill-rule="evenodd" stroke="#ef2d28" stroke-width=".26422pt"/>
 <path d="m64.3 104.41-2.2307 2.6521" fill="#fff" fill-rule="evenodd" stroke="#ef2d28" stroke-width=".26422pt"/>
 <path d="m71.735 104.41-2.2307 2.6521" fill="#fff" fill-rule="evenodd" stroke="#ef2d28" stroke-width=".26422pt"/>
 <path d="m73.222 104.41-2.2307 2.6521" fill="#fff" fill-rule="evenodd" stroke="#ef2d28" stroke-width=".26422pt"/>
 <path d="m74.709 104.41-2.2307 2.6521" fill="#fff" fill-rule="evenodd" stroke="#ef2d28" stroke-width=".26422pt"/>
 <path d="m76.197 104.41-2.2307 2.6521" fill="#fff" fill-rule="evenodd" stroke="#ef2d28" stroke-width=".26422pt"/>
 <path d="m73.966 104.41 2.2307 2.6521" fill="#fff" fill-rule="evenodd" stroke="#ef2d28" stroke-width=".26422pt"/>
 <path d="m72.479 104.41 2.2307 2.6521" fill="#fff" fill-rule="evenodd" stroke="#ef2d28" stroke-width=".26422pt"/>
 <path d="m70.992 104.41 2.2307 2.6521" fill="#fff" fill-rule="evenodd" stroke="#ef2d28" stroke-width=".26422pt"/>
 <path d="m69.505 104.41 2.2307 2.6521" fill="#fff" fill-rule="evenodd" stroke="#ef2d28" stroke-width=".26422pt"/>
 <path d="m68.017 104.41 2.2307 2.6521" fill="#fff" fill-rule="evenodd" stroke="#ef2d28" stroke-width=".26422pt"/>
 <path d="m66.53 104.41 2.2307 2.6521" fill="#fff" fill-rule="evenodd" stroke="#ef2d28" stroke-width=".26422pt"/>
 <path d="m65.043 104.41 2.2307 2.6521" fill="#fff" fill-rule="evenodd" stroke="#ef2d28" stroke-width=".26422pt"/>
 <path d="m63.556 104.41 2.2307 2.6521" fill="#fff" fill-rule="evenodd" stroke="#ef2d28" stroke-width=".26422pt"/>
 <path d="m62.069 104.41 2.2307 2.6521" fill="#fff" fill-rule="evenodd" stroke="#ef2d28" stroke-width=".26422pt"/>
 <path d="m60.582 104.41 2.2307 2.6521" fill="#fff" fill-rule="evenodd" stroke="#ef2d28" stroke-width=".26422pt"/>
 <path d="m59.095 104.41 2.2307 2.6521" fill="#fff" fill-rule="evenodd" stroke="#ef2d28" stroke-width=".26422pt"/>
 <path d="m57.607 104.41 2.2307 2.6521" fill="#fff" fill-rule="evenodd" stroke="#ef2d28" stroke-width=".26422pt"/>
 <path d="m63.556 104.41 2.2307 2.6521" fill="#fff" fill-rule="evenodd" stroke="#ef2d28" stroke-width=".26422pt"/>
 <path d="m56.12 104.41 2.2307 2.6521" fill="#fff" fill-rule="evenodd" stroke="#ef2d28" stroke-width=".26422pt"/>
 <path d="m54.633 104.41 2.2307 2.6521" fill="#fff" fill-rule="evenodd" stroke="#ef2d28" stroke-width=".26422pt"/>
 <path d="m53.146 104.41 2.2307 2.6521" fill="#fff" fill-rule="evenodd" stroke="#ef2d28" stroke-width=".26422pt"/>
 <path d="m51.659 104.41 2.2307 2.6521" fill="#fff" fill-rule="evenodd" stroke="#ef2d28" stroke-width=".26422pt"/>
 <path d="m53.89 119.43-2.2307 2.6521" fill="#fff" fill-rule="evenodd" stroke="#ef2d28" stroke-width=".26422pt"/>
 <path d="m55.377 119.43-2.2307 2.6521" fill="#fff" fill-rule="evenodd" stroke="#ef2d28" stroke-width=".26422pt"/>
 <path d="m56.864 119.43-2.2307 2.6521" fill="#fff" fill-rule="evenodd" stroke="#ef2d28" stroke-width=".26422pt"/>
 <path d="m58.351 119.43-2.2307 2.6521" fill="#fff" fill-rule="evenodd" stroke="#ef2d28" stroke-width=".26422pt"/>
 <path d="m59.838 119.43-2.2307 2.6521" fill="#fff" fill-rule="evenodd" stroke="#ef2d28" stroke-width=".26422pt"/>
 <path d="m61.325 119.43-2.2307 2.6521" fill="#fff" fill-rule="evenodd" stroke="#ef2d28" stroke-width=".26422pt"/>
 <path d="m62.812 119.43-2.2307 2.6521" fill="#fff" fill-rule="evenodd" stroke="#ef2d28" stroke-width=".26422pt"/>
 <path d="m64.3 119.43-2.2307 2.6521" fill="#fff" fill-rule="evenodd" stroke="#ef2d28" stroke-width=".26422pt"/>
 <path d="m65.787 119.43-2.2307 2.6521" fill="#fff" fill-rule="evenodd" stroke="#ef2d28" stroke-width=".26422pt"/>
 <path d="m67.274 119.43-2.2307 2.6521" fill="#fff" fill-rule="evenodd" stroke="#ef2d28" stroke-width=".26422pt"/>
 <path d="m68.761 119.43-2.2307 2.6521" fill="#fff" fill-rule="evenodd" stroke="#ef2d28" stroke-width=".26422pt"/>
 <path d="m70.248 119.43-2.2307 2.6521" fill="#fff" fill-rule="evenodd" stroke="#ef2d28" stroke-width=".26422pt"/>
 <path d="m64.3 119.43-2.2307 2.6521" fill="#fff" fill-rule="evenodd" stroke="#ef2d28" stroke-width=".26422pt"/>
 <path d="m71.735 119.43-2.2307 2.6521" fill="#fff" fill-rule="evenodd" stroke="#ef2d28" stroke-width=".26422pt"/>
 <path d="m73.222 119.43-2.2307 2.6521" fill="#fff" fill-rule="evenodd" stroke="#ef2d28" stroke-width=".26422pt"/>
 <path d="m74.709 119.43-2.2307 2.6521" fill="#fff" fill-rule="evenodd" stroke="#ef2d28" stroke-width=".26422pt"/>
 <path d="m76.197 119.43-2.2307 2.6521" fill="#fff" fill-rule="evenodd" stroke="#ef2d28" stroke-width=".26422pt"/>
 <path d="m73.966 119.43 2.2307 2.6521" fill="#fff" fill-rule="evenodd" stroke="#ef2d28" stroke-width=".26422pt"/>
 <path d="m72.479 119.43 2.2307 2.6521" fill="#fff" fill-rule="evenodd" stroke="#ef2d28" stroke-width=".26422pt"/>
 <path d="m70.992 119.43 2.2307 2.6521" fill="#fff" fill-rule="evenodd" stroke="#ef2d28" stroke-width=".26422pt"/>
 <path d="m69.505 119.43 2.2307 2.6521" fill="#fff" fill-rule="evenodd" stroke="#ef2d28" stroke-width=".26422pt"/>
 <path d="m68.017 119.43 2.2307 2.6521" fill="#fff" fill-rule="evenodd" stroke="#ef2d28" stroke-width=".26422pt"/>
 <path d="m66.53 119.43 2.2307 2.6521" fill="#fff" fill-rule="evenodd" stroke="#ef2d28" stroke-width=".26422pt"/>
 <path d="m65.043 119.43 2.2307 2.6521" fill="#fff" fill-rule="evenodd" stroke="#ef2d28" stroke-width=".26422pt"/>
 <path d="m63.556 119.43 2.2307 2.6521" fill="#fff" fill-rule="evenodd" stroke="#ef2d28" stroke-width=".26422pt"/>
 <path d="m62.069 119.43 2.2307 2.6521" fill="#fff" fill-rule="evenodd" stroke="#ef2d28" stroke-width=".26422pt"/>
 <path d="m60.582 119.43 2.2307 2.6521" fill="#fff" fill-rule="evenodd" stroke="#ef2d28" stroke-width=".26422pt"/>
 <path d="m59.095 119.43 2.2307 2.6521" fill="#fff" fill-rule="evenodd" stroke="#ef2d28" stroke-width=".26422pt"/>
 <path d="m57.607 119.43 2.2307 2.6521" fill="#fff" fill-rule="evenodd" stroke="#ef2d28" stroke-width=".26422pt"/>
 <path d="m63.556 119.43 2.2307 2.6521" fill="#fff" fill-rule="evenodd" stroke="#ef2d28" stroke-width=".26422pt"/>
 <path d="m56.12 119.43 2.2307 2.6521" fill="#fff" fill-rule="evenodd" stroke="#ef2d28" stroke-width=".26422pt"/>
 <path d="m54.633 119.43 2.2307 2.6521" fill="#fff" fill-rule="evenodd" stroke="#ef2d28" stroke-width=".26422pt"/>
 <path d="m53.146 119.43 2.2307 2.6521" fill="#fff" fill-rule="evenodd" stroke="#ef2d28" stroke-width=".26422pt"/>
 <path d="m51.659 119.43 2.2307 2.6521" fill="#fff" fill-rule="evenodd" stroke="#ef2d28" stroke-width=".26422pt"/>
 <path d="m94.914 147.12c-36.081 47.05-51.473 53.001-44.249 56.793 7.2236 3.7917 30.458-20.49 54.636-52.745 24.178-32.255 38.985-60.96 31.761-64.752-7.2236-3.7917-3.7723 10.662-42.148 60.703z" fill="#fff" fill-rule="evenodd" stroke="#ef2d28" stroke-width=".42368pt"/>
 <path d="m64.542 181.31 12.641 4.42c-11.897 15.028-25.282 21.217-28.999 18.564-3.7179-2.6518 6.6922-8.8402 16.359-22.984z" fill="#fff" fill-rule="evenodd" stroke="#ef2d28" stroke-width=".33028"/>
 <path d="m64.542 183.08 10.41 3.5361c-11.589 14.45-23.051 18.564-26.017 16.796-2.9826-1.768 6.191-6.7322 15.607-20.333z" fill="#fff" fill-rule="evenodd" stroke="#ef2d28" stroke-width=".33028"/>
 <path d="m103.37 145.06c-0.0276 0.22219-0.11054 1.2337-0.18473 1.6363 0 0.55609-0.0425 0.98302-0.0924 1.4182-0.11763 0.37998-0.0977 0.73273-0.46182 0.87289-0.25035 0.45922-0.40788 0.57825-0.73891 0.76362-0.22567 0.23092-0.56749 0.46114-0.92365 0.65453-0.36931 0.18693-0.70507 0.21259-1.1084 0.10909-0.32365-0.26635-0.56216-0.54108-0.83127-0.76362-0.06337-0.34437-0.12148-0.85578-0.18473-1.2 0.09961 0.35328 0.16951 0.91897 0.18473 1.4182-0.03547 0.54457-0.18695 0.78212-0.36946 1.2" fill="none" stroke="#ef2d28" stroke-width=".33028"/>
 <path d="m99.955 152.37c-0.03075-0.0363-0.0615-0.0728-0.09237-0.10909 0.21931 0.25902 0.12975 0.13545-0.36945-0.21817-0.35853-0.21748-0.74113-0.33303-1.2007-0.43636h-1.2931c-0.5032 0-0.84177 0.0892-1.2007 0.21818-0.26039 0.30754-0.64921 0.48226-0.92364 0.76362-0.28152 0.22603-0.40226 0.49378-0.55418 0.87271-0.25138 0.29689-0.41424 0.75506-0.64655 0.98179-0.10404 0.50111-0.3164 0.48401-0.46182 0.87271 0.43566 0.0396 0.78488 0.11014 1.016 0.43636 0.38379 0.23458-0.32202-0.22988-0.46182-0.43636-0.30236-0.10787-0.38069-0.21818-0.83128-0.21818-0.42118-0.15778-0.6767 0.12864-1.1084 0.21818-0.25198 0.17227-0.32188 0.21818-0.6467 0.21818" fill="none" stroke="#ef2d28" stroke-width=".33028"/>
 <path d="m94.967 157.83c-0.18813 0.0131-1.0467 0.20002-1.3856 0-0.37714-0.12148-0.60118-0.35607-0.83128-0.76362-0.11334-0.2948 0 0.52327 0 0.87271-0.04185 0.64231-0.20187 0.64824-0.46182 1.0909-0.26808 0.20299-0.55049 0.48872-0.83128 0.65453-0.2329 0.23843-0.51916 0.39796-0.83127 0.54544-0.2802 0.15674-0.60754 0.31645-0.83128 0.54545-0.30887 0.26059-0.27901 0.57214-0.46182 0.98179 0.03472 0.53358 0.10833 0.83606 0.36946 1.0909 0.10906 0.3688 0.35394 0.73395 0.55418 0.9818 0.22832 0.50093 0.48118 0.73726-0.09236 0.8727-0.31508 0.15953-0.49168 0.0344-0.83128 0" fill="none" stroke="#ef2d28" stroke-width=".33028"/>
 <path d="m89.148 165.46c-0.22699-0.0683-1.032-0.38626-1.3855-0.54545h-1.2931c-0.50113 0.0456-0.5966 0.21923-1.0162 0.43636-0.27074 0.32656-0.4565 0.5519-0.83127 0.76379-0.19818 0.30248-0.58419 0.81633-0.73891 1.2-0.1101 0.37229-0.18473 0.87584-0.18473 1.4182 0.0067 0.63672 0.14807 0.74546 0.18473 1.3091 0.1036 0.46847 0.27177 0.89767 0.55418 1.3091 0.03915 0.13841 0.06757 0.1721 0.18473 0.21818" fill="none" stroke="#ef2d28" stroke-width=".33028"/>
 <path d="m84.748 173c-0.03922 0-0.12602 0.27804-0.26231 0.51668-0.29673 0.40038-0.33493 0.43056-0.78695 0.43056-0.40753-0.0197-0.36954-0.21108-0.65578-0.34445-0.13525-0.27666-0.30386-0.49601-0.45905-0.86113-0.10555-0.22513-0.19831-0.56889-0.32789-0.77501-0.11972-0.25544-0.26892-0.44834-0.39347-0.6889-0.12297-0.0692-0.16977-0.13557-0.328-0.17222 0.37773 0.0796 0.41079 0.25723 0.65589 0.51667 0.11479 0.24511 0.22885 0.50056 0.32789 0.77501 0.03787 0.36829 0.12696 0.65845 0.13116 1.1195 0 0.4763-0.0015 0.80904-0.13116 1.2056-0.15455 0.21287-0.26892 0.43304-0.45905 0.60293-0.15098 0.19358-0.34038 0.45963-0.45915 0.6889-0.20565 0.16616-0.35517 0.3016-0.5902 0.51667-0.19768 0.15183-0.41079 0.3078-0.72136 0.34445-0.38507-0.0361-0.49892-0.1787-0.78694-0.34445-0.24437-0.23602-0.4368-0.39102-0.65578-0.60279-0.17092-0.1572-0.345-0.46886-0.45906-0.6889-0.35486-0.11656-0.58013-0.07-0.78694 0.17223-0.18026 0.16079-0.33649 0.36608-0.45905 0.60279-0.10702 0.0703-0.28645 0.27418-0.39347 0.34445" fill="none" stroke="#ef2d28" stroke-width=".33028"/>
 <path d="m77.524 176.56c0.10462 0.0574 0.48488 0.407 0.65225 0.53733 0.10436 0.45239 0.27094 0.69965 0.32612 1.1821 0.08831 0.4658 0.08153 0.97872 0.08153 1.5045-0.08936 0.54919-0.26286 0.9555-0.40765 1.3971-0.25751 0.23075-0.38705 0.40063-0.73378 0.6448-0.32534 0.0579-0.64442 0.10746-1.06 0.10746-0.24838 0.10919-0.73248 0.16197-0.97837 0-0.36304-0.0647-0.63321-0.25912-0.89685-0.42986-0.30082-0.22474-0.48632-0.43709-0.81531-0.6448-0.1598-0.30967-0.40831-0.59493-0.65225-0.9672-0.20298-0.36194-0.35222-0.56501-0.48919-0.96719 0.12054 0.45892 0.30356 0.85956 0.40766 1.2896 0.1855 0.45755 0.29325 0.6197 0.32612 1.1821 0.11362 0.4493 0.08153 0.99041 0.08153 1.5045-0.03574 0.34922-0.05453 1.0036-0.16306 1.2896v0.3224" fill="none" stroke="#ef2d28" stroke-width=".33028"/>
 <path d="m65.467 186.23v0.15593c0-0.42089-0.0086-0.20708 0.13116 0.62373 0.24742 0.36476 0.82765 0.46605 1.3116 0.31186 0.42432-0.41665 0.41131-0.73225 1.1804-0.93559 0.74329 0.0631 1.0266 0.3191 1.4427 0.62373 0.49399 0.29365 0.72147 0.44185 1.0493 1.0915 0.16284 0.52892 0.25371 0.88694-0.26231 1.0915-0.41005 0.3458-0.89753 0.53616-1.4427 0.62373-0.60584 0-1.0425-0.0846-1.3116 0.31187-0.41614 0.51271-0.39347 0.81758-0.39347 1.7153-0.13997 0.27743-0.16767 1.0963-0.26231 1.4034-0.3643 0.20533-0.57814 0.31186-1.1804 0.31186-0.14144-0.48176-0.29862-1.352-0.39347-1.8712-0.10262-0.56085-0.1343-1.342-0.39347-1.7152-0.24511-0.42838-0.55778-0.80012-0.9181-1.0915-0.16075-0.26771-0.4665-0.49025-0.78694-0.62373 0.51456 0.31211 0.58779 0.64943 0.65578 1.4034-0.45223 0.26895-0.5731 0.45732-1.3116 0.4678-0.72588-0.0726-0.90131-0.29166-1.1804-0.77966-0.05078 0.7824-0.26084 1.0444-0.39347 1.7152-0.26987 0.47179-0.38445 0.95506-0.65578 1.5593 0.11563 0.75147 0.36451 0.78914 0.39347 1.7153 0.17019 0.60751 0.15172 1.1933 0.52463 1.5596 0.1662 0.24151 0.29043 0.28891 0.65578 0.31187-0.75924 0-1.2018-0.0976-1.705-0.4678-0.38906-0.28467-0.68307-0.63945-1.0495-0.9356-0.46419-0.39993-1.0381-0.76968-1.5739-0.93584-0.60584 0-1.0425-0.0846-1.3116 0.31186-0.37144 0.31561-0.62095 0.86-0.78694 1.5596-0.1215 0.80935-0.16788 1.3482 0.13116 1.8712 0.22181 0.60078 0.27218 0.8348 0 1.5593-0.3047 0.50722-0.75903 0.56685-1.4427 0.77967-0.49924-0.0319-0.97959-0.16741-1.3116-0.31187" fill="none" stroke="#ef2d28" stroke-width=".33028"/>
 <path d="m136.09 104.66c16.01-36.853 26.636-68.217 23.718-70.009-2.9173-1.7914-18.279 26.665-34.289 63.518l10.57 6.4908z" fill="#fff" fill-rule="evenodd" stroke="#ef2d28" stroke-width=".33521pt"/>
 <path d="m135.03 104.01c15.445-35.553 26.086-65.57 23.751-67.003-2.3339-1.4331-16.763 26.258-32.208 61.811" fill="#fff" fill-rule="evenodd" stroke="#ef2d28" stroke-width=".29448pt"/>
 <path d="m132.37 85.461c-1.8772 4.1567-3.8701 8.9085-5.8007 13.353l8.4566 5.1927c1.9306-4.4441 4.0362-9.1266 5.8007-13.353l-8.4566-5.1927z" fill="#fff" fill-rule="evenodd" stroke="#ef2d28" stroke-width=".33422pt"/>
 <path d="m133.09 86.895c-1.8772 4.1567-3.1877 7.3378-5.1183 11.782l6.3423 3.8945c1.9306-4.4441 3.3539-7.5559 5.1183-11.782l-6.3423-3.8945z" fill="#fff" fill-rule="evenodd" stroke="#ef2d28" stroke-width=".33422pt"/>
 <rect transform="matrix(-.85217 -.52327 -.39845 .91719 0 0)" x="-164.46" y="6.1652" width="4.9617" height="9.42" fill="#fff" fill-rule="evenodd" stroke="#ef2d28" stroke-width=".33589pt"/>
 <path d="m137.69 91.712-7.9815 6.0436" fill="#fff" fill-rule="evenodd" stroke="#ef2d28" stroke-width=".33422pt"/>
 <path d="m133.94 100.35-0.47478-11.236" fill="#fff" fill-rule="evenodd" stroke="#ef2d28" stroke-width=".33422pt"/>
 <path d="m156.8 47.727-4.2281-2.5963" fill="#fff" fill-rule="evenodd" stroke="#ef2d28" stroke-width=".33422pt"/>
 <ellipse transform="matrix(-.33672 .11321 .075997 .39387 333.27 -55.798)" cx="545.67" cy="92.126" rx="3.5433" ry="3.5433" fill="#ef0000" fill-rule="evenodd" stroke="#ef2d28" stroke-width="1.1548pt"/>
 <path d="m129.85 146.23c36.081 47.05 51.473 53.001 44.249 56.793s-30.458-20.49-54.636-52.745c-24.178-32.255-38.985-60.96-31.761-64.752 7.2236-3.7917 3.7723 10.662 42.148 60.703z" fill="#fff" fill-rule="evenodd" stroke="#ef2d28" stroke-width=".42368pt"/>
 <path d="m160.22 180.43-12.641 4.42c11.897 15.028 25.282 21.217 28.999 18.564 3.7179-2.6518-6.6922-8.8402-16.359-22.984z" fill="#fff" fill-rule="evenodd" stroke="#ef2d28" stroke-width=".33028"/>
 <path d="m160.22 182.2-10.41 3.5361c11.589 14.45 23.051 18.564 26.017 16.796 2.9826-1.768-6.191-6.7322-15.607-20.333z" fill="#fff" fill-rule="evenodd" stroke="#ef2d28" stroke-width=".33028"/>
 <path d="m121.39 144.18c0.0276 0.22219 0.11054 1.2337 0.18473 1.6363 0 0.55609 0.0426 0.98302 0.0924 1.4182 0.11763 0.37998 0.0977 0.73273 0.46182 0.87289 0.25035 0.45922 0.40788 0.57825 0.73891 0.76362 0.22567 0.23092 0.56749 0.46114 0.92365 0.65453 0.36931 0.18693 0.70507 0.21259 1.1084 0.10909 0.32365-0.26635 0.56216-0.54108 0.83128-0.76362 0.0634-0.34437 0.12148-0.85578 0.18473-1.2-0.0996 0.35328-0.16951 0.91897-0.18473 1.4182 0.0355 0.54457 0.18695 0.78212 0.36946 1.2" fill="none" stroke="#ef2d28" stroke-width=".33028"/>
 <path d="m124.81 151.49c0.0307-0.0363 0.0615-0.0728 0.0924-0.10909-0.21931 0.25902-0.12975 0.13545 0.36946-0.21817 0.35852-0.21748 0.74112-0.33303 1.2007-0.43636h1.2931c0.5032 0 0.84177 0.0892 1.2007 0.21818 0.26039 0.30754 0.64921 0.48226 0.92364 0.76362 0.28152 0.22603 0.40226 0.49378 0.55418 0.87271 0.25139 0.29689 0.41424 0.75506 0.64655 0.98179 0.10404 0.50111 0.31641 0.48401 0.46183 0.87271-0.43567 0.0396-0.78488 0.11014-1.016 0.43636-0.38379 0.23458 0.32202-0.22988 0.46182-0.43636 0.30237-0.10787 0.38069-0.21818 0.83128-0.21818 0.42118-0.15778 0.6767 0.12864 1.1084 0.21818 0.25197 0.17227 0.32187 0.21818 0.6467 0.21818" fill="none" stroke="#ef2d28" stroke-width=".33028"/>
 <path d="m129.79 156.95c0.18813 0.0131 1.0467 0.20002 1.3856 0 0.37714-0.12148 0.60118-0.35607 0.83128-0.76362 0.11334-0.2948 0 0.52327 0 0.87271 0.0418 0.64231 0.20186 0.64824 0.46182 1.0909 0.26808 0.20299 0.55049 0.48872 0.83127 0.65453 0.23291 0.23843 0.51917 0.39796 0.83128 0.54544 0.2802 0.15674 0.60754 0.31645 0.83128 0.54545 0.30887 0.26059 0.27901 0.57214 0.46182 0.98179-0.0347 0.53358-0.10832 0.83606-0.36946 1.0909-0.10906 0.3688-0.35393 0.73395-0.55418 0.9818-0.22832 0.50093-0.48118 0.73726 0.0924 0.8727 0.31508 0.15953 0.49168 0.0344 0.83128 0" fill="none" stroke="#ef2d28" stroke-width=".33028"/>
 <path d="m135.61 164.58c0.22699-0.0682 1.032-0.38626 1.3855-0.54545h1.2931c0.50113 0.0456 0.5966 0.21923 1.0162 0.43636 0.27074 0.32656 0.45651 0.5519 0.83129 0.76379 0.19817 0.30248 0.58418 0.81633 0.73891 1.2 0.1101 0.37229 0.18473 0.87584 0.18473 1.4182-7e-3 0.63672-0.14808 0.74546-0.18473 1.3091-0.1036 0.46847-0.27177 0.89767-0.55418 1.3091-0.0392 0.13841-0.0676 0.1721-0.18473 0.21818" fill="none" stroke="#ef2d28" stroke-width=".33028"/>
 <path d="m140.01 172.12c0.0392 0 0.12602 0.27804 0.26231 0.51668 0.29673 0.40038 0.33493 0.43056 0.78695 0.43056 0.40752-0.0197 0.36954-0.21108 0.65578-0.34445 0.13525-0.27666 0.30386-0.49601 0.45905-0.86113 0.10555-0.22513 0.19831-0.56889 0.32789-0.77501 0.11972-0.25544 0.26892-0.44834 0.39347-0.6889 0.12297-0.0692 0.16977-0.13557 0.328-0.17222-0.37773 0.0796-0.41079 0.25723-0.65589 0.51667-0.11479 0.24511-0.22885 0.50056-0.32789 0.77501-0.0379 0.36829-0.12697 0.65845-0.13117 1.1195 0 0.4763 2e-3 0.80904 0.13117 1.2056 0.15455 0.21287 0.26891 0.43304 0.45904 0.60293 0.15099 0.19358 0.34038 0.45963 0.45916 0.6889 0.20565 0.16616 0.35517 0.3016 0.5902 0.51667 0.19768 0.15183 0.41079 0.3078 0.72136 0.34445 0.38508-0.0361 0.49892-0.1787 0.78694-0.34445 0.24437-0.23602 0.43681-0.39102 0.65579-0.60279 0.17092-0.1572 0.34499-0.46886 0.45905-0.6889 0.35486-0.11656 0.58013-0.07 0.78694 0.17223 0.18026 0.16079 0.33649 0.36608 0.45905 0.60279 0.10702 0.0703 0.28645 0.27418 0.39347 0.34445" fill="none" stroke="#ef2d28" stroke-width=".33028"/>
 <path d="m147.24 175.68c-0.10462 0.0574-0.48488 0.407-0.65225 0.53733-0.10436 0.45239-0.27095 0.69965-0.32613 1.1821-0.0883 0.4658-0.0815 0.97872-0.0815 1.5045 0.0894 0.54919 0.26286 0.9555 0.40766 1.3971 0.25751 0.23075 0.38704 0.40063 0.73378 0.6448 0.32534 0.0579 0.64442 0.10746 1.06 0.10746 0.24838 0.10919 0.73248 0.16197 0.97837 0 0.36304-0.0647 0.63321-0.25912 0.89685-0.42986 0.30081-0.22474 0.48632-0.43709 0.81531-0.6448 0.1598-0.30967 0.40832-0.59493 0.65225-0.9672 0.20299-0.36194 0.35222-0.56501 0.48919-0.96719-0.12054 0.45892-0.30356 0.85956-0.40766 1.2896-0.1855 0.45755-0.29325 0.6197-0.32612 1.1821-0.11362 0.4493-0.0815 0.99041-0.0815 1.5045 0.0358 0.34922 0.0545 1.0036 0.16306 1.2896v0.3224" fill="none" stroke="#ef2d28" stroke-width=".33028"/>
 <path d="m159.29 185.35v0.15593c0-0.42089 9e-3 -0.20708-0.13116 0.62373-0.24742 0.36476-0.82765 0.46605-1.3116 0.31186-0.42432-0.41665-0.41131-0.73225-1.1804-0.93559-0.74329 0.0631-1.0266 0.3191-1.4427 0.62373-0.49398 0.29365-0.72146 0.44185-1.0492 1.0915-0.16284 0.52892-0.25371 0.88694 0.26232 1.0915 0.41004 0.3458 0.89753 0.53616 1.4427 0.62373 0.60583 0 1.0425-0.0846 1.3116 0.31187 0.41614 0.51271 0.39348 0.81758 0.39348 1.7153 0.13997 0.27743 0.16766 1.0963 0.26231 1.4034 0.3643 0.20533 0.57814 0.31186 1.1804 0.31186 0.14143-0.48176 0.29861-1.352 0.39346-1.8712 0.10262-0.56085 0.13431-1.342 0.39347-1.7152 0.24511-0.42838 0.55779-0.80012 0.91811-1.0915 0.16074-0.26771 0.4665-0.49025 0.78693-0.62373-0.51454 0.31211-0.58778 0.64943-0.65578 1.4034 0.45223 0.26895 0.5731 0.45732 1.3116 0.4678 0.72587-0.0726 0.90131-0.29166 1.1804-0.77966 0.0508 0.7824 0.26085 1.0444 0.39347 1.7152 0.26987 0.47179 0.38444 0.95506 0.65578 1.5593-0.11563 0.75147-0.36451 0.78914-0.39347 1.7153-0.17019 0.60751-0.15172 1.1933-0.52463 1.5596-0.1662 0.24151-0.29043 0.28891-0.65578 0.31187 0.75924 0 1.2018-0.0976 1.705-0.4678 0.38906-0.28467 0.68307-0.63945 1.0495-0.9356 0.46419-0.39993 1.0381-0.76968 1.5739-0.93584 0.60585 0 1.0426-0.0846 1.3116 0.31186 0.37143 0.31561 0.62095 0.86 0.78693 1.5596 0.12151 0.80935 0.16788 1.3482-0.13115 1.8712-0.22181 0.60078-0.27218 0.8348 0 1.5593 0.3047 0.50722 0.75903 0.56685 1.4427 0.77967 0.49924-0.0319 0.97958-0.16741 1.3116-0.31187" fill="none" stroke="#ef2d28" stroke-width=".33028"/>
 <path d="m88.677 103.77c-16.01-36.853-26.636-68.217-23.718-70.009 2.9173-1.7914 18.279 26.665 34.289 63.518l-10.57 6.4908z" fill="#fff" fill-rule="evenodd" stroke="#ef2d28" stroke-width=".33521pt"/>
 <path d="m89.734 103.12c-15.445-35.553-26.086-65.57-23.751-67.003 2.3339-1.4331 16.763 26.258 32.208 61.811" fill="#fff" fill-rule="evenodd" stroke="#ef2d28" stroke-width=".29448pt"/>
 <path d="m92.39 84.579c1.8772 4.1567 3.8701 8.9085 5.8007 13.353l-8.4566 5.1927c-1.9306-4.4441-4.0362-9.1266-5.8007-13.353l8.4566-5.1927z" fill="#fff" fill-rule="evenodd" stroke="#ef2d28" stroke-width=".33422pt"/>
 <path d="m91.674 86.013c1.8772 4.1567 3.1877 7.3378 5.1183 11.782l-6.3423 3.8945c-1.9306-4.4441-3.3539-7.5559-5.1183-11.782l6.3423-3.8945z" fill="#fff" fill-rule="evenodd" stroke="#ef2d28" stroke-width=".33422pt"/>
 <rect transform="matrix(.85217 -.52327 .39845 .91719 0 0)" x="44.107" y="124.19" width="4.9617" height="9.42" fill="#fff" fill-rule="evenodd" stroke="#ef2d28" stroke-width=".33589pt"/>
 <path d="m87.071 90.83 7.9815 6.0436" fill="#fff" fill-rule="evenodd" stroke="#ef2d28" stroke-width=".33422pt"/>
 <path d="m90.824 99.469 0.47477-11.236" fill="#fff" fill-rule="evenodd" stroke="#ef2d28" stroke-width=".33422pt"/>
 <path d="m67.963 46.844 4.2281-2.5963" fill="#fff" fill-rule="evenodd" stroke="#ef2d28" stroke-width=".33422pt"/>
 <ellipse transform="matrix(.33672 .11321 -.075997 .39387 -108.51 -56.68)" cx="545.67" cy="92.126" rx="3.5433" ry="3.5433" fill="#ef0000" fill-rule="evenodd" stroke="#ef2d28" stroke-width="1.1548pt"/>
 <path d="m101.48 84.958c0 30.941 0.13738 42.603-1.5725 44.201-1.6201 1.7108-46.759 0-46.759 8.8402s37.178 17.681 48.332 17.68c14.871 0 22.307-8.8402 22.307-26.521v-44.201h-22.307z" fill="#fff" fill-rule="evenodd" stroke="#ef2d28" stroke-width=".3051pt"/>
 <path d="m101.48 93.798v4.4202c7.4357 1.4735 14.871 1.4735 22.307 0v-4.4202c-7.4357 1.4735-14.871 1.4735-22.307 0z" fill="#fff" fill-rule="evenodd" stroke="#ef2d28" stroke-width=".26422pt"/>
 <path d="m101.48 84.958v4.4202c7.4357 1.4735 14.871 1.4735 22.307 0v-4.4202c-7.4357 1.4735-14.871 1.4735-22.307 0z" fill="#fff" fill-rule="evenodd" stroke="#ef2d28" stroke-width=".26422pt"/>
 <path d="m101.48 89.378v4.4202c7.4357 1.4735 14.871 1.4735 22.307 0v-4.4202c-7.4357 1.4735-14.871 1.4735-22.307 0z" fill="#fff" fill-rule="evenodd" stroke="#ef2d28" stroke-width=".26422pt"/>
 <path d="m101.48 98.218v4.4202c7.4357 1.4735 14.871 1.4735 22.307 0v-4.4202c-7.4357 1.4735-14.871 1.4735-22.307 0z" fill="#fff" fill-rule="evenodd" stroke="#ef2d28" stroke-width=".26422pt"/>
 <ellipse transform="matrix(.11446 0 0 .035884 73.087 84.326)" cx="256.89" cy="210.83" rx="8.8583" ry="26.575" fill="#fff" fill-rule="evenodd" stroke="#ef2d28" stroke-width="5.1535"/>
 <ellipse transform="matrix(.11446 0 0 .035884 73.087 83.531)" cx="292.32" cy="246.26" rx="8.8583" ry="26.575" fill="#fff" fill-rule="evenodd" stroke="#ef2d28" stroke-width="5.1535"/>
 <ellipse transform="matrix(.11446 0 0 .035883 73.087 83.372)" cx="327.76" cy="263.98" rx="8.8583" ry="26.575" fill="#fff" fill-rule="evenodd" stroke="#ef2d28" stroke-width="5.1535"/>
 <ellipse transform="matrix(.11446 0 0 .035883 73.087 83.372)" cx="363.19" cy="263.98" rx="8.8583" ry="26.575" fill="#fff" fill-rule="evenodd" stroke="#ef2d28" stroke-width="5.1535"/>
 <ellipse transform="matrix(.11446 0 0 .035884 73.087 83.531)" cx="398.62" cy="246.26" rx="8.8583" ry="26.575" fill="#fff" fill-rule="evenodd" stroke="#ef2d28" stroke-width="5.1535"/>
 <ellipse transform="matrix(.11446 0 0 .035884 73.087 84.326)" cx="434.06" cy="210.83" rx="8.8583" ry="26.575" fill="#fff" fill-rule="evenodd" stroke="#ef2d28" stroke-width="5.1535"/>
 <path d="m101.48 107.06 22.307 23.869" fill="#fff" fill-rule="evenodd" stroke="#ef2d28" stroke-width=".26422pt"/>
 <path d="m103.71 107.06 20.076 21.217" fill="#fff" fill-rule="evenodd" stroke="#ef2d28" stroke-width=".26422pt"/>
 <path d="m106.68 107.94 17.102 17.68" fill="#fff" fill-rule="evenodd" stroke="#ef2d28" stroke-width=".26422pt"/>
 <path d="m108.91 107.94 14.871 15.029" fill="#fff" fill-rule="evenodd" stroke="#ef2d28" stroke-width=".26422pt"/>
 <path d="m111.14 107.94 12.641 12.377" fill="#fff" fill-rule="evenodd" stroke="#ef2d28" stroke-width=".26422pt"/>
 <path d="m113.38 107.94 10.41 9.7244" fill="#fff" fill-rule="evenodd" stroke="#ef2d28" stroke-width=".26422pt"/>
 <path d="m115.61 107.94 8.1792 7.0724" fill="#fff" fill-rule="evenodd" stroke="#ef2d28" stroke-width=".26422pt"/>
 <path d="m117.84 107.94 5.9484 5.3042" fill="#fff" fill-rule="evenodd" stroke="#ef2d28" stroke-width=".26422pt"/>
 <path d="m120.07 107.94 3.7177 3.5363" fill="#fff" fill-rule="evenodd" stroke="#ef2d28" stroke-width=".26422pt"/>
 <path d="m122.3 107.94 1.487 1.7682" fill="#fff" fill-rule="evenodd" stroke="#ef2d28" stroke-width=".26422pt"/>
 <path d="m101.48 109.71 22.307 23.869" fill="#fff" fill-rule="evenodd" stroke="#ef2d28" stroke-width=".26422pt"/>
 <path d="m123.78 107.06-24.538 26.521" fill="#fff" fill-rule="evenodd" stroke="#ef2d28" stroke-width=".26422pt"/>
 <path d="m121.55 107.06-21.563 22.985" fill="#fff" fill-rule="evenodd" stroke="#ef2d28" stroke-width=".26422pt"/>
 <path d="m118.58 107.94-17.102 17.68" fill="#fff" fill-rule="evenodd" stroke="#ef2d28" stroke-width=".26422pt"/>
 <path d="m116.35 107.94-14.871 15.029" fill="#fff" fill-rule="evenodd" stroke="#ef2d28" stroke-width=".26422pt"/>
 <path d="m114.12 107.94-12.641 12.377" fill="#fff" fill-rule="evenodd" stroke="#ef2d28" stroke-width=".26422pt"/>
 <path d="m111.89 107.94-10.41 9.7244" fill="#fff" fill-rule="evenodd" stroke="#ef2d28" stroke-width=".26422pt"/>
 <path d="m109.66 107.94-8.1792 7.0724" fill="#fff" fill-rule="evenodd" stroke="#ef2d28" stroke-width=".26422pt"/>
 <path d="m107.43 107.94-5.9484 5.3042" fill="#fff" fill-rule="evenodd" stroke="#ef2d28" stroke-width=".26422pt"/>
 <path d="m105.2 107.94-3.7177 3.5363" fill="#fff" fill-rule="evenodd" stroke="#ef2d28" stroke-width=".26422pt"/>
 <path d="m102.96 107.94-1.487 1.7682" fill="#fff" fill-rule="evenodd" stroke="#ef2d28" stroke-width=".26422pt"/>
 <path d="m123.78 109.71-24.538 26.521" fill="#fff" fill-rule="evenodd" stroke="#ef2d28" stroke-width=".26422pt"/>
 <path d="m123.78 112.36-24.538 26.521" fill="#fff" fill-rule="evenodd" stroke="#ef2d28" stroke-width=".26422pt"/>
 <path d="m123.78 115.01-24.538 26.521" fill="#fff" fill-rule="evenodd" stroke="#ef2d28" stroke-width=".26422pt"/>
 <path d="m123.78 117.67-24.538 26.521" fill="#fff" fill-rule="evenodd" stroke="#ef2d28" stroke-width=".26422pt"/>
 <path d="m123.78 120.32-24.538 26.521" fill="#fff" fill-rule="evenodd" stroke="#ef2d28" stroke-width=".26422pt"/>
 <path d="m123.78 122.97-24.538 26.521" fill="#fff" fill-rule="evenodd" stroke="#ef2d28" stroke-width=".26422pt"/>
 <path d="m123.78 125.62-24.538 26.521" fill="#fff" fill-rule="evenodd" stroke="#ef2d28" stroke-width=".26422pt"/>
 <path d="m123.78 128.28-24.538 26.521" fill="#fff" fill-rule="evenodd" stroke="#ef2d28" stroke-width=".26422pt"/>
 <path d="m123.78 130.93-23.05 24.753" fill="#fff" fill-rule="evenodd" stroke="#ef2d28" stroke-width=".26422pt"/>
 <path d="m123.78 133.58-20.82 22.101" fill="#fff" fill-rule="evenodd" stroke="#ef2d28" stroke-width=".26422pt"/>
 <path d="m123.04 137.12-16.359 17.68" fill="#fff" fill-rule="evenodd" stroke="#ef2d28" stroke-width=".26422pt"/>
 <path d="m122.3 140.65-13.384 14.144" fill="#fff" fill-rule="evenodd" stroke="#ef2d28" stroke-width=".26422pt"/>
 <path d="m120.81 145.07-6.6922 7.0721" fill="#fff" fill-rule="evenodd" stroke="#ef2d28" stroke-width=".26422pt"/>
 <path d="m101.48 112.36 21.563 22.985" fill="#fff" fill-rule="evenodd" stroke="#ef2d28" stroke-width=".26422pt"/>
 <path d="m101.48 115.01 21.563 22.985" fill="#fff" fill-rule="evenodd" stroke="#ef2d28" stroke-width=".26422pt"/>
 <path d="m101.48 117.67 20.82 22.101" fill="#fff" fill-rule="evenodd" stroke="#ef2d28" stroke-width=".26422pt"/>
 <path d="m101.48 120.32 20.82 22.101" fill="#fff" fill-rule="evenodd" stroke="#ef2d28" stroke-width=".26422pt"/>
 <path d="m101.48 122.97 20.076 21.217" fill="#fff" fill-rule="evenodd" stroke="#ef2d28" stroke-width=".26422pt"/>
 <path d="m100.73 124.74 20.076 21.217" fill="#fff" fill-rule="evenodd" stroke="#ef2d28" stroke-width=".26422pt"/>
 <path d="m100.73 127.39 18.589 19.449" fill="#fff" fill-rule="evenodd" stroke="#ef2d28" stroke-width=".26422pt"/>
 <path d="m99.991 129.16 18.589 19.449" fill="#fff" fill-rule="evenodd" stroke="#ef2d28" stroke-width=".26422pt"/>
 <path d="m99.247 130.93 17.846 18.564" fill="#fff" fill-rule="evenodd" stroke="#ef2d28" stroke-width=".26422pt"/>
 <path d="m99.247 133.58 17.102 17.68" fill="#fff" fill-rule="evenodd" stroke="#ef2d28" stroke-width=".26422pt"/>
 <path d="m99.247 136.23 14.871 15.912" fill="#fff" fill-rule="evenodd" stroke="#ef2d28" stroke-width=".26422pt"/>
 <path d="m101.48 102.64v4.4202c7.4357 1.4735 14.871 1.4735 22.307 0v-4.4202c-7.4357 1.4735-14.871 1.4735-22.307 0z" fill="#fff" fill-rule="evenodd" stroke="#ef2d28" stroke-width=".26422pt"/>
 <path d="m99.247 138.88 13.384 14.144" fill="#fff" fill-rule="evenodd" stroke="#ef2d28" stroke-width=".26422pt"/>
 <path d="m99.247 141.54 11.897 12.376" fill="#fff" fill-rule="evenodd" stroke="#ef2d28" stroke-width=".26422pt"/>
 <path d="m99.247 144.19 10.41 10.608" fill="#fff" fill-rule="evenodd" stroke="#ef2d28" stroke-width=".26422pt"/>
 <path d="m99.247 146.84 7.4359 7.956" fill="#fff" fill-rule="evenodd" stroke="#ef2d28" stroke-width=".26422pt"/>
 <path d="m99.247 149.49 5.9487 6.1884" fill="#fff" fill-rule="evenodd" stroke="#ef2d28" stroke-width=".26422pt"/>
 <path d="m99.247 152.14 3.7177 3.536" fill="#fff" fill-rule="evenodd" stroke="#ef2d28" stroke-width=".26422pt"/>
 <ellipse transform="matrix(.11446 0 0 .035884 73.087 97.586)" cx="256.89" cy="210.83" rx="8.8583" ry="26.575" fill="#fff" fill-rule="evenodd" stroke="#ef2d28" stroke-width="5.1535"/>
 <ellipse transform="matrix(.11446 0 0 .035884 73.087 96.791)" cx="292.32" cy="246.26" rx="8.8583" ry="26.575" fill="#fff" fill-rule="evenodd" stroke="#ef2d28" stroke-width="5.1535"/>
 <ellipse transform="matrix(.11446 0 0 .035883 73.087 96.632)" cx="327.76" cy="263.98" rx="8.8583" ry="26.575" fill="#fff" fill-rule="evenodd" stroke="#ef2d28" stroke-width="5.1535"/>
 <ellipse transform="matrix(.11446 0 0 .035883 73.087 96.632)" cx="363.19" cy="263.98" rx="8.8583" ry="26.575" fill="#fff" fill-rule="evenodd" stroke="#ef2d28" stroke-width="5.1535"/>
 <ellipse transform="matrix(.11446 0 0 .035884 73.087 96.791)" cx="398.62" cy="246.26" rx="8.8583" ry="26.575" fill="#fff" fill-rule="evenodd" stroke="#ef2d28" stroke-width="5.1535"/>
 <ellipse transform="matrix(.11446 0 0 .035884 73.087 97.586)" cx="434.06" cy="210.83" rx="8.8583" ry="26.575" fill="#fff" fill-rule="evenodd" stroke="#ef2d28" stroke-width="5.1535"/>
 <path d="m69.505 148.61 26.768-18.564" fill="#fff" fill-rule="evenodd" stroke="#ef2d28" stroke-width=".26422pt"/>
 <path d="m68.017 147.72 25.281-17.68" fill="#fff" fill-rule="evenodd" stroke="#ef2d28" stroke-width=".26422pt"/>
 <path d="m67.274 145.96 23.05-15.913" fill="#fff" fill-rule="evenodd" stroke="#ef2d28" stroke-width=".26422pt"/>
 <path d="m66.53 144.19 20.076-14.144" fill="#fff" fill-rule="evenodd" stroke="#ef2d28" stroke-width=".26422pt"/>
 <path d="m65.043 142.42 18.589-12.376" fill="#fff" fill-rule="evenodd" stroke="#ef2d28" stroke-width=".26422pt"/>
 <path d="m65.787 139.77 12.641-8.8402" fill="#fff" fill-rule="evenodd" stroke="#ef2d28" stroke-width=".26422pt"/>
 <path d="m65.043 138 9.6664-7.0721" fill="#fff" fill-rule="evenodd" stroke="#ef2d28" stroke-width=".26422pt"/>
 <path d="m65.043 135.35 6.6922-4.4202" fill="#fff" fill-rule="evenodd" stroke="#ef2d28" stroke-width=".26422pt"/>
 <path d="m71.735 149.49 25.281-17.68" fill="#fff" fill-rule="evenodd" stroke="#ef2d28" stroke-width=".26422pt"/>
 <path d="m73.966 150.38 23.794-16.796" fill="#fff" fill-rule="evenodd" stroke="#ef2d28" stroke-width=".26422pt"/>
 <path d="m76.197 151.26 22.307-15.913" fill="#fff" fill-rule="evenodd" stroke="#ef2d28" stroke-width=".26422pt"/>
 <path d="m78.427 152.14 18.589-13.26" fill="#fff" fill-rule="evenodd" stroke="#ef2d28" stroke-width=".26422pt"/>
 <path d="m81.402 152.14 16.358-11.492" fill="#fff" fill-rule="evenodd" stroke="#ef2d28" stroke-width=".26422pt"/>
 <path d="m83.632 153.03 14.128-9.7242" fill="#fff" fill-rule="evenodd" stroke="#ef2d28" stroke-width=".26422pt"/>
 <path d="m85.863 153.91 11.154-7.9563" fill="#fff" fill-rule="evenodd" stroke="#ef2d28" stroke-width=".26422pt"/>
 <path d="m88.837 153.91 8.9229-6.1882" fill="#fff" fill-rule="evenodd" stroke="#ef2d28" stroke-width=".26422pt"/>
 <path d="m91.811 154.8 5.9487-4.4202" fill="#fff" fill-rule="evenodd" stroke="#ef2d28" stroke-width=".26422pt"/>
 <path d="m94.786 154.8 3.7179-2.6521" fill="#fff" fill-rule="evenodd" stroke="#ef2d28" stroke-width=".26422pt"/>
 <path d="m99.991 129.16h-3.7179c-1.2394 8.8402-1.2394 17.68 0 26.521h3.7179c-1.2394-8.8402-1.2394-17.68 0-26.521z" fill="#fff" fill-rule="evenodd" stroke="#ef2d28" stroke-width=".26422pt"/>
 <path d="m56.12 141.54 8.9229-8.8402" fill="#fff" fill-rule="evenodd" stroke="#ef2d28" stroke-width=".26422pt"/>
 <path d="m56.12 135.35 8.9229 10.608" fill="#fff" fill-rule="evenodd" stroke="#ef2d28" stroke-width=".26422pt"/>
 <path d="m69.504 130.93-4.4614 0.88408c-0.9915 5.5988-0.9915 10.314 0 15.912l4.4614 1.7682c-0.9915-5.5988-0.9915-12.966 0-18.565z" fill="#fff" fill-rule="evenodd" stroke="#ef2d28" stroke-width=".18808pt"/>
 <path d="m123.76 86.726v-4.4572c-3.3424 0.03717-5.5704-2.6149-5.5707-5.3042l-11.141 0.03717c0 2.6521-2.2284 5.3042-5.5707 5.3042v4.42h22.282z" fill="#fff" fill-rule="evenodd" stroke="#ef2d28" stroke-width=".32343pt"/>
 <rect x="107.84" y="71.697" width="9.5495" height="5.3041" fill="#fff" fill-rule="evenodd" stroke="#ef2d28" stroke-width=".27335pt"/>
 <rect x="108.64" y="66.393" width="7.9579" height="5.3042" fill="#fff" fill-rule="evenodd" stroke="#ef2d28" stroke-width=".27335pt"/>
 <rect x="108.64" y="61.089" width="7.9579" height="5.3042" fill="#fff" fill-rule="evenodd" stroke="#ef2d28" stroke-width=".27335pt"/>
 <rect x="109.44" y="54.017" width="6.3664" height="7.0722" fill="#fff" fill-rule="evenodd" stroke="#ef2d28" stroke-width=".27335pt"/>
 <rect x="109.16" y="47.829" width="6.9152" height="6.1882" fill="#fff" fill-rule="evenodd" stroke="#ef2d28" stroke-width=".28488pt"/>
 <ellipse transform="matrix(.21685 0 0 .24949 61.524 1.8592)" cx="237.4" cy="161.22" rx="42.52" ry="33.661" fill="#fff" fill-rule="evenodd" stroke="#ef2d28" stroke-width="1.1548pt"/>
 <path d="m117.61 41.64c0 2.318 2.3051 6.1882 2.3051 6.1882-1.6689 1.5202-4.3703 2.6521-6.915 2.6521-2.5447 0-5.7137-0.63072-6.9152-2.6521 0 0 2.3051-3.8701 2.3051-6.1882s-2.3051-5.3042-2.3051-5.3042c1.6688-1.5202 4.3703-2.6521 6.9152-2.6521 2.5447 0 5.2462 1.1319 6.915 2.6521 0 0-2.3051 2.9862-2.3051 5.3042z" fill="#fff" fill-rule="evenodd" stroke="#ef2d28" stroke-width=".26859pt"/>
 <path d="m116.08 41.64c0 2.318 2.3051 7.0721 2.3051 7.0721-1.6688 1.5202-2.8338 1.7682-5.3784 1.7682-2.5447 0-4.1769 0.25323-5.3784-1.7682 0 0 2.3051-4.7541 2.3051-7.0721s-2.3051-6.1882-2.3051-6.1882c1.6688-1.5202 2.8335-1.7682 5.3784-1.7682 2.5447 0 3.7096 0.248 5.3784 1.7682 0 0-2.3051 3.8701-2.3051 6.1882z" fill="#fff" fill-rule="evenodd" stroke="#ef2d28" stroke-width=".26859pt"/>
 <ellipse transform="matrix(.21685 0 0 .24949 61.524 .97517)" cx="194.88" cy="166.54" rx="10.63" ry="10.63" fill="#fff" fill-rule="evenodd" stroke="#ef2d28" stroke-width="1.1548pt"/>
 <ellipse transform="matrix(.21685 0 0 .24949 79.964 .97517)" cx="194.88" cy="166.54" rx="10.63" ry="10.63" fill="#fff" fill-rule="evenodd" stroke="#ef2d28" stroke-width="1.1548pt"/>
 <ellipse transform="matrix(.21685 0 0 .24949 70.744 .97517)" cx="194.88" cy="166.54" rx="10.63" ry="10.63" fill="#fff" fill-rule="evenodd" stroke="#ef2d28" stroke-width="1.1548pt"/>
 <ellipse transform="matrix(.21685 0 0 .24949 70.744 -7.8651)" cx="194.88" cy="166.54" rx="10.63" ry="10.63" fill="#fff" fill-rule="evenodd" stroke="#ef2d28" stroke-width="1.1548pt"/>
 <ellipse transform="matrix(.22459 0 0 .24949 62.484 42.524)" cx="194.88" cy="166.54" rx="10.63" ry="10.63" fill="#fff" fill-rule="evenodd" stroke="#ef2d28" stroke-width="1.1548pt"/>
 <ellipse transform="matrix(.22459 0 0 .24949 75.217 42.524)" cx="194.88" cy="166.54" rx="10.63" ry="10.63" fill="#fff" fill-rule="evenodd" stroke="#ef2d28" stroke-width="1.1548pt"/>
 <path d="m107.05 77.001h11.141l-5.5705 7.9563-5.5708-7.9563z" fill="#fff" fill-rule="evenodd" stroke="#ef2d28" stroke-width=".27335pt"/>
 <ellipse transform="matrix(.29945 0 0 .33266 54.261 27.791)" cx="194.88" cy="166.54" rx="10.63" ry="10.63" fill="#fff" fill-rule="evenodd" stroke="#ef2d28" stroke-width="1.1548pt"/>
 <rect x="100.36" y="109.72" width="17.102" height="5.3042" rx="1.2377" ry=".93811" fill="#fff" fill-rule="evenodd" stroke="#ef2d28" stroke-width=".33028"/>
 <path d="m122.67 105.3c-2.0595 0-3.7177 2.0606-3.7177 4.6203v4.0196c0 2.5598 1.6582 4.6206 3.7177 4.6206 2.0597 0 3.7179-2.0608 3.7179-4.6206v-4.0196c0-2.5598-1.6582-4.6203-3.7179-4.6203zm0 1.7682c-1.2356 0-2.2307 1.6486-2.2307 3.6965v2.3315c0 2.0478 0.99512 3.6965 2.2307 3.6965 1.2358 0 2.2307-1.6486 2.2307-3.6965v-2.3315c0-2.0478-0.99491-3.6965-2.2307-3.6965z" fill="#fff" fill-rule="evenodd" stroke="#ef2d28" stroke-width=".33028"/>
 <path d="m103.34 106.19c-1.2356 0-2.2307 1.6486-2.2307 3.6965v4.0996c0 2.0478 0.99511 3.6965 2.2307 3.6965 1.2358 0 2.2307-1.6486 2.2307-3.6965v-4.0996c0-2.0478-0.9949-3.6965-2.2307-3.6965zm0-1.7682c-2.0595 0-3.7177 2.0606-3.7177 4.6204v5.7877c0 2.5598 1.6582 4.6206 3.7177 4.6206 2.0597 0 3.7179-2.0608 3.7179-4.6206v-5.7877c0-2.5598-1.6582-4.6204-3.7179-4.6204z" fill="#fff" fill-rule="evenodd" stroke="#ef2d28" stroke-width=".33028"/>
 <path d="m97.389 107.95c-1.2356 0-2.2307 1.6486-2.2307 3.6965l-2.1e-4 0.96403c0 2.0478 0.99512 3.6965 2.2307 3.6965 1.2358 0 2.2307-1.6486 2.2307-3.6965l2.1e-4 -0.96403c0-2.0478-0.99491-3.6965-2.2307-3.6965zm0-1.7682c-2.0595 0-3.7177 2.0606-3.7177 4.6204l-2.1e-4 2.6521c0 2.5598 1.6582 4.6206 3.7177 4.6206 2.0597 0 3.7179-2.0608 3.7179-4.6206l2.1e-4 -2.6521c0-2.5598-1.6582-4.6204-3.7179-4.6204z" fill="#fff" fill-rule="evenodd" stroke="#ef2d28" stroke-width=".33028"/>
 <path d="m88.466 105.51c-2.2241 0-4.0153 1.8426-4.0153 4.1313v4.5819c0 2.2887 1.7912 4.1313 4.0153 4.1313 2.2245 0 4.0153-1.8426 4.0153-4.1313v-4.5819c0-2.2887-1.7908-4.1313-4.0153-4.1313zm0-1.9761c-3.7071 0-6.6919 2.3029-6.6919 5.1638v6.4685c0 2.8609 2.9848 5.1641 6.6919 5.1641 3.7075 0 6.6923-2.3032 6.6923-5.1641v-6.4685c0-2.8609-2.9848-5.1638-6.6923-5.1638z" fill="#fff" fill-rule="evenodd" stroke="#ef2d28" stroke-width=".33028"/>
 <path d="m136.8 106.39c-2.2241 0-4.0153 1.8426-4.0153 4.1313v4.5819c0 2.2887 1.7912 4.1313 4.0153 4.1313 2.2245 0 4.0153-1.8426 4.0153-4.1313v-4.5819c0-2.2887-1.7908-4.1313-4.0153-4.1313zm0-1.9761c-3.7071 0-6.6919 2.3029-6.6919 5.1638v6.4685c0 2.8609 2.9848 5.1641 6.6919 5.1641 3.7075 0 6.6923-2.3032 6.6923-5.1641v-6.4685c0-2.8609-2.9848-5.1638-6.6923-5.1638z" fill="#fff" fill-rule="evenodd" stroke="#ef2d28" stroke-width=".33028"/>
 <rect x="124.16" y="109.72" width="8.9228" height="5.3042" rx=".64577" ry=".93811" fill="#fff" fill-rule="evenodd" stroke="#ef2d28" stroke-width=".33028"/>
 <rect x="115.98" y="108.84" width="5.205" height="7.0722" rx=".3767" ry="1.2508" fill="#fff" fill-rule="evenodd" stroke="#ef2d28" stroke-width=".33028"/>
 <rect x="91.441" y="108.84" width="5.205" height="7.0722" rx=".3767" ry="1.2508" fill="#fff" fill-rule="evenodd" stroke="#ef2d28" stroke-width=".33028"/>
 <rect x="75.082" y="107.95" width="10.41" height="8.8403" rx=".7534" ry="1.5635" fill="#fff" fill-rule="evenodd" stroke="#ef2d28" stroke-width=".33028"/>
 <rect x="139.77" y="108.84" width="9.6664" height="8.8403" rx=".69959" ry="1.5635" fill="#fff" fill-rule="evenodd" stroke="#ef2d28" stroke-width=".33028"/>
</svg>
