<?xml version="1.0" encoding="UTF-8"?>
<svg version="1.0" viewBox="0 0 900 600" xmlns="http://www.w3.org/2000/svg">
 <rect width="900" height="600" fill="#0038a8"/>
 <rect y="300" width="900" height="300" fill="#ce1126"/>
 <path d="m389.98 300-389.98 300 7.8143e-4 -600 389.98 300z" fill="#fff"/>
 <path d="m151.92 243.38 8.084-41.317-5.3877-8.9467-6.6436 50.264h3.9472zm-16.79 0-4.6853-55.997 9.4504-14.053 9.3263 14.053-4.7058 55.997h-9.3855zm-7.4104 0-7.7159-41.317 5.475-8.9467 6.1943 50.264h-3.9534z" fill="#fcd116"/>
 <circle transform="matrix(1.4556 0 0 1.9408 19.87 9.2575)" cx="82.531" cy="149.81" r="30.916" fill="#fcd116"/>
 <path d="m128.08 356.62-8.084 41.317 5.3877 8.9467 6.6436-50.264h-3.9472zm16.79 0 4.6853 55.997-9.4504 14.053-9.3263-14.053 4.7058-55.997h9.3855zm7.4104 0 7.7159 41.317-5.475 8.9467-6.1943-50.264h3.9534z" fill="#fcd116"/>
 <path d="m182.46 315.89 30.988 10.779 6.71-7.1836-37.698-8.8581v5.263zm0-22.386 41.998-6.247 10.54 12.6-10.54 12.435-41.998-6.2744v-12.514zm0-9.8805 30.988-10.288 6.71 7.3001-37.698 8.2591v-5.2713z" fill="#fcd116"/>
 <circle transform="matrix(0 1.9408 -1.4556 0 358.06 139.83)" cx="82.531" cy="149.81" r="30.916" fill="#fcd116"/>
 <path d="m97.538 284.11-30.988-10.779-6.71 7.1836 37.698 8.8581v-5.263zm0 22.386-41.998 6.247-10.54-12.6 10.54-12.435 41.998 6.2744v12.514zm0 9.8805-30.988 10.288-6.71-7.3001 37.698-8.2591v5.2713z" fill="#fcd116"/>
 <path d="m118.4 248.73-16.196-36.837-8.5544-1.2467 21.959 41.806 2.7911-3.7215zm-11.872 15.829-33.01-35.179-0.7705-18.847 14.048 1.1443 26.37 44.033-6.6366 8.8488zm-5.2399 6.9866-27.368-21.941-0.87324-11.488 31.037 29.702-2.7955 3.7273z" fill="#fcd116"/>
 <circle transform="matrix(1.0293 -1.3723 1.0293 1.3723 -99.134 207.67)" cx="82.531" cy="149.81" r="30.916" fill="#fcd116"/>
 <path d="m161.6 351.27 16.196 36.837 8.5544 1.2467-21.959-41.806-2.7911 3.7215zm11.872-15.829 33.01 35.179 0.7705 18.847-14.048-1.1443-26.37-44.033 6.6366-8.8488zm5.2399-6.9865 27.368 21.941 0.87324 11.488-31.037-29.702 2.7955-3.7273z" fill="#fcd116"/>
 <path d="m178.45 271.2 27.628-21.594 0.93501-11.406-31.354 29.278 2.7911 3.7215zm-11.872-15.829 26.384-44.013 14.135-1.0273-0.85822 18.73-33.025 35.159-6.6366-8.8488zm-5.2399-6.9866 16.456-36.49 8.6161-1.1643-22.276 41.382-2.7955-3.7274z" fill="#fcd116"/>
 <circle transform="matrix(1.0293 1.3723 -1.0293 1.3723 209.24 -18.845)" cx="82.531" cy="149.81" r="30.916" fill="#fcd116"/>
 <path d="m101.55 328.8-27.628 21.594-0.93501 11.406 31.354-29.278-2.7911-3.7215zm11.872 15.829-26.384 44.013-14.135 1.0273 0.85823-18.73 33.025-35.159 6.6366 8.8488zm5.2399 6.9866-16.456 36.49-8.6161 1.1643 22.276-41.382 2.7955 3.7274z" fill="#fcd116"/>
 <path d="m295.51 321.7 11.918-21.665-11.95-21.633 19.136 8.4175 11.738-21.839-0.0792 26.868 19.205 8.1359-19.192 8.1876 0.11873 26.867-11.771-21.807-19.124 8.469z" fill="#fcd116"/>
 <path d="m60.743 97.537-20.031-2.9285-8.0759 24.616-4.1009-26.306-20.054-2.6342 17.491-13.342-4.318-26.244 14.914 18.067 17.391-13.571-8.2789 24.495 15.063 17.848z" fill="#fcd116"/>
 <path d="m60.743 502.46-20.031 2.9285-8.0759-24.616-4.1009 26.306-20.054 2.6342 17.491 13.342-4.318 26.244l14.914-18.067 17.391 13.571-8.2789-24.495 15.063-17.848z" fill="#fcd116"/>
</svg>
