<?xml version="1.0" encoding="UTF-8"?>
<svg viewBox="0 0 1062.99 708.661" xmlns="http://www.w3.org/2000/svg">
 <path d="m0 0h1063v708.66h-1063z" fill="#fff" fill-rule="evenodd"/>
 <path d="m0 0h1063v354.33h-1063z" fill="#df0000" fill-rule="evenodd"/>
 <path transform="matrix(2.1168 0 0 2.1168 -312.4 -943.16)" d="m263.4 473.62c-23.186 5.316-40.414 22.484-45.285 45.826-6.618 31.712 14.039 62.762 45.812 69.39-32.101 9.152-65.273-9.301-74.341-41.106s9.386-64.976 41.191-74.044c11.165-3.184 21.444-3.204 32.623-0.066z" fill="#fff" fill-rule="evenodd"/>
 <path transform="matrix(1.8341 0 0 1.8341 -255.13 -795.56)" d="m266.186,534.45-10.408-7.432-10.357,7.505 3.852-12.196-10.338-7.531 12.79-.105 3.967-12.159 4.052,12.131 12.79.016-10.285,7.602 3.937,12.169z" fill="#fff" fill-rule="evenodd"/>
 <path transform="matrix(1.8341 0 0 1.8341 -229.2 -718.7)" d="m266.186,534.45-10.408-7.432-10.357,7.505 3.852-12.196-10.338-7.531 12.79-.105 3.967-12.159 4.052,12.131 12.79.016-10.285,7.602 3.937,12.169z" fill="#fff" fill-rule="evenodd"/>
 <path transform="matrix(1.8341 0 0 1.8341 -142.94 -719.27)" d="m266.186,534.45-10.408-7.432-10.357,7.505 3.852-12.196-10.338-7.531 12.79-.105 3.967-12.159 4.052,12.131 12.79.016-10.285,7.602 3.937,12.169z" fill="#fff" fill-rule="evenodd"/>
 <path transform="matrix(1.8341 0 0 1.8341 -117.22 -795.5)" d="m266.186,534.45-10.408-7.432-10.357,7.505 3.852-12.196-10.338-7.531 12.79-.105 3.967-12.159 4.052,12.131 12.79.016-10.285,7.602 3.937,12.169z" fill="#fff" fill-rule="evenodd"/>
 <path transform="matrix(1.8341 0 0 1.8341 -185.51 -846.08)" d="m266.186,534.45-10.408-7.432-10.357,7.505 3.852-12.196-10.338-7.531 12.79-.105 3.967-12.159 4.052,12.131 12.79.016-10.285,7.602 3.937,12.169z" fill="#fff" fill-rule="evenodd"/>
</svg>
