<?xml version="1.0" encoding="UTF-8"?>
<svg version="1.0" viewBox="0 0 900 600" xmlns="http://www.w3.org/2000/svg">
 <rect width="900" height="600" fill="#fff"/>
 <rect y="400" width="900" height="200" fill="#ed1c24"/>
 <rect y="200" width="900" height="200" fill="#005da4"/>
 <path d="m170.56 115.34c-1.386 0.8149-2.7617 1.6609-4.127 2.5372l4.301 90.743c1.1716 24.738 9.062 48.15 22.285 65.78 9.0423 12.056 20.112 20.788 32.141 25.603h7.5e-4c12.029-4.8155 23.099-13.547 32.141-25.603 13.223-17.63 21.114-41.042 22.285-65.78l4.3015-90.743c-1.3658-0.87636-2.7404-1.7223-4.1275-2.5372l7.5e-4 6.9e-4 -4.4025 92.891c-1.1017 23.381-8.557 45.51-21.053 62.172-8.2353 10.982-18.252 19.042-29.144 23.684h-2e-3c-10.892-4.6415-20.908-12.702-29.143-23.684-12.497-16.662-19.952-38.791-21.053-62.172l-4.403-92.892h7.5e-4" fill="#ed1c24"/>
 <path d="m279.76 115.34c-17.042-10.018-35.616-15.337-54.601-15.337-18.986 0-37.56 5.319-54.602 15.337l4.4036 92.891c1.1012 23.381 8.5565 45.51 21.053 62.172 8.2358 10.982 18.252 19.042 29.144 23.684h2e-3c10.892-4.6415 20.909-12.702 29.143-23.684 12.497-16.662 19.953-38.791 21.053-62.172" fill="#005da4"/>
 <polyline transform="matrix(.51795 0 0 .69059 166.43 100)" points="119.76 62.917 124.43 56.539 116.57 57.394 113.39 50.161 110.2 57.394 102.34 56.539 107.01 62.917 102.34 69.295 110.2 68.44 113.39 75.673 116.57 68.44 124.43 69.295" fill="#fd0"/>
 <polyline transform="matrix(.51795 0 0 .69059 166.43 100)" points="90 23.232 94.669 16.854 86.811 17.709 83.622 10.476 80.433 17.709 72.575 16.854 77.244 23.232 72.575 29.61 80.433 28.755 83.622 35.988 86.811 28.755 94.669 29.61" fill="#fd0"/>
 <polyline transform="matrix(.51795 0 0 .69059 166.43 100)" points="149.53 23.232 154.2 16.854 146.34 17.709 143.15 10.476 139.96 17.709 132.1 16.854 136.77 23.232 132.1 29.61 139.96 28.755 143.15 35.988 146.34 28.755 154.2 29.61" fill="#fd0"/>
 <path d="m269.21 221.75-22.024-39.152-8.8092 15.661-13.214-35.237-13.214 35.237-8.8092-15.661-22.023 39.152c0 5.1919 1.5471 10.17 4.3005 13.842 2.7534 3.6698 6.4873 5.734 10.382 5.734 2.6001 0 5.1292-0.91987 7.3419-2.6236 0.0145-0.0124-0.0176 0.0138-4e-3 3e-3 1.1027-0.84943 2.2924-1.511 3.5433-1.9572 3.7613-1.3432 7.7687-0.64087 11.141 1.9544 2.2515 1.7334 4.7868 2.6236 7.3424 2.6236h-2e-3c2.5561 0 5.0909-0.89018 7.3429-2.6236 3.3718-2.5952 7.3797-3.299 11.141-1.9544 1.2503 0.44611 2.44 1.1077 3.5428 1.9572 0.015 0.011-0.0171-0.0145-3e-3 -3e-3 2.2132 1.7037 4.7413 2.6236 7.3414 2.6236 3.895 0 7.6288-2.0635 10.382-5.734 2.7534-3.6712 4.3005-8.6497 4.3005-13.842" fill="#fff"/>
 <path d="m186.33 243.01c1.0105 2.6774 2.1215 5.29 3.3288 7.8272 0 0-5.2e-4 1e-3 0 3e-3 3.0994 1.9005 6.6136 2.3107 9.9363 1.1236 1.2514-0.44612 2.4406-1.1084 3.5432-1.9572 0.0145-0.011-0.0176 0.0138-3e-3 3e-3 2.2127-1.7051 4.7418-2.6236 7.3419-2.6236h-1e-3c2.5556-1e-3 5.0909 0.88879 7.3424 2.6236 3.3724 2.5952 7.3797 3.2976 11.142 1.9544 1.2503-0.44612 2.44-1.1084 3.5428-1.9572 0.015-0.011-0.0171 0.0138-3e-3 3e-3 2.2121-1.7051 4.7413-2.6236 7.3424-2.6236h-2e-3c2.5555-1e-3 5.0914 0.88879 7.3424 2.6236 3.3729 2.5952 7.3797 3.2976 11.141 1.9544 0.80747-0.28729 1.588-0.66643 2.337-1.125 1.2078-2.5386 2.3188-5.1511 3.3294-7.8272v0c-0.73341 0.37223-1.4446 0.82249-2.1262 1.3473-0.014 0.0111 0.0181-0.0138 4e-3 -3e-3 -1.1027 0.84875-2.2924 1.5096-3.5438 1.9572-3.7613 1.3432-7.7681 0.64087-11.141-1.9558-2.251-1.7334-4.7868-2.6222-7.3424-2.6222h2e-3c-2.6006 0-5.1297 0.91987-7.3424 2.6236-0.0139 0.0111 0.0181-0.0138 3e-3 -3e-3 -1.1027 0.84943-2.2924 1.511-3.5428 1.9572-3.7618 1.3446-7.7692 0.64225-11.142-1.9544-2.2515-1.7334-4.7868-2.6236-7.3424-2.6236h2e-3c-2.6001 0-5.1292 0.91987-7.3419 2.625-0.0145 0.011 0.0176-0.0138 3e-3 -3e-3 -1.1027 0.84873-2.2919 1.5096-3.5432 1.9571-3.7613 1.3432-7.7687 0.64088-11.141-1.9558-0.68421-0.52623-1.3948-0.97511-2.1241-1.3446-5.2e-4 0 0-1e-3 0 0" fill="#fff"/>
 <path d="m256.86 258.03c-1.7108 2.9226-3.5629 5.7202-5.5508 8.3693-7.4273 9.9031-16.392 17.283-26.147 21.73h-5.2e-4c-9.755-4.446-18.72-11.825-26.147-21.73-1.9874-2.6491-3.8395-5.4467-5.5503-8.3693 0 0-5.2e-4 0 0 0 2.0246 0.43437 4.1151 0.30248 6.134-0.41781 1.2514-0.44751 2.4406-1.1084 3.5433-1.9572 0.0145-0.011-0.0176 0.0138-3e-3 3e-3 2.2126-1.7051 4.7418-2.6236 7.3419-2.6236h-1e-3c2.5555-1e-3 5.0909 0.88879 7.3424 2.6222 3.3724 2.5966 7.3797 3.299 11.141 1.9558 1.2514-0.44751 2.4411-1.1084 3.5438-1.9572 0.0139-0.011-0.0181 0.0138-3e-3 3e-3 2.2121-1.7051 4.7413-2.6236 7.3414-2.6236h-7.5e-4c2.5555-1e-3 5.0904 0.88879 7.3424 2.6222 2.9368 2.2617 6.3567 3.0863 9.6752 2.3729 7.5e-4 0 0 0-7.5e-4 1e-3" fill="#fff"/>
</svg>
