<?xml version="1.0" encoding="UTF-8"?>
<svg version="1.0" viewBox="0 0 450 300" xmlns="http://www.w3.org/2000/svg">
 <defs>
  <clipPath id="a">
   <path d="m171.82 258.25c-26.762-12.893-65.044-38.479-65.044-89.094 0-50.614 2.42-73.633 2.42-73.633h62.625 62.627s2.422 23.019 2.422 73.633c-1e-3 50.616-38.286 76.201-65.05 89.094z"/>
  </clipPath>
 </defs>
 <rect y="100" width="450" height="100" fill="#0f218b"/>
 <rect y="-2.7734e-7" width="450" height="100" fill="#fff"/>
 <rect y="200" width="450" height="100" fill="#f00"/>
 <path d="m87.457 146.27c0-44.301 2.6251-69.139 2.6251-69.139h59.063 59.064s2.626 24.839 2.626 69.139c0 47.158-35.827 70.676-59.416 82.037l-2.2754 1.096-2.2728-1.096c-23.586-11.361-59.414-34.879-59.414-82.037z" fill="#fff" fill-rule="evenodd"/>
 <path d="m149.15 223.59c-23.224-11.189-56.446-33.393-56.446-77.317 0-43.924 2.1001-63.9 2.1001-63.9h54.347 54.349s2.1018 19.976 2.1018 63.9c-8.7e-4 43.925-33.225 66.128-56.451 77.317z" fill="#f00"/>
 <path d="m154.11 134.76c6.2882 0.10153 18.559 0.34799 29.484-3.3081 0 0-0.28898 3.9095-0.28898 8.4638 0 4.5552 0.28898 8.4647 0.28898 8.4647-10.022-3.3532-22.397-3.4235-29.484-3.3333v24.261h-9.933v-24.261c-7.0874-0.09025-19.462-0.01996-29.484 3.3333 0 0 0.28898-3.9095 0.28898-8.4647 0-4.5543-0.28898-8.4638-0.28898-8.4638 10.925 3.6561 23.195 3.4096 29.484 3.3081v-15.236c-5.7319-0.0512-13.992 0.22303-23.33 3.348 0 0 0.28899-3.9095 0.28899-8.4647 0-4.5543-0.28899-8.4638-0.28899-8.4638 9.3255 3.1198 17.574 3.3984 23.304 3.348-0.29419-9.6484-3.105-21.808-3.105-21.808s5.7848 0.45213 8.0967 0.45213c2.3153 0 8.0984-0.45213 8.0984-0.45213s-2.81 12.161-3.105 21.808c5.731 0.04946 13.98-0.22824 23.305-3.348 0 0-0.28899 3.9095-0.28899 8.4638 0 4.5552 0.28899 8.4647 0.28899 8.4647-9.3394-3.125-17.599-3.3992-23.331-3.348v15.236z" fill="#fff"/>
 <g transform="matrix(.86781 0 0 .86781 .036748 -.52024)" clip-path="url(#a)">
  <path d="m170.64 274.85l-55.454-49.43s7.089-22.927 20.927-22.927c10.996 0 15.009 8.865 15.009 8.865s7.22-18.689 20.696-18.689c13.479 0 20.699 18.689 20.699 18.689s4.013-8.865 15.01-8.865c13.838 0 20.927 22.927 20.927 22.927l-57.814 49.43z" fill="#0f218b" fill-rule="evenodd"/>
 </g>
</svg>
