<?xml version="1.0" encoding="UTF-8"?>
<svg width="900" height="600" viewBox="-45 -45 243 162" xmlns="http://www.w3.org/2000/svg" xmlns:xlink="http://www.w3.org/1999/xlink">
 <rect x="-45" y="-45" width="100%" height="100%" fill="#fff"/>
 <path d="m45-18h153m-153 36h153m-243 36h243m-243 36h243" fill="none" stroke="#0038a8" stroke-width="18"/>
 <g fill="#fcd116" stroke="#000" stroke-miterlimit="20" stroke-width=".6">
  <g id="d">
   <g id="f">
    <g id="a" transform="rotate(22.5)">
     <path d="m0 0l6 12c-8 13 1 15-6 21 3-8-4-5-3-20"/>
     <path d="m0 11c-2 13 4.5 17 0 22" fill="none"/>
    </g>
    <use transform="scale(-1)" xlink:href="#a"/>
   </g>
   <use transform="rotate(90)" xlink:href="#f"/>
  </g>
  <use transform="rotate(45)" xlink:href="#d"/>
  <g id="e">
   <g id="g">
    <path id="b" d="m0 0h6l-6 33-6-33h6v33"/>
    <use transform="scale(-1)" xlink:href="#b"/>
   </g>
   <use transform="rotate(90)" xlink:href="#g"/>
  </g>
  <use transform="rotate(45)" xlink:href="#e"/>
  <circle r="11"/>
  <g transform="scale(.1)" fill="#000" stroke="none">
   <g id="c">
    <path d="m81-44c-7 8-11-6-36-6s-29 15-33 12 21-21 29-22 31 7 40 16"/>
    <path d="m52-35c7 6 1 19-6 19s-20-12-14-20"/>
    <path d="m19-26c1-12 11-14 27-14s23 12 29 15c-7 0-13-10-29-10s-16 0-27 10"/>
    <path d="m22-23c4-6 9 6 20 6s17-3 24-8-10 12-21 12-26-6-23-10"/>
    <path d="m56-17c13-7 5-17 0-19 2 2 10 12 0 19"/>
    <path d="m0 43c6 0 8-2 16-2s27 11 38 7c-23 9-14 3-54 3h-5"/>
    <path d="m58 57c-4-7-3-5-11-16 8 6 10 9 11 16"/>
    <path d="m0 67c25 0 21-5 54-19-24 3-29 11-54 11h-5"/>
    <path d="m0 30c7 0 9-5 17-5s19 3 24 7c1 1-3-8-11-9s-5-14-14-16c0 4 3 3 4 9 0 5-9 5-11 0 2 8-4 8-9 8"/>
   </g>
   <use transform="scale(-1,1)" xlink:href="#c"/>
   <path d="m0 76c-5 0-18 3 0 3s5-3 0-3"/>
  </g>
 </g>
</svg>
