<svg
   xmlns:svg="http://www.w3.org/2000/svg"
   xmlns="http://www.w3.org/2000/svg"
   id="svg105"
   viewBox="0 0 34.298886 34.101056"
   version="1.1"
   height="34.101055mm"
   width="34.298885mm">
  <path
     style="fill:#b4d9df;stroke-width:0.2225351"
     id="path47"
     d="m 34.298853,17.007022 c 0,0 -2.438095,-0.907943 -1.654548,-4.54973 C 33.381563,9.0284717 31.496023,6.8778917 29.965872,6.3106497 V 4.4958767 H 27.898744 C 27.431197,2.9385757 25.252579,0.8890277 21.702699,1.6592217 18.061358,2.4369817 17.156752,0 17.156752,0 L 17.146512,0.1281797 17.142512,0 c 0,0 -0.903492,2.4369817 -4.545279,1.6592217 C 9.04179,0.8890277 6.867622,2.9385757 6.400966,4.4958767 H 4.332981 v 1.814773 C 2.799046,6.8778917 0.913284,9.0284717 1.65477,12.457292 2.433866,16.099079 0,17.007022 0,17.007022 H 0.06965 0 c 0,0 2.433866,0.909724 1.65477,4.550843 -0.741486,3.430155 1.144276,5.580067 2.678211,6.146196 v 1.96543 h 2.087156 c 0.502707,1.538608 2.669085,3.52184 6.177129,2.769449 3.641787,-0.777315 4.545279,1.662115 4.545279,1.662115 l 0.004,-0.139529 0.01024,0.139529 c 0,0 0.904606,-2.43943 4.545947,-1.662115 3.508933,0.752391 5.672864,-1.230841 6.177574,-2.769449 h 2.085599 v -1.96543 c 1.530151,-0.566129 3.415691,-2.716041 2.678432,-6.146196 -0.783546,-3.641119 1.654549,-4.550843 1.654549,-4.550843 h -0.06943 z" />
  <path
     style="fill:#d32011;stroke-width:0.2225351"
     id="path51"
     d="m 7.269741,11.770771 v 0.481343 c 0.0058,0.2054 0.0093,0.418367 0.02336,0.640234 0.01513,0.231881 0.04161,0.463763 0.07032,0.694754 0.03138,0.232549 0.07856,0.44418 0.143313,0.640902 0.06053,0.184481 0.138639,0.342258 0.231659,0.463095 0.09235,0.120614 0.213855,0.174912 0.353163,0.174912 0.147318,0 0.271492,-0.04473 0.374971,-0.14665 0.105927,-0.111713 0.195608,-0.241229 0.263259,-0.40813 0.0701,-0.159112 0.120837,-0.342926 0.163564,-0.546546 0.03917,-0.216082 0.06787,-0.418143 0.09124,-0.62154 0.01958,-0.212966 0.03316,-0.409465 0.03783,-0.602848 0.0049,-0.183814 0.0093,-0.351828 0.0093,-0.482011 V 11.855334 C 8.795388,11.760754 8.604675,11.677974 8.470264,11.604537 8.33563,11.538887 8.234377,11.465008 8.164723,11.40114 c -0.06988,-0.06565 -0.11149,-0.128848 -0.130405,-0.2054 -0.02248,-0.07321 -0.03116,-0.155997 -0.03116,-0.250129 0,-0.05474 0.0038,-0.111268 0.0087,-0.15622 0,-0.05719 0.0096,-0.101698 0.02248,-0.139529 0.01002,-0.03716 0.02826,-0.07566 0.0572,-0.102367 0.02159,-0.01825 0.05452,-0.03716 0.09591,-0.03716 0.02826,0 0.05653,0.0093 0.0839,0.01892 0.0227,0.01825 0.0514,0.02826 0.09168,0.0543 0.09302,0.0474 0.176471,0.0948 0.256138,0.130183 0.07811,0.0385 0.143535,0.06631 0.198946,0.08523 0.06008,0.01647 0.120837,0.03538 0.166457,0.05452 0,-0.03806 0.0049,-0.121281 0.0049,-0.231881 0,-0.111268 0.0096,-0.240783 0.02826,-0.379867 0.01402,-0.147096 0.0405,-0.2955273 0.07722,-0.4541953 0.03917,-0.159335 0.09391,-0.305096 0.167569,-0.435278 0.07455,-0.129516 0.167346,-0.240783 0.28351,-0.323566 0.115495,-0.08456 0.258808,-0.130183 0.431718,-0.130183 0.05474,0 0.106593,0.0071 0.16156,0.01647 0.05563,0.0096 0.100586,0.02915 0.147986,0.05697 0.04673,0.02826 0.08323,0.06387 0.114605,0.1106 0.02938,0.04785 0.04228,0.101698 0.04228,0.17736 v 0.04495 c -0.0033,0 -0.0033,0.0096 -0.0033,0.02893 l -0.265262,1.1222453 -0.03627,0.352495 c 0.282175,-0.04785 0.523625,-0.120836 0.727912,-0.214746 0.208739,-0.101921 0.374082,-0.212966 0.509384,-0.343594 0.133965,-0.129738 0.230991,-0.2763893 0.296861,-0.4341673 0.06409,-0.158667 0.09702,-0.314664 0.09702,-0.482233 0,-0.168014 -0.02804,-0.33358 -0.0928,-0.500927 -0.06053,-0.166233 -0.167124,-0.32401 -0.320895,-0.463762 -0.151769,-0.14042 -0.361174,-0.259699 -0.614642,-0.342482 -0.255248,-0.09146 -0.579259,-0.14042 -0.96914,-0.14042 -0.291744,0 -0.556783,0.05786 -0.793116,0.168237 -0.241895,0.111268 -0.449075,0.267265 -0.634892,0.454417 -0.185817,0.193828 -0.348045,0.415695 -0.482011,0.66627 -0.133521,0.259921 -0.248795,0.528965 -0.337363,0.815146 -0.0899,0.2888503 -0.153105,0.5839323 -0.194496,0.8914753 -0.0425,0.304651 -0.06142,0.602848 -0.06142,0.889028 M 9.874722,6.8876867 c 0.487351,0 0.913061,0.06431 1.279798,0.193829 0.371189,0.129515 0.67495,0.305095 0.920184,0.519842 0.243453,0.221867 0.427044,0.472664 0.547658,0.74883 0.125733,0.28796 0.186485,0.574363 0.186485,0.881239 0,0.276834 -0.05207,0.566129 -0.161116,0.8442983 -0.11327,0.267042 -0.279282,0.527408 -0.501594,0.758622 -0.22387,0.232104 -0.500481,0.437949 -0.845411,0.611527 -0.331577,0.167569 -0.731027,0.28885 -1.185221,0.35205 -0.0096,0.212967 -0.0178,0.408797 -0.02248,0.584377 -0.0047,0.07522 -0.0047,0.148431 -0.0087,0.221868 -0.0065,0.0859 -0.0065,0.14843 -0.0065,0.214969 -0.0049,0.05474 -0.0049,0.111045 -0.008,0.155997 v 0.101476 c -0.0056,0.196721 -0.02849,0.409464 -0.07032,0.622431 -0.04162,0.221867 -0.105704,0.435946 -0.185372,0.639565 -0.07856,0.204065 -0.176248,0.40724 -0.292856,0.593279 -0.10971,0.184259 -0.243899,0.342926 -0.396335,0.482456 -0.152659,0.139752 -0.325124,0.250352 -0.510718,0.33358 -0.1896,0.08211 -0.39411,0.120169 -0.617313,0.120169 -0.234329,0 -0.448185,-0.05675 -0.633557,-0.176916 C 7.177537,15.560993 7.011303,15.404995 6.872219,15.192697 6.733357,14.98663 6.616081,14.745847 6.519279,14.478136 6.422479,14.20887 6.344143,13.920909 6.282724,13.624492 6.223754,13.32674 6.176797,13.031881 6.14809,12.733684 6.12161,12.429034 6.10759,12.15042 6.10759,11.883823 c 0,-0.455975 0.0405,-0.890808 0.125065,-1.316073 0.0879,-0.42838 0.203619,-0.8251603 0.361174,-1.1965713 0.15711,-0.370966 0.34671,-0.704546 0.569467,-1.011645 0.222091,-0.305095 0.47222,-0.564126 0.751501,-0.786438 0.28351,-0.222313 0.583265,-0.39055 0.911504,-0.510718 0.330242,-0.12106 0.677619,-0.174691 1.048363,-0.174691" />
  <path
     style="fill:#d32011;stroke-width:0.2225351"
     id="path55"
     d="m 13.211428,12.71432 c 0.107484,0 0.218529,-0.02537 0.343594,-0.08278 0.120391,-0.04428 0.235664,-0.111935 0.342704,-0.193828 0.106594,-0.08234 0.20896,-0.196054 0.310214,-0.333135 0.102811,-0.139529 0.152659,-0.250129 0.152659,-0.344929 0,-0.12818 -0.0227,-0.231215 -0.07455,-0.314888 -0.0454,-0.08189 -0.105705,-0.120391 -0.176025,-0.120391 -0.12462,0 -0.230769,0.01892 -0.319339,0.06632 -0.08746,0.04473 -0.156664,0.111045 -0.217194,0.174912 -0.06119,0.07588 -0.111713,0.158 -0.143535,0.250352 -0.0385,0.09213 -0.07878,0.203842 -0.124174,0.343594 -0.0514,0.129515 -0.07922,0.240783 -0.08501,0.332912 -0.0047,0.08456 -0.0093,0.158001 -0.0093,0.221868 m 0.579258,2.05845 c -0.268599,0 -0.504487,-0.04495 -0.707661,-0.149099 -0.200727,-0.101254 -0.370521,-0.231214 -0.506045,-0.39678 -0.135078,-0.177583 -0.236777,-0.370966 -0.30109,-0.593501 -0.06965,-0.222313 -0.103033,-0.454194 -0.103033,-0.694755 0,-0.158 0.03338,-0.351382 0.09391,-0.576365 0.0603,-0.212966 0.119502,-0.406795 0.18515,-0.584155 0.06431,-0.165789 0.14843,-0.333358 0.245233,-0.491135 0.0968,-0.146651 0.209183,-0.285513 0.337808,-0.406126 0.134189,-0.121282 0.279504,-0.213189 0.440843,-0.278614 0.162673,-0.07411 0.341813,-0.111935 0.543208,-0.111935 0.161337,0 0.309323,0.02849 0.447963,0.08278 0.141087,0.0474 0.259921,0.123061 0.362064,0.216304 0.101254,0.09146 0.18604,0.212075 0.240561,0.341591 0.0563,0.130183 0.08857,0.276834 0.08857,0.443957 0,0.177138 -0.05964,0.371634 -0.17647,0.5846 -0.115495,0.221645 -0.254802,0.408352 -0.411912,0.564349 -0.152214,0.157778 -0.338476,0.287961 -0.556115,0.418144 -0.217194,0.120614 -0.449966,0.212966 -0.699206,0.278614 0.04028,0.0741 0.08189,0.137749 0.12729,0.193828 0.04384,0.04495 0.08545,0.08345 0.12551,0.120614 0.04339,0.02849 0.09013,0.04763 0.140865,0.05497 0.04629,0.0091 0.09725,0.01847 0.151324,0.01847 0.173132,0 0.357169,-0.03538 0.547436,-0.101698 0.195163,-0.07344 0.380758,-0.159113 0.562124,-0.259699 0.180698,-0.101698 0.351383,-0.212966 0.513833,-0.324011 0.162228,-0.120837 0.3002,-0.24145 0.412581,-0.342482 l 0.556115,0.564795 c -0.250353,0.269044 -0.523403,0.510495 -0.806468,0.713447 -0.126845,0.09213 -0.260143,0.17736 -0.403901,0.269713 -0.137527,0.08278 -0.291966,0.157777 -0.44774,0.231659 -0.15889,0.06342 -0.320228,0.120168 -0.48802,0.158 -0.171129,0.03494 -0.341369,0.05452 -0.514724,0.05452" />
  <path
     style="fill:#d32011;stroke-width:0.2225351"
     id="path59"
     d="m 17.813453,8.3214767 c 0,-0.02581 0,-0.06387 -0.0035,-0.101698 -0.0047,-0.03538 -0.01469,-0.07277 -0.02804,-0.1106 -0.01224,-0.03538 -0.03672,-0.06365 -0.06921,-0.08278 -0.02782,-0.02759 -0.06988,-0.03783 -0.125287,-0.03783 -0.07878,0 -0.152214,0.06565 -0.231214,0.195832 -0.07344,0.137081 -0.149099,0.305762 -0.22298,0.508047 -0.06943,0.205845 -0.133299,0.427712 -0.199837,0.678509 -0.05942,0.240783 -0.11505,0.482011 -0.169794,0.7141163 0.04495,0.0093 0.08657,0.0093 0.132854,0.0093 0.04339,0.0062 0.08812,0.0062 0.134411,0.01624 0.08523,-0.1464283 0.176247,-0.3044283 0.267932,-0.4724433 0.09413,-0.174467 0.183146,-0.342481 0.255915,-0.499145 0.075,-0.167347 0.139974,-0.325347 0.185817,-0.465544 0.05029,-0.136637 0.07299,-0.257251 0.07299,-0.35205 m 1.386394,5.4879383 c -0.277278,0.158667 -0.523625,0.297529 -0.740819,0.418143 -0.213189,0.129738 -0.407907,0.222535 -0.579037,0.30465 -0.167346,0.08323 -0.321118,0.13953 -0.450856,0.18693 -0.130405,0.03494 -0.249907,0.0543 -0.355833,0.0543 -0.21764,0 -0.412135,-0.06365 -0.579704,-0.193161 -0.166679,-0.130183 -0.305096,-0.324233 -0.417476,-0.574363 -0.109933,-0.251019 -0.194051,-0.557895 -0.250352,-0.910391 -0.05541,-0.351828 -0.08256,-0.74883 -0.08256,-1.196126 0,-0.175135 0.0045,-0.361174 0.01758,-0.555447 0.01402,-0.192716 0.0385,-0.389437 0.06008,-0.58371 -0.08212,-0.0082 -0.152436,-0.02826 -0.197611,-0.03716 -0.05252,-0.0096 -0.104369,-0.01892 -0.153772,-0.03561 -0.05541,-0.0093 -0.125287,-0.01959 -0.203397,-0.03783 -0.08456,-0.0096 -0.204064,-0.02848 -0.362509,-0.04673 -0.06965,-0.0093 -0.12462,-0.02893 -0.161339,-0.05563 -0.03739,-0.02782 -0.06431,-0.05564 -0.08345,-0.09146 -0.01446,-0.03805 -0.02915,-0.07522 -0.02915,-0.122617 -0.0029,-0.03471 -0.0029,-0.07344 -0.0029,-0.101921 0,-0.0454 0.02715,-0.07322 0.08212,-0.101699 0.0563,-0.02893 0.131073,-0.04451 0.217862,-0.05408 0.08879,-0.0096 0.185816,-0.01914 0.293524,-0.01914 h 0.304205 c 0.0988,0.0096 0.180698,0.0096 0.259253,0.0096 0.08034,0 0.130628,0 0.157778,-0.0096 0.07944,-0.3896593 0.181365,-0.7606253 0.297307,-1.1320363 0.120613,-0.361619 0.254802,-0.685631 0.403456,-0.964468 0.14754,-0.285957 0.309546,-0.508269 0.485794,-0.685185 0.176247,-0.164898 0.356056,-0.259698 0.551441,-0.259698 0.125733,0 0.241229,0.0385 0.338254,0.113938 0.107485,0.06298 0.195831,0.155107 0.264372,0.266375 0.0741,0.120613 0.130405,0.250797 0.167123,0.408797 0.0365,0.155773 0.0592,0.313774 0.0592,0.482678 0,0.139084 -0.0227,0.285512 -0.0592,0.434611 -0.04117,0.157777 -0.09658,0.313997 -0.167123,0.472664 -0.06854,0.158 -0.148876,0.323344 -0.245457,0.482012 -0.09235,0.167568 -0.190267,0.3329123 -0.296194,0.4922473 0.02915,-0.01024 0.06943,-0.01024 0.129961,-0.01024 0.05919,0.01024 0.135301,0.01024 0.212966,0.01914 h 0.253912 c 0.09391,0.0087 0.185595,0.0087 0.269045,0.0087 0.0879,0.01024 0.167569,0.01024 0.241006,0.01024 0.07878,0.0087 0.139307,0.0087 0.190935,0.0087 0.05497,0 0.09747,0.03672 0.124174,0.09369 0.02403,0.06298 0.03739,0.138194 0.03739,0.230546 0,0.111045 -0.02737,0.202952 -0.0879,0.269712 -0.05497,0.06387 -0.119946,0.101921 -0.189377,0.101921 h -1.663673 c -0.08278,0.110601 -0.167346,0.221645 -0.25458,0.332913 -0.08479,0.110377 -0.163118,0.212076 -0.236332,0.304651 -0.0089,0.17736 -0.01803,0.351605 -0.02759,0.529856 -0.0054,0.07277 -0.0054,0.14843 -0.01158,0.230769 -0.0038,0.08323 -0.0038,0.158222 -0.0098,0.231659 -0.0033,0.08301 -0.0033,0.159334 -0.0033,0.232103 -0.0051,0.06609 -0.0051,0.138862 -0.0051,0.194496 0,0.156665 0.01446,0.287516 0.04228,0.398783 0.03316,0.101476 0.07366,0.192493 0.130183,0.259476 0.05029,0.06387 0.121282,0.120614 0.198946,0.149099 0.07945,0.02648 0.170685,0.04495 0.270381,0.04495 0.06008,0 0.131741,-0.01847 0.225873,-0.04495 0.09191,-0.02849 0.19138,-0.06565 0.301757,-0.120837 0.106372,-0.04718 0.21675,-0.110377 0.338031,-0.17736 0.119279,-0.07321 0.241006,-0.148876 0.356279,-0.231215 0.115496,-0.08278 0.231436,-0.166233 0.337808,-0.260143 0.107485,-0.09235 0.199836,-0.184481 0.287738,-0.276388 z" />
  <path
     style="fill:#d32011;stroke-width:0.2225351"
     id="path63"
     d="m 19.564804,9.3139837 c 0,-0.07388 0.01513,-0.149099 0.04295,-0.231882 0.0267,-0.08301 0.07277,-0.168014 0.139084,-0.240783 0.06342,-0.07388 0.153549,-0.130628 0.259476,-0.185149 0.110822,-0.04606 0.244789,-0.07499 0.407239,-0.07499 0.101698,0 0.195163,0.01002 0.282397,0.03761 0.09369,0.01914 0.166679,0.05385 0.237222,0.101699 0.06409,0.04696 0.119725,0.111267 0.158,0.193605 0.0365,0.07566 0.05875,0.168014 0.05875,0.279281 0,0.101477 -0.01803,0.194051 -0.05051,0.287961 -0.03293,0.09235 -0.08345,0.175135 -0.14843,0.250129 -0.06921,0.0741 -0.15711,0.128403 -0.263927,0.175803 -0.107484,0.04673 -0.23255,0.06565 -0.378532,0.06565 -0.252578,0 -0.4424,-0.05697 -0.561679,-0.176248 -0.121727,-0.121281 -0.182034,-0.288628 -0.182034,-0.482678 m 1.934053,4.5419413 c -0.102589,0.09235 -0.232772,0.193383 -0.390104,0.304651 -0.151324,0.101698 -0.319116,0.206067 -0.495141,0.298196 -0.181366,0.09169 -0.362509,0.164899 -0.546768,0.221868 -0.191603,0.06431 -0.367851,0.09213 -0.532972,0.09213 -0.149766,0 -0.279504,-0.01958 -0.381203,-0.0543 -0.101921,-0.0474 -0.184704,-0.103702 -0.245456,-0.176916 -0.06498,-0.07321 -0.111045,-0.168014 -0.138194,-0.279281 -0.02782,-0.110378 -0.04339,-0.231882 -0.04339,-0.361398 0,-0.17558 0.02403,-0.388101 0.0652,-0.628661 0.07922,-0.501594 0.134633,-0.789777 0.158445,-0.843408 0.03672,-0.130851 0.121504,-0.399896 0.236555,-0.82516 0.110599,-0.342482 0.176025,-0.565017 0.202951,-0.669163 0.01491,-0.07255 0.05163,-0.136414 0.121282,-0.203397 0.05474,-0.04428 0.124397,-0.09213 0.198501,-0.128848 0.07544,-0.02982 0.153995,-0.05563 0.232104,-0.0741 0.08479,-0.0093 0.156887,-0.01892 0.222091,-0.01892 0.121058,0 0.200058,0.01892 0.241673,0.0632 0.04139,0.04807 0.06453,0.104814 0.06453,0.178251 0,0.06387 -0.01447,0.159335 -0.04584,0.2686 -0.02871,0.121281 -0.06031,0.25191 -0.102143,0.397447 -0.03716,0.148876 -0.0928,0.342927 -0.167569,0.576144 -0.07366,0.231881 -0.12551,0.435946 -0.152437,0.594391 -0.02804,0.165121 -0.0603,0.333135 -0.100586,0.488465 -0.04361,0.168236 -0.06142,0.316444 -0.06142,0.446628 0,0.13085 0.01491,0.231881 0.04206,0.305318 0.02826,0.08278 0.08968,0.120614 0.174912,0.120614 0.106817,0 0.218308,-0.03783 0.34849,-0.111268 0.125733,-0.07321 0.25547,-0.158445 0.385209,-0.260366 0.12907,-0.100808 0.255692,-0.212076 0.378755,-0.324011 0.125731,-0.101031 0.236554,-0.202729 0.330464,-0.278614 z" />
  <path
     style="fill:#d32011;stroke-width:0.2225351"
     id="path67"
     d="m 23.407986,8.3214767 c 0,-0.02581 0,-0.06387 -0.0045,-0.101698 -0.0042,-0.03538 -0.01446,-0.07277 -0.02804,-0.1106 -0.01491,-0.03538 -0.03694,-0.06365 -0.06899,-0.08278 -0.02804,-0.02759 -0.075,-0.03783 -0.130406,-0.03783 -0.07321,0 -0.148876,0.06565 -0.227875,0.195832 -0.07344,0.137081 -0.146874,0.305762 -0.220533,0.508047 -0.06965,0.205845 -0.135969,0.427712 -0.200281,0.678509 -0.06008,0.240783 -0.121504,0.482011 -0.171352,0.7141153 0.0425,0.0093 0.08835,0.0093 0.12907,0.0093 0.04718,0.0062 0.08901,0.0062 0.135079,0.01624 0.08901,-0.1464283 0.181143,-0.3044283 0.272828,-0.4724423 0.09346,-0.174467 0.181589,-0.342481 0.255248,-0.499146 0.0741,-0.167347 0.140196,-0.325347 0.186039,-0.465544 0.05029,-0.136636 0.07366,-0.25725 0.07366,-0.35205 m 1.386171,5.4879383 c -0.278391,0.158667 -0.52496,0.297529 -0.741265,0.418143 -0.218974,0.129738 -0.408129,0.222535 -0.579703,0.304651 -0.166679,0.08323 -0.320896,0.139529 -0.449966,0.186929 -0.130183,0.03494 -0.250798,0.0543 -0.356724,0.0543 -0.218084,0 -0.413247,-0.06365 -0.578146,-0.193161 -0.167099,-0.130134 -0.307296,-0.324185 -0.417673,-0.574314 -0.111268,-0.25102 -0.195386,-0.557896 -0.25013,-0.910391 -0.05675,-0.351828 -0.08479,-0.748831 -0.08479,-1.196126 0,-0.175135 0.0051,-0.361175 0.01892,-0.555448 0.01402,-0.192716 0.0385,-0.389436 0.06008,-0.583709 -0.08278,-0.0082 -0.152214,-0.02826 -0.198724,-0.03716 -0.0514,-0.0096 -0.101921,-0.01892 -0.153326,-0.03561 -0.05541,-0.0093 -0.126178,-0.01959 -0.206958,-0.03783 -0.07967,-0.0096 -0.200505,-0.02848 -0.357169,-0.04673 -0.0701,-0.0093 -0.1264,-0.02893 -0.163118,-0.05563 -0.0365,-0.02782 -0.06609,-0.05564 -0.0839,-0.09146 -0.01335,-0.03805 -0.02871,-0.07522 -0.02871,-0.122617 -0.0042,-0.03471 -0.0042,-0.07344 -0.0042,-0.101921 0,-0.0454 0.02915,-0.07321 0.08456,-0.101698 0.05497,-0.02893 0.129738,-0.04451 0.217639,-0.05408 0.08857,-0.0096 0.184259,-0.01914 0.291076,-0.01914 h 0.307766 c 0.09636,0.0096 0.179363,0.0096 0.258586,0.0096 0.07811,0 0.130628,0 0.157777,-0.0096 0.07989,-0.3896593 0.174468,-0.7606253 0.296195,-1.1320363 0.120168,-0.361619 0.256138,-0.68563 0.402788,-0.964467 0.148208,-0.285958 0.310659,-0.50827 0.486907,-0.685185 0.17647,-0.164899 0.356946,-0.259699 0.551664,-0.259699 0.125733,0 0.237,0.0385 0.337363,0.113938 0.102144,0.06298 0.190936,0.155107 0.265262,0.266375 0.0741,0.120613 0.129738,0.250797 0.165566,0.408797 0.04361,0.155774 0.06119,0.313774 0.06119,0.482678 0,0.139085 -0.0227,0.285513 -0.06498,0.434611 -0.03605,0.157778 -0.09168,0.313997 -0.161783,0.472665 -0.0701,0.158 -0.154216,0.323343 -0.246346,0.482011 -0.09102,0.167569 -0.188487,0.3329123 -0.295527,0.4922473 0.02626,-0.01024 0.06921,-0.01024 0.129293,-0.01024 0.06119,0.01024 0.130406,0.01024 0.212966,0.01914 h 0.255248 c 0.09168,0.0087 0.180698,0.0087 0.2686,0.0087 0.08768,0.01024 0.168013,0.01024 0.245679,0.01024 0.0741,0.0087 0.134188,0.0087 0.185816,0.0087 0.05474,0 0.09769,0.03672 0.125065,0.09369 0.0227,0.06298 0.03717,0.138194 0.03717,0.230547 0,0.111044 -0.02782,0.202951 -0.0879,0.269712 -0.05608,0.06387 -0.121726,0.101921 -0.19049,0.101921 H 22.85208 c -0.08412,0.1106 -0.167347,0.221645 -0.255471,0.332912 -0.08189,0.110378 -0.162005,0.212076 -0.236109,0.304651 -0.0087,0.177361 -0.02292,0.351605 -0.02715,0.529856 -0.0045,0.07277 -0.0098,0.148431 -0.0098,0.230769 -0.004,0.08323 -0.0096,0.158223 -0.0096,0.231659 -0.0035,0.08301 -0.0035,0.159335 -0.0091,0.232104 v 0.194496 c 0,0.156664 0.01469,0.287515 0.04295,0.398783 0.03049,0.101476 0.07277,0.192493 0.12462,0.259475 0.05497,0.06387 0.124174,0.120614 0.204064,0.149099 0.07833,0.02648 0.170462,0.04495 0.269045,0.04495 0.05897,0 0.133298,-0.01847 0.226763,-0.04495 0.08657,-0.02849 0.188265,-0.06565 0.296862,-0.120837 0.110155,-0.04718 0.221868,-0.110377 0.342036,-0.17736 0.120615,-0.07321 0.241674,-0.148876 0.357392,-0.231214 0.115719,-0.08278 0.226541,-0.166234 0.333135,-0.260143 0.109265,-0.09235 0.20451,-0.184482 0.292411,-0.276389 z" />
  <path
     style="fill:#d32011;stroke-width:0.2225351"
     id="path71"
     d="m 25.335139,12.71432 c 0.101698,0 0.218084,-0.02537 0.342481,-0.08278 0.121282,-0.04428 0.237,-0.111935 0.343595,-0.193828 0.101253,-0.08234 0.207847,-0.196054 0.310659,-0.333135 0.09703,-0.139529 0.148431,-0.250129 0.148431,-0.344929 0,-0.12818 -0.02448,-0.231215 -0.06988,-0.314888 -0.0474,-0.08189 -0.10704,-0.120391 -0.176916,-0.120391 -0.124174,0 -0.230991,0.01892 -0.318893,0.06632 -0.08857,0.04473 -0.162895,0.111045 -0.223202,0.174912 -0.06008,0.07588 -0.106817,0.158 -0.142645,0.250352 -0.03739,0.09213 -0.07922,0.203842 -0.124397,0.343594 -0.04874,0.129515 -0.07588,0.240783 -0.08034,0.332912 -0.0089,0.08456 -0.0089,0.158001 -0.0089,0.221868 m 0.579481,2.05845 c -0.274163,0 -0.505377,-0.04495 -0.710332,-0.149099 -0.203842,-0.101254 -0.368741,-0.231214 -0.504487,-0.39678 -0.135301,-0.177583 -0.236777,-0.370966 -0.305763,-0.593501 -0.06476,-0.222313 -0.09614,-0.454194 -0.09614,-0.694755 0,-0.158 0.02648,-0.351382 0.08679,-0.576365 0.0603,-0.212966 0.124619,-0.406795 0.185816,-0.584155 0.06453,-0.165789 0.148431,-0.333358 0.244566,-0.491135 0.0968,-0.146651 0.212298,-0.285513 0.343372,-0.406126 0.130406,-0.121282 0.278391,-0.213189 0.441509,-0.278614 0.160893,-0.07411 0.338031,-0.111935 0.5372,-0.111935 0.161783,0 0.314442,0.02849 0.453527,0.08278 0.139752,0.0474 0.259698,0.123061 0.362064,0.216304 0.101031,0.09146 0.180031,0.212075 0.240783,0.341591 0.05474,0.130183 0.08256,0.276834 0.08256,0.443957 0,0.177138 -0.0543,0.371634 -0.17469,0.5846 -0.117054,0.221645 -0.25102,0.408352 -0.409465,0.564349 -0.155997,0.157778 -0.343372,0.287961 -0.55478,0.418144 -0.219197,0.120614 -0.449966,0.212966 -0.704768,0.278614 0.04651,0.0741 0.08723,0.137749 0.128625,0.193828 0.04339,0.04495 0.08545,0.08345 0.130405,0.120614 0.04117,0.02849 0.08857,0.04763 0.134634,0.05497 0.04607,0.0091 0.101254,0.01847 0.157332,0.01847 0.171575,0 0.352051,-0.03538 0.546324,-0.101698 0.190935,-0.07344 0.381425,-0.159113 0.562123,-0.259699 0.180699,-0.101698 0.352496,-0.212966 0.514057,-0.324011 0.161338,-0.120837 0.295749,-0.24145 0.407907,-0.342482 l 0.560788,0.564795 c -0.25458,0.269044 -0.52318,0.510495 -0.810473,0.713447 -0.122172,0.09213 -0.25547,0.17736 -0.39945,0.269713 -0.142868,0.08278 -0.291967,0.157777 -0.449076,0.231659 -0.158223,0.06342 -0.321118,0.120168 -0.491803,0.158 -0.165566,0.03494 -0.33803,0.05452 -0.50916,0.05452" />
  <path
     style="fill:#d32011;stroke-width:0.2225351"
     id="path75"
     d="m 10.612218,19.036542 c -0.101254,-0.02603 -0.209406,-0.04428 -0.315777,-0.05452 -0.110155,-0.01892 -0.211186,-0.01892 -0.314442,-0.01892 -0.235665,0 -0.466879,0.03716 -0.695422,0.129516 -0.227432,0.09235 -0.449967,0.212966 -0.663378,0.37141 -0.212298,0.147319 -0.41525,0.333803 -0.610636,0.536533 -0.199836,0.212966 -0.379867,0.437949 -0.547659,0.678509 -0.167123,0.238113 -0.319338,0.489133 -0.452859,0.748608 -0.139084,0.260589 -0.253912,0.520065 -0.351605,0.780208 -0.09814,0.258141 -0.1738,0.508716 -0.228099,0.749499 -0.05207,0.250129 -0.07344,0.471996 -0.07344,0.678064 0,0.508493 0.07811,0.869222 0.243676,1.091534 0.164453,0.224316 0.41436,0.334916 0.757287,0.334916 0.212521,0 0.41614,-0.04584 0.606631,-0.129516 0.193382,-0.09346 0.369853,-0.214746 0.536087,-0.351828 0.167791,-0.149098 0.316222,-0.342481 0.455306,-0.573695 0.134856,-0.234552 0.255248,-0.437949 0.356947,-0.63111 0.101253,-0.187152 0.189822,-0.361397 0.25547,-0.53898 0.06431,-0.175135 0.111267,-0.324011 0.143535,-0.454194 z m 2.036196,5.598315 c -0.06119,0.06631 -0.140197,0.138862 -0.232104,0.221645 -0.09458,0.07588 -0.200727,0.159558 -0.316222,0.242118 -0.120169,0.08456 -0.247014,0.166901 -0.380313,0.240783 -0.133298,0.07588 -0.273496,0.148876 -0.417031,0.203397 -0.138417,0.06609 -0.283287,0.11238 -0.424597,0.148431 -0.140864,0.03783 -0.279726,0.05697 -0.408351,0.05697 -0.09346,0 -0.186262,-0.01914 -0.279727,-0.04829 -0.09168,-0.03471 -0.175803,-0.09102 -0.250129,-0.174245 -0.07344,-0.08456 -0.137972,-0.205846 -0.184705,-0.351828 -0.05096,-0.148432 -0.07366,-0.344485 -0.07366,-0.583265 0,-0.104147 0.008,-0.215414 0.0227,-0.326459 0.01313,-0.120169 0.03204,-0.250797 0.05474,-0.380535 -0.160893,0.326904 -0.34671,0.640011 -0.545879,0.938208 -0.203841,0.295972 -0.422594,0.526963 -0.652917,0.694532 -0.228322,0.174912 -0.464654,0.296194 -0.708997,0.390326 -0.246347,0.08278 -0.491358,0.127068 -0.737037,0.127068 -0.270825,0 -0.523402,-0.04428 -0.764407,-0.136414 C 6.108549,25.79293 5.893803,25.655181 5.713772,25.469586 5.529068,25.28555 5.37997,25.053224 5.273821,24.773719 5.162108,24.495996 5.11226,24.125029 5.11226,23.661266 c 0,-0.276833 0.03093,-0.574362 0.09658,-0.87879 0.06498,-0.307767 0.156442,-0.612195 0.282397,-0.926414 0.121282,-0.316223 0.274386,-0.621541 0.450634,-0.927972 0.17558,-0.305985 0.372968,-0.594613 0.602624,-0.870779 0.222536,-0.279059 0.467547,-0.529411 0.735256,-0.770194 0.264372,-0.23166 0.547437,-0.435724 0.85231,-0.612194 0.302203,-0.165344 0.621763,-0.305096 0.957346,-0.397226 0.331132,-0.103701 0.680067,-0.14932 1.040574,-0.14932 0.09858,0 0.171797,0.01024 0.232772,0.01958 0.05941,0.01914 0.101698,0.03494 0.133521,0.06342 0.02782,0.02893 0.04673,0.04785 0.05519,0.07633 0.01002,0.02604 0.01424,0.04495 0.01424,0.07344 0,0.0087 0,0.02715 -0.0042,0.03716 v 0.04473 c 0.07789,0.0474 0.158,0.07544 0.241006,0.08545 0.08345,0.0093 0.16156,0.0158 0.23967,0.02581 0.079,0.0096 0.153772,0.01892 0.222758,0.0474 0.07054,0.01825 0.130628,0.0632 0.186262,0.139084 0.05118,0.06387 0.09235,0.155997 0.125064,0.29575 0.02759,0.130182 0.04184,0.306876 0.04184,0.529411 0,0.164898 -0.01424,0.360729 -0.04184,0.583709 -0.03271,0.212299 -0.07388,0.443958 -0.125064,0.676062 -0.05564,0.240783 -0.115719,0.481343 -0.186262,0.722571 -0.06387,0.242341 -0.133521,0.472665 -0.202952,0.704101 -0.06899,0.222313 -0.134412,0.437727 -0.199169,0.641124 -0.0603,0.202952 -0.119724,0.380535 -0.170462,0.526296 -0.01513,0.130405 -0.02403,0.250351 -0.02871,0.362064 -0.0085,0.101698 -0.01491,0.224983 -0.01491,0.335583 0,0.09302 0.0065,0.174912 0.0093,0.231882 0.0056,0.0543 0.01024,0.101698 0.02359,0.137081 0.01068,0.03716 0.02826,0.0563 0.04673,0.07522 0.01892,0.01002 0.04607,0.01892 0.079,0.01892 0.05541,0 0.129516,-0.01892 0.21675,-0.04673 0.08835,-0.02915 0.181588,-0.07388 0.282842,-0.121282 0.0988,-0.04673 0.204287,-0.101031 0.311104,-0.158 0.105926,-0.05497 0.212298,-0.120613 0.310658,-0.174467 0.101254,-0.06676 0.195386,-0.111045 0.28262,-0.168014 0.08367,-0.04473 0.158,-0.08323 0.211409,-0.120614 z" />
  <path
     style="fill:#d32011;stroke-width:0.2225351"
     id="path79"
     d="m 13.907962,24.822454 c 0,-0.03805 0,-0.0948 0.0085,-0.157777 0.0045,-0.07344 0.01335,-0.149321 0.02381,-0.241451 0.01335,-0.09168 0.02648,-0.184482 0.04117,-0.288851 0.01402,-0.09302 0.02849,-0.193828 0.04228,-0.295081 0.03249,-0.230992 0.06899,-0.482679 0.115051,-0.742154 h -0.06409 c -0.03404,0.03783 -0.07433,0.101475 -0.11594,0.195608 -0.04584,0.08367 -0.109932,0.212966 -0.190268,0.377864 -0.08412,0.168682 -0.185594,0.389882 -0.310213,0.660929 -0.125066,0.26593 -0.288629,0.592611 -0.486907,0.979823 -0.06075,0.119946 -0.125065,0.196498 -0.204288,0.232103 -0.07388,0.04651 -0.158444,0.06609 -0.250352,0.06609 -0.120613,0 -0.214078,-0.02826 -0.28707,-0.07321 -0.06943,-0.0474 -0.124175,-0.111712 -0.166233,-0.196498 -0.03739,-0.08278 -0.06476,-0.174913 -0.07477,-0.28618 -0.01402,-0.101699 -0.02314,-0.214079 -0.02314,-0.326014 0,-0.119947 0.0091,-0.257028 0.02314,-0.415695 0.0138,-0.167347 0.03182,-0.333803 0.05564,-0.520065 0.02137,-0.174913 0.05563,-0.380312 0.102589,-0.612194 0.0454,-0.231214 0.08278,-0.435279 0.115273,-0.609524 0.03294,-0.167569 0.06899,-0.325346 0.102367,-0.465766 0.03672,-0.145983 0.06965,-0.257251 0.09747,-0.35205 0.02849,-0.09191 0.05474,-0.164676 0.08189,-0.222313 0.02425,-0.0543 0.05697,-0.101921 0.08924,-0.129515 0.03227,-0.02603 0.0701,-0.0543 0.115719,-0.0632 0.04562,-0.01002 0.106149,-0.01002 0.180921,-0.01002 0.106594,0 0.194495,0 0.255025,0.01002 0.06498,0.0089 0.111045,0.01825 0.139084,0.04607 0.03138,0.02603 0.04985,0.07344 0.05474,0.118166 0.0045,0.0563 0.0089,0.130851 0.0089,0.224315 0,0.04562 -0.0045,0.101699 -0.0089,0.166234 -0.0049,0.06632 -0.008,0.129516 -0.01758,0.206068 -0.0058,0.07277 -0.01491,0.14665 -0.02782,0.222312 -0.01758,0.145983 -0.02693,0.221645 -0.03226,0.230769 -0.04273,0.193161 -0.08434,0.415474 -0.125733,0.656924 l 0.04607,0.0563 c 0.0058,-0.0089 0.04629,-0.08479 0.11505,-0.231213 0.07099,-0.149099 0.149766,-0.288851 0.227876,-0.437282 0.08367,-0.139752 0.171575,-0.285735 0.269268,-0.44418 0.09235,-0.158445 0.186039,-0.295082 0.273273,-0.415918 0.08278,-0.121059 0.171129,-0.215859 0.264371,-0.297307 0.09235,-0.0741 0.20807,-0.111268 0.33358,-0.111268 0.124843,0 0.226096,0.02826 0.314665,0.100809 0.08434,0.07344 0.130851,0.177583 0.130851,0.307766 0,0.111267 -0.01002,0.222535 -0.02381,0.323788 -0.01402,0.129961 -0.03093,0.231215 -0.05052,0.295527 -0.01981,0.07566 -0.04161,0.166901 -0.0701,0.278836 -0.01847,0.09146 -0.05608,0.231659 -0.106372,0.418144 -0.0093,0.02648 -0.01825,0.06365 -0.02782,0.127512 -0.0049,0.0093 -0.0049,0.02849 -0.0049,0.02849 l 0.05163,0.0563 c 0.0026,-0.0089 0.04161,-0.08479 0.118834,-0.231214 0.07522,-0.139085 0.154439,-0.288851 0.24145,-0.427935 0.0879,-0.149099 0.185817,-0.295081 0.283065,-0.453527 0.102366,-0.158444 0.193605,-0.295081 0.278391,-0.415918 0.0839,-0.110377 0.170907,-0.215858 0.250575,-0.28796 0.08634,-0.08345 0.190044,-0.120614 0.311326,-0.120614 0.132854,0 0.249462,0.02826 0.341814,0.100809 0.09191,0.07344 0.139085,0.177582 0.139085,0.307765 0,0.20362 -0.0091,0.387656 -0.02737,0.574364 -0.01981,0.174467 -0.05096,0.380534 -0.09213,0.592833 -0.0385,0.22298 -0.07099,0.415696 -0.08901,0.602625 -0.02292,0.175135 -0.03226,0.362065 -0.03226,0.565017 0,0.158445 0.01892,0.28618 0.05941,0.389881 0.04228,0.0928 0.08812,0.147096 0.148432,0.147096 0.06053,0 0.126177,-0.01647 0.190044,-0.04562 0.06565,-0.01869 0.135969,-0.05697 0.204065,-0.09146 0.06965,-0.0474 0.138862,-0.0948 0.204064,-0.149321 0.06609,-0.05675 0.129961,-0.111045 0.190713,-0.167346 0.142867,-0.130183 0.28173,-0.28618 0.421482,-0.454862 l 0.0681,1.028557 c -0.12284,0.0948 -0.248573,0.196498 -0.373192,0.306876 -0.125732,0.102589 -0.260811,0.194718 -0.399228,0.285735 -0.139752,0.08545 -0.29753,0.149766 -0.463763,0.205845 -0.167347,0.05519 -0.357391,0.08345 -0.565462,0.08345 -0.100808,0 -0.190267,-0.03783 -0.265929,-0.101699 -0.06787,-0.06632 -0.12462,-0.158445 -0.170017,-0.278614 -0.04117,-0.120614 -0.0701,-0.260366 -0.08701,-0.41614 -0.02359,-0.158668 -0.0336,-0.33358 -0.0336,-0.529634 0,-0.183814 0.01001,-0.380312 0.01958,-0.584377 0.01402,-0.202729 0.03093,-0.406349 0.05497,-0.620428 h -0.06453 l -0.876788,2.225796 c -0.07855,0.120169 -0.161338,0.203397 -0.25458,0.239003 -0.09324,0.04651 -0.199614,0.06609 -0.320005,0.06609 -0.09347,0 -0.162673,-0.02826 -0.218307,-0.07321 -0.0543,-0.0474 -0.09614,-0.111713 -0.129071,-0.18693 -0.02782,-0.08345 -0.05163,-0.165566 -0.06053,-0.260366 -0.008,-0.09213 -0.01291,-0.174245 -0.01291,-0.266597" />
  <path
     style="fill:#d32011;stroke-width:0.2225351"
     id="path83"
     d="m 19.348945,20.298316 c 0.01847,-0.03716 0.04073,-0.09458 0.0741,-0.166679 0.03227,-0.0741 0.06988,-0.165566 0.111713,-0.261034 0.03984,-0.10103 0.08345,-0.202729 0.134634,-0.313997 0.04495,-0.111045 0.09168,-0.221867 0.141532,-0.332912 0.11149,-0.260366 0.236777,-0.53898 0.367183,-0.844076 0.04072,-0.09169 0.09703,-0.168014 0.171797,-0.2054 0.079,-0.04562 0.156665,-0.0632 0.240561,-0.0632 0.07455,0 0.148653,0.0076 0.226985,0.03716 0.07433,0.02604 0.140642,0.07344 0.199392,0.120836 0.06008,0.05363 0.106149,0.119501 0.14487,0.184482 0.03672,0.07522 0.05564,0.158 0.05564,0.24145 0,0.138862 -0.05252,0.277946 -0.159113,0.417254 -0.0543,0.08234 -0.116608,0.156442 -0.190489,0.250352 -0.0681,0.09257 -0.142645,0.184704 -0.21764,0.285735 -0.07922,0.101698 -0.157332,0.19405 -0.235664,0.298197 -0.07856,0.101698 -0.153105,0.193383 -0.227654,0.276611 -0.06876,0.09235 -0.139085,0.167569 -0.193828,0.240783 -0.06142,0.07588 -0.10704,0.130183 -0.143535,0.177583 -0.04607,0.0543 -0.09792,0.09235 -0.143536,0.120614 -0.05163,0.02782 -0.10281,0.03471 -0.148876,0.03471 -0.06943,0 -0.128402,-0.02537 -0.179585,-0.08256 -0.0474,-0.04428 -0.07077,-0.120169 -0.07077,-0.202952 0,-0.03739 0,-0.06632 0.0082,-0.101699 0.0056,-0.03739 0.01914,-0.07588 0.03405,-0.111267 m -0.770195,3.252572 c 0.102367,0 0.218308,-0.02648 0.338477,-0.08278 0.124619,-0.05697 0.240337,-0.119946 0.344039,-0.204064 0.106149,-0.07522 0.20718,-0.185594 0.309324,-0.325346 0.101698,-0.137082 0.153771,-0.24835 0.153771,-0.343149 0,-0.129293 -0.0247,-0.23166 -0.0701,-0.313998 -0.04562,-0.08212 -0.10615,-0.120613 -0.17647,-0.120613 -0.124843,0 -0.231659,0.01825 -0.320229,0.06431 -0.0859,0.04629 -0.16067,0.103702 -0.221199,0.177138 -0.06075,0.07255 -0.107262,0.158 -0.144648,0.24056 -0.0365,0.09235 -0.07833,0.212967 -0.124397,0.342482 -0.0474,0.140197 -0.07455,0.251465 -0.079,0.33358 -0.0096,0.09213 -0.0096,0.168236 -0.0096,0.231881 m 0.574809,2.057782 c -0.267042,0 -0.504487,-0.04673 -0.704101,-0.14843 -0.203398,-0.101031 -0.371634,-0.231215 -0.505155,-0.406794 -0.134189,-0.168015 -0.23611,-0.361398 -0.305318,-0.583265 -0.06542,-0.224316 -0.103701,-0.456642 -0.103701,-0.697648 0,-0.155774 0.03449,-0.352495 0.09435,-0.57414 0.05919,-0.222312 0.125954,-0.415695 0.189822,-0.583932 0.06053,-0.174913 0.143312,-0.332913 0.241228,-0.491358 0.0968,-0.155551 0.213189,-0.28618 0.342927,-0.406348 0.12907,-0.120615 0.277501,-0.214747 0.439506,-0.288851 0.162673,-0.06365 0.339144,-0.101031 0.538535,-0.101031 0.161783,0 0.309769,0.02849 0.449076,0.07344 0.139974,0.05608 0.259476,0.129515 0.361842,0.22476 0.106817,0.09169 0.184927,0.202284 0.239893,0.342482 0.0603,0.130182 0.08879,0.276833 0.08879,0.443512 0,0.175803 -0.06097,0.371634 -0.17736,0.583265 -0.114828,0.222979 -0.25369,0.409909 -0.407907,0.556559 -0.155997,0.158 -0.342036,0.296862 -0.558563,0.418367 -0.214969,0.119946 -0.445515,0.222312 -0.700985,0.285512 0.04517,0.07633 0.08812,0.13953 0.12996,0.18693 0.04095,0.05452 0.08367,0.09235 0.12551,0.120169 0.04562,0.02915 0.09235,0.04562 0.139752,0.06364 0.04495,0.0096 0.101031,0.0096 0.152214,0.0096 0.17558,0 0.356946,-0.02759 0.551441,-0.101031 0.189823,-0.06387 0.374973,-0.149766 0.560566,-0.250798 0.180031,-0.101698 0.352051,-0.212965 0.515169,-0.33358 0.161561,-0.120614 0.29664,-0.231436 0.411913,-0.341814 l 0.55478,0.573696 c -0.25369,0.269712 -0.522735,0.510495 -0.810251,0.713892 -0.124841,0.09235 -0.25458,0.174468 -0.397892,0.259477 -0.14487,0.09235 -0.291966,0.16512 -0.450411,0.231881 -0.157332,0.06342 -0.319338,0.120837 -0.4898,0.165566 -0.169127,0.03716 -0.339366,0.0563 -0.515836,0.0563" />
  <path
     style="fill:#d32011;stroke-width:0.2225351"
     id="path87"
     d="m 21.932578,22.178737 c 0.130851,-0.231436 0.27038,-0.501149 0.415028,-0.788442 0.145982,-0.286402 0.285512,-0.593945 0.416363,-0.898373 0.127735,-0.304651 0.240115,-0.612417 0.338698,-0.926192 0.09168,-0.307321 0.152214,-0.593278 0.180031,-0.853644 0,-0.08212 0,-0.158223 -0.0045,-0.221868 -0.0049,-0.05675 -0.01958,-0.08212 -0.04095,-0.08212 -0.07878,0 -0.162896,0.05385 -0.256138,0.165566 -0.09213,0.101031 -0.184704,0.250129 -0.272161,0.443513 -0.09413,0.186929 -0.204732,0.490912 -0.330909,0.909055 -0.129071,0.4266 -0.189823,0.629552 -0.189823,0.629552 0,0 -0.04139,0.195831 -0.115273,0.595504 -0.07856,0.388101 -0.12551,0.73036 -0.140419,1.027444 m -0.0025,3.429489 c -0.15889,0 -0.301312,-0.06565 -0.435946,-0.203397 -0.134634,-0.130184 -0.251242,-0.316668 -0.347377,-0.538313 -0.101031,-0.231882 -0.17647,-0.49158 -0.231214,-0.796676 -0.06008,-0.297751 -0.08479,-0.612416 -0.08479,-0.944661 0,-0.279727 0.0365,-0.659594 0.120614,-1.132704 0.08412,-0.473332 0.124843,-0.703878 0.124843,-0.703878 0,0 0.0652,-0.24145 0.190045,-0.714561 0.126622,-0.472664 0.255025,-0.850306 0.379422,-1.138489 0.125509,-0.278836 0.264594,-0.548549 0.411912,-0.796008 0.149544,-0.24145 0.307766,-0.465988 0.468214,-0.64958 0.163564,-0.185149 0.336028,-0.324011 0.51094,-0.425265 0.181367,-0.111712 0.362288,-0.168681 0.542096,-0.168681 0.133966,0 0.247237,0.02915 0.33358,0.08345 0.08924,0.04673 0.15444,0.109709 0.204732,0.205177 0.05118,0.08167 0.08278,0.174467 0.106818,0.276166 0.01847,0.111268 0.02782,0.212744 0.02782,0.326682 0,0.275943 -0.02782,0.554779 -0.09858,0.834729 -0.06409,0.284845 -0.147763,0.563459 -0.257696,0.850306 -0.107929,0.288183 -0.236777,0.576143 -0.380757,0.861879 -0.144203,0.28796 -0.292634,0.57414 -0.448631,0.853422 -0.158222,0.288183 -0.311549,0.564127 -0.474667,0.833394 -0.15711,0.279949 -0.300868,0.546546 -0.434611,0.80669 -0.01402,0.02849 -0.02849,0.06565 -0.04673,0.111267 -0.01357,0.0474 -0.02693,0.101031 -0.04183,0.157777 -0.01491,0.04495 -0.03204,0.111268 -0.04584,0.167569 -0.01491,0.06387 -0.02425,0.118834 -0.03226,0.175135 v 0.06698 c 0,0.07321 0.0042,0.146428 0.02181,0.221645 0.01535,0.07321 0.03382,0.127735 0.06097,0.19405 0.02359,0.0563 0.04607,0.101031 0.07388,0.130183 0.02248,0.03783 0.04651,0.05452 0.0701,0.05452 0.05986,0 0.120392,-0.01669 0.193606,-0.0356 0.07054,-0.02849 0.149321,-0.05697 0.232104,-0.0928 0.079,-0.03739 0.161116,-0.08479 0.249017,-0.139752 0.0859,-0.04673 0.169127,-0.101031 0.247014,-0.157999 0.19049,-0.119947 0.385875,-0.259699 0.588827,-0.416364 l 0.379868,0.908611 c -0.264817,0.174245 -0.52318,0.332913 -0.782434,0.471775 -0.112379,0.05519 -0.231659,0.111267 -0.353162,0.165788 -0.119947,0.05675 -0.239893,0.113048 -0.36073,0.159112 -0.121059,0.03716 -0.242563,0.07277 -0.358282,0.101254 -0.11594,0.02826 -0.221644,0.03716 -0.322676,0.03716" />
  <path
     style="fill:#d32011;stroke-width:0.2225351"
     id="path91"
     d="m 23.991027,20.140316 c 0,-0.06387 0.01402,-0.139085 0.04629,-0.221868 0.02915,-0.08323 0.07455,-0.168014 0.139752,-0.24056 0.06498,-0.07588 0.152659,-0.139084 0.259476,-0.186484 0.107262,-0.05497 0.245233,-0.07321 0.408129,-0.07321 0.09725,0 0.192938,0.0089 0.281284,0.02782 0.08835,0.02782 0.167347,0.0632 0.231882,0.111267 0.0701,0.04473 0.121282,0.111046 0.158,0.193161 0.04228,0.07588 0.06075,0.168014 0.06075,0.279281 0,0.09168 -0.01513,0.194051 -0.04629,0.286181 -0.03294,0.09413 -0.08479,0.176916 -0.154217,0.250129 -0.0681,0.07588 -0.156887,0.130183 -0.258808,0.177584 -0.106149,0.04673 -0.231437,0.06453 -0.379868,0.06453 -0.254135,0 -0.439062,-0.06453 -0.560343,-0.185372 -0.124842,-0.120614 -0.18604,-0.279059 -0.18604,-0.482456 m 1.936727,4.552177 c -0.106149,0.09213 -0.231214,0.193382 -0.388101,0.295748 -0.154662,0.111268 -0.32045,0.211631 -0.502039,0.307099 -0.174245,0.09213 -0.360062,0.165343 -0.546769,0.221645 -0.184926,0.06453 -0.360507,0.09213 -0.527185,0.09213 -0.153105,0 -0.277502,-0.01892 -0.379867,-0.06542 -0.103035,-0.03561 -0.18515,-0.101921 -0.25013,-0.175135 -0.06075,-0.07321 -0.106372,-0.168682 -0.134634,-0.269045 -0.02737,-0.111268 -0.04095,-0.231881 -0.04095,-0.362732 0,-0.183369 0.01736,-0.386766 0.05964,-0.637118 0.08301,-0.501594 0.134633,-0.780208 0.161338,-0.843853 0.03783,-0.120837 0.115718,-0.399228 0.236777,-0.815813 0.105482,-0.341592 0.175803,-0.566575 0.199169,-0.677842 0.01825,-0.07321 0.05697,-0.136414 0.121282,-0.193829 0.05942,-0.0563 0.130182,-0.09235 0.202951,-0.129737 0.07455,-0.03783 0.153995,-0.05497 0.232995,-0.07388 0.08278,-0.01892 0.152436,-0.02826 0.220977,-0.02826 0.117499,0 0.194051,0.02826 0.242786,0.07321 0.0405,0.0474 0.06431,0.102366 0.06431,0.178251 0,0.06298 -0.01892,0.155329 -0.04673,0.269045 -0.02715,0.119946 -0.06632,0.247681 -0.102367,0.39678 -0.0365,0.149098 -0.09168,0.342481 -0.166901,0.574363 -0.07455,0.231882 -0.124397,0.427712 -0.152659,0.592611 -0.02849,0.168014 -0.05942,0.326014 -0.106817,0.492247 -0.03739,0.158 -0.0603,0.307544 -0.0603,0.44418 0,0.130184 0.01424,0.23433 0.04139,0.307544 0.03271,0.0721 0.08835,0.109932 0.181811,0.109932 0.101253,0 0.217862,-0.03783 0.342481,-0.101031 0.129961,-0.07588 0.259699,-0.157999 0.388992,-0.269267 0.125287,-0.101699 0.255025,-0.204065 0.381202,-0.314664 0.125288,-0.111268 0.231214,-0.205178 0.327349,-0.278615 z" />
  <path
     style="fill:#d32011;stroke-width:0.2225351"
     id="path95"
     d="m 26.498998,23.540652 c 0.106594,0 0.216749,-0.01647 0.342259,-0.07321 0.119946,-0.0563 0.236555,-0.119279 0.344707,-0.203397 0.105482,-0.07522 0.207403,-0.185817 0.308879,-0.325346 0.101475,-0.137082 0.152659,-0.248349 0.152659,-0.343149 0,-0.129516 -0.02336,-0.231882 -0.07522,-0.313997 -0.04607,-0.08212 -0.106149,-0.120837 -0.175135,-0.120837 -0.12462,0 -0.23255,0.01847 -0.319338,0.06453 -0.08812,0.04673 -0.162451,0.103702 -0.21764,0.176916 -0.06164,0.07277 -0.111044,0.157999 -0.144425,0.240782 -0.03605,0.09213 -0.07922,0.212967 -0.129515,0.34226 -0.04607,0.140419 -0.07522,0.251465 -0.07833,0.333135 -0.0051,0.0928 -0.0089,0.168681 -0.0089,0.222312 m 0.578813,2.068019 c -0.27038,0 -0.506489,-0.04673 -0.708996,-0.148431 -0.199614,-0.101254 -0.372079,-0.231437 -0.506491,-0.407016 -0.133521,-0.167792 -0.235886,-0.361398 -0.301534,-0.583043 -0.06787,-0.224315 -0.101254,-0.456642 -0.101254,-0.697647 0,-0.155997 0.02915,-0.352496 0.08901,-0.574363 0.06387,-0.222313 0.125955,-0.415695 0.188933,-0.58371 0.06387,-0.174912 0.144202,-0.332912 0.241005,-0.491357 0.09836,-0.155552 0.214301,-0.286403 0.344039,-0.406349 0.128848,-0.120615 0.277501,-0.215637 0.439507,-0.289073 0.161338,-0.06342 0.343594,-0.100809 0.54165,-0.100809 0.162451,0 0.311105,0.02848 0.449967,0.07321 0.138194,0.0563 0.259698,0.129516 0.360283,0.224983 0.104147,0.09168 0.181589,0.202062 0.241229,0.342482 0.05853,0.130182 0.08901,0.276833 0.08901,0.443512 0,0.17558 -0.05986,0.371412 -0.17558,0.583265 -0.121504,0.222757 -0.255248,0.409909 -0.413025,0.556115 -0.156665,0.158222 -0.341814,0.297306 -0.555893,0.418588 -0.218307,0.119947 -0.449521,0.222535 -0.699651,0.285735 0.04184,0.07633 0.08234,0.13953 0.125065,0.18693 0.04562,0.05452 0.08768,0.09235 0.130406,0.119947 0.04495,0.02915 0.08768,0.04584 0.137527,0.06387 0.04651,0.0096 0.09858,0.0096 0.154884,0.0096 0.170462,0 0.356946,-0.02759 0.545656,-0.101031 0.189822,-0.06387 0.380312,-0.149766 0.560566,-0.25102 0.180698,-0.101698 0.353163,-0.212743 0.515614,-0.33358 0.161115,-0.120614 0.300645,-0.231214 0.411245,-0.341591 l 0.556782,0.573473 c -0.25636,0.269712 -0.523402,0.510495 -0.806912,0.714115 -0.124174,0.09235 -0.259698,0.174467 -0.401898,0.259476 -0.144648,0.09235 -0.293079,0.165121 -0.451079,0.231881 -0.156887,0.06342 -0.32045,0.120615 -0.49158,0.165566 -0.165566,0.03716 -0.338254,0.0563 -0.508493,0.0563" />
</svg>
