<svg id="Icon-Cart" xmlns="http://www.w3.org/2000/svg" width="30" height="30.001" viewBox="0 0 30 30.001">
    <path id="cart" d="M0,2A1,1,0,0,1,1,1H4a1,1,0,0,1,.97.758L5.78,5H29a1,1,0,0,1,.982,1.184l-3,16A1,1,0,0,1,26,23H8a1,1,0,0,1-.982-.816l-3-15.97L3.22,3H1A1,1,0,0,1,0,2ZM6.2,7,8.83,21H25.171L27.8,7ZM10,23a4,4,0,1,0,4,4A4,4,0,0,0,10,23Zm14,0a4,4,0,1,0,4,4A4,4,0,0,0,24,23ZM10,25a2,2,0,1,0,2,2A2,2,0,0,0,10,25Zm14,0a2,2,0,1,0,2,2A2,2,0,0,0,24,25Z" transform="translate(0 -1)" fill-rule="evenodd"/>
</svg>
