<svg xmlns="http://www.w3.org/2000/svg" width="40" height="40" viewBox="0 0 40 40">
    <g id="Group_1090" data-name="Group 1090" transform="translate(201.544 -285.109)">
        <path id="Path_645" data-name="Path 645" d="M-181.544,325.109a20.022,20.022,0,0,1-20-20,20.022,20.022,0,0,1,20-20,20.023,20.023,0,0,1,20,20A20.022,20.022,0,0,1-181.544,325.109Zm0-38.211a18.231,18.231,0,0,0-18.211,18.211,18.231,18.231,0,0,0,18.21,18.212h0a18.232,18.232,0,0,0,18.211-18.211A18.232,18.232,0,0,0-181.544,286.9Z" fill="#fff"/>
        <g id="Group_1089" data-name="Group 1089" transform="translate(-192.72 297.251)">
            <g id="Group_1088" data-name="Group 1088">
                <path id="Path_646" data-name="Path 646" d="M-161.427,312.257H-179.85a1.968,1.968,0,0,0-1.965,1.965v11.787a1.967,1.967,0,0,0,1.965,1.964h18.423a1.967,1.967,0,0,0,1.965-1.964V314.222A1.967,1.967,0,0,0-161.427,312.257Zm-.275,1.31-7.548,7.507a1.95,1.95,0,0,1-1.389.576,1.951,1.951,0,0,1-1.39-.577l-7.546-7.506Zm-18.8,12.176V314.489l5.659,5.63Zm.931.921,5.657-5.621.963.958a3.251,3.251,0,0,0,2.315.959,3.251,3.251,0,0,0,2.314-.958l.964-.959,5.658,5.621Zm18.8-.921-5.659-5.624,5.659-5.63Z" transform="translate(181.815 -312.257)" fill="#fff"/>
            </g>
        </g>
    </g>
</svg>
