<svg width="48" height="48" viewBox="0 0 48 48" fill="none" xmlns="http://www.w3.org/2000/svg">
<path d="M24 39C32.2843 39 39 32.2843 39 24C39 15.7157 32.2843 9 24 9C15.7157 9 9 15.7157 9 24C9 32.2843 15.7157 39 24 39Z" fill="white"/>
<path opacity="0.7" fill-rule="evenodd" clip-rule="evenodd" d="M39 24C39 26.9667 38.1203 29.8668 36.4721 32.3336C34.8238 34.8003 32.4812 36.7229 29.7403 37.8582C26.9994 38.9935 23.9834 39.2906 21.0737 38.7118C18.1639 38.133 15.4912 36.7044 13.3934 34.6066C11.2956 32.5088 9.86701 29.8361 9.28823 26.9264C8.70945 24.0166 9.0065 21.0006 10.1418 18.2597C11.2771 15.5189 13.1997 13.1762 15.6665 11.528C18.1332 9.87973 21.0333 9 24 9C27.9783 9 31.7936 10.5804 34.6066 13.3934C37.4197 16.2064 39 20.0218 39 24ZM23.336 28.961C23.1709 29.1391 23.0812 29.3743 23.0857 29.6172C23.0903 29.86 23.1888 30.0917 23.3606 30.2634C23.5324 30.4352 23.764 30.5337 24.0068 30.5383C24.2497 30.5429 24.4849 30.4532 24.663 30.288L30.288 24.663C30.3752 24.5759 30.4443 24.4725 30.4915 24.3586C30.5387 24.2448 30.563 24.1227 30.563 23.9995C30.563 23.8763 30.5387 23.7542 30.4915 23.6404C30.4443 23.5265 30.3752 23.4231 30.288 23.336L24.664 17.711C24.5781 17.6184 24.4745 17.5441 24.3592 17.4924C24.2439 17.4408 24.1194 17.413 23.9932 17.4106C23.8669 17.4082 23.7414 17.4313 23.6243 17.4786C23.5072 17.5258 23.4008 17.5962 23.3115 17.6855C23.2222 17.7748 23.1518 17.8812 23.1046 17.9983C23.0573 18.1154 23.0342 18.2409 23.0366 18.3672C23.039 18.4934 23.0668 18.6179 23.1184 18.7332C23.1701 18.8485 23.2444 18.9521 23.337 19.038L27.363 23.062H18.375C18.1317 23.0699 17.9009 23.1722 17.7316 23.3472C17.5623 23.5221 17.4676 23.756 17.4676 23.9995C17.4676 24.243 17.5623 24.4769 17.7316 24.6518C17.9009 24.8268 18.1317 24.9291 18.375 24.937H27.362L23.336 28.961Z" fill="#424242"/>
<g filter="url(#filter0_d_24_20)">
<path d="M24 9C26.9667 9 29.8668 9.87973 32.3336 11.528C34.8003 13.1762 36.7229 15.5189 37.8582 18.2597C38.9935 21.0006 39.2906 24.0166 38.7118 26.9264C38.133 29.8361 36.7044 32.5088 34.6066 34.6066C32.5088 36.7044 29.8361 38.133 26.9264 38.7118C24.0166 39.2906 21.0006 38.9935 18.2597 37.8582C15.5189 36.7229 13.1762 34.8003 11.528 32.3336C9.87973 29.8668 9 26.9667 9 24C9 20.0218 10.5804 16.2064 13.3934 13.3934C16.2064 10.5804 20.0218 9 24 9V9Z" fill="#DA071D"/>
</g>
<path fill-rule="evenodd" clip-rule="evenodd" d="M22.587 30.289C22.4997 30.202 22.4305 30.0985 22.3832 29.9847C22.336 29.8708 22.3116 29.7488 22.3116 29.6255C22.3116 29.5022 22.336 29.3802 22.3832 29.2663C22.4305 29.1525 22.4997 29.049 22.587 28.962L27.55 24.001L22.587 19.037C22.4284 18.858 22.3441 18.6252 22.3513 18.3861C22.3584 18.1471 22.4565 17.9197 22.6256 17.7505C22.7947 17.5814 23.0219 17.4831 23.261 17.4757C23.5 17.4684 23.7329 17.5525 23.912 17.711L29.539 23.337C29.6262 23.4241 29.6954 23.5275 29.7425 23.6414C29.7897 23.7552 29.814 23.8773 29.814 24.0005C29.814 24.1237 29.7897 24.2458 29.7425 24.3596C29.6954 24.4735 29.6262 24.5769 29.539 24.664L23.912 30.289C23.8249 30.3762 23.7215 30.4453 23.6076 30.4925C23.4938 30.5397 23.3718 30.564 23.2485 30.564C23.1253 30.564 23.0033 30.5397 22.8894 30.4925C22.7756 30.4453 22.6721 30.3762 22.585 30.289H22.587Z" fill="white"/>
<path fill-rule="evenodd" clip-rule="evenodd" d="M16.688 24.001C16.6879 23.8778 16.712 23.7558 16.7591 23.6419C16.8062 23.528 16.8753 23.4246 16.9624 23.3374C17.0496 23.2503 17.153 23.1812 17.2669 23.1341C17.3807 23.087 17.5028 23.0629 17.626 23.063H27.001C27.2443 23.071 27.475 23.1732 27.6444 23.3482C27.8137 23.5231 27.9084 23.757 27.9084 24.0005C27.9084 24.244 27.8137 24.4779 27.6444 24.6529C27.475 24.8278 27.2443 24.9301 27.001 24.938H17.626C17.3774 24.938 17.139 24.8393 16.9631 24.6636C16.7872 24.4879 16.6883 24.2496 16.688 24.001V24.001Z" fill="white"/>
<defs>
<filter id="filter0_d_24_20" x="3" y="6" width="42" height="42" filterUnits="userSpaceOnUse" color-interpolation-filters="sRGB">
<feFlood flood-opacity="0" result="BackgroundImageFix"/>
<feColorMatrix in="SourceAlpha" type="matrix" values="0 0 0 0 0 0 0 0 0 0 0 0 0 0 0 0 0 0 127 0" result="hardAlpha"/>
<feOffset dy="3"/>
<feGaussianBlur stdDeviation="3"/>
<feColorMatrix type="matrix" values="0 0 0 0 0 0 0 0 0 0 0 0 0 0 0 0 0 0 0.161 0"/>
<feBlend mode="normal" in2="BackgroundImageFix" result="effect1_dropShadow_24_20"/>
<feBlend mode="normal" in="SourceGraphic" in2="effect1_dropShadow_24_20" result="shape"/>
</filter>
</defs>
</svg>
