<svg xmlns="http://www.w3.org/2000/svg" width="40" height="40" viewBox="0 0 40 40">
    <g id="Group_1087" data-name="Group 1087" transform="translate(-34.954 -105.31)">
        <g id="Group_1086" data-name="Group 1086" transform="translate(34.954 105.31)">
            <path id="Path_643" data-name="Path 643" d="M54.954,145.31a20,20,0,1,1,20-20A20.022,20.022,0,0,1,54.954,145.31Zm0-38.211A18.211,18.211,0,1,0,73.165,125.31,18.231,18.231,0,0,0,54.954,107.1Z" transform="translate(-34.954 -105.31)" fill="#fff"/>
        </g>
        <path id="Path_644" data-name="Path 644" d="M75.18,138.633H72.163v9.707H67.691v-9.707H65.564v-3.8h2.127v-2.459a4.194,4.194,0,0,1,4.512-4.513l3.312.014v3.689h-2.4a.91.91,0,0,0-.949,1.036v2.237H75.57Zm.521.114" transform="translate(-16.92 -12.465)" fill="#fff"/>
    </g>
</svg>
