<svg xmlns="http://www.w3.org/2000/svg" width="26.711" height="19.598" viewBox="0 0 26.711 19.598">
    <path id="Path_416" data-name="Path 416" d="M259.238,322.908a1.229,1.229,0,1,1,0-2.457h17.129a1.229,1.229,0,1,1,.068,2.457Zm-.011-8.571a1.229,1.229,0,0,1,0-2.457h24.3a1.229,1.229,0,0,1,0,2.457Zm.009-8.571a1.227,1.227,0,0,1-1.229-1.222,1.224,1.224,0,0,1,1.222-1.234h20.008a1.244,1.244,0,0,1,1.266,1.2,1.231,1.231,0,0,1-1.2,1.261H259.236Z" transform="translate(-258.007 -303.31)" fill="#030504"/>
</svg>
