<svg xmlns="http://www.w3.org/2000/svg" width="40" height="40" viewBox="0 0 40 40">
    <g id="Group_1081" data-name="Group 1081" transform="translate(-1178.248 -331.181)">
        <path id="Path_633" data-name="Path 633" d="M1198.248,371.181a20,20,0,1,1,20-20A20.023,20.023,0,0,1,1198.248,371.181Zm0-38.211a18.211,18.211,0,0,0,0,36.422h0a18.211,18.211,0,1,0,0-36.422Z" fill="#fff"/>
        <path id="Path_634" data-name="Path 634" d="M1220.158,363.308c0-5.327-5.34-9.66-11.9-9.66s-11.9,4.334-11.9,9.66c0,4.775,4.235,8.774,9.956,9.531.388.084.915.255,1.049.587a2.446,2.446,0,0,1,.038,1.076s-.14.84-.17,1.019c-.052.3-.239,1.177,1.031.642a38.427,38.427,0,0,0,9.353-6.912h0a8.6,8.6,0,0,0,2.551-5.943" transform="translate(-10.006 -12.419)" fill="#fff"/>
        <path id="Path_635" data-name="Path 635" d="M1216.24,369.492h-.835a.232.232,0,0,0-.232.232v5.187a.232.232,0,0,0,.232.231h.835a.232.232,0,0,0,.232-.231v-5.187a.232.232,0,0,0-.232-.232" transform="translate(-20.411 -21.177)"/>
        <path id="Path_636" data-name="Path 636" d="M1224.6,369.492h-.835a.232.232,0,0,0-.232.232v3.081l-2.377-3.21a.243.243,0,0,0-.018-.024h0l-.014-.014,0,0-.012-.01-.006,0-.012-.008-.007,0-.013-.007-.007,0-.013-.005-.008,0-.014,0-.008,0-.014,0h-.877a.232.232,0,0,0-.232.232v5.187a.232.232,0,0,0,.232.231h.835a.232.232,0,0,0,.232-.231V371.83l2.38,3.214a.235.235,0,0,0,.059.057l0,0,.014.009.007,0,.011.005.011,0,.007,0,.016.005h0a.216.216,0,0,0,.059.008h.835a.231.231,0,0,0,.232-.231v-5.187a.231.231,0,0,0-.232-.232" transform="translate(-23.019 -21.177)"/>
        <path id="Path_637" data-name="Path 637" d="M1208.649,373.843h-2.269v-4.12a.232.232,0,0,0-.232-.232h-.835a.232.232,0,0,0-.232.232v5.187h0a.228.228,0,0,0,.065.16l0,0,0,0a.231.231,0,0,0,.16.064h3.336a.232.232,0,0,0,.232-.232v-.835a.232.232,0,0,0-.232-.232" transform="translate(-14.833 -21.177)"/>
        <path id="Path_638" data-name="Path 638" d="M1236.31,370.791a.232.232,0,0,0,.232-.232v-.835a.232.232,0,0,0-.232-.232h-3.336a.231.231,0,0,0-.161.066l0,0,0,0a.232.232,0,0,0-.064.16h0v5.186h0a.232.232,0,0,0,.065.16l0,0,0,0a.229.229,0,0,0,.16.065h3.336a.232.232,0,0,0,.232-.232v-.835a.232.232,0,0,0-.232-.232h-2.269v-.877h2.269a.232.232,0,0,0,.232-.232V371.9a.232.232,0,0,0-.232-.232h-2.269v-.877Z" transform="translate(-30.122 -21.177)"/>
    </g>
</svg>
