<svg xmlns="http://www.w3.org/2000/svg" width="40" height="40" viewBox="0 0 40 40">
    <g id="Group_1102" data-name="Group 1102" transform="translate(-34.954 -217.965)">
        <g id="Group_1101" data-name="Group 1101" transform="translate(34.954 217.965)">
            <g id="Group_1099" data-name="Group 1099">
                <path id="Path_649" data-name="Path 649" d="M54.954,257.965a20,20,0,1,1,20-20A20.022,20.022,0,0,1,54.954,257.965Zm0-38.211a18.211,18.211,0,1,0,18.211,18.211A18.232,18.232,0,0,0,54.954,219.754Z" transform="translate(-34.954 -217.965)" fill="#fff"/>
            </g>
            <g id="Group_1100" data-name="Group 1100" transform="translate(10.971 12.636)">
                <path id="Path_650" data-name="Path 650" d="M79.238,248.119a8.088,8.088,0,0,1-2.328.638,4.067,4.067,0,0,0,1.782-2.242,8.109,8.109,0,0,1-2.573.983,4.056,4.056,0,0,0-6.906,3.7,11.5,11.5,0,0,1-8.353-4.234,4.057,4.057,0,0,0,1.254,5.411,4.036,4.036,0,0,1-1.835-.508c0,.017,0,.034,0,.051a4.055,4.055,0,0,0,3.251,3.973,4.059,4.059,0,0,1-1.83.07,4.056,4.056,0,0,0,3.786,2.814,8.192,8.192,0,0,1-6,1.679,11.525,11.525,0,0,0,17.743-9.711q0-.263-.012-.524a8.229,8.229,0,0,0,2.022-2.1Zm0,0" transform="translate(-59.484 -246.219)" fill="#fff"/>
            </g>
        </g>
    </g>
</svg>
