<svg xmlns="http://www.w3.org/2000/svg" width="30" height="30" viewBox="0 0 30 30">
    <path id="person" d="M29.5,32A2.448,2.448,0,0,0,32,29.5c0-2.5-2.5-10-15-10S2,27,2,29.5A2.448,2.448,0,0,0,4.5,32ZM4.512,29.64v0Zm.042-.14h24.89l.035-.005.02,0a6.68,6.68,0,0,0-2.08-4.16C25.79,23.7,22.722,22,17,22S8.21,23.7,6.58,25.33A6.694,6.694,0,0,0,4.5,29.49Zm24.935.14v0ZM17,14.5a5,5,0,1,0-5-5A5,5,0,0,0,17,14.5Zm7.5-5A7.5,7.5,0,1,1,17,2a7.5,7.5,0,0,1,7.5,7.5Z" transform="translate(-2 -2)" fill-rule="evenodd"/>
</svg>
