<svg width="60" height="60" viewBox="0 0 60 60" fill="none" xmlns="http://www.w3.org/2000/svg">
    <path d="M29.995.148c-7.99 0-15.452 3.055-21.141 8.702C3.217 14.532.148 22.003.148 30.003c0 16.463 13.4 29.849 29.847 29.849 16.457 0 29.855-13.387 29.855-29.849C59.852 13.546 46.452.148 29.995.148z" fill="#D51317"/>
    <path d="M39.555 33.087c-.767.23-1.688 3.008-.661 4.028 1.737 1.725 6.778-1.634 6.503-2.55-.05-.165-2.798 1.514-4.519.586-1.909-1.029-1.125-2.123-1.321-2.063l-.002-.001zM39.437 39.984c.01-.13-2.363.52-3.327-.5-1.068-1.134-.229-1.762-.384-1.76-.6.009-1.98 1.825-1.527 2.771.764 1.6 5.19.208 5.238-.511zM30.993 41.111c-.519-.146-2.11 1.077-1.932 2.013.302 1.587 4.422 1.513 4.623.902.036-.11-2.15-.157-2.754-1.29-.668-1.258.195-1.588.061-1.627l.002.002zM28.753 22.274c-.23.768-3.007 1.69-4.026.662-1.724-1.739 1.633-6.782 2.55-6.507.163.049-1.514 2.8-.587 4.521 1.028 1.91 2.121 1.126 2.061 1.322l.002.002zM21.858 22.392c.13-.01-.518 2.365.5 3.33 1.133 1.069 1.761.228 1.76.383-.01.601-1.825 1.982-2.77 1.529-1.6-.765-.208-5.193.51-5.242zM20.73 30.846c.146.52-1.075 2.112-2.012 1.934-1.585-.303-1.511-4.425-.9-4.626.108-.037.156 2.152 1.289 2.755 1.257.668 1.587-.195 1.625-.061l-.002-.002zM12.15 32.476c.062.334-2.647.126-3.132 1.98-.363 1.394 1.23 2.865.346 3.946-.564.69-2.32.705-3.286-.138-1.386-1.209-1.12-4.171.472-5.643 1.986-1.833 5.472-.84 5.6-.145zM40.757 12.854l-.641.19c-.646.128-1.33-.072-1.76-.573a1.843 1.843 0 0 1 .551-2.837 1.866 1.866 0 0 1 1.108-.17l3.738.503a.12.12 0 0 0 .1-.206c-2.955-2.949-6.265-3.555-7.623-2.362-1.026.901-.958 2.844-.527 4.093.672 1.945 2.749 3.7 4.067 3.16.19-.078.803-.384 1.136-1.654a.122.122 0 0 0-.15-.147l.001.003zM48.904 21.002l-.19.642c-.127.647.072 1.332.572 1.76a1.842 1.842 0 0 0 2.835-.551 1.87 1.87 0 0 0 .17-1.107l-.501-3.741a.12.12 0 0 1 .205-.1c2.947 2.956 3.553 6.268 2.36 7.628-.9 1.026-2.842.958-4.09.526-1.944-.672-3.698-2.75-3.158-4.07.078-.19.384-.802 1.653-1.136a.122.122 0 0 1 .147.15h-.003z" fill="#fff"/>
    <path d="M49.877 29.957c.656-.656 1.111-1.459 1.38-2.365a.24.24 0 0 0-.184-.3c-.611-.125-1.24-.304-1.883-.532a.237.237 0 0 0-.287.103c-.14.244-.307.466-.505.666-1.477 1.477-4.233 1.292-7.074-.212.47-1.447.644-2.782.492-3.913.671.188 1.395.255 2.15.201a2.262 2.262 0 0 0 1.44-.655c.088-.062.04-.199-.066-.192-1.708.082-3.367-.475-4.59-1.697-1.242-1.243-1.798-2.938-1.693-4.675.006-.108-.13-.155-.192-.068l-.008.011a3.585 3.585 0 0 0-.669 2.171c.012.515.084 1.011.213 1.481-1.13-.154-2.47.02-3.918.491-1.503-2.842-1.688-5.6-.212-7.078.2-.2.424-.367.666-.507.1-.056.141-.18.103-.287a14.175 14.175 0 0 1-.532-1.884.241.241 0 0 0-.309-.183c-.901.269-1.7.725-2.354 1.378-2.2 2.2-2.163 6.061-.266 9.884-2.23 1.222-4.578 2.985-6.785 5.193-4.464 4.466-6.249 10.374-6.438 13.682a7.51 7.51 0 0 1-.299 1.77c-.302.99-.885 2.265-2.086 2.89-.997.519-2.202.517-3.392-.006-1.872-.823-3.364-2.76-4.131-5.335-.006-.022-.026-.036-.048-.031-.368.058-1.048.026-1.545-.12a.034.034 0 0 0-.042.04c.465 1.924.527 3.425 2.592 5.492a7.948 7.948 0 0 0 2.418 1.68c1.722.758 3.505.74 5.019-.048 1.599-.832 2.919-2.222 3.79-3.319a.59.59 0 0 1 .437-.224c3.292-.169 9.248-1.947 13.744-6.445 2.207-2.209 3.969-4.558 5.19-6.79 3.82 1.897 7.68 1.935 9.879-.265l-.005-.002z" fill="#fff"/>
</svg>
